<svg width="723" height="482" viewBox="0 0 723 482" fill="none" xmlns="http://www.w3.org/2000/svg">
    <path d="M623.685 151.995c-6.392 0-11.575 5.182-11.575 11.575 0 6.392 5.183 11.575 11.575 11.575 6.393 0 11.575-5.183 11.575-11.575 0-6.393-5.182-11.575-11.575-11.575zM85.514 173.447c-5.993 0-10.85-4.858-10.85-10.851 0-5.993 4.857-10.851 10.85-10.851 5.993 0 10.851 4.858 10.851 10.851 0 5.993-4.858 10.851-10.85 10.851z" fill="#30398B" fill-opacity=".5"/>
    <path d="M599.511 119.021a6.51 6.51 0 0 1-6.51-6.511 6.51 6.51 0 1 1 13.02 0 6.51 6.51 0 0 1-6.51 6.511zM602.404 398.808a9.404 9.404 0 0 1-9.404-9.404 9.404 9.404 0 1 1 9.404 9.404zM127.024 216.864a7.144 7.144 0 0 1-5.053 8.751 7.144 7.144 0 0 1-8.751-5.053 7.144 7.144 0 0 1 5.052-8.751 7.144 7.144 0 0 1 8.752 5.053z" fill="#FCF18F"/>
    <path d="M130.513 106a7.5 7.5 0 1 1 0-15 7.5 7.5 0 0 1 0 15zM606.18 315.878a5.85 5.85 0 1 1 0-11.7 5.85 5.85 0 0 1 0 11.7zM107.579 301.365c2.126 7.934-2.582 16.088-10.516 18.214-7.933 2.126-16.088-2.582-18.214-10.516-2.126-7.933 2.582-16.088 10.516-18.214 7.934-2.126 16.088 2.582 18.214 10.516z" fill="#F19B99"/>
    <path d="M658.262 270h.212C659.733 282.99 673 283.19 673 283.19s-14.629.208-14.629 15.218c0-15.01-14.63-15.218-14.63-15.218s13.261-.2 14.521-13.19zM123.884 396.289h.188c1.117 11.757 12.89 11.938 12.89 11.938s-12.981.188-12.981 13.773c0-13.585-12.981-13.773-12.981-13.773s11.767-.181 12.884-11.938z" fill="#A4D4FA"/>
    <path d="M562.821 92.334H158.788a3.737 3.737 0 0 0-3.737 3.737v299.373a3.737 3.737 0 0 0 3.737 3.737h404.033a3.738 3.738 0 0 0 3.738-3.737V96.071a3.738 3.738 0 0 0-3.738-3.737z" stroke="#E1E4E5" stroke-width="3.564"/>
    <path d="M562.821 92.334H158.788a3.737 3.737 0 0 0-3.737 3.737v28.206a3.737 3.737 0 0 0 3.737 3.737h404.033a3.738 3.738 0 0 0 3.738-3.737V96.071a3.738 3.738 0 0 0-3.738-3.737z" stroke="#E1E4E5" stroke-width="3.564"/>
    <path d="M175.27 104.225h-.001a5.947 5.947 0 0 0-5.947 5.946v.001a5.947 5.947 0 0 0 5.947 5.946h.001a5.946 5.946 0 0 0 5.946-5.946v-.001a5.946 5.946 0 0 0-5.946-5.946zM196.677 104.225h-.001a5.947 5.947 0 0 0-5.947 5.946v.001a5.947 5.947 0 0 0 5.947 5.946h.001a5.946 5.946 0 0 0 5.946-5.946v-.001a5.946 5.946 0 0 0-5.946-5.946zM218.084 104.225h-.001a5.946 5.946 0 0 0-5.946 5.946v.001a5.946 5.946 0 0 0 5.946 5.946h.001a5.946 5.946 0 0 0 5.946-5.946v-.001a5.946 5.946 0 0 0-5.946-5.946z" stroke="#E1E4E5" stroke-width="3.737"/>
    <path d="M290.527 253.455c-2.311 0-4.573-.208-6.787-.625a26.149 26.149 0 0 1-6.354-2.166c.385 3.465.69 6.803.915 10.012.224 3.209.401 6.338.529 9.386.128 3.017.209 5.969.241 8.857.032 2.856.048 5.696.048 8.52h-14.778c0-6.482-.128-12.884-.385-19.206-.257-6.354-.802-12.451-1.636-18.292-.803-5.84-1.99-11.327-3.562-16.462-1.541-5.166-3.627-9.803-6.258-13.911l12.467-7.846c1.027 1.733 1.99 3.353 2.888 4.862a41.068 41.068 0 0 1 2.359 4.573 19.486 19.486 0 0 1 4.091-4.477 23.823 23.823 0 0 1 5.055-3.177 27.214 27.214 0 0 1 5.728-1.877 29.019 29.019 0 0 1 5.968-.626c1.38 0 2.76.096 4.14.289 1.412.192 2.824.529 4.236 1.011a23.267 23.267 0 0 1 4.188 1.925c1.412.802 2.792 1.813 4.139 3.033l-7.701 12.13c0-.032-.289-.225-.867-.578-.545-.385-1.331-.802-2.358-1.251-.995-.45-2.182-.851-3.562-1.204-1.38-.385-2.888-.577-4.525-.577-1.38 0-2.776.256-4.188.77a15.788 15.788 0 0 0-3.803 1.973c-1.123.77-2.021 1.637-2.695 2.6-.642.962-.883 1.877-.722 2.743v-.048c.192 1.027.754 1.861 1.685 2.503.962.642 2.085 1.155 3.369 1.541 1.316.385 2.68.657 4.092.818 1.412.128 2.695.192 3.85.192 1.124 0 2.343-.08 3.659-.24a36.952 36.952 0 0 0 3.995-.819 34.937 34.937 0 0 0 4.043-1.299 24.548 24.548 0 0 0 3.659-1.878l6.209 11.553c-3.787 2.76-7.477 4.669-11.071 5.728-3.562 1.027-6.996 1.54-10.301 1.54zM352.234 257.932c0 .995.177 1.925.53 2.792a8.08 8.08 0 0 0 1.54 2.31 8.083 8.083 0 0 0 2.31 1.541 7.33 7.33 0 0 0 2.792.529c.995 0 1.926-.176 2.792-.529a7.28 7.28 0 0 0 2.311-1.541 7.615 7.615 0 0 0 1.588-2.31 6.8 6.8 0 0 0 .578-2.792 6.8 6.8 0 0 0-.578-2.792 6.896 6.896 0 0 0-1.588-2.31 6.903 6.903 0 0 0-2.311-1.589 6.795 6.795 0 0 0-2.792-.577c-.995 0-1.925.192-2.792.577a7.618 7.618 0 0 0-2.31 1.589 7.273 7.273 0 0 0-1.54 2.31 7.33 7.33 0 0 0-.53 2.792zm-10.83 0c0-2.471.465-4.798 1.396-6.98.962-2.214 2.246-4.139 3.85-5.776a18.68 18.68 0 0 1 5.729-3.899c2.182-.963 4.524-1.444 7.027-1.444 2.471 0 4.798.481 6.98 1.444 2.214.963 4.14 2.262 5.776 3.899 1.637 1.637 2.936 3.562 3.899 5.776.963 2.182 1.444 4.509 1.444 6.98 0 2.503-.481 4.846-1.444 7.028a18.688 18.688 0 0 1-3.899 5.728c-1.636 1.604-3.562 2.888-5.776 3.851-2.182.93-4.509 1.396-6.98 1.396-2.503 0-4.845-.466-7.027-1.396-2.183-.963-4.092-2.247-5.729-3.851-1.604-1.637-2.888-3.546-3.85-5.728-.931-2.182-1.396-4.525-1.396-7.028zM443.678 253.455c-2.311 0-4.573-.208-6.788-.625a26.127 26.127 0 0 1-6.353-2.166c.385 3.465.69 6.803.914 10.012.225 3.209.401 6.338.53 9.386.128 3.017.208 5.969.24 8.857.032 2.856.048 5.696.048 8.52h-14.777c0-6.482-.128-12.884-.385-19.206-.257-6.354-.802-12.451-1.637-18.292-.802-5.84-1.989-11.327-3.562-16.462-1.54-5.166-3.626-9.803-6.257-13.911l12.467-7.846c1.027 1.733 1.989 3.353 2.888 4.862a41.058 41.058 0 0 1 2.358 4.573 19.512 19.512 0 0 1 4.092-4.477 23.816 23.816 0 0 1 5.054-3.177 27.233 27.233 0 0 1 5.728-1.877 29.028 29.028 0 0 1 5.969-.626c1.38 0 2.76.096 4.14.289 1.412.192 2.824.529 4.236 1.011a23.258 23.258 0 0 1 4.187 1.925c1.412.802 2.792 1.813 4.14 3.033l-7.702 12.13c0-.032-.288-.225-.866-.578-.546-.385-1.332-.802-2.359-1.251-.995-.45-2.182-.851-3.562-1.204-1.38-.385-2.888-.577-4.524-.577-1.38 0-2.776.256-4.188.77a15.77 15.77 0 0 0-3.803 1.973c-1.123.77-2.022 1.637-2.696 2.6-.641.962-.882 1.877-.722 2.743v-.048c.193 1.027.755 1.861 1.685 2.503.963.642 2.086 1.155 3.37 1.541 1.315.385 2.679.657 4.091.818 1.412.128 2.696.192 3.851.192 1.123 0 2.343-.08 3.658-.24a36.92 36.92 0 0 0 3.996-.819 35.061 35.061 0 0 0 4.043-1.299 24.488 24.488 0 0 0 3.658-1.878l6.21 11.553c-3.787 2.76-7.477 4.669-11.071 5.728-3.562 1.027-6.996 1.54-10.301 1.54z" fill="#9E9E9E"/>
    <path fill-rule="evenodd" clip-rule="evenodd" d="M175.09 407.21c-20.207 0-36.59-16.614-36.59-37.105 0-20.492 16.383-37.105 36.59-37.105 20.207 0 36.589 16.613 36.589 37.105 0 20.491-16.382 37.105-36.589 37.105z" fill="#30398B"/>
    <path d="m189.831 354.359-15.457 16.491-9.28-9.893" stroke="#fff" stroke-width="6.073" stroke-linecap="round" stroke-linejoin="round"/>
    <path d="m158.93 386.637 15.457-16.491 9.28 9.893" stroke="#fff" stroke-width="6.073" stroke-linecap="round" stroke-linejoin="round"/>
</svg>
