<svg width="268" height="85" viewBox="0 0 268 85" fill="none" xmlns="http://www.w3.org/2000/svg">
<g opacity="0.15">
<path d="M109.113 234.651C63.6857 251.388 19.7603 259.086 -14.5282 258.012C-31.6733 257.475 -46.3931 254.745 -57.6828 249.867C-68.9715 244.99 -76.8062 237.977 -80.2385 228.883C-83.6708 219.79 -82.3964 209.421 -77.0962 198.431C-71.7955 187.441 -62.4789 175.855 -49.876 164.358C-24.6715 141.364 13.6307 118.766 59.0581 102.029C104.486 85.2917 148.411 77.5933 182.7 78.6674C199.845 79.2045 214.564 81.9345 225.854 86.8123C237.143 91.6896 244.978 98.7023 248.41 107.796C251.842 116.89 250.568 127.259 245.268 138.248C239.967 149.239 230.65 160.825 218.047 172.322C192.843 195.316 154.541 217.913 109.113 234.651Z" stroke="url(#paint0_linear_13482_48289)" stroke-opacity="0.2" stroke-width="0.599139"/>
<path d="M107.92 235.079C62.2084 251.042 18.1597 257.992 -16.0985 256.333C-33.2284 255.504 -47.8946 252.523 -59.0935 247.452C-70.2914 242.382 -77.9982 235.236 -81.2668 226.083C-84.5355 216.931 -83.0762 206.584 -77.5814 195.684C-72.0861 184.784 -62.5655 173.357 -49.7613 162.074C-24.154 139.509 14.5395 117.564 60.2512 101.601C105.963 85.6378 150.012 78.688 184.27 80.3467C201.4 81.1761 216.066 84.1571 227.265 89.2274C238.463 94.2973 246.17 101.444 249.438 110.596C252.707 119.749 251.248 130.096 245.753 140.995C240.257 151.896 230.737 163.323 217.933 174.606C192.325 197.17 153.632 219.115 107.92 235.079Z" stroke="url(#paint1_linear_13482_48289)" stroke-opacity="0.2" stroke-width="0.599139"/>
<path d="M106.72 235.487C60.7376 250.672 16.579 256.871 -17.6383 254.628C-34.7478 253.507 -49.356 250.275 -60.4607 245.014C-71.5643 239.753 -79.1409 232.475 -82.2449 223.267C-85.349 214.058 -83.7053 203.736 -78.0175 192.93C-72.3292 182.123 -62.6076 170.858 -49.6059 159.793C-23.6037 137.665 15.4693 116.379 61.4514 101.194C107.433 86.0101 151.592 79.8111 185.809 82.0538C202.919 83.1753 217.527 86.4064 228.632 91.6677C239.735 96.9286 247.312 104.206 250.416 113.415C253.52 122.623 251.876 132.946 246.189 143.752C240.5 154.559 230.779 165.824 217.777 176.889C191.775 199.017 152.702 220.303 106.72 235.487Z" stroke="url(#paint2_linear_13482_48289)" stroke-opacity="0.2" stroke-width="0.599139"/>
<path d="M105.513 235.874C59.2744 250.274 15.0194 255.721 -19.1468 252.894C-36.2306 251.481 -50.7763 248.001 -61.7834 242.55C-72.7894 237.1 -80.2334 229.693 -83.1719 220.431C-86.1104 211.17 -84.2828 200.875 -78.4038 190.166C-72.5242 179.456 -62.6044 168.356 -49.4093 157.513C-23.0202 135.827 16.4204 115.207 62.6589 100.806C108.897 86.4053 153.152 80.959 187.319 83.7851C204.402 85.1982 218.948 88.6784 229.955 94.1292C240.961 99.5795 248.405 106.987 251.344 116.248C254.282 125.51 252.455 135.805 246.576 146.514C240.696 157.224 230.776 168.323 217.581 179.167C191.192 200.853 151.751 221.473 105.513 235.874Z" stroke="url(#paint3_linear_13482_48289)" stroke-opacity="0.2" stroke-width="0.599139"/>
<path d="M104.299 236.24C57.8182 249.852 13.4803 254.544 -20.6243 251.136C-37.6774 249.431 -52.1561 245.703 -63.0622 240.065C-73.9672 234.427 -81.2765 226.892 -84.0485 217.581C-86.8205 208.269 -84.8096 198.005 -78.7411 187.396C-72.6721 176.786 -62.5572 165.855 -49.1726 155.236C-22.4046 134 17.3916 114.052 63.8724 100.439C110.353 86.8261 154.691 82.134 188.796 85.5427C205.849 87.2471 220.327 90.9753 231.233 96.6138C242.139 102.252 249.448 109.786 252.22 119.098C254.992 128.41 252.981 138.674 246.912 149.283C240.843 159.893 230.729 170.824 217.344 181.442C190.576 202.679 150.78 222.627 104.299 236.24Z" stroke="url(#paint4_linear_13482_48289)" stroke-opacity="0.2" stroke-width="0.599139"/>
<path d="M103.079 236.586C56.3698 249.407 11.9625 253.343 -22.07 249.353C-39.0871 247.358 -53.4946 243.383 -64.2963 237.558C-75.0971 231.734 -82.2693 224.075 -84.874 214.716C-87.4788 205.357 -85.2851 195.127 -79.029 184.621C-72.7724 174.115 -62.4655 163.356 -48.8954 152.965C-21.7567 132.185 18.383 112.914 65.0919 100.094C111.801 87.2729 156.208 83.3367 190.241 87.3268C207.258 89.3219 221.665 93.2971 232.467 99.1216C243.268 104.946 250.44 112.605 253.045 121.964C255.649 131.323 253.456 141.553 247.2 152.059C240.943 162.566 230.636 173.324 217.066 183.715C189.927 204.495 149.787 223.766 103.079 236.586Z" stroke="url(#paint5_linear_13482_48289)" stroke-opacity="0.2" stroke-width="0.599139"/>
<path d="M101.853 236.913C54.9306 248.937 10.4674 252.117 -23.4827 247.546C-40.4586 245.261 -54.7904 241.04 -65.4845 235.031C-76.1777 229.023 -83.2107 221.242 -85.6473 211.838C-88.084 202.434 -85.7082 192.241 -79.2665 181.842C-72.8242 171.442 -62.3284 160.858 -48.5771 150.699C-21.0759 130.38 19.3952 111.794 66.3179 99.7693C113.241 87.7446 157.704 84.5653 191.654 89.1357C208.63 91.421 222.962 95.6418 233.656 101.651C244.349 107.659 251.382 115.44 253.819 124.844C256.255 134.248 253.879 144.441 247.438 154.84C240.995 165.24 230.5 175.824 216.748 185.983C189.247 206.301 148.776 224.888 101.853 236.913Z" stroke="url(#paint6_linear_13482_48289)" stroke-opacity="0.2" stroke-width="0.599139"/>
<path d="M100.622 237.215C53.5001 248.44 8.99456 250.861 -24.8629 245.712C-41.7924 243.137 -56.0441 238.672 -66.6273 232.481C-77.2097 226.29 -84.1014 218.389 -86.3692 208.943C-88.637 199.497 -86.0799 189.345 -79.4544 179.055C-72.8284 168.765 -62.1469 158.36 -48.2185 148.435C-20.3632 128.585 20.4268 110.688 67.5491 99.4629C114.671 88.2379 159.177 85.8165 193.034 90.9657C209.964 93.5405 224.216 98.0057 234.799 104.197C245.381 110.388 252.273 118.289 254.541 127.735C256.808 137.18 254.251 147.333 247.626 157.622C241 167.913 230.318 178.318 216.39 188.243C188.535 208.093 147.745 225.99 100.622 237.215Z" stroke="url(#paint7_linear_13482_48289)" stroke-opacity="0.2" stroke-width="0.599139"/>
<path d="M99.3859 237.5C52.0783 247.922 7.54401 249.584 -26.2104 243.858C-43.0884 240.994 -57.2556 236.286 -67.7248 229.914C-78.1931 223.543 -84.9414 215.524 -87.0397 206.04C-89.1379 196.555 -86.4003 186.446 -79.5931 176.269C-72.7853 166.091 -61.9214 155.869 -47.8202 146.18C-19.6193 126.805 21.4772 109.603 68.7847 99.1811C116.092 88.7592 160.627 87.0964 194.381 92.823C211.259 95.6864 225.426 100.395 235.895 106.766C246.364 113.138 253.112 121.157 255.21 130.641C257.309 140.126 254.571 150.235 247.764 160.412C240.956 170.59 230.092 180.812 215.991 190.501C187.79 209.876 146.693 227.078 99.3859 237.5Z" stroke="url(#paint8_linear_13482_48289)" stroke-opacity="0.2" stroke-width="0.599139"/>
<path d="M98.1451 237.762C50.6668 247.378 6.11727 248.281 -27.5238 241.979C-44.3452 238.828 -58.4237 233.878 -68.7756 227.328C-79.1266 220.778 -85.7294 212.644 -87.6575 203.123C-89.5857 193.603 -86.6683 183.54 -79.6814 173.479C-72.694 163.417 -61.6509 153.379 -47.3813 143.931C-18.8433 125.036 22.5472 108.535 70.0255 98.9189C117.504 89.3033 162.053 88.3997 195.694 94.7018C212.516 97.853 226.594 102.803 236.946 109.353C247.297 115.903 253.9 124.038 255.828 133.558C257.756 143.078 254.839 153.141 247.852 163.202C240.865 173.264 229.822 183.302 215.552 192.75C187.014 211.645 145.623 228.146 98.1451 237.762Z" stroke="url(#paint9_linear_13482_48289)" stroke-opacity="0.2" stroke-width="0.599139"/>
<path d="M96.9002 238.003C49.2655 246.809 4.71434 246.954 -28.8032 240.078C-45.5628 236.64 -59.5482 231.45 -69.7797 224.723C-80.0103 217.996 -86.4656 209.749 -88.223 200.196C-89.9804 190.642 -86.8841 180.629 -79.7198 170.687C-72.5548 160.744 -61.336 150.894 -46.9022 141.689C-18.0359 123.28 23.636 107.484 71.2707 98.6773C118.905 89.8709 163.457 89.7267 196.974 96.6025C213.734 100.04 227.719 105.231 237.951 111.958C248.181 118.684 254.636 126.931 256.394 136.485C258.151 146.038 255.055 156.051 247.891 165.993C240.726 175.936 229.507 185.786 215.073 194.991C186.207 213.4 144.535 229.196 96.9002 238.003Z" stroke="url(#paint10_linear_13482_48289)" stroke-opacity="0.2" stroke-width="0.599139"/>
<path d="M95.651 238.223C47.8745 246.217 3.33526 245.602 -30.0485 238.155C-46.7412 234.431 -60.6293 229.002 -70.7373 222.101C-80.8444 215.2 -87.1502 206.842 -88.7363 197.259C-90.3224 187.675 -87.0482 177.715 -79.7086 167.894C-72.3683 158.073 -60.9771 148.414 -46.3835 139.455C-17.1977 121.538 24.7429 106.452 72.5194 98.4572C120.296 90.4626 164.835 91.0779 198.219 98.5252C214.912 102.249 228.8 107.678 238.908 114.579C249.015 121.48 255.321 129.837 256.907 139.421C258.493 149.005 255.219 158.965 247.879 168.785C240.539 178.607 229.148 188.265 214.554 197.224C185.368 215.142 143.428 230.228 95.651 238.223Z" stroke="url(#paint11_linear_13482_48289)" stroke-opacity="0.2" stroke-width="0.599139"/>
<path d="M94.3985 238.422C46.4947 245.602 1.98098 244.228 -31.2588 236.211C-47.8795 232.203 -61.6661 226.537 -71.6475 219.463C-81.628 212.39 -87.7824 203.925 -89.1968 194.314C-90.6111 184.703 -87.16 174.798 -79.6473 165.103C-72.1339 155.406 -60.5739 145.942 -45.8249 137.231C-16.3284 119.811 25.868 105.44 73.7719 98.2593C121.676 91.079 166.189 92.4537 199.429 100.47C216.05 104.479 229.837 110.144 239.818 117.218C249.798 124.292 255.953 132.757 257.367 142.367C258.781 151.978 255.33 161.883 247.818 171.579C240.304 181.275 228.744 190.74 213.995 199.45C184.499 216.87 142.302 231.242 94.3985 238.422Z" stroke="url(#paint12_linear_13482_48289)" stroke-opacity="0.2" stroke-width="0.599139"/>
<path d="M93.1433 238.598C45.1267 244.962 0.652112 242.828 -32.4336 234.245C-48.9773 229.953 -62.6581 224.053 -72.5099 216.808C-82.3607 209.565 -88.3619 200.994 -89.604 191.359C-90.8462 181.724 -87.2193 171.878 -79.5357 162.31C-71.8515 152.742 -60.1261 143.474 -45.2263 135.015C-15.4282 118.097 27.0113 104.445 75.0278 98.0808C123.044 91.717 167.519 93.8506 200.605 102.434C217.148 106.726 230.829 112.626 240.681 119.871C250.532 127.114 256.533 135.685 257.775 145.32C259.017 154.955 255.39 164.801 247.707 174.369C240.023 183.937 228.297 193.205 213.397 201.664C183.599 218.582 141.16 232.234 93.1433 238.598Z" stroke="url(#paint13_linear_13482_48289)" stroke-opacity="0.2" stroke-width="0.599139"/>
<path d="M91.8848 238.754C43.7702 244.299 -0.65184 241.407 -33.5734 232.26C-50.035 227.686 -63.606 221.552 -73.325 214.139C-83.0432 206.727 -88.8893 198.055 -89.9589 188.398C-91.0285 178.742 -87.2268 168.957 -79.3748 159.52C-71.5221 150.083 -59.6349 141.015 -44.5888 132.809C-14.4981 116.399 28.1715 103.47 76.2861 97.9245C124.401 92.3791 168.823 95.2709 201.744 104.418C218.206 108.992 231.777 115.126 241.496 122.539C251.214 129.951 257.06 138.623 258.13 148.28C259.199 157.936 255.398 167.721 247.546 177.158C239.693 186.595 227.806 195.664 212.76 203.869C182.669 220.279 139.999 233.208 91.8848 238.754Z" stroke="url(#paint14_linear_13482_48289)" stroke-opacity="0.2" stroke-width="0.599139"/>
<path d="M90.6242 238.889C42.4262 243.615 -1.92968 239.966 -34.6771 230.257C-51.0515 225.402 -64.5085 219.036 -74.092 211.458C-83.6745 203.88 -89.3638 195.108 -90.2605 185.433C-91.1572 175.758 -87.1818 166.038 -79.1638 156.735C-71.145 147.431 -59.0997 138.565 -43.9119 130.616C-13.5378 114.719 29.349 102.517 77.547 97.7912C125.745 93.066 170.101 96.7151 202.848 106.424C219.223 111.279 232.68 117.644 242.263 125.223C251.846 132.8 257.535 141.573 258.432 151.248C259.328 160.923 255.353 170.643 247.335 179.946C239.316 189.25 227.271 198.115 212.083 206.065C181.709 221.962 138.822 234.164 90.6242 238.889Z" stroke="url(#paint15_linear_13482_48289)" stroke-opacity="0.2" stroke-width="0.599139"/>
<path d="M89.3613 239.002C41.0946 242.906 -3.18161 238.501 -35.7448 228.233C-52.0272 223.099 -65.3661 216.504 -74.811 208.762C-84.255 201.021 -89.7857 192.151 -90.5092 182.461C-91.2327 172.77 -87.085 163.118 -78.9034 153.951C-70.7209 144.784 -58.5211 136.123 -43.1962 128.433C-12.5479 113.053 30.5429 101.582 78.8096 97.6781C127.076 93.7744 171.353 98.1797 203.916 108.447C220.198 113.581 233.537 120.176 242.982 127.918C252.426 135.659 257.957 144.529 258.68 154.219C259.404 163.91 255.256 173.562 247.074 182.729C238.892 191.896 226.692 200.557 211.367 208.247C180.719 223.627 137.628 235.098 89.3613 239.002Z" stroke="url(#paint16_linear_13482_48289)" stroke-opacity="0.2" stroke-width="0.599139"/>
<path d="M77.9705 239.048C29.748 235.534 -13.2086 224.411 -43.6756 209.278C-58.9099 201.711 -71.0074 193.149 -79.0814 184.047C-87.1546 174.946 -91.1882 165.327 -90.3495 155.629C-89.5109 145.932 -83.8744 137.017 -74.3381 129.199C-64.8009 121.381 -51.3832 114.678 -35.0391 109.412C-2.35265 98.8807 41.9778 94.1172 90.2004 97.631C138.423 101.145 181.379 112.268 211.847 127.401C227.081 134.968 239.178 143.53 247.252 152.632C255.325 161.733 259.359 171.352 258.52 181.05C257.682 190.747 252.045 199.662 242.509 207.48C232.972 215.298 219.554 222.001 203.21 227.267C170.524 237.798 126.193 242.562 77.9705 239.048Z" stroke="url(#paint17_linear_13482_48289)" stroke-opacity="0.2" stroke-width="0.599139"/>
<path d="M76.7091 238.945C28.5651 234.609 -14.1787 222.753 -44.3654 207.101C-59.4595 199.274 -71.4001 190.505 -79.3088 181.266C-87.2167 172.027 -91.0771 162.339 -90.0655 152.655C-89.0538 142.972 -83.2598 134.153 -73.5869 126.497C-63.9131 118.841 -50.38 112.367 -33.9472 107.379C-1.08324 97.4054 43.3179 93.3976 91.4619 97.7334C139.606 102.069 182.35 113.925 212.536 129.578C227.631 137.405 239.571 146.173 247.48 155.413C255.388 164.652 259.248 174.34 258.236 184.023C257.225 193.707 251.431 202.526 241.758 210.181C232.084 217.837 218.551 224.312 202.118 229.299C169.254 239.273 124.853 243.281 76.7091 238.945Z" stroke="url(#paint18_linear_13482_48289)" stroke-opacity="0.2" stroke-width="0.599139"/>
<path d="M75.4495 238.822C27.3987 233.665 -15.1193 221.08 -45.0164 204.912C-59.9658 196.828 -71.7458 187.856 -79.4868 178.481C-87.2271 169.108 -90.9131 159.353 -89.7288 149.687C-88.5444 140.02 -82.5947 131.3 -72.7882 123.809C-62.9807 116.318 -49.3363 110.074 -32.8198 105.366C0.211693 95.9524 44.6699 92.7015 92.7208 97.8582C140.772 103.015 183.29 115.6 213.187 131.767C228.136 139.851 239.916 148.824 247.657 158.198C255.397 167.572 259.083 177.327 257.899 186.993C256.715 196.66 250.765 205.38 240.958 212.871C231.151 220.362 217.507 226.606 200.99 231.313C167.959 240.727 123.5 243.978 75.4495 238.822Z" stroke="url(#paint19_linear_13482_48289)" stroke-opacity="0.2" stroke-width="0.599139"/>
<path d="M74.1934 238.676C26.2503 232.7 -16.0288 219.39 -45.6274 202.713C-60.4273 194.374 -72.0432 185.2 -79.6141 175.693C-87.1844 166.188 -90.695 156.37 -89.3383 146.723C-87.9816 137.077 -81.8779 128.458 -71.9407 121.134C-62.0026 113.81 -48.2511 107.798 -31.6559 103.372C1.53302 94.5213 46.0348 92.0281 93.9779 98.0041C141.921 103.98 184.2 117.29 213.799 133.968C228.599 142.307 240.214 151.48 247.785 160.987C255.356 170.493 258.866 180.31 257.51 189.957C256.153 199.604 250.049 208.223 240.112 215.546C230.174 222.871 216.422 228.882 199.827 233.308C166.638 242.159 122.136 244.652 74.1934 238.676Z" stroke="url(#paint20_linear_13482_48289)" stroke-opacity="0.2" stroke-width="0.599139"/>
<path d="M72.9399 238.508C25.1192 231.715 -16.9083 217.684 -46.1992 200.501C-60.8453 191.91 -72.2935 182.538 -79.6921 172.902C-87.09 163.267 -90.4241 153.389 -88.8954 143.766C-87.3668 134.142 -81.111 125.626 -71.0462 118.472C-60.9805 111.317 -47.1261 105.54 -30.4572 101.397C2.87908 93.1114 47.4109 91.3769 95.2315 98.1703C143.052 104.964 185.08 118.995 214.371 136.177C229.017 144.769 240.465 154.14 247.863 163.776C255.261 173.411 258.595 183.289 257.067 192.913C255.538 202.537 249.282 211.052 239.218 218.206C229.152 225.362 215.297 231.139 198.629 235.282C165.292 243.567 120.761 245.302 72.9399 238.508Z" stroke="url(#paint21_linear_13482_48289)" stroke-opacity="0.2" stroke-width="0.599139"/>
<path d="M71.6893 238.32C24.0056 230.712 -17.7575 215.964 -46.7317 198.282C-61.2195 189.44 -72.4965 179.873 -79.7205 170.111C-86.9439 160.35 -90.1004 150.415 -88.4003 140.817C-86.7001 131.219 -80.2942 122.81 -70.1049 115.827C-59.9145 108.843 -45.9614 103.302 -29.224 99.4434C4.24944 91.7261 48.7977 90.7506 96.4814 98.3594C144.165 105.968 185.928 120.716 214.902 138.398C229.39 147.24 240.667 156.806 247.891 166.569C255.115 176.33 258.271 186.265 256.571 195.863C254.871 205.461 248.465 213.87 238.276 220.853C228.085 227.837 214.132 233.378 197.395 237.236C163.921 244.954 119.373 245.929 71.6893 238.32Z" stroke="url(#paint22_linear_13482_48289)" stroke-opacity="0.2" stroke-width="0.599139"/>
<path d="M70.4425 238.11C22.9104 229.688 -18.5756 214.228 -47.2244 196.052C-61.5495 186.963 -72.6518 177.204 -79.699 167.318C-86.7456 157.433 -89.7236 147.444 -87.8525 137.875C-85.9814 128.306 -79.4273 120.006 -69.1165 113.197C-58.8047 106.387 -44.7571 101.083 -27.9562 97.5097C5.64418 90.3628 50.1953 90.1468 97.7275 98.5686C145.26 106.99 186.746 122.451 215.394 140.627C229.72 149.715 240.822 159.475 247.869 169.361C254.916 179.245 257.894 189.234 256.023 198.804C254.151 208.373 247.597 216.673 237.287 223.482C226.975 230.292 212.927 235.595 196.126 239.169C162.526 246.316 117.975 246.532 70.4425 238.11Z" stroke="url(#paint23_linear_13482_48289)" stroke-opacity="0.2" stroke-width="0.599139"/>
<path d="M69.2006 237.88C21.8344 228.648 -19.3617 212.48 -47.6765 193.815C-61.8344 184.482 -72.7588 174.533 -79.6271 164.527C-86.4947 154.522 -89.2933 144.482 -87.2518 134.945C-85.2103 125.407 -78.5099 117.218 -68.0808 110.585C-57.6507 103.95 -43.513 98.8864 -26.6536 95.5991C7.06346 89.0249 51.6039 89.5684 98.9701 98.8007C146.336 108.033 187.532 124.201 215.847 142.866C230.005 152.199 240.929 162.148 247.798 172.154C254.665 182.159 257.464 192.199 255.422 201.736C253.381 211.274 246.681 219.463 236.251 226.096C225.821 232.731 211.684 237.794 194.824 241.082C161.107 247.656 116.567 247.113 69.2006 237.88Z" stroke="url(#paint24_linear_13482_48289)" stroke-opacity="0.2" stroke-width="0.599139"/>
<path d="M67.9632 237.628C20.7774 227.588 -20.1164 210.717 -48.0883 191.569C-62.0749 181.995 -72.8179 171.86 -79.5051 161.736C-86.1917 151.614 -88.8101 141.526 -86.5988 132.023C-84.3875 122.52 -77.5429 114.445 -66.9987 107.989C-56.4534 101.532 -42.2298 96.7093 -25.3173 93.7094C8.50623 87.7098 53.0225 89.0126 100.208 99.0526C147.394 109.093 188.288 125.963 216.26 145.111C230.246 154.686 240.989 164.821 247.676 174.944C254.363 185.067 256.981 195.154 254.77 204.658C252.559 214.161 245.714 222.235 235.17 228.691C224.625 235.148 210.401 239.971 193.489 242.971C159.665 248.971 115.149 247.668 67.9632 237.628Z" stroke="url(#paint25_linear_13482_48289)" stroke-opacity="0.2" stroke-width="0.599139"/>
<path d="M66.7304 237.356C19.7395 226.511 -20.8395 208.943 -48.4602 189.318C-62.2711 179.505 -72.8295 169.186 -79.3336 158.949C-85.8372 148.712 -88.2745 138.579 -85.8941 129.114C-83.5136 119.648 -76.527 111.69 -65.8708 105.413C-55.2137 99.1363 -40.9085 94.5557 -23.9479 91.844C9.97177 86.4209 54.4502 88.4827 101.441 99.3272C148.432 110.172 189.011 127.74 216.632 147.365C230.443 157.178 241.001 167.497 247.505 177.734C254.009 187.971 256.446 198.104 254.066 207.569C251.685 217.035 244.699 224.993 234.042 231.27C223.385 237.547 209.08 242.127 192.119 244.839C158.2 250.262 113.721 248.2 66.7304 237.356Z" stroke="url(#paint26_linear_13482_48289)" stroke-opacity="0.2" stroke-width="0.599139"/>
<path d="M65.5028 237.06C18.721 225.414 -21.5308 207.154 -48.7918 187.057C-62.4229 177.008 -72.7934 166.51 -79.1125 156.161C-85.431 145.813 -87.6865 135.639 -85.1377 126.213C-82.5889 116.788 -75.4622 108.948 -64.6974 102.854C-53.9315 96.7581 -39.5492 92.4213 -22.5457 89.9987C11.4598 85.1537 55.8869 87.9737 102.669 99.6196C149.45 111.265 189.702 129.525 216.963 149.622C230.594 159.671 240.965 170.17 247.284 180.518C253.602 190.866 255.858 201.041 253.309 210.466C250.76 219.892 243.634 227.731 232.869 233.826C222.103 239.921 207.721 244.258 190.717 246.68C156.712 251.525 112.285 248.705 65.5028 237.06Z" stroke="url(#paint27_linear_13482_48289)" stroke-opacity="0.2" stroke-width="0.599139"/>
<path d="M64.2807 236.746C17.7223 224.302 -22.1902 205.356 -49.0831 184.794C-62.5302 174.513 -72.7097 163.837 -78.8418 153.38C-84.9734 142.925 -87.0463 132.711 -84.3299 123.329C-81.6135 113.947 -74.349 106.229 -63.4788 100.317C-52.6075 94.4052 -38.1525 90.3135 -21.1112 88.1807C12.9698 83.9154 57.3319 87.4928 103.89 99.9365C150.449 112.38 190.361 131.327 217.254 151.888C230.701 162.17 240.881 172.846 247.013 183.302C253.144 193.758 255.217 203.971 252.501 213.353C249.785 222.736 242.52 230.454 231.65 236.365C220.779 242.277 206.324 246.369 189.282 248.502C155.201 252.767 110.839 249.19 64.2807 236.746Z" stroke="url(#paint28_linear_13482_48289)" stroke-opacity="0.2" stroke-width="0.599139"/>
<path d="M63.0651 236.408C16.7442 223.171 -22.8166 203.543 -49.3333 182.523C-62.5923 172.012 -72.5777 161.162 -78.521 150.601C-84.4637 140.041 -86.3536 129.792 -83.4703 120.455C-80.5871 111.119 -73.187 103.525 -62.2148 97.7985C-51.2414 92.0716 -36.7179 88.2262 -19.6441 86.3839C14.5019 82.6995 58.7857 87.0333 105.107 100.271C151.427 113.508 190.988 133.136 217.505 154.156C230.764 164.667 240.749 175.517 246.693 186.078C252.635 196.638 254.525 206.887 251.642 216.224C248.759 225.56 241.359 233.154 230.386 238.881C219.413 244.607 204.89 248.453 187.816 250.295C153.67 253.98 109.386 249.646 63.0651 236.408Z" stroke="url(#paint29_linear_13482_48289)" stroke-opacity="0.2" stroke-width="0.599139"/>
<path d="M61.8555 236.051C15.7863 222.024 -23.4109 201.722 -49.5433 180.249C-62.6102 169.512 -72.3985 158.492 -78.1511 147.829C-83.9032 137.167 -85.6093 126.885 -82.5602 117.598C-79.511 108.31 -71.9776 100.842 -60.9066 95.3028C-49.8345 89.7628 -35.247 86.165 -18.1459 84.6137C16.0548 81.5113 60.2467 86.6001 106.316 100.628C152.385 114.655 191.582 134.957 217.715 156.43C230.782 167.167 240.57 178.187 246.323 188.85C252.075 199.512 253.781 209.794 250.732 219.081C247.682 228.369 240.149 235.837 229.078 241.376C218.006 246.916 203.418 250.514 186.317 252.065C152.117 255.168 107.925 250.079 61.8555 236.051Z" stroke="url(#paint30_linear_13482_48289)" stroke-opacity="0.2" stroke-width="0.599139"/>
<path d="M60.6529 235.674C14.8494 220.861 -23.9722 199.89 -49.7124 177.971C-62.5831 167.011 -72.1713 155.824 -77.7316 145.063C-83.2912 134.303 -84.8131 123.992 -81.599 114.756C-78.3848 105.521 -70.7203 98.1806 -59.554 92.8299C-48.3864 87.4786 -33.7395 84.1293 -16.6162 82.8696C17.6287 80.3502 61.7152 86.1924 107.519 101.006C153.322 115.819 192.144 136.79 217.884 158.709C230.755 169.669 240.343 180.856 245.903 191.617C251.463 202.377 252.985 212.688 249.771 221.924C246.556 231.159 238.892 238.499 227.726 243.85C216.558 249.201 201.911 252.551 184.788 253.81C150.543 256.33 106.456 250.488 60.6529 235.674Z" stroke="url(#paint31_linear_13482_48289)" stroke-opacity="0.2" stroke-width="0.599139"/>
<path d="M59.4571 235.277C13.9332 219.682 -24.5011 198.049 -49.8412 175.691C-62.5118 164.512 -71.897 153.161 -77.2632 142.305C-82.6287 131.45 -83.9659 121.112 -80.5878 111.931C-77.2096 102.75 -69.4163 95.5402 -58.158 90.3797C-46.8985 85.2187 -32.1965 82.1191 -15.0564 81.1512C19.2224 79.2155 63.1901 85.8095 108.714 101.404C154.238 116.998 192.672 138.631 218.012 160.989C230.683 172.169 240.068 183.52 245.434 194.376C250.8 205.231 252.137 215.568 248.759 224.749C245.381 233.931 237.587 241.14 226.329 246.301C215.07 251.462 200.368 254.561 183.227 255.529C148.949 257.465 104.981 250.871 59.4571 235.277Z" stroke="url(#paint32_linear_13482_48289)" stroke-opacity="0.2" stroke-width="0.599139"/>
<path d="M58.2686 234.859C13.0382 218.489 -24.9969 196.2 -49.9292 173.409C-62.396 162.013 -71.5753 150.502 -76.7457 139.555C-81.9155 128.608 -83.0676 118.248 -79.5264 109.123C-75.9852 99.9994 -68.0656 92.9226 -56.7188 87.9539C-45.3708 82.9847 -30.6182 80.1357 -13.4663 79.46C20.8359 78.1087 64.6714 85.4523 109.902 101.823C155.132 118.194 193.167 140.482 218.1 163.273C230.566 174.669 239.746 186.18 244.916 197.128C250.086 208.074 251.238 218.435 247.697 227.559C244.156 236.683 236.236 243.76 224.889 248.728C213.541 253.698 198.789 256.547 181.637 257.222C147.335 258.574 103.499 251.23 58.2686 234.859Z" stroke="url(#paint33_linear_13482_48289)" stroke-opacity="0.2" stroke-width="0.599139"/>
<path d="M57.0885 234.419C12.1654 217.277 -25.4591 194.34 -49.976 171.123C-62.235 159.515 -71.2056 147.847 -76.1787 136.811C-81.1512 125.776 -82.1179 115.396 -78.4148 106.332C-74.7116 97.2676 -66.6681 90.3257 -55.2362 85.5503C-43.8031 80.7745 -29.0044 78.1769 -11.8461 77.7936C22.469 77.027 66.159 85.1181 111.082 102.26C156.005 119.402 193.63 142.34 218.147 165.556C230.406 177.165 239.376 188.832 244.349 199.868C249.322 210.904 250.288 221.284 246.585 230.348C242.882 239.412 234.839 246.354 223.407 251.129C211.974 255.905 197.175 258.503 180.017 258.886C145.702 259.652 102.012 251.561 57.0885 234.419Z" stroke="url(#paint34_linear_13482_48289)" stroke-opacity="0.2" stroke-width="0.599139"/>
<path d="M55.9168 233.962C11.3147 216.053 -25.8876 192.474 -49.9817 168.839C-62.0292 157.022 -70.7884 145.201 -75.5627 134.08C-80.3365 122.96 -81.1174 112.563 -77.2534 103.561C-73.3895 94.5601 -65.2244 87.7551 -53.7109 83.1746C-42.1962 78.5936 -27.3559 76.2482 -10.1964 76.1574C24.1211 75.9758 67.6523 84.8118 112.254 102.72C156.857 120.628 194.059 144.208 218.153 167.842C230.2 179.66 238.96 191.481 243.734 202.602C248.508 213.722 249.289 224.119 245.425 233.12C241.561 242.122 233.396 248.927 221.882 253.507C210.367 258.088 195.527 260.434 178.368 260.524C144.05 260.706 100.519 251.87 55.9168 233.962Z" stroke="url(#paint35_linear_13482_48289)" stroke-opacity="0.2" stroke-width="0.599139"/>
<path d="M54.7531 233.482C10.4856 214.813 -26.2832 190.599 -49.9471 166.553C-61.7796 154.53 -70.3247 142.559 -74.8987 131.356C-79.4721 120.155 -80.067 109.744 -76.0435 100.809C-72.0199 91.8729 -63.7358 85.2069 -52.1443 80.8226C-40.5514 76.4378 -25.6741 74.3453 -8.51855 74.5471C25.791 74.9505 69.15 84.5288 113.418 103.198C157.685 121.867 194.454 146.081 218.118 170.127C229.95 182.15 238.495 194.12 243.069 205.323C247.643 216.525 248.238 226.935 244.214 235.871C240.191 244.807 231.907 251.473 220.315 255.857C208.722 260.242 193.845 262.334 176.689 262.133C142.38 261.729 99.0207 252.151 54.7531 233.482Z" stroke="url(#paint36_linear_13482_48289)" stroke-opacity="0.2" stroke-width="0.599139"/>
<path d="M53.599 232.983C9.67946 213.559 -26.6446 188.718 -49.8711 164.268C-61.4849 152.043 -69.8133 139.926 -74.1856 128.645C-78.5574 117.365 -78.9662 106.944 -74.7842 98.077C-70.6022 89.2096 -62.2016 82.6847 -50.5355 78.4979C-38.8681 74.3106 -23.9582 72.4718 -6.81194 72.9659C27.4792 73.9543 70.6529 84.2719 114.572 103.696C158.492 123.12 194.816 147.961 218.043 172.411C229.656 184.636 237.985 196.753 242.357 208.034C246.729 219.314 247.138 229.735 242.956 238.602C238.774 247.469 230.373 253.994 218.707 258.181C207.04 262.368 192.13 264.207 174.983 263.713C140.692 262.725 97.5185 252.407 53.599 232.983Z" stroke="url(#paint37_linear_13482_48289)" stroke-opacity="0.2" stroke-width="0.599139"/>
<path d="M52.4536 232.466C8.89549 212.293 -26.9729 186.832 -49.7549 161.986C-61.1464 149.562 -69.2556 137.304 -73.4249 125.948C-77.5937 114.593 -77.8161 104.165 -73.477 95.3685C-69.1379 86.5721 -60.6233 80.1902 -48.8862 76.2022C-37.1478 72.2137 -22.21 70.629 -5.07812 71.4155C29.1842 72.9885 72.1594 84.0423 115.717 104.215C159.276 124.389 195.144 149.85 217.926 174.696C229.317 187.119 237.427 199.378 241.596 210.734C245.765 222.088 245.987 232.517 241.648 241.313C237.309 250.109 228.794 256.491 217.057 260.479C205.319 264.468 190.381 266.052 173.249 265.266C138.987 263.693 96.0117 252.639 52.4536 232.466Z" stroke="url(#paint38_linear_13482_48289)" stroke-opacity="0.2" stroke-width="0.599139"/>
<path d="M51.3178 231.928C8.1344 211.012 -27.2673 184.939 -49.5979 159.704C-60.7637 147.086 -68.6512 134.689 -72.6162 123.262C-76.5808 111.836 -76.6168 101.404 -72.1219 92.681C-67.6269 83.9582 -59.001 77.7214 -47.1965 73.9334C-35.3906 70.1449 -20.4294 68.8148 -3.31716 69.8934C30.9058 72.0505 73.6695 83.8371 116.853 104.753C160.036 125.669 195.438 151.742 217.769 176.977C228.934 189.595 236.822 201.992 240.787 213.42C244.751 224.846 244.788 235.278 240.293 244.001C235.798 252.723 227.172 258.96 215.367 262.748C203.561 266.537 188.6 267.867 171.488 266.788C137.265 264.631 94.5012 252.844 51.3178 231.928Z" stroke="url(#paint39_linear_13482_48289)" stroke-opacity="0.2" stroke-width="0.599139"/>
<path d="M50.1922 231.371C7.39662 209.718 -27.5276 183.041 -49.4 157.425C-60.3366 144.616 -68 132.085 -71.7596 120.59C-75.5187 109.096 -75.3684 98.6628 -70.7189 90.0163C-66.0695 81.3698 -57.3349 75.2799 -45.4666 71.693C-33.5969 68.1058 -18.6167 67.0307 -1.5294 68.401C32.6438 71.1415 75.1829 83.6575 117.978 105.31C160.774 126.963 195.698 153.64 217.571 179.256C228.507 192.065 236.171 204.597 239.93 216.091C243.689 227.585 243.539 238.018 238.89 246.665C234.24 255.311 225.506 261.401 213.637 264.988C201.768 268.575 186.787 269.65 169.7 268.28C135.527 265.54 92.9878 253.024 50.1922 231.371Z" stroke="url(#paint40_linear_13482_48289)" stroke-opacity="0.2" stroke-width="0.599139"/>
<path d="M49.0767 230.793C6.68199 208.41 -27.7541 181.137 -49.1616 155.148C-59.8658 142.152 -67.3028 129.49 -70.8557 117.931C-74.4083 106.373 -74.0716 95.9417 -69.2691 87.3742C-64.4666 78.8067 -55.6259 72.8655 -43.6974 69.4809C-31.7675 66.0959 -16.773 65.2762 0.284258 66.9378C34.3973 70.261 76.6989 83.5023 119.094 105.885C161.488 128.268 195.924 155.541 217.332 181.53C228.036 194.526 235.473 207.188 239.026 218.748C242.578 230.306 242.242 240.736 237.439 249.304C232.637 257.872 223.796 263.813 211.868 267.197C199.938 270.582 184.943 271.402 167.886 269.74C133.773 266.417 91.4714 253.176 49.0767 230.793Z" stroke="url(#paint41_linear_13482_48289)" stroke-opacity="0.2" stroke-width="0.599139"/>
<path d="M47.9725 230.198C5.99157 207.092 -27.946 179.231 -48.8821 152.876C-59.3506 139.698 -66.5589 126.909 -69.9041 115.289C-73.2489 103.67 -72.726 93.2444 -67.7719 84.7584C-62.8178 76.2725 -53.8738 70.4819 -41.8886 67.3006C-29.9021 64.1189 -14.898 63.5548 2.12404 65.5073C36.1666 69.412 78.2177 83.3748 120.199 106.481C162.179 129.587 196.117 157.447 217.053 183.802C227.522 196.98 234.73 209.77 238.075 221.39C241.42 233.009 240.897 243.434 235.943 251.92C230.989 260.406 222.045 266.197 210.06 269.378C198.073 272.56 183.069 273.124 166.047 271.171C132.004 267.267 89.9534 253.304 47.9725 230.198Z" stroke="url(#paint42_linear_13482_48289)" stroke-opacity="0.2" stroke-width="0.599139"/>
<path d="M46.8789 229.585C5.32455 205.763 -28.1041 177.323 -48.5624 150.61C-58.792 137.254 -65.7694 124.341 -68.9059 112.664C-72.042 100.988 -71.333 90.5707 -66.2288 82.1689C-61.1246 73.7671 -52.08 68.1288 -40.0419 65.1518C-28.0024 62.1744 -12.9931 61.866 3.98846 64.1087C37.9501 68.5939 79.7379 83.2738 121.292 107.096C162.847 130.918 196.275 159.358 216.734 186.07C226.963 199.427 233.941 212.34 237.077 224.017C240.213 235.693 239.504 246.11 234.4 254.512C229.296 262.913 220.251 268.552 208.213 271.529C196.174 274.506 181.164 274.814 164.183 272.572C130.221 268.087 88.4332 253.407 46.8789 229.585Z" stroke="url(#paint43_linear_13482_48289)" stroke-opacity="0.2" stroke-width="0.599139"/>
<path d="M45.7964 228.952C4.68125 204.422 -28.2282 175.411 -48.2025 148.35C-58.1901 134.818 -64.9345 121.786 -67.8613 110.055C-70.7878 98.3255 -69.8929 87.9204 -64.6402 79.6053C-59.3874 71.2902 -50.2449 65.806 -38.1576 63.0341C-26.0689 60.2619 -11.0589 60.2094 5.877 62.7417C39.7474 67.8059 81.2593 83.1985 122.374 107.729C163.489 132.26 196.399 161.27 216.373 188.332C226.361 201.864 233.105 214.896 236.032 226.627C238.959 238.356 238.064 248.761 232.811 257.077C227.558 265.392 218.416 270.876 206.328 273.648C194.24 276.42 179.23 276.472 162.294 273.94C128.423 268.876 86.9115 253.483 45.7964 228.952Z" stroke="url(#paint44_linear_13482_48289)" stroke-opacity="0.2" stroke-width="0.599139"/>
<path d="M44.7257 228.301C4.06236 203.068 -28.318 173.496 -47.8022 146.094C-57.5447 132.392 -64.0541 119.245 -66.7703 107.463C-69.4862 95.6835 -68.4057 85.2933 -63.0061 77.0675C-57.6064 68.8417 -48.3687 63.5132 -36.2358 60.9473C-24.1015 58.3811 -9.09555 58.5846 7.78956 61.4055C41.5584 67.0473 82.7817 83.1478 123.445 108.38C164.108 133.613 196.489 163.184 215.973 190.587C225.715 204.289 232.225 217.436 234.941 229.217C237.657 240.997 236.576 251.387 231.177 259.613C225.777 267.839 216.539 273.168 204.407 275.733C192.272 278.3 177.266 278.096 160.381 275.275C126.612 269.633 85.3891 253.533 44.7257 228.301Z" stroke="url(#paint45_linear_13482_48289)" stroke-opacity="0.2" stroke-width="0.599139"/>
<path d="M43.6668 227.63C3.46765 201.704 -28.3737 171.58 -47.3619 143.844C-56.8564 129.976 -63.1287 116.718 -65.6335 104.89C-68.1381 93.0635 -66.8723 82.6914 -61.3273 74.5574C-55.7823 66.4233 -46.4524 61.2522 -34.2776 58.8931C-22.1014 56.5337 -7.10398 56.993 9.7252 60.1018C43.3821 66.3193 84.3043 83.123 124.503 109.049C164.703 134.975 196.544 165.099 215.532 192.835C225.027 206.703 231.299 219.962 233.804 231.789C236.308 243.616 235.043 253.988 229.498 262.122C223.953 270.256 214.623 275.427 202.448 277.786C190.272 280.146 175.274 279.686 158.445 276.577C124.788 270.36 83.866 253.556 43.6668 227.63Z" stroke="url(#paint46_linear_13482_48289)" stroke-opacity="0.2" stroke-width="0.599139"/>
<path d="M42.6212 226.942C2.89841 200.331 -28.3943 169.663 -46.8807 141.603C-56.1243 127.573 -62.1576 114.207 -64.4503 102.336C-66.7427 90.467 -65.292 80.1163 -59.6034 72.0764C-53.9148 64.0366 -44.4953 59.0244 -32.2824 56.8728C-20.068 54.721 -5.08373 55.4359 11.6844 58.8317C45.2192 65.6231 85.8277 83.1247 125.551 109.737C165.273 136.348 196.566 167.016 215.052 195.076C224.296 209.106 230.329 222.472 232.622 234.343C234.914 246.212 233.464 256.563 227.775 264.603C222.086 272.642 212.667 277.655 200.454 279.806C188.24 281.958 173.255 281.243 156.487 277.847C122.952 271.056 82.344 253.554 42.6212 226.942Z" stroke="url(#paint47_linear_13482_48289)" stroke-opacity="0.2" stroke-width="0.599139"/>
<path d="M41.587 226.237C2.35273 198.947 -28.3817 167.745 -46.3607 139.37C-55.3506 125.181 -61.1431 111.713 -63.2229 99.8027C-65.3025 87.8941 -63.6673 77.5677 -57.8368 69.6246C-52.0063 61.6815 -42.5003 56.8297 -30.2529 54.8863C-18.0041 52.9426 -3.03746 53.913 13.6645 57.5948C47.067 64.958 87.3495 83.1522 126.584 110.442C165.818 137.731 196.553 168.933 214.532 197.309C223.521 211.497 229.314 224.966 231.394 236.876C233.473 248.784 231.838 259.111 226.008 267.054C220.177 274.997 210.671 279.849 198.424 281.792C186.175 283.736 171.208 282.765 154.506 279.084C121.104 271.72 80.8214 253.526 41.587 226.237Z" stroke="url(#paint48_linear_13482_48289)" stroke-opacity="0.2" stroke-width="0.599139"/>
<path d="M40.5662 225.516C1.83232 197.557 -28.3346 165.83 -45.8006 137.148C-54.534 122.806 -60.084 109.238 -61.9503 97.2925C-63.8164 85.3482 -61.9973 75.0494 -56.0267 67.2054C-50.0561 59.3614 -40.4664 54.6716 -28.1883 52.9369C-15.9087 51.202 -0.964267 52.4276 15.6664 56.3942C48.9265 64.327 88.8707 83.2083 127.605 111.167C166.338 139.126 196.505 170.853 213.971 199.535C222.705 213.877 228.255 227.445 230.121 239.39C231.987 251.335 230.168 261.633 224.197 269.477C218.227 277.322 208.637 282.011 196.359 283.746C184.079 285.481 169.135 284.255 152.504 280.289C119.244 272.356 79.3001 253.475 40.5662 225.516Z" stroke="url(#paint49_linear_13482_48289)" stroke-opacity="0.2" stroke-width="0.599139"/>
<path d="M39.5584 224.773C1.33672 196.153 -28.2534 163.912 -45.2012 134.931C-53.6755 120.44 -58.9812 106.778 -60.6334 94.7998C-62.2855 82.8235 -60.283 72.5554 -54.1741 64.8129C-48.0651 57.0704 -38.3947 52.544 -26.0896 51.0186C-13.783 49.4929 1.13458 50.9733 17.689 55.2235C50.7964 63.7234 90.3901 83.286 128.612 111.906C166.833 140.526 196.423 172.767 213.371 201.748C221.846 216.239 227.151 229.901 228.804 241.879C230.456 253.856 228.453 264.124 222.344 271.866C216.235 279.609 206.565 284.135 194.26 285.661C181.953 287.186 167.036 285.706 150.481 281.456C117.374 272.956 77.78 253.393 39.5584 224.773Z" stroke="url(#paint50_linear_13482_48289)" stroke-opacity="0.2" stroke-width="0.599139"/>
<path d="M38.5651 224.016C0.867301 194.744 -28.137 161.998 -44.5615 132.727C-52.7741 118.092 -57.8339 104.338 -59.2716 92.3321C-60.7091 80.3274 -58.5238 70.0932 -52.2784 62.4545C-46.033 54.8159 -36.2847 50.4542 -23.9564 49.1386C-11.6266 47.8227 3.25965 49.5574 19.7327 54.0899C52.6774 63.1544 91.9086 83.3924 129.606 112.664C167.304 141.936 196.309 174.683 212.733 203.953C220.946 218.589 226.005 232.342 227.443 244.348C228.881 256.353 226.695 266.587 220.45 274.226C214.204 281.865 204.456 286.226 192.128 287.542C179.798 288.858 164.912 287.123 148.439 282.591C115.494 273.526 76.2628 253.288 38.5651 224.016Z" stroke="url(#paint51_linear_13482_48289)" stroke-opacity="0.2" stroke-width="0.599139"/>
<path d="M37.5846 223.242C0.422244 193.326 -27.9875 160.085 -43.8835 130.534C-51.8319 115.758 -56.6443 101.918 -57.867 89.8872C-59.0895 77.8578 -56.7221 67.6605 -50.3421 60.128C-43.9622 52.5956 -34.1391 48.4 -21.7913 47.2945C-9.442 46.1888 5.40841 48.1774 21.795 52.9907C54.567 62.617 93.4238 83.5242 130.586 113.44C167.749 143.355 196.158 176.596 212.054 206.147C220.003 220.923 224.815 234.763 226.038 246.794C227.26 258.823 224.893 269.021 218.513 276.553C212.133 284.086 202.31 288.281 189.962 289.387C177.613 290.492 162.762 288.504 146.376 283.691C113.604 274.064 74.747 253.157 37.5846 223.242Z" stroke="url(#paint52_linear_13482_48289)" stroke-opacity="0.2" stroke-width="0.599139"/>
<path d="M36.6186 222.449C0.00284499 191.9 -27.8036 158.173 -43.1664 128.351C-50.8481 113.439 -55.4117 99.5169 -56.419 87.4649C-57.4262 75.4143 -54.8773 65.2571 -48.3648 57.8332C-41.8523 50.4092 -31.9573 46.381 -19.5938 45.486C-7.22875 44.5908 7.58128 46.8325 23.8765 51.9253C56.4657 62.1105 94.9363 83.6806 131.552 114.23C168.168 144.779 195.974 178.506 211.337 208.328C219.019 223.24 223.582 237.162 224.59 249.214C225.597 261.265 223.048 271.422 216.535 278.846C210.023 286.27 200.128 290.298 187.764 291.193C175.399 292.088 160.589 289.847 144.294 284.754C111.705 274.569 73.2343 252.999 36.6186 222.449Z" stroke="url(#paint53_linear_13482_48289)" stroke-opacity="0.2" stroke-width="0.599139"/>
<path d="M35.6671 221.642C-0.39076 190.468 -27.5855 156.266 -42.4104 126.181C-49.8231 111.138 -54.1365 97.1382 -54.9281 85.0687C-55.7196 73.0008 -52.9901 62.8867 -46.3469 55.5736C-39.7038 48.2604 -29.7399 44.4008 -17.3645 43.7165C-4.9875 43.0321 9.77764 45.5263 25.9765 50.897C58.3731 61.638 96.4457 83.8643 132.504 115.039C168.561 146.213 195.756 180.414 210.581 210.499C217.994 225.542 222.307 239.542 223.099 251.612C223.89 263.68 221.161 273.794 214.518 281.107C207.874 288.42 197.911 292.28 185.535 292.964C173.158 293.648 158.393 291.154 142.194 285.783C109.798 275.042 71.725 252.816 35.6671 221.642Z" stroke="url(#paint54_linear_13482_48289)" stroke-opacity="0.2" stroke-width="0.599139"/>
<path d="M34.7303 220.817C-0.758816 189.027 -27.3335 154.362 -41.616 124.023C-48.7575 108.854 -52.8193 94.7797 -53.395 82.6965C-53.9706 70.6148 -51.0612 60.547 -44.2895 53.3468C-37.5177 46.1466 -27.4881 42.4568 -15.1044 41.9835C-2.71927 41.5101 11.9964 44.256 28.0941 49.903C60.2881 61.1965 97.9511 84.0722 133.44 115.862C168.929 147.651 195.504 182.317 209.786 212.655C216.928 227.825 220.99 241.899 221.565 253.982C222.141 266.064 219.232 276.132 212.46 283.332C205.688 290.532 195.658 294.222 183.275 294.695C170.89 295.168 156.174 292.422 140.076 286.776C107.882 275.482 70.2193 252.606 34.7303 220.817Z" stroke="url(#paint55_linear_13482_48289)" stroke-opacity="0.2" stroke-width="0.599139"/>
<path d="M33.8087 219.977C-1.10075 187.582 -27.0473 152.463 -40.7831 121.88C-47.6512 106.589 -51.4601 92.4451 -51.8197 80.3518C-52.1793 68.2601 -49.091 58.2415 -42.1927 51.1566C-35.2944 44.0716 -25.202 40.5527 -12.8139 40.2904C-0.424337 40.0281 14.2375 43.0251 30.229 48.9466C62.2107 60.7891 99.4526 84.3074 134.362 116.703C169.271 149.098 195.218 184.217 208.954 214.799C215.822 230.091 219.631 244.235 219.99 256.328C220.35 268.42 217.262 278.438 210.363 285.523C203.465 292.608 193.373 296.127 180.985 296.389C168.595 296.652 153.933 293.655 137.942 287.733C105.96 275.891 68.7181 252.372 33.8087 219.977Z" stroke="url(#paint56_linear_13482_48289)" stroke-opacity="0.2" stroke-width="0.599139"/>
<path d="M32.9025 219.122C-1.4167 186.131 -26.7273 150.569 -39.912 119.752C-46.5047 104.343 -50.0596 90.1341 -50.203 78.0344C-50.3464 65.9363 -47.0801 55.9701 -40.0574 49.0025C-33.0346 42.0348 -22.8825 38.6879 -10.4939 38.6369C1.89637 38.5858 16.4999 41.8327 32.3803 48.027C64.1399 60.4149 100.949 84.5685 135.269 117.56C169.588 150.551 194.898 186.113 208.083 216.93C214.676 232.339 218.231 246.548 218.374 258.647C218.518 270.745 215.251 280.712 208.228 287.679C201.206 294.647 191.054 297.994 178.665 298.045C166.275 298.096 151.671 294.849 135.791 288.655C104.031 276.267 67.2217 252.113 32.9025 219.122Z" stroke="url(#paint57_linear_13482_48289)" stroke-opacity="0.2" stroke-width="0.599139"/>
<path d="M32.0117 218.251C-1.70684 184.675 -26.3737 148.68 -39.0035 117.638C-45.3186 102.116 -48.6186 87.8462 -48.5457 75.7438C-48.4729 63.643 -45.0295 53.7323 -37.8845 46.8841C-30.7394 40.036 -20.5308 36.862 -8.14524 37.0222C4.24187 37.1823 18.7826 40.6783 34.5472 47.1433C66.075 60.0729 102.441 84.8546 136.159 118.431C169.878 152.008 194.545 188.003 207.175 219.045C213.49 234.567 216.79 248.836 216.717 260.939C216.644 273.04 213.201 282.95 206.056 289.798C198.91 296.647 188.702 299.821 176.316 299.66C163.929 299.5 149.388 296.004 133.624 289.539C102.096 276.61 65.7301 251.828 32.0117 218.251Z" stroke="url(#paint58_linear_13482_48289)" stroke-opacity="0.2" stroke-width="0.599139"/>
<path d="M31.1364 217.363C-1.97112 183.211 -25.9868 146.795 -38.0577 115.537C-44.0935 99.9074 -47.1373 85.5812 -46.8482 73.4798C-46.5592 61.3801 -42.9399 51.5277 -35.6747 44.8011C-28.4095 38.0745 -18.1474 35.0746 -5.76879 35.4459C6.61143 35.8172 21.0849 39.5611 36.7288 46.295C68.0153 59.7624 103.927 85.1645 137.034 119.317C170.142 153.469 194.157 189.885 206.228 221.143C212.264 236.773 215.308 251.099 215.019 263.2C214.73 275.3 211.11 285.152 203.845 291.879C196.58 298.606 186.318 301.605 173.939 301.234C161.559 300.863 147.085 297.119 131.442 290.385C100.155 276.918 64.2439 251.516 31.1364 217.363Z" stroke="url(#paint59_linear_13482_48289)" stroke-opacity="0.2" stroke-width="0.599139"/>
<path d="M30.2782 216.462C-2.20822 181.745 -25.5653 144.919 -37.0738 113.454C-42.8283 97.721 -45.6151 83.3426 -45.1099 71.2459C-44.6048 59.1509 -40.8106 49.3599 -33.4275 42.7569C-26.0444 36.154 -15.7319 33.329 -3.36397 33.9113C9.00558 34.4937 23.4074 38.4844 38.9259 45.4851C69.9615 59.4861 105.407 85.5009 137.894 120.218C170.38 154.936 193.737 191.761 205.246 223.226C211 238.959 213.787 253.337 213.282 265.434C212.777 277.529 208.982 287.32 201.599 293.923C194.216 300.526 183.904 303.351 171.536 302.769C159.166 302.186 144.764 298.196 129.246 291.195C98.2102 277.194 62.7647 251.179 30.2782 216.462Z" stroke="url(#paint60_linear_13482_48289)" stroke-opacity="0.2" stroke-width="0.599139"/>
<path d="M29.4357 215.546C-2.41982 180.274 -25.1112 143.049 -36.0537 111.388C-41.5252 95.5563 -44.0543 81.1302 -43.3331 69.0419C-42.6119 56.9551 -38.6441 47.2286 -31.1453 40.7513C-23.6465 34.274 -13.2868 31.6247 -0.933338 32.4178C11.4218 33.2111 25.7476 37.4474 41.1359 44.7129C71.9112 59.2432 106.88 85.8627 138.736 121.135C170.591 156.406 193.283 193.631 204.225 225.293C209.697 241.124 212.226 255.55 211.505 267.639C210.783 279.725 206.816 289.452 199.317 295.929C191.818 302.406 181.458 305.056 169.105 304.263C156.75 303.469 142.424 299.233 127.036 291.968C96.2603 277.437 61.2912 250.818 29.4357 215.546Z" stroke="url(#paint61_linear_13482_48289)" stroke-opacity="0.2" stroke-width="0.599139"/>
<path d="M28.6097 214.614C-2.60516 178.799 -24.624 141.186 -34.9972 109.338C-40.184 93.4128 -42.4544 78.9432 -41.5174 66.867C-40.5806 54.7923 -36.4402 45.1331 -28.828 38.7834C-21.2158 32.4338 -10.8121 29.961 1.52312 30.9648C13.86 31.9687 28.1055 36.4493 43.3589 43.9773C73.8645 59.0325 108.347 86.2488 139.561 122.064C170.776 157.88 192.795 195.492 203.168 227.341C208.355 243.266 210.625 257.736 209.688 269.812C208.752 281.887 204.611 291.546 196.999 297.895C189.387 304.245 178.983 306.718 166.648 305.714C154.311 304.71 140.066 300.23 124.812 292.702C94.3065 277.646 59.8245 250.43 28.6097 214.614Z" stroke="url(#paint62_linear_13482_48289)" stroke-opacity="0.2" stroke-width="0.599139"/>
<path d="M27.8014 213.671C-2.76328 177.322 -24.1029 139.334 -33.9036 107.308C-38.8041 91.2941 -40.8152 76.7856 -39.6628 64.7251C-38.5105 52.6661 -34.1989 43.0772 -26.4756 36.8571C-18.7523 30.637 -8.30778 28.3416 4.00552 29.5557C16.3204 30.7699 30.4812 35.4935 45.5951 43.2816C75.8217 58.8572 109.806 86.6618 140.371 123.01C170.936 159.359 192.275 197.347 202.076 229.373C206.976 245.387 208.987 259.896 207.835 271.956C206.683 284.015 202.371 293.604 194.648 299.824C186.925 306.044 176.48 308.34 164.167 307.126C151.852 305.911 137.691 301.188 122.577 293.4C92.3505 277.824 58.366 250.019 27.8014 213.671Z" stroke="url(#paint63_linear_13482_48289)" stroke-opacity="0.2" stroke-width="0.599139"/>
<path d="M27.0091 212.713C-2.89613 175.842 -23.5499 137.489 -32.7752 105.295C-37.3879 89.1978 -39.1392 74.6547 -37.7716 62.6136C-36.4042 50.574 -31.9226 41.0584 -24.0907 34.9697C-16.2587 28.8811 -5.77642 26.7637 6.51115 28.1877C18.8004 29.6119 32.8721 34.577 47.8419 42.6229C77.7803 58.7141 111.257 87.0986 141.162 123.969C171.067 160.839 191.721 199.192 200.946 231.386C205.559 247.484 207.31 262.027 205.943 274.068C204.575 286.107 200.094 295.623 192.262 301.712C184.43 307.8 173.948 309.918 161.66 308.494C149.371 307.07 135.299 302.104 120.329 294.059C90.3908 277.967 56.9143 249.583 27.0091 212.713Z" stroke="url(#paint64_linear_13482_48289)" stroke-opacity="0.2" stroke-width="0.599139"/>
<path d="M26.2347 211.74C-3.00189 174.36 -22.9636 135.654 -31.6106 103.302C-35.9342 87.1254 -37.425 72.5521 -35.8427 60.5341C-34.2607 48.5176 -29.6105 39.0781 -21.6722 33.1227C-13.7339 27.1674 -3.21713 25.2287 9.04098 26.8622C21.3007 28.4959 35.2791 33.701 50.1003 42.0022C79.7414 58.6041 112.7 87.5599 141.936 124.941C171.173 162.322 191.135 201.028 199.782 233.379C204.105 249.556 205.596 264.129 204.014 276.147C202.432 288.164 197.782 297.603 189.843 303.558C181.905 309.514 171.388 311.453 159.13 309.819C146.87 308.185 132.892 302.98 118.071 294.679C88.4297 278.077 55.4713 249.121 26.2347 211.74Z" stroke="url(#paint65_linear_13482_48289)" stroke-opacity="0.2" stroke-width="0.599139"/>
<path d="M25.4781 210.756C-3.08107 172.876 -22.3447 133.829 -30.4107 101.329C-34.4439 85.0783 -35.6738 70.4794 -33.8773 58.488C-32.081 46.4983 -27.2637 37.1378 -19.2215 31.3176C-11.1793 25.4974 -0.631208 23.7379 11.5937 25.5804C23.8203 27.4232 37.7011 32.8666 52.369 41.4207C81.7038 58.5283 114.134 88.0465 142.693 125.927C171.252 163.807 190.516 202.854 198.582 235.353C202.615 251.604 203.845 266.203 202.049 278.194C200.252 290.184 195.435 299.544 187.393 305.365C179.35 311.185 168.802 312.944 156.578 311.102C144.351 309.259 130.47 303.816 115.802 295.262C86.4674 278.154 54.0372 248.636 25.4781 210.756Z" stroke="url(#paint66_linear_13482_48289)" stroke-opacity="0.2" stroke-width="0.599139"/>
<path d="M24.7389 209.756C-3.13403 171.388 -21.6936 132.012 -29.1763 99.3738C-32.9178 83.0542 -33.8864 68.434 -31.8762 56.473C-29.8663 44.5137 -24.8833 35.235 -16.7396 29.5517C-8.5959 23.8684 1.98021 22.2888 14.1682 24.3397C26.3578 26.391 40.1369 32.0712 54.6472 40.8755C83.6667 58.4835 115.559 88.5552 143.432 126.923C171.305 165.29 189.864 204.667 197.347 237.305C201.089 253.624 202.057 268.245 200.047 280.205C198.037 292.165 193.054 301.443 184.91 307.127C176.767 312.81 166.191 314.39 154.003 312.339C141.813 310.288 128.034 304.607 113.524 295.803C84.5041 278.195 52.6119 248.123 24.7389 209.756Z" stroke="url(#paint67_linear_13482_48289)" stroke-opacity="0.2" stroke-width="0.599139"/>
<path d="M24.0179 208.745C-3.16037 169.902 -21.0103 130.208 -27.9073 97.4421C-31.356 81.0584 -32.0631 66.4214 -29.8398 54.4944C-27.6168 42.5691 -22.4697 33.3751 -14.227 27.8305C-5.98428 22.2859 4.61667 20.8865 16.764 23.1453C28.913 25.4044 42.586 31.3196 56.9343 40.3714C85.6297 58.4745 116.974 89.0905 144.152 127.934C171.331 166.778 189.181 206.471 196.078 239.237C199.526 255.621 200.233 270.258 198.01 282.185C195.787 294.11 190.64 303.304 182.397 308.849C174.155 314.394 163.554 315.793 151.406 313.534C139.257 311.275 125.584 305.36 111.236 296.308C82.5406 278.205 51.1962 247.589 24.0179 208.745Z" stroke="url(#paint68_linear_13482_48289)" stroke-opacity="0.2" stroke-width="0.599139"/>
<path d="M23.316 207.722C-3.15935 168.414 -20.2942 128.416 -26.6035 95.5313C-29.7583 79.0885 -30.2036 64.4391 -27.7679 52.5498C-25.3326 40.6621 -20.0228 31.5557 -11.6836 26.1514C-3.34445 20.7471 7.27811 19.5284 19.3812 21.9943C31.4859 24.4606 45.0487 30.609 59.2305 39.9056C87.5931 58.4982 118.38 89.6492 144.856 128.957C171.331 168.265 188.466 208.263 194.775 241.148C197.93 257.59 198.375 272.24 195.939 284.129C193.504 296.017 188.194 305.123 179.855 310.527C171.516 315.932 160.893 317.15 148.79 314.685C136.686 312.218 123.123 306.07 108.941 296.773C80.5785 278.181 49.7913 247.03 23.316 207.722Z" stroke="url(#paint69_linear_13482_48289)" stroke-opacity="0.2" stroke-width="0.599139"/>
<path d="M22.6318 206.687C-3.13253 166.927 -19.5471 126.635 -25.2667 93.6427C-28.1266 77.1458 -28.31 62.4885 -25.6627 50.6405C-23.0158 38.7941 -17.545 29.7779 -9.11189 24.5156C-0.678801 19.2533 9.96214 18.2158 22.0172 20.888C34.0738 23.5607 47.5224 29.9404 61.5334 39.479C89.5545 58.5555 119.775 90.2319 145.539 129.992C171.304 169.752 187.718 210.043 193.438 243.036C196.298 259.533 196.481 274.19 193.834 286.038C191.187 297.884 185.716 306.901 177.283 312.163C168.85 317.425 158.209 318.463 146.154 315.79C134.097 313.118 120.649 306.738 106.638 297.199C78.6166 278.123 48.3961 246.447 22.6318 206.687Z" stroke="url(#paint70_linear_13482_48289)" stroke-opacity="0.2" stroke-width="0.599139"/>
<path d="M21.9664 205.641C-3.079 165.441 -18.7682 124.869 -23.8965 91.7778C-26.4607 75.2318 -26.3821 60.5711 -23.524 48.768C-20.6662 36.9665 -15.0361 28.0433 -6.51161 22.9246C2.01284 17.8059 12.6689 16.9497 24.6723 19.8276C36.6772 22.7058 50.0074 29.315 63.8434 39.0926C91.5145 58.6472 121.159 90.8394 146.205 131.039C171.25 171.239 186.939 211.811 192.067 244.902C194.632 261.448 194.553 276.109 191.695 287.912C188.837 299.713 183.207 308.637 174.683 313.755C166.158 318.874 155.502 319.73 143.499 316.852C131.494 313.974 118.164 307.365 104.328 297.587C76.6565 278.033 47.0119 245.84 21.9664 205.641Z" stroke="url(#paint71_linear_13482_48289)" stroke-opacity="0.2" stroke-width="0.599139"/>
<path d="M21.3201 204.583C-2.99887 163.955 -17.958 123.115 -22.4933 89.936C-24.761 73.3459 -24.4205 58.6862 -21.3524 46.9316C-18.2847 35.1786 -12.4969 26.3511 -3.88371 21.3776C4.72952 16.4041 15.3975 15.7296 27.3455 18.8121C39.2951 21.895 52.5028 28.7316 66.1596 38.7453C93.4722 58.772 122.532 91.4702 146.851 132.098C171.17 172.726 186.129 213.566 190.664 246.745C192.932 263.335 192.592 277.995 189.523 289.749C186.456 301.502 180.668 310.33 172.055 315.303C163.441 320.277 152.774 320.951 140.826 317.869C128.876 314.786 115.668 307.949 102.011 297.936C74.6988 277.909 45.6391 245.211 21.3201 204.583Z" stroke="url(#paint72_linear_13482_48289)" stroke-opacity="0.2" stroke-width="0.599139"/>
<path d="M20.6925 203.513C-2.8926 162.47 -17.1171 121.374 -21.058 88.1166C-23.0286 71.4875 -22.4262 56.8334 -19.1491 45.1308C-15.8724 33.4298 -9.92874 24.7008 -1.22938 19.874C7.46997 15.0472 18.1466 14.5545 30.0356 17.8408C41.9262 21.1275 55.0074 28.1893 68.4809 38.4361C95.4267 58.9288 123.893 92.1231 147.478 133.166C171.063 174.209 185.287 215.305 189.228 248.562C191.199 265.191 190.596 279.846 187.319 291.548C184.043 303.249 178.099 311.978 169.4 316.805C160.7 321.632 150.024 322.125 138.135 318.838C126.244 315.551 113.163 308.49 99.6893 298.243C72.7435 277.75 44.2775 244.556 20.6925 203.513Z" stroke="url(#paint73_linear_13482_48289)" stroke-opacity="0.2" stroke-width="0.599139"/>
<path d="M20.0855 202.433C-2.75853 160.987 -16.2441 119.648 -19.5894 86.3231C-21.2622 69.66 -20.3982 55.0159 -16.913 43.3689C-13.4283 31.7236 -7.33063 23.0956 1.45221 18.417C10.2351 13.7383 20.917 13.4277 32.7434 16.9167C44.5715 20.4062 57.5222 27.6912 70.8082 38.1678C97.379 59.1203 125.243 92.8006 148.087 134.247C170.931 175.693 184.416 217.032 187.761 250.357C189.434 267.02 188.57 281.664 185.085 293.311C181.6 304.956 175.503 313.584 166.72 318.263C157.937 322.942 147.255 323.252 135.429 319.763C123.601 316.274 110.65 308.989 97.3638 298.512C70.793 277.56 42.9295 243.879 20.0855 202.433Z" stroke="url(#paint74_linear_13482_48289)" stroke-opacity="0.2" stroke-width="0.599139"/>
<path d="M19.4967 201.344C-2.59923 159.507 -15.3417 117.937 -18.0905 84.5546C-19.465 67.8627 -18.3396 53.233 -14.6474 41.6452C-10.9557 30.059 -4.70587 21.5348 4.15778 17.0057C13.0214 12.4767 23.7055 12.3481 35.4657 16.0388C47.2276 19.7301 60.0439 27.236 73.1383 37.9393C99.3261 59.3452 126.579 93.5011 148.675 135.337C170.771 177.174 183.513 218.744 186.262 252.126C187.636 268.818 186.511 283.448 182.819 295.036C179.127 306.622 172.877 315.146 164.014 319.675C155.15 324.204 144.466 324.333 132.706 320.642C120.944 316.951 108.127 309.445 95.0331 298.742C68.8453 277.336 41.5927 243.18 19.4967 201.344Z" stroke="url(#paint75_linear_13482_48289)" stroke-opacity="0.2" stroke-width="0.599139"/>
<path d="M18.9275 200.243C-2.41369 158.029 -14.4092 116.241 -16.5606 82.8106C-17.6364 66.095 -16.25 51.4841 -12.3519 39.959C-8.45444 28.4355 -2.05428 20.0176 6.88748 15.6395C15.8292 11.2615 26.5122 11.3151 38.2026 15.2063C49.8947 19.0982 62.5727 26.8227 75.4716 37.7495C101.268 59.6022 127.902 94.2235 149.243 136.437C170.584 178.651 182.58 220.44 184.731 253.87C185.807 270.585 184.42 285.196 180.522 296.721C176.625 308.245 170.225 316.662 161.283 321.041C152.341 325.419 141.658 325.365 129.968 321.474C118.276 317.582 105.598 309.857 92.6989 298.931C66.9021 277.078 40.2687 242.457 18.9275 200.243Z" stroke="url(#paint76_linear_13482_48289)" stroke-opacity="0.2" stroke-width="0.599139"/>
<path d="M18.3787 199.132C-2.2012 156.553 -13.4461 114.56 -14.9995 81.0924C-15.7762 64.3581 -14.1292 49.7706 -10.0264 38.3117C-5.92432 26.8545 0.624177 18.5455 9.64132 14.3197C18.6585 10.0939 29.337 10.3297 40.9541 14.4203C52.5728 18.5115 65.1087 26.4524 77.808 37.5992C103.206 59.8922 129.212 94.9682 149.792 137.547C170.372 180.125 181.617 222.119 183.17 255.586C183.947 272.321 182.3 286.908 178.197 298.367C174.095 309.824 167.546 318.133 158.529 322.359C149.512 326.585 138.834 326.349 127.217 322.258C115.598 318.167 103.062 310.226 90.3626 299.079C64.9648 276.787 38.9587 241.711 18.3787 199.132Z" stroke="url(#paint77_linear_13482_48289)" stroke-opacity="0.2" stroke-width="0.599139"/>
<path d="M17.8505 198.014C-1.9619 155.084 -12.4527 112.898 -13.4076 79.4032C-13.8851 62.6553 -11.9779 48.0956 -7.67178 36.7065C-3.36626 25.3189 3.32858 17.1213 12.4184 13.0491C21.5081 8.97695 32.179 9.39478 43.7192 13.6835C55.261 17.9729 67.6509 26.1276 80.147 37.4912C105.138 60.2176 130.509 95.7377 150.321 138.668C170.134 181.598 180.625 223.784 181.58 257.279C182.057 274.027 180.15 288.587 175.844 299.976C171.538 311.363 164.843 319.561 155.754 323.633C146.664 327.705 135.993 327.287 124.453 322.999C112.911 318.709 100.521 310.555 88.025 299.191C63.0338 276.465 37.6629 240.944 17.8505 198.014Z" stroke="url(#paint78_linear_13482_48289)" stroke-opacity="0.2" stroke-width="0.599139"/>
<path d="M17.3413 196.885C-1.69756 153.616 -11.4312 111.25 -11.7872 77.7384C-11.9653 60.9821 -9.79856 46.4546 -5.29034 35.1385C-0.782746 23.8242 6.05641 15.7405 15.216 11.8232C24.3757 7.90584 35.0356 8.50561 46.4954 12.9912C57.9568 17.4774 70.197 25.8435 82.4859 37.4204C107.063 60.5732 131.791 96.5266 150.83 139.795C169.868 183.064 179.602 225.43 179.958 258.942C180.136 275.698 177.969 290.226 173.461 301.542C168.954 312.856 162.114 320.94 152.955 324.857C143.795 328.774 133.135 328.175 121.675 323.689C110.214 319.203 97.9739 310.837 85.685 299.26C61.108 276.107 36.3801 240.154 17.3413 196.885Z" stroke="url(#paint79_linear_13482_48289)" stroke-opacity="0.2" stroke-width="0.599139"/>
<path d="M16.853 195.748C-1.40644 152.154 -10.3799 109.621 -10.137 76.1031C-10.0156 59.3434 -7.58999 44.8525 -2.88102 33.6131C1.82727 22.3753 8.80865 14.408 18.0353 10.6468C27.262 6.88548 37.9079 7.667 49.2838 12.348C60.6613 17.0297 72.7479 25.6047 84.826 37.3913C108.981 60.9636 133.059 97.3392 151.318 140.934C169.578 184.528 178.551 227.061 178.308 260.579C178.187 277.339 175.761 291.83 171.052 303.069C166.344 314.307 159.362 322.274 150.136 326.035C140.909 329.797 130.263 329.015 118.887 324.334C107.51 319.652 95.4232 311.077 83.3451 299.291C59.1899 275.718 35.1125 239.343 16.853 195.748Z" stroke="url(#paint80_linear_13482_48289)" stroke-opacity="0.2" stroke-width="0.599139"/>
<path d="M16.385 194.603C-1.08953 150.696 -9.3 108.009 -8.4583 74.4946C-8.03743 57.7366 -5.35371 43.2867 -0.445455 32.1274C4.4621 20.9696 11.5836 13.1212 20.8745 9.51711C30.1655 5.91302 40.7939 6.87605 52.0824 11.7511C63.3726 16.6269 75.3021 25.408 87.1656 37.4008C110.892 61.3854 134.311 98.1722 151.786 142.079C169.26 185.985 177.471 228.672 176.629 262.187C176.208 278.945 173.525 293.395 168.616 304.554C163.709 315.712 156.587 323.56 147.296 327.164C138.005 330.768 127.377 329.805 116.088 324.93C104.798 320.054 92.8688 311.273 81.0053 299.281C57.2791 275.296 33.8596 238.509 16.385 194.603Z" stroke="url(#paint81_linear_13482_48289)" stroke-opacity="0.2" stroke-width="0.599139"/>
<path d="M15.938 193.448C-0.746289 149.243 -8.19134 106.415 -6.75104 72.9141C-6.03086 56.1629 -3.08984 41.7586 2.01622 30.6827C7.12156 19.6084 14.381 11.8811 23.7333 8.43532C33.0857 4.98953 43.6935 6.13379 54.8912 11.2014C66.0906 16.2697 77.8593 25.2544 89.5046 37.4497C112.794 61.8392 135.549 99.0261 152.233 143.231C168.918 187.437 176.363 230.264 174.922 263.765C174.202 280.517 171.261 294.921 166.155 305.997C161.05 317.071 153.79 324.798 144.438 328.244C135.086 331.69 124.478 330.546 113.28 325.478C102.081 320.41 90.3121 311.425 78.6668 299.23C55.3769 274.84 32.6223 237.653 15.938 193.448Z" stroke="url(#paint82_linear_13482_48289)" stroke-opacity="0.2" stroke-width="0.599139"/>
<path d="M15.5119 192.288C-0.377096 147.797 -7.05444 104.842 -5.01601 71.3647C-3.99675 54.6255 -0.799299 40.2709 4.50301 29.2818C9.80457 18.2943 17.1997 10.6907 26.6106 7.40423C36.0216 4.11779 46.6054 5.44293 57.709 10.7015C68.8141 15.9609 80.4184 25.1464 91.8421 37.5404C114.689 62.3275 136.771 99.903 152.66 144.394C168.549 188.884 175.227 231.84 173.188 265.317C172.169 282.056 168.971 296.411 163.669 307.4C158.368 318.387 150.972 325.991 141.561 329.277C132.151 332.564 121.567 331.239 110.463 325.98C99.358 320.721 87.7537 311.535 76.33 299.141C53.4836 274.354 31.4009 236.779 15.5119 192.288Z" stroke="url(#paint83_linear_13482_48289)" stroke-opacity="0.2" stroke-width="0.599139"/>
<path d="M15.1057 191.119C0.016877 146.357 -5.89075 103.287 -3.25478 69.8437C-1.93675 53.1215 1.51616 38.8211 7.0131 27.9222C12.5093 17.0249 20.0379 9.54706 29.5045 6.42098C38.9711 3.2949 49.5279 4.8005 60.5338 10.2485C71.5414 15.6973 82.9778 25.0808 94.1762 37.6698C116.572 62.8469 137.976 100.8 153.065 145.562C168.154 190.325 174.062 233.395 171.426 266.838C170.108 283.56 166.655 297.86 161.158 308.759C155.662 319.657 148.133 327.134 138.666 330.261C129.2 333.387 118.643 331.881 107.637 326.433C96.6295 320.984 85.1931 311.601 73.9947 299.012C51.5986 273.835 30.1945 235.882 15.1057 191.119Z" stroke="url(#paint84_linear_13482_48289)" stroke-opacity="0.2" stroke-width="0.599139"/>
<path d="M14.7215 189.943C0.437399 144.923 -4.6987 101.751 -1.46601 68.3521C0.150398 51.652 3.85771 37.4103 9.5476 26.6048C15.2367 15.8009 22.8965 8.45131 32.4159 5.48654C41.9353 2.52176 52.4618 4.20736 63.3668 9.8431C74.2734 15.4797 85.5384 25.0584 96.5082 37.8385C118.447 63.3979 139.166 101.716 153.45 146.737C167.734 191.758 172.87 234.929 169.638 268.328C168.021 285.028 164.314 299.27 158.624 310.076C152.935 320.879 145.275 328.229 135.756 331.194C126.236 334.159 115.71 332.473 104.805 326.837C93.8982 321.201 82.6332 311.622 71.6634 298.842C49.7244 273.282 29.0055 234.964 14.7215 189.943Z" stroke="url(#paint85_linear_13482_48289)" stroke-opacity="0.2" stroke-width="0.599139"/>
<path d="M14.3582 188.761C0.883288 143.496 -3.47971 100.236 0.34871 66.8911C2.26299 50.2182 6.22357 36.0394 12.1047 25.3307C17.985 14.6235 25.7736 7.40434 35.3429 4.60178C44.9122 1.79921 55.4052 3.66431 66.2059 9.48609C77.0082 15.3087 88.0984 25.0796 98.8363 38.0471C120.311 63.981 140.339 102.653 153.814 147.919C167.289 193.184 171.652 236.444 167.823 269.788C165.909 286.461 161.948 300.64 156.067 311.349C150.187 322.056 142.398 329.275 132.829 332.078C123.26 334.88 112.767 333.015 101.966 327.193C91.1638 321.371 80.0736 311.6 69.3357 298.632C47.8607 272.698 27.8332 234.026 14.3582 188.761Z" stroke="url(#paint86_linear_13482_48289)" stroke-opacity="0.2" stroke-width="0.599139"/>
<path d="M14.0154 187.573C1.35362 142.077 -2.23496 98.7417 2.18803 65.4617C4.39961 48.8211 8.61226 34.7095 14.6828 24.1009C20.7525 13.4937 28.6676 6.40716 38.2839 3.76767C47.9002 1.12817 58.3564 3.17218 69.0496 9.17823C79.7443 15.1851 90.6563 25.1453 101.159 38.2961C122.164 64.5967 141.494 103.611 154.155 149.107C166.817 194.603 170.406 237.938 165.983 271.218C163.771 287.859 159.558 301.97 153.488 312.579C147.418 323.186 139.503 330.273 129.887 332.912C120.271 335.552 109.814 333.508 99.1211 327.502C88.4263 321.495 77.5144 311.535 67.0117 298.384C46.007 272.083 26.6771 233.069 14.0154 187.573Z" stroke="url(#paint87_linear_13482_48289)" stroke-opacity="0.2" stroke-width="0.599139"/>
<path d="M13.6948 186.378C1.85013 140.666 -0.962948 97.2684 4.05328 64.0631C6.56148 47.4599 11.0249 33.4198 17.283 22.9144C23.5403 12.4105 31.5794 5.45871 41.2398 2.98309C50.9001 0.507475 61.3164 2.7298 71.8988 8.91823C82.4828 15.1076 93.2132 25.254 103.477 38.5841C124.005 65.2433 142.632 104.588 154.477 150.301C166.321 196.013 169.134 239.411 164.118 272.616C161.61 289.219 157.146 303.26 150.888 313.765C144.631 324.269 136.592 331.221 126.932 333.696C117.271 336.172 106.855 333.949 96.2725 327.761C85.6885 321.572 74.9581 311.425 64.6938 298.095C44.166 271.436 25.5395 232.091 13.6948 186.378Z" stroke="url(#paint88_linear_13482_48289)" stroke-opacity="0.2" stroke-width="0.599139"/>
<path d="M13.3948 185.178C2.37082 139.263 0.334106 95.8167 5.94204 62.6963C8.7461 46.1354 13.459 32.1711 19.9028 21.7722C26.3457 11.3748 34.5064 4.55987 44.2079 2.24888C53.9093 -0.0621072 64.2825 2.33784 74.7509 8.70681C85.2208 15.0767 95.7664 25.4063 105.789 38.9116C125.834 65.9213 143.751 105.585 154.775 151.5C165.799 197.416 167.836 240.862 162.228 273.982C159.424 290.543 154.711 304.508 148.267 314.906C141.825 325.304 133.664 332.119 123.962 334.43C114.261 336.741 103.888 334.341 93.4193 327.972C82.9494 321.602 72.4037 311.272 62.381 297.767C42.3362 270.757 24.4188 231.094 13.3948 185.178Z" stroke="url(#paint89_linear_13482_48289)" stroke-opacity="0.2" stroke-width="0.599139"/>
<path d="M13.1174 183.976C2.9174 137.872 1.65767 94.3898 7.8556 61.3642C10.9547 44.8508 15.9155 30.9666 22.543 20.6773C29.1696 10.3895 37.4495 3.71353 47.1891 1.56788C56.9287 -0.577778 67.2556 1.99905 77.6068 8.54664C87.9594 15.0951 98.3171 25.6047 108.095 39.2812C127.651 66.6332 144.854 106.603 155.054 152.707C165.254 198.812 166.513 242.293 160.315 275.319C157.216 291.832 152.255 305.717 145.628 316.006C139.001 326.294 130.722 332.97 120.982 335.115C111.242 337.261 100.915 334.684 90.5642 328.137C80.2116 321.588 69.8539 311.079 60.0758 297.402C40.5201 270.05 23.3173 230.08 13.1174 183.976Z" stroke="url(#paint90_linear_13482_48289)" stroke-opacity="0.2" stroke-width="0.599139"/>
<path d="M12.8609 182.764C3.48808 136.485 3.00573 92.9806 9.79175 60.0599C13.1849 43.5991 18.3922 29.7991 25.2014 19.6226C32.0097 9.44753 40.4061 2.9126 50.1809 0.932935C59.9557 -1.04673 70.2332 1.70621 80.464 8.43038C90.6963 15.1555 100.863 25.8419 110.393 39.6853C129.454 67.3713 145.937 107.635 155.31 153.914C164.683 200.193 165.165 243.698 158.379 276.618C154.986 293.079 149.778 306.879 142.969 317.056C136.161 327.231 127.764 333.766 117.99 335.745C108.215 337.725 97.9374 334.972 87.7066 328.248C77.4743 321.523 67.3078 310.837 57.7772 296.993C38.7167 269.307 22.2337 229.043 12.8609 182.764Z" stroke="url(#paint91_linear_13482_48289)" stroke-opacity="0.2" stroke-width="0.599139"/>
</g>
<defs>
<linearGradient id="paint0_linear_13482_48289" x1="69.0799" y1="129.61" x2="98.349" y2="209.051" gradientUnits="userSpaceOnUse">
<stop stop-color="#4F46E5"/>
<stop offset="1" stop-color="#4F46E5"/>
</linearGradient>
<linearGradient id="paint1_linear_13482_48289" x1="69.7768" y1="129.354" x2="97.6852" y2="209.271" gradientUnits="userSpaceOnUse">
<stop stop-color="#4F46E5"/>
<stop offset="1" stop-color="#4F46E5"/>
</linearGradient>
<linearGradient id="paint2_linear_13482_48289" x1="70.478" y1="129.11" x2="97.0185" y2="209.482" gradientUnits="userSpaceOnUse">
<stop stop-color="#4F46E5"/>
<stop offset="1" stop-color="#4F46E5"/>
</linearGradient>
<linearGradient id="paint3_linear_13482_48289" x1="71.1837" y1="128.876" x2="96.3498" y2="209.68" gradientUnits="userSpaceOnUse">
<stop stop-color="#4F46E5"/>
<stop offset="1" stop-color="#4F46E5"/>
</linearGradient>
<linearGradient id="paint4_linear_13482_48289" x1="71.8928" y1="128.655" x2="95.678" y2="209.869" gradientUnits="userSpaceOnUse">
<stop stop-color="#4F46E5"/>
<stop offset="1" stop-color="#4F46E5"/>
</linearGradient>
<linearGradient id="paint5_linear_13482_48289" x1="72.6055" y1="128.447" x2="95.0036" y2="210.048" gradientUnits="userSpaceOnUse">
<stop stop-color="#4F46E5"/>
<stop offset="1" stop-color="#4F46E5"/>
</linearGradient>
<linearGradient id="paint6_linear_13482_48289" x1="73.3225" y1="128.251" x2="94.3277" y2="210.218" gradientUnits="userSpaceOnUse">
<stop stop-color="#4F46E5"/>
<stop offset="1" stop-color="#4F46E5"/>
</linearGradient>
<linearGradient id="paint7_linear_13482_48289" x1="74.0425" y1="128.065" x2="93.6493" y2="210.374" gradientUnits="userSpaceOnUse">
<stop stop-color="#4F46E5"/>
<stop offset="1" stop-color="#4F46E5"/>
</linearGradient>
<linearGradient id="paint8_linear_13482_48289" x1="74.7649" y1="127.894" x2="92.9682" y2="210.523" gradientUnits="userSpaceOnUse">
<stop stop-color="#4F46E5"/>
<stop offset="1" stop-color="#4F46E5"/>
</linearGradient>
<linearGradient id="paint9_linear_13482_48289" x1="75.4907" y1="127.735" x2="92.2855" y2="210.66" gradientUnits="userSpaceOnUse">
<stop stop-color="#4F46E5"/>
<stop offset="1" stop-color="#4F46E5"/>
</linearGradient>
<linearGradient id="paint10_linear_13482_48289" x1="76.2192" y1="127.587" x2="91.6009" y2="210.787" gradientUnits="userSpaceOnUse">
<stop stop-color="#4F46E5"/>
<stop offset="1" stop-color="#4F46E5"/>
</linearGradient>
<linearGradient id="paint11_linear_13482_48289" x1="76.9497" y1="127.452" x2="90.914" y2="210.903" gradientUnits="userSpaceOnUse">
<stop stop-color="#4F46E5"/>
<stop offset="1" stop-color="#4F46E5"/>
</linearGradient>
<linearGradient id="paint12_linear_13482_48289" x1="77.6826" y1="127.33" x2="90.2255" y2="211.01" gradientUnits="userSpaceOnUse">
<stop stop-color="#4F46E5"/>
<stop offset="1" stop-color="#4F46E5"/>
</linearGradient>
<linearGradient id="paint13_linear_13482_48289" x1="78.4179" y1="127.219" x2="89.5357" y2="211.105" gradientUnits="userSpaceOnUse">
<stop stop-color="#4F46E5"/>
<stop offset="1" stop-color="#4F46E5"/>
</linearGradient>
<linearGradient id="paint14_linear_13482_48289" x1="79.1544" y1="127.121" x2="88.8436" y2="211.19" gradientUnits="userSpaceOnUse">
<stop stop-color="#4F46E5"/>
<stop offset="1" stop-color="#4F46E5"/>
</linearGradient>
<linearGradient id="paint15_linear_13482_48289" x1="79.8927" y1="127.037" x2="88.1504" y2="211.266" gradientUnits="userSpaceOnUse">
<stop stop-color="#4F46E5"/>
<stop offset="1" stop-color="#4F46E5"/>
</linearGradient>
<linearGradient id="paint16_linear_13482_48289" x1="80.632" y1="126.965" x2="87.4552" y2="211.33" gradientUnits="userSpaceOnUse">
<stop stop-color="#4F46E5"/>
<stop offset="1" stop-color="#4F46E5"/>
</linearGradient>
<linearGradient id="paint17_linear_13482_48289" x1="87.3068" y1="126.881" x2="81.1463" y2="211.427" gradientUnits="userSpaceOnUse">
<stop stop-color="#4F46E5"/>
<stop offset="1" stop-color="#4F46E5"/>
</linearGradient>
<linearGradient id="paint18_linear_13482_48289" x1="88.0466" y1="126.935" x2="80.4411" y2="211.383" gradientUnits="userSpaceOnUse">
<stop stop-color="#4F46E5"/>
<stop offset="1" stop-color="#4F46E5"/>
</linearGradient>
<linearGradient id="paint19_linear_13482_48289" x1="88.7848" y1="127.002" x2="79.735" y2="211.329" gradientUnits="userSpaceOnUse">
<stop stop-color="#4F46E5"/>
<stop offset="1" stop-color="#4F46E5"/>
</linearGradient>
<linearGradient id="paint20_linear_13482_48289" x1="89.5223" y1="127.082" x2="79.0293" y2="211.264" gradientUnits="userSpaceOnUse">
<stop stop-color="#4F46E5"/>
<stop offset="1" stop-color="#4F46E5"/>
</linearGradient>
<linearGradient id="paint21_linear_13482_48289" x1="90.2579" y1="127.173" x2="78.3229" y2="211.186" gradientUnits="userSpaceOnUse">
<stop stop-color="#4F46E5"/>
<stop offset="1" stop-color="#4F46E5"/>
</linearGradient>
<linearGradient id="paint22_linear_13482_48289" x1="90.9911" y1="127.278" x2="77.616" y2="211.099" gradientUnits="userSpaceOnUse">
<stop stop-color="#4F46E5"/>
<stop offset="1" stop-color="#4F46E5"/>
</linearGradient>
<linearGradient id="paint23_linear_13482_48289" x1="91.7222" y1="127.394" x2="76.9091" y2="210.998" gradientUnits="userSpaceOnUse">
<stop stop-color="#4F46E5"/>
<stop offset="1" stop-color="#4F46E5"/>
</linearGradient>
<linearGradient id="paint24_linear_13482_48289" x1="92.4517" y1="127.525" x2="76.2029" y2="210.889" gradientUnits="userSpaceOnUse">
<stop stop-color="#4F46E5"/>
<stop offset="1" stop-color="#4F46E5"/>
</linearGradient>
<linearGradient id="paint25_linear_13482_48289" x1="93.1786" y1="127.666" x2="75.4971" y2="210.766" gradientUnits="userSpaceOnUse">
<stop stop-color="#4F46E5"/>
<stop offset="1" stop-color="#4F46E5"/>
</linearGradient>
<linearGradient id="paint26_linear_13482_48289" x1="93.9026" y1="127.822" x2="74.7913" y2="210.633" gradientUnits="userSpaceOnUse">
<stop stop-color="#4F46E5"/>
<stop offset="1" stop-color="#4F46E5"/>
</linearGradient>
<linearGradient id="paint27_linear_13482_48289" x1="94.6234" y1="127.986" x2="74.086" y2="210.485" gradientUnits="userSpaceOnUse">
<stop stop-color="#4F46E5"/>
<stop offset="1" stop-color="#4F46E5"/>
</linearGradient>
<linearGradient id="paint28_linear_13482_48289" x1="95.3408" y1="128.166" x2="73.3812" y2="210.329" gradientUnits="userSpaceOnUse">
<stop stop-color="#4F46E5"/>
<stop offset="1" stop-color="#4F46E5"/>
</linearGradient>
<linearGradient id="paint29_linear_13482_48289" x1="96.0553" y1="128.356" x2="72.6778" y2="210.158" gradientUnits="userSpaceOnUse">
<stop stop-color="#4F46E5"/>
<stop offset="1" stop-color="#4F46E5"/>
</linearGradient>
<linearGradient id="paint30_linear_13482_48289" x1="96.7657" y1="128.559" x2="71.9749" y2="209.977" gradientUnits="userSpaceOnUse">
<stop stop-color="#4F46E5"/>
<stop offset="1" stop-color="#4F46E5"/>
</linearGradient>
<linearGradient id="paint31_linear_13482_48289" x1="97.4725" y1="128.775" x2="71.2735" y2="209.785" gradientUnits="userSpaceOnUse">
<stop stop-color="#4F46E5"/>
<stop offset="1" stop-color="#4F46E5"/>
</linearGradient>
<linearGradient id="paint32_linear_13482_48289" x1="98.1749" y1="129.002" x2="70.573" y2="209.58" gradientUnits="userSpaceOnUse">
<stop stop-color="#4F46E5"/>
<stop offset="1" stop-color="#4F46E5"/>
</linearGradient>
<linearGradient id="paint33_linear_13482_48289" x1="98.8728" y1="129.243" x2="69.8739" y2="209.363" gradientUnits="userSpaceOnUse">
<stop stop-color="#4F46E5"/>
<stop offset="1" stop-color="#4F46E5"/>
</linearGradient>
<linearGradient id="paint34_linear_13482_48289" x1="99.5667" y1="129.493" x2="69.1771" y2="209.132" gradientUnits="userSpaceOnUse">
<stop stop-color="#4F46E5"/>
<stop offset="1" stop-color="#4F46E5"/>
</linearGradient>
<linearGradient id="paint35_linear_13482_48289" x1="100.256" y1="129.757" x2="68.4824" y2="208.892" gradientUnits="userSpaceOnUse">
<stop stop-color="#4F46E5"/>
<stop offset="1" stop-color="#4F46E5"/>
</linearGradient>
<linearGradient id="paint36_linear_13482_48289" x1="100.94" y1="130.031" x2="67.7893" y2="208.637" gradientUnits="userSpaceOnUse">
<stop stop-color="#4F46E5"/>
<stop offset="1" stop-color="#4F46E5"/>
</linearGradient>
<linearGradient id="paint37_linear_13482_48289" x1="101.619" y1="130.317" x2="67.0992" y2="208.37" gradientUnits="userSpaceOnUse">
<stop stop-color="#4F46E5"/>
<stop offset="1" stop-color="#4F46E5"/>
</linearGradient>
<linearGradient id="paint38_linear_13482_48289" x1="102.293" y1="130.616" x2="66.411" y2="208.093" gradientUnits="userSpaceOnUse">
<stop stop-color="#4F46E5"/>
<stop offset="1" stop-color="#4F46E5"/>
</linearGradient>
<linearGradient id="paint39_linear_13482_48289" x1="102.961" y1="130.926" x2="65.7256" y2="207.802" gradientUnits="userSpaceOnUse">
<stop stop-color="#4F46E5"/>
<stop offset="1" stop-color="#4F46E5"/>
</linearGradient>
<linearGradient id="paint40_linear_13482_48289" x1="103.623" y1="131.247" x2="65.0434" y2="207.498" gradientUnits="userSpaceOnUse">
<stop stop-color="#4F46E5"/>
<stop offset="1" stop-color="#4F46E5"/>
</linearGradient>
<linearGradient id="paint41_linear_13482_48289" x1="104.28" y1="131.577" x2="64.3641" y2="207.181" gradientUnits="userSpaceOnUse">
<stop stop-color="#4F46E5"/>
<stop offset="1" stop-color="#4F46E5"/>
</linearGradient>
<linearGradient id="paint42_linear_13482_48289" x1="104.93" y1="131.921" x2="63.689" y2="206.852" gradientUnits="userSpaceOnUse">
<stop stop-color="#4F46E5"/>
<stop offset="1" stop-color="#4F46E5"/>
</linearGradient>
<linearGradient id="paint43_linear_13482_48289" x1="105.574" y1="132.277" x2="63.0173" y2="206.512" gradientUnits="userSpaceOnUse">
<stop stop-color="#4F46E5"/>
<stop offset="1" stop-color="#4F46E5"/>
</linearGradient>
<linearGradient id="paint44_linear_13482_48289" x1="106.212" y1="132.643" x2="62.3492" y2="206.158" gradientUnits="userSpaceOnUse">
<stop stop-color="#4F46E5"/>
<stop offset="1" stop-color="#4F46E5"/>
</linearGradient>
<linearGradient id="paint45_linear_13482_48289" x1="106.842" y1="133.019" x2="61.6856" y2="205.791" gradientUnits="userSpaceOnUse">
<stop stop-color="#4F46E5"/>
<stop offset="1" stop-color="#4F46E5"/>
</linearGradient>
<linearGradient id="paint46_linear_13482_48289" x1="107.466" y1="133.405" x2="61.0262" y2="205.411" gradientUnits="userSpaceOnUse">
<stop stop-color="#4F46E5"/>
<stop offset="1" stop-color="#4F46E5"/>
</linearGradient>
<linearGradient id="paint47_linear_13482_48289" x1="108.083" y1="133.803" x2="60.3725" y2="205.019" gradientUnits="userSpaceOnUse">
<stop stop-color="#4F46E5"/>
<stop offset="1" stop-color="#4F46E5"/>
</linearGradient>
<linearGradient id="paint48_linear_13482_48289" x1="108.692" y1="134.211" x2="59.7227" y2="204.614" gradientUnits="userSpaceOnUse">
<stop stop-color="#4F46E5"/>
<stop offset="1" stop-color="#4F46E5"/>
</linearGradient>
<linearGradient id="paint49_linear_13482_48289" x1="109.294" y1="134.632" x2="59.0786" y2="204.199" gradientUnits="userSpaceOnUse">
<stop stop-color="#4F46E5"/>
<stop offset="1" stop-color="#4F46E5"/>
</linearGradient>
<linearGradient id="paint50_linear_13482_48289" x1="109.887" y1="135.059" x2="58.4398" y2="203.767" gradientUnits="userSpaceOnUse">
<stop stop-color="#4F46E5"/>
<stop offset="1" stop-color="#4F46E5"/>
</linearGradient>
<linearGradient id="paint51_linear_13482_48289" x1="110.474" y1="135.499" x2="57.8078" y2="203.325" gradientUnits="userSpaceOnUse">
<stop stop-color="#4F46E5"/>
<stop offset="1" stop-color="#4F46E5"/>
</linearGradient>
<linearGradient id="paint52_linear_13482_48289" x1="111.052" y1="135.949" x2="57.181" y2="202.87" gradientUnits="userSpaceOnUse">
<stop stop-color="#4F46E5"/>
<stop offset="1" stop-color="#4F46E5"/>
</linearGradient>
<linearGradient id="paint53_linear_13482_48289" x1="111.622" y1="136.407" x2="56.5609" y2="202.402" gradientUnits="userSpaceOnUse">
<stop stop-color="#4F46E5"/>
<stop offset="1" stop-color="#4F46E5"/>
</linearGradient>
<linearGradient id="paint54_linear_13482_48289" x1="112.184" y1="136.876" x2="55.9477" y2="201.922" gradientUnits="userSpaceOnUse">
<stop stop-color="#4F46E5"/>
<stop offset="1" stop-color="#4F46E5"/>
</linearGradient>
<linearGradient id="paint55_linear_13482_48289" x1="112.737" y1="137.353" x2="55.3413" y2="201.428" gradientUnits="userSpaceOnUse">
<stop stop-color="#4F46E5"/>
<stop offset="1" stop-color="#4F46E5"/>
</linearGradient>
<linearGradient id="paint56_linear_13482_48289" x1="113.281" y1="137.842" x2="54.7425" y2="200.924" gradientUnits="userSpaceOnUse">
<stop stop-color="#4F46E5"/>
<stop offset="1" stop-color="#4F46E5"/>
</linearGradient>
<linearGradient id="paint57_linear_13482_48289" x1="113.817" y1="138.34" x2="54.1515" y2="200.407" gradientUnits="userSpaceOnUse">
<stop stop-color="#4F46E5"/>
<stop offset="1" stop-color="#4F46E5"/>
</linearGradient>
<linearGradient id="paint58_linear_13482_48289" x1="114.343" y1="138.846" x2="53.5681" y2="199.878" gradientUnits="userSpaceOnUse">
<stop stop-color="#4F46E5"/>
<stop offset="1" stop-color="#4F46E5"/>
</linearGradient>
<linearGradient id="paint59_linear_13482_48289" x1="114.86" y1="139.36" x2="52.9928" y2="199.335" gradientUnits="userSpaceOnUse">
<stop stop-color="#4F46E5"/>
<stop offset="1" stop-color="#4F46E5"/>
</linearGradient>
<linearGradient id="paint60_linear_13482_48289" x1="115.369" y1="139.884" x2="52.427" y2="198.782" gradientUnits="userSpaceOnUse">
<stop stop-color="#4F46E5"/>
<stop offset="1" stop-color="#4F46E5"/>
</linearGradient>
<linearGradient id="paint61_linear_13482_48289" x1="115.867" y1="140.417" x2="51.8693" y2="198.216" gradientUnits="userSpaceOnUse">
<stop stop-color="#4F46E5"/>
<stop offset="1" stop-color="#4F46E5"/>
</linearGradient>
<linearGradient id="paint62_linear_13482_48289" x1="116.355" y1="140.958" x2="51.3207" y2="197.638" gradientUnits="userSpaceOnUse">
<stop stop-color="#4F46E5"/>
<stop offset="1" stop-color="#4F46E5"/>
</linearGradient>
<linearGradient id="paint63_linear_13482_48289" x1="116.835" y1="141.508" x2="50.7824" y2="197.05" gradientUnits="userSpaceOnUse">
<stop stop-color="#4F46E5"/>
<stop offset="1" stop-color="#4F46E5"/>
</linearGradient>
<linearGradient id="paint64_linear_13482_48289" x1="117.303" y1="142.066" x2="50.2527" y2="196.45" gradientUnits="userSpaceOnUse">
<stop stop-color="#4F46E5"/>
<stop offset="1" stop-color="#4F46E5"/>
</linearGradient>
<linearGradient id="paint65_linear_13482_48289" x1="117.761" y1="142.632" x2="49.7337" y2="195.838" gradientUnits="userSpaceOnUse">
<stop stop-color="#4F46E5"/>
<stop offset="1" stop-color="#4F46E5"/>
</linearGradient>
<linearGradient id="paint66_linear_13482_48289" x1="118.21" y1="143.206" x2="49.2252" y2="195.216" gradientUnits="userSpaceOnUse">
<stop stop-color="#4F46E5"/>
<stop offset="1" stop-color="#4F46E5"/>
</linearGradient>
<linearGradient id="paint67_linear_13482_48289" x1="118.648" y1="143.785" x2="48.727" y2="194.581" gradientUnits="userSpaceOnUse">
<stop stop-color="#4F46E5"/>
<stop offset="1" stop-color="#4F46E5"/>
</linearGradient>
<linearGradient id="paint68_linear_13482_48289" x1="119.075" y1="144.374" x2="48.24" y2="193.937" gradientUnits="userSpaceOnUse">
<stop stop-color="#4F46E5"/>
<stop offset="1" stop-color="#4F46E5"/>
</linearGradient>
<linearGradient id="paint69_linear_13482_48289" x1="119.492" y1="144.97" x2="47.765" y2="193.281" gradientUnits="userSpaceOnUse">
<stop stop-color="#4F46E5"/>
<stop offset="1" stop-color="#4F46E5"/>
</linearGradient>
<linearGradient id="paint70_linear_13482_48289" x1="119.898" y1="145.573" x2="47.3008" y2="192.616" gradientUnits="userSpaceOnUse">
<stop stop-color="#4F46E5"/>
<stop offset="1" stop-color="#4F46E5"/>
</linearGradient>
<linearGradient id="paint71_linear_13482_48289" x1="120.293" y1="146.184" x2="46.8486" y2="191.942" gradientUnits="userSpaceOnUse">
<stop stop-color="#4F46E5"/>
<stop offset="1" stop-color="#4F46E5"/>
</linearGradient>
<linearGradient id="paint72_linear_13482_48289" x1="120.677" y1="146.801" x2="46.4086" y2="191.257" gradientUnits="userSpaceOnUse">
<stop stop-color="#4F46E5"/>
<stop offset="1" stop-color="#4F46E5"/>
</linearGradient>
<linearGradient id="paint73_linear_13482_48289" x1="121.05" y1="147.424" x2="45.9806" y2="190.561" gradientUnits="userSpaceOnUse">
<stop stop-color="#4F46E5"/>
<stop offset="1" stop-color="#4F46E5"/>
</linearGradient>
<linearGradient id="paint74_linear_13482_48289" x1="121.413" y1="148.054" x2="45.5667" y2="189.858" gradientUnits="userSpaceOnUse">
<stop stop-color="#4F46E5"/>
<stop offset="1" stop-color="#4F46E5"/>
</linearGradient>
<linearGradient id="paint75_linear_13482_48289" x1="121.763" y1="148.69" x2="45.1645" y2="189.146" gradientUnits="userSpaceOnUse">
<stop stop-color="#4F46E5"/>
<stop offset="1" stop-color="#4F46E5"/>
</linearGradient>
<linearGradient id="paint76_linear_13482_48289" x1="122.101" y1="149.332" x2="44.7753" y2="188.424" gradientUnits="userSpaceOnUse">
<stop stop-color="#4F46E5"/>
<stop offset="1" stop-color="#4F46E5"/>
</linearGradient>
<linearGradient id="paint77_linear_13482_48289" x1="122.428" y1="149.979" x2="44.4002" y2="187.693" gradientUnits="userSpaceOnUse">
<stop stop-color="#4F46E5"/>
<stop offset="1" stop-color="#4F46E5"/>
</linearGradient>
<linearGradient id="paint78_linear_13482_48289" x1="122.745" y1="150.634" x2="44.0393" y2="186.956" gradientUnits="userSpaceOnUse">
<stop stop-color="#4F46E5"/>
<stop offset="1" stop-color="#4F46E5"/>
</linearGradient>
<linearGradient id="paint79_linear_13482_48289" x1="123.048" y1="151.291" x2="43.6911" y2="186.209" gradientUnits="userSpaceOnUse">
<stop stop-color="#4F46E5"/>
<stop offset="1" stop-color="#4F46E5"/>
</linearGradient>
<linearGradient id="paint80_linear_13482_48289" x1="123.34" y1="151.956" x2="43.3577" y2="185.457" gradientUnits="userSpaceOnUse">
<stop stop-color="#4F46E5"/>
<stop offset="1" stop-color="#4F46E5"/>
</linearGradient>
<linearGradient id="paint81_linear_13482_48289" x1="123.62" y1="152.624" x2="43.0385" y2="184.695" gradientUnits="userSpaceOnUse">
<stop stop-color="#4F46E5"/>
<stop offset="1" stop-color="#4F46E5"/>
</linearGradient>
<linearGradient id="paint82_linear_13482_48289" x1="123.888" y1="153.297" x2="42.7341" y2="183.927" gradientUnits="userSpaceOnUse">
<stop stop-color="#4F46E5"/>
<stop offset="1" stop-color="#4F46E5"/>
</linearGradient>
<linearGradient id="paint83_linear_13482_48289" x1="124.144" y1="153.977" x2="42.4446" y2="183.154" gradientUnits="userSpaceOnUse">
<stop stop-color="#4F46E5"/>
<stop offset="1" stop-color="#4F46E5"/>
</linearGradient>
<linearGradient id="paint84_linear_13482_48289" x1="124.387" y1="154.659" x2="42.1691" y2="182.374" gradientUnits="userSpaceOnUse">
<stop stop-color="#4F46E5"/>
<stop offset="1" stop-color="#4F46E5"/>
</linearGradient>
<linearGradient id="paint85_linear_13482_48289" x1="124.619" y1="155.345" x2="41.9096" y2="181.587" gradientUnits="userSpaceOnUse">
<stop stop-color="#4F46E5"/>
<stop offset="1" stop-color="#4F46E5"/>
</linearGradient>
<linearGradient id="paint86_linear_13482_48289" x1="124.838" y1="156.035" x2="41.6652" y2="180.795" gradientUnits="userSpaceOnUse">
<stop stop-color="#4F46E5"/>
<stop offset="1" stop-color="#4F46E5"/>
</linearGradient>
<linearGradient id="paint87_linear_13482_48289" x1="125.044" y1="156.73" x2="41.4353" y2="179.999" gradientUnits="userSpaceOnUse">
<stop stop-color="#4F46E5"/>
<stop offset="1" stop-color="#4F46E5"/>
</linearGradient>
<linearGradient id="paint88_linear_13482_48289" x1="125.238" y1="157.428" x2="41.2219" y2="179.198" gradientUnits="userSpaceOnUse">
<stop stop-color="#4F46E5"/>
<stop offset="1" stop-color="#4F46E5"/>
</linearGradient>
<linearGradient id="paint89_linear_13482_48289" x1="125.419" y1="158.129" x2="41.0233" y2="178.392" gradientUnits="userSpaceOnUse">
<stop stop-color="#4F46E5"/>
<stop offset="1" stop-color="#4F46E5"/>
</linearGradient>
<linearGradient id="paint90_linear_13482_48289" x1="125.589" y1="158.836" x2="40.8414" y2="177.585" gradientUnits="userSpaceOnUse">
<stop stop-color="#4F46E5"/>
<stop offset="1" stop-color="#4F46E5"/>
</linearGradient>
<linearGradient id="paint91_linear_13482_48289" x1="125.745" y1="159.541" x2="40.6748" y2="176.77" gradientUnits="userSpaceOnUse">
<stop stop-color="#4F46E5"/>
<stop offset="1" stop-color="#4F46E5"/>
</linearGradient>
</defs>
</svg>
