<svg xmlns="http://www.w3.org/2000/svg" width="1440" height="954" viewBox="0 0 1440 954" fill="none">
<rect x="-0.0351562" width="1440" height="953" fill="url(#paint0_linear_9335_53434)"/>
<mask id="mask0_9335_53434" style="mask-type:luminance" maskUnits="userSpaceOnUse" x="-1" y="0" width="1441" height="953">
<rect x="-0.0351562" width="1440" height="953" fill="white"/>
</mask>
<g mask="url(#mask0_9335_53434)">
</g>
<mask id="mask1_9335_53434" style="mask-type:luminance" maskUnits="userSpaceOnUse" x="-1" y="0" width="1441" height="953">
<rect x="-0.0351562" width="1440" height="953" fill="white"/>
</mask>
<g mask="url(#mask1_9335_53434)">
</g>
<ellipse opacity="0.0361096" cx="-304.113" cy="-157.5" rx="574.702" ry="575.5" fill="white"/>
<ellipse opacity="0.0458287" cx="-314.098" cy="-177.5" rx="821.359" ry="822" fill="white"/>
<ellipse opacity="0.050665" cx="-345.055" cy="-197" rx="1119.94" ry="1121" fill="white"/>
<path fill-rule="evenodd" clip-rule="evenodd" d="M-0.0351562 815.147C-0.0351562 815.147 203.998 930.111 343.388 920.808C482.777 911.505 566.278 873.159 719.441 892.332C872.603 911.505 1316.85 863.133 1441.96 730V954H-0.0351562V815.147Z" fill="#F8FAFC"/>
<mask id="mask2_9335_53434" style="mask-type:luminance" maskUnits="userSpaceOnUse" x="241" y="158" width="483" height="593">
<rect x="246.561" y="163" width="472.44" height="583" rx="15" fill="white" stroke="white" stroke-width="10"/>
</mask>
<g mask="url(#mask2_9335_53434)">
</g>
<defs>
<filter id="filter0_d_9335_53434" x="-19.6352" y="-21.6" width="1479.2" height="119.2" filterUnits="userSpaceOnUse" color-interpolation-filters="sRGB">
<feFlood flood-opacity="0" result="BackgroundImageFix"/>
<feColorMatrix in="SourceAlpha" type="matrix" values="0 0 0 0 0 0 0 0 0 0 0 0 0 0 0 0 0 0 127 0" result="hardAlpha"/>
<feOffset dy="-2"/>
<feGaussianBlur stdDeviation="9.8"/>
<feComposite in2="hardAlpha" operator="out"/>
<feColorMatrix type="matrix" values="0 0 0 0 0 0 0 0 0 0 0 0 0 0 0 0 0 0 0.15 0"/>
<feBlend mode="normal" in2="BackgroundImageFix" result="effect1_dropShadow_9335_53434"/>
<feBlend mode="normal" in="SourceGraphic" in2="effect1_dropShadow_9335_53434" result="shape"/>
</filter>
<linearGradient id="paint0_linear_9335_53434" x1="724.246" y1="-470.833" x2="-155.003" y2="849.828" gradientUnits="userSpaceOnUse">
<stop stop-color="#6366F1"/>
<stop offset="0.394106" stop-color="#4338CA"/>
<stop offset="1" stop-color="#4338CA"/>
</linearGradient>
<clipPath id="clip0_9335_53434">
<rect width="32" height="32" fill="white" transform="translate(1351.96 24)"/>
</clipPath>
<clipPath id="clip1_9335_53434">
<rect width="432.629" height="52" fill="white" transform="translate(265.682 322.786)"/>
</clipPath>
<clipPath id="clip2_9335_53434">
<rect width="432.629" height="72" fill="white" transform="translate(265.682 399.786)"/>
</clipPath>
</defs>
</svg>
