<svg width="587" height="438" viewBox="0 0 587 438" fill="none" xmlns="http://www.w3.org/2000/svg">
<path d="M587 384.422H0V384.715H587V384.422Z" fill="#EBEBEB"/>
<path d="M528.184 403.318H489.299V403.612H528.184V403.318Z" fill="#EBEBEB"/>
<path d="M388.853 406.505H378.647V406.798H388.853V406.505Z" fill="#EBEBEB"/>
<path d="M488.124 392.417H465.592V392.71H488.124V392.417Z" fill="#EBEBEB"/>
<path d="M112.295 394.389H61.5865V394.682H112.295V394.389Z" fill="#EBEBEB"/>
<path d="M130.184 394.389H122.749V394.682H130.184V394.389Z" fill="#EBEBEB"/>
<path d="M264.323 399.347H154.347V399.64H264.323V399.347Z" fill="#EBEBEB"/>
<path d="M278.255 332.064H51.5565C47.8619 332.064 44.8553 329.057 44.8553 325.362V6.70119C44.8553 3.00661 47.8619 0 51.5565 0H278.255C281.948 0 284.955 3.00661 284.955 6.70119V325.362C284.955 329.057 281.948 332.064 278.255 332.064ZM51.5565 0.294673C48.0228 0.294673 45.1488 3.16863 45.1488 6.70236V325.363C45.1488 328.897 48.0228 331.771 51.5565 331.771H278.255C281.787 331.771 284.661 328.897 284.661 325.363V6.70119C284.661 3.16863 281.787 0.2935 278.255 0.2935L51.5565 0.294673Z" fill="#EBEBEB"/>
<path d="M532.186 332.064H305.489C301.794 332.064 298.789 329.057 298.789 325.362V6.70119C298.789 3.00661 301.795 0 305.489 0H532.186C535.881 0 538.887 3.00661 538.887 6.70119V325.362C538.888 329.057 535.881 332.064 532.186 332.064ZM305.489 0.294673C301.956 0.294673 299.082 3.16863 299.082 6.70236V325.363C299.082 328.897 301.956 331.771 305.489 331.771H532.186C535.719 331.771 538.593 328.897 538.593 325.363V6.70119C538.593 3.16863 535.719 0.2935 532.186 0.2935L305.489 0.294673Z" fill="#EBEBEB"/>
<path d="M371.622 267.088H512.668C512.668 272.266 508.592 276.517 503.419 276.751C488.262 277.434 464.944 279.833 457.549 288.22C443.765 303.853 445.099 358.771 461.611 371.491C466.788 375.479 481.88 383.397 481.88 383.397H402.412C402.412 383.397 416.514 375.319 421.414 371.491C437.831 358.667 438.309 303.781 424.461 288.22C417.355 280.236 395.499 277.656 380.835 276.843C375.661 276.556 371.622 272.269 371.622 267.088Z" fill="#F5F5F5"/>
<path d="M495.197 277.263C480.87 278.412 463.701 281.243 457.549 288.22C455.728 290.285 454.18 293.049 452.886 296.297H429.197C427.869 293.046 426.293 290.28 424.46 288.22C418.284 281.281 400.973 278.426 386.919 277.263H495.197Z" fill="#E6E6E6"/>
<path d="M431.704 267.157L433.623 245.233H405.82L403.902 267.157H431.704Z" fill="#EBEBEB"/>
<path d="M431.705 267.157L433.623 245.233H435.12L433.201 267.157H431.705Z" fill="#E0E0E0"/>
<path d="M429.066 264.921L430.593 247.469H408.46L406.932 264.921H429.066Z" fill="#F0F0F0"/>
<path d="M427.369 263.484L428.645 248.904H410.156L408.88 263.484H427.369Z" fill="#FAFAFA"/>
<path d="M440.723 267.087H468.652L465.553 231.669H437.623L440.723 267.087Z" fill="#E6E6E6"/>
<path d="M440.723 267.087H439.389L436.291 231.669H437.623L440.723 267.087Z" fill="#E0E0E0"/>
<path d="M443.254 263.476H465.488L463.022 235.28H440.787L443.254 263.476Z" fill="#F0F0F0"/>
<path d="M444.881 261.155H463.455L461.395 237.601H442.821L444.881 261.155Z" fill="#FAFAFA"/>
<path d="M454.263 248.199C453 249.461 450.955 249.461 449.693 248.199C448.431 246.937 448.431 244.892 449.693 243.63C450.955 242.368 453 242.368 454.263 243.63C455.525 244.891 455.525 246.937 454.263 248.199Z" fill="#EBEBEB"/>
<path d="M452.896 252.156C453.82 251.232 455.318 251.232 456.242 252.156C457.732 253.647 456.676 256.194 454.569 256.194C452.461 256.194 451.405 253.646 452.896 252.156Z" fill="#F0F0F0"/>
<path d="M95.9487 226.705L227.657 226.705L227.657 81.0375L95.9487 81.0375L95.9487 226.705Z" fill="#E0E0E0"/>
<path d="M91.7429 226.705L228.348 226.705L228.348 81.0375L91.7429 81.0375L91.7429 226.705Z" fill="#F0F0F0"/>
<path d="M97.5208 220.011L222.788 220.011L222.788 85.6828L97.5208 85.6828L97.5208 220.011Z" fill="white"/>
<path d="M97.521 220.011H101.144L101.144 85.6828H97.521L97.521 220.011Z" fill="#E0E0E0"/>
<path d="M100.757 182.279V185.902H223.109V182.279H100.757Z" fill="#E0E0E0"/>
<path d="M97.52 182.28L224.73 182.28V176.199L97.52 176.199V182.28Z" fill="#F0F0F0"/>
<path d="M444.226 105.975C444.226 105.975 445.401 98.2286 439.75 93.2614C434.1 88.2943 434.596 85.3393 436.211 84.9542C437.825 84.5691 439.316 89.5363 441.799 90.9017C441.799 90.9017 441.878 83.8236 439.355 81.2162C436.832 78.6087 435.507 71.8911 437.908 71.7725C440.309 71.654 440.557 75.763 441.053 78.6757C441.55 81.5884 444.224 85.6868 444.224 85.6868C444.224 85.6868 444.747 79.3531 446.378 76.7456C448.008 74.1381 443.661 68.1766 445.339 65.5691C447.015 62.9617 449.996 67.9289 449.747 73.5171C449.498 79.1053 445.773 85.0657 446.643 90.9017C446.643 90.9017 448.286 86.8033 449.762 86.4311C451.238 86.0589 452.728 83.3482 453.721 82.3444C454.714 81.3406 455.956 84.8169 453.721 88.0454C451.486 91.2739 445.773 99.9122 446.643 106.894L444.226 105.975Z" fill="#E6E6E6"/>
<path d="M440.848 102.45L438.998 114.061C438.426 117.646 441.197 120.894 444.828 120.894H446.801C450.433 120.894 453.203 117.646 452.631 114.061L450.781 102.45H440.848Z" fill="#F5F5F5"/>
<path d="M468.833 116.61H338.046V123.33H468.833V116.61Z" fill="#E6E6E6"/>
<path d="M349.829 91.8398H344.066V116.61H349.829V91.8398Z" fill="#F0F0F0"/>
<path d="M377.688 91.8398H371.926V116.61H377.688V91.8398Z" fill="#F0F0F0"/>
<path d="M409.323 91.2433L403.644 92.2217L407.85 116.633L413.529 115.654L409.323 91.2433Z" fill="#F0F0F0"/>
<path d="M356.968 95.1035H351.206V116.61H356.968V95.1035Z" fill="#F0F0F0"/>
<path d="M370.211 95.1035H364.449V116.61H370.211V95.1035Z" fill="#F0F0F0"/>
<path d="M403.639 95.1035H397.877V116.61H403.639V95.1035Z" fill="#F0F0F0"/>
<path d="M385.259 94.3645L379.635 95.6143L384.299 116.609L389.924 115.359L385.259 94.3645Z" fill="#F0F0F0"/>
<path d="M361.949 90.6094H359.068V116.609H361.949V90.6094Z" fill="#F0F0F0"/>
<path d="M396.221 90.6094H393.34V116.609H396.221V90.6094Z" fill="#F0F0F0"/>
<path d="M338.046 173.494L468.833 173.494V166.774L338.046 166.774V173.494Z" fill="#E6E6E6"/>
<path d="M457.051 166.774H462.813V142.004H457.051V166.774Z" fill="#F0F0F0"/>
<path d="M429.19 166.774H434.952V142.004H429.19V166.774Z" fill="#F0F0F0"/>
<path d="M393.338 165.802L399.017 166.78L403.223 142.369L397.544 141.391L393.338 165.802Z" fill="#F0F0F0"/>
<path d="M449.912 166.774H455.674V145.269H449.912V166.774Z" fill="#F0F0F0"/>
<path d="M436.669 166.774H442.431V145.269H436.669V166.774Z" fill="#F0F0F0"/>
<path d="M403.239 166.774H409.001V145.269H403.239V166.774Z" fill="#F0F0F0"/>
<path d="M416.958 165.52L422.583 166.77L427.248 145.775L421.623 144.525L416.958 165.52Z" fill="#F0F0F0"/>
<path d="M444.929 166.773H447.81V140.774H444.929V166.773Z" fill="#F0F0F0"/>
<path d="M410.657 166.773H413.538V140.774H410.657V166.773Z" fill="#F0F0F0"/>
<path d="M350.594 166.552H378.669V147.169H350.594V166.552Z" fill="#F5F5F5"/>
<path d="M293.5 437.443C419.214 437.443 521.126 431.491 521.126 424.15C521.126 416.808 419.214 410.856 293.5 410.856C167.786 410.856 65.8742 416.808 65.8742 424.15C65.8742 431.491 167.786 437.443 293.5 437.443Z" fill="#F5F5F5"/>
<path opacity="0.2" d="M503.705 283.44H256.507C254.901 283.44 253.598 282.138 253.598 280.531V60.9609C253.598 59.3549 254.9 58.0518 256.507 58.0518H503.705C505.312 58.0518 506.614 59.3537 506.614 60.9609V280.531C506.614 282.137 505.312 283.44 503.705 283.44Z" fill="black"/>
<path d="M494.134 279.278H246.935C245.328 279.278 244.026 277.976 244.026 276.368V56.7988C244.026 55.1916 245.328 53.8896 246.935 53.8896H494.134C495.74 53.8896 497.043 55.1916 497.043 56.7988V276.368C497.043 277.975 495.74 279.278 494.134 279.278Z" fill="#4F46E5"/>
<path opacity="0.6" d="M244.026 73.9531V276.368C244.026 277.974 245.106 279.277 246.439 279.277H494.631C495.963 279.277 497.043 277.975 497.043 276.368V73.9531H244.026Z" fill="white"/>
<path d="M494.043 85.8867H247.025V264.648H494.043V85.8867Z" fill="white"/>
<path opacity="0.6" d="M488.78 67.8006C490.828 67.8006 492.488 65.799 492.488 63.33C492.488 60.8609 490.828 58.8594 488.78 58.8594C486.733 58.8594 485.073 60.8609 485.073 63.33C485.073 65.799 486.733 67.8006 488.78 67.8006Z" fill="white"/>
<path opacity="0.6" d="M476.628 67.8006C478.675 67.8006 480.335 65.799 480.335 63.33C480.335 60.8609 478.675 58.8594 476.628 58.8594C474.58 58.8594 472.92 60.8609 472.92 63.33C472.92 65.799 474.58 67.8006 476.628 67.8006Z" fill="white"/>
<path opacity="0.6" d="M468.181 63.33C468.181 65.7989 466.521 67.8006 464.474 67.8006C462.427 67.8006 460.766 65.7989 460.766 63.33C460.766 60.8611 462.427 58.8594 464.474 58.8594C466.521 58.8594 468.181 60.8611 468.181 63.33Z" fill="white"/>
<path d="M299.654 106.755V152.867L287.794 167.168H261.537V106.755H299.654Z" fill="#4F46E5"/>
<path opacity="0.7" d="M299.654 106.755V152.867L287.794 167.168H261.537V106.755H299.654Z" fill="white"/>
<path opacity="0.3" d="M299.654 152.867L287.794 167.168V152.867H299.654Z" fill="#4F46E5"/>
<path opacity="0.3" d="M293.747 115.467H267.446V117.198H293.747V115.467Z" fill="#4F46E5"/>
<path opacity="0.3" d="M293.747 122.028H267.446V123.76H293.747V122.028Z" fill="#4F46E5"/>
<path opacity="0.3" d="M293.747 128.59H267.446V130.322H293.747V128.59Z" fill="#4F46E5"/>
<path opacity="0.3" d="M293.747 135.151H267.446V136.883H293.747V135.151Z" fill="#4F46E5"/>
<path opacity="0.3" d="M286.945 141.714H267.446V143.446H286.945V141.714Z" fill="#4F46E5"/>
<path d="M360.113 106.755V152.867L348.253 167.168H321.996V106.755H360.113Z" fill="#4F46E5"/>
<path opacity="0.7" d="M360.113 106.755V152.867L348.253 167.168H321.996V106.755H360.113Z" fill="white"/>
<path opacity="0.3" d="M360.113 152.867L348.253 167.168V152.867H360.113Z" fill="#4F46E5"/>
<path opacity="0.3" d="M354.206 115.467H327.905V117.198H354.206V115.467Z" fill="#4F46E5"/>
<path opacity="0.3" d="M354.206 122.028H327.904V123.76H354.206V122.028Z" fill="#4F46E5"/>
<path opacity="0.3" d="M354.206 128.59H327.904V130.322H354.206V128.59Z" fill="#4F46E5"/>
<path opacity="0.3" d="M354.206 135.151H327.904V136.883H354.206V135.151Z" fill="#4F46E5"/>
<path opacity="0.3" d="M347.403 141.714H327.904V143.446H347.403V141.714Z" fill="#4F46E5"/>
<path d="M420.572 106.755V152.867L408.712 167.168H382.454V106.755H420.572Z" fill="#4F46E5"/>
<path opacity="0.7" d="M420.572 106.755V152.867L408.712 167.168H382.454V106.755H420.572Z" fill="white"/>
<path opacity="0.3" d="M420.572 152.867L408.712 167.168V152.867H420.572Z" fill="#4F46E5"/>
<path opacity="0.3" d="M414.663 115.467H388.362V117.198H414.663V115.467Z" fill="#4F46E5"/>
<path opacity="0.3" d="M414.663 122.028H388.362V123.76H414.663V122.028Z" fill="#4F46E5"/>
<path opacity="0.3" d="M414.663 128.59H388.362V130.322H414.663V128.59Z" fill="#4F46E5"/>
<path opacity="0.3" d="M414.663 135.151H388.362V136.883H414.663V135.151Z" fill="#4F46E5"/>
<path opacity="0.3" d="M407.861 141.714H388.362V143.446H407.861V141.714Z" fill="#4F46E5"/>
<path d="M481.03 106.755V152.867L469.169 167.168H442.913V106.755H481.03Z" fill="#4F46E5"/>
<path opacity="0.7" d="M481.03 106.755V152.867L469.169 167.168H442.913V106.755H481.03Z" fill="white"/>
<path opacity="0.3" d="M481.03 152.867L469.169 167.168V152.867H481.03Z" fill="#4F46E5"/>
<path opacity="0.3" d="M475.122 115.467H448.821V117.198H475.122V115.467Z" fill="#4F46E5"/>
<path opacity="0.3" d="M475.122 122.028H448.821V123.76H475.122V122.028Z" fill="#4F46E5"/>
<path opacity="0.3" d="M475.122 128.59H448.821V130.322H475.122V128.59Z" fill="#4F46E5"/>
<path opacity="0.3" d="M475.122 135.151H448.821V136.883H475.122V135.151Z" fill="#4F46E5"/>
<path opacity="0.3" d="M468.32 141.714H448.821V143.446H468.32V141.714Z" fill="#4F46E5"/>
<path d="M299.654 186.587V232.699L287.794 247H261.537V186.587H299.654Z" fill="#4F46E5"/>
<path opacity="0.7" d="M299.654 186.587V232.699L287.794 247H261.537V186.587H299.654Z" fill="white"/>
<path opacity="0.3" d="M299.654 232.699L287.794 247V232.699H299.654Z" fill="#4F46E5"/>
<path opacity="0.3" d="M293.747 195.299H267.446V197.03H293.747V195.299Z" fill="#4F46E5"/>
<path opacity="0.3" d="M293.747 201.86H267.446V203.592H293.747V201.86Z" fill="#4F46E5"/>
<path opacity="0.3" d="M293.747 208.422H267.446V210.154H293.747V208.422Z" fill="#4F46E5"/>
<path opacity="0.3" d="M293.747 214.983H267.446V216.715H293.747V214.983Z" fill="#4F46E5"/>
<path opacity="0.3" d="M286.945 221.546H267.446V223.278H286.945V221.546Z" fill="#4F46E5"/>
<path d="M360.113 186.587V232.699L348.254 247H321.996V186.587H360.113Z" fill="#4F46E5"/>
<path opacity="0.7" d="M360.113 186.587V232.699L348.254 247H321.996V186.587H360.113Z" fill="white"/>
<path opacity="0.3" d="M360.113 232.699L348.253 247V232.699H360.113Z" fill="#4F46E5"/>
<path opacity="0.3" d="M354.206 195.299H327.905V197.03H354.206V195.299Z" fill="#4F46E5"/>
<path opacity="0.3" d="M354.206 201.86H327.905V203.592H354.206V201.86Z" fill="#4F46E5"/>
<path opacity="0.3" d="M354.206 208.422H327.905V210.154H354.206V208.422Z" fill="#4F46E5"/>
<path opacity="0.3" d="M354.206 214.983H327.905V216.715H354.206V214.983Z" fill="#4F46E5"/>
<path opacity="0.3" d="M347.404 221.546H327.905V223.278H347.404V221.546Z" fill="#4F46E5"/>
<path d="M420.572 186.587V232.699L408.712 247H382.455V186.587H420.572Z" fill="#4F46E5"/>
<path opacity="0.7" d="M420.572 186.587V232.699L408.712 247H382.455V186.587H420.572Z" fill="white"/>
<path opacity="0.3" d="M420.572 232.699L408.712 247V232.699H420.572Z" fill="#4F46E5"/>
<path opacity="0.3" d="M414.663 195.299H388.362V197.03H414.663V195.299Z" fill="#4F46E5"/>
<path opacity="0.3" d="M414.663 201.86H388.362V203.592H414.663V201.86Z" fill="#4F46E5"/>
<path opacity="0.3" d="M414.663 208.422H388.362V210.154H414.663V208.422Z" fill="#4F46E5"/>
<path opacity="0.3" d="M414.663 214.983H388.362V216.715H414.663V214.983Z" fill="#4F46E5"/>
<path opacity="0.3" d="M407.861 221.546H388.362V223.278H407.861V221.546Z" fill="#4F46E5"/>
<path d="M481.03 186.587V232.699L469.169 247H442.913V186.587H481.03Z" fill="#4F46E5"/>
<path opacity="0.7" d="M481.03 186.587V232.699L469.169 247H442.913V186.587H481.03Z" fill="white"/>
<path opacity="0.3" d="M481.031 232.699L469.17 247V232.699H481.031Z" fill="#4F46E5"/>
<path opacity="0.3" d="M475.122 195.299H448.821V197.03H475.122V195.299Z" fill="#4F46E5"/>
<path opacity="0.3" d="M475.122 201.86H448.821V203.592H475.122V201.86Z" fill="#4F46E5"/>
<path opacity="0.3" d="M475.122 208.422H448.821V210.154H475.122V208.422Z" fill="#4F46E5"/>
<path opacity="0.3" d="M475.122 214.983H448.821V216.715H475.122V214.983Z" fill="#4F46E5"/>
<path opacity="0.3" d="M468.32 221.546H448.821V223.278H468.32V221.546Z" fill="#4F46E5"/>
<path opacity="0.1" d="M387.368 204.209H326.526C323.705 204.209 321.417 201.922 321.417 199.1V153.502C321.417 150.681 323.704 148.393 326.526 148.393H387.368C390.189 148.393 392.477 150.68 392.477 153.502V199.1C392.477 201.922 390.189 204.209 387.368 204.209Z" fill="black"/>
<g opacity="0.1">
<path d="M383.02 145.794H375.976V138.176C375.976 128.167 367.834 120.024 357.824 120.024C347.816 120.024 339.673 128.167 339.673 138.176V145.794H332.629V138.176C332.629 124.283 343.931 112.98 357.824 112.98C371.717 112.98 383.02 124.284 383.02 138.176V145.794Z" fill="black"/>
</g>
<path d="M358.018 201.861H297.177C294.356 201.861 292.068 199.574 292.068 196.751V151.153C292.068 148.332 294.355 146.044 297.177 146.044H358.018C360.839 146.044 363.127 148.331 363.127 151.153V196.751C363.127 199.574 360.839 201.861 358.018 201.861Z" fill="#263238"/>
<path opacity="0.2" d="M345.169 201.861H297.177C294.356 201.861 292.068 199.574 292.068 196.751V151.153C292.068 148.332 294.355 146.044 297.177 146.044H345.169C347.99 146.044 350.278 148.331 350.278 151.153V196.751C350.278 199.574 347.99 201.861 345.169 201.861Z" fill="white"/>
<path d="M324.74 166.985C324.74 163.137 322.397 160.018 319.507 160.018C316.618 160.018 314.275 163.137 314.275 166.985C314.275 169.912 315.632 172.413 317.551 173.445L316.583 187.999H322.429L321.461 173.445C323.384 172.414 324.74 169.912 324.74 166.985Z" fill="#263238"/>
<path d="M353.671 143.446H346.627V135.828C346.627 125.82 338.484 117.677 328.475 117.677C318.466 117.677 310.323 125.82 310.323 135.828V143.446H303.279V135.828C303.279 121.935 314.581 110.633 328.475 110.633C342.368 110.633 353.671 121.936 353.671 135.828V143.446Z" fill="#263238"/>
<g opacity="0.4">
<path d="M353.671 143.446H346.627V135.828C346.627 125.82 338.484 117.677 328.475 117.677C318.466 117.677 310.323 125.82 310.323 135.828V143.446H303.279V135.828C303.279 121.935 314.581 110.633 328.475 110.633C342.368 110.633 353.671 121.936 353.671 135.828V143.446Z" fill="white"/>
</g>
<path opacity="0.2" d="M353.667 135.83V143.449H348.889V134.961C348.889 122.247 338.581 111.951 325.867 111.951C321.065 111.951 316.616 113.442 312.964 116.001C317.249 112.643 322.638 110.636 328.473 110.636C342.361 110.636 353.667 121.93 353.667 135.83Z" fill="white"/>
<path d="M254.121 270.816H225.661V269.719H232.088C232.982 269.719 233.739 269.068 233.894 268.194L236.768 251.075L237.331 247.706H247.08L255.8 268.282C256.306 269.486 255.423 270.816 254.121 270.816Z" fill="#4F46E5"/>
<path opacity="0.4" d="M254.121 270.816H225.661V269.719H232.088C232.982 269.719 233.739 269.068 233.894 268.194L236.768 251.075L237.331 247.706H247.08L255.8 268.282C256.306 269.486 255.423 270.816 254.121 270.816Z" fill="white"/>
<path opacity="0.2" d="M254.159 269.719H232.089C232.982 269.719 233.739 269.069 233.894 268.194L236.768 251.076H246.983L254.752 268.816C254.936 269.233 254.625 269.719 254.159 269.719Z" fill="black"/>
<path d="M269.424 254.015H212.499C211.931 254.015 211.557 253.554 211.665 252.985L219.751 210.214C219.859 209.646 220.408 209.185 220.976 209.185H277.901C278.469 209.185 278.843 209.646 278.735 210.214L270.649 252.985C270.541 253.554 269.993 254.015 269.424 254.015Z" fill="#4F46E5"/>
<path opacity="0.4" d="M269.424 254.015H212.499C211.931 254.015 211.557 253.554 211.665 252.985L219.751 210.214C219.859 209.646 220.408 209.185 220.976 209.185H277.901C278.469 209.185 278.843 209.646 278.735 210.214L270.649 252.985C270.541 253.554 269.993 254.015 269.424 254.015Z" fill="white"/>
<path d="M268.251 254.015H211.326C210.758 254.015 210.383 253.554 210.491 252.985L218.578 210.214C218.686 209.646 219.234 209.185 219.802 209.185H276.727C277.295 209.185 277.67 209.646 277.562 210.214L269.475 252.985C269.367 253.554 268.819 254.015 268.251 254.015Z" fill="#263238"/>
<path d="M267.496 251.393H213.073L220.557 211.808H274.98L267.496 251.393Z" fill="#4F46E5"/>
<path d="M172.635 270.816V269.481L194.549 265.053H237.403C238.994 265.053 240.283 266.342 240.283 267.933C240.283 269.523 238.994 270.812 237.403 270.812L172.635 270.816Z" fill="#4F46E5"/>
<path opacity="0.4" d="M240.278 267.936C240.278 268.722 239.961 269.45 239.445 269.967C238.917 270.483 238.2 270.812 237.402 270.812H172.633V269.486L194.551 265.048H237.402C238.999 265.048 240.278 266.339 240.278 267.936Z" fill="white"/>
<path opacity="0.4" d="M240.278 267.936C240.278 268.722 239.961 269.45 239.445 269.967C238.916 270.483 238.2 270.812 237.402 270.812H211.374V269.486L233.293 265.048H237.402C238.999 265.048 240.278 266.339 240.278 267.936Z" fill="white"/>
<path d="M255.944 424.361H261.807L272.344 277.681H264.564L255.944 424.361Z" fill="#263238"/>
<path opacity="0.1" d="M255.941 424.362H261.808L271.83 284.967L272.346 277.917H264.565L264.143 284.967L255.941 424.362Z" fill="white"/>
<path opacity="0.2" d="M264.144 284.617H271.83L272.347 277.917H264.565L264.144 284.617Z" fill="black"/>
<path d="M212.912 424.361H218.776L219.733 277.681H211.954L212.912 424.361Z" fill="#263238"/>
<path opacity="0.1" d="M211.951 277.917L212.103 301.582L212.907 424.362H218.775L219.579 301.582L219.732 277.917H211.951Z" fill="white"/>
<path opacity="0.2" d="M211.951 277.917L212.103 301.845H219.579L219.732 277.917H211.951Z" fill="black"/>
<path d="M150.657 424.361H156.521L167.057 277.681H159.278L150.657 424.361Z" fill="#263238"/>
<path opacity="0.1" d="M150.654 424.362H156.521L166.543 284.967L167.059 277.917H159.278L158.856 284.967L150.654 424.362Z" fill="white"/>
<path opacity="0.2" d="M158.857 284.617H166.543L167.06 277.917H159.278L158.857 284.617Z" fill="black"/>
<path d="M323.024 424.36H328.887L320.268 277.68H312.489L323.024 424.36Z" fill="#263238"/>
<path opacity="0.1" d="M312.49 277.916L313.007 284.966L323.028 424.361H328.886L320.693 284.966L320.271 277.916H312.49Z" fill="white"/>
<path opacity="0.2" d="M320.271 277.916H312.49L313.007 284.616H320.693L320.271 277.916Z" fill="black"/>
<path d="M155.648 281.354H323.895C325.297 281.354 326.433 280.217 326.433 278.816V274.007H153.11V278.816C153.11 280.217 154.246 281.354 155.648 281.354Z" fill="#4F46E5"/>
<path opacity="0.4" d="M155.648 281.354H323.895C325.297 281.354 326.433 280.217 326.433 278.816V274.007H153.11V278.816C153.11 280.217 154.246 281.354 155.648 281.354Z" fill="white"/>
<path opacity="0.2" d="M153.111 277.68H326.434V274.006H153.111V277.68Z" fill="black"/>
<path d="M149.475 274.965H330.068C331.212 274.965 332.138 274.038 332.138 272.895C332.138 271.753 331.212 270.825 330.068 270.825H149.475C148.332 270.825 147.406 271.751 147.406 272.895C147.407 274.037 148.333 274.965 149.475 274.965Z" fill="#4F46E5"/>
<path opacity="0.4" d="M149.475 274.965H330.068C331.212 274.965 332.138 274.038 332.138 272.895C332.138 271.753 331.212 270.825 330.068 270.825H149.475C148.332 270.825 147.406 271.751 147.406 272.895C147.407 274.037 148.333 274.965 149.475 274.965Z" fill="white"/>
<path opacity="0.3" d="M223.581 233.983C223.056 233.983 222.564 233.752 222.231 233.346C221.896 232.94 221.764 232.413 221.863 231.898L222.596 228.149C222.8 227.1 223.724 226.339 224.794 226.339H255.325C255.85 226.339 256.341 226.57 256.675 226.975C257.009 227.381 257.142 227.909 257.042 228.424L256.311 232.172C256.107 233.222 255.183 233.983 254.113 233.983H223.581Z" fill="white"/>
<path d="M254.112 233.395H223.581C222.85 233.395 222.3 232.728 222.44 232.009L223.172 228.26C223.323 227.484 224.003 226.925 224.793 226.925H255.324C256.055 226.925 256.605 227.592 256.465 228.31L255.734 232.06C255.582 232.836 254.902 233.395 254.112 233.395Z" fill="white"/>
<path d="M229.128 230.161C228.937 231.14 228.063 231.935 227.177 231.935C226.291 231.935 225.726 231.141 225.917 230.161C226.109 229.182 226.982 228.387 227.869 228.387C228.756 228.387 229.32 229.182 229.128 230.161Z" fill="#263238"/>
<path d="M233.901 230.161C233.71 231.14 232.836 231.935 231.95 231.935C231.064 231.935 230.5 231.141 230.69 230.161C230.882 229.182 231.755 228.387 232.641 228.387C233.528 228.387 234.091 229.182 233.901 230.161Z" fill="#263238"/>
<path d="M238.672 230.161C238.481 231.14 237.607 231.935 236.721 231.935C235.835 231.935 235.27 231.141 235.461 230.161C235.653 229.182 236.526 228.387 237.413 228.387C238.3 228.387 238.864 229.182 238.672 230.161Z" fill="#263238"/>
<path d="M243.444 230.161C243.253 231.14 242.379 231.935 241.493 231.935C240.607 231.935 240.042 231.141 240.233 230.161C240.425 229.182 241.298 228.387 242.184 228.387C243.071 228.387 243.634 229.182 243.444 230.161Z" fill="#263238"/>
<path d="M248.216 230.161C248.024 231.14 247.151 231.935 246.265 231.935C245.378 231.935 244.815 231.141 245.005 230.161C245.196 229.182 246.07 228.387 246.956 228.387C247.844 228.387 248.407 229.182 248.216 230.161Z" fill="#263238"/>
<path d="M252.988 230.161C252.797 231.14 251.923 231.935 251.037 231.935C250.15 231.935 249.586 231.141 249.777 230.161C249.968 229.182 250.842 228.387 251.728 228.387C252.615 228.387 253.179 229.182 252.988 230.161Z" fill="#263238"/>
<path opacity="0.3" d="M258.377 233.983C257.964 233.983 257.586 233.809 257.337 233.508C257.086 233.201 256.988 232.787 257.072 232.37L257.997 227.722C258.151 226.946 258.883 226.338 259.664 226.338H264.312C264.725 226.338 265.104 226.512 265.352 226.813C265.603 227.12 265.701 227.534 265.617 227.951L264.692 232.599C264.538 233.375 263.806 233.983 263.025 233.983H258.377Z" fill="white"/>
<path d="M258.378 233.395H263.026C263.529 233.395 264.018 232.987 264.118 232.484L265.042 227.836C265.141 227.332 264.815 226.925 264.311 226.925H259.663C259.16 226.925 258.671 227.332 258.572 227.836L257.647 232.484C257.548 232.987 257.874 233.395 258.378 233.395Z" fill="#263238"/>
<path d="M260.761 232.215C260.686 232.215 260.617 232.187 260.571 232.129C260.48 232.014 260.516 231.829 260.653 231.714L262.515 230.161L261.272 228.607C261.18 228.492 261.217 228.307 261.354 228.192C261.492 228.077 261.677 228.077 261.77 228.192L263.18 229.953C263.271 230.068 263.235 230.253 263.098 230.368L260.987 232.129C260.917 232.186 260.836 232.215 260.761 232.215Z" fill="#4F46E5"/>
<path d="M262.872 230.454H259.698C259.536 230.454 259.431 230.323 259.463 230.161C259.495 229.999 259.654 229.867 259.816 229.867H262.989C263.151 229.867 263.257 229.999 263.224 230.161C263.191 230.322 263.034 230.454 262.872 230.454Z" fill="#4F46E5"/>
<path d="M159.98 158.773H185.286C187.959 158.773 190.126 156.606 190.126 153.933V128.628C190.126 125.954 187.959 123.787 185.286 123.787H159.98C157.307 123.787 155.14 125.954 155.14 128.628V153.933C155.14 156.606 157.307 158.773 159.98 158.773Z" fill="#4F46E5"/>
<path d="M169.897 157.467L172.633 169.233L175.369 157.467H169.897Z" fill="#4F46E5"/>
<path opacity="0.3" d="M172.328 151.775C162.02 145.478 162.209 134.807 162.213 134.7L162.224 134.325L172.634 129.892L183.044 134.325L183.056 134.7C183.059 134.807 183.248 145.478 172.941 151.775L172.634 151.962L172.328 151.775Z" fill="white"/>
<path opacity="0.6" d="M172.634 130.529L182.468 134.718C182.468 134.718 182.77 145.082 172.634 151.275V130.529Z" fill="white"/>
<path opacity="0.4" d="M172.634 130.529L162.799 134.718C162.799 134.718 162.497 145.082 172.634 151.275V130.529Z" fill="white"/>
<path d="M163.183 263.163L171.388 264.392C171.388 264.392 174.175 263.472 177.116 263.163C180.057 262.853 183.464 263.163 183.464 263.163C183.464 263.163 187.179 264.557 187.179 268.117C187.179 268.117 178.509 270.44 175.181 269.046L163.183 268.117V263.163Z" fill="#E4897B"/>
<path opacity="0.2" d="M163.183 263.163L171.388 264.392C171.388 264.392 174.175 263.472 177.116 263.163C180.057 262.853 183.464 263.163 183.464 263.163C183.464 263.163 187.179 264.557 187.179 268.117C187.179 268.117 178.509 270.44 175.181 269.046L163.183 268.117V263.163Z" fill="black"/>
<path d="M183.546 207.662C183.546 207.662 183.758 210.614 184.53 212.636C184.53 212.636 183.196 213.534 181.66 212.605L183.546 207.662Z" fill="#AA473D"/>
<path d="M186.743 205.323C186.429 206.083 185.865 206.571 185.485 206.414C185.104 206.257 185.053 205.513 185.367 204.754C185.682 203.994 186.245 203.506 186.625 203.663C187.005 203.821 187.058 204.564 186.743 205.323Z" fill="#263238"/>
<path d="M188.678 202.267C188.678 202.267 186.254 200.794 184.097 201.894" stroke="#263238" stroke-width="0.7247" stroke-miterlimit="10" stroke-linecap="round" stroke-linejoin="round"/>
<path d="M181.249 214.052C180.985 214.382 180.713 214.699 180.425 214.991C178.717 216.761 176.569 217.883 174.329 218.338C173.742 218.461 173.144 218.537 172.548 218.569C169.398 218.729 166.254 217.603 164.051 215.17C163.144 214.187 162.388 212.968 161.867 211.533C159.773 205.899 161.908 201.454 164.912 193.654C165.534 191.964 166.534 190.44 167.853 189.221C172.462 184.906 179.699 185.154 184.005 189.76C190.088 196.175 185.995 207.952 181.249 214.052Z" fill="#E4897B"/>
<path opacity="0.2" d="M174.329 218.338C173.742 218.461 173.144 218.538 172.548 218.569C169.398 218.729 166.254 217.603 164.052 215.171C165.252 213.943 166.578 213.204 166.578 213.204C166.578 213.204 171.437 214.559 174.329 218.338Z" fill="black"/>
<path d="M149.021 218.63C149.79 224.131 161.81 226.184 161.81 226.184C161.81 226.184 167.742 228.886 167.985 226.531C165.531 223.691 165.259 221.215 166.105 219.042C166.6 217.777 167.478 216.622 168.524 215.551C169.066 214.983 169.666 214.449 170.274 213.936L166.608 198.882C163.965 204.603 154.938 217.815 149.021 218.63Z" fill="#E4897B"/>
<path d="M183.323 185.502C183.323 185.502 185.89 185.183 187.858 189.97C189.517 194.005 185.614 194.877 185.782 199.168C185.95 203.459 182.033 205.837 182.033 205.837C182.033 205.837 178.738 208.677 175.936 207.136C175.936 207.136 172.271 208.934 171.306 212.071C170.341 215.208 164.671 209.542 159.562 210.4C159.562 210.4 156.106 207.17 156.362 199.327C156.531 194.151 158.823 189.492 158.823 189.492C158.823 189.492 160.314 184.821 166.155 182.212C171.998 179.603 182.223 181.587 183.323 185.502Z" fill="#263238"/>
<path d="M175.235 204.826C174.941 206.686 175.302 208.313 176.239 209.35C177.49 210.707 179.494 208.985 180.304 206.598C181.009 204.477 181.249 201.149 179.421 200.776C177.592 200.403 175.62 202.537 175.235 204.826Z" fill="#E4897B"/>
<path d="M176.522 223.173C174.843 227.846 173.341 232.354 172.014 236.674C171.169 239.351 170.394 241.969 169.678 244.493C169.079 246.618 168.527 248.673 168.011 250.669C167.764 251.631 167.517 252.582 167.283 253.521C165.991 258.699 164.946 263.418 164.125 267.574C161.659 279.948 161.084 287.38 161.084 287.38L115.004 281.615C116.601 273.702 117.846 266.788 119.583 259.333C120.546 255.247 121.638 250.997 123.046 246.336C124.033 242.991 125.183 239.433 126.545 235.571C131.17 222.305 135.432 218.63 135.432 218.63C153.159 215.789 176.522 223.173 176.522 223.173Z" fill="#263238"/>
<path d="M191.844 264.018L200.049 265.247C200.049 265.247 202.836 264.326 205.777 264.018C208.719 263.708 212.124 264.018 212.124 264.018C212.124 264.018 215.84 265.411 215.84 268.972C215.84 268.972 207.17 271.294 203.842 269.901L191.844 268.972V264.018Z" fill="#E4897B"/>
<path d="M140.98 415.783L149.56 415.938L153.834 396.149L145.264 396.005L140.98 415.783Z" fill="#EBB376"/>
<path opacity="0.2" d="M145.264 396.005L153.834 396.16L151.389 407.47L142.895 406.902L145.264 396.005Z" fill="black"/>
<path d="M168.552 367.342C162.894 388.85 156.053 404.252 156.053 404.252L140.396 403.057C140.396 403.057 146.821 377.964 149.148 354.984C150.59 340.798 150.46 329.058 146.309 328.151C143.695 327.574 137.578 327.595 129.744 327.777V298.574C151.732 303.089 173.612 311.607 175.278 318.437C177.603 328.053 173.537 348.408 168.552 367.342Z" fill="#4F46E5"/>
<path d="M138.733 403.788L157.376 405.027L160.12 396.968L139.581 396.007L138.733 403.788Z" fill="#4F46E5"/>
<path opacity="0.2" d="M138.733 403.788L157.376 405.027L160.12 396.968L139.581 396.007L138.733 403.788Z" fill="white"/>
<path d="M150.847 415.511C150.847 415.52 151.024 415.524 151.026 415.533C151.036 415.565 151.218 415.593 151.242 415.614C151.257 415.633 151.258 415.66 151.279 415.674C151.303 415.681 151.328 415.677 151.352 415.668C152.078 415.896 152.827 416.045 153.586 416.111C154.152 416.212 154.733 416.098 155.218 415.791C155.525 415.516 155.645 415.088 155.529 414.693C155.499 414.435 155.333 414.209 155.098 414.096C154.547 413.844 153.559 414.161 152.722 414.534C153.25 413.877 153.642 413.106 153.566 412.575C153.513 412.226 153.188 411.96 152.838 411.926C152.529 411.869 152.128 411.95 151.885 412.15C150.991 412.921 150.847 415.346 150.847 415.496C150.847 415.498 150.847 415.501 150.847 415.503V415.505V415.511ZM151.768 415.014C151.703 415.051 151.647 415.081 151.592 415.112C151.625 414.3 151.778 412.945 152.317 412.489C152.434 412.379 152.593 412.323 152.753 412.334L152.851 412.347C153.134 412.398 153.2 412.542 153.209 412.659C153.258 413.241 152.496 414.386 151.768 415.014ZM151.892 415.439C152.925 414.87 154.393 414.242 154.939 414.496C155.056 414.55 155.134 414.661 155.146 414.789C155.212 415.039 155.14 415.306 154.959 415.49C154.53 415.859 153.403 415.836 151.892 415.439Z" fill="#4F46E5"/>
<path d="M150.641 414.464L141.036 413.865C140.702 413.829 140.402 414.07 140.365 414.405C140.365 414.409 140.364 414.412 140.364 414.414L139.421 421.993C139.37 422.821 139.994 423.536 140.822 423.599C144.177 423.754 145.787 423.66 150.016 423.89C152.61 424.045 157.724 424.596 161.305 424.25C164.885 423.904 164.446 420.374 162.9 420.205C159.234 419.788 154.377 417.092 152.083 415.048C151.68 414.7 151.173 414.493 150.641 414.464Z" fill="#263238"/>
<path opacity="0.2" d="M168.552 367.343C162.703 363.639 155.861 359.284 149.147 354.983C150.588 340.797 150.459 329.057 146.308 328.15C143.693 327.573 137.577 327.595 129.743 327.776V298.573C151.731 303.088 173.61 311.606 175.276 318.436C177.603 328.054 173.537 348.408 168.552 367.343Z" fill="black"/>
<path d="M191.144 415.783L199.724 415.938L203.998 396.149L195.428 396.005L191.144 415.783Z" fill="#EBB376"/>
<path opacity="0.2" d="M195.428 396.005L203.998 396.16L201.553 407.47L193.06 406.902L195.428 396.005Z" fill="black"/>
<path d="M159.985 295.704L161.365 284.617L116.55 277.239C116.55 277.239 101.894 306.278 109.068 320.509C115.648 333.565 185.692 325.788 196.474 328.145C207.365 330.526 190.56 403.052 190.56 403.052L206.218 404.247C206.218 404.247 230.412 338.973 225.437 318.441C223.267 309.482 186.344 297.621 159.985 295.704Z" fill="#4F46E5"/>
<path d="M188.897 403.788L207.541 405.027L210.284 396.968L189.745 396.007L188.897 403.788Z" fill="#4F46E5"/>
<path opacity="0.2" d="M188.897 403.788L207.541 405.027L210.284 396.968L189.745 396.007L188.897 403.788Z" fill="white"/>
<path d="M201.012 415.511C201.012 415.52 201.189 415.524 201.192 415.533C201.201 415.565 201.383 415.593 201.408 415.614C201.422 415.633 201.423 415.66 201.444 415.674C201.469 415.681 201.493 415.677 201.517 415.668C202.243 415.896 202.993 416.045 203.751 416.111C204.316 416.212 204.898 416.098 205.383 415.791C205.69 415.516 205.811 415.088 205.694 414.693C205.665 414.435 205.498 414.209 205.263 414.096C204.712 413.844 203.724 414.161 202.887 414.534C203.415 413.877 203.807 413.106 203.731 412.575C203.678 412.226 203.353 411.96 203.003 411.926C202.694 411.869 202.293 411.95 202.05 412.15C201.156 412.921 201.012 415.346 201.012 415.496C201.012 415.498 201.012 415.501 201.012 415.503V415.505V415.511ZM201.934 415.014C201.869 415.051 201.813 415.081 201.757 415.112C201.79 414.3 201.943 412.945 202.482 412.489C202.599 412.379 202.758 412.323 202.919 412.334L203.016 412.347C203.299 412.398 203.365 412.542 203.374 412.659C203.423 413.241 202.661 414.386 201.934 415.014ZM202.057 415.439C203.091 414.87 204.559 414.242 205.105 414.496C205.221 414.55 205.299 414.661 205.311 414.789C205.377 415.039 205.305 415.306 205.124 415.49C204.696 415.859 203.569 415.836 202.057 415.439Z" fill="#4F46E5"/>
<path d="M200.807 414.464L191.201 413.865C190.867 413.829 190.567 414.07 190.531 414.405C190.531 414.409 190.529 414.412 190.529 414.414L189.587 421.993C189.535 422.821 190.16 423.536 190.987 423.599C194.342 423.754 195.952 423.66 200.181 423.89C202.775 424.045 207.889 424.596 211.47 424.25C215.051 423.904 214.612 420.374 213.065 420.205C209.399 419.788 204.542 417.092 202.248 415.048C201.847 414.7 201.338 414.493 200.807 414.464Z" fill="#263238"/>
<path d="M114.907 282.287L135.671 285.008L136.343 281.947L115.542 278.921L114.907 282.287Z" fill="black"/>
<path d="M138.071 281.965L137.82 285.008L157.01 287.647V284.639L138.071 281.965Z" fill="black"/>
<path d="M158.2 284.806V287.647L160.985 288.019V285.272L158.2 284.806Z" fill="black"/>
<path opacity="0.2" d="M172.013 236.674C171.168 239.351 170.393 241.969 169.677 244.493C169.078 246.618 168.527 248.672 168.01 250.668C166.566 242.802 169.184 233.41 169.184 233.41L172.013 236.674Z" fill="black"/>
<path d="M176.518 223.167C180.267 223.925 181.504 253.031 181.659 256.127C181.814 259.223 200.048 265.248 200.048 265.248V269.491C200.048 269.491 180.508 268.124 175.947 266.257C171.386 264.391 170.271 237.394 170.271 237.394L176.518 223.167Z" fill="#E4897B"/>
<path d="M176.519 223.167C179.957 224.235 181.66 243.433 181.66 243.433L171.027 247.717L168.387 237.041C168.387 237.041 167.633 234.874 169.12 230.292C171.268 223.674 176.519 223.167 176.519 223.167Z" fill="#263238"/>
<path d="M191.288 333.077H87.8936V328.11C87.8936 322.98 92.052 318.821 97.1823 318.821H181.999C187.13 318.821 191.288 322.98 191.288 328.11V333.077Z" fill="#4F46E5"/>
<path d="M124.766 283.524H181.692C184.62 283.524 186.786 286.249 186.126 289.102L175.949 333.079H173.598L182.27 294.538C182.909 291.692 180.746 288.987 177.83 288.987H125.928L124.766 283.524Z" fill="#263238"/>
<path d="M146.31 334.617V371.774C146.31 372.972 145.336 373.934 144.15 373.934H135.04C133.842 373.934 132.88 372.972 132.88 371.774V334.617H146.31Z" fill="#263238"/>
<path d="M96.0221 420.414C96.0221 418.234 94.254 416.466 92.0739 416.466C89.8938 416.466 88.1258 418.233 88.1258 420.414C88.1258 422.594 89.8938 424.362 92.0739 424.362C94.254 424.361 96.0221 422.594 96.0221 420.414Z" fill="#263238"/>
<path opacity="0.2" d="M94.0479 420.414C94.0479 419.323 93.1639 418.44 92.0744 418.44C90.9849 418.44 90.1009 419.324 90.1009 420.414C90.1009 421.503 90.9849 422.387 92.0744 422.387C93.165 422.387 94.0479 421.503 94.0479 420.414Z" fill="white"/>
<path d="M191.054 420.414C191.054 418.234 189.286 416.466 187.106 416.466C184.926 416.466 183.158 418.233 183.158 420.414C183.158 422.594 184.925 424.362 187.106 424.362C189.287 424.362 191.054 422.594 191.054 420.414Z" fill="#263238"/>
<path opacity="0.2" d="M189.081 420.414C189.081 419.323 188.197 418.44 187.108 418.44C186.017 418.44 185.134 419.324 185.134 420.414C185.134 421.503 186.018 422.387 187.108 422.387C188.197 422.387 189.081 421.503 189.081 420.414Z" fill="white"/>
<path d="M142.858 403.092V360.621H136.325V403.092C110.891 403.743 95.4362 412.635 92.3427 414.584C91.9823 414.812 91.7663 415.21 91.7663 415.636V419.165C91.7663 419.854 92.3251 420.413 93.0142 420.413C93.4627 420.413 93.8771 420.172 94.099 419.782L95.6076 417.136C95.6076 417.136 113.103 410.899 136.324 410.394V417.375C136.324 418.267 137.047 418.99 137.94 418.99H141.241C142.133 418.99 142.856 418.267 142.856 417.375V410.394C166.078 410.898 183.573 417.136 183.573 417.136L185.082 419.782C185.304 420.172 185.718 420.413 186.166 420.413C186.856 420.413 187.416 419.854 187.416 419.165V415.636C187.416 415.21 187.201 414.812 186.839 414.584C183.747 412.635 168.292 403.743 142.858 403.092Z" fill="#263238"/>
<path d="M141.733 416.466H137.448V424.361H141.733V416.466Z" fill="#263238"/>
<path opacity="0.2" d="M146.31 334.617H132.88V350.055H146.31V334.617Z" fill="black"/>
<path d="M194.114 330.79V335.228C194.114 336.484 193.093 337.494 191.837 337.494H87.3392C86.083 337.494 85.0733 336.484 85.0733 335.228V330.79C85.0733 329.546 86.083 328.524 87.3392 328.524H191.837C193.093 328.524 194.114 329.546 194.114 330.79Z" fill="#263238"/>
<path d="M146.04 333.079H85.0742C85.0742 333.079 65.7032 300.864 65.7032 247.635V228.088C65.7032 220.058 72.2189 213.542 80.2608 213.542H106.112C113.99 213.542 120.435 219.799 120.658 227.677C121.409 255.102 125.448 314.494 146.04 333.079Z" fill="#263238"/>
<path opacity="0.2" d="M132.628 333.079H87.8295C86.0979 333.079 84.5083 332.124 83.7112 330.586C79.3016 322.082 65.702 292.235 65.702 247.635V228.088C65.702 220.054 72.2142 213.542 80.2479 213.542H102.589C110.467 213.542 116.912 219.799 117.135 227.677C117.806 252.178 121.101 302.195 136.48 325.833C138.511 328.953 136.352 333.079 132.628 333.079Z" fill="white"/>
<path opacity="0.2" d="M194.115 330.789V335.227C194.115 336.479 193.1 337.493 191.849 337.493H145.018C143.326 337.493 141.954 336.122 141.954 334.429V331.587C141.954 329.895 143.325 328.522 145.018 328.522H191.837C193.093 328.524 194.115 329.545 194.115 330.789Z" fill="black"/>
<path d="M85.0565 211.815L88.9272 206.74C88.9272 206.74 105.478 207.493 105.872 213.541C106.266 219.591 85.0565 211.815 85.0565 211.815Z" fill="#4F46E5"/>
<path d="M74.183 226.992C74.183 226.992 75.1927 253.87 74.183 323.267C74.149 325.607 65.4227 325.53 64.8204 323.267C62.7166 315.372 64.8204 252.275 64.8204 252.275" fill="#4F46E5"/>
<path d="M64.9916 323.616L73.9034 323.919V328.369L64.9916 327.912V323.616Z" fill="#4F46E5"/>
<path opacity="0.2" d="M74.183 226.992C74.183 226.992 75.1927 253.87 74.183 323.267C74.149 325.607 65.4227 325.53 64.8204 323.267C62.7166 315.372 64.8204 252.275 64.8204 252.275" fill="white"/>
<path d="M60.5909 309.072C60.1119 296.281 58.358 237.469 65.7014 217.976C65.7014 217.976 72.6197 209.192 96.0211 209.192C119.422 209.192 126.463 225.801 126.463 225.801C126.463 225.801 127.473 252.679 126.463 322.076C126.429 324.416 117.703 324.338 117.1 322.076C114.996 314.181 117.1 251.084 117.1 251.084L112.416 308.485C112.349 309.299 111.606 309.888 110.798 309.763C103.417 308.627 70.8529 304.023 62.278 309.895C61.5759 310.378 60.6226 309.925 60.5909 309.072Z" fill="#4F46E5"/>
<path d="M117.275 322.425L126.185 322.729V327.178L117.275 326.722V322.425Z" fill="#4F46E5"/>
<path d="M111.234 309.832L110.53 314.518C110.53 314.518 74.2192 306.596 62.4534 315.034L61.7572 309.833C61.7572 309.833 70.8416 301.456 111.234 309.832Z" fill="#4F46E5"/>
<path opacity="0.4" d="M60.5909 309.072C60.1119 296.281 58.358 237.469 65.7014 217.976C65.7014 217.976 72.6197 209.192 96.0211 209.192C119.422 209.192 126.463 225.801 126.463 225.801C126.463 225.801 127.473 252.679 126.463 322.076C126.429 324.416 117.703 324.338 117.1 322.076C114.996 314.181 117.1 251.084 117.1 251.084L112.416 308.485C112.349 309.299 111.606 309.888 110.798 309.763C103.417 308.627 70.8529 304.023 62.278 309.895C61.5759 310.378 60.6226 309.925 60.5909 309.072Z" fill="white"/>
<path opacity="0.2" d="M117.102 251.086C117.102 251.086 117.618 232.862 126.465 225.803C126.465 225.803 115.4 230.563 117.102 251.086Z" fill="black"/>
<path opacity="0.2" d="M90.4735 211.293C90.4735 211.293 79.7913 217.112 78.089 297.151C78.089 297.151 73.4435 216.464 90.4735 211.293Z" fill="black"/>
</svg>
