<svg width="1440" height="4353" viewBox="0 0 1440 4353" fill="none" xmlns="http://www.w3.org/2000/svg">
<g opacity="0.04">
<path d="M204.047 2951.38C-172.382 3310.83 -570.677 3578.92 -910.302 3721.8C-1080.12 3793.24 -1235.21 3833.36 -1365.55 3837.97C-1495.88 3842.58 -1601.33 3811.69 -1672.05 3741.25C-1742.76 3670.82 -1772.21 3567.34 -1764.73 3440.36C-1757.26 3313.38 -1712.87 3163 -1636.05 2998.93C-1482.42 2670.79 -1199.2 2288.08 -822.772 1928.62C-446.343 1569.16 -48.0468 1301.07 291.578 1158.19C461.394 1086.75 616.49 1046.64 746.822 1042.03C877.153 1037.42 982.606 1068.31 1053.32 1138.74C1124.04 1209.18 1153.48 1312.65 1146.01 1439.64C1138.54 1566.62 1094.14 1717 1017.33 1881.07C863.7 2209.21 580.476 2591.92 204.047 2951.38Z" stroke="url(#paint0_linear_9335_53332)" stroke-width="2"/>
<path d="M194.094 2960.73C-188.237 3314.2 -590.76 3575.82 -932.448 3713.08C-1103.3 3781.71 -1258.88 3819.23 -1389.1 3821.62C-1519.32 3824.02 -1624.06 3791.29 -1693.41 3719.57C-1762.75 3647.84 -1790.29 3543.75 -1780.55 3416.74C-1770.8 3289.74 -1723.77 3139.93 -1644.12 2976.98C-1484.83 2651.07 -1195.14 2272.74 -812.812 1919.27C-430.481 1565.8 -27.958 1304.18 313.73 1166.92C484.578 1098.29 640.165 1060.77 770.385 1058.37C900.605 1055.98 1005.35 1088.7 1074.69 1160.43C1144.04 1232.15 1171.58 1336.25 1161.83 1463.25C1152.08 1590.26 1105.06 1740.06 1025.41 1903.02C866.107 2228.93 576.425 2607.26 194.094 2960.73Z" stroke="url(#paint1_linear_9335_53332)" stroke-width="2"/>
<path d="M183.984 2969.94C-204.132 3317.31 -610.759 3572.38 -954.406 3703.97C-1126.23 3769.77 -1282.26 3804.69 -1412.33 3804.87C-1542.4 3805.04 -1646.4 3770.5 -1714.35 3697.5C-1782.3 3624.51 -1807.93 3519.82 -1795.92 3392.84C-1783.9 3265.85 -1734.25 3116.67 -1651.79 2954.88C-1486.87 2631.3 -1190.82 2257.45 -802.701 1910.08C-414.585 1562.71 -7.95792 1307.64 335.689 1176.04C507.516 1110.24 663.547 1075.33 793.616 1075.15C923.686 1074.98 1027.68 1109.52 1095.63 1182.51C1163.59 1255.51 1189.22 1360.2 1177.2 1487.18C1165.19 1614.17 1115.53 1763.35 1033.07 1925.14C868.153 2248.72 572.1 2622.57 183.984 2969.94Z" stroke="url(#paint2_linear_9335_53332)" stroke-width="2"/>
<path d="M173.723 2978.96C-220.061 3320.13 -630.668 3568.57 -976.17 3694.46C-1148.92 3757.41 -1305.35 3789.71 -1435.23 3787.67C-1565.11 3785.63 -1668.33 3749.27 -1734.87 3675.04C-1801.41 3600.8 -1825.11 3495.55 -1810.84 3368.62C-1796.56 3241.68 -1744.3 3093.17 -1659.05 2932.59C-1488.56 2611.44 -1186.23 2242.2 -792.442 1901.04C-398.658 1559.87 11.9487 1311.43 357.45 1185.53C530.205 1122.58 686.63 1090.29 816.51 1092.33C946.389 1094.36 1049.61 1130.73 1116.15 1204.96C1182.69 1279.2 1206.4 1384.45 1192.12 1511.38C1177.84 1638.31 1125.58 1786.82 1040.33 1947.4C869.839 2268.55 567.506 2637.79 173.723 2978.96Z" stroke="url(#paint3_linear_9335_53332)" stroke-width="2"/>
<path d="M163.314 2987.83C-236.017 3322.69 -650.48 3564.42 -997.731 3684.58C-1171.36 3744.66 -1328.13 3774.33 -1457.78 3770.07C-1587.43 3765.82 -1689.85 3727.65 -1754.95 3652.2C-1820.06 3576.74 -1841.84 3470.96 -1825.3 3344.12C-1808.76 3217.28 -1753.91 3069.49 -1665.9 2910.17C-1489.89 2591.55 -1181.37 2227.02 -782.037 1892.16C-382.706 1557.3 31.7563 1315.57 379.007 1195.41C552.636 1135.33 709.41 1105.66 839.06 1109.92C968.709 1114.17 1071.12 1152.33 1136.23 1227.79C1201.33 1303.25 1223.11 1409.03 1206.57 1535.87C1190.03 1662.71 1135.18 1810.5 1047.18 1969.82C871.165 2288.44 562.644 2652.97 163.314 2987.83Z" stroke="url(#paint4_linear_9335_53332)" stroke-width="2"/>
<path d="M152.76 2996.54C-251.996 3324.99 -670.187 3559.95 -1019.08 3674.33C-1193.53 3731.52 -1350.61 3758.55 -1479.99 3752.08C-1609.37 3745.61 -1710.94 3705.66 -1774.59 3629C-1838.24 3552.35 -1858.09 3446.07 -1839.3 3319.37C-1820.5 3192.66 -1763.07 3045.62 -1672.33 2887.62C-1490.86 2571.61 -1176.24 2211.92 -771.487 1883.47C-366.731 1555.02 51.4604 1320.06 400.355 1205.68C574.806 1148.49 731.879 1121.46 861.26 1127.92C990.64 1134.39 1092.21 1174.35 1155.87 1251C1219.52 1327.66 1239.37 1433.93 1220.57 1560.64C1201.77 1687.35 1144.35 1834.39 1053.61 1992.39C872.131 2308.39 557.517 2668.09 152.76 2996.54Z" stroke="url(#paint5_linear_9335_53332)" stroke-width="2"/>
<path d="M142.071 3005.08C-267.988 3327.02 -689.781 3555.13 -1040.21 3663.7C-1215.43 3717.99 -1372.76 3742.37 -1501.83 3733.69C-1630.9 3725.01 -1731.61 3683.28 -1793.79 3605.45C-1855.96 3527.62 -1873.87 3420.88 -1852.83 3294.34C-1831.78 3167.8 -1771.8 3021.57 -1678.35 2864.93C-1491.46 2551.64 -1170.85 2196.88 -760.793 1874.94C-350.735 1553 71.0584 1324.89 421.49 1216.32C596.71 1162.03 754.035 1137.65 883.107 1146.33C1012.18 1155.01 1112.88 1196.74 1175.06 1274.58C1237.24 1352.41 1255.15 1459.14 1234.1 1585.68C1213.06 1712.22 1153.07 1858.45 1059.63 2015.1C872.741 2328.38 552.129 2683.14 142.071 3005.08Z" stroke="url(#paint6_linear_9335_53332)" stroke-width="2"/>
<path d="M131.238 3013.42C-283.997 3328.75 -709.264 3549.94 -1061.13 3652.67C-1237.06 3704.03 -1394.59 3725.77 -1523.31 3714.88C-1652.04 3703.98 -1751.84 3660.49 -1812.53 3581.5C-1873.22 3502.52 -1889.18 3395.35 -1865.89 3269.02C-1842.6 3142.69 -1780.08 2997.31 -1683.96 2842.07C-1491.72 2531.6 -1165.2 2181.89 -749.967 1866.56C-334.731 1551.22 90.5357 1330.03 442.398 1227.31C618.333 1175.94 775.863 1154.21 904.587 1165.1C1033.31 1175.99 1133.11 1219.49 1193.8 1298.47C1254.49 1377.46 1270.45 1484.62 1247.16 1610.95C1223.87 1737.28 1161.35 1882.66 1065.23 2037.9C872.987 2348.37 546.474 2698.09 131.238 3013.42Z" stroke="url(#paint7_linear_9335_53332)" stroke-width="2"/>
<path d="M120.276 3021.63C-300.011 3330.26 -728.621 3544.46 -1081.81 3641.31C-1258.4 3689.74 -1416.09 3708.81 -1544.43 3695.71C-1672.76 3682.61 -1771.64 3637.36 -1830.81 3557.25C-1889.99 3477.14 -1904 3369.57 -1878.48 3243.49C-1852.95 3117.41 -1787.91 2972.92 -1689.14 2819.14C-1491.6 2511.58 -1159.29 2167.02 -739.002 1858.39C-318.715 1549.76 109.895 1335.55 463.08 1238.7C639.676 1190.28 797.363 1171.2 925.699 1184.3C1054.04 1197.4 1152.91 1242.65 1212.09 1322.76C1271.26 1402.87 1285.28 1510.44 1259.75 1636.52C1234.23 1762.6 1169.18 1907.09 1070.41 2060.87C872.876 2368.43 540.562 2713 120.276 3021.63Z" stroke="url(#paint8_linear_9335_53332)" stroke-width="2"/>
<path d="M109.187 3029.63C-316.023 3331.46 -747.846 3538.62 -1102.25 3629.56C-1279.45 3675.04 -1437.25 3691.45 -1565.16 3676.15C-1693.07 3660.85 -1790.98 3613.86 -1848.63 3532.64C-1906.28 3451.43 -1918.33 3343.49 -1890.58 3217.7C-1862.83 3091.9 -1795.28 2948.35 -1693.9 2796.07C-1491.12 2491.51 -1153.11 2152.2 -727.902 1850.37C-302.693 1548.54 129.13 1341.39 483.532 1250.44C660.736 1204.97 818.53 1188.56 946.441 1203.86C1074.35 1219.16 1172.26 1266.15 1229.91 1347.36C1287.56 1428.58 1299.62 1536.51 1271.87 1662.31C1244.11 1788.11 1176.57 1931.65 1075.18 2083.94C872.409 2388.49 534.396 2727.8 109.187 3029.63Z" stroke="url(#paint9_linear_9335_53332)" stroke-width="2"/>
<path d="M97.9572 3037.47C-332.046 3332.41 -766.95 3532.45 -1122.46 3617.46C-1300.22 3659.97 -1458.07 3673.71 -1585.52 3656.21C-1712.96 3638.71 -1809.88 3589.99 -1865.99 3507.7C-1922.09 3425.41 -1932.19 3317.14 -1902.22 3191.67C-1872.24 3066.2 -1802.22 2923.63 -1698.24 2772.9C-1490.3 2471.43 -1146.69 2137.49 -716.688 1842.54C-286.685 1547.6 148.219 1347.56 503.728 1262.55C681.486 1220.04 839.341 1206.3 966.786 1223.8C1094.23 1241.3 1191.15 1290.02 1247.26 1372.31C1303.36 1454.6 1313.46 1562.87 1283.49 1688.34C1253.51 1813.81 1183.49 1956.38 1079.51 2107.11C871.57 2408.58 527.96 2742.52 97.9572 3037.47Z" stroke="url(#paint10_linear_9335_53332)" stroke-width="2"/>
<path d="M86.6148 3045.11C-348.05 3333.07 -785.904 3525.93 -1142.41 3604.99C-1320.67 3644.52 -1478.54 3655.58 -1605.48 3635.89C-1732.42 3616.2 -1828.32 3565.77 -1882.86 3482.43C-1937.4 3399.08 -1945.54 3290.52 -1913.36 3165.41C-1881.17 3040.29 -1808.69 2898.75 -1702.16 2749.61C-1489.1 2451.34 -1140 2122.85 -705.338 1834.89C-270.673 1546.93 167.18 1354.06 523.689 1275.01C701.946 1235.48 859.813 1224.41 986.754 1244.11C1113.69 1263.8 1209.6 1314.22 1264.14 1397.57C1318.68 1480.91 1326.82 1589.48 1294.63 1714.59C1262.45 1839.7 1189.96 1981.24 1083.44 2130.38C870.382 2428.66 521.28 2757.15 86.6148 3045.11Z" stroke="url(#paint11_linear_9335_53332)" stroke-width="2"/>
<path d="M75.1461 3052.59C-364.049 3333.48 -804.718 3519.11 -1162.12 3592.18C-1340.82 3628.72 -1498.65 3637.11 -1625.05 3615.23C-1751.45 3593.35 -1846.3 3541.23 -1899.26 3456.86C-1952.22 3372.48 -1958.4 3263.65 -1924.01 3138.94C-1889.63 3014.23 -1814.71 2873.76 -1705.65 2726.25C-1487.56 2431.26 -1133.07 2108.33 -693.873 1827.44C-254.678 1546.54 185.991 1360.91 543.389 1287.84C722.092 1251.3 879.924 1242.92 1006.32 1264.79C1132.72 1286.67 1227.57 1338.79 1280.53 1423.16C1333.5 1507.54 1339.67 1616.37 1305.28 1741.08C1270.9 1865.79 1195.98 2006.27 1086.93 2153.77C868.829 2448.76 514.341 2771.69 75.1461 3052.59Z" stroke="url(#paint12_linear_9335_53332)" stroke-width="2"/>
<path d="M63.5648 3059.85C-380.026 3333.59 -823.376 3511.93 -1181.56 3578.99C-1360.65 3612.53 -1518.4 3618.24 -1644.21 3594.18C-1770.03 3570.12 -1863.81 3516.32 -1915.17 3430.95C-1966.54 3345.57 -1970.75 3236.5 -1934.17 3112.23C-1897.6 2987.96 -1820.26 2848.6 -1708.72 2702.78C-1485.64 2411.15 -1125.88 2093.88 -682.287 1820.14C-238.696 1546.4 204.654 1368.06 562.835 1300.99C741.928 1267.46 899.676 1261.75 1025.49 1285.81C1151.31 1309.87 1245.09 1363.66 1296.45 1449.04C1347.82 1534.42 1352.03 1643.49 1315.45 1767.76C1278.87 1892.03 1201.54 2031.39 1090 2177.21C866.921 2468.84 507.156 2786.11 63.5648 3059.85Z" stroke="url(#paint13_linear_9335_53332)" stroke-width="2"/>
<path d="M51.8584 3066.93C-395.993 3333.44 -841.89 3504.43 -1200.74 3565.48C-1380.17 3596 -1537.79 3599.02 -1662.99 3572.79C-1788.18 3546.56 -1880.85 3491.1 -1930.61 3404.75C-1980.36 3318.4 -1982.6 3209.13 -1943.85 3085.33C-1905.09 2961.54 -1825.37 2823.33 -1711.37 2679.24C-1483.38 2391.07 -1118.45 2079.56 -670.599 1813.05C-222.747 1546.55 223.149 1375.55 582.003 1314.51C761.433 1283.99 919.048 1280.96 1044.24 1307.19C1169.44 1333.42 1262.11 1388.88 1311.87 1475.24C1361.62 1561.59 1363.86 1670.86 1325.11 1794.65C1286.35 1918.45 1206.63 2056.66 1092.63 2200.75C864.643 2488.92 499.71 2800.43 51.8584 3066.93Z" stroke="url(#paint14_linear_9335_53332)" stroke-width="2"/>
<path d="M40.0664 3073.84C-411.91 3333.03 -860.217 3496.63 -1219.63 3551.63C-1399.35 3579.13 -1556.78 3579.47 -1681.32 3551.07C-1805.86 3522.68 -1897.39 3465.57 -1945.52 3378.27C-1993.65 3290.97 -1993.93 3181.53 -1953 3058.25C-1912.08 2934.97 -1829.99 2797.95 -1713.57 2655.64C-1480.74 2371.01 -1110.75 2065.35 -658.777 1806.16C-206.8 1546.97 241.506 1383.38 600.923 1328.38C780.635 1300.88 938.07 1300.54 1062.61 1328.93C1187.15 1357.33 1278.68 1414.43 1326.81 1501.73C1374.94 1589.04 1375.21 1698.48 1334.29 1821.76C1293.37 1945.04 1211.28 2082.05 1094.86 2224.37C862.033 2508.99 492.043 2814.65 40.0664 3073.84Z" stroke="url(#paint15_linear_9335_53332)" stroke-width="2"/>
<path d="M28.1438 3080.55C-427.819 3332.34 -878.4 3488.49 -1238.27 3537.43C-1418.21 3561.9 -1575.42 3559.55 -1699.26 3529C-1823.1 3498.45 -1913.48 3439.72 -1959.96 3351.49C-2006.45 3263.27 -2004.76 3153.69 -1961.68 3030.97C-1918.6 2908.24 -1834.17 2772.46 -1715.37 2631.96C-1477.77 2350.96 -1102.83 2051.25 -646.872 1799.46C-190.909 1547.66 259.672 1391.51 619.543 1342.58C799.482 1318.11 956.689 1320.45 1080.53 1351C1204.38 1381.55 1294.75 1440.28 1341.24 1528.51C1387.72 1616.74 1386.03 1726.31 1342.95 1849.04C1299.87 1971.77 1215.44 2107.54 1096.64 2248.04C859.041 2529.04 484.107 2828.76 28.1438 3080.55Z" stroke="url(#paint16_linear_9335_53332)" stroke-width="2"/>
<path d="M16.1296 3087.05C-443.681 3331.37 -896.399 3480.02 -1256.61 3522.88C-1436.72 3544.32 -1593.66 3539.29 -1716.77 3506.6C-1839.87 3473.9 -1929.06 3413.56 -1973.89 3324.43C-2018.72 3235.31 -2015.06 3125.63 -1969.84 3003.5C-1924.62 2881.35 -1837.88 2746.86 -1716.72 2608.21C-1474.43 2330.94 -1094.66 2037.26 -634.853 1792.94C-175.042 1548.62 277.675 1399.96 637.891 1357.1C818.002 1335.67 974.932 1340.69 1098.04 1373.39C1221.15 1406.09 1310.34 1466.43 1355.17 1555.55C1400 1644.68 1396.34 1754.35 1351.12 1876.49C1305.9 1998.63 1219.15 2133.13 1098 2271.77C855.705 2549.05 475.941 2842.73 16.1296 3087.05Z" stroke="url(#paint17_linear_9335_53332)" stroke-width="2"/>
<path d="M4.01691 3093.38C-459.502 3330.15 -914.218 3471.26 -1274.67 3508.04C-1454.9 3526.43 -1611.5 3518.72 -1733.84 3483.89C-1856.18 3449.05 -1944.15 3387.12 -1987.31 3297.13C-2030.47 3207.13 -2024.85 3097.39 -1977.5 2975.88C-1930.15 2854.37 -1841.11 2721.19 -1717.65 2584.44C-1470.73 2310.97 -1086.25 2023.41 -622.734 1786.64C-159.215 1549.87 295.501 1408.76 655.95 1371.98C836.178 1353.59 992.785 1361.3 1115.12 1396.13C1237.46 1430.97 1325.43 1492.9 1368.59 1582.89C1411.76 1672.89 1406.13 1782.63 1358.78 1904.14C1311.43 2025.66 1222.4 2158.84 1098.93 2295.58C852.014 2569.05 467.536 2856.61 4.01691 3093.38Z" stroke="url(#paint18_linear_9335_53332)" stroke-width="2"/>
<path d="M-8.19437 3099.48C-475.28 3328.63 -931.856 3462.16 -1292.43 3492.84C-1472.72 3508.18 -1628.96 3497.8 -1750.49 3460.83C-1872.02 3423.87 -1958.74 3360.37 -2000.22 3269.53C-2041.7 3178.69 -2034.11 3068.92 -1984.65 2948.07C-1935.19 2827.22 -1843.89 2695.4 -1718.15 2560.6C-1466.68 2291.01 -1077.61 2009.67 -610.523 1780.52C-143.438 1551.36 313.138 1417.83 673.712 1387.16C854.003 1371.82 1010.24 1382.2 1131.77 1419.16C1253.3 1456.12 1340.02 1519.63 1381.5 1610.47C1422.99 1701.3 1415.4 1811.08 1365.93 1931.93C1316.47 2052.78 1225.17 2184.6 1099.44 2319.4C847.967 2588.99 458.891 2870.33 -8.19437 3099.48Z" stroke="url(#paint19_linear_9335_53332)" stroke-width="2"/>
<path d="M-20.4959 3105.41C-491.006 3326.87 -949.303 3452.77 -1309.89 3477.34C-1490.19 3489.62 -1646.01 3476.57 -1766.69 3437.49C-1887.38 3398.42 -1972.83 3333.36 -2012.62 3241.71C-2052.41 3150.05 -2042.85 3040.28 -1991.29 2920.13C-1939.73 2799.98 -1846.2 2669.56 -1718.22 2536.74C-1462.28 2271.12 -1068.73 1996.07 -598.219 1774.61C-127.71 1553.15 330.588 1427.24 691.177 1402.68C871.475 1390.39 1027.29 1403.45 1147.98 1442.53C1268.66 1481.6 1354.11 1546.66 1393.9 1638.31C1433.69 1729.96 1424.14 1839.74 1372.57 1959.89C1321.01 2080.04 1227.48 2210.46 1099.51 2343.27C843.568 2608.9 450.014 2883.94 -20.4959 3105.41Z" stroke="url(#paint20_linear_9335_53332)" stroke-width="2"/>
<path d="M-32.8816 3111.12C-506.672 3324.82 -966.551 3443.07 -1327.04 3461.52C-1507.3 3470.74 -1662.65 3455.02 -1782.45 3413.84C-1902.25 3372.66 -1986.41 3306.07 -2024.49 3213.63C-2062.57 3121.19 -2051.06 3011.44 -1997.41 2892.03C-1943.77 2772.62 -1848.03 2643.64 -1717.86 2512.85C-1457.53 2251.27 -1059.61 1982.61 -585.823 1768.9C-112.033 1555.2 347.846 1436.95 708.34 1418.5C888.59 1409.28 1043.94 1425 1163.74 1466.18C1283.55 1507.36 1367.7 1573.95 1405.78 1666.39C1443.87 1758.83 1432.35 1868.58 1378.71 1987.99C1325.06 2107.4 1229.33 2236.38 1099.16 2367.17C838.822 2628.75 440.909 2897.41 -32.8816 3111.12Z" stroke="url(#paint21_linear_9335_53332)" stroke-width="2"/>
<path d="M-45.3707 3116.61C-522.298 3322.49 -983.618 3433.04 -1343.91 3445.37C-1524.06 3451.53 -1678.89 3433.14 -1797.78 3389.87C-1916.66 3346.6 -1999.49 3278.49 -2035.86 3185.29C-2072.22 3092.1 -2058.75 2982.42 -2003.04 2863.78C-1947.33 2745.14 -1849.42 2617.64 -1717.09 2488.91C-1452.44 2231.46 -1050.29 1969.26 -573.362 1763.38C-96.435 1557.5 364.885 1446.95 725.174 1434.62C905.322 1428.46 1060.16 1446.85 1179.04 1490.12C1297.93 1533.39 1380.76 1601.5 1417.12 1694.69C1453.49 1787.89 1440.02 1897.57 1384.31 2016.21C1328.6 2134.85 1230.68 2262.35 1098.36 2391.08C833.707 2648.53 431.557 2910.73 -45.3707 3116.61Z" stroke="url(#paint22_linear_9335_53332)" stroke-width="2"/>
<path d="M-57.9227 3121.92C-537.841 3319.92 -1000.46 3422.73 -1360.44 3428.94C-1540.43 3432.04 -1694.7 3410.98 -1812.63 3365.64C-1930.56 3320.29 -2012.05 3250.69 -2046.68 3156.76C-2081.32 3062.83 -2065.9 2953.26 -2008.14 2835.43C-1950.37 2717.59 -1850.32 2591.61 -1715.87 2464.99C-1446.99 2211.74 -1040.72 1956.09 -560.803 1758.09C-80.8847 1560.09 381.736 1457.28 741.711 1451.08C921.702 1447.97 1075.98 1469.03 1193.91 1514.38C1311.84 1559.72 1393.32 1629.32 1427.96 1723.25C1462.59 1817.18 1447.17 1926.76 1389.41 2044.59C1331.65 2162.42 1231.59 2288.4 1097.15 2415.02C828.261 2668.27 421.996 2923.92 -57.9227 3121.92Z" stroke="url(#paint23_linear_9335_53332)" stroke-width="2"/>
<path d="M-70.5526 3127C-553.316 3317.05 -1017.1 3412.11 -1376.65 3412.18C-1556.43 3412.22 -1710.09 3388.51 -1827.03 3341.1C-1943.97 3293.69 -2024.09 3222.62 -2056.98 3127.99C-2089.88 3033.36 -2072.51 2923.91 -2012.71 2806.93C-1952.92 2689.94 -1850.75 2565.52 -1714.23 2441.03C-1441.19 2192.07 -1030.93 1943.04 -548.169 1752.99C-65.4054 1562.94 398.375 1467.88 757.926 1467.81C937.704 1467.77 1091.37 1491.48 1208.31 1538.89C1325.25 1586.3 1405.36 1657.37 1438.26 1752C1471.15 1846.63 1453.79 1956.08 1393.99 2073.06C1334.2 2190.05 1232.02 2314.47 1095.5 2438.96C822.467 2687.92 412.211 2936.95 -70.5526 3127Z" stroke="url(#paint24_linear_9335_53332)" stroke-width="2"/>
<path d="M-83.2609 3131.89C-568.723 3313.94 -1033.52 3401.2 -1392.54 3395.15C-1572.05 3392.12 -1725.06 3365.76 -1840.98 3316.3C-1956.89 3266.85 -2035.61 3194.33 -2066.75 3099.02C-2097.9 3003.72 -2078.59 2894.44 -2016.78 2778.34C-1954.97 2662.23 -1850.71 2539.4 -1712.16 2417.09C-1435.05 2172.49 -1020.93 1930.16 -535.468 1748.11C-50.0059 1566.06 414.793 1478.8 773.81 1484.85C953.322 1487.88 1106.33 1514.23 1222.25 1563.69C1338.16 1613.15 1416.88 1685.67 1448.02 1780.97C1479.17 1876.28 1459.86 1985.56 1398.05 2101.66C1336.24 2217.77 1231.98 2340.6 1093.43 2462.9C816.323 2707.5 402.201 2949.84 -83.2609 3131.89Z" stroke="url(#paint25_linear_9335_53332)" stroke-width="2"/>
<path d="M-96.0363 3136.56C-584.048 3310.55 -1049.72 3389.99 -1408.1 3377.81C-1587.29 3371.72 -1739.6 3342.73 -1854.45 3291.24C-1969.3 3239.74 -2046.6 3165.8 -2075.99 3069.85C-2105.37 2973.9 -2084.12 2864.82 -2020.32 2749.63C-1956.52 2634.44 -1850.21 2513.24 -1709.66 2393.15C-1428.57 2152.99 -1010.71 1917.42 -522.696 1743.43C-34.6837 1569.44 430.992 1490 789.366 1502.18C968.556 1508.27 1120.87 1537.26 1235.72 1588.75C1350.57 1640.25 1427.87 1714.19 1457.25 1810.14C1486.64 1906.09 1465.39 2015.17 1401.59 2130.36C1337.79 2245.55 1231.48 2366.75 1090.93 2486.84C809.838 2727 391.976 2962.57 -96.0363 3136.56Z" stroke="url(#paint26_linear_9335_53332)" stroke-width="2"/>
<path d="M-108.875 3141.02C-599.289 3306.9 -1065.7 3378.51 -1423.32 3360.2C-1602.13 3351.05 -1753.7 3319.43 -1867.45 3265.92C-1981.21 3212.4 -2057.06 3137.05 -2084.68 3040.49C-2112.3 2943.93 -2089.12 2835.08 -2023.34 2720.84C-1957.56 2606.6 -1849.23 2487.07 -1706.73 2369.24C-1421.75 2133.58 -1000.27 1904.86 -509.857 1738.98C-19.4434 1573.1 446.968 1501.5 804.589 1519.8C983.403 1528.95 1134.97 1560.57 1248.72 1614.09C1362.47 1667.6 1438.33 1742.95 1465.95 1839.51C1493.56 1936.08 1470.39 2044.92 1404.61 2159.16C1338.83 2273.4 1230.5 2392.93 1088 2510.76C803.014 2746.42 381.539 2975.14 -108.875 3141.02Z" stroke="url(#paint27_linear_9335_53332)" stroke-width="2"/>
<path d="M-121.767 3145.27C-614.433 3302.99 -1081.44 3366.73 -1438.2 3342.31C-1616.58 3330.1 -1767.35 3295.86 -1879.97 3240.34C-1992.59 3184.83 -2066.98 3108.1 -2092.82 3010.95C-2118.66 2913.8 -2093.57 2805.22 -2025.83 2691.96C-1958.1 2578.71 -1847.78 2460.88 -1703.38 2345.34C-1414.57 2114.26 -989.615 1892.45 -496.949 1734.73C-4.28347 1577.01 462.721 1513.28 819.481 1537.7C997.864 1549.91 1148.63 1584.15 1261.26 1639.67C1373.88 1695.18 1448.27 1771.91 1474.11 1869.06C1499.95 1966.21 1474.85 2074.79 1407.12 2188.04C1339.38 2301.3 1229.06 2419.12 1084.66 2534.67C795.858 2765.75 370.899 2987.56 -121.767 3145.27Z" stroke="url(#paint28_linear_9335_53332)" stroke-width="2"/>
<path d="M-134.726 3149.29C-629.494 3298.8 -1096.95 3354.65 -1452.74 3324.13C-1630.64 3308.86 -1780.56 3272.01 -1892.02 3214.51C-2003.48 3157.01 -2076.38 3078.92 -2100.44 2981.21C-2124.49 2883.51 -2097.48 2775.22 -2027.81 2662.99C-1958.14 2550.76 -1845.87 2434.67 -1699.6 2321.46C-1407.08 2095.02 -978.762 1880.19 -483.994 1730.69C10.7734 1581.18 478.228 1525.33 834.018 1555.85C1011.92 1571.12 1161.84 1607.97 1273.3 1665.47C1384.76 1722.97 1457.66 1801.06 1481.71 1898.77C1505.77 1996.47 1478.76 2104.76 1409.09 2216.99C1339.42 2329.22 1227.15 2445.31 1080.88 2558.52C788.356 2784.96 360.042 2999.79 -134.726 3149.29Z" stroke="url(#paint29_linear_9335_53332)" stroke-width="2"/>
<path d="M-147.737 3153.12C-644.457 3294.37 -1112.22 3342.32 -1466.93 3305.69C-1644.29 3287.38 -1793.33 3247.93 -1903.59 3188.46C-2013.85 3128.99 -2085.24 3049.57 -2107.5 2951.33C-2129.76 2853.1 -2100.84 2745.15 -2029.26 2633.98C-1957.68 2522.8 -1843.49 2408.49 -1695.4 2297.63C-1399.24 2075.91 -967.705 1868.13 -470.985 1726.88C25.7336 1585.63 493.497 1537.67 848.209 1574.3C1025.57 1592.61 1174.61 1632.07 1284.87 1691.54C1395.13 1751 1466.51 1830.43 1488.78 1928.66C1511.04 2026.89 1482.12 2134.84 1410.54 2246.02C1338.96 2357.2 1224.76 2471.51 1076.68 2582.37C780.52 2804.08 348.982 3011.86 -147.737 3153.12Z" stroke="url(#paint30_linear_9335_53332)" stroke-width="2"/>
<path d="M-160.805 3156.71C-659.324 3289.67 -1127.25 3329.7 -1480.78 3286.99C-1657.54 3265.63 -1805.65 3223.59 -1914.68 3162.17C-2023.7 3100.76 -2093.56 3020.02 -2114.02 2921.29C-2134.49 2822.56 -2103.67 2714.98 -2030.2 2604.89C-1956.72 2494.8 -1840.64 2382.3 -1690.79 2273.83C-1391.08 2056.9 -956.453 1856.23 -457.934 1723.28C40.5851 1590.32 508.514 1550.29 862.039 1593C1038.81 1614.36 1186.92 1656.4 1295.94 1717.82C1404.97 1779.23 1474.82 1859.97 1495.29 1958.7C1515.75 2057.43 1484.93 2165.02 1411.46 2275.1C1337.98 2385.19 1221.91 2497.69 1072.05 2606.16C772.346 2823.09 337.714 3023.76 -160.805 3156.71Z" stroke="url(#paint31_linear_9335_53332)" stroke-width="2"/>
<path d="M-173.903 3160.1C-674.07 3284.72 -1142.02 3316.83 -1494.25 3268.04C-1670.37 3243.64 -1817.51 3199.03 -1925.27 3135.68C-2033.02 3072.33 -2101.32 2990.31 -2119.98 2891.11C-2138.64 2791.92 -2105.94 2684.73 -2030.59 2575.76C-1955.25 2466.8 -1837.32 2356.14 -1685.74 2250.1C-1382.58 2038.02 -944.99 1844.52 -444.822 1719.9C55.3449 1595.29 523.297 1563.18 875.528 1611.97C1051.65 1636.37 1198.78 1680.98 1306.54 1744.33C1414.3 1807.68 1482.6 1889.7 1501.26 1988.9C1519.92 2088.09 1487.21 2195.28 1411.87 2304.25C1336.52 2413.21 1218.6 2523.87 1067.01 2629.91C763.857 2841.99 326.265 3035.49 -173.903 3160.1Z" stroke="url(#paint32_linear_9335_53332)" stroke-width="2"/>
<path d="M-187.043 3163.26C-688.706 3279.5 -1156.54 3303.67 -1507.37 3248.82C-1682.79 3221.39 -1828.9 3174.21 -1935.36 3108.96C-2041.82 3043.7 -2108.54 2960.41 -2125.39 2860.78C-2142.24 2761.15 -2107.66 2654.39 -2030.47 2546.58C-1953.27 2438.77 -1833.53 2329.99 -1680.27 2226.41C-1373.75 2019.25 -933.333 1832.97 -431.671 1716.74C69.9923 1600.5 537.825 1576.33 888.655 1631.18C1064.07 1658.61 1210.19 1705.78 1316.65 1771.04C1423.11 1836.3 1489.83 1919.58 1506.68 2019.22C1523.53 2118.85 1488.94 2225.61 1411.75 2333.42C1334.56 2441.23 1214.82 2550 1061.56 2653.59C755.039 2860.75 314.62 3047.02 -187.043 3163.26Z" stroke="url(#paint33_linear_9335_53332)" stroke-width="2"/>
<path d="M-200.222 3166.22C-703.228 3274.04 -1170.8 3290.27 -1520.12 3229.37C-1694.78 3198.92 -1839.83 3149.2 -1944.96 3082.05C-2050.09 3014.91 -2115.22 2930.38 -2130.25 2830.35C-2145.28 2730.31 -2108.83 2624.01 -2029.82 2517.39C-1950.8 2410.77 -1829.28 2303.9 -1674.39 2202.81C-1364.6 2000.63 -921.489 1821.64 -418.483 1713.81C84.5228 1605.99 552.094 1589.76 901.415 1650.66C1076.08 1681.1 1221.13 1730.83 1326.26 1797.98C1431.38 1865.12 1496.51 1949.65 1511.55 2049.68C1526.58 2149.72 1490.13 2256.02 1411.11 2362.64C1332.1 2469.26 1210.58 2576.13 1055.68 2677.22C745.896 2879.4 302.784 3058.39 -200.222 3166.22Z" stroke="url(#paint34_linear_9335_53332)" stroke-width="2"/>
<path d="M-213.452 3168.92C-717.648 3268.3 -1184.81 3276.58 -1532.52 3209.66C-1706.38 3176.19 -1850.32 3123.94 -1954.08 3054.92C-2057.85 2985.9 -2121.36 2900.17 -2134.57 2799.76C-2147.78 2699.34 -2109.47 2593.54 -2028.66 2488.14C-1947.85 2382.74 -1824.59 2277.82 -1668.11 2179.25C-1355.15 1982.1 -909.476 1810.46 -405.28 1711.08C98.9155 1611.7 566.082 1603.42 913.789 1670.34C1087.65 1703.8 1231.58 1756.05 1335.35 1825.07C1439.11 1894.09 1502.63 1979.82 1515.84 2080.24C1529.05 2180.65 1490.74 2286.46 1409.93 2391.86C1329.11 2497.26 1205.86 2602.18 1049.37 2700.75C736.414 2897.89 290.743 3069.54 -213.452 3168.92Z" stroke="url(#paint35_linear_9335_53332)" stroke-width="2"/>
<path d="M-226.689 3171.43C-731.921 3262.34 -1198.54 3262.66 -1544.53 3189.73C-1717.52 3153.27 -1860.31 3098.5 -1962.68 3027.63C-2065.05 2956.76 -2126.92 2869.85 -2138.31 2769.09C-2149.7 2668.33 -2109.54 2563.05 -2026.96 2458.9C-1944.37 2354.76 -1819.41 2251.81 -1661.39 2155.79C-1345.35 1963.75 -897.257 1799.49 -392.025 1708.59C113.207 1617.69 579.827 1617.36 925.813 1690.29C1098.81 1726.75 1241.59 1781.52 1343.96 1852.39C1446.33 1923.26 1508.21 2010.17 1519.6 2110.93C1530.99 2211.69 1490.83 2316.97 1408.24 2421.12C1325.66 2525.27 1200.7 2628.21 1042.67 2724.23C726.635 2916.27 278.543 3080.53 -226.689 3171.43Z" stroke="url(#paint36_linear_9335_53332)" stroke-width="2"/>
<path d="M-239.966 3173.69C-746.08 3256.09 -1212.01 3248.47 -1556.17 3169.56C-1728.25 3130.1 -1869.84 3072.84 -1970.79 3000.14C-2071.73 2927.44 -2131.95 2839.37 -2141.51 2738.29C-2151.07 2637.22 -2109.08 2532.5 -2024.75 2429.64C-1940.41 2326.77 -1813.78 2225.84 -1654.27 2132.4C-1335.25 1945.51 -884.874 1788.7 -378.76 1706.3C127.354 1623.9 593.285 1631.53 937.445 1710.43C1109.53 1749.89 1251.12 1807.16 1352.06 1879.85C1453 1952.55 1513.23 2040.63 1522.79 2141.7C1532.35 2242.78 1490.36 2347.49 1406.02 2450.35C1321.68 2553.22 1195.06 2654.15 1035.55 2747.6C716.526 2934.48 266.148 3091.29 -239.966 3173.69Z" stroke="url(#paint37_linear_9335_53332)" stroke-width="2"/>
<path d="M-253.257 3175.74C-760.099 3249.62 -1225.2 3234.04 -1567.43 3149.17C-1738.55 3106.74 -1878.89 3046.99 -1978.38 2972.48C-2077.87 2897.98 -2136.42 2808.78 -2144.15 2707.42C-2151.88 2606.06 -2108.07 2501.93 -2022.01 2400.39C-1935.95 2298.84 -1807.69 2199.94 -1646.74 2109.11C-1324.84 1927.44 -872.309 1778.12 -365.467 1704.25C141.375 1630.37 606.476 1645.95 948.705 1730.82C1119.82 1773.25 1260.17 1833 1359.66 1907.5C1459.14 1982.01 1517.69 2071.21 1525.42 2172.57C1533.15 2273.93 1489.34 2378.05 1403.28 2479.6C1317.22 2581.15 1188.97 2680.05 1028.02 2770.88C706.111 2952.55 253.585 3101.87 -253.257 3175.74Z" stroke="url(#paint38_linear_9335_53332)" stroke-width="2"/>
<path d="M-266.566 3177.58C-773.982 3242.9 -1238.11 3219.38 -1578.3 3128.58C-1748.4 3083.18 -1887.47 3020.97 -1985.47 2944.68C-2083.46 2868.39 -2140.33 2778.08 -2146.22 2676.47C-2152.12 2574.86 -2106.5 2471.36 -2018.74 2371.16C-1930.99 2270.95 -1801.15 2174.13 -1638.8 2085.93C-1314.11 1909.54 -859.572 1767.75 -352.157 1702.43C155.259 1637.1 619.387 1660.63 959.581 1751.43C1129.68 1796.83 1268.75 1859.04 1366.75 1935.33C1464.74 2011.61 1521.6 2101.92 1527.5 2203.53C1533.4 2305.15 1487.78 2408.65 1400.02 2508.85C1312.26 2609.05 1182.43 2705.88 1020.08 2794.07C695.387 2970.47 240.85 3112.26 -266.566 3177.58Z" stroke="url(#paint39_linear_9335_53332)" stroke-width="2"/>
<path d="M-279.886 3179.18C-787.72 3235.93 -1250.74 3204.47 -1588.79 3107.77C-1757.82 3059.41 -1895.56 2994.76 -1992.04 2916.71C-2088.52 2838.66 -2143.68 2747.28 -2147.74 2645.44C-2151.8 2543.61 -2104.39 2440.76 -2014.96 2341.94C-1925.53 2243.11 -1794.15 2148.39 -1630.45 2062.85C-1303.08 1891.78 -846.666 1757.57 -338.832 1700.82C169.003 1644.07 632.018 1675.53 970.073 1772.24C1139.1 1820.59 1276.84 1885.24 1373.32 1963.29C1469.8 2041.34 1524.96 2132.72 1529.02 2234.56C1533.08 2336.39 1485.67 2439.24 1396.24 2538.06C1306.81 2636.89 1175.43 2731.62 1011.74 2817.15C684.358 2988.22 227.949 3122.43 -279.886 3179.18Z" stroke="url(#paint40_linear_9335_53332)" stroke-width="2"/>
<path d="M-293.222 3180.57C-801.321 3228.73 -1263.08 3189.34 -1598.89 3086.76C-1766.8 3035.47 -1903.18 2968.39 -1998.11 2888.61C-2093.04 2808.82 -2146.48 2716.39 -2148.7 2614.36C-2150.92 2512.34 -2101.73 2410.18 -2010.66 2312.76C-1919.59 2215.34 -1786.7 2122.74 -1621.71 2039.9C-1291.75 1874.2 -833.603 1747.62 -325.504 1699.45C182.595 1651.29 644.355 1690.68 980.169 1793.26C1148.08 1844.55 1284.45 1911.63 1379.39 1991.41C1474.32 2071.2 1527.75 2163.63 1529.97 2265.66C1532.2 2367.68 1483.01 2469.84 1391.94 2567.26C1300.86 2664.68 1167.97 2757.28 1002.99 2840.12C673.02 3005.82 214.878 3132.4 -293.222 3180.57Z" stroke="url(#paint41_linear_9335_53332)" stroke-width="2"/>
<path d="M-306.559 3181.71C-814.768 3221.27 -1275.13 3173.96 -1608.6 3065.54C-1775.34 3011.32 -1910.3 2941.84 -2003.66 2860.35C-2097.02 2778.85 -2148.71 2685.4 -2149.1 2583.21C-2149.48 2481.02 -2098.53 2379.58 -2005.84 2283.6C-1913.16 2187.62 -1778.8 2097.18 -1612.57 2017.04C-1280.11 1856.78 -820.377 1737.85 -312.169 1698.29C196.04 1658.73 656.405 1706.03 989.874 1814.46C1156.61 1868.67 1291.58 1938.15 1384.94 2019.65C1478.29 2101.15 1529.98 2194.6 1530.37 2296.79C1530.76 2398.97 1479.8 2500.41 1387.12 2596.39C1294.43 2692.38 1160.07 2782.82 993.839 2862.95C661.386 3023.22 201.65 3142.15 -306.559 3181.71Z" stroke="url(#paint42_linear_9335_53332)" stroke-width="2"/>
<path d="M-319.893 3182.65C-828.057 3213.59 -1286.89 3158.39 -1617.91 3044.15C-1783.42 2987.03 -1916.94 2915.17 -2008.69 2831.98C-2100.45 2748.8 -2150.38 2654.35 -2148.93 2552.04C-2147.48 2449.72 -2094.78 2349.03 -2000.5 2254.51C-1906.23 2160 -1770.44 2071.74 -1603.02 1994.34C-1268.18 1839.55 -806.992 1728.32 -298.829 1697.37C209.335 1666.43 668.164 1721.63 999.188 1835.87C1164.7 1892.99 1298.22 1964.85 1389.97 2048.04C1481.72 2131.22 1531.66 2225.67 1530.21 2327.98C1528.76 2430.3 1476.06 2530.99 1381.78 2625.51C1287.51 2720.02 1151.72 2808.28 984.299 2885.68C649.46 3040.47 188.27 3151.7 -319.893 3182.65Z" stroke="url(#paint43_linear_9335_53332)" stroke-width="2"/>
<path d="M-333.234 3183.34C-841.197 3205.66 -1298.35 3142.57 -1626.83 3022.55C-1791.07 2962.55 -1923.09 2888.32 -2013.22 2803.48C-2103.34 2718.63 -2151.5 2623.22 -2148.21 2520.81C-2144.92 2418.4 -2090.49 2318.48 -1994.66 2225.46C-1898.82 2132.44 -1761.65 2046.39 -1593.09 1971.76C-1255.97 1822.49 -793.464 1718.99 -285.501 1696.67C222.463 1674.34 679.616 1737.43 1008.09 1857.45C1172.34 1917.46 1304.36 1991.68 1394.48 2076.53C1484.6 2161.37 1532.77 2256.78 1529.48 2359.19C1526.19 2461.61 1471.76 2561.52 1375.92 2654.54C1280.09 2747.56 1142.92 2833.61 974.356 2908.25C637.232 3057.51 174.73 3161.02 -333.234 3183.34Z" stroke="url(#paint44_linear_9335_53332)" stroke-width="2"/>
<path d="M-346.559 3183.81C-854.168 3197.5 -1309.51 3126.54 -1635.34 3000.79C-1798.26 2937.91 -1928.75 2861.35 -2017.21 2774.86C-2105.67 2688.38 -2152.05 2592.04 -2146.93 2489.56C-2141.8 2387.08 -2085.65 2287.97 -1988.29 2196.48C-1890.93 2104.98 -1752.42 2021.17 -1582.76 1949.32C-1243.46 1805.62 -779.781 1709.88 -272.172 1696.19C235.436 1682.49 690.775 1753.45 1016.61 1879.21C1179.52 1942.09 1310.02 2018.64 1398.48 2105.13C1486.94 2191.61 1533.32 2287.95 1528.2 2390.43C1523.07 2492.91 1466.92 2592.02 1369.56 2683.51C1272.19 2775.01 1133.68 2858.83 964.028 2930.68C624.724 3074.37 161.049 3170.12 -346.559 3183.81Z" stroke="url(#paint45_linear_9335_53332)" stroke-width="2"/>
<path d="M-359.868 3184.07C-866.967 3189.12 -1320.35 3110.32 -1643.44 2978.87C-1804.98 2913.14 -1933.91 2834.26 -2020.68 2746.17C-2107.46 2658.08 -2152.04 2560.83 -2145.08 2458.31C-2138.12 2355.8 -2080.27 2257.53 -1981.41 2167.59C-1882.54 2077.64 -1742.73 1996.09 -1572.04 1927.05C-1230.65 1788.97 -765.949 1701.01 -258.85 1695.95C248.249 1690.9 701.635 1769.7 1024.72 1901.15C1186.27 1966.88 1315.19 2045.76 1401.97 2133.85C1488.74 2221.94 1533.32 2319.19 1526.36 2421.71C1519.4 2524.22 1461.55 2622.49 1362.69 2712.43C1263.83 2802.38 1124.01 2883.93 953.319 2952.97C611.937 3091.06 147.231 3179.01 -359.868 3184.07Z" stroke="url(#paint46_linear_9335_53332)" stroke-width="2"/>
<path d="M-373.171 3184.09C-879.607 3180.51 -1330.9 3093.89 -1651.14 2956.77C-1811.26 2888.21 -1938.58 2807.04 -2023.64 2717.37C-2108.7 2627.69 -2151.47 2529.57 -2142.68 2427.05C-2133.88 2324.53 -2074.35 2227.13 -1974.02 2138.77C-1873.69 2050.4 -1732.62 1971.13 -1560.94 1904.92C-1217.58 1772.49 -751.987 1692.35 -245.552 1695.93C260.883 1699.51 712.177 1786.13 1032.42 1923.25C1192.54 1991.81 1319.85 2072.97 1404.92 2162.65C1489.98 2252.33 1532.74 2350.45 1523.95 2452.97C1515.16 2555.49 1455.63 2652.89 1355.3 2741.25C1254.97 2829.62 1113.9 2908.89 942.215 2975.1C598.859 3107.53 133.264 3187.67 -373.171 3184.09Z" stroke="url(#paint47_linear_9335_53332)" stroke-width="2"/>
<path d="M-386.448 3183.88C-892.066 3171.66 -1341.13 3077.25 -1658.43 2934.51C-1817.08 2863.14 -1942.75 2779.71 -2026.07 2688.47C-2109.4 2597.24 -2150.33 2498.28 -2139.71 2395.78C-2129.09 2293.29 -2067.9 2196.79 -1966.13 2110.03C-1864.35 2023.27 -1722.07 1946.31 -1549.45 1882.95C-1204.23 1756.22 -737.884 1683.92 -232.267 1696.13C273.35 1708.35 722.415 1802.76 1039.71 1945.5C1198.37 2016.87 1324.03 2100.3 1407.36 2191.53C1490.68 2282.76 1531.62 2381.73 1521 2484.22C1510.37 2586.72 1449.18 2683.22 1347.41 2769.98C1245.64 2856.74 1103.35 2933.69 930.737 2997.06C585.511 3123.79 119.169 3196.09 -386.448 3183.88Z" stroke="url(#paint48_linear_9335_53332)" stroke-width="2"/>
<path d="M-399.716 3183.43C-904.361 3162.59 -1351.06 3060.41 -1665.32 2912.09C-1822.45 2837.93 -1946.43 2752.26 -2027.99 2659.5C-2109.55 2566.74 -2148.65 2466.96 -2136.2 2364.53C-2123.75 2262.09 -2060.91 2166.52 -1957.74 2081.39C-1854.56 1996.26 -1711.1 1921.64 -1537.6 1861.14C-1190.61 1740.14 -723.665 1675.71 -219.02 1696.55C285.625 1717.4 732.324 1819.58 1046.59 1967.9C1203.72 2042.05 1327.69 2127.72 1409.26 2220.49C1490.82 2313.24 1529.91 2413.03 1517.47 2515.46C1505.02 2617.89 1442.18 2713.47 1339 2798.59C1235.82 2883.72 1092.36 2958.35 918.867 3018.85C571.877 3139.84 104.929 3204.28 -399.716 3183.43Z" stroke="url(#paint49_linear_9335_53332)" stroke-width="2"/>
<path d="M-412.941 3182.77C-916.46 3153.3 -1360.66 3043.39 -1671.78 2889.54C-1827.35 2812.62 -1949.6 2724.73 -2029.38 2630.47C-2109.15 2536.21 -2146.39 2435.64 -2132.12 2333.3C-2117.85 2230.96 -2053.39 2136.34 -1948.83 2052.87C-1844.27 1969.4 -1699.69 1897.13 -1525.36 1839.52C-1176.71 1724.29 -709.303 1667.74 -205.784 1697.21C297.735 1726.68 741.932 1836.6 1053.06 1990.44C1208.63 2067.37 1330.88 2155.25 1410.65 2249.51C1490.42 2343.77 1527.67 2444.34 1513.4 2546.68C1499.12 2649.03 1434.66 2743.64 1330.11 2827.11C1225.55 2910.58 1080.96 2982.85 906.638 3040.46C557.99 3155.69 90.5785 3212.25 -412.941 3182.77Z" stroke="url(#paint50_linear_9335_53332)" stroke-width="2"/>
<path d="M-426.135 3181.9C-928.375 3143.81 -1369.94 3026.19 -1677.83 2866.86C-1831.78 2787.2 -1952.27 2697.12 -2030.24 2601.39C-2108.19 2505.66 -2143.58 2404.34 -2127.49 2302.12C-2111.4 2199.89 -2045.33 2106.26 -1939.43 2024.48C-1833.52 1942.69 -1687.86 1872.8 -1512.75 1818.09C-1162.55 1708.67 -694.821 1660.01 -192.582 1698.1C309.658 1736.19 751.218 1853.81 1059.12 2013.14C1213.07 2092.8 1333.56 2182.87 1411.52 2278.61C1489.48 2374.34 1524.86 2475.66 1508.77 2577.88C1492.68 2680.11 1426.61 2773.73 1320.71 2855.52C1214.81 2937.31 1069.14 3007.2 894.037 3061.91C543.837 3171.33 76.1045 3219.98 -426.135 3181.9Z" stroke="url(#paint51_linear_9335_53332)" stroke-width="2"/>
<path d="M-439.297 3180.79C-940.104 3134.1 -1378.89 3008.82 -1683.47 2844.05C-1835.76 2761.67 -1954.45 2669.44 -2030.57 2572.26C-2106.69 2475.09 -2140.2 2373.05 -2122.3 2270.97C-2104.4 2168.9 -2036.74 2076.29 -1929.53 1996.21C-1822.31 1916.13 -1675.61 1848.64 -1499.78 1796.85C-1148.13 1693.27 -680.224 1652.53 -179.417 1699.22C321.391 1745.92 760.179 1871.19 1064.75 2035.96C1217.04 2118.34 1335.74 2210.58 1411.86 2307.75C1487.98 2404.92 1521.49 2506.97 1503.59 2609.04C1485.68 2711.11 1418.03 2803.72 1310.82 2883.8C1203.6 2963.88 1056.89 3031.37 881.067 3083.16C529.421 3186.74 61.5109 3227.48 -439.297 3180.79Z" stroke="url(#paint52_linear_9335_53332)" stroke-width="2"/>
<path d="M-452.43 3179.45C-951.653 3124.17 -1387.54 2991.26 -1688.7 2821.11C-1839.28 2736.04 -1956.14 2641.67 -2030.4 2543.09C-2104.66 2444.5 -2136.29 2341.76 -2116.57 2239.88C-2096.86 2137.99 -2027.64 2046.42 -1919.15 1968.07C-1810.65 1889.72 -1662.95 1824.66 -1486.46 1775.8C-1133.47 1678.09 -665.526 1645.27 -166.303 1700.56C332.919 1755.84 768.803 1888.75 1069.96 2058.9C1220.55 2143.98 1337.4 2238.34 1411.67 2336.93C1485.93 2435.51 1517.55 2538.25 1497.84 2640.14C1478.13 2742.02 1408.91 2833.6 1300.42 2911.94C1191.92 2990.29 1044.22 3055.35 867.724 3104.21C514.739 3201.92 46.7928 3234.74 -452.43 3179.45Z" stroke="url(#paint53_linear_9335_53332)" stroke-width="2"/>
<path d="M-465.507 3177.88C-962.993 3114.02 -1395.84 2973.53 -1693.49 2798.05C-1842.32 2710.3 -1957.31 2613.84 -2029.69 2513.87C-2102.06 2413.9 -2131.8 2310.5 -2110.28 2208.83C-2088.77 2107.16 -2018 2016.65 -1908.26 1940.07C-1798.52 1863.47 -1649.87 1800.85 -1472.76 1754.94C-1118.55 1663.13 -650.706 1638.25 -153.22 1702.11C344.266 1765.97 777.111 1906.46 1074.76 2081.94C1223.59 2169.69 1338.58 2266.15 1410.96 2366.12C1483.34 2466.09 1513.07 2569.49 1491.56 2671.16C1470.04 2772.84 1399.28 2863.34 1289.54 2939.93C1179.8 3016.52 1031.14 3079.14 854.034 3125.05C499.819 3216.86 31.979 3241.74 -465.507 3177.88Z" stroke="url(#paint54_linear_9335_53332)" stroke-width="2"/>
<path d="M-478.533 3176.09C-974.131 3103.68 -1403.81 2955.65 -1697.86 2774.88C-1844.89 2684.5 -1957.97 2585.96 -2028.45 2484.64C-2098.92 2383.32 -2126.75 2279.29 -2103.44 2177.86C-2080.13 2076.43 -2007.84 1987.03 -1896.89 1912.22C-1785.93 1837.41 -1636.38 1777.24 -1458.71 1734.3C-1103.37 1648.42 -635.779 1631.48 -140.182 1703.9C355.416 1776.31 785.091 1924.34 1079.15 2105.11C1226.18 2195.49 1339.26 2294.03 1409.73 2395.35C1480.21 2496.67 1508.04 2600.7 1484.72 2702.13C1461.41 2803.56 1389.13 2892.96 1278.18 2967.77C1167.22 3042.58 1017.66 3102.75 839.992 3145.69C484.654 3231.57 17.0641 3248.51 -478.533 3176.09Z" stroke="url(#paint55_linear_9335_53332)" stroke-width="2"/>
<path d="M-491.519 3174.08C-985.077 3093.14 -1411.45 2937.61 -1701.82 2751.62C-1847.01 2658.62 -1958.15 2558.04 -2026.7 2455.39C-2095.24 2352.76 -2121.16 2248.13 -2096.06 2146.97C-2070.96 2045.82 -1997.18 1957.54 -1885.04 1884.54C-1772.91 1811.53 -1622.49 1753.84 -1444.31 1713.88C-1087.96 1633.95 -620.764 1624.96 -127.206 1705.91C366.352 1786.85 792.727 1942.38 1083.09 2128.37C1228.28 2221.37 1339.42 2321.95 1407.97 2424.59C1476.52 2527.23 1502.44 2631.86 1477.34 2733.01C1452.24 2834.17 1378.45 2922.44 1266.32 2995.45C1154.18 3068.46 1003.77 3126.15 825.59 3166.11C469.237 3246.04 2.03873 3255.03 -491.519 3174.08Z" stroke="url(#paint56_linear_9335_53332)" stroke-width="2"/>
<path d="M-504.443 3171.87C-995.811 3082.42 -1418.76 2919.44 -1705.35 2728.28C-1848.65 2632.7 -1957.81 2530.1 -2024.42 2426.17C-2091.02 2322.24 -2115.02 2217.05 -2088.13 2116.2C-2061.25 2015.36 -1985.99 1928.23 -1872.71 1857.05C-1759.43 1785.87 -1608.2 1730.67 -1429.57 1693.7C-1072.31 1619.75 -605.646 1618.72 -114.278 1708.17C377.09 1797.62 800.034 1960.6 1086.63 2151.76C1229.92 2247.34 1339.09 2349.94 1405.69 2453.87C1472.29 2557.79 1496.3 2662.99 1469.41 2763.84C1442.53 2864.68 1367.27 2951.81 1253.99 3022.99C1140.71 3094.17 989.481 3149.37 810.849 3186.34C453.59 3260.29 -13.0743 3261.32 -504.443 3171.87Z" stroke="url(#paint57_linear_9335_53332)" stroke-width="2"/>
<path d="M-517.321 3169.4C-1006.35 3071.46 -1425.73 2901.08 -1708.46 2704.81C-1849.83 2606.68 -1956.99 2502.1 -2021.63 2396.91C-2086.26 2291.72 -2108.33 2185.99 -2079.68 2085.48C-2051.02 1984.98 -1974.3 1899.03 -1859.92 1829.7C-1745.52 1760.36 -1593.53 1707.68 -1414.5 1673.7C-1056.44 1605.76 -590.453 1612.67 -101.424 1710.6C387.605 1808.54 806.989 1978.92 1089.72 2175.19C1231.08 2273.32 1338.25 2377.9 1402.88 2483.09C1467.51 2588.28 1489.59 2694.01 1460.93 2794.51C1432.28 2895.02 1355.56 2980.97 1241.17 3050.3C1126.78 3119.64 974.783 3172.32 795.753 3206.3C437.696 3274.24 -28.292 3267.33 -517.321 3169.4Z" stroke="url(#paint58_linear_9335_53332)" stroke-width="2"/>
<path d="M-530.114 3166.72C-1016.65 3060.34 -1432.35 2882.61 -1711.13 2681.29C-1850.52 2580.63 -1955.64 2474.1 -2018.29 2367.68C-2080.94 2261.27 -2101.08 2155.04 -2070.66 2054.9C-2040.24 1954.76 -1962.09 1870.02 -1846.63 1802.55C-1731.16 1735.08 -1578.44 1684.93 -1399.07 1653.97C-1040.32 1592.04 -575.152 1606.91 -88.6115 1713.29C397.929 1819.67 813.626 1997.4 1092.41 2198.72C1231.8 2299.38 1336.92 2405.91 1399.57 2512.33C1462.21 2618.74 1482.35 2724.97 1451.93 2825.11C1421.51 2925.25 1343.36 3009.99 1227.9 3077.46C1112.43 3144.93 959.715 3195.08 780.341 3226.04C421.597 3287.97 -43.5737 3273.1 -530.114 3166.72Z" stroke="url(#paint59_linear_9335_53332)" stroke-width="2"/>
<path d="M-542.85 3163.82C-1026.75 3049.02 -1438.64 2863.99 -1713.38 2657.69C-1850.76 2554.53 -1953.81 2446.08 -2014.45 2338.48C-2075.09 2230.87 -2093.29 2124.17 -2061.12 2024.43C-2028.94 1924.69 -1949.38 1841.18 -1832.88 1775.6C-1716.37 1710.02 -1562.98 1662.41 -1383.31 1634.46C-1023.99 1578.58 -559.78 1601.39 -75.8764 1716.19C408.028 1830.99 819.911 2016.02 1094.66 2222.33C1232.03 2325.48 1335.08 2433.93 1395.72 2541.54C1456.36 2649.14 1474.56 2755.84 1442.39 2855.58C1410.21 2955.33 1330.65 3038.84 1214.15 3104.41C1097.64 3170 944.251 3217.61 764.587 3245.55C405.264 3301.43 -58.9464 3278.62 -542.85 3163.82Z" stroke="url(#paint60_linear_9335_53332)" stroke-width="2"/>
<path d="M-555.518 3160.69C-1036.64 3037.51 -1444.58 2845.24 -1715.21 2634.01C-1850.53 2528.39 -1951.47 2418.06 -2010.09 2309.29C-2068.7 2200.52 -2084.96 2093.39 -2051.04 1994.07C-2017.12 1894.76 -1936.18 1812.51 -1818.67 1748.84C-1701.15 1685.16 -1547.14 1640.11 -1367.24 1615.2C-1007.44 1565.37 -544.335 1596.12 -63.2146 1719.3C417.906 1842.49 825.85 2034.75 1096.48 2245.99C1231.79 2351.61 1332.74 2461.94 1391.36 2570.71C1449.97 2679.47 1466.23 2786.61 1432.31 2885.92C1398.39 2985.24 1317.45 3067.49 1199.94 3131.16C1082.42 3194.83 928.404 3239.88 748.505 3264.8C388.712 3314.62 -74.3976 3283.87 -555.518 3160.69Z" stroke="url(#paint61_linear_9335_53332)" stroke-width="2"/>
<path d="M-568.101 3157.35C-1046.29 3025.83 -1450.17 2826.38 -1716.6 2610.28C-1849.81 2502.24 -1948.63 2390.05 -2005.2 2280.16C-2061.77 2170.27 -2076.08 2062.72 -2040.43 1963.87C-2004.77 1865.01 -1922.47 1784.04 -1803.99 1722.3C-1685.5 1660.55 -1530.91 1618.08 -1350.83 1596.2C-990.675 1552.44 -528.808 1591.13 -50.6183 1722.65C427.571 1854.18 831.452 2053.63 1097.88 2269.72C1231.09 2377.77 1329.91 2489.95 1386.48 2599.85C1443.06 2709.74 1457.36 2817.28 1421.71 2916.14C1386.05 3014.99 1303.75 3095.96 1185.27 3157.71C1066.79 3219.45 912.187 3261.93 732.109 3283.81C371.956 3327.56 -89.9112 3288.88 -568.101 3157.35Z" stroke="url(#paint62_linear_9335_53332)" stroke-width="2"/>
<path d="M-580.62 3153.79C-1055.73 3013.95 -1455.43 2807.39 -1717.57 2586.49C-1848.65 2476.05 -1945.3 2362.05 -1999.81 2251.06C-2054.33 2140.07 -2066.68 2032.16 -2029.3 1933.79C-1991.92 1835.43 -1908.28 1755.77 -1788.87 1695.97C-1669.45 1636.17 -1514.32 1596.27 -1334.12 1577.44C-973.714 1539.77 -513.23 1586.37 -38.1162 1726.2C436.997 1866.04 836.691 2072.6 1098.84 2293.49C1229.91 2403.94 1326.56 2517.94 1381.08 2628.93C1435.59 2739.92 1447.94 2847.83 1410.56 2946.19C1373.18 3044.56 1289.55 3124.22 1170.13 3184.02C1050.72 3243.82 895.584 3283.71 715.381 3302.55C354.977 3340.22 -105.507 3293.62 -580.62 3153.79Z" stroke="url(#paint63_linear_9335_53332)" stroke-width="2"/>
<path d="M-593.048 3150.02C-1064.94 3001.92 -1460.33 2788.3 -1718.11 2562.68C-1847.01 2449.87 -1941.46 2334.09 -1993.9 2222.04C-2046.34 2109.99 -2056.73 2001.74 -2017.64 1903.89C-1978.55 1806.05 -1893.6 1727.71 -1773.29 1669.88C-1652.98 1612.05 -1497.36 1574.75 -1317.08 1558.96C-956.541 1527.39 -497.579 1581.89 -25.6869 1729.99C446.206 1878.09 841.591 2091.71 1099.38 2317.33C1228.27 2430.14 1322.73 2545.92 1375.17 2657.97C1427.6 2770.02 1438 2878.27 1398.9 2976.12C1359.81 3073.96 1274.87 3152.29 1154.56 3210.13C1034.24 3267.96 878.623 3305.26 698.349 3321.04C337.806 3352.61 -121.155 3298.11 -593.048 3150.02Z" stroke="url(#paint64_linear_9335_53332)" stroke-width="2"/>
<path d="M-605.385 3146.03C-1073.91 2989.72 -1464.87 2769.11 -1718.22 2538.83C-1844.89 2423.69 -1937.12 2306.16 -1987.47 2193.08C-2037.81 2080.01 -2046.25 1971.45 -2005.45 1874.15C-1964.66 1776.86 -1878.43 1699.88 -1757.26 1644.03C-1636.09 1588.18 -1480.03 1553.49 -1299.74 1540.75C-939.166 1515.29 -481.868 1577.68 -13.3404 1733.99C455.188 1890.31 846.144 2110.92 1099.49 2341.2C1226.16 2456.34 1318.4 2573.87 1368.75 2686.95C1419.09 2800.02 1427.52 2908.58 1386.73 3005.87C1345.93 3103.17 1259.71 3180.15 1138.54 3236C1017.36 3291.85 861.304 3326.54 681.015 3339.27C320.441 3364.73 -136.857 3302.35 -605.385 3146.03Z" stroke="url(#paint65_linear_9335_53332)" stroke-width="2"/>
<path d="M-617.634 3141.83C-1082.66 2977.34 -1469.06 2749.81 -1717.89 2514.94C-1842.31 2397.5 -1932.29 2278.26 -1980.53 2164.19C-2028.77 2050.13 -2035.24 1941.3 -1992.76 1844.58C-1950.27 1747.86 -1862.79 1672.26 -1740.8 1618.41C-1618.8 1564.56 -1462.35 1532.49 -1282.1 1522.81C-921.603 1503.47 -466.107 1573.72 -1.08641 1738.2C463.934 1902.69 850.343 2130.22 1099.17 2365.09C1223.59 2482.53 1313.57 2601.77 1361.81 2715.84C1410.05 2829.9 1416.52 2938.73 1374.04 3035.45C1331.55 3132.17 1244.07 3207.77 1122.07 3261.62C1000.07 3315.47 843.627 3347.54 663.377 3357.22C302.882 3376.56 -152.614 3306.31 -617.634 3141.83Z" stroke="url(#paint66_linear_9335_53332)" stroke-width="2"/>
<path d="M-629.794 3137.39C-1091.17 2964.79 -1472.91 2730.4 -1717.15 2491.01C-1839.27 2371.31 -1926.97 2250.4 -1973.09 2135.37C-2019.2 2020.35 -2023.71 1911.28 -1979.55 1815.17C-1935.39 1719.06 -1846.68 1644.87 -1723.9 1593.03C-1601.11 1541.19 -1444.32 1511.75 -1264.16 1505.13C-903.857 1491.91 -450.302 1570.01 11.0695 1742.61C472.441 1915.21 854.185 2149.61 1098.42 2389C1220.54 2508.69 1308.25 2629.6 1354.36 2744.63C1400.48 2859.65 1404.98 2968.72 1360.82 3064.83C1316.66 3160.94 1227.95 3235.14 1105.17 3286.97C982.385 3338.81 825.593 3368.26 645.438 3374.87C285.132 3388.09 -168.422 3309.99 -629.794 3137.39Z" stroke="url(#paint67_linear_9335_53332)" stroke-width="2"/>
<path d="M-641.851 3132.76C-1099.43 2952.09 -1476.4 2710.91 -1715.96 2467.08C-1835.75 2345.16 -1921.15 2222.61 -1965.13 2106.66C-2009.11 1990.72 -2011.65 1881.44 -1965.83 1785.97C-1920.01 1690.5 -1830.09 1617.72 -1706.56 1567.92C-1583.03 1518.11 -1425.94 1491.31 -1245.93 1487.76C-885.925 1480.66 -434.449 1566.58 23.133 1747.25C480.715 1927.92 857.677 2169.09 1097.25 2412.93C1217.03 2534.85 1302.44 2657.39 1346.42 2773.34C1390.39 2889.29 1392.93 2998.56 1347.11 3094.04C1301.29 3189.51 1211.37 3262.28 1087.84 3312.09C964.307 3361.89 807.22 3388.7 627.214 3392.25C267.207 3399.35 -184.269 3313.43 -641.851 3132.76Z" stroke="url(#paint68_linear_9335_53332)" stroke-width="2"/>
<path d="M-653.809 3127.91C-1107.46 2939.23 -1479.53 2691.34 -1714.36 2443.14C-1831.77 2319.03 -1914.85 2194.88 -1956.68 2078.05C-1998.5 1961.22 -1999.08 1851.77 -1951.6 1756.96C-1904.13 1662.16 -1813.04 1590.83 -1688.8 1543.07C-1564.55 1495.31 -1407.22 1471.15 -1227.42 1470.67C-867.819 1469.69 -418.56 1563.41 35.0934 1752.09C488.747 1940.77 860.812 2188.66 1095.64 2436.86C1213.06 2560.97 1296.13 2685.12 1337.96 2801.95C1379.79 2918.78 1380.36 3028.23 1332.89 3123.04C1285.42 3217.84 1194.33 3289.17 1070.09 3336.93C945.839 3384.69 788.504 3408.85 608.702 3409.34C249.103 3410.31 -200.156 3316.59 -653.809 3127.91Z" stroke="url(#paint69_linear_9335_53332)" stroke-width="2"/>
<path d="M-665.665 3122.84C-1115.25 2926.21 -1482.31 2671.69 -1712.33 2419.19C-1827.34 2292.94 -1908.05 2167.23 -1947.72 2049.54C-1987.39 1931.86 -1985.99 1822.27 -1936.88 1728.16C-1887.78 1634.05 -1795.54 1564.19 -1670.63 1518.49C-1545.71 1472.79 -1388.17 1451.29 -1208.63 1453.86C-849.546 1459.02 -402.641 1560.5 46.9456 1757.14C496.532 1953.78 863.587 2208.29 1093.61 2460.8C1208.62 2587.05 1289.33 2712.76 1329 2830.45C1368.67 2948.13 1367.27 3057.72 1318.16 3151.83C1269.06 3245.94 1176.82 3315.8 1051.91 3361.49C926.985 3407.19 769.45 3428.7 589.908 3426.12C230.827 3420.97 -216.079 3319.48 -665.665 3122.84Z" stroke="url(#paint70_linear_9335_53332)" stroke-width="2"/>
<path d="M-677.409 3117.59C-1122.79 2913.06 -1484.72 2651.99 -1709.86 2395.27C-1822.43 2266.91 -1900.77 2139.67 -1938.26 2021.17C-1975.75 1902.67 -1972.39 1792.98 -1921.66 1699.59C-1870.94 1606.21 -1777.58 1537.84 -1652.03 1494.21C-1526.47 1450.59 -1368.79 1431.74 -1189.56 1437.38C-831.105 1448.66 -386.689 1557.89 58.6932 1762.42C504.076 1966.95 866.009 2228.02 1091.15 2484.74C1203.71 2613.1 1282.05 2740.34 1319.55 2858.84C1357.04 2977.34 1353.67 3087.03 1302.95 3180.42C1252.22 3273.8 1158.87 3342.17 1033.32 3385.8C907.759 3429.42 750.072 3448.27 570.843 3442.63C212.39 3431.35 -232.026 3322.12 -677.409 3117.59Z" stroke="url(#paint71_linear_9335_53332)" stroke-width="2"/>
<path d="M-689.042 3112.13C-1130.08 2899.76 -1486.79 2632.21 -1706.97 2371.35C-1817.07 2240.92 -1893 2112.2 -1928.31 1992.92C-1963.61 1873.64 -1958.28 1763.87 -1905.95 1671.24C-1853.63 1578.61 -1759.18 1511.75 -1633.03 1470.22C-1506.88 1428.68 -1349.08 1412.5 -1170.22 1421.2C-812.507 1438.6 -370.716 1555.53 70.3268 1767.89C511.369 1980.25 868.071 2247.8 1088.26 2508.67C1198.35 2639.1 1274.29 2767.82 1309.59 2887.1C1344.9 3006.37 1339.57 3116.14 1287.24 3208.78C1234.91 3301.41 1140.46 3368.27 1014.31 3409.8C888.16 3451.34 730.369 3467.52 551.509 3458.82C193.791 3441.42 -248 3324.49 -689.042 3112.13Z" stroke="url(#paint72_linear_9335_53332)" stroke-width="2"/>
<path d="M-700.565 3106.45C-1137.13 2886.32 -1488.49 2612.37 -1703.66 2347.45C-1811.25 2214.99 -1884.76 2084.82 -1917.87 1964.8C-1950.98 1844.78 -1943.68 1734.97 -1889.76 1643.12C-1835.85 1551.27 -1740.34 1485.94 -1613.63 1446.5C-1486.92 1407.07 -1329.07 1393.56 -1150.63 1405.32C-793.76 1428.84 -354.729 1553.43 81.84 1773.56C518.409 1993.69 869.77 2267.64 1084.94 2532.56C1192.52 2665.02 1266.03 2795.19 1299.14 2915.21C1332.25 3035.23 1324.95 3145.04 1271.04 3236.89C1217.12 3328.74 1121.61 3394.07 994.905 3433.51C868.192 3472.94 710.345 3486.45 531.907 3474.69C175.035 3451.17 -263.996 3326.58 -700.565 3106.45Z" stroke="url(#paint73_linear_9335_53332)" stroke-width="2"/>
<path d="M-711.954 3100.58C-1143.92 2872.74 -1489.83 2592.49 -1699.92 2323.58C-1804.96 2189.13 -1876.02 2057.56 -1906.92 1936.83C-1937.82 1816.1 -1928.56 1706.29 -1873.08 1615.25C-1817.59 1524.21 -1721.04 1460.43 -1593.82 1423.11C-1466.59 1385.78 -1308.73 1374.95 -1130.77 1389.76C-774.852 1419.39 -338.713 1551.61 93.2486 1779.45C525.211 2007.28 871.124 2287.54 1081.21 2556.44C1186.26 2690.89 1257.31 2822.46 1288.22 2943.19C1319.12 3063.92 1309.86 3173.73 1254.37 3264.77C1198.88 3355.81 1102.34 3419.6 975.113 3456.92C847.88 3494.24 690.025 3505.08 512.064 3490.26C156.146 3460.63 -279.992 3328.41 -711.954 3100.58Z" stroke="url(#paint74_linear_9335_53332)" stroke-width="2"/>
<path d="M-723.243 3094.48C-1150.47 2859.02 -1490.83 2572.53 -1695.77 2299.73C-1798.24 2163.33 -1866.82 2030.39 -1895.51 1908.99C-1924.2 1787.6 -1912.98 1677.81 -1855.94 1587.6C-1798.89 1497.4 -1701.35 1435.19 -1573.64 1399.99C-1445.92 1364.79 -1288.11 1356.63 -1110.68 1374.5C-755.824 1410.23 -322.712 1550.04 104.512 1785.51C531.735 2020.97 872.096 2307.46 1077.04 2580.25C1179.51 2716.66 1248.09 2849.6 1276.78 2971C1305.47 3092.39 1294.25 3202.18 1237.2 3292.38C1180.16 3382.59 1082.61 3444.8 954.907 3479.99C827.192 3515.19 669.377 3523.35 491.948 3505.49C137.093 3469.75 -296.019 3329.94 -723.243 3094.48Z" stroke="url(#paint75_linear_9335_53332)" stroke-width="2"/>
<path d="M-734.396 3088.21C-1156.75 2845.19 -1491.45 2552.56 -1691.19 2275.95C-1791.05 2137.64 -1857.15 2003.37 -1883.61 1881.34C-1910.07 1759.32 -1896.89 1649.59 -1838.31 1560.25C-1779.73 1470.91 -1681.21 1410.29 -1553.06 1377.23C-1424.91 1344.16 -1267.18 1338.68 -1090.33 1359.59C-736.65 1401.41 -306.696 1548.77 115.659 1791.8C538.014 2034.82 872.718 2327.44 1072.45 2604.06C1172.32 2742.37 1238.41 2876.63 1264.87 2998.67C1291.33 3120.69 1278.16 3230.42 1219.58 3319.76C1161 3409.1 1062.48 3469.72 934.326 3502.78C806.168 3535.84 648.442 3541.32 471.598 3520.41C117.913 3478.59 -312.041 3331.23 -734.396 3088.21Z" stroke="url(#paint76_linear_9335_53332)" stroke-width="2"/>
<path d="M-745.409 3081.73C-1162.77 2831.22 -1491.71 2532.54 -1686.17 2252.2C-1783.41 2112.02 -1846.99 1976.47 -1871.22 1853.84C-1895.44 1731.22 -1880.32 1621.59 -1820.22 1533.14C-1760.12 1444.69 -1660.65 1385.68 -1532.1 1354.76C-1403.54 1323.84 -1245.95 1321.05 -1069.74 1345C-717.335 1392.89 -290.67 1547.75 126.687 1798.26C544.045 2048.77 872.991 2347.45 1067.45 2627.79C1164.68 2767.97 1228.27 2903.52 1252.5 3026.15C1276.72 3148.77 1261.59 3258.4 1201.5 3346.85C1141.4 3435.3 1041.93 3494.31 913.377 3525.23C784.816 3556.14 627.225 3558.94 451.021 3534.99C98.6141 3487.1 -328.051 3332.23 -745.409 3081.73Z" stroke="url(#paint77_linear_9335_53332)" stroke-width="2"/>
<path d="M-756.296 3075.05C-1168.53 2817.13 -1491.62 2512.5 -1680.75 2228.51C-1775.32 2086.51 -1836.37 1949.72 -1858.36 1826.53C-1880.34 1703.35 -1863.27 1593.85 -1801.67 1506.32C-1740.07 1418.79 -1639.69 1361.4 -1510.77 1332.64C-1381.84 1303.88 -1224.44 1303.76 -1048.93 1330.74C-697.905 1384.7 -274.658 1547.02 137.575 1804.93C549.808 2062.85 872.895 2367.49 1062.03 2651.48C1156.59 2793.47 1217.65 2930.27 1239.63 3053.45C1261.62 3176.63 1244.54 3286.14 1182.94 3373.67C1121.34 3461.2 1020.97 3518.59 892.048 3547.35C763.122 3576.11 605.716 3576.23 430.204 3549.25C79.1831 3495.29 -344.063 3332.97 -756.296 3075.05Z" stroke="url(#paint78_linear_9335_53332)" stroke-width="2"/>
<path d="M-767.052 3068.19C-1174.04 2802.95 -1491.17 2492.44 -1674.91 2204.89C-1766.78 2061.12 -1825.29 1923.12 -1845.03 1799.41C-1864.77 1675.72 -1845.75 1566.37 -1782.67 1479.79C-1719.58 1393.2 -1618.32 1337.46 -1489.08 1310.86C-1359.83 1284.26 -1202.65 1286.82 -1027.89 1316.83C-678.359 1376.84 -258.661 1546.56 148.323 1811.8C555.306 2077.05 872.436 2387.55 1056.18 2675.1C1148.05 2818.88 1206.56 2956.88 1226.3 3080.58C1246.04 3204.28 1227.02 3313.63 1163.94 3400.21C1100.85 3486.79 999.592 3542.54 870.348 3569.14C741.097 3595.74 583.923 3593.17 409.158 3563.17C59.6295 3503.16 -360.069 3333.44 -767.052 3068.19Z" stroke="url(#paint79_linear_9335_53332)" stroke-width="2"/>
<path d="M-777.662 3061.14C-1179.27 2788.65 -1490.35 2472.37 -1668.65 2181.35C-1757.8 2035.84 -1813.74 1896.68 -1831.22 1772.49C-1848.71 1648.31 -1827.75 1539.16 -1763.21 1453.55C-1698.66 1367.94 -1596.55 1313.85 -1467.02 1289.42C-1337.48 1265 -1180.59 1270.24 -1006.62 1303.26C-658.695 1369.3 -242.672 1546.37 158.938 1818.87C560.548 2091.37 871.624 2407.64 1049.93 2698.66C1139.08 2844.17 1195.01 2983.33 1212.5 3107.52C1229.99 3231.7 1209.03 3340.85 1144.49 3426.46C1079.94 3512.08 977.826 3566.16 848.297 3590.59C718.76 3615.02 561.866 3609.77 387.9 3576.75C39.9707 3510.72 -376.052 3333.64 -777.662 3061.14Z" stroke="url(#paint80_linear_9335_53332)" stroke-width="2"/>
<path d="M-788.142 3053.89C-1184.26 2774.23 -1489.18 2452.28 -1661.99 2157.87C-1748.39 2010.67 -1801.74 1870.39 -1816.97 1745.76C-1832.2 1621.14 -1809.31 1512.21 -1743.32 1427.6C-1677.34 1342.99 -1574.4 1290.58 -1444.62 1268.33C-1314.84 1246.08 -1158.28 1254 -985.162 1290.03C-638.938 1362.07 -226.717 1546.44 169.396 1826.11C565.51 2105.77 870.438 2427.72 1043.24 2722.13C1129.65 2869.33 1183 3009.61 1198.23 3134.24C1213.46 3258.86 1190.57 3367.79 1124.58 3452.4C1058.59 3537.01 955.655 3589.42 825.879 3611.67C696.096 3633.92 539.53 3626 366.416 3589.97C20.1917 3517.93 -392.029 3333.56 -788.142 3053.89Z" stroke="url(#paint81_linear_9335_53332)" stroke-width="2"/>
<path d="M-798.411 3046.43C-1188.91 2759.68 -1487.59 2432.15 -1654.85 2134.46C-1738.48 1985.61 -1789.23 1844.26 -1802.19 1719.22C-1815.16 1594.18 -1790.35 1485.52 -1722.94 1401.93C-1655.52 1318.34 -1551.8 1267.62 -1421.82 1247.56C-1291.83 1227.5 -1135.64 1238.1 -963.428 1277.12C-619.014 1355.14 -210.721 1546.76 179.775 1833.51C570.272 2120.25 868.958 2447.78 1036.21 2745.48C1119.84 2894.33 1170.59 3035.68 1183.56 3160.72C1196.52 3285.75 1171.71 3394.42 1104.3 3478C1036.89 3561.59 933.164 3612.31 803.181 3632.38C673.191 3652.44 517.001 3641.83 344.792 3602.82C0.378428 3524.79 -407.914 3333.17 -798.411 3046.43Z" stroke="url(#paint82_linear_9335_53332)" stroke-width="2"/>
<path d="M-808.587 3038.81C-1193.35 2745.07 -1485.7 2412.07 -1647.36 2111.17C-1728.19 1960.72 -1776.32 1818.33 -1787.02 1692.92C-1797.72 1567.52 -1770.99 1459.15 -1702.17 1376.61C-1633.36 1294.07 -1528.88 1245.06 -1398.73 1227.19C-1268.57 1209.32 -1112.8 1222.6 -941.551 1264.59C-599.052 1348.59 -194.812 1547.39 189.949 1841.13C574.71 2134.87 867.064 2467.87 1028.72 2768.77C1109.55 2919.23 1157.68 3061.61 1168.38 3187.02C1179.08 3312.42 1152.35 3420.79 1083.54 3503.33C1014.72 3585.87 910.238 3634.88 780.088 3652.75C649.931 3670.62 494.163 3657.34 322.913 3615.35C-19.5857 3531.36 -423.826 3332.55 -808.587 3038.81Z" stroke="url(#paint83_linear_9335_53332)" stroke-width="2"/>
<path d="M-818.622 3031.01C-1197.53 2730.37 -1483.46 2391.99 -1639.47 2087.97C-1717.47 1935.97 -1762.97 1792.6 -1771.4 1666.86C-1779.83 1541.12 -1751.2 1433.08 -1681 1351.62C-1610.8 1270.15 -1505.59 1222.86 -1375.32 1207.19C-1245.03 1191.51 -1089.73 1207.46 -919.493 1252.43C-579.014 1342.35 -178.949 1548.28 199.959 1848.93C578.867 2149.57 864.8 2487.95 1020.81 2791.97C1098.81 2943.97 1144.31 3087.34 1152.74 3213.08C1161.17 3338.82 1132.53 3446.86 1062.34 3528.32C992.139 3609.79 886.931 3657.08 756.653 3672.75C626.368 3688.43 471.071 3672.48 300.83 3627.51C-39.6488 3537.59 -439.714 3331.66 -818.622 3031.01Z" stroke="url(#paint84_linear_9335_53332)" stroke-width="2"/>
<path d="M-828.489 3023.02C-1201.43 2715.57 -1480.85 2371.91 -1631.16 2064.88C-1706.32 1911.37 -1749.17 1767.05 -1755.33 1641.02C-1761.49 1514.99 -1730.95 1407.31 -1659.39 1326.95C-1587.84 1246.58 -1481.93 1201.03 -1351.57 1187.56C-1221.19 1174.08 -1066.42 1192.7 -897.237 1240.62C-558.881 1336.45 -163.113 1549.44 209.827 1856.9C582.766 2164.36 862.191 2508.01 1012.5 2815.04C1087.66 2968.56 1130.51 3112.88 1136.67 3238.91C1142.82 3364.93 1112.29 3472.62 1040.73 3552.98C969.172 3633.35 863.27 3678.9 732.905 3692.37C602.532 3705.84 447.753 3687.23 278.574 3639.31C-59.7818 3543.47 -455.55 3330.48 -828.489 3023.02Z" stroke="url(#paint85_linear_9335_53332)" stroke-width="2"/>
<path d="M-838.189 3014.88C-1205.05 2700.71 -1477.88 2351.88 -1622.44 2041.93C-1694.73 1886.95 -1734.93 1741.73 -1738.81 1615.45C-1742.69 1489.17 -1710.26 1381.88 -1637.37 1302.64C-1564.47 1223.4 -1457.91 1179.6 -1327.49 1168.33C-1197.07 1157.06 -1042.86 1178.34 -874.792 1229.2C-538.662 1330.91 -147.312 1550.9 219.545 1865.08C586.403 2179.26 859.234 2528.08 1003.8 2838.03C1076.08 2993.01 1116.28 3138.23 1120.16 3264.51C1124.05 3390.79 1091.62 3498.08 1018.72 3577.32C945.826 3656.57 839.263 3700.36 708.849 3711.63C578.428 3722.9 424.214 3701.62 256.148 3650.77C-79.9815 3549.05 -471.332 3329.06 -838.189 3014.88Z" stroke="url(#paint86_linear_9335_53332)" stroke-width="2"/>
<path d="M-847.747 3006.54C-1208.41 2685.74 -1474.57 2331.85 -1613.34 2019.07C-1682.74 1862.68 -1720.26 1716.6 -1721.87 1590.1C-1723.47 1463.61 -1689.17 1356.74 -1614.95 1278.65C-1540.74 1200.56 -1433.55 1158.52 -1303.13 1149.46C-1172.7 1140.4 -1019.09 1164.33 -852.193 1218.12C-518.393 1325.68 -131.579 1552.6 229.084 1873.4C589.748 2194.2 855.903 2548.09 994.682 2860.87C1064.07 3017.26 1101.6 3163.34 1103.21 3289.84C1104.81 3416.33 1070.5 3523.2 996.292 3601.29C922.079 3679.39 814.886 3721.42 684.464 3730.48C554.035 3739.54 400.433 3715.61 233.531 3661.82C-100.27 3554.26 -487.083 3327.34 -847.747 3006.54Z" stroke="url(#paint87_linear_9335_53332)" stroke-width="2"/>
<path d="M-857.121 2998.04C-1211.48 2670.71 -1470.88 2311.88 -1603.83 1996.36C-1670.3 1838.6 -1705.15 1691.71 -1704.48 1565.03C-1703.81 1438.36 -1667.63 1331.95 -1592.13 1255.03C-1516.62 1178.11 -1408.83 1137.85 -1278.44 1131.01C-1148.04 1124.16 -995.097 1150.74 -829.41 1207.43C-498.04 1320.81 -115.881 1554.58 238.479 1881.91C592.84 2209.24 852.237 2568.08 985.187 2883.6C1051.66 3041.36 1086.51 3188.25 1085.84 3314.93C1085.17 3441.6 1048.99 3548 973.484 3624.92C897.978 3701.85 790.188 3742.1 659.797 3748.95C529.399 3755.8 376.455 3729.22 210.769 3672.53C-120.601 3559.15 -502.76 3325.37 -857.121 2998.04Z" stroke="url(#paint88_linear_9335_53332)" stroke-width="2"/>
<path d="M-866.344 2989.37C-1214.29 2655.61 -1466.85 2291.93 -1593.93 1973.77C-1657.47 1814.69 -1689.63 1667.03 -1686.68 1540.22C-1683.74 1413.41 -1645.7 1307.49 -1568.92 1231.77C-1492.14 1156.04 -1383.79 1117.57 -1253.47 1112.94C-1123.14 1108.31 -970.906 1137.52 -806.485 1197.1C-477.646 1316.27 -100.259 1556.83 247.69 1890.59C595.64 2224.34 848.2 2588.03 975.281 2906.19C1038.82 3065.27 1070.97 3212.92 1068.03 3339.74C1065.08 3466.55 1027.04 3572.46 950.268 3648.19C873.491 3723.91 765.138 3762.38 634.818 3767.01C504.49 3771.65 352.252 3742.43 187.832 3682.85C-141.007 3563.69 -518.395 3323.12 -866.344 2989.37Z" stroke="url(#paint89_linear_9335_53332)" stroke-width="2"/>
<path d="M-875.391 2980.51C-1216.82 2640.43 -1462.47 2272.02 -1583.64 1951.32C-1704.85 1630.52 -1701.38 1357.88 -1545.33 1208.86C-1389.28 1059.84 -1109.71 1062.21 -783.402 1187.15C-457.194 1312.06 -84.693 1559.34 256.739 1899.42C598.171 2239.5 843.818 2607.92 964.99 2928.62C1086.2 3249.42 1082.73 3522.06 926.675 3671.07C770.624 3820.09 491.055 3817.73 164.75 3692.78C-161.458 3567.88 -533.959 3320.59 -875.391 2980.51Z" stroke="url(#paint90_linear_9335_53332)" stroke-width="2"/>
<path d="M-884.255 2971.51C-1219.07 2625.21 -1457.72 2252.17 -1572.95 1929.02C-1688.21 1605.78 -1679.85 1332.88 -1521.35 1186.34C-1362.85 1039.81 -1083.74 1046.94 -760.164 1177.59C-436.687 1308.21 -69.1853 1562.13 265.625 1908.43C600.435 2254.73 839.094 2627.78 954.321 2950.92C1069.58 3274.16 1061.22 3547.07 902.716 3693.6C744.218 3840.13 465.107 3833 141.534 3702.35C-181.943 3571.74 -549.445 3317.81 -884.255 2971.51Z" stroke="url(#paint91_linear_9335_53332)" stroke-width="2"/>
<path d="M-892.965 2962.35C-1221.05 2609.93 -1452.65 2232.38 -1561.9 1906.89C-1671.17 1581.3 -1657.91 1308.22 -1497.02 1164.21C-1336.12 1020.2 -1057.55 1032.1 -736.809 1168.42C-416.162 1304.7 -53.7713 1565.19 274.316 1917.61C602.402 2270.02 834 2647.57 943.246 2973.06C1052.53 3298.65 1039.27 3571.74 878.368 3715.74C717.471 3859.75 438.903 3847.86 118.16 3711.53C-202.487 3575.25 -564.878 3314.76 -892.965 2962.35Z" stroke="url(#paint92_linear_9335_53332)" stroke-width="2"/>
<path d="M-901.483 2953.01C-1222.75 2594.58 -1447.21 2212.64 -1550.45 1884.9C-1653.71 1557.07 -1635.56 1283.89 -1472.31 1142.45C-1309.07 1001.02 -1031.13 1017.67 -713.311 1159.62C-395.591 1301.53 -38.4224 1568.5 282.841 1926.93C604.105 2285.35 828.571 2667.3 931.804 2995.03C1035.07 3322.87 1016.92 3596.05 853.671 3737.49C690.424 3878.92 412.485 3862.27 94.6695 3720.31C-223.051 3578.41 -580.22 3311.43 -901.483 2953.01Z" stroke="url(#paint93_linear_9335_53332)" stroke-width="2"/>
<path d="M-909.831 2943.52C-1224.17 2579.2 -1441.44 2192.98 -1538.63 1863.09C-1635.84 1533.11 -1612.81 1259.91 -1447.26 1121.09C-1281.72 982.27 -1004.49 1003.68 -689.7 1151.22C-375.003 1298.71 -23.1645 1572.09 291.178 1936.41C605.521 2300.73 822.787 2686.95 919.975 3016.84C1017.19 3346.82 994.158 3620.02 828.611 3758.84C663.064 3897.66 385.837 3876.25 71.0471 3728.71C-243.65 3581.22 -595.488 3307.84 -909.831 2943.52Z" stroke="url(#paint94_linear_9335_53332)" stroke-width="2"/>
<path d="M-917.992 2933.89C-1225.32 2563.77 -1435.32 2173.39 -1526.43 1841.46C-1617.57 1509.43 -1589.66 1236.3 -1421.86 1100.14C-1254.07 963.979 -977.638 990.143 -665.969 1143.22C-354.391 1296.25 -7.99108 1575.94 299.335 1946.05C606.66 2316.17 816.661 2706.55 907.774 3038.48C998.914 3370.51 971.004 3643.64 803.208 3779.8C635.411 3915.96 358.981 3889.8 47.3119 3736.72C-264.265 3583.69 -610.666 3304 -917.992 2933.89Z" stroke="url(#paint95_linear_9335_53332)" stroke-width="2"/>
<path d="M-925.967 2924.09C-1226.18 2548.31 -1428.85 2153.88 -1513.86 1820.01C-1598.9 1486.03 -1566.12 1213.06 -1396.13 1079.59C-1226.13 946.127 -950.583 977.034 -642.129 1135.6C-333.767 1294.12 7.09071 1580.05 307.306 1955.84C607.521 2331.63 810.192 2726.05 895.202 3059.92C980.238 3393.9 947.46 3666.88 777.465 3800.34C607.47 3933.8 331.922 3902.9 23.4682 3744.33C-284.894 3585.81 -625.752 3299.88 -925.967 2924.09Z" stroke="url(#paint96_linear_9335_53332)" stroke-width="2"/>
<path d="M-933.759 2914.16C-1226.77 2532.81 -1422.05 2134.47 -1500.93 1798.75C-1579.84 1462.93 -1542.2 1190.19 -1370.06 1059.46C-1197.92 928.734 -923.337 964.374 -618.193 1128.39C-313.138 1292.35 22.0721 1584.42 315.086 1965.77C608.099 2347.12 803.377 2745.46 882.26 3081.18C961.165 3417 923.529 3689.75 751.388 3820.47C579.246 3951.2 304.664 3915.56 -0.48126 3751.54C-305.536 3587.58 -640.746 3295.51 -933.759 2914.16Z" stroke="url(#paint97_linear_9335_53332)" stroke-width="2"/>
<path d="M-941.336 2904.09C-1227.06 2517.3 -1414.89 2115.16 -1487.62 1777.7C-1560.37 1440.14 -1517.88 1167.71 -1343.65 1039.77C-1169.41 911.821 -895.88 952.182 -594.137 1121.59C-292.484 1290.94 36.977 1589.08 322.699 1975.87C608.422 2362.67 796.249 2764.81 868.979 3102.27C941.73 3439.83 899.247 3712.25 725.012 3840.2C550.776 3968.15 277.243 3927.78 -24.4996 3758.38C-326.153 3589.02 -655.614 3290.89 -941.336 2904.09Z" stroke="url(#paint98_linear_9335_53332)" stroke-width="2"/>
<path d="M-948.75 2893.85C-1227.09 2501.73 -1407.41 2095.91 -1473.97 1756.81C-1540.54 1417.61 -1493.23 1145.59 -1316.95 1020.46C-1140.67 895.335 -868.274 940.406 -570.026 1115.16C-271.866 1289.85 51.7461 1593.96 330.09 1986.08C608.434 2378.2 788.753 2784.02 855.309 3123.12C921.884 3462.32 874.567 3734.34 698.291 3859.47C522.015 3984.59 249.613 3939.52 -48.6347 3764.77C-346.795 3590.08 -670.406 3285.97 -948.75 2893.85Z" stroke="url(#paint99_linear_9335_53332)" stroke-width="2"/>
</g>
<defs>
<linearGradient id="paint0_linear_9335_53332" x1="-612.167" y1="2143.9" x2="-16.2565" y2="2767.94" gradientUnits="userSpaceOnUse">
<stop stop-color="#4F46E5"/>
<stop offset="1" stop-color="#4F46E5"/>
</linearGradient>
<linearGradient id="paint1_linear_9335_53332" x1="-606.391" y1="2138.39" x2="-20.8591" y2="2771.73" gradientUnits="userSpaceOnUse">
<stop stop-color="#4F46E5"/>
<stop offset="1" stop-color="#4F46E5"/>
</linearGradient>
<linearGradient id="paint2_linear_9335_53332" x1="-600.527" y1="2132.98" x2="-25.4858" y2="2775.47" gradientUnits="userSpaceOnUse">
<stop stop-color="#4F46E5"/>
<stop offset="1" stop-color="#4F46E5"/>
</linearGradient>
<linearGradient id="paint3_linear_9335_53332" x1="-594.575" y1="2127.64" x2="-30.1362" y2="2779.13" gradientUnits="userSpaceOnUse">
<stop stop-color="#4F46E5"/>
<stop offset="1" stop-color="#4F46E5"/>
</linearGradient>
<linearGradient id="paint4_linear_9335_53332" x1="-588.538" y1="2122.41" x2="-34.8107" y2="2782.75" gradientUnits="userSpaceOnUse">
<stop stop-color="#4F46E5"/>
<stop offset="1" stop-color="#4F46E5"/>
</linearGradient>
<linearGradient id="paint5_linear_9335_53332" x1="-582.416" y1="2117.28" x2="-39.5092" y2="2786.32" gradientUnits="userSpaceOnUse">
<stop stop-color="#4F46E5"/>
<stop offset="1" stop-color="#4F46E5"/>
</linearGradient>
<linearGradient id="paint6_linear_9335_53332" x1="-576.206" y1="2112.26" x2="-44.2289" y2="2789.84" gradientUnits="userSpaceOnUse">
<stop stop-color="#4F46E5"/>
<stop offset="1" stop-color="#4F46E5"/>
</linearGradient>
<linearGradient id="paint7_linear_9335_53332" x1="-569.92" y1="2107.3" x2="-48.9801" y2="2793.28" gradientUnits="userSpaceOnUse">
<stop stop-color="#4F46E5"/>
<stop offset="1" stop-color="#4F46E5"/>
</linearGradient>
<linearGradient id="paint8_linear_9335_53332" x1="-563.551" y1="2102.48" x2="-53.7555" y2="2796.71" gradientUnits="userSpaceOnUse">
<stop stop-color="#4F46E5"/>
<stop offset="1" stop-color="#4F46E5"/>
</linearGradient>
<linearGradient id="paint9_linear_9335_53332" x1="-557.1" y1="2097.75" x2="-58.556" y2="2800.08" gradientUnits="userSpaceOnUse">
<stop stop-color="#4F46E5"/>
<stop offset="1" stop-color="#4F46E5"/>
</linearGradient>
<linearGradient id="paint10_linear_9335_53332" x1="-550.587" y1="2093.12" x2="-63.4004" y2="2803.4" gradientUnits="userSpaceOnUse">
<stop stop-color="#4F46E5"/>
<stop offset="1" stop-color="#4F46E5"/>
</linearGradient>
<linearGradient id="paint11_linear_9335_53332" x1="-543.989" y1="2088.59" x2="-68.2664" y2="2806.67" gradientUnits="userSpaceOnUse">
<stop stop-color="#4F46E5"/>
<stop offset="1" stop-color="#4F46E5"/>
</linearGradient>
<linearGradient id="paint12_linear_9335_53332" x1="-537.325" y1="2084.19" x2="-73.1724" y2="2809.92" gradientUnits="userSpaceOnUse">
<stop stop-color="#4F46E5"/>
<stop offset="1" stop-color="#4F46E5"/>
</linearGradient>
<linearGradient id="paint13_linear_9335_53332" x1="-530.587" y1="2079.87" x2="-78.1101" y2="2813.1" gradientUnits="userSpaceOnUse">
<stop stop-color="#4F46E5"/>
<stop offset="1" stop-color="#4F46E5"/>
</linearGradient>
<linearGradient id="paint14_linear_9335_53332" x1="-523.793" y1="2075.67" x2="-83.0975" y2="2816.24" gradientUnits="userSpaceOnUse">
<stop stop-color="#4F46E5"/>
<stop offset="1" stop-color="#4F46E5"/>
</linearGradient>
<linearGradient id="paint15_linear_9335_53332" x1="-516.91" y1="2071.6" x2="-88.1006" y2="2819.36" gradientUnits="userSpaceOnUse">
<stop stop-color="#4F46E5"/>
<stop offset="1" stop-color="#4F46E5"/>
</linearGradient>
<linearGradient id="paint16_linear_9335_53332" x1="-509.987" y1="2067.62" x2="-93.1702" y2="2822.43" gradientUnits="userSpaceOnUse">
<stop stop-color="#4F46E5"/>
<stop offset="1" stop-color="#4F46E5"/>
</linearGradient>
<linearGradient id="paint17_linear_9335_53332" x1="-502.993" y1="2063.75" x2="-98.2725" y2="2825.44" gradientUnits="userSpaceOnUse">
<stop stop-color="#4F46E5"/>
<stop offset="1" stop-color="#4F46E5"/>
</linearGradient>
<linearGradient id="paint18_linear_9335_53332" x1="-495.938" y1="2060.03" x2="-103.421" y2="2828.45" gradientUnits="userSpaceOnUse">
<stop stop-color="#4F46E5"/>
<stop offset="1" stop-color="#4F46E5"/>
</linearGradient>
<linearGradient id="paint19_linear_9335_53332" x1="-488.83" y1="2056.39" x2="-108.62" y2="2831.38" gradientUnits="userSpaceOnUse">
<stop stop-color="#4F46E5"/>
<stop offset="1" stop-color="#4F46E5"/>
</linearGradient>
<linearGradient id="paint20_linear_9335_53332" x1="-481.666" y1="2052.88" x2="-113.869" y2="2834.29" gradientUnits="userSpaceOnUse">
<stop stop-color="#4F46E5"/>
<stop offset="1" stop-color="#4F46E5"/>
</linearGradient>
<linearGradient id="paint21_linear_9335_53332" x1="-474.445" y1="2049.49" x2="-119.167" y2="2837.15" gradientUnits="userSpaceOnUse">
<stop stop-color="#4F46E5"/>
<stop offset="1" stop-color="#4F46E5"/>
</linearGradient>
<linearGradient id="paint22_linear_9335_53332" x1="-467.194" y1="2046.2" x2="-124.539" y2="2839.96" gradientUnits="userSpaceOnUse">
<stop stop-color="#4F46E5"/>
<stop offset="1" stop-color="#4F46E5"/>
</linearGradient>
<linearGradient id="paint23_linear_9335_53332" x1="-459.876" y1="2043.05" x2="-129.951" y2="2842.75" gradientUnits="userSpaceOnUse">
<stop stop-color="#4F46E5"/>
<stop offset="1" stop-color="#4F46E5"/>
</linearGradient>
<linearGradient id="paint24_linear_9335_53332" x1="-452.515" y1="2040.01" x2="-135.423" y2="2845.47" gradientUnits="userSpaceOnUse">
<stop stop-color="#4F46E5"/>
<stop offset="1" stop-color="#4F46E5"/>
</linearGradient>
<linearGradient id="paint25_linear_9335_53332" x1="-445.115" y1="2037.1" x2="-140.963" y2="2848.17" gradientUnits="userSpaceOnUse">
<stop stop-color="#4F46E5"/>
<stop offset="1" stop-color="#4F46E5"/>
</linearGradient>
<linearGradient id="paint26_linear_9335_53332" x1="-437.672" y1="2034.3" x2="-146.565" y2="2850.81" gradientUnits="userSpaceOnUse">
<stop stop-color="#4F46E5"/>
<stop offset="1" stop-color="#4F46E5"/>
</linearGradient>
<linearGradient id="paint27_linear_9335_53332" x1="-430.188" y1="2031.64" x2="-152.231" y2="2853.41" gradientUnits="userSpaceOnUse">
<stop stop-color="#4F46E5"/>
<stop offset="1" stop-color="#4F46E5"/>
</linearGradient>
<linearGradient id="paint28_linear_9335_53332" x1="-422.66" y1="2029.1" x2="-157.957" y2="2855.96" gradientUnits="userSpaceOnUse">
<stop stop-color="#4F46E5"/>
<stop offset="1" stop-color="#4F46E5"/>
</linearGradient>
<linearGradient id="paint29_linear_9335_53332" x1="-415.107" y1="2026.67" x2="-163.764" y2="2858.45" gradientUnits="userSpaceOnUse">
<stop stop-color="#4F46E5"/>
<stop offset="1" stop-color="#4F46E5"/>
</linearGradient>
<linearGradient id="paint30_linear_9335_53332" x1="-407.521" y1="2024.39" x2="-169.643" y2="2860.9" gradientUnits="userSpaceOnUse">
<stop stop-color="#4F46E5"/>
<stop offset="1" stop-color="#4F46E5"/>
</linearGradient>
<linearGradient id="paint31_linear_9335_53332" x1="-399.912" y1="2022.22" x2="-175.602" y2="2863.29" gradientUnits="userSpaceOnUse">
<stop stop-color="#4F46E5"/>
<stop offset="1" stop-color="#4F46E5"/>
</linearGradient>
<linearGradient id="paint32_linear_9335_53332" x1="-392.26" y1="2020.19" x2="-181.622" y2="2865.64" gradientUnits="userSpaceOnUse">
<stop stop-color="#4F46E5"/>
<stop offset="1" stop-color="#4F46E5"/>
</linearGradient>
<linearGradient id="paint33_linear_9335_53332" x1="-384.585" y1="2018.28" x2="-187.722" y2="2867.91" gradientUnits="userSpaceOnUse">
<stop stop-color="#4F46E5"/>
<stop offset="1" stop-color="#4F46E5"/>
</linearGradient>
<linearGradient id="paint34_linear_9335_53332" x1="-376.888" y1="2016.51" x2="-193.903" y2="2870.14" gradientUnits="userSpaceOnUse">
<stop stop-color="#4F46E5"/>
<stop offset="1" stop-color="#4F46E5"/>
</linearGradient>
<linearGradient id="paint35_linear_9335_53332" x1="-369.188" y1="2014.85" x2="-200.183" y2="2872.28" gradientUnits="userSpaceOnUse">
<stop stop-color="#4F46E5"/>
<stop offset="1" stop-color="#4F46E5"/>
</linearGradient>
<linearGradient id="paint36_linear_9335_53332" x1="-361.447" y1="2013.34" x2="-206.523" y2="2874.38" gradientUnits="userSpaceOnUse">
<stop stop-color="#4F46E5"/>
<stop offset="1" stop-color="#4F46E5"/>
</linearGradient>
<linearGradient id="paint37_linear_9335_53332" x1="-353.706" y1="2011.93" x2="-212.963" y2="2876.38" gradientUnits="userSpaceOnUse">
<stop stop-color="#4F46E5"/>
<stop offset="1" stop-color="#4F46E5"/>
</linearGradient>
<linearGradient id="paint38_linear_9335_53332" x1="-345.944" y1="2010.67" x2="-219.481" y2="2878.33" gradientUnits="userSpaceOnUse">
<stop stop-color="#4F46E5"/>
<stop offset="1" stop-color="#4F46E5"/>
</linearGradient>
<linearGradient id="paint39_linear_9335_53332" x1="-338.171" y1="2009.54" x2="-226.086" y2="2880.2" gradientUnits="userSpaceOnUse">
<stop stop-color="#4F46E5"/>
<stop offset="1" stop-color="#4F46E5"/>
</linearGradient>
<linearGradient id="paint40_linear_9335_53332" x1="-330.387" y1="2008.54" x2="-232.777" y2="2881.99" gradientUnits="userSpaceOnUse">
<stop stop-color="#4F46E5"/>
<stop offset="1" stop-color="#4F46E5"/>
</linearGradient>
<linearGradient id="paint41_linear_9335_53332" x1="-322.604" y1="2007.68" x2="-239.564" y2="2883.71" gradientUnits="userSpaceOnUse">
<stop stop-color="#4F46E5"/>
<stop offset="1" stop-color="#4F46E5"/>
</linearGradient>
<linearGradient id="paint42_linear_9335_53332" x1="-314.814" y1="2006.93" x2="-246.437" y2="2885.32" gradientUnits="userSpaceOnUse">
<stop stop-color="#4F46E5"/>
<stop offset="1" stop-color="#4F46E5"/>
</linearGradient>
<linearGradient id="paint43_linear_9335_53332" x1="-307.018" y1="2006.34" x2="-253.396" y2="2886.86" gradientUnits="userSpaceOnUse">
<stop stop-color="#4F46E5"/>
<stop offset="1" stop-color="#4F46E5"/>
</linearGradient>
<linearGradient id="paint44_linear_9335_53332" x1="-299.232" y1="2005.86" x2="-260.454" y2="2888.29" gradientUnits="userSpaceOnUse">
<stop stop-color="#4F46E5"/>
<stop offset="1" stop-color="#4F46E5"/>
</linearGradient>
<linearGradient id="paint45_linear_9335_53332" x1="-291.441" y1="2005.51" x2="-267.595" y2="2889.62" gradientUnits="userSpaceOnUse">
<stop stop-color="#4F46E5"/>
<stop offset="1" stop-color="#4F46E5"/>
</linearGradient>
<linearGradient id="paint46_linear_9335_53332" x1="-283.65" y1="2005.32" x2="-274.82" y2="2890.87" gradientUnits="userSpaceOnUse">
<stop stop-color="#4F46E5"/>
<stop offset="1" stop-color="#4F46E5"/>
</linearGradient>
<linearGradient id="paint47_linear_9335_53332" x1="-275.877" y1="2005.24" x2="-282.146" y2="2891.99" gradientUnits="userSpaceOnUse">
<stop stop-color="#4F46E5"/>
<stop offset="1" stop-color="#4F46E5"/>
</linearGradient>
<linearGradient id="paint48_linear_9335_53332" x1="-268.108" y1="2005.29" x2="-289.554" y2="2893.01" gradientUnits="userSpaceOnUse">
<stop stop-color="#4F46E5"/>
<stop offset="1" stop-color="#4F46E5"/>
</linearGradient>
<linearGradient id="paint49_linear_9335_53332" x1="-260.365" y1="2005.47" x2="-297.066" y2="2893.9" gradientUnits="userSpaceOnUse">
<stop stop-color="#4F46E5"/>
<stop offset="1" stop-color="#4F46E5"/>
</linearGradient>
<linearGradient id="paint50_linear_9335_53332" x1="-252.621" y1="2005.79" x2="-304.65" y2="2894.68" gradientUnits="userSpaceOnUse">
<stop stop-color="#4F46E5"/>
<stop offset="1" stop-color="#4F46E5"/>
</linearGradient>
<linearGradient id="paint51_linear_9335_53332" x1="-244.896" y1="2006.25" x2="-312.322" y2="2895.34" gradientUnits="userSpaceOnUse">
<stop stop-color="#4F46E5"/>
<stop offset="1" stop-color="#4F46E5"/>
</linearGradient>
<linearGradient id="paint52_linear_9335_53332" x1="-237.193" y1="2006.84" x2="-320.083" y2="2895.87" gradientUnits="userSpaceOnUse">
<stop stop-color="#4F46E5"/>
<stop offset="1" stop-color="#4F46E5"/>
</linearGradient>
<linearGradient id="paint53_linear_9335_53332" x1="-229.523" y1="2007.56" x2="-327.939" y2="2896.27" gradientUnits="userSpaceOnUse">
<stop stop-color="#4F46E5"/>
<stop offset="1" stop-color="#4F46E5"/>
</linearGradient>
<linearGradient id="paint54_linear_9335_53332" x1="-221.865" y1="2008.4" x2="-335.864" y2="2896.51" gradientUnits="userSpaceOnUse">
<stop stop-color="#4F46E5"/>
<stop offset="1" stop-color="#4F46E5"/>
</linearGradient>
<linearGradient id="paint55_linear_9335_53332" x1="-214.231" y1="2009.38" x2="-343.866" y2="2896.62" gradientUnits="userSpaceOnUse">
<stop stop-color="#4F46E5"/>
<stop offset="1" stop-color="#4F46E5"/>
</linearGradient>
<linearGradient id="paint56_linear_9335_53332" x1="-206.637" y1="2010.49" x2="-351.957" y2="2896.58" gradientUnits="userSpaceOnUse">
<stop stop-color="#4F46E5"/>
<stop offset="1" stop-color="#4F46E5"/>
</linearGradient>
<linearGradient id="paint57_linear_9335_53332" x1="-199.066" y1="2011.76" x2="-360.115" y2="2896.42" gradientUnits="userSpaceOnUse">
<stop stop-color="#4F46E5"/>
<stop offset="1" stop-color="#4F46E5"/>
</linearGradient>
<linearGradient id="paint58_linear_9335_53332" x1="-191.544" y1="2013.11" x2="-368.36" y2="2896.06" gradientUnits="userSpaceOnUse">
<stop stop-color="#4F46E5"/>
<stop offset="1" stop-color="#4F46E5"/>
</linearGradient>
<linearGradient id="paint59_linear_9335_53332" x1="-184.036" y1="2014.62" x2="-376.651" y2="2895.55" gradientUnits="userSpaceOnUse">
<stop stop-color="#4F46E5"/>
<stop offset="1" stop-color="#4F46E5"/>
</linearGradient>
<linearGradient id="paint60_linear_9335_53332" x1="-176.576" y1="2016.25" x2="-385.018" y2="2894.88" gradientUnits="userSpaceOnUse">
<stop stop-color="#4F46E5"/>
<stop offset="1" stop-color="#4F46E5"/>
</linearGradient>
<linearGradient id="paint61_linear_9335_53332" x1="-169.159" y1="2018" x2="-393.449" y2="2894.03" gradientUnits="userSpaceOnUse">
<stop stop-color="#4F46E5"/>
<stop offset="1" stop-color="#4F46E5"/>
</linearGradient>
<linearGradient id="paint62_linear_9335_53332" x1="-161.775" y1="2019.9" x2="-401.927" y2="2893.01" gradientUnits="userSpaceOnUse">
<stop stop-color="#4F46E5"/>
<stop offset="1" stop-color="#4F46E5"/>
</linearGradient>
<linearGradient id="paint63_linear_9335_53332" x1="-154.451" y1="2021.91" x2="-410.474" y2="2891.81" gradientUnits="userSpaceOnUse">
<stop stop-color="#4F46E5"/>
<stop offset="1" stop-color="#4F46E5"/>
</linearGradient>
<linearGradient id="paint64_linear_9335_53332" x1="-147.165" y1="2024.07" x2="-419.06" y2="2890.43" gradientUnits="userSpaceOnUse">
<stop stop-color="#4F46E5"/>
<stop offset="1" stop-color="#4F46E5"/>
</linearGradient>
<linearGradient id="paint65_linear_9335_53332" x1="-139.925" y1="2026.35" x2="-427.686" y2="2888.88" gradientUnits="userSpaceOnUse">
<stop stop-color="#4F46E5"/>
<stop offset="1" stop-color="#4F46E5"/>
</linearGradient>
<linearGradient id="paint66_linear_9335_53332" x1="-132.738" y1="2028.75" x2="-436.353" y2="2887.12" gradientUnits="userSpaceOnUse">
<stop stop-color="#4F46E5"/>
<stop offset="1" stop-color="#4F46E5"/>
</linearGradient>
<linearGradient id="paint67_linear_9335_53332" x1="-125.61" y1="2031.26" x2="-445.057" y2="2885.15" gradientUnits="userSpaceOnUse">
<stop stop-color="#4F46E5"/>
<stop offset="1" stop-color="#4F46E5"/>
</linearGradient>
<linearGradient id="paint68_linear_9335_53332" x1="-118.532" y1="2033.91" x2="-453.783" y2="2883" gradientUnits="userSpaceOnUse">
<stop stop-color="#4F46E5"/>
<stop offset="1" stop-color="#4F46E5"/>
</linearGradient>
<linearGradient id="paint69_linear_9335_53332" x1="-111.515" y1="2036.68" x2="-462.533" y2="2880.64" gradientUnits="userSpaceOnUse">
<stop stop-color="#4F46E5"/>
<stop offset="1" stop-color="#4F46E5"/>
</linearGradient>
<linearGradient id="paint70_linear_9335_53332" x1="-104.561" y1="2039.56" x2="-471.302" y2="2878.07" gradientUnits="userSpaceOnUse">
<stop stop-color="#4F46E5"/>
<stop offset="1" stop-color="#4F46E5"/>
</linearGradient>
<linearGradient id="paint71_linear_9335_53332" x1="-97.6652" y1="2042.59" x2="-480.075" y2="2875.32" gradientUnits="userSpaceOnUse">
<stop stop-color="#4F46E5"/>
<stop offset="1" stop-color="#4F46E5"/>
</linearGradient>
<linearGradient id="paint72_linear_9335_53332" x1="-90.8361" y1="2045.73" x2="-488.854" y2="2872.35" gradientUnits="userSpaceOnUse">
<stop stop-color="#4F46E5"/>
<stop offset="1" stop-color="#4F46E5"/>
</linearGradient>
<linearGradient id="paint73_linear_9335_53332" x1="-84.0783" y1="2048.99" x2="-497.632" y2="2869.16" gradientUnits="userSpaceOnUse">
<stop stop-color="#4F46E5"/>
<stop offset="1" stop-color="#4F46E5"/>
</linearGradient>
<linearGradient id="paint74_linear_9335_53332" x1="-77.3746" y1="2052.37" x2="-506.385" y2="2865.76" gradientUnits="userSpaceOnUse">
<stop stop-color="#4F46E5"/>
<stop offset="1" stop-color="#4F46E5"/>
</linearGradient>
<linearGradient id="paint75_linear_9335_53332" x1="-70.7643" y1="2055.85" x2="-515.143" y2="2862.12" gradientUnits="userSpaceOnUse">
<stop stop-color="#4F46E5"/>
<stop offset="1" stop-color="#4F46E5"/>
</linearGradient>
<linearGradient id="paint76_linear_9335_53332" x1="-64.2168" y1="2059.47" x2="-523.864" y2="2858.3" gradientUnits="userSpaceOnUse">
<stop stop-color="#4F46E5"/>
<stop offset="1" stop-color="#4F46E5"/>
</linearGradient>
<linearGradient id="paint77_linear_9335_53332" x1="-57.7329" y1="2063.19" x2="-532.542" y2="2854.24" gradientUnits="userSpaceOnUse">
<stop stop-color="#4F46E5"/>
<stop offset="1" stop-color="#4F46E5"/>
</linearGradient>
<linearGradient id="paint78_linear_9335_53332" x1="-51.3338" y1="2067.03" x2="-541.186" y2="2849.97" gradientUnits="userSpaceOnUse">
<stop stop-color="#4F46E5"/>
<stop offset="1" stop-color="#4F46E5"/>
</linearGradient>
<linearGradient id="paint79_linear_9335_53332" x1="-45.0174" y1="2070.99" x2="-549.786" y2="2845.48" gradientUnits="userSpaceOnUse">
<stop stop-color="#4F46E5"/>
<stop offset="1" stop-color="#4F46E5"/>
</linearGradient>
<linearGradient id="paint80_linear_9335_53332" x1="-38.7741" y1="2075.07" x2="-558.323" y2="2840.78" gradientUnits="userSpaceOnUse">
<stop stop-color="#4F46E5"/>
<stop offset="1" stop-color="#4F46E5"/>
</linearGradient>
<linearGradient id="paint81_linear_9335_53332" x1="-32.6275" y1="2079.24" x2="-566.809" y2="2835.85" gradientUnits="userSpaceOnUse">
<stop stop-color="#4F46E5"/>
<stop offset="1" stop-color="#4F46E5"/>
</linearGradient>
<linearGradient id="paint82_linear_9335_53332" x1="-26.4989" y1="2083.5" x2="-575.156" y2="2830.67" gradientUnits="userSpaceOnUse">
<stop stop-color="#4F46E5"/>
<stop offset="1" stop-color="#4F46E5"/>
</linearGradient>
<linearGradient id="paint83_linear_9335_53332" x1="-20.513" y1="2087.9" x2="-583.48" y2="2825.31" gradientUnits="userSpaceOnUse">
<stop stop-color="#4F46E5"/>
<stop offset="1" stop-color="#4F46E5"/>
</linearGradient>
<linearGradient id="paint84_linear_9335_53332" x1="-14.6262" y1="2092.41" x2="-591.727" y2="2819.73" gradientUnits="userSpaceOnUse">
<stop stop-color="#4F46E5"/>
<stop offset="1" stop-color="#4F46E5"/>
</linearGradient>
<linearGradient id="paint85_linear_9335_53332" x1="-8.81677" y1="2097.01" x2="-599.864" y2="2813.94" gradientUnits="userSpaceOnUse">
<stop stop-color="#4F46E5"/>
<stop offset="1" stop-color="#4F46E5"/>
</linearGradient>
<linearGradient id="paint86_linear_9335_53332" x1="-3.08938" y1="2101.75" x2="-607.888" y2="2807.95" gradientUnits="userSpaceOnUse">
<stop stop-color="#4F46E5"/>
<stop offset="1" stop-color="#4F46E5"/>
</linearGradient>
<linearGradient id="paint87_linear_9335_53332" x1="2.5261" y1="2106.55" x2="-615.819" y2="2801.73" gradientUnits="userSpaceOnUse">
<stop stop-color="#4F46E5"/>
<stop offset="1" stop-color="#4F46E5"/>
</linearGradient>
<linearGradient id="paint88_linear_9335_53332" x1="8.06626" y1="2111.48" x2="-623.609" y2="2795.32" gradientUnits="userSpaceOnUse">
<stop stop-color="#4F46E5"/>
<stop offset="1" stop-color="#4F46E5"/>
</linearGradient>
<linearGradient id="paint89_linear_9335_53332" x1="13.4931" y1="2116.5" x2="-631.289" y2="2788.71" gradientUnits="userSpaceOnUse">
<stop stop-color="#4F46E5"/>
<stop offset="1" stop-color="#4F46E5"/>
</linearGradient>
<linearGradient id="paint90_linear_9335_53332" x1="18.8285" y1="2121.61" x2="-638.826" y2="2781.88" gradientUnits="userSpaceOnUse">
<stop stop-color="#4F46E5"/>
<stop offset="1" stop-color="#4F46E5"/>
</linearGradient>
<linearGradient id="paint91_linear_9335_53332" x1="24.0741" y1="2126.83" x2="-646.21" y2="2774.88" gradientUnits="userSpaceOnUse">
<stop stop-color="#4F46E5"/>
<stop offset="1" stop-color="#4F46E5"/>
</linearGradient>
<linearGradient id="paint92_linear_9335_53332" x1="29.1979" y1="2132.15" x2="-653.464" y2="2767.68" gradientUnits="userSpaceOnUse">
<stop stop-color="#4F46E5"/>
<stop offset="1" stop-color="#4F46E5"/>
</linearGradient>
<linearGradient id="paint93_linear_9335_53332" x1="34.2315" y1="2137.55" x2="-660.547" y2="2760.29" gradientUnits="userSpaceOnUse">
<stop stop-color="#4F46E5"/>
<stop offset="1" stop-color="#4F46E5"/>
</linearGradient>
<linearGradient id="paint94_linear_9335_53332" x1="39.1517" y1="2143.04" x2="-667.475" y2="2752.72" gradientUnits="userSpaceOnUse">
<stop stop-color="#4F46E5"/>
<stop offset="1" stop-color="#4F46E5"/>
</linearGradient>
<linearGradient id="paint95_linear_9335_53332" x1="43.9687" y1="2148.63" x2="-674.229" y2="2744.99" gradientUnits="userSpaceOnUse">
<stop stop-color="#4F46E5"/>
<stop offset="1" stop-color="#4F46E5"/>
</linearGradient>
<linearGradient id="paint96_linear_9335_53332" x1="48.6782" y1="2154.3" x2="-680.805" y2="2737.09" gradientUnits="userSpaceOnUse">
<stop stop-color="#4F46E5"/>
<stop offset="1" stop-color="#4F46E5"/>
</linearGradient>
<linearGradient id="paint97_linear_9335_53332" x1="53.2745" y1="2160.07" x2="-687.203" y2="2729.02" gradientUnits="userSpaceOnUse">
<stop stop-color="#4F46E5"/>
<stop offset="1" stop-color="#4F46E5"/>
</linearGradient>
<linearGradient id="paint98_linear_9335_53332" x1="57.785" y1="2165.93" x2="-693.385" y2="2720.82" gradientUnits="userSpaceOnUse">
<stop stop-color="#4F46E5"/>
<stop offset="1" stop-color="#4F46E5"/>
</linearGradient>
<linearGradient id="paint99_linear_9335_53332" x1="62.1535" y1="2171.85" x2="-699.403" y2="2712.43" gradientUnits="userSpaceOnUse">
<stop stop-color="#4F46E5"/>
<stop offset="1" stop-color="#4F46E5"/>
</linearGradient>
</defs>
</svg>
