<svg width="20" height="21" viewBox="0 0 20 21" fill="none" xmlns="http://www.w3.org/2000/svg">
<path d="M9.99984 19.4587C5.05817 19.4587 1.0415 15.442 1.0415 10.5003C1.0415 5.55866 5.05817 1.54199 9.99984 1.54199C14.9415 1.54199 18.9582 5.55866 18.9582 10.5003C18.9582 15.442 14.9415 19.4587 9.99984 19.4587ZM9.99984 2.79199C5.74984 2.79199 2.2915 6.25033 2.2915 10.5003C2.2915 14.7503 5.74984 18.2087 9.99984 18.2087C14.2498 18.2087 17.7082 14.7503 17.7082 10.5003C17.7082 6.25033 14.2498 2.79199 9.99984 2.79199Z" fill="#4F46E5"/>
<path d="M10 11.9587C9.65833 11.9587 9.375 11.6753 9.375 11.3337V7.16699C9.375 6.82533 9.65833 6.54199 10 6.54199C10.3417 6.54199 10.625 6.82533 10.625 7.16699V11.3337C10.625 11.6753 10.3417 11.9587 10 11.9587Z" fill="#4F46E5"/>
<path d="M9.99984 14.6664C9.8915 14.6664 9.78317 14.6414 9.68317 14.5997C9.58317 14.5581 9.4915 14.4997 9.40817 14.4247C9.33317 14.3414 9.27484 14.2581 9.23317 14.1497C9.1915 14.0497 9.1665 13.9414 9.1665 13.8331C9.1665 13.7247 9.1915 13.6164 9.23317 13.5164C9.27484 13.4164 9.33317 13.3247 9.40817 13.2414C9.4915 13.1664 9.58317 13.1081 9.68317 13.0664C9.88317 12.9831 10.1165 12.9831 10.3165 13.0664C10.4165 13.1081 10.5082 13.1664 10.5915 13.2414C10.6665 13.3247 10.7248 13.4164 10.7665 13.5164C10.8082 13.6164 10.8332 13.7247 10.8332 13.8331C10.8332 13.9414 10.8082 14.0497 10.7665 14.1497C10.7248 14.2581 10.6665 14.3414 10.5915 14.4247C10.5082 14.4997 10.4165 14.5581 10.3165 14.5997C10.2165 14.6414 10.1082 14.6664 9.99984 14.6664Z" fill="#4F46E5"/>
</svg>
