<svg width="224" height="47" viewBox="0 0 224 47" fill="none" xmlns="http://www.w3.org/2000/svg">
<path d="M85.1562 30.662C84.1962 30.662 83.3202 30.506 82.5282 30.194C81.7482 29.882 81.0702 29.432 80.4942 28.844C79.9302 28.256 79.4982 27.548 79.1982 26.72C78.8982 25.892 78.7482 24.968 78.7482 23.948C78.7482 22.916 78.8982 21.986 79.1982 21.158C79.5102 20.33 79.9482 19.628 80.5122 19.052C81.0762 18.464 81.7482 18.014 82.5282 17.702C83.3202 17.39 84.1962 17.234 85.1562 17.234C86.1282 17.234 87.0042 17.39 87.7842 17.702C88.5762 18.014 89.2542 18.464 89.8182 19.052C90.3822 19.64 90.8142 20.348 91.1142 21.176C91.4262 21.992 91.5822 22.916 91.5822 23.948C91.5822 24.98 91.4262 25.91 91.1142 26.738C90.8142 27.566 90.3762 28.274 89.8002 28.862C89.2362 29.438 88.5582 29.882 87.7662 30.194C86.9862 30.506 86.1162 30.662 85.1562 30.662ZM85.1562 29.312C86.1522 29.312 87.0102 29.096 87.7302 28.664C88.4502 28.22 89.0082 27.602 89.4042 26.81C89.8002 26.006 89.9982 25.052 89.9982 23.948C89.9982 23.108 89.8842 22.358 89.6562 21.698C89.4282 21.038 89.1042 20.48 88.6842 20.024C88.2642 19.556 87.7542 19.202 87.1542 18.962C86.5662 18.71 85.9002 18.584 85.1562 18.584C84.1602 18.584 83.3022 18.8 82.5822 19.232C81.8742 19.664 81.3222 20.282 80.9262 21.086C80.5302 21.878 80.3322 22.832 80.3322 23.948C80.3322 24.776 80.4462 25.526 80.6742 26.198C80.9022 26.858 81.2202 27.422 81.6282 27.89C82.0482 28.346 82.5522 28.7 83.1402 28.952C83.7402 29.192 84.4122 29.312 85.1562 29.312ZM91.7374 30.5L96.6514 23.408L92.4214 17.378H94.2034L97.6234 22.418H97.6954L101.115 17.378H102.897L98.7034 23.39L103.617 30.5H101.799L97.6774 24.524H97.6234L93.5194 30.5H91.7374ZM108.325 30.5V25.262L103.465 17.378H105.211L109.045 23.768H109.135L113.005 17.378H114.733L109.855 25.262V30.5H108.325ZM121.103 30.662C120.131 30.662 119.249 30.5 118.457 30.176C117.677 29.852 117.005 29.396 116.441 28.808C115.889 28.208 115.463 27.5 115.163 26.684C114.875 25.856 114.731 24.944 114.731 23.948C114.731 22.916 114.881 21.992 115.181 21.176C115.493 20.348 115.931 19.64 116.495 19.052C117.071 18.464 117.755 18.014 118.547 17.702C119.339 17.39 120.209 17.234 121.157 17.234C122.237 17.234 123.197 17.42 124.037 17.792C124.889 18.164 125.579 18.686 126.107 19.358C126.635 20.018 126.959 20.798 127.079 21.698H125.495C125.375 21.026 125.111 20.462 124.703 20.006C124.295 19.55 123.785 19.202 123.173 18.962C122.573 18.722 121.901 18.602 121.157 18.602C120.185 18.602 119.333 18.818 118.601 19.25C117.869 19.67 117.299 20.276 116.891 21.068C116.495 21.86 116.297 22.814 116.297 23.93C116.297 24.77 116.411 25.526 116.639 26.198C116.867 26.858 117.191 27.422 117.611 27.89C118.031 28.358 118.535 28.718 119.123 28.97C119.723 29.21 120.389 29.33 121.121 29.33C122.057 29.33 122.873 29.15 123.569 28.79C124.277 28.418 124.823 27.89 125.207 27.206C125.603 26.51 125.801 25.676 125.801 24.704V24.308L126.377 24.938H121.337V23.75H127.385V24.542C127.385 25.478 127.235 26.324 126.935 27.08C126.635 27.836 126.209 28.478 125.657 29.006C125.105 29.534 124.445 29.942 123.677 30.23C122.909 30.518 122.051 30.662 121.103 30.662ZM129.817 30.5V17.378H138.835V18.728H131.005L131.347 18.368V23.516L131.005 23.156H137.953V24.416H131.005L131.347 24.056V29.492L131.005 29.132H138.853V30.5H129.817ZM141.453 30.5V17.378H143.397L150.813 28.502H150.921L150.831 24.02V17.378H152.325V30.5H150.453L143.055 19.466H142.947L143.019 23.678V30.5H141.453Z" fill="#0F172A"/>
<path d="M176.768 19.857C176.345 19.4003 175.582 19.6992 175.582 20.3214V26.6769C175.582 27.299 176.345 27.5979 176.768 27.1413L179.708 23.9637C179.95 23.7016 179.95 23.2971 179.708 23.035L176.768 19.857Z" fill="#272660"/>
<path d="M175.845 14.5625L180.662 16.6852H186.669C187.424 16.6852 188.036 17.2975 188.036 18.0528V28.9453C188.036 29.7006 187.424 30.3129 186.669 30.3129H180.339L177.379 31.598L176.768 32.4356H187.949C189.082 32.4356 190 31.5171 190 30.3841V16.6139C190 15.481 189.082 14.5625 187.949 14.5625H175.845Z" fill="#272660"/>
<path d="M178.472 14.7592C178.465 14.7578 178.458 14.7558 178.451 14.7544C178.404 14.7436 178.355 14.7334 178.308 14.7232C178.29 14.7198 178.273 14.7158 178.255 14.7124C178.212 14.7042 178.17 14.6961 178.128 14.688C178.104 14.6839 178.081 14.6791 178.057 14.6751C178.018 14.6683 177.979 14.6622 177.94 14.6561C177.913 14.652 177.884 14.6473 177.856 14.6432C177.82 14.6378 177.784 14.633 177.748 14.6283C177.716 14.6242 177.685 14.6201 177.653 14.6168C177.62 14.6127 177.586 14.6086 177.551 14.6052C177.517 14.6018 177.483 14.5984 177.448 14.5951C177.417 14.5923 177.385 14.5889 177.353 14.5869C177.315 14.5842 177.276 14.5815 177.238 14.5788C177.209 14.5767 177.181 14.5747 177.152 14.5733C177.108 14.5713 177.063 14.5693 177.019 14.5679C176.996 14.5672 176.973 14.5659 176.95 14.5652C176.882 14.5632 176.814 14.5625 176.746 14.5625C176.723 14.5625 176.7 14.5632 176.678 14.5632L168.174 14.5625L168.173 14.5639C163.658 14.6188 160 18.6057 160 23.4987C160 28.3177 163.547 32.2572 167.967 32.4288H167.969C168.068 32.4328 168.167 32.4349 168.267 32.4349C168.369 32.4349 168.471 32.4328 168.572 32.4288H170.267C170.369 32.4328 170.471 32.4349 170.574 32.4349C170.676 32.4349 170.778 32.4322 170.879 32.4288H173.027C173.128 32.4328 173.229 32.4349 173.332 32.4349C173.431 32.4349 173.529 32.4322 173.627 32.4288H176.449C176.547 32.4328 176.646 32.4349 176.746 32.4349H176.75C176.817 32.4349 176.884 32.4342 176.95 32.4322C176.974 32.4315 176.998 32.4301 177.022 32.4295C177.066 32.4281 177.109 32.4261 177.153 32.424C177.182 32.4227 177.211 32.4206 177.24 32.4186C177.278 32.4159 177.315 32.4139 177.353 32.4111C177.385 32.4084 177.418 32.4057 177.45 32.4023C177.483 32.3989 177.517 32.3962 177.551 32.3928C177.586 32.3894 177.62 32.3854 177.654 32.3813C177.685 32.3779 177.716 32.3738 177.746 32.3698C177.783 32.365 177.82 32.3596 177.856 32.3542C177.883 32.3501 177.911 32.346 177.938 32.342C177.977 32.3359 178.017 32.3291 178.056 32.3223C178.079 32.3182 178.102 32.3142 178.125 32.3101C178.168 32.302 178.211 32.2938 178.254 32.2857C178.271 32.2823 178.286 32.2789 178.303 32.2755C178.352 32.2653 178.401 32.2552 178.451 32.2436C178.455 32.243 178.459 32.2416 178.463 32.2409C182.201 31.3844 185.014 27.7901 185.014 23.4987C185.013 19.2113 182.204 15.6198 178.472 14.7592ZM161.566 23.4994C161.566 21.0858 162.664 18.9434 164.348 17.6271C163.078 19.1984 162.307 21.2533 162.307 23.4994C162.307 25.7434 163.077 27.7969 164.345 29.3682C162.663 28.0512 161.566 25.9109 161.566 23.4994ZM163.874 23.4994C163.874 20.6117 165.446 18.1141 167.712 16.951C166.085 18.584 165.065 20.9149 165.065 23.4994C165.065 26.0832 166.085 28.4147 167.713 30.0477C165.445 28.8847 163.874 26.387 163.874 23.4994ZM166.63 23.4994C166.63 20.1458 168.749 17.3179 171.616 16.4966C171.158 16.8886 170.74 17.3321 170.368 17.8184C170.326 17.8733 170.285 17.9296 170.244 17.9859C170.161 18.0985 170.082 18.2131 170.005 18.3297C169.967 18.388 169.929 18.447 169.892 18.5067C169.668 18.8634 169.469 19.2385 169.294 19.6291C169.266 19.6942 169.237 19.76 169.209 19.8257C169.016 20.2876 168.858 20.7697 168.739 21.2696C168.722 21.3408 168.705 21.4127 168.69 21.4845C168.628 21.7728 168.579 22.0657 168.544 22.3634C168.5 22.7358 168.478 23.1148 168.478 23.5C168.478 23.8852 168.5 24.2643 168.544 24.6366C168.56 24.775 168.58 24.912 168.602 25.0483C168.616 25.1324 168.63 25.2158 168.646 25.2985C168.687 25.5162 168.736 25.7319 168.792 25.9435C168.829 26.0845 168.87 26.2249 168.913 26.3633C168.943 26.4589 168.975 26.5531 169.008 26.6474C169.037 26.7295 169.066 26.8115 169.097 26.8929C169.172 27.0882 169.252 27.2795 169.339 27.468C169.368 27.5311 169.397 27.5935 169.428 27.6558C169.72 28.254 170.072 28.8121 170.477 29.3207C170.592 29.4652 170.711 29.6049 170.834 29.7412C171.079 30.0125 171.34 30.2675 171.616 30.5041C168.749 29.6808 166.63 26.8522 166.63 23.4994ZM181.581 28.509L181.581 28.5069C180.743 29.4523 179.671 30.1535 178.467 30.5001C178.465 30.5007 178.463 30.5014 178.461 30.5021C178.411 30.5163 178.36 30.5306 178.308 30.5435C178.303 30.5448 178.299 30.5462 178.294 30.5475C178.246 30.5597 178.197 30.572 178.148 30.5828C178.141 30.5848 178.133 30.5862 178.125 30.5882C178.079 30.5984 178.033 30.6086 177.987 30.6181C177.977 30.6201 177.966 30.6221 177.956 30.6242C177.912 30.633 177.868 30.6411 177.823 30.6486C177.811 30.6506 177.798 30.6533 177.785 30.6554C177.743 30.6628 177.7 30.6689 177.658 30.675C177.644 30.6771 177.629 30.6798 177.615 30.6818C177.574 30.6872 177.533 30.6927 177.492 30.6974C177.475 30.6994 177.459 30.7015 177.442 30.7035C177.402 30.7083 177.362 30.7117 177.323 30.715C177.305 30.7164 177.287 30.7184 177.269 30.7205C177.23 30.7239 177.191 30.7266 177.152 30.7286C177.133 30.73 177.115 30.7313 177.096 30.7327C177.054 30.7347 177.012 30.7367 176.97 30.7381C176.954 30.7388 176.938 30.7395 176.921 30.7401C176.863 30.7415 176.805 30.7429 176.746 30.7429C175.12 30.7429 173.628 30.1135 172.466 29.0691C172.395 29.0047 172.325 28.9389 172.256 28.8718C172.132 28.7511 172.012 28.6249 171.897 28.4941C171.74 28.3164 171.592 28.1299 171.453 27.9359C171.262 27.6714 171.089 27.3927 170.934 27.1011C170.907 27.0502 170.88 26.9994 170.855 26.9485C170.777 26.7946 170.705 26.6372 170.638 26.4772C170.593 26.37 170.55 26.2622 170.51 26.1523C170.45 25.9882 170.395 25.8207 170.346 25.6505C170.298 25.4803 170.254 25.308 170.217 25.1331C170.192 25.0164 170.17 24.8984 170.15 24.7797C170.139 24.7201 170.131 24.6604 170.122 24.6007C170.105 24.4807 170.091 24.36 170.079 24.2386C170.056 23.9951 170.045 23.7489 170.045 23.4987C170.045 23.3115 170.052 23.1257 170.064 22.9419C170.082 22.6971 170.11 22.4557 170.15 22.2176C170.16 22.158 170.17 22.099 170.181 22.04C170.203 21.922 170.228 21.8053 170.256 21.69C170.283 21.5741 170.313 21.4601 170.346 21.3462C170.444 21.0064 170.565 20.6768 170.706 20.3601C170.777 20.2021 170.853 20.0468 170.933 19.8949C170.987 19.7939 171.043 19.6942 171.101 19.5965C171.13 19.5477 171.16 19.4989 171.19 19.4507C171.401 19.1137 171.638 18.7963 171.897 18.5026C171.971 18.4185 172.047 18.3365 172.124 18.2565C172.513 17.8564 172.945 17.5064 173.412 17.2148C173.459 17.1856 173.507 17.1572 173.554 17.1294C174.503 16.5712 175.591 16.2538 176.745 16.2538C176.801 16.2538 176.858 16.2545 176.914 16.2559C176.936 16.2566 176.957 16.2579 176.978 16.2586C177.013 16.2599 177.048 16.2613 177.083 16.2627C177.109 16.264 177.136 16.2661 177.163 16.2681C177.192 16.2701 177.221 16.2715 177.249 16.2742C177.28 16.2769 177.31 16.2796 177.34 16.2823C177.365 16.285 177.389 16.2871 177.414 16.2898C177.448 16.2932 177.48 16.2972 177.514 16.302C177.535 16.3047 177.557 16.3074 177.578 16.3101C177.614 16.3149 177.65 16.3203 177.685 16.3257C177.704 16.3284 177.722 16.3312 177.74 16.3339C177.778 16.34 177.817 16.3468 177.854 16.3535C177.869 16.3562 177.884 16.359 177.9 16.3617C177.941 16.3691 177.982 16.3779 178.022 16.3861C178.034 16.3888 178.046 16.3908 178.057 16.3935C178.101 16.403 178.145 16.4132 178.189 16.4234C178.197 16.4254 178.205 16.4275 178.214 16.4295C178.26 16.441 178.307 16.4525 178.352 16.4648C178.357 16.4661 178.362 16.4675 178.367 16.4688C178.417 16.4824 178.466 16.4959 178.515 16.5109C178.516 16.5115 178.517 16.5115 178.519 16.5122C179.596 16.833 180.566 17.4386 181.354 18.2477L181.355 18.2463C182.642 19.5674 183.445 21.433 183.445 23.498C183.447 25.441 182.736 27.2069 181.581 28.509Z" fill="#F15A2D"/>
</svg>
