<svg width="188" height="36" viewBox="0 0 188 36" fill="none" xmlns="http://www.w3.org/2000/svg">
<path d="M9.02267 27.4539C7.67096 27.4539 6.43752 27.2343 5.32236 26.795C4.2241 26.3557 3.26945 25.7221 2.45842 24.8941C1.66429 24.0662 1.05602 23.0693 0.633615 21.9035C0.211205 20.7376 0 19.4366 0 18.0004C0 16.5473 0.211205 15.2378 0.633615 14.072C1.07292 12.9061 1.68964 11.9177 2.48377 11.1067C3.2779 10.2788 4.2241 9.64514 5.32236 9.20583C6.43752 8.76653 7.67096 8.54688 9.02267 8.54688C10.3913 8.54688 11.6247 8.76653 12.723 9.20583C13.8381 9.64514 14.7928 10.2788 15.5869 11.1067C16.3811 11.9346 16.9893 12.9315 17.4117 14.0973C17.851 15.2463 18.0707 16.5473 18.0707 18.0004C18.0707 19.4535 17.851 20.763 17.4117 21.9288C16.9893 23.0947 16.3726 24.0916 15.5616 24.9195C14.7674 25.7305 13.8128 26.3557 12.6976 26.795C11.5994 27.2343 10.3744 27.4539 9.02267 27.4539ZM9.02267 25.5531C10.4251 25.5531 11.6332 25.249 12.6469 24.6407C13.6607 24.0155 14.4464 23.1454 15.004 22.0302C15.5616 20.8981 15.8404 19.5549 15.8404 18.0004C15.8404 16.8177 15.6799 15.7616 15.3588 14.8323C15.0378 13.903 14.5816 13.1173 13.9902 12.4753C13.3988 11.8163 12.6807 11.3179 11.8359 10.98C11.008 10.6251 10.0702 10.4477 9.02267 10.4477C7.62027 10.4477 6.41218 10.7519 5.3984 11.3601C4.40151 11.9684 3.62428 12.8386 3.06669 13.9706C2.50911 15.0858 2.23032 16.429 2.23032 18.0004C2.23032 19.1663 2.39084 20.2223 2.71187 21.1685C3.0329 22.0978 3.48066 22.8919 4.05513 23.5509C4.64651 24.1929 5.35616 24.6914 6.18408 25.0462C7.0289 25.3841 7.9751 25.5531 9.02267 25.5531Z" fill="#F1F1F1"/>
<path d="M18.2893 27.2258L25.2084 17.2401L19.2524 8.74963H21.7615L26.577 15.8461H26.6783L31.4938 8.74963H34.0029L28.0976 17.2147L35.0167 27.2258H32.4569L26.653 18.8114H26.577L20.7984 27.2258H18.2893Z" fill="#F1F1F1"/>
<path d="M41.6445 27.2258V19.8506L34.8015 8.74963H37.2599L42.6583 17.747H42.785L48.2341 8.74963H50.6672L43.7988 19.8506V27.2258H41.6445Z" fill="#F1F1F1"/>
<path d="M59.6364 27.4539C58.2678 27.4539 57.0259 27.2258 55.9107 26.7696C54.8125 26.3134 53.8663 25.6714 53.0722 24.8434C52.2949 23.9986 51.6951 23.0017 51.2727 21.8528C50.8672 20.6869 50.6644 19.4028 50.6644 18.0004C50.6644 16.5473 50.8756 15.2463 51.298 14.0973C51.7373 12.9315 52.3541 11.9346 53.1482 11.1067C53.9592 10.2788 54.9223 9.64514 56.0375 9.20583C57.1526 8.76653 58.3776 8.54688 59.7124 8.54688C61.2331 8.54688 62.5848 8.80877 63.7676 9.33256C64.9672 9.85635 65.9387 10.5913 66.6822 11.5375C67.4256 12.4668 67.8818 13.5651 68.0508 14.8323H65.8205C65.6515 13.8861 65.2798 13.092 64.7053 12.4499C64.1308 11.8079 63.4127 11.3179 62.551 10.98C61.7062 10.642 60.76 10.4731 59.7124 10.4731C58.3438 10.4731 57.1442 10.7772 56.1135 11.3855C55.0828 11.9768 54.2802 12.8301 53.7058 13.9453C53.1482 15.0604 52.8694 16.4037 52.8694 17.9751C52.8694 19.1578 53.0299 20.2223 53.3509 21.1685C53.672 22.0978 54.1282 22.8919 54.7196 23.5509C55.3109 24.2098 56.0206 24.7167 56.8485 25.0715C57.6933 25.4095 58.6311 25.5784 59.6617 25.5784C60.9797 25.5784 62.1286 25.325 63.1086 24.8181C64.1055 24.2943 64.8743 23.5509 65.415 22.5878C65.9726 21.6078 66.2513 20.4335 66.2513 19.0649V18.5073L67.0624 19.3944H59.9659V17.7216H68.4817V18.8368C68.4817 20.1547 68.2705 21.3459 67.848 22.4104C67.4256 23.4748 66.8258 24.3788 66.0486 25.1222C65.2714 25.8657 64.342 26.4402 63.2607 26.8457C62.1793 27.2512 60.9712 27.4539 59.6364 27.4539Z" fill="#F1F1F1"/>
<path d="M71.906 27.2258V8.74963H84.6036V10.6505H73.5787L74.0602 10.1436V17.3921L73.5787 16.8852H83.3617V18.6594H73.5787L74.0602 18.1525V25.8065L73.5787 25.2996H84.6289V27.2258H71.906Z" fill="#F1F1F1"/>
<path d="M88.2908 27.2258V8.74963H91.028L101.47 24.4126H101.622L101.495 18.1018V8.74963H103.599V27.2258H100.963L90.5465 11.6896H90.3944L90.4958 17.6202V27.2258H88.2908Z" fill="#F1F1F1"/>
<path d="M111.511 26.2142V14.0126H116.325C117.25 14.0126 118.038 14.1893 118.69 14.5428C119.341 14.8923 119.838 15.3789 120.179 16.0025C120.525 16.6221 120.698 17.337 120.698 18.1473C120.698 18.9575 120.523 19.6725 120.173 20.2921C119.824 20.9117 119.317 21.3943 118.654 21.7399C117.995 22.0854 117.196 22.2582 116.259 22.2582H113.191V20.1908H115.842C116.338 20.1908 116.748 20.1054 117.069 19.9346C117.395 19.7599 117.637 19.5196 117.796 19.2137C117.959 18.9039 118.04 18.5484 118.04 18.1473C118.04 17.7422 117.959 17.3887 117.796 17.0868C117.637 16.781 117.395 16.5446 117.069 16.3778C116.744 16.207 116.33 16.1216 115.83 16.1216H114.09V26.2142H111.511Z" fill="#F1F1F1"/>
<path d="M122.373 26.2142V14.0126H127.187C128.109 14.0126 128.895 14.1774 129.546 14.5071C130.202 14.8327 130.7 15.2955 131.042 15.8952C131.387 16.491 131.56 17.192 131.56 17.9983C131.56 18.8086 131.385 19.5057 131.036 20.0895C130.686 20.6694 130.18 21.1143 129.517 21.4241C128.857 21.7339 128.059 21.8888 127.122 21.8888H123.898V19.8155H126.705C127.197 19.8155 127.606 19.748 127.932 19.6129C128.258 19.4779 128.5 19.2753 128.659 19.0052C128.822 18.7351 128.903 18.3995 128.903 17.9983C128.903 17.5932 128.822 17.2516 128.659 16.9736C128.5 16.6956 128.256 16.4851 127.926 16.3421C127.6 16.1951 127.189 16.1216 126.693 16.1216H124.953V26.2142H122.373ZM128.963 20.6615L131.995 26.2142H129.147L126.18 20.6615H128.963Z" fill="#F1F1F1"/>
<path d="M144.596 20.1134C144.596 21.4439 144.344 22.5759 143.839 23.5093C143.339 24.4427 142.656 25.1557 141.79 25.6482C140.928 26.1367 139.959 26.381 138.882 26.381C137.798 26.381 136.825 26.1347 135.963 25.6422C135.101 25.1497 134.42 24.4368 133.919 23.5034C133.419 22.57 133.169 21.44 133.169 20.1134C133.169 18.7828 133.419 17.6508 133.919 16.7174C134.42 15.784 135.101 15.073 135.963 14.5845C136.825 14.092 137.798 13.8457 138.882 13.8457C139.959 13.8457 140.928 14.092 141.79 14.5845C142.656 15.073 143.339 15.784 143.839 16.7174C144.344 17.6508 144.596 18.7828 144.596 20.1134ZM141.98 20.1134C141.98 19.2515 141.851 18.5246 141.593 17.9328C141.339 17.341 140.979 16.8922 140.515 16.5863C140.05 16.2805 139.506 16.1276 138.882 16.1276C138.259 16.1276 137.715 16.2805 137.25 16.5863C136.785 16.8922 136.424 17.341 136.166 17.9328C135.911 18.5246 135.784 19.2515 135.784 20.1134C135.784 20.9753 135.911 21.7021 136.166 22.2939C136.424 22.8857 136.785 23.3346 137.25 23.6404C137.715 23.9462 138.259 24.0991 138.882 24.0991C139.506 24.0991 140.05 23.9462 140.515 23.6404C140.979 23.3346 141.339 22.8857 141.593 22.2939C141.851 21.7021 141.98 20.9753 141.98 20.1134Z" fill="#F1F1F1"/>
<g clip-path="url(#clip0_12404_188954)">
<path d="M188 19.3753C188 13.9936 183.593 9.61523 178.177 9.61523C172.761 9.61523 168.45 13.8987 168.356 19.2H168.354L168.355 19.2094C168.355 19.2646 168.354 19.3199 168.354 19.3753C168.354 20.5778 168.574 21.7302 168.976 22.795L171.176 35.5018L172.259 29.1357H178.405L178.404 29.1329C183.716 29.013 188 24.6818 188 19.3753ZM178.944 23.4566C177.29 25.6329 175.026 27.3282 172.408 28.2884L172.484 27.8471L172.477 27.8543L172.558 27.3764C172.56 27.3779 172.562 27.3793 172.564 27.3808L172.91 25.377L172.895 25.3958L174.021 18.9501C174.236 16.8598 176.018 15.2234 178.178 15.2234C180.481 15.2234 182.356 17.0857 182.356 19.3751C182.356 21.4041 180.884 23.0973 178.945 23.4563L178.944 23.4566Z" fill="#EB5C2C"/>
<path d="M167.425 0.498047C159.469 0.498047 152.997 6.92895 152.997 14.8336C152.997 22.7382 159.469 29.1694 167.425 29.1694C168.317 29.1694 169.191 29.0883 170.039 28.9333L169.082 23.405C168.545 23.5071 167.991 23.5608 167.425 23.5608C162.582 23.5608 158.641 19.6456 158.641 14.8333C158.641 10.021 162.582 6.10618 167.425 6.10618C172.269 6.10618 176.209 10.0213 176.209 14.8333C176.209 17.2203 175.239 19.3866 173.671 20.9636L172.408 28.2878C177.916 26.2677 181.853 20.999 181.853 14.8333C181.853 6.92896 175.381 0.498047 167.425 0.498047Z" fill="#F1F1F1"/>
</g>
<defs>
<clipPath id="clip0_12404_188954">
<rect width="35.0033" height="35.0033" fill="white" transform="translate(152.997 0.498047)"/>
</clipPath>
</defs>
</svg>
