<svg width="100" height="100" viewBox="0 0 100 100" fill="none" xmlns="http://www.w3.org/2000/svg">
<g clip-path="url(#clip0_12404_181945)">
<path d="M100.001 53.9302C100.001 38.5554 87.4112 26.0469 71.9373 26.0469C56.4633 26.0469 44.1491 38.2842 43.879 53.4294H43.874L43.8783 53.4562C43.8754 53.6137 43.874 53.7719 43.874 53.9302C43.874 57.3656 44.5031 60.6577 45.6519 63.6997L51.9366 100.001L55.0288 81.8142H72.5877L72.5842 81.8064C87.761 81.4638 100.001 69.0902 100.001 53.9302ZM74.1289 65.5898C69.4024 71.8073 62.9357 76.6504 55.4546 79.3937L55.6721 78.1329L55.6515 78.1534L55.884 76.7881C55.8904 76.7924 55.8961 76.7966 55.9025 76.8008L56.8898 71.0763L56.8465 71.13L60.0631 52.7153C60.6773 46.7436 65.7685 42.0686 71.9387 42.0686C78.5205 42.0686 83.8762 47.3891 83.8762 53.9295C83.8762 59.7261 79.6693 64.5635 74.1303 65.589L74.1289 65.5898Z" fill="#EB5C2C"/>
<path d="M41.2198 0C18.4908 0 0 18.3723 0 40.9548C0 63.5373 18.4908 81.9103 41.2198 81.9103C43.769 81.9103 46.2648 81.6786 48.6881 81.2358L45.9541 65.4422C44.4208 65.7339 42.8385 65.8872 41.2205 65.8872C27.3837 65.8872 16.1265 54.7022 16.1265 40.9541C16.1265 27.206 27.3837 16.0217 41.2205 16.0217C55.0574 16.0217 66.3138 27.2067 66.3138 40.9541C66.3138 47.7734 63.5436 53.962 59.0638 58.4675L55.4548 79.3916C71.1903 73.6204 82.4397 58.5685 82.4397 40.9541C82.4389 18.3723 63.9481 0 41.2198 0Z" fill="#30358C"/>
</g>
<defs>
<clipPath id="clip0_12404_181945">
<rect width="100" height="100" fill="white"/>
</clipPath>
</defs>
</svg>
