<svg width="134" height="18" viewBox="0 0 134 18" fill="none" xmlns="http://www.w3.org/2000/svg">
<g id="Logo Oxy-Dark Mode">
<g id="Vector">
<path d="M120.685 5.31517C120.263 4.85917 119.501 5.15764 119.501 5.77885V12.1948C119.501 12.816 120.263 13.1145 120.685 12.6586L123.653 9.45078C123.895 9.18907 123.895 8.78511 123.653 8.52338L120.685 5.31517Z" fill="#F1F1F1"/>
<path d="M119.766 0L124.609 2.13459H130.66C131.414 2.13459 132.026 2.746 132.026 3.5002V14.4733C132.026 15.2275 131.414 15.8389 130.66 15.8389H124.284L121.308 17.1313L120.693 17.9735H131.952C133.083 17.9735 134 17.0564 134 15.9251V2.04842C134 0.917111 133.083 0 131.952 0H119.766Z" fill="#F1F1F1"/>
<path d="M122.407 0.197773C122.401 0.196409 122.394 0.194363 122.387 0.192999C122.339 0.182087 122.29 0.171858 122.242 0.161628C122.225 0.158218 122.207 0.154126 122.189 0.150716C122.146 0.142533 122.104 0.134349 122.061 0.126165C122.037 0.122073 122.014 0.117299 121.99 0.113207C121.951 0.106388 121.912 0.10025 121.872 0.0941122C121.845 0.0900203 121.816 0.0852463 121.788 0.0811544C121.751 0.0756986 121.715 0.0709257 121.679 0.0661519C121.647 0.06206 121.616 0.0579672 121.584 0.0545573C121.55 0.0504655 121.516 0.0463738 121.481 0.0429639C121.447 0.039554 121.413 0.0361445 121.378 0.0327346C121.346 0.0300067 121.314 0.0265972 121.282 0.0245512C121.244 0.0218233 121.205 0.0190947 121.167 0.0163668C121.138 0.0143209 121.109 0.0122748 121.08 0.0109108C121.035 0.00886491 120.991 0.00681886 120.946 0.0054549C120.923 0.00477293 120.9 0.00340943 120.877 0.00272745C120.809 0.00068152 120.74 0 120.671 0C120.649 0 120.626 0.000681603 120.603 0.000681603L112.051 0L112.05 0.00136321C107.51 0.0566034 103.832 4.06595 103.832 8.98641C103.832 13.8325 107.399 17.7942 111.843 17.9667H111.845C111.945 17.9708 112.044 17.9728 112.145 17.9728C112.248 17.9728 112.35 17.9708 112.452 17.9667H114.157C114.259 17.9708 114.362 17.9728 114.465 17.9728C114.568 17.9728 114.67 17.9701 114.772 17.9667H116.932C117.034 17.9708 117.135 17.9728 117.238 17.9728C117.338 17.9728 117.437 17.9701 117.535 17.9667H120.373C120.472 17.9708 120.572 17.9728 120.672 17.9728H120.676C120.743 17.9728 120.81 17.9721 120.877 17.9701C120.901 17.9694 120.925 17.9681 120.949 17.9674C120.993 17.966 121.037 17.964 121.081 17.9619C121.11 17.9606 121.139 17.9585 121.168 17.9565C121.206 17.9537 121.244 17.9517 121.282 17.949C121.314 17.9462 121.347 17.9435 121.379 17.9401C121.413 17.9367 121.447 17.934 121.481 17.9305C121.516 17.9271 121.55 17.923 121.585 17.919C121.616 17.9155 121.647 17.9115 121.678 17.9074C121.715 17.9026 121.751 17.8971 121.788 17.8917C121.815 17.8876 121.843 17.8835 121.87 17.8794C121.91 17.8733 121.949 17.8664 121.989 17.8596C122.012 17.8555 122.035 17.8514 122.058 17.8473C122.102 17.8392 122.145 17.831 122.189 17.8228C122.205 17.8194 122.221 17.816 122.237 17.8126C122.287 17.8023 122.336 17.7921 122.386 17.7805C122.39 17.7798 122.394 17.7785 122.399 17.7778C126.157 16.9164 128.986 13.302 128.986 8.98641C128.985 4.67495 126.161 1.0632 122.407 0.197773ZM105.406 8.9871C105.406 6.55994 106.51 4.40557 108.204 3.08185C106.927 4.662 106.152 6.72839 106.152 8.9871C106.152 11.2438 106.925 13.3088 108.201 14.8889C106.51 13.5645 105.406 11.4122 105.406 8.9871ZM107.727 8.9871C107.727 6.08324 109.308 3.57152 111.587 2.40192C109.951 4.04413 108.925 6.38808 108.925 8.9871C108.925 11.5854 109.951 13.9301 111.588 15.5723C109.307 14.4027 107.727 11.891 107.727 8.9871ZM110.499 8.9871C110.499 5.61472 112.63 2.77087 115.512 1.945C115.053 2.33918 114.632 2.78519 114.258 3.27417C114.216 3.32941 114.174 3.38602 114.133 3.44262C114.05 3.55583 113.971 3.67108 113.893 3.78838C113.855 3.84703 113.816 3.90637 113.779 3.96638C113.554 4.3251 113.354 4.70223 113.178 5.09505C113.149 5.16052 113.12 5.22667 113.092 5.29283C112.898 5.75725 112.739 6.24214 112.619 6.74476C112.602 6.81636 112.586 6.88865 112.57 6.96094C112.508 7.25078 112.459 7.5454 112.424 7.84478C112.379 8.21919 112.357 8.60042 112.357 8.98778C112.357 9.37514 112.379 9.75637 112.424 10.1308C112.44 10.2699 112.46 10.4077 112.482 10.5447C112.496 10.6293 112.51 10.7132 112.526 10.7964C112.567 11.0153 112.617 11.2322 112.673 11.4449C112.71 11.5868 112.751 11.728 112.795 11.8671C112.825 11.9632 112.857 12.058 112.89 12.1528C112.919 12.2354 112.949 12.3179 112.98 12.3997C113.055 12.5961 113.136 12.7884 113.223 12.978C113.252 13.0415 113.282 13.1042 113.313 13.1669C113.606 13.7684 113.96 14.3297 114.367 14.8412C114.483 14.9865 114.603 15.1269 114.726 15.264C114.973 15.5368 115.236 15.7932 115.512 16.0312C112.63 15.2033 110.499 12.3588 110.499 8.9871ZM125.534 14.0249L125.534 14.0228C124.691 14.9735 123.613 15.6787 122.402 16.0271C122.401 16.0278 122.399 16.0285 122.397 16.0292C122.346 16.0435 122.295 16.0578 122.243 16.0708C122.238 16.0722 122.233 16.0735 122.228 16.0749C122.18 16.0872 122.131 16.0994 122.082 16.1103C122.074 16.1124 122.067 16.1138 122.059 16.1158C122.013 16.126 121.966 16.1363 121.919 16.1458C121.909 16.1479 121.898 16.1499 121.888 16.152C121.844 16.1608 121.8 16.169 121.755 16.1765C121.743 16.1785 121.73 16.1813 121.717 16.1833C121.674 16.1908 121.631 16.197 121.589 16.2031C121.575 16.2051 121.56 16.2079 121.545 16.2099C121.504 16.2154 121.463 16.2208 121.421 16.2256C121.405 16.2276 121.389 16.2297 121.372 16.2317C121.332 16.2365 121.291 16.2399 121.252 16.2433C121.234 16.2447 121.216 16.2467 121.198 16.2488C121.158 16.2522 121.119 16.2549 121.079 16.257C121.061 16.2583 121.042 16.2597 121.023 16.2611C120.981 16.2631 120.939 16.2652 120.897 16.2665C120.881 16.2672 120.864 16.2679 120.848 16.2686C120.789 16.2699 120.731 16.2713 120.671 16.2713C119.037 16.2713 117.536 15.6384 116.368 14.5882C116.296 14.5234 116.225 14.4572 116.156 14.3897C116.032 14.2683 115.911 14.1415 115.795 14.0099C115.637 13.8312 115.489 13.6436 115.348 13.4486C115.157 13.1826 114.983 12.9023 114.827 12.6091C114.8 12.5579 114.773 12.5068 114.747 12.4556C114.67 12.3008 114.596 12.1426 114.529 11.9817C114.484 11.8739 114.441 11.7655 114.401 11.655C114.34 11.49 114.285 11.3215 114.236 11.1503C114.187 10.9792 114.143 10.8059 114.106 10.63C114.08 10.5127 114.058 10.394 114.038 10.2747C114.028 10.2147 114.019 10.1546 114.01 10.0946C113.993 9.97392 113.979 9.85253 113.967 9.73045C113.944 9.48562 113.933 9.23806 113.933 8.98641C113.933 8.79819 113.94 8.61133 113.952 8.42651C113.97 8.18032 113.998 7.93753 114.038 7.69816C114.048 7.63815 114.058 7.57881 114.07 7.51948C114.092 7.40082 114.117 7.28352 114.145 7.16758C114.172 7.05096 114.203 6.93639 114.236 6.82182C114.334 6.48015 114.456 6.14871 114.598 5.83022C114.669 5.67132 114.745 5.51515 114.826 5.36239C114.88 5.26077 114.936 5.16052 114.995 5.06232C115.024 5.01322 115.054 4.96411 115.085 4.91569C115.297 4.57675 115.535 4.25758 115.795 3.96229C115.87 3.87772 115.946 3.7952 116.024 3.71473C116.415 3.31236 116.849 2.96046 117.319 2.66721C117.367 2.63789 117.414 2.60924 117.461 2.58128C118.416 2.02002 119.51 1.70085 120.671 1.70085C120.727 1.70085 120.784 1.70153 120.841 1.7029C120.862 1.70358 120.884 1.70494 120.905 1.70562C120.94 1.70699 120.975 1.70835 121.01 1.70972C121.037 1.71108 121.064 1.71313 121.091 1.71517C121.12 1.71722 121.149 1.71858 121.178 1.72131C121.208 1.72404 121.238 1.72677 121.269 1.72949C121.294 1.73222 121.319 1.73427 121.344 1.737C121.377 1.74041 121.41 1.7445 121.443 1.74927C121.465 1.752 121.487 1.75473 121.508 1.75745C121.544 1.76223 121.58 1.76769 121.616 1.77314C121.635 1.77587 121.653 1.7786 121.671 1.78132C121.71 1.78746 121.748 1.79428 121.786 1.8011C121.801 1.80383 121.816 1.80656 121.832 1.80929C121.873 1.81679 121.914 1.82565 121.955 1.83384C121.967 1.83656 121.978 1.83861 121.99 1.84134C122.035 1.85089 122.078 1.86112 122.122 1.87134C122.131 1.87339 122.139 1.87544 122.148 1.87748C122.194 1.88908 122.241 1.90067 122.287 1.91295C122.292 1.91431 122.297 1.91567 122.302 1.91704C122.352 1.93068 122.401 1.94432 122.45 1.95932C122.452 1.96 122.453 1.96 122.454 1.96068C123.538 2.28326 124.513 2.89227 125.306 3.70586L125.306 3.7045C126.6 5.03299 127.409 6.90911 127.409 8.98573C127.41 10.9396 126.696 12.7155 125.534 14.0249Z" fill="#FE6C41"/>
</g>
<g id="Vector_2">
<path d="M6.44402 16.2525C5.47862 16.2525 4.5977 16.0956 3.80125 15.7819C3.01686 15.4681 2.33505 15.0156 1.75581 14.4243C1.18864 13.833 0.754216 13.121 0.452529 12.2883C0.150843 11.4557 0 10.5265 0 9.50076C0 8.46296 0.150843 7.52773 0.452529 6.69508C0.766283 5.86243 1.20674 5.15648 1.77391 4.57724C2.34108 3.98594 3.01686 3.53341 3.80125 3.21965C4.5977 2.9059 5.47862 2.74902 6.44402 2.74902C7.42148 2.74902 8.3024 2.9059 9.08679 3.21965C9.88324 3.53341 10.5651 3.98594 11.1322 4.57724C11.6994 5.16855 12.1338 5.88053 12.4355 6.71318C12.7493 7.53377 12.9061 8.46296 12.9061 9.50076C12.9061 10.5386 12.7493 11.4738 12.4355 12.3064C12.1338 13.1391 11.6934 13.8511 11.1141 14.4424C10.5469 15.0216 9.86514 15.4681 9.06869 15.7819C8.2843 16.0956 7.40941 16.2525 6.44402 16.2525ZM6.44402 14.8949C7.44562 14.8949 8.30844 14.6777 9.03249 14.2433C9.75653 13.7968 10.3177 13.1753 10.7159 12.3788C11.1141 11.5703 11.3132 10.611 11.3132 9.50076C11.3132 8.65604 11.1986 7.90182 10.9693 7.23811C10.74 6.5744 10.4142 6.01327 9.99185 5.55471C9.56949 5.08407 9.05662 4.72808 8.45325 4.48674C7.86194 4.23332 7.1922 4.10661 6.44402 4.10661C5.44242 4.10661 4.5796 4.32383 3.85555 4.75825C3.14357 5.19268 2.58847 5.81416 2.19024 6.62267C1.79202 7.41913 1.5929 8.37849 1.5929 9.50076C1.5929 10.3334 1.70754 11.0876 1.93683 11.7634C2.16611 12.4271 2.48589 12.9943 2.89619 13.4649C3.31855 13.9235 3.82538 14.2795 4.41669 14.5329C5.02006 14.7742 5.69584 14.8949 6.44402 14.8949Z" fill="white"/>
<path d="M13.0623 16.0896L18.0039 8.95773L13.7501 2.89383H15.5421L18.9813 7.96216H19.0537L22.493 2.89383H24.285L20.0674 8.93962L25.009 16.0896H23.1808L19.0356 10.08H18.9813L14.8543 16.0896H13.0623Z" fill="white"/>
<path d="M29.7426 16.0896V10.8221L24.8553 2.89383H26.6111L30.4667 9.31975H30.5572L34.4489 2.89383H36.1866L31.2812 10.8221V16.0896H29.7426Z" fill="white"/>
<path d="M42.5925 16.2525C41.615 16.2525 40.7281 16.0896 39.9316 15.7638C39.1472 15.4379 38.4714 14.9794 37.9043 14.3881C37.3492 13.7847 36.9208 13.0727 36.6191 12.2521C36.3295 11.4195 36.1847 10.5024 36.1847 9.50076C36.1847 8.46296 36.3355 7.53377 36.6372 6.71318C36.9509 5.88053 37.3914 5.16855 37.9586 4.57724C38.5378 3.98594 39.2257 3.53341 40.0221 3.21965C40.8186 2.9059 41.6935 2.74902 42.6468 2.74902C43.7329 2.74902 44.6982 2.93607 45.543 3.31016C46.3998 3.68425 47.0936 4.20919 47.6246 4.88496C48.1556 5.54867 48.4814 6.33306 48.6021 7.23811H47.0092C46.8885 6.56234 46.623 5.99517 46.2127 5.5366C45.8024 5.07804 45.2896 4.72808 44.6741 4.48674C44.0707 4.24539 43.395 4.12471 42.6468 4.12471C41.6693 4.12471 40.8125 4.34193 40.0764 4.77636C39.3403 5.19872 38.7671 5.80812 38.3568 6.60457C37.9586 7.40102 37.7595 8.36039 37.7595 9.48266C37.7595 10.3274 37.8741 11.0876 38.1034 11.7634C38.3327 12.4271 38.6585 12.9943 39.0809 13.4649C39.5032 13.9355 40.01 14.2976 40.6013 14.551C41.2047 14.7923 41.8745 14.913 42.6106 14.913C43.5518 14.913 44.3724 14.732 45.0723 14.37C45.7843 13.9959 46.3334 13.4649 46.7195 12.7771C47.1178 12.0772 47.3169 11.2385 47.3169 10.261V9.86278L47.8961 10.4963H42.8278V9.30165H48.9098V10.0981C48.9098 11.0394 48.7589 11.8901 48.4573 12.6504C48.1556 13.4106 47.7272 14.0562 47.1721 14.5872C46.617 15.1182 45.9533 15.5285 45.1809 15.8181C44.4086 16.1077 43.5458 16.2525 42.5925 16.2525Z" fill="white"/>
<path d="M51.3554 16.0896V2.89383H60.4241V4.25142H52.5501L52.894 3.8894V9.06633L52.5501 8.70431H59.5372V9.97139H52.5501L52.894 9.60937V15.0759L52.5501 14.7139H60.4422V16.0896H51.3554Z" fill="white"/>
<path d="M63.0575 16.0896V2.89383H65.0125L72.4702 14.0804H72.5788L72.4883 9.57317V2.89383H73.9907V16.0896H72.1081L64.6685 4.99357H64.56L64.6324 9.22924V16.0896H63.0575Z" fill="white"/>
<path d="M78.8282 12.3847V6.71282H81.2556C81.5617 6.71282 81.8392 6.75431 82.0881 6.8373C82.3423 6.92029 82.5575 7.04218 82.7339 7.20298C82.9103 7.35858 83.0451 7.55309 83.1385 7.7865C83.237 8.01472 83.2863 8.27666 83.2863 8.57232C83.2863 8.94577 83.2059 9.27514 83.0451 9.56042C82.8843 9.84051 82.6535 10.061 82.3527 10.2217C82.0518 10.3774 81.6861 10.4552 81.2556 10.4552L79.933 10.4474V9.50595L81.0534 9.51373C81.2349 9.51373 81.4009 9.4878 81.5513 9.43593C81.7017 9.37888 81.8236 9.28551 81.917 9.15584C82.0103 9.02617 82.057 8.84722 82.057 8.619C82.057 8.39596 82.0077 8.21961 81.9092 8.08993C81.8158 7.96026 81.6939 7.86949 81.5435 7.81762C81.3983 7.76575 81.2349 7.73982 81.0534 7.73982H79.8863L80.0419 7.57643V12.3847H78.8282Z" fill="white"/>
<path d="M84.0784 12.3847V6.71282H85.2921V11.5133L85.1132 11.311H87.8129V12.3847H84.0784Z" fill="white"/>
<path d="M90.5845 12.4547C90.0762 12.4547 89.6405 12.3639 89.2774 12.1824C88.9195 12.0008 88.6446 11.7441 88.4527 11.4121C88.266 11.075 88.1726 10.6808 88.1726 10.2295V6.71282H89.3785V10.2217C89.3785 10.4759 89.4252 10.6912 89.5186 10.8675C89.6171 11.0387 89.7572 11.1684 89.9387 11.2565C90.1203 11.3395 90.3381 11.381 90.5923 11.381C90.862 11.381 91.085 11.3369 91.2614 11.2487C91.4429 11.1554 91.5778 11.0231 91.666 10.852C91.7593 10.6756 91.806 10.4655 91.806 10.2217V6.71282H93.012V10.2295C93.012 10.6963 92.9108 11.0957 92.7085 11.4277C92.5114 11.7597 92.2313 12.0138 91.8682 12.1902C91.5104 12.3665 91.0824 12.4547 90.5845 12.4547Z" fill="white"/>
<path d="M96.1755 12.4547C95.6671 12.4547 95.2392 12.3769 94.8917 12.2213C94.5442 12.0657 94.2796 11.8478 94.0981 11.5677C93.9218 11.2876 93.8336 10.9661 93.8336 10.603H95.0629C95.0681 10.7897 95.1095 10.9531 95.1873 11.0931C95.2703 11.228 95.3948 11.3343 95.5608 11.4121C95.732 11.4899 95.9524 11.5288 96.2221 11.5288C96.5333 11.5288 96.7823 11.4718 96.969 11.3577C97.1558 11.2436 97.2491 11.075 97.2491 10.852C97.2491 10.7171 97.2284 10.6056 97.1869 10.5174C97.1454 10.4292 97.0728 10.3566 96.969 10.2995C96.8705 10.2373 96.7356 10.188 96.5645 10.1517C96.3985 10.1102 96.1858 10.0661 95.9265 10.0195C95.6049 9.97277 95.3196 9.90534 95.0706 9.81717C94.8217 9.72899 94.6142 9.62007 94.4482 9.49039C94.2822 9.36072 94.1577 9.20511 94.0748 9.02357C93.9918 8.83685 93.9503 8.619 93.9503 8.37003C93.9503 8.01213 94.0385 7.70611 94.2148 7.45195C94.3963 7.1926 94.6531 6.99291 94.9851 6.85286C95.317 6.71282 95.7112 6.64279 96.1677 6.64279C96.6137 6.64279 96.9976 6.71282 97.3192 6.85286C97.6459 6.99291 97.8975 7.19001 98.0738 7.44417C98.2502 7.69832 98.3384 7.99398 98.3384 8.33112H97.1169C97.1117 8.14958 97.0624 8.00176 96.969 7.88765C96.8809 7.77353 96.7642 7.69054 96.6189 7.63868C96.4737 7.58681 96.3103 7.56087 96.1288 7.56087C95.942 7.56087 95.7787 7.58681 95.6386 7.63868C95.4986 7.69054 95.3922 7.76575 95.3196 7.86431C95.247 7.96286 95.2107 8.07956 95.2107 8.21442C95.2107 8.38559 95.2548 8.51526 95.343 8.60344C95.4363 8.69161 95.5841 8.76164 95.7864 8.81351C95.9887 8.86019 96.2533 8.91206 96.58 8.96911C96.8186 9.00542 97.052 9.0547 97.2803 9.11694C97.5085 9.17918 97.716 9.27254 97.9027 9.39703C98.0894 9.51633 98.2372 9.6849 98.3462 9.90275C98.4551 10.1154 98.5096 10.3929 98.5096 10.7352C98.5096 11.0724 98.4214 11.3732 98.245 11.6378C98.0739 11.8971 97.8145 12.0994 97.467 12.2446C97.1246 12.3847 96.6941 12.4547 96.1755 12.4547Z" fill="white"/>
</g>
</g>
</svg>
