<svg width="97" height="30" viewBox="0 0 97 30" fill="none" xmlns="http://www.w3.org/2000/svg">
<path d="M42.4892 9.71405L43.7068 7.20728H28.7334H27.5587C26.2533 7.26014 25.4258 7.56916 24.4946 8.21771C23.3244 9.03094 22.754 10.3931 22.7405 11.5824C22.7247 13.0198 23.5567 14.3047 24.3548 14.8903C25.4754 15.7136 26.3998 16.0084 27.5565 16.0064C27.942 16.0064 28.8529 16.0064 28.916 16.0064H32.1741C32.5641 16.0064 33.0737 16.0105 33.3307 16.0064C33.8177 16.0003 34.2529 16.1731 34.6474 16.4598C35.1457 16.8217 35.3847 17.4072 35.3667 17.9765C35.3667 18.196 35.2517 18.5864 35.1187 18.7958C35.1187 18.7958 34.6226 20.0705 30.4402 20.961C26.8891 21.8108 22.7472 22.2886 22.7405 22.2886C23.3537 22.2886 24.1632 22.2886 26.7132 22.2886C27.7571 22.2886 33.2924 22.2886 33.333 22.2886C34.3588 22.2886 35.7026 21.8779 36.6226 21.0423C37.2787 20.4121 38.0002 19.4362 38.0701 18.1045C38.14 16.7729 37.5244 15.3823 36.3678 14.5304C35.3892 13.8127 34.4378 13.4773 33.1188 13.4935H27.561C26.8553 13.4935 26.4314 13.2028 26.0503 12.8694C25.7414 12.599 25.5205 12.109 25.5205 11.5784C25.5205 11.0904 25.7775 10.5374 26.1856 10.2142C26.729 9.78318 27.2047 9.71812 27.561 9.70999H28.7312H42.4892V9.71405Z" fill="#FCFCFF"/>
<path d="M64.1393 9.57587C61.8756 7.39032 59.2827 7.09959 56.2141 7.20734H56.0924L49.6485 7.21141L54.3743 16.9458C53.7858 13.4163 53.1951 9.94385 56.1081 9.71412H58.0787H58.1734C59.9885 9.74055 61.2646 10.4664 62.2093 11.3528C63.2127 12.2941 63.6591 13.4631 63.6591 14.7927V14.87C63.641 16.2179 62.6287 18.2307 60.8994 19.115C59.2579 19.9547 57.9344 19.788 56.169 19.788H54.1872C54.1872 19.788 49.5921 10.3606 48.5211 8.19135C48.4242 7.99414 48.2979 7.88029 48.2461 7.83353C47.75 7.37608 47.3171 7.20327 46.6655 7.20327C46.0545 7.20327 45.4254 7.39438 44.8956 8.10392C44.5596 8.55527 37.9805 22.2866 37.9805 22.2866H38.1C39.2927 20.5118 42.4943 16.5188 49.2178 16.0024H43.6623L46.3972 10.4216C46.5009 10.1756 46.5595 10.0658 46.6813 10.0557C46.8301 10.0536 46.882 10.2265 47.015 10.4968L52.7396 22.2846L56.1375 22.2887C60.4529 22.2968 61.8846 21.634 63.5125 20.406C65.296 19.0601 66.4414 16.8034 66.367 14.7439V14.6504C66.2655 12.6763 65.6906 11.0722 64.1393 9.57587Z" fill="#FCFCFF"/>
<path d="M91.0619 9.57587C88.7982 7.39032 86.2053 7.09959 83.1367 7.20734H83.0149L76.571 7.21141L81.2968 16.9458C80.7084 13.4163 80.1176 9.94385 83.0307 9.71412H85.0013H85.096C86.911 9.74055 88.1669 10.2834 89.2198 11.2938C90.2637 12.3022 90.7417 13.4631 90.7417 14.7948V14.872C90.7237 16.2199 89.8218 18.2754 87.8196 19.2045C86.1422 19.9811 84.8615 19.7921 83.0938 19.7921H81.112C81.112 19.7921 76.5169 10.3647 75.4459 8.19541C75.349 7.9982 75.2227 7.88435 75.1709 7.83759C74.6748 7.38015 74.2419 7.20734 73.5903 7.20734C72.9793 7.20734 72.3502 7.39845 71.8204 8.10799C71.4844 8.55933 64.9053 22.2907 64.9053 22.2907H65.0248C66.2175 20.5158 69.4192 16.5229 76.1426 16.0065H70.5871L73.322 10.4257C73.4257 10.1797 73.4844 10.0699 73.6061 10.0597C73.7549 10.0577 73.8068 10.2305 73.9398 10.5009L79.6644 22.2887L83.0623 22.2927C87.3777 22.3009 88.8094 21.6381 90.4373 20.4101C92.2208 19.0642 93.3662 16.8075 93.2918 14.748V14.6545C93.188 12.6763 92.6131 11.0722 91.0619 9.57587Z" fill="#FCFCFF"/>
<path d="M11.7155 20.2067C13.1157 19.5724 14.0266 18.7694 14.6759 17.4113L16.031 14.7541C16.3151 14.1828 16.2249 13.2069 15.1652 12.7393C14.5316 12.4607 13.4066 12.5522 12.9015 13.524C12.64 14.0445 11.5374 16.0857 11.4089 16.35C11.1677 16.8522 10.728 17.21 10.1666 17.4662C9.45635 17.7915 8.59957 17.7386 7.88934 17.4275C7.61427 17.3157 7.18137 16.9986 6.98521 16.7566C6.98521 16.7566 5.6324 15.5998 6.64701 10.8628C7.39106 6.79458 9.61192 0.888503 9.61418 0.880371C9.30078 1.50859 8.17794 3.76123 6.87699 6.36966C6.34488 7.43703 3.52202 13.1012 3.49947 13.1439C2.97638 14.1929 2.80503 15.7787 3.38899 17.1449C3.84669 18.1371 4.70798 19.3732 6.34714 20.1234C7.98855 20.8777 10.0538 20.9549 11.7155 20.2067Z" fill="#E94F1E"/>
<path d="M11.8242 9.27287C10.424 9.90719 9.51314 10.7103 8.86379 12.0683L7.50872 14.7256C7.22463 15.2969 7.31482 16.2727 8.37452 16.7403C9.00809 17.0189 10.1332 16.9274 10.6382 15.9556C10.8998 15.4351 12.0023 13.3939 12.1308 13.1296C12.3721 12.6274 12.8117 12.2696 13.3732 12.0134C14.0834 11.6882 14.9402 11.741 15.6504 12.0521C15.9255 12.1639 16.3584 12.4811 16.5545 12.723C16.5545 12.723 17.9073 13.8798 16.8927 18.6169C16.1487 22.685 13.9278 28.5911 13.9256 28.5992C14.239 27.971 15.3618 25.7184 16.6627 23.11C17.1948 22.0426 20.0177 16.3785 20.0403 16.3358C20.5633 15.2867 20.7347 13.7009 20.1507 12.3347C19.693 11.3425 18.8317 10.1064 17.1926 9.35622C15.5512 8.60399 13.4859 8.5247 11.8242 9.27287Z" fill="#E94F1E"/>
</svg>
