<svg width="500" height="500" viewBox="0 0 500 500" fill="none" xmlns="http://www.w3.org/2000/svg">
<path d="M417.399 72.0312H443.879V60.8412H417.399V72.0312Z" stroke="#EBEBEB" stroke-width="0.75" stroke-miterlimit="10"/>
<path d="M432.18 57.9219H458.66V46.7319H432.18V57.9219Z" stroke="#EBEBEB" stroke-width="0.75" stroke-miterlimit="10"/>
<path d="M250 182.156H276.48V170.966H250V182.156Z" stroke="#EBEBEB" stroke-width="0.75" stroke-miterlimit="10"/>
<path d="M264.77 168.047H291.25V156.857H264.77V168.047Z" stroke="#EBEBEB" stroke-width="0.75" stroke-miterlimit="10"/>
<path d="M279.479 182.156H305.959V170.966H279.479V182.156Z" stroke="#EBEBEB" stroke-width="0.75" stroke-miterlimit="10"/>
<path d="M41.3403 57.9219H67.8203V46.7319H41.3403V57.9219Z" stroke="#EBEBEB" stroke-width="0.75" stroke-miterlimit="10"/>
<path d="M56.1196 321.039H82.5996V309.849H56.1196V321.039Z" stroke="#EBEBEB" stroke-width="0.75" stroke-miterlimit="10"/>
<path d="M41.3403 306.93H67.8203V295.74H41.3403V306.93Z" stroke="#EBEBEB" stroke-width="0.75" stroke-miterlimit="10"/>
<path d="M417.399 321.039H443.879V309.849H417.399V321.039Z" stroke="#EBEBEB" stroke-width="0.75" stroke-miterlimit="10"/>
<path d="M208.82 421.543V295.883L235.55 259.393V191.062" stroke="#EBEBEB" stroke-miterlimit="10"/>
<path d="M233.18 188.732C233.18 189.203 233.32 189.663 233.582 190.055C233.843 190.446 234.216 190.752 234.651 190.931C235.087 191.111 235.566 191.158 236.028 191.065C236.49 190.972 236.914 190.745 237.246 190.411C237.579 190.077 237.804 189.652 237.895 189.19C237.986 188.727 237.937 188.249 237.756 187.814C237.574 187.379 237.267 187.008 236.875 186.748C236.482 186.487 236.021 186.35 235.55 186.352C235.238 186.352 234.929 186.413 234.64 186.533C234.352 186.653 234.091 186.828 233.87 187.049C233.65 187.27 233.476 187.533 233.357 187.822C233.239 188.11 233.178 188.419 233.18 188.732Z" stroke="#EBEBEB" stroke-miterlimit="10"/>
<path d="M215.709 421.543V300.293L242.439 263.802V216.062" stroke="#EBEBEB" stroke-miterlimit="10"/>
<path d="M240.061 213.722C240.059 214.193 240.196 214.654 240.457 215.047C240.717 215.439 241.088 215.746 241.523 215.928C241.958 216.109 242.436 216.158 242.899 216.067C243.361 215.976 243.786 215.75 244.12 215.418C244.454 215.086 244.681 214.662 244.774 214.2C244.867 213.738 244.82 213.259 244.64 212.823C244.461 212.388 244.155 212.015 243.764 211.753C243.372 211.491 242.912 211.352 242.441 211.352C241.811 211.352 241.207 211.601 240.761 212.045C240.315 212.489 240.063 213.092 240.061 213.722Z" stroke="#EBEBEB" stroke-miterlimit="10"/>
<path d="M202.189 421.543V255.133" stroke="#EBEBEB" stroke-miterlimit="10"/>
<path d="M199.811 252.753C199.809 253.224 199.946 253.685 200.207 254.078C200.467 254.47 200.838 254.777 201.273 254.959C201.708 255.14 202.186 255.189 202.649 255.098C203.111 255.008 203.536 254.782 203.87 254.449C204.204 254.117 204.431 253.693 204.524 253.231C204.617 252.769 204.57 252.29 204.39 251.854C204.211 251.419 203.905 251.047 203.514 250.785C203.122 250.523 202.662 250.383 202.191 250.383C201.561 250.383 200.957 250.632 200.511 251.076C200.065 251.521 199.813 252.123 199.811 252.753Z" stroke="#EBEBEB" stroke-miterlimit="10"/>
<path d="M195.8 421.537V336.957L177.66 302.737V241.367" stroke="#EBEBEB" stroke-miterlimit="10"/>
<path d="M175.279 238.997C175.279 239.468 175.419 239.928 175.68 240.319C175.942 240.711 176.314 241.016 176.749 241.196C177.183 241.376 177.662 241.423 178.124 241.331C178.585 241.24 179.009 241.013 179.342 240.68C179.675 240.347 179.902 239.923 179.994 239.462C180.085 239 180.038 238.521 179.858 238.086C179.678 237.652 179.373 237.28 178.982 237.018C178.59 236.757 178.13 236.617 177.659 236.617C177.346 236.616 177.036 236.677 176.747 236.796C176.458 236.915 176.195 237.09 175.973 237.311C175.752 237.533 175.577 237.796 175.458 238.085C175.339 238.374 175.278 238.684 175.279 238.997Z" stroke="#EBEBEB" stroke-miterlimit="10"/>
<path d="M189.451 421.537V340.617L168.061 302.777V262.367" stroke="#EBEBEB" stroke-miterlimit="10"/>
<path d="M165.68 260.003C165.678 260.474 165.816 260.935 166.076 261.328C166.336 261.72 166.707 262.027 167.142 262.209C167.577 262.39 168.056 262.439 168.518 262.348C168.98 262.258 169.405 262.032 169.739 261.699C170.073 261.367 170.301 260.943 170.393 260.481C170.486 260.019 170.439 259.54 170.259 259.104C170.08 258.669 169.775 258.297 169.383 258.035C168.991 257.773 168.531 257.633 168.06 257.633C167.431 257.635 166.829 257.886 166.383 258.329C165.938 258.773 165.685 259.374 165.68 260.003Z" stroke="#EBEBEB" stroke-miterlimit="10"/>
<path d="M110.721 37.56V0" stroke="#C7C7C7" stroke-miterlimit="10"/>
<path d="M133.93 59.9216L132.06 64.0316H89.3795L87.5195 59.9216L105.69 47.3516H115.76L133.93 59.9216Z" fill="#EBEBEB"/>
<path d="M117.02 35.2266L115.76 47.3466H105.69L104.43 35.2266H117.02Z" fill="#DBDBDB"/>
<path d="M133.93 59.9297L132.06 64.0297H89.3795L87.5195 59.9297H133.93Z" fill="#DBDBDB"/>
<path d="M203.58 37.56V0" stroke="#C7C7C7" stroke-miterlimit="10"/>
<path d="M226.779 59.9216L224.909 64.0316H182.229L180.369 59.9216L198.539 47.3516H208.609L226.779 59.9216Z" fill="#EBEBEB"/>
<path d="M209.869 35.2266L208.609 47.3466H198.539L197.279 35.2266H209.869Z" fill="#DBDBDB"/>
<path d="M226.779 59.9297L224.909 64.0297H182.229L180.369 59.9297H226.779Z" fill="#DBDBDB"/>
<path d="M296.43 37.56V0" stroke="#C7C7C7" stroke-miterlimit="10"/>
<path d="M319.631 59.9216L317.771 64.0316H275.081L273.221 59.9216L291.391 47.3516H301.461L319.631 59.9216Z" fill="#EBEBEB"/>
<path d="M302.719 35.2266L301.459 47.3466H291.389L290.129 35.2266H302.719Z" fill="#DBDBDB"/>
<path d="M319.631 59.9297L317.761 64.0297H275.081L273.221 59.9297H319.631Z" fill="#DBDBDB"/>
<path d="M389.279 37.56V0" stroke="#C7C7C7" stroke-miterlimit="10"/>
<path d="M412.49 59.9216L410.62 64.0316H367.93L366.07 59.9216L384.25 47.3516H394.31L412.49 59.9216Z" fill="#EBEBEB"/>
<path d="M395.57 35.2266L394.31 47.3466H384.25L382.98 35.2266H395.57Z" fill="#DBDBDB"/>
<path d="M412.48 59.9297L410.62 64.0297H367.93L366.07 59.9297H412.48Z" fill="#DBDBDB"/>
<path d="M183.791 460.402C242.559 460.402 290.201 452.795 290.201 443.412C290.201 434.029 242.559 426.422 183.791 426.422C125.022 426.422 77.3809 434.029 77.3809 443.412C77.3809 452.795 125.022 460.402 183.791 460.402Z" fill="#EBEBEB"/>
<path d="M332.389 176.422H267.369V421.592H332.389V176.422Z" fill="#37474F"/>
<path d="M452.049 176.422H332.389V421.592H452.049V176.422Z" fill="#455A64"/>
<path d="M444.579 389.789H341.369V413.629H444.579V389.789Z" fill="#37474F"/>
<path d="M404.459 393.727H345.709V395.737H404.459V393.727Z" fill="#455A64"/>
<path d="M404.459 397.219H345.709V399.229H404.459V397.219Z" fill="#455A64"/>
<path d="M404.459 400.711H345.709V402.721H404.459V400.711Z" fill="#455A64"/>
<path d="M404.459 404.188H345.709V406.198H404.459V404.188Z" fill="#455A64"/>
<path d="M404.459 407.68H345.709V409.69H404.459V407.68Z" fill="#455A64"/>
<path d="M415.17 395.727C415.17 396.122 415.053 396.509 414.833 396.838C414.613 397.167 414.301 397.423 413.935 397.574C413.57 397.726 413.168 397.765 412.78 397.688C412.392 397.611 412.035 397.42 411.756 397.141C411.476 396.861 411.286 396.505 411.208 396.117C411.131 395.729 411.171 395.327 411.322 394.961C411.474 394.596 411.73 394.283 412.059 394.064C412.388 393.844 412.774 393.727 413.17 393.727C413.7 393.727 414.209 393.937 414.584 394.312C414.959 394.687 415.17 395.196 415.17 395.727Z" fill="#93C5FD"/>
<path d="M421.75 395.727C421.75 396.122 421.633 396.509 421.413 396.838C421.193 397.167 420.881 397.423 420.515 397.574C420.15 397.726 419.748 397.765 419.36 397.688C418.972 397.611 418.615 397.42 418.336 397.141C418.056 396.861 417.866 396.505 417.788 396.117C417.711 395.729 417.751 395.327 417.902 394.961C418.054 394.596 418.31 394.283 418.639 394.064C418.968 393.844 419.354 393.727 419.75 393.727C420.28 393.727 420.789 393.937 421.164 394.312C421.539 394.687 421.75 395.196 421.75 395.727Z" fill="#93C5FD"/>
<path d="M428.33 395.727C428.33 396.122 428.213 396.509 427.993 396.838C427.773 397.167 427.461 397.423 427.095 397.574C426.73 397.726 426.328 397.765 425.94 397.688C425.552 397.611 425.196 397.42 424.916 397.141C424.636 396.861 424.446 396.505 424.369 396.117C424.291 395.729 424.331 395.327 424.482 394.961C424.634 394.596 424.89 394.283 425.219 394.064C425.548 393.844 425.934 393.727 426.33 393.727C426.86 393.727 427.369 393.937 427.744 394.312C428.119 394.687 428.33 395.196 428.33 395.727Z" fill="#93C5FD"/>
<path d="M434.898 395.727C434.898 396.122 434.781 396.509 434.561 396.838C434.342 397.167 434.029 397.423 433.664 397.574C433.298 397.726 432.896 397.765 432.508 397.688C432.12 397.611 431.764 397.42 431.484 397.141C431.205 396.861 431.014 396.505 430.937 396.117C430.86 395.729 430.899 395.327 431.051 394.961C431.202 394.596 431.458 394.283 431.787 394.064C432.116 393.844 432.503 393.727 432.898 393.727C433.429 393.727 433.938 393.937 434.313 394.312C434.688 394.687 434.898 395.196 434.898 395.727Z" fill="#93C5FD"/>
<path d="M441.479 395.727C441.479 396.122 441.361 396.509 441.141 396.838C440.922 397.167 440.609 397.423 440.244 397.574C439.878 397.726 439.476 397.765 439.088 397.688C438.7 397.611 438.344 397.42 438.064 397.141C437.785 396.861 437.594 396.505 437.517 396.117C437.44 395.729 437.479 395.327 437.631 394.961C437.782 394.596 438.038 394.283 438.367 394.064C438.696 393.844 439.083 393.727 439.479 393.727C440.009 393.727 440.518 393.937 440.893 394.312C441.268 394.687 441.479 395.196 441.479 395.727Z" fill="#93C5FD"/>
<path d="M415.17 401.711C415.17 402.107 415.053 402.493 414.833 402.822C414.613 403.151 414.301 403.407 413.935 403.559C413.57 403.71 413.168 403.75 412.78 403.673C412.392 403.595 412.035 403.405 411.756 403.125C411.476 402.845 411.286 402.489 411.208 402.101C411.131 401.713 411.171 401.311 411.322 400.946C411.474 400.58 411.73 400.268 412.059 400.048C412.388 399.828 412.774 399.711 413.17 399.711C413.7 399.711 414.209 399.922 414.584 400.297C414.959 400.672 415.17 401.181 415.17 401.711Z" fill="#93C5FD"/>
<path d="M421.75 401.711C421.75 402.107 421.633 402.493 421.413 402.822C421.193 403.151 420.881 403.407 420.515 403.559C420.15 403.71 419.748 403.75 419.36 403.673C418.972 403.595 418.615 403.405 418.336 403.125C418.056 402.845 417.866 402.489 417.788 402.101C417.711 401.713 417.751 401.311 417.902 400.946C418.054 400.58 418.31 400.268 418.639 400.048C418.968 399.828 419.354 399.711 419.75 399.711C420.28 399.711 420.789 399.922 421.164 400.297C421.539 400.672 421.75 401.181 421.75 401.711Z" fill="#93C5FD"/>
<path d="M428.33 401.711C428.33 402.107 428.213 402.493 427.993 402.822C427.773 403.151 427.461 403.407 427.095 403.559C426.73 403.71 426.328 403.75 425.94 403.673C425.552 403.595 425.196 403.405 424.916 403.125C424.636 402.845 424.446 402.489 424.369 402.101C424.291 401.713 424.331 401.311 424.482 400.946C424.634 400.58 424.89 400.268 425.219 400.048C425.548 399.828 425.934 399.711 426.33 399.711C426.86 399.711 427.369 399.922 427.744 400.297C428.119 400.672 428.33 401.181 428.33 401.711Z" fill="#93C5FD"/>
<path d="M434.898 401.711C434.898 402.107 434.781 402.493 434.561 402.822C434.342 403.151 434.029 403.407 433.664 403.559C433.298 403.71 432.896 403.75 432.508 403.673C432.12 403.595 431.764 403.405 431.484 403.125C431.205 402.845 431.014 402.489 430.937 402.101C430.86 401.713 430.899 401.311 431.051 400.946C431.202 400.58 431.458 400.268 431.787 400.048C432.116 399.828 432.503 399.711 432.898 399.711C433.429 399.711 433.938 399.922 434.313 400.297C434.688 400.672 434.898 401.181 434.898 401.711Z" fill="#93C5FD"/>
<path d="M441.479 401.711C441.479 402.107 441.361 402.493 441.141 402.822C440.922 403.151 440.609 403.407 440.244 403.559C439.878 403.71 439.476 403.75 439.088 403.673C438.7 403.595 438.344 403.405 438.064 403.125C437.785 402.845 437.594 402.489 437.517 402.101C437.44 401.713 437.479 401.311 437.631 400.946C437.782 400.58 438.038 400.268 438.367 400.048C438.696 399.828 439.083 399.711 439.479 399.711C440.009 399.711 440.518 399.922 440.893 400.297C441.268 400.672 441.479 401.181 441.479 401.711Z" fill="#93C5FD"/>
<path d="M413.18 409.703C414.284 409.703 415.18 408.808 415.18 407.703C415.18 406.599 414.284 405.703 413.18 405.703C412.075 405.703 411.18 406.599 411.18 407.703C411.18 408.808 412.075 409.703 413.18 409.703Z" fill="#93C5FD"/>
<path d="M421.75 407.703C421.75 408.099 421.633 408.485 421.413 408.814C421.193 409.143 420.881 409.399 420.515 409.551C420.15 409.702 419.748 409.742 419.36 409.665C418.972 409.588 418.615 409.397 418.336 409.117C418.056 408.838 417.866 408.481 417.788 408.093C417.711 407.705 417.751 407.303 417.902 406.938C418.054 406.572 418.31 406.26 418.639 406.04C418.968 405.82 419.354 405.703 419.75 405.703C420.28 405.703 420.789 405.914 421.164 406.289C421.539 406.664 421.75 407.173 421.75 407.703Z" fill="#93C5FD"/>
<path d="M426.33 409.703C427.435 409.703 428.33 408.808 428.33 407.703C428.33 406.599 427.435 405.703 426.33 405.703C425.226 405.703 424.33 406.599 424.33 407.703C424.33 408.808 425.226 409.703 426.33 409.703Z" fill="#93C5FD"/>
<path d="M434.898 407.703C434.898 408.099 434.781 408.485 434.561 408.814C434.342 409.143 434.029 409.399 433.664 409.551C433.298 409.702 432.896 409.742 432.508 409.665C432.12 409.588 431.764 409.397 431.484 409.117C431.205 408.838 431.014 408.481 430.937 408.093C430.86 407.705 430.899 407.303 431.051 406.938C431.202 406.572 431.458 406.26 431.787 406.04C432.116 405.82 432.503 405.703 432.898 405.703C433.429 405.703 433.938 405.914 434.313 406.289C434.688 406.664 434.898 407.173 434.898 407.703Z" fill="#93C5FD"/>
<path d="M441.479 407.703C441.479 408.099 441.361 408.485 441.141 408.814C440.922 409.143 440.609 409.399 440.244 409.551C439.878 409.702 439.476 409.742 439.088 409.665C438.7 409.588 438.344 409.397 438.064 409.117C437.785 408.838 437.594 408.481 437.517 408.093C437.44 407.705 437.479 407.303 437.631 406.938C437.782 406.572 438.038 406.26 438.367 406.04C438.696 405.82 439.083 405.703 439.479 405.703C440.009 405.703 440.518 405.914 440.893 406.289C441.268 406.664 441.479 407.173 441.479 407.703Z" fill="#93C5FD"/>
<path d="M408.548 393.727H407.398V409.687H408.548V393.727Z" fill="#263238"/>
<path d="M444.579 361.07H341.369V384.91H444.579V361.07Z" fill="#37474F"/>
<path d="M404.459 365H345.709V367.01H404.459V365Z" fill="#455A64"/>
<path d="M404.459 368.492H345.709V370.502H404.459V368.492Z" fill="#455A64"/>
<path d="M404.459 371.977H345.709V373.987H404.459V371.977Z" fill="#455A64"/>
<path d="M404.459 375.469H345.709V377.479H404.459V375.469Z" fill="#455A64"/>
<path d="M404.459 378.953H345.709V380.963H404.459V378.953Z" fill="#455A64"/>
<path d="M415.17 367C415.17 367.396 415.053 367.782 414.833 368.111C414.613 368.44 414.301 368.696 413.935 368.848C413.57 368.999 413.168 369.039 412.78 368.962C412.392 368.884 412.035 368.694 411.756 368.414C411.476 368.135 411.286 367.778 411.208 367.39C411.131 367.002 411.171 366.6 411.322 366.235C411.474 365.869 411.73 365.557 412.059 365.337C412.388 365.117 412.774 365 413.17 365C413.7 365 414.209 365.211 414.584 365.586C414.959 365.961 415.17 366.47 415.17 367Z" fill="#93C5FD"/>
<path d="M421.75 367C421.75 367.396 421.633 367.782 421.413 368.111C421.193 368.44 420.881 368.696 420.515 368.848C420.15 368.999 419.748 369.039 419.36 368.962C418.972 368.884 418.615 368.694 418.336 368.414C418.056 368.135 417.866 367.778 417.788 367.39C417.711 367.002 417.751 366.6 417.902 366.235C418.054 365.869 418.31 365.557 418.639 365.337C418.968 365.117 419.354 365 419.75 365C420.28 365 420.789 365.211 421.164 365.586C421.539 365.961 421.75 366.47 421.75 367Z" fill="#93C5FD"/>
<path d="M428.33 367C428.33 367.396 428.213 367.782 427.993 368.111C427.773 368.44 427.461 368.696 427.095 368.848C426.73 368.999 426.328 369.039 425.94 368.962C425.552 368.884 425.196 368.694 424.916 368.414C424.636 368.135 424.446 367.778 424.369 367.39C424.291 367.002 424.331 366.6 424.482 366.235C424.634 365.869 424.89 365.557 425.219 365.337C425.548 365.117 425.934 365 426.33 365C426.86 365 427.369 365.211 427.744 365.586C428.119 365.961 428.33 366.47 428.33 367Z" fill="#93C5FD"/>
<path d="M434.898 367C434.898 367.396 434.781 367.782 434.561 368.111C434.342 368.44 434.029 368.696 433.664 368.848C433.298 368.999 432.896 369.039 432.508 368.962C432.12 368.884 431.764 368.694 431.484 368.414C431.205 368.135 431.014 367.778 430.937 367.39C430.86 367.002 430.899 366.6 431.051 366.235C431.202 365.869 431.458 365.557 431.787 365.337C432.116 365.117 432.503 365 432.898 365C433.429 365 433.938 365.211 434.313 365.586C434.688 365.961 434.898 366.47 434.898 367Z" fill="#93C5FD"/>
<path d="M441.479 367C441.479 367.396 441.361 367.782 441.141 368.111C440.922 368.44 440.609 368.696 440.244 368.848C439.878 368.999 439.476 369.039 439.088 368.962C438.7 368.884 438.344 368.694 438.064 368.414C437.785 368.135 437.594 367.778 437.517 367.39C437.44 367.002 437.479 366.6 437.631 366.235C437.782 365.869 438.038 365.557 438.367 365.337C438.696 365.117 439.083 365 439.479 365C440.009 365 440.518 365.211 440.893 365.586C441.268 365.961 441.479 366.47 441.479 367Z" fill="#93C5FD"/>
<path d="M415.17 373C415.17 373.396 415.053 373.782 414.833 374.111C414.613 374.44 414.301 374.696 413.935 374.848C413.57 374.999 413.168 375.039 412.78 374.962C412.392 374.884 412.035 374.694 411.756 374.414C411.476 374.135 411.286 373.778 411.208 373.39C411.131 373.002 411.171 372.6 411.322 372.235C411.474 371.869 411.73 371.557 412.059 371.337C412.388 371.117 412.774 371 413.17 371C413.7 371 414.209 371.211 414.584 371.586C414.959 371.961 415.17 372.47 415.17 373Z" fill="#93C5FD"/>
<path d="M421.75 373C421.75 373.396 421.633 373.782 421.413 374.111C421.193 374.44 420.881 374.696 420.515 374.848C420.15 374.999 419.748 375.039 419.36 374.962C418.972 374.884 418.615 374.694 418.336 374.414C418.056 374.135 417.866 373.778 417.788 373.39C417.711 373.002 417.751 372.6 417.902 372.235C418.054 371.869 418.31 371.557 418.639 371.337C418.968 371.117 419.354 371 419.75 371C420.28 371 420.789 371.211 421.164 371.586C421.539 371.961 421.75 372.47 421.75 373Z" fill="#93C5FD"/>
<path d="M428.33 373C428.33 373.396 428.213 373.782 427.993 374.111C427.773 374.44 427.461 374.696 427.095 374.848C426.73 374.999 426.328 375.039 425.94 374.962C425.552 374.884 425.196 374.694 424.916 374.414C424.636 374.135 424.446 373.778 424.369 373.39C424.291 373.002 424.331 372.6 424.482 372.235C424.634 371.869 424.89 371.557 425.219 371.337C425.548 371.117 425.934 371 426.33 371C426.86 371 427.369 371.211 427.744 371.586C428.119 371.961 428.33 372.47 428.33 373Z" fill="#93C5FD"/>
<path d="M434.898 373C434.898 373.396 434.781 373.782 434.561 374.111C434.342 374.44 434.029 374.696 433.664 374.848C433.298 374.999 432.896 375.039 432.508 374.962C432.12 374.884 431.764 374.694 431.484 374.414C431.205 374.135 431.014 373.778 430.937 373.39C430.86 373.002 430.899 372.6 431.051 372.235C431.202 371.869 431.458 371.557 431.787 371.337C432.116 371.117 432.503 371 432.898 371C433.429 371 433.938 371.211 434.313 371.586C434.688 371.961 434.898 372.47 434.898 373Z" fill="#93C5FD"/>
<path d="M441.479 373C441.479 373.396 441.361 373.782 441.141 374.111C440.922 374.44 440.609 374.696 440.244 374.848C439.878 374.999 439.476 375.039 439.088 374.962C438.7 374.884 438.344 374.694 438.064 374.414C437.785 374.135 437.594 373.778 437.517 373.39C437.44 373.002 437.479 372.6 437.631 372.235C437.782 371.869 438.038 371.557 438.367 371.337C438.696 371.117 439.083 371 439.479 371C440.009 371 440.518 371.211 440.893 371.586C441.268 371.961 441.479 372.47 441.479 373Z" fill="#93C5FD"/>
<path d="M415.17 379C415.17 379.396 415.053 379.782 414.833 380.111C414.613 380.44 414.301 380.696 413.935 380.848C413.57 380.999 413.168 381.039 412.78 380.962C412.392 380.884 412.035 380.694 411.756 380.414C411.476 380.135 411.286 379.778 411.208 379.39C411.131 379.002 411.171 378.6 411.322 378.235C411.474 377.869 411.73 377.557 412.059 377.337C412.388 377.117 412.774 377 413.17 377C413.7 377 414.209 377.211 414.584 377.586C414.959 377.961 415.17 378.47 415.17 379Z" fill="#93C5FD"/>
<path d="M421.75 379C421.75 379.396 421.633 379.782 421.413 380.111C421.193 380.44 420.881 380.696 420.515 380.848C420.15 380.999 419.748 381.039 419.36 380.962C418.972 380.884 418.615 380.694 418.336 380.414C418.056 380.135 417.866 379.778 417.788 379.39C417.711 379.002 417.751 378.6 417.902 378.235C418.054 377.869 418.31 377.557 418.639 377.337C418.968 377.117 419.354 377 419.75 377C420.28 377 420.789 377.211 421.164 377.586C421.539 377.961 421.75 378.47 421.75 379Z" fill="#93C5FD"/>
<path d="M428.33 379C428.33 379.396 428.213 379.782 427.993 380.111C427.773 380.44 427.461 380.696 427.095 380.848C426.73 380.999 426.328 381.039 425.94 380.962C425.552 380.884 425.196 380.694 424.916 380.414C424.636 380.135 424.446 379.778 424.369 379.39C424.291 379.002 424.331 378.6 424.482 378.235C424.634 377.869 424.89 377.557 425.219 377.337C425.548 377.117 425.934 377 426.33 377C426.86 377 427.369 377.211 427.744 377.586C428.119 377.961 428.33 378.47 428.33 379Z" fill="#93C5FD"/>
<path d="M434.898 379C434.898 379.396 434.781 379.782 434.561 380.111C434.342 380.44 434.029 380.696 433.664 380.848C433.298 380.999 432.896 381.039 432.508 380.962C432.12 380.884 431.764 380.694 431.484 380.414C431.205 380.135 431.014 379.778 430.937 379.39C430.86 379.002 430.899 378.6 431.051 378.235C431.202 377.869 431.458 377.557 431.787 377.337C432.116 377.117 432.503 377 432.898 377C433.429 377 433.938 377.211 434.313 377.586C434.688 377.961 434.898 378.47 434.898 379Z" fill="#93C5FD"/>
<path d="M441.479 379C441.479 379.396 441.361 379.782 441.141 380.111C440.922 380.44 440.609 380.696 440.244 380.848C439.878 380.999 439.476 381.039 439.088 380.962C438.7 380.884 438.344 380.694 438.064 380.414C437.785 380.135 437.594 379.778 437.517 379.39C437.44 379.002 437.479 378.6 437.631 378.235C437.782 377.869 438.038 377.557 438.367 377.337C438.696 377.117 439.083 377 439.479 377C440.009 377 440.518 377.211 440.893 377.586C441.268 377.961 441.479 378.47 441.479 379Z" fill="#93C5FD"/>
<path d="M408.548 365H407.398V380.96H408.548V365Z" fill="#263238"/>
<path d="M444.579 332.336H341.369V356.176H444.579V332.336Z" fill="#37474F"/>
<path d="M404.459 336.281H345.709V338.291H404.459V336.281Z" fill="#455A64"/>
<path d="M404.459 339.758H345.709V341.768H404.459V339.758Z" fill="#455A64"/>
<path d="M404.459 343.25H345.709V345.26H404.459V343.25Z" fill="#455A64"/>
<path d="M404.459 346.742H345.709V348.752H404.459V346.742Z" fill="#455A64"/>
<path d="M404.459 350.227H345.709V352.237H404.459V350.227Z" fill="#455A64"/>
<path d="M413.18 340.266C414.284 340.266 415.18 339.37 415.18 338.266C415.18 337.161 414.284 336.266 413.18 336.266C412.075 336.266 411.18 337.161 411.18 338.266C411.18 339.37 412.075 340.266 413.18 340.266Z" fill="#93C5FD"/>
<path d="M421.75 338.266C421.75 338.661 421.633 339.048 421.413 339.377C421.193 339.706 420.881 339.962 420.515 340.113C420.15 340.265 419.748 340.304 419.36 340.227C418.972 340.15 418.615 339.96 418.336 339.68C418.056 339.4 417.866 339.044 417.788 338.656C417.711 338.268 417.751 337.866 417.902 337.5C418.054 337.135 418.31 336.822 418.639 336.603C418.968 336.383 419.354 336.266 419.75 336.266C420.28 336.266 420.789 336.476 421.164 336.851C421.539 337.226 421.75 337.735 421.75 338.266Z" fill="#93C5FD"/>
<path d="M426.33 340.266C427.435 340.266 428.33 339.37 428.33 338.266C428.33 337.161 427.435 336.266 426.33 336.266C425.226 336.266 424.33 337.161 424.33 338.266C424.33 339.37 425.226 340.266 426.33 340.266Z" fill="#93C5FD"/>
<path d="M434.898 338.266C434.898 338.661 434.781 339.048 434.561 339.377C434.342 339.706 434.029 339.962 433.664 340.113C433.298 340.265 432.896 340.304 432.508 340.227C432.12 340.15 431.764 339.96 431.484 339.68C431.205 339.4 431.014 339.044 430.937 338.656C430.86 338.268 430.899 337.866 431.051 337.5C431.202 337.135 431.458 336.822 431.787 336.603C432.116 336.383 432.503 336.266 432.898 336.266C433.429 336.266 433.938 336.476 434.313 336.851C434.688 337.226 434.898 337.735 434.898 338.266Z" fill="#93C5FD"/>
<path d="M441.479 338.266C441.479 338.661 441.361 339.048 441.141 339.377C440.922 339.706 440.609 339.962 440.244 340.113C439.878 340.265 439.476 340.304 439.088 340.227C438.7 340.15 438.344 339.96 438.064 339.68C437.785 339.4 437.594 339.044 437.517 338.656C437.44 338.268 437.479 337.866 437.631 337.5C437.782 337.135 438.038 336.822 438.367 336.603C438.696 336.383 439.083 336.266 439.479 336.266C440.009 336.266 440.518 336.476 440.893 336.851C441.268 337.226 441.479 337.735 441.479 338.266Z" fill="#93C5FD"/>
<path d="M415.17 344.258C415.17 344.653 415.053 345.04 414.833 345.369C414.613 345.698 414.301 345.954 413.935 346.106C413.57 346.257 413.168 346.297 412.78 346.219C412.392 346.142 412.035 345.952 411.756 345.672C411.476 345.392 411.286 345.036 411.208 344.648C411.131 344.26 411.171 343.858 411.322 343.492C411.474 343.127 411.73 342.815 412.059 342.595C412.388 342.375 412.774 342.258 413.17 342.258C413.7 342.258 414.209 342.469 414.584 342.844C414.959 343.219 415.17 343.727 415.17 344.258Z" fill="#93C5FD"/>
<path d="M421.75 344.258C421.75 344.653 421.633 345.04 421.413 345.369C421.193 345.698 420.881 345.954 420.515 346.106C420.15 346.257 419.748 346.297 419.36 346.219C418.972 346.142 418.615 345.952 418.336 345.672C418.056 345.392 417.866 345.036 417.788 344.648C417.711 344.26 417.751 343.858 417.902 343.492C418.054 343.127 418.31 342.815 418.639 342.595C418.968 342.375 419.354 342.258 419.75 342.258C420.28 342.258 420.789 342.469 421.164 342.844C421.539 343.219 421.75 343.727 421.75 344.258Z" fill="#93C5FD"/>
<path d="M428.33 344.258C428.33 344.653 428.213 345.04 427.993 345.369C427.773 345.698 427.461 345.954 427.095 346.106C426.73 346.257 426.328 346.297 425.94 346.219C425.552 346.142 425.196 345.952 424.916 345.672C424.636 345.392 424.446 345.036 424.369 344.648C424.291 344.26 424.331 343.858 424.482 343.492C424.634 343.127 424.89 342.815 425.219 342.595C425.548 342.375 425.934 342.258 426.33 342.258C426.86 342.258 427.369 342.469 427.744 342.844C428.119 343.219 428.33 343.727 428.33 344.258Z" fill="#93C5FD"/>
<path d="M434.898 344.258C434.898 344.653 434.781 345.04 434.561 345.369C434.342 345.698 434.029 345.954 433.664 346.106C433.298 346.257 432.896 346.297 432.508 346.219C432.12 346.142 431.764 345.952 431.484 345.672C431.205 345.392 431.014 345.036 430.937 344.648C430.86 344.26 430.899 343.858 431.051 343.492C431.202 343.127 431.458 342.815 431.787 342.595C432.116 342.375 432.503 342.258 432.898 342.258C433.429 342.258 433.938 342.469 434.313 342.844C434.688 343.219 434.898 343.727 434.898 344.258Z" fill="#93C5FD"/>
<path d="M441.479 344.258C441.479 344.653 441.361 345.04 441.141 345.369C440.922 345.698 440.609 345.954 440.244 346.106C439.878 346.257 439.476 346.297 439.088 346.219C438.7 346.142 438.344 345.952 438.064 345.672C437.785 345.392 437.594 345.036 437.517 344.648C437.44 344.26 437.479 343.858 437.631 343.492C437.782 343.127 438.038 342.815 438.367 342.595C438.696 342.375 439.083 342.258 439.479 342.258C440.009 342.258 440.518 342.469 440.893 342.844C441.268 343.219 441.479 343.727 441.479 344.258Z" fill="#93C5FD"/>
<path d="M415.17 350.242C415.17 350.638 415.053 351.024 414.833 351.353C414.613 351.682 414.301 351.939 413.935 352.09C413.57 352.241 413.168 352.281 412.78 352.204C412.392 352.127 412.035 351.936 411.756 351.656C411.476 351.377 411.286 351.02 411.208 350.632C411.131 350.244 411.171 349.842 411.322 349.477C411.474 349.111 411.73 348.799 412.059 348.579C412.388 348.359 412.774 348.242 413.17 348.242C413.7 348.242 414.209 348.453 414.584 348.828C414.959 349.203 415.17 349.712 415.17 350.242Z" fill="#93C5FD"/>
<path d="M421.75 350.242C421.75 350.638 421.633 351.024 421.413 351.353C421.193 351.682 420.881 351.939 420.515 352.09C420.15 352.241 419.748 352.281 419.36 352.204C418.972 352.127 418.615 351.936 418.336 351.656C418.056 351.377 417.866 351.02 417.788 350.632C417.711 350.244 417.751 349.842 417.902 349.477C418.054 349.111 418.31 348.799 418.639 348.579C418.968 348.359 419.354 348.242 419.75 348.242C420.28 348.242 420.789 348.453 421.164 348.828C421.539 349.203 421.75 349.712 421.75 350.242Z" fill="#93C5FD"/>
<path d="M428.33 350.242C428.33 350.638 428.213 351.024 427.993 351.353C427.773 351.682 427.461 351.939 427.095 352.09C426.73 352.241 426.328 352.281 425.94 352.204C425.552 352.127 425.196 351.936 424.916 351.656C424.636 351.377 424.446 351.02 424.369 350.632C424.291 350.244 424.331 349.842 424.482 349.477C424.634 349.111 424.89 348.799 425.219 348.579C425.548 348.359 425.934 348.242 426.33 348.242C426.86 348.242 427.369 348.453 427.744 348.828C428.119 349.203 428.33 349.712 428.33 350.242Z" fill="#93C5FD"/>
<path d="M434.898 350.242C434.898 350.638 434.781 351.024 434.561 351.353C434.342 351.682 434.029 351.939 433.664 352.09C433.298 352.241 432.896 352.281 432.508 352.204C432.12 352.127 431.764 351.936 431.484 351.656C431.205 351.377 431.014 351.02 430.937 350.632C430.86 350.244 430.899 349.842 431.051 349.477C431.202 349.111 431.458 348.799 431.787 348.579C432.116 348.359 432.503 348.242 432.898 348.242C433.429 348.242 433.938 348.453 434.313 348.828C434.688 349.203 434.898 349.712 434.898 350.242Z" fill="#93C5FD"/>
<path d="M441.479 350.242C441.479 350.638 441.361 351.024 441.141 351.353C440.922 351.682 440.609 351.939 440.244 352.09C439.878 352.241 439.476 352.281 439.088 352.204C438.7 352.127 438.344 351.936 438.064 351.656C437.785 351.377 437.594 351.02 437.517 350.632C437.44 350.244 437.479 349.842 437.631 349.477C437.782 349.111 438.038 348.799 438.367 348.579C438.696 348.359 439.083 348.242 439.479 348.242C440.009 348.242 440.518 348.453 440.893 348.828C441.268 349.203 441.479 349.712 441.479 350.242Z" fill="#93C5FD"/>
<path d="M408.548 336.281H407.398V352.241H408.548V336.281Z" fill="#263238"/>
<path d="M444.579 303.609H341.369V327.449H444.579V303.609Z" fill="#37474F"/>
<path d="M404.459 307.547H345.709V309.557H404.459V307.547Z" fill="#455A64"/>
<path d="M404.459 311.031H345.709V313.041H404.459V311.031Z" fill="#455A64"/>
<path d="M404.459 314.516H345.709V316.526H404.459V314.516Z" fill="#455A64"/>
<path d="M404.459 318.008H345.709V320.018H404.459V318.008Z" fill="#455A64"/>
<path d="M404.459 321.5H345.709V323.51H404.459V321.5Z" fill="#455A64"/>
<path d="M415.17 309.539C415.17 309.935 415.053 310.321 414.833 310.65C414.613 310.979 414.301 311.235 413.935 311.387C413.57 311.538 413.168 311.578 412.78 311.501C412.392 311.423 412.035 311.233 411.756 310.953C411.476 310.674 411.286 310.317 411.208 309.929C411.131 309.541 411.171 309.139 411.322 308.774C411.474 308.408 411.73 308.096 412.059 307.876C412.388 307.656 412.774 307.539 413.17 307.539C413.7 307.539 414.209 307.75 414.584 308.125C414.959 308.5 415.17 309.009 415.17 309.539Z" fill="#93C5FD"/>
<path d="M421.75 309.539C421.75 309.935 421.633 310.321 421.413 310.65C421.193 310.979 420.881 311.235 420.515 311.387C420.15 311.538 419.748 311.578 419.36 311.501C418.972 311.423 418.615 311.233 418.336 310.953C418.056 310.674 417.866 310.317 417.788 309.929C417.711 309.541 417.751 309.139 417.902 308.774C418.054 308.408 418.31 308.096 418.639 307.876C418.968 307.656 419.354 307.539 419.75 307.539C420.28 307.539 420.789 307.75 421.164 308.125C421.539 308.5 421.75 309.009 421.75 309.539Z" fill="#93C5FD"/>
<path d="M428.33 309.539C428.33 309.935 428.213 310.321 427.993 310.65C427.773 310.979 427.461 311.235 427.095 311.387C426.73 311.538 426.328 311.578 425.94 311.501C425.552 311.423 425.196 311.233 424.916 310.953C424.636 310.674 424.446 310.317 424.369 309.929C424.291 309.541 424.331 309.139 424.482 308.774C424.634 308.408 424.89 308.096 425.219 307.876C425.548 307.656 425.934 307.539 426.33 307.539C426.86 307.539 427.369 307.75 427.744 308.125C428.119 308.5 428.33 309.009 428.33 309.539Z" fill="#93C5FD"/>
<path d="M434.898 309.539C434.898 309.935 434.781 310.321 434.561 310.65C434.342 310.979 434.029 311.235 433.664 311.387C433.298 311.538 432.896 311.578 432.508 311.501C432.12 311.423 431.764 311.233 431.484 310.953C431.205 310.674 431.014 310.317 430.937 309.929C430.86 309.541 430.899 309.139 431.051 308.774C431.202 308.408 431.458 308.096 431.787 307.876C432.116 307.656 432.503 307.539 432.898 307.539C433.429 307.539 433.938 307.75 434.313 308.125C434.688 308.5 434.898 309.009 434.898 309.539Z" fill="#93C5FD"/>
<path d="M441.479 309.539C441.479 309.935 441.361 310.321 441.141 310.65C440.922 310.979 440.609 311.235 440.244 311.387C439.878 311.538 439.476 311.578 439.088 311.501C438.7 311.423 438.344 311.233 438.064 310.953C437.785 310.674 437.594 310.317 437.517 309.929C437.44 309.541 437.479 309.139 437.631 308.774C437.782 308.408 438.038 308.096 438.367 307.876C438.696 307.656 439.083 307.539 439.479 307.539C440.009 307.539 440.518 307.75 440.893 308.125C441.268 308.5 441.479 309.009 441.479 309.539Z" fill="#93C5FD"/>
<path d="M413.18 317.531C414.284 317.531 415.18 316.636 415.18 315.531C415.18 314.427 414.284 313.531 413.18 313.531C412.075 313.531 411.18 314.427 411.18 315.531C411.18 316.636 412.075 317.531 413.18 317.531Z" fill="#93C5FD"/>
<path d="M421.75 315.531C421.75 315.927 421.633 316.313 421.413 316.642C421.193 316.971 420.881 317.228 420.515 317.379C420.15 317.53 419.748 317.57 419.36 317.493C418.972 317.416 418.615 317.225 418.336 316.945C418.056 316.666 417.866 316.309 417.788 315.921C417.711 315.533 417.751 315.131 417.902 314.766C418.054 314.4 418.31 314.088 418.639 313.868C418.968 313.649 419.354 313.531 419.75 313.531C420.28 313.531 420.789 313.742 421.164 314.117C421.539 314.492 421.75 315.001 421.75 315.531Z" fill="#93C5FD"/>
<path d="M426.33 317.531C427.435 317.531 428.33 316.636 428.33 315.531C428.33 314.427 427.435 313.531 426.33 313.531C425.226 313.531 424.33 314.427 424.33 315.531C424.33 316.636 425.226 317.531 426.33 317.531Z" fill="#93C5FD"/>
<path d="M434.898 315.531C434.898 315.927 434.781 316.313 434.561 316.642C434.342 316.971 434.029 317.228 433.664 317.379C433.298 317.53 432.896 317.57 432.508 317.493C432.12 317.416 431.764 317.225 431.484 316.945C431.205 316.666 431.014 316.309 430.937 315.921C430.86 315.533 430.899 315.131 431.051 314.766C431.202 314.4 431.458 314.088 431.787 313.868C432.116 313.649 432.503 313.531 432.898 313.531C433.429 313.531 433.938 313.742 434.313 314.117C434.688 314.492 434.898 315.001 434.898 315.531Z" fill="#93C5FD"/>
<path d="M441.479 315.531C441.479 315.927 441.361 316.313 441.141 316.642C440.922 316.971 440.609 317.228 440.244 317.379C439.878 317.53 439.476 317.57 439.088 317.493C438.7 317.416 438.344 317.225 438.064 316.945C437.785 316.666 437.594 316.309 437.517 315.921C437.44 315.533 437.479 315.131 437.631 314.766C437.782 314.4 438.038 314.088 438.367 313.868C438.696 313.649 439.083 313.531 439.479 313.531C440.009 313.531 440.518 313.742 440.893 314.117C441.268 314.492 441.479 315.001 441.479 315.531Z" fill="#93C5FD"/>
<path d="M413.18 323.508C414.284 323.508 415.18 322.612 415.18 321.508C415.18 320.403 414.284 319.508 413.18 319.508C412.075 319.508 411.18 320.403 411.18 321.508C411.18 322.612 412.075 323.508 413.18 323.508Z" fill="#93C5FD"/>
<path d="M421.75 321.508C421.75 321.903 421.633 322.29 421.413 322.619C421.193 322.948 420.881 323.204 420.515 323.356C420.15 323.507 419.748 323.547 419.36 323.469C418.972 323.392 418.615 323.202 418.336 322.922C418.056 322.642 417.866 322.286 417.788 321.898C417.711 321.51 417.751 321.108 417.902 320.742C418.054 320.377 418.31 320.065 418.639 319.845C418.968 319.625 419.354 319.508 419.75 319.508C420.28 319.508 420.789 319.719 421.164 320.094C421.539 320.469 421.75 320.977 421.75 321.508Z" fill="#93C5FD"/>
<path d="M426.33 323.508C427.435 323.508 428.33 322.612 428.33 321.508C428.33 320.403 427.435 319.508 426.33 319.508C425.226 319.508 424.33 320.403 424.33 321.508C424.33 322.612 425.226 323.508 426.33 323.508Z" fill="#93C5FD"/>
<path d="M434.898 321.508C434.898 321.903 434.781 322.29 434.561 322.619C434.342 322.948 434.029 323.204 433.664 323.356C433.298 323.507 432.896 323.547 432.508 323.469C432.12 323.392 431.764 323.202 431.484 322.922C431.205 322.642 431.014 322.286 430.937 321.898C430.86 321.51 430.899 321.108 431.051 320.742C431.202 320.377 431.458 320.065 431.787 319.845C432.116 319.625 432.503 319.508 432.898 319.508C433.429 319.508 433.938 319.719 434.313 320.094C434.688 320.469 434.898 320.977 434.898 321.508Z" fill="#93C5FD"/>
<path d="M441.479 321.508C441.479 321.903 441.361 322.29 441.141 322.619C440.922 322.948 440.609 323.204 440.244 323.356C439.878 323.507 439.476 323.547 439.088 323.469C438.7 323.392 438.344 323.202 438.064 322.922C437.785 322.642 437.594 322.286 437.517 321.898C437.44 321.51 437.479 321.108 437.631 320.742C437.782 320.377 438.038 320.065 438.367 319.845C438.696 319.625 439.083 319.508 439.479 319.508C440.009 319.508 440.518 319.719 440.893 320.094C441.268 320.469 441.479 320.977 441.479 321.508Z" fill="#93C5FD"/>
<path d="M408.548 307.547H407.398V323.507H408.548V307.547Z" fill="#263238"/>
<path d="M444.579 274.883H341.369V298.723H444.579V274.883Z" fill="#37474F"/>
<path d="M404.459 278.82H345.709V280.83H404.459V278.82Z" fill="#455A64"/>
<path d="M404.459 282.312H345.709V284.323H404.459V282.312Z" fill="#455A64"/>
<path d="M404.459 285.789H345.709V287.799H404.459V285.789Z" fill="#455A64"/>
<path d="M404.459 289.281H345.709V291.291H404.459V289.281Z" fill="#455A64"/>
<path d="M404.459 292.766H345.709V294.776H404.459V292.766Z" fill="#455A64"/>
<path d="M413.18 282.82C414.284 282.82 415.18 281.925 415.18 280.82C415.18 279.716 414.284 278.82 413.18 278.82C412.075 278.82 411.18 279.716 411.18 280.82C411.18 281.925 412.075 282.82 413.18 282.82Z" fill="#93C5FD"/>
<path d="M421.75 280.82C421.75 281.216 421.633 281.603 421.413 281.931C421.193 282.26 420.881 282.517 420.515 282.668C420.15 282.819 419.748 282.859 419.36 282.782C418.972 282.705 418.615 282.514 418.336 282.235C418.056 281.955 417.866 281.598 417.788 281.21C417.711 280.823 417.751 280.42 417.902 280.055C418.054 279.689 418.31 279.377 418.639 279.157C418.968 278.938 419.354 278.82 419.75 278.82C420.28 278.82 420.789 279.031 421.164 279.406C421.539 279.781 421.75 280.29 421.75 280.82Z" fill="#93C5FD"/>
<path d="M426.33 282.82C427.435 282.82 428.33 281.925 428.33 280.82C428.33 279.716 427.435 278.82 426.33 278.82C425.226 278.82 424.33 279.716 424.33 280.82C424.33 281.925 425.226 282.82 426.33 282.82Z" fill="#93C5FD"/>
<path d="M434.898 280.82C434.898 281.216 434.781 281.603 434.561 281.931C434.342 282.26 434.029 282.517 433.664 282.668C433.298 282.819 432.896 282.859 432.508 282.782C432.12 282.705 431.764 282.514 431.484 282.235C431.205 281.955 431.014 281.598 430.937 281.21C430.86 280.823 430.899 280.42 431.051 280.055C431.202 279.689 431.458 279.377 431.787 279.157C432.116 278.938 432.503 278.82 432.898 278.82C433.429 278.82 433.938 279.031 434.313 279.406C434.688 279.781 434.898 280.29 434.898 280.82Z" fill="#93C5FD"/>
<path d="M441.479 280.82C441.479 281.216 441.361 281.603 441.141 281.931C440.922 282.26 440.609 282.517 440.244 282.668C439.878 282.819 439.476 282.859 439.088 282.782C438.7 282.705 438.344 282.514 438.064 282.235C437.785 281.955 437.594 281.598 437.517 281.21C437.44 280.823 437.479 280.42 437.631 280.055C437.782 279.689 438.038 279.377 438.367 279.157C438.696 278.938 439.083 278.82 439.479 278.82C440.009 278.82 440.518 279.031 440.893 279.406C441.268 279.781 441.479 280.29 441.479 280.82Z" fill="#93C5FD"/>
<path d="M413.18 288.797C414.284 288.797 415.18 287.901 415.18 286.797C415.18 285.692 414.284 284.797 413.18 284.797C412.075 284.797 411.18 285.692 411.18 286.797C411.18 287.901 412.075 288.797 413.18 288.797Z" fill="#93C5FD"/>
<path d="M421.75 286.797C421.75 287.192 421.633 287.579 421.413 287.908C421.193 288.237 420.881 288.493 420.515 288.645C420.15 288.796 419.748 288.836 419.36 288.758C418.972 288.681 418.615 288.491 418.336 288.211C418.056 287.931 417.866 287.575 417.788 287.187C417.711 286.799 417.751 286.397 417.902 286.032C418.054 285.666 418.31 285.354 418.639 285.134C418.968 284.914 419.354 284.797 419.75 284.797C420.28 284.797 420.789 285.008 421.164 285.383C421.539 285.758 421.75 286.266 421.75 286.797Z" fill="#93C5FD"/>
<path d="M426.33 288.797C427.435 288.797 428.33 287.901 428.33 286.797C428.33 285.692 427.435 284.797 426.33 284.797C425.226 284.797 424.33 285.692 424.33 286.797C424.33 287.901 425.226 288.797 426.33 288.797Z" fill="#93C5FD"/>
<path d="M434.898 286.797C434.898 287.192 434.781 287.579 434.561 287.908C434.342 288.237 434.029 288.493 433.664 288.645C433.298 288.796 432.896 288.836 432.508 288.758C432.12 288.681 431.764 288.491 431.484 288.211C431.205 287.931 431.014 287.575 430.937 287.187C430.86 286.799 430.899 286.397 431.051 286.032C431.202 285.666 431.458 285.354 431.787 285.134C432.116 284.914 432.503 284.797 432.898 284.797C433.429 284.797 433.938 285.008 434.313 285.383C434.688 285.758 434.898 286.266 434.898 286.797Z" fill="#93C5FD"/>
<path d="M441.479 286.797C441.479 287.192 441.361 287.579 441.141 287.908C440.922 288.237 440.609 288.493 440.244 288.645C439.878 288.796 439.476 288.836 439.088 288.758C438.7 288.681 438.344 288.491 438.064 288.211C437.785 287.931 437.594 287.575 437.517 287.187C437.44 286.799 437.479 286.397 437.631 286.032C437.782 285.666 438.038 285.354 438.367 285.134C438.696 284.914 439.083 284.797 439.479 284.797C440.009 284.797 440.518 285.008 440.893 285.383C441.268 285.758 441.479 286.266 441.479 286.797Z" fill="#93C5FD"/>
<path d="M415.17 292.789C415.17 293.185 415.053 293.571 414.833 293.9C414.613 294.229 414.301 294.485 413.935 294.637C413.57 294.788 413.168 294.828 412.78 294.751C412.392 294.673 412.035 294.483 411.756 294.203C411.476 293.924 411.286 293.567 411.208 293.179C411.131 292.791 411.171 292.389 411.322 292.024C411.474 291.658 411.73 291.346 412.059 291.126C412.388 290.906 412.774 290.789 413.17 290.789C413.7 290.789 414.209 291 414.584 291.375C414.959 291.75 415.17 292.259 415.17 292.789Z" fill="#93C5FD"/>
<path d="M421.75 292.789C421.75 293.185 421.633 293.571 421.413 293.9C421.193 294.229 420.881 294.485 420.515 294.637C420.15 294.788 419.748 294.828 419.36 294.751C418.972 294.673 418.615 294.483 418.336 294.203C418.056 293.924 417.866 293.567 417.788 293.179C417.711 292.791 417.751 292.389 417.902 292.024C418.054 291.658 418.31 291.346 418.639 291.126C418.968 290.906 419.354 290.789 419.75 290.789C420.28 290.789 420.789 291 421.164 291.375C421.539 291.75 421.75 292.259 421.75 292.789Z" fill="#93C5FD"/>
<path d="M428.33 292.789C428.33 293.185 428.213 293.571 427.993 293.9C427.773 294.229 427.461 294.485 427.095 294.637C426.73 294.788 426.328 294.828 425.94 294.751C425.552 294.673 425.196 294.483 424.916 294.203C424.636 293.924 424.446 293.567 424.369 293.179C424.291 292.791 424.331 292.389 424.482 292.024C424.634 291.658 424.89 291.346 425.219 291.126C425.548 290.906 425.934 290.789 426.33 290.789C426.86 290.789 427.369 291 427.744 291.375C428.119 291.75 428.33 292.259 428.33 292.789Z" fill="#93C5FD"/>
<path d="M434.898 292.789C434.898 293.185 434.781 293.571 434.561 293.9C434.342 294.229 434.029 294.485 433.664 294.637C433.298 294.788 432.896 294.828 432.508 294.751C432.12 294.673 431.764 294.483 431.484 294.203C431.205 293.924 431.014 293.567 430.937 293.179C430.86 292.791 430.899 292.389 431.051 292.024C431.202 291.658 431.458 291.346 431.787 291.126C432.116 290.906 432.503 290.789 432.898 290.789C433.429 290.789 433.938 291 434.313 291.375C434.688 291.75 434.898 292.259 434.898 292.789Z" fill="#93C5FD"/>
<path d="M441.479 292.789C441.479 293.185 441.361 293.571 441.141 293.9C440.922 294.229 440.609 294.485 440.244 294.637C439.878 294.788 439.476 294.828 439.088 294.751C438.7 294.673 438.344 294.483 438.064 294.203C437.785 293.924 437.594 293.567 437.517 293.179C437.44 292.791 437.479 292.389 437.631 292.024C437.782 291.658 438.038 291.346 438.367 291.126C438.696 290.906 439.083 290.789 439.479 290.789C440.009 290.789 440.518 291 440.893 291.375C441.268 291.75 441.479 292.259 441.479 292.789Z" fill="#93C5FD"/>
<path d="M408.548 278.82H407.398V294.78H408.548V278.82Z" fill="#263238"/>
<path d="M444.579 246.148H341.369V269.988H444.579V246.148Z" fill="#37474F"/>
<path d="M404.459 250.086H345.709V252.096H404.459V250.086Z" fill="#455A64"/>
<path d="M404.459 253.578H345.709V255.588H404.459V253.578Z" fill="#455A64"/>
<path d="M404.459 257.07H345.709V259.08H404.459V257.07Z" fill="#455A64"/>
<path d="M404.459 260.547H345.709V262.557H404.459V260.547Z" fill="#455A64"/>
<path d="M404.459 264.039H345.709V266.049H404.459V264.039Z" fill="#455A64"/>
<path d="M415.17 252.086C415.17 252.482 415.053 252.868 414.833 253.197C414.613 253.526 414.301 253.782 413.935 253.934C413.57 254.085 413.168 254.125 412.78 254.048C412.392 253.97 412.035 253.78 411.756 253.5C411.476 253.22 411.286 252.864 411.208 252.476C411.131 252.088 411.171 251.686 411.322 251.321C411.474 250.955 411.73 250.643 412.059 250.423C412.388 250.203 412.774 250.086 413.17 250.086C413.7 250.086 414.209 250.297 414.584 250.672C414.959 251.047 415.17 251.556 415.17 252.086Z" fill="#93C5FD"/>
<path d="M421.75 252.086C421.75 252.482 421.633 252.868 421.413 253.197C421.193 253.526 420.881 253.782 420.515 253.934C420.15 254.085 419.748 254.125 419.36 254.048C418.972 253.97 418.615 253.78 418.336 253.5C418.056 253.22 417.866 252.864 417.788 252.476C417.711 252.088 417.751 251.686 417.902 251.321C418.054 250.955 418.31 250.643 418.639 250.423C418.968 250.203 419.354 250.086 419.75 250.086C420.28 250.086 420.789 250.297 421.164 250.672C421.539 251.047 421.75 251.556 421.75 252.086Z" fill="#93C5FD"/>
<path d="M428.33 252.086C428.33 252.482 428.213 252.868 427.993 253.197C427.773 253.526 427.461 253.782 427.095 253.934C426.73 254.085 426.328 254.125 425.94 254.048C425.552 253.97 425.196 253.78 424.916 253.5C424.636 253.22 424.446 252.864 424.369 252.476C424.291 252.088 424.331 251.686 424.482 251.321C424.634 250.955 424.89 250.643 425.219 250.423C425.548 250.203 425.934 250.086 426.33 250.086C426.86 250.086 427.369 250.297 427.744 250.672C428.119 251.047 428.33 251.556 428.33 252.086Z" fill="#93C5FD"/>
<path d="M434.898 252.086C434.898 252.482 434.781 252.868 434.561 253.197C434.342 253.526 434.029 253.782 433.664 253.934C433.298 254.085 432.896 254.125 432.508 254.048C432.12 253.97 431.764 253.78 431.484 253.5C431.205 253.22 431.014 252.864 430.937 252.476C430.86 252.088 430.899 251.686 431.051 251.321C431.202 250.955 431.458 250.643 431.787 250.423C432.116 250.203 432.503 250.086 432.898 250.086C433.429 250.086 433.938 250.297 434.313 250.672C434.688 251.047 434.898 251.556 434.898 252.086Z" fill="#93C5FD"/>
<path d="M441.479 252.086C441.479 252.482 441.361 252.868 441.141 253.197C440.922 253.526 440.609 253.782 440.244 253.934C439.878 254.085 439.476 254.125 439.088 254.048C438.7 253.97 438.344 253.78 438.064 253.5C437.785 253.22 437.594 252.864 437.517 252.476C437.44 252.088 437.479 251.686 437.631 251.321C437.782 250.955 438.038 250.643 438.367 250.423C438.696 250.203 439.083 250.086 439.479 250.086C440.009 250.086 440.518 250.297 440.893 250.672C441.268 251.047 441.479 251.556 441.479 252.086Z" fill="#93C5FD"/>
<path d="M415.17 258.07C415.17 258.466 415.053 258.853 414.833 259.181C414.613 259.51 414.301 259.767 413.935 259.918C413.57 260.069 413.168 260.109 412.78 260.032C412.392 259.955 412.035 259.764 411.756 259.485C411.476 259.205 411.286 258.848 411.208 258.46C411.131 258.073 411.171 257.67 411.322 257.305C411.474 256.939 411.73 256.627 412.059 256.407C412.388 256.188 412.774 256.07 413.17 256.07C413.7 256.07 414.209 256.281 414.584 256.656C414.959 257.031 415.17 257.54 415.17 258.07Z" fill="#93C5FD"/>
<path d="M421.75 258.07C421.75 258.466 421.633 258.853 421.413 259.181C421.193 259.51 420.881 259.767 420.515 259.918C420.15 260.069 419.748 260.109 419.36 260.032C418.972 259.955 418.615 259.764 418.336 259.485C418.056 259.205 417.866 258.848 417.788 258.46C417.711 258.073 417.751 257.67 417.902 257.305C418.054 256.939 418.31 256.627 418.639 256.407C418.968 256.188 419.354 256.07 419.75 256.07C420.28 256.07 420.789 256.281 421.164 256.656C421.539 257.031 421.75 257.54 421.75 258.07Z" fill="#93C5FD"/>
<path d="M428.33 258.07C428.33 258.466 428.213 258.853 427.993 259.181C427.773 259.51 427.461 259.767 427.095 259.918C426.73 260.069 426.328 260.109 425.94 260.032C425.552 259.955 425.196 259.764 424.916 259.485C424.636 259.205 424.446 258.848 424.369 258.46C424.291 258.073 424.331 257.67 424.482 257.305C424.634 256.939 424.89 256.627 425.219 256.407C425.548 256.188 425.934 256.07 426.33 256.07C426.86 256.07 427.369 256.281 427.744 256.656C428.119 257.031 428.33 257.54 428.33 258.07Z" fill="#93C5FD"/>
<path d="M434.898 258.07C434.898 258.466 434.781 258.853 434.561 259.181C434.342 259.51 434.029 259.767 433.664 259.918C433.298 260.069 432.896 260.109 432.508 260.032C432.12 259.955 431.764 259.764 431.484 259.485C431.205 259.205 431.014 258.848 430.937 258.46C430.86 258.073 430.899 257.67 431.051 257.305C431.202 256.939 431.458 256.627 431.787 256.407C432.116 256.188 432.503 256.07 432.898 256.07C433.429 256.07 433.938 256.281 434.313 256.656C434.688 257.031 434.898 257.54 434.898 258.07Z" fill="#93C5FD"/>
<path d="M441.479 258.07C441.479 258.466 441.361 258.853 441.141 259.181C440.922 259.51 440.609 259.767 440.244 259.918C439.878 260.069 439.476 260.109 439.088 260.032C438.7 259.955 438.344 259.764 438.064 259.485C437.785 259.205 437.594 258.848 437.517 258.46C437.44 258.073 437.479 257.67 437.631 257.305C437.782 256.939 438.038 256.627 438.367 256.407C438.696 256.188 439.083 256.07 439.479 256.07C440.009 256.07 440.518 256.281 440.893 256.656C441.268 257.031 441.479 257.54 441.479 258.07Z" fill="#93C5FD"/>
<path d="M415.17 264.062C415.17 264.458 415.053 264.845 414.833 265.174C414.613 265.503 414.301 265.759 413.935 265.91C413.57 266.062 413.168 266.101 412.78 266.024C412.392 265.947 412.035 265.756 411.756 265.477C411.476 265.197 411.286 264.841 411.208 264.453C411.131 264.065 411.171 263.663 411.322 263.297C411.474 262.932 411.73 262.619 412.059 262.4C412.388 262.18 412.774 262.062 413.17 262.062C413.7 262.062 414.209 262.273 414.584 262.648C414.959 263.023 415.17 263.532 415.17 264.062Z" fill="#93C5FD"/>
<path d="M421.75 264.062C421.75 264.458 421.633 264.845 421.413 265.174C421.193 265.503 420.881 265.759 420.515 265.91C420.15 266.062 419.748 266.101 419.36 266.024C418.972 265.947 418.615 265.756 418.336 265.477C418.056 265.197 417.866 264.841 417.788 264.453C417.711 264.065 417.751 263.663 417.902 263.297C418.054 262.932 418.31 262.619 418.639 262.4C418.968 262.18 419.354 262.062 419.75 262.062C420.28 262.062 420.789 262.273 421.164 262.648C421.539 263.023 421.75 263.532 421.75 264.062Z" fill="#93C5FD"/>
<path d="M428.33 264.062C428.33 264.458 428.213 264.845 427.993 265.174C427.773 265.503 427.461 265.759 427.095 265.91C426.73 266.062 426.328 266.101 425.94 266.024C425.552 265.947 425.196 265.756 424.916 265.477C424.636 265.197 424.446 264.841 424.369 264.453C424.291 264.065 424.331 263.663 424.482 263.297C424.634 262.932 424.89 262.619 425.219 262.4C425.548 262.18 425.934 262.062 426.33 262.062C426.86 262.062 427.369 262.273 427.744 262.648C428.119 263.023 428.33 263.532 428.33 264.062Z" fill="#93C5FD"/>
<path d="M434.898 264.062C434.898 264.458 434.781 264.845 434.561 265.174C434.342 265.503 434.029 265.759 433.664 265.91C433.298 266.062 432.896 266.101 432.508 266.024C432.12 265.947 431.764 265.756 431.484 265.477C431.205 265.197 431.014 264.841 430.937 264.453C430.86 264.065 430.899 263.663 431.051 263.297C431.202 262.932 431.458 262.619 431.787 262.4C432.116 262.18 432.503 262.062 432.898 262.062C433.429 262.062 433.938 262.273 434.313 262.648C434.688 263.023 434.898 263.532 434.898 264.062Z" fill="#93C5FD"/>
<path d="M441.479 264.062C441.479 264.458 441.361 264.845 441.141 265.174C440.922 265.503 440.609 265.759 440.244 265.91C439.878 266.062 439.476 266.101 439.088 266.024C438.7 265.947 438.344 265.756 438.064 265.477C437.785 265.197 437.594 264.841 437.517 264.453C437.44 264.065 437.479 263.663 437.631 263.297C437.782 262.932 438.038 262.619 438.367 262.4C438.696 262.18 439.083 262.062 439.479 262.062C440.009 262.062 440.518 262.273 440.893 262.648C441.268 263.023 441.479 263.532 441.479 264.062Z" fill="#93C5FD"/>
<path d="M408.548 250.086H407.398V266.046H408.548V250.086Z" fill="#263238"/>
<path d="M444.579 217.43H341.369V241.27H444.579V217.43Z" fill="#37474F"/>
<path d="M404.459 221.359H345.709V223.369H404.459V221.359Z" fill="#455A64"/>
<path d="M404.459 224.852H345.709V226.862H404.459V224.852Z" fill="#455A64"/>
<path d="M404.459 228.336H345.709V230.346H404.459V228.336Z" fill="#455A64"/>
<path d="M404.459 231.828H345.709V233.838H404.459V231.828Z" fill="#455A64"/>
<path d="M404.459 235.312H345.709V237.323H404.459V235.312Z" fill="#455A64"/>
<path d="M415.17 223.359C415.17 223.755 415.053 224.142 414.833 224.471C414.613 224.799 414.301 225.056 413.935 225.207C413.57 225.359 413.168 225.398 412.78 225.321C412.392 225.244 412.035 225.053 411.756 224.774C411.476 224.494 411.286 224.138 411.208 223.75C411.131 223.362 411.171 222.959 411.322 222.594C411.474 222.229 411.73 221.916 412.059 221.696C412.388 221.477 412.774 221.359 413.17 221.359C413.7 221.359 414.209 221.57 414.584 221.945C414.959 222.32 415.17 222.829 415.17 223.359Z" fill="#93C5FD"/>
<path d="M421.75 223.359C421.75 223.755 421.633 224.142 421.413 224.471C421.193 224.799 420.881 225.056 420.515 225.207C420.15 225.359 419.748 225.398 419.36 225.321C418.972 225.244 418.615 225.053 418.336 224.774C418.056 224.494 417.866 224.138 417.788 223.75C417.711 223.362 417.751 222.959 417.902 222.594C418.054 222.229 418.31 221.916 418.639 221.696C418.968 221.477 419.354 221.359 419.75 221.359C420.28 221.359 420.789 221.57 421.164 221.945C421.539 222.32 421.75 222.829 421.75 223.359Z" fill="#93C5FD"/>
<path d="M428.33 223.359C428.33 223.755 428.213 224.142 427.993 224.471C427.773 224.799 427.461 225.056 427.095 225.207C426.73 225.359 426.328 225.398 425.94 225.321C425.552 225.244 425.196 225.053 424.916 224.774C424.636 224.494 424.446 224.138 424.369 223.75C424.291 223.362 424.331 222.959 424.482 222.594C424.634 222.229 424.89 221.916 425.219 221.696C425.548 221.477 425.934 221.359 426.33 221.359C426.86 221.359 427.369 221.57 427.744 221.945C428.119 222.32 428.33 222.829 428.33 223.359Z" fill="#93C5FD"/>
<path d="M434.898 223.359C434.898 223.755 434.781 224.142 434.561 224.471C434.342 224.799 434.029 225.056 433.664 225.207C433.298 225.359 432.896 225.398 432.508 225.321C432.12 225.244 431.764 225.053 431.484 224.774C431.205 224.494 431.014 224.138 430.937 223.75C430.86 223.362 430.899 222.959 431.051 222.594C431.202 222.229 431.458 221.916 431.787 221.696C432.116 221.477 432.503 221.359 432.898 221.359C433.429 221.359 433.938 221.57 434.313 221.945C434.688 222.32 434.898 222.829 434.898 223.359Z" fill="#93C5FD"/>
<path d="M441.479 223.359C441.479 223.755 441.361 224.142 441.141 224.471C440.922 224.799 440.609 225.056 440.244 225.207C439.878 225.359 439.476 225.398 439.088 225.321C438.7 225.244 438.344 225.053 438.064 224.774C437.785 224.494 437.594 224.138 437.517 223.75C437.44 223.362 437.479 222.959 437.631 222.594C437.782 222.229 438.038 221.916 438.367 221.696C438.696 221.477 439.083 221.359 439.479 221.359C440.009 221.359 440.518 221.57 440.893 221.945C441.268 222.32 441.479 222.829 441.479 223.359Z" fill="#93C5FD"/>
<path d="M415.17 229.352C415.17 229.747 415.053 230.134 414.833 230.463C414.613 230.792 414.301 231.048 413.935 231.199C413.57 231.351 413.168 231.39 412.78 231.313C412.392 231.236 412.035 231.045 411.756 230.766C411.476 230.486 411.286 230.13 411.208 229.742C411.131 229.354 411.171 228.952 411.322 228.586C411.474 228.221 411.73 227.908 412.059 227.689C412.388 227.469 412.774 227.352 413.17 227.352C413.7 227.352 414.209 227.562 414.584 227.937C414.959 228.312 415.17 228.821 415.17 229.352Z" fill="#93C5FD"/>
<path d="M421.75 229.352C421.75 229.747 421.633 230.134 421.413 230.463C421.193 230.792 420.881 231.048 420.515 231.199C420.15 231.351 419.748 231.39 419.36 231.313C418.972 231.236 418.615 231.045 418.336 230.766C418.056 230.486 417.866 230.13 417.788 229.742C417.711 229.354 417.751 228.952 417.902 228.586C418.054 228.221 418.31 227.908 418.639 227.689C418.968 227.469 419.354 227.352 419.75 227.352C420.28 227.352 420.789 227.562 421.164 227.937C421.539 228.312 421.75 228.821 421.75 229.352Z" fill="#93C5FD"/>
<path d="M428.33 229.352C428.33 229.747 428.213 230.134 427.993 230.463C427.773 230.792 427.461 231.048 427.095 231.199C426.73 231.351 426.328 231.39 425.94 231.313C425.552 231.236 425.196 231.045 424.916 230.766C424.636 230.486 424.446 230.13 424.369 229.742C424.291 229.354 424.331 228.952 424.482 228.586C424.634 228.221 424.89 227.908 425.219 227.689C425.548 227.469 425.934 227.352 426.33 227.352C426.86 227.352 427.369 227.562 427.744 227.937C428.119 228.312 428.33 228.821 428.33 229.352Z" fill="#93C5FD"/>
<path d="M434.898 229.352C434.898 229.747 434.781 230.134 434.561 230.463C434.342 230.792 434.029 231.048 433.664 231.199C433.298 231.351 432.896 231.39 432.508 231.313C432.12 231.236 431.764 231.045 431.484 230.766C431.205 230.486 431.014 230.13 430.937 229.742C430.86 229.354 430.899 228.952 431.051 228.586C431.202 228.221 431.458 227.908 431.787 227.689C432.116 227.469 432.503 227.352 432.898 227.352C433.429 227.352 433.938 227.562 434.313 227.937C434.688 228.312 434.898 228.821 434.898 229.352Z" fill="#93C5FD"/>
<path d="M441.479 229.352C441.479 229.747 441.361 230.134 441.141 230.463C440.922 230.792 440.609 231.048 440.244 231.199C439.878 231.351 439.476 231.39 439.088 231.313C438.7 231.236 438.344 231.045 438.064 230.766C437.785 230.486 437.594 230.13 437.517 229.742C437.44 229.354 437.479 228.952 437.631 228.586C437.782 228.221 438.038 227.908 438.367 227.689C438.696 227.469 439.083 227.352 439.479 227.352C440.009 227.352 440.518 227.562 440.893 227.937C441.268 228.312 441.479 228.821 441.479 229.352Z" fill="#93C5FD"/>
<path d="M415.17 235.328C415.17 235.724 415.053 236.11 414.833 236.439C414.613 236.768 414.301 237.025 413.935 237.176C413.57 237.327 413.168 237.367 412.78 237.29C412.392 237.213 412.035 237.022 411.756 236.742C411.476 236.463 411.286 236.106 411.208 235.718C411.131 235.33 411.171 234.928 411.322 234.563C411.474 234.197 411.73 233.885 412.059 233.665C412.388 233.445 412.774 233.328 413.17 233.328C413.7 233.328 414.209 233.539 414.584 233.914C414.959 234.289 415.17 234.798 415.17 235.328Z" fill="#93C5FD"/>
<path d="M421.75 235.328C421.75 235.724 421.633 236.11 421.413 236.439C421.193 236.768 420.881 237.025 420.515 237.176C420.15 237.327 419.748 237.367 419.36 237.29C418.972 237.213 418.615 237.022 418.336 236.742C418.056 236.463 417.866 236.106 417.788 235.718C417.711 235.33 417.751 234.928 417.902 234.563C418.054 234.197 418.31 233.885 418.639 233.665C418.968 233.445 419.354 233.328 419.75 233.328C420.28 233.328 420.789 233.539 421.164 233.914C421.539 234.289 421.75 234.798 421.75 235.328Z" fill="#93C5FD"/>
<path d="M428.33 235.328C428.33 235.724 428.213 236.11 427.993 236.439C427.773 236.768 427.461 237.025 427.095 237.176C426.73 237.327 426.328 237.367 425.94 237.29C425.552 237.213 425.196 237.022 424.916 236.742C424.636 236.463 424.446 236.106 424.369 235.718C424.291 235.33 424.331 234.928 424.482 234.563C424.634 234.197 424.89 233.885 425.219 233.665C425.548 233.445 425.934 233.328 426.33 233.328C426.86 233.328 427.369 233.539 427.744 233.914C428.119 234.289 428.33 234.798 428.33 235.328Z" fill="#93C5FD"/>
<path d="M434.898 235.328C434.898 235.724 434.781 236.11 434.561 236.439C434.342 236.768 434.029 237.025 433.664 237.176C433.298 237.327 432.896 237.367 432.508 237.29C432.12 237.213 431.764 237.022 431.484 236.742C431.205 236.463 431.014 236.106 430.937 235.718C430.86 235.33 430.899 234.928 431.051 234.563C431.202 234.197 431.458 233.885 431.787 233.665C432.116 233.445 432.503 233.328 432.898 233.328C433.429 233.328 433.938 233.539 434.313 233.914C434.688 234.289 434.898 234.798 434.898 235.328Z" fill="#93C5FD"/>
<path d="M441.479 235.328C441.479 235.724 441.361 236.11 441.141 236.439C440.922 236.768 440.609 237.025 440.244 237.176C439.878 237.327 439.476 237.367 439.088 237.29C438.7 237.213 438.344 237.022 438.064 236.742C437.785 236.463 437.594 236.106 437.517 235.718C437.44 235.33 437.479 234.928 437.631 234.563C437.782 234.197 438.038 233.885 438.367 233.665C438.696 233.445 439.083 233.328 439.479 233.328C440.009 233.328 440.518 233.539 440.893 233.914C441.268 234.289 441.479 234.798 441.479 235.328Z" fill="#93C5FD"/>
<path d="M408.548 221.359H407.398V237.319H408.548V221.359Z" fill="#263238"/>
<path d="M444.579 188.703H341.369V212.543H444.579V188.703Z" fill="#37474F"/>
<path d="M404.459 192.641H345.709V194.651H404.459V192.641Z" fill="#455A64"/>
<path d="M404.459 196.117H345.709V198.127H404.459V196.117Z" fill="#455A64"/>
<path d="M404.459 199.609H345.709V201.619H404.459V199.609Z" fill="#455A64"/>
<path d="M404.459 203.102H345.709V205.112H404.459V203.102Z" fill="#455A64"/>
<path d="M404.459 206.586H345.709V208.596H404.459V206.586Z" fill="#455A64"/>
<path d="M415.17 194.633C415.17 195.028 415.053 195.415 414.833 195.744C414.613 196.073 414.301 196.329 413.935 196.481C413.57 196.632 413.168 196.672 412.78 196.594C412.392 196.517 412.035 196.327 411.756 196.047C411.476 195.767 411.286 195.411 411.208 195.023C411.131 194.635 411.171 194.233 411.322 193.867C411.474 193.502 411.73 193.19 412.059 192.97C412.388 192.75 412.774 192.633 413.17 192.633C413.7 192.633 414.209 192.844 414.584 193.219C414.959 193.594 415.17 194.102 415.17 194.633Z" fill="#93C5FD"/>
<path d="M421.75 194.633C421.75 195.028 421.633 195.415 421.413 195.744C421.193 196.073 420.881 196.329 420.515 196.481C420.15 196.632 419.748 196.672 419.36 196.594C418.972 196.517 418.615 196.327 418.336 196.047C418.056 195.767 417.866 195.411 417.788 195.023C417.711 194.635 417.751 194.233 417.902 193.867C418.054 193.502 418.31 193.19 418.639 192.97C418.968 192.75 419.354 192.633 419.75 192.633C420.28 192.633 420.789 192.844 421.164 193.219C421.539 193.594 421.75 194.102 421.75 194.633Z" fill="#93C5FD"/>
<path d="M428.33 194.633C428.33 195.028 428.213 195.415 427.993 195.744C427.773 196.073 427.461 196.329 427.095 196.481C426.73 196.632 426.328 196.672 425.94 196.594C425.552 196.517 425.196 196.327 424.916 196.047C424.636 195.767 424.446 195.411 424.369 195.023C424.291 194.635 424.331 194.233 424.482 193.867C424.634 193.502 424.89 193.19 425.219 192.97C425.548 192.75 425.934 192.633 426.33 192.633C426.86 192.633 427.369 192.844 427.744 193.219C428.119 193.594 428.33 194.102 428.33 194.633Z" fill="#93C5FD"/>
<path d="M434.898 194.633C434.898 195.028 434.781 195.415 434.561 195.744C434.342 196.073 434.029 196.329 433.664 196.481C433.298 196.632 432.896 196.672 432.508 196.594C432.12 196.517 431.764 196.327 431.484 196.047C431.205 195.767 431.014 195.411 430.937 195.023C430.86 194.635 430.899 194.233 431.051 193.867C431.202 193.502 431.458 193.19 431.787 192.97C432.116 192.75 432.503 192.633 432.898 192.633C433.429 192.633 433.938 192.844 434.313 193.219C434.688 193.594 434.898 194.102 434.898 194.633Z" fill="#93C5FD"/>
<path d="M441.479 194.633C441.479 195.028 441.361 195.415 441.141 195.744C440.922 196.073 440.609 196.329 440.244 196.481C439.878 196.632 439.476 196.672 439.088 196.594C438.7 196.517 438.344 196.327 438.064 196.047C437.785 195.767 437.594 195.411 437.517 195.023C437.44 194.635 437.479 194.233 437.631 193.867C437.782 193.502 438.038 193.19 438.367 192.97C438.696 192.75 439.083 192.633 439.479 192.633C440.009 192.633 440.518 192.844 440.893 193.219C441.268 193.594 441.479 194.102 441.479 194.633Z" fill="#93C5FD"/>
<path d="M413.18 202.617C414.284 202.617 415.18 201.722 415.18 200.617C415.18 199.513 414.284 198.617 413.18 198.617C412.075 198.617 411.18 199.513 411.18 200.617C411.18 201.722 412.075 202.617 413.18 202.617Z" fill="#93C5FD"/>
<path d="M421.75 200.617C421.75 201.013 421.633 201.399 421.413 201.728C421.193 202.057 420.881 202.314 420.515 202.465C420.15 202.616 419.748 202.656 419.36 202.579C418.972 202.502 418.615 202.311 418.336 202.031C418.056 201.752 417.866 201.395 417.788 201.007C417.711 200.619 417.751 200.217 417.902 199.852C418.054 199.486 418.31 199.174 418.639 198.954C418.968 198.734 419.354 198.617 419.75 198.617C420.28 198.617 420.789 198.828 421.164 199.203C421.539 199.578 421.75 200.087 421.75 200.617Z" fill="#93C5FD"/>
<path d="M426.33 202.617C427.435 202.617 428.33 201.722 428.33 200.617C428.33 199.513 427.435 198.617 426.33 198.617C425.226 198.617 424.33 199.513 424.33 200.617C424.33 201.722 425.226 202.617 426.33 202.617Z" fill="#93C5FD"/>
<path d="M434.898 200.617C434.898 201.013 434.781 201.399 434.561 201.728C434.342 202.057 434.029 202.314 433.664 202.465C433.298 202.616 432.896 202.656 432.508 202.579C432.12 202.502 431.764 202.311 431.484 202.031C431.205 201.752 431.014 201.395 430.937 201.007C430.86 200.619 430.899 200.217 431.051 199.852C431.202 199.486 431.458 199.174 431.787 198.954C432.116 198.734 432.503 198.617 432.898 198.617C433.429 198.617 433.938 198.828 434.313 199.203C434.688 199.578 434.898 200.087 434.898 200.617Z" fill="#93C5FD"/>
<path d="M441.479 200.617C441.479 201.013 441.361 201.399 441.141 201.728C440.922 202.057 440.609 202.314 440.244 202.465C439.878 202.616 439.476 202.656 439.088 202.579C438.7 202.502 438.344 202.311 438.064 202.031C437.785 201.752 437.594 201.395 437.517 201.007C437.44 200.619 437.479 200.217 437.631 199.852C437.782 199.486 438.038 199.174 438.367 198.954C438.696 198.734 439.083 198.617 439.479 198.617C440.009 198.617 440.518 198.828 440.893 199.203C441.268 199.578 441.479 200.087 441.479 200.617Z" fill="#93C5FD"/>
<path d="M415.17 206.602C415.17 206.997 415.053 207.384 414.833 207.713C414.613 208.042 414.301 208.298 413.935 208.449C413.57 208.601 413.168 208.64 412.78 208.563C412.392 208.486 412.035 208.295 411.756 208.016C411.476 207.736 411.286 207.38 411.208 206.992C411.131 206.604 411.171 206.202 411.322 205.836C411.474 205.471 411.73 205.158 412.059 204.939C412.388 204.719 412.774 204.602 413.17 204.602C413.7 204.602 414.209 204.812 414.584 205.187C414.959 205.562 415.17 206.071 415.17 206.602Z" fill="#93C5FD"/>
<path d="M421.75 206.602C421.75 206.997 421.633 207.384 421.413 207.713C421.193 208.042 420.881 208.298 420.515 208.449C420.15 208.601 419.748 208.64 419.36 208.563C418.972 208.486 418.615 208.295 418.336 208.016C418.056 207.736 417.866 207.38 417.788 206.992C417.711 206.604 417.751 206.202 417.902 205.836C418.054 205.471 418.31 205.158 418.639 204.939C418.968 204.719 419.354 204.602 419.75 204.602C420.28 204.602 420.789 204.812 421.164 205.187C421.539 205.562 421.75 206.071 421.75 206.602Z" fill="#93C5FD"/>
<path d="M428.33 206.602C428.33 206.997 428.213 207.384 427.993 207.713C427.773 208.042 427.461 208.298 427.095 208.449C426.73 208.601 426.328 208.64 425.94 208.563C425.552 208.486 425.196 208.295 424.916 208.016C424.636 207.736 424.446 207.38 424.369 206.992C424.291 206.604 424.331 206.202 424.482 205.836C424.634 205.471 424.89 205.158 425.219 204.939C425.548 204.719 425.934 204.602 426.33 204.602C426.86 204.602 427.369 204.812 427.744 205.187C428.119 205.562 428.33 206.071 428.33 206.602Z" fill="#93C5FD"/>
<path d="M434.898 206.602C434.898 206.997 434.781 207.384 434.561 207.713C434.342 208.042 434.029 208.298 433.664 208.449C433.298 208.601 432.896 208.64 432.508 208.563C432.12 208.486 431.764 208.295 431.484 208.016C431.205 207.736 431.014 207.38 430.937 206.992C430.86 206.604 430.899 206.202 431.051 205.836C431.202 205.471 431.458 205.158 431.787 204.939C432.116 204.719 432.503 204.602 432.898 204.602C433.429 204.602 433.938 204.812 434.313 205.187C434.688 205.562 434.898 206.071 434.898 206.602Z" fill="#93C5FD"/>
<path d="M441.479 206.602C441.479 206.997 441.361 207.384 441.141 207.713C440.922 208.042 440.609 208.298 440.244 208.449C439.878 208.601 439.476 208.64 439.088 208.563C438.7 208.486 438.344 208.295 438.064 208.016C437.785 207.736 437.594 207.38 437.517 206.992C437.44 206.604 437.479 206.202 437.631 205.836C437.782 205.471 438.038 205.158 438.367 204.939C438.696 204.719 439.083 204.602 439.479 204.602C440.009 204.602 440.518 204.812 440.893 205.187C441.268 205.562 441.479 206.071 441.479 206.602Z" fill="#93C5FD"/>
<path d="M408.548 192.641H407.398V208.601H408.548V192.641Z" fill="#263238"/>
<path d="M427.739 168.859H291.689V176.419H427.739V168.859Z" fill="#37474F"/>
<path d="M293.049 384.07H277.859V399.26H293.049V384.07Z" fill="#263238"/>
<path d="M63 226.702V212.312H65.27V226.702H63Z" fill="#263238"/>
<path d="M70.7895 216.573V226.702H68.5195V212.312H70.2995L78.5295 222.693V212.333H80.8195V226.702H78.9395L70.7895 216.573Z" fill="#263238"/>
<path d="M94.62 214.32H89.84V226.7H87.55V214.32H82.75V212.32H94.62V214.32Z" fill="#263238"/>
<path d="M106.421 224.702V226.702H96.5508V212.312H106.241V214.312H98.8208V218.402H105.251V220.292H98.8208V224.693L106.421 224.702Z" fill="#263238"/>
<path d="M108.77 226.703V212.313H115C115.62 212.309 116.233 212.449 116.79 212.723C117.325 212.98 117.804 213.34 118.2 213.783C118.592 214.224 118.904 214.732 119.12 215.283C119.341 215.829 119.456 216.413 119.46 217.003C119.461 217.474 119.39 217.943 119.25 218.393C119.123 218.832 118.931 219.25 118.68 219.633C118.445 220.016 118.143 220.355 117.79 220.633C117.449 220.91 117.059 221.121 116.64 221.253L120.02 226.723H117.45L114.33 221.723H111V226.723L108.77 226.703ZM111.04 219.703H115.04C115.346 219.706 115.648 219.634 115.92 219.493C116.186 219.347 116.418 219.146 116.6 218.903C116.782 218.627 116.917 218.323 117 218.003C117.106 217.68 117.16 217.342 117.16 217.003C117.158 216.66 117.094 216.321 116.97 216.003C116.847 215.695 116.679 215.409 116.47 215.153C116.264 214.916 116.017 214.719 115.74 214.573C115.47 214.435 115.172 214.363 114.87 214.363H111L111.04 219.703Z" fill="#263238"/>
<path d="M124.44 216.573V226.702H122.17V212.312H124L132.23 222.693V212.333H134.52V226.702H132.64L124.44 216.573Z" fill="#263238"/>
<path d="M142.001 212.312H144.001L149.681 226.702H147.281L145.761 222.792H140.211L138.711 226.702H136.301L142.001 212.312ZM145.311 221.113L143.001 214.932L140.611 221.113H145.311Z" fill="#263238"/>
<path d="M151.4 226.702V212.312H153.67V224.702H161.39V226.702H151.4Z" fill="#263238"/>
<path d="M176.211 215.703C176.034 215.52 175.836 215.359 175.621 215.223C175.338 215.037 175.036 214.879 174.721 214.753C174.353 214.596 173.971 214.472 173.581 214.383C173.167 214.291 172.745 214.244 172.321 214.243C171.575 214.181 170.83 214.368 170.201 214.773C169.978 214.944 169.8 215.166 169.682 215.42C169.563 215.674 169.508 215.953 169.521 216.233C169.509 216.534 169.582 216.832 169.731 217.093C169.902 217.336 170.128 217.535 170.391 217.673C170.745 217.866 171.121 218.017 171.511 218.123C171.951 218.25 172.471 218.39 173.071 218.543C173.749 218.697 174.416 218.89 175.071 219.123C175.604 219.311 176.107 219.577 176.561 219.913C176.959 220.221 177.283 220.614 177.511 221.063C177.745 221.581 177.858 222.145 177.841 222.713C177.856 223.367 177.716 224.015 177.431 224.603C177.159 225.116 176.768 225.555 176.291 225.883C175.786 226.232 175.219 226.48 174.621 226.613C173.95 226.777 173.261 226.858 172.571 226.853C171.494 226.854 170.425 226.685 169.401 226.353C168.4 226.034 167.463 225.544 166.631 224.903L167.631 222.903C167.858 223.132 168.113 223.33 168.391 223.493C168.753 223.731 169.138 223.932 169.541 224.093C170.006 224.283 170.484 224.44 170.971 224.563C171.494 224.693 172.032 224.757 172.571 224.753C173.291 224.793 174.008 224.63 174.641 224.283C174.876 224.141 175.068 223.937 175.197 223.694C175.325 223.451 175.385 223.178 175.371 222.903C175.383 222.577 175.284 222.257 175.091 221.993C174.878 221.728 174.613 221.51 174.311 221.353C173.917 221.152 173.505 220.988 173.081 220.863C172.591 220.713 172.081 220.553 171.421 220.393C170.783 220.23 170.155 220.03 169.541 219.793C169.059 219.615 168.61 219.358 168.211 219.033C167.875 218.762 167.602 218.42 167.411 218.033C167.219 217.575 167.127 217.08 167.141 216.583C167.127 215.937 167.264 215.297 167.541 214.713C167.801 214.175 168.181 213.703 168.651 213.333C169.141 212.948 169.701 212.663 170.301 212.493C170.973 212.297 171.67 212.199 172.371 212.203C173.289 212.195 174.2 212.355 175.061 212.673C175.835 212.953 176.565 213.34 177.231 213.823L176.211 215.703Z" fill="#263238"/>
<path d="M190.001 224.702V226.702H180.131V212.312H189.821V214.312H182.401V218.402H188.831V220.292H182.401V224.693L190.001 224.702Z" fill="#263238"/>
<path d="M192.301 226.703V212.313H198.571C199.191 212.309 199.804 212.449 200.361 212.723C200.896 212.98 201.375 213.34 201.771 213.783C202.164 214.224 202.475 214.732 202.691 215.283C202.906 215.83 203.012 216.414 203.001 217.003C203.003 217.474 202.932 217.943 202.791 218.393C202.664 218.83 202.475 219.248 202.231 219.633C201.992 220.016 201.687 220.355 201.331 220.633C200.99 220.91 200.6 221.121 200.181 221.253L203.561 226.723H201.001L197.881 221.723H194.551V226.723L192.301 226.703ZM194.571 219.703H198.571C198.877 219.707 199.179 219.635 199.451 219.493C199.717 219.347 199.949 219.146 200.131 218.903C200.326 218.644 200.475 218.353 200.571 218.043C200.681 217.72 200.738 217.383 200.741 217.043C200.736 216.7 200.668 216.361 200.541 216.043C200.422 215.734 200.253 215.446 200.041 215.193C199.835 214.956 199.588 214.759 199.311 214.613C199.045 214.476 198.75 214.404 198.451 214.403H194.591L194.571 219.703Z" fill="#263238"/>
<path d="M206.271 212.312L210.611 223.853L214.931 212.312H217.341L211.581 226.702H209.581L203.811 212.312H206.271Z" fill="#263238"/>
<path d="M229 224.702V226.702H219.1V212.312H228.79V214.312H221.37V218.402H227.8V220.292H221.37V224.693L229 224.702Z" fill="#263238"/>
<path d="M231.32 226.703V212.313H237.59C238.211 212.309 238.824 212.449 239.38 212.723C239.916 212.98 240.395 213.34 240.79 213.783C241.183 214.224 241.495 214.732 241.71 215.283C241.931 215.829 242.047 216.413 242.05 217.003C242.052 217.474 241.981 217.943 241.84 218.393C241.713 218.83 241.525 219.248 241.28 219.633C241.039 220.014 240.735 220.352 240.38 220.633C240.04 220.91 239.649 221.121 239.23 221.253L242.61 226.723H240L236.88 221.723H233.55V226.723L231.32 226.703ZM233.59 219.703H237.59C237.896 219.706 238.199 219.634 238.47 219.493C238.737 219.347 238.968 219.146 239.15 218.903C239.342 218.642 239.491 218.351 239.59 218.043C239.697 217.72 239.751 217.382 239.75 217.043C239.749 216.7 239.685 216.361 239.56 216.043C239.438 215.735 239.269 215.449 239.06 215.193C238.855 214.956 238.607 214.759 238.33 214.613C238.061 214.475 237.763 214.403 237.46 214.403H233.61L233.59 219.703Z" fill="#263238"/>
<path d="M132.08 245.892V248.812H122V234.422H131.94V237.342H125.33V240.132H131V242.832H125.33V245.892H132.08Z" fill="#263238"/>
<path d="M134.109 248.812V234.422H140.589C141.24 234.416 141.883 234.56 142.469 234.842C143.047 235.13 143.566 235.523 143.999 236.002C144.419 236.462 144.757 236.989 144.999 237.562C145.231 238.12 145.35 238.718 145.349 239.322C145.352 239.757 145.299 240.191 145.189 240.612C145.084 241.016 144.93 241.406 144.729 241.772C144.529 242.138 144.28 242.474 143.989 242.772C143.694 243.066 143.357 243.316 142.989 243.512L146.149 248.862H142.399L139.649 244.222H137.479V248.862L134.109 248.812ZM137.429 241.272H140.429C140.629 241.265 140.823 241.211 140.997 241.113C141.171 241.016 141.319 240.878 141.429 240.712C141.731 240.298 141.883 239.794 141.859 239.282C141.887 238.763 141.711 238.254 141.369 237.862C141.248 237.711 141.096 237.586 140.924 237.497C140.752 237.407 140.563 237.355 140.369 237.342H137.429V241.272Z" fill="#263238"/>
<path d="M147.689 248.812V234.422H154.169C154.82 234.416 155.463 234.56 156.049 234.842C156.61 235.122 157.115 235.502 157.539 235.962C157.962 236.419 158.301 236.947 158.539 237.522C158.774 238.079 158.897 238.677 158.899 239.282C158.899 239.718 158.842 240.151 158.729 240.572C158.624 240.976 158.47 241.366 158.269 241.732C158.07 242.098 157.821 242.434 157.529 242.732C157.234 243.026 156.897 243.276 156.529 243.472L159.699 248.822H155.949L153.189 244.182H150.999V248.822L147.689 248.812ZM151.009 241.272H154.009C154.209 241.265 154.403 241.211 154.577 241.113C154.751 241.016 154.9 240.878 155.009 240.712C155.311 240.298 155.463 239.794 155.439 239.282C155.467 238.763 155.291 238.254 154.949 237.862C154.822 237.705 154.663 237.577 154.481 237.487C154.3 237.397 154.102 237.348 153.899 237.342H150.999L151.009 241.272Z" fill="#263238"/>
<path d="M167.57 248.926C166.561 248.939 165.563 248.724 164.65 248.296C163.799 247.898 163.035 247.338 162.4 246.646C161.778 245.961 161.287 245.168 160.95 244.306C160.611 243.439 160.438 242.517 160.44 241.586C160.435 240.65 160.615 239.723 160.97 238.856C161.675 237.108 163.03 235.7 164.75 234.926C165.657 234.528 166.639 234.327 167.63 234.336C168.637 234.325 169.634 234.537 170.55 234.956C171.403 235.358 172.168 235.926 172.8 236.626C173.42 237.315 173.908 238.111 174.24 238.976C174.574 239.827 174.747 240.732 174.75 241.646C174.751 242.586 174.568 243.517 174.21 244.386C173.861 245.245 173.355 246.032 172.72 246.706C172.074 247.384 171.303 247.931 170.45 248.316C169.546 248.73 168.563 248.938 167.57 248.926ZM163.82 241.626C163.819 242.175 163.9 242.721 164.06 243.246C164.218 243.744 164.462 244.211 164.78 244.626C165.1 245.041 165.506 245.382 165.97 245.626C166.473 245.874 167.029 245.998 167.59 245.986C168.14 246.002 168.686 245.884 169.181 245.642C169.676 245.399 170.104 245.041 170.43 244.596C170.743 244.174 170.98 243.7 171.13 243.196C171.281 242.68 171.358 242.145 171.36 241.606C171.36 241.061 171.28 240.518 171.12 239.996C170.966 239.494 170.718 239.026 170.39 238.616C170.063 238.22 169.658 237.897 169.2 237.666C168.689 237.429 168.133 237.306 167.57 237.306C167.006 237.306 166.45 237.429 165.94 237.666C165.481 237.914 165.079 238.255 164.76 238.666C164.443 239.084 164.203 239.555 164.05 240.056C163.9 240.566 163.823 241.095 163.82 241.626Z" fill="#263238"/>
<path d="M176.67 248.812V234.422H183.16C183.807 234.416 184.447 234.56 185.03 234.842C185.592 235.119 186.098 235.499 186.52 235.962C186.942 236.419 187.281 236.947 187.52 237.522C187.747 238.081 187.866 238.679 187.87 239.282C187.873 239.717 187.819 240.151 187.71 240.572C187.601 240.976 187.443 241.366 187.24 241.732C187.043 242.1 186.794 242.437 186.5 242.732C186.203 243.025 185.866 243.274 185.5 243.472L188.66 248.822H184.91L182.15 244.182H180V248.822L176.67 248.812ZM180 241.272H183C183.199 241.265 183.394 241.211 183.568 241.113C183.742 241.016 183.89 240.878 184 240.712C184.297 240.296 184.448 239.793 184.43 239.282C184.451 238.764 184.276 238.257 183.94 237.862C183.811 237.707 183.651 237.58 183.47 237.49C183.289 237.401 183.092 237.35 182.89 237.342H180V241.272Z" fill="#263238"/>
<path d="M82.7202 113.276V135.486C84.3768 133.2 86.6431 131.425 89.2602 130.366C90.9246 129.726 92.6976 129.417 94.4802 129.456C101.32 129.456 106.37 131.849 109.63 136.636C112.444 140.769 113.85 146.606 113.85 154.146V176.436C113.85 184.089 111.427 190.366 106.58 195.266C104.315 197.598 101.589 199.433 98.5765 200.656C95.5639 201.878 92.33 202.46 89.0802 202.366C85.8765 202.44 82.6951 201.814 79.7587 200.531C76.8223 199.247 74.2017 197.338 72.0802 194.936C67.7405 190.22 65.4027 184.003 65.5602 177.596V175.116L80.4902 173.996L80.8202 177.546C81.2135 181.673 82.8802 184.426 85.8202 185.806C86.692 186.244 87.6547 186.47 88.6302 186.466C95.0102 186.466 98.2002 183.133 98.2002 176.466V151.086C98.2345 149.667 97.9547 148.258 97.3808 146.959C96.8068 145.661 95.9529 144.506 94.8802 143.576C93.6412 142.574 92.0706 142.074 90.4802 142.176C89.2608 142.104 88.0447 142.366 86.9629 142.933C85.881 143.5 84.9743 144.352 84.3402 145.396C83.254 147.187 82.6798 149.241 82.6802 151.336V154.146H67.1202V97.5859H112.78V113.276H82.7202Z" fill="#2563EB"/>
<path d="M176.43 177.6C176.413 182.485 174.951 187.256 172.229 191.312C169.506 195.369 165.645 198.529 161.13 200.396C156.616 202.262 151.65 202.751 146.858 201.802C142.066 200.853 137.661 198.507 134.2 195.06C131.871 192.796 130.03 190.078 128.792 187.075C127.554 184.072 126.944 180.848 127 177.6V121.12C126.996 116.221 128.446 111.431 131.167 107.357C133.887 103.283 137.756 100.108 142.282 98.2339C146.809 96.3599 151.789 95.8714 156.594 96.8302C161.398 97.789 165.809 100.152 169.27 103.62C171.589 105.898 173.422 108.624 174.656 111.633C175.891 114.641 176.501 117.869 176.45 121.12L176.43 177.6ZM160.25 120.79C160.25 118.403 159.301 116.114 157.614 114.426C155.926 112.738 153.637 111.79 151.25 111.79C150.071 111.77 148.901 111.995 147.814 112.449C146.726 112.904 145.744 113.578 144.93 114.43C144.09 115.26 143.428 116.252 142.981 117.345C142.534 118.437 142.313 119.609 142.33 120.79V177.35C142.311 178.531 142.532 179.703 142.979 180.796C143.426 181.889 144.09 182.88 144.93 183.71C145.744 184.562 146.726 185.236 147.814 185.69C148.901 186.145 150.071 186.369 151.25 186.35C153.637 186.35 155.926 185.402 157.614 183.714C159.301 182.026 160.25 179.737 160.25 177.35V120.79Z" fill="#2563EB"/>
<path d="M239.351 177.603C239.351 184.162 236.745 190.452 232.107 195.09C227.47 199.728 221.179 202.333 214.621 202.333C208.062 202.333 201.772 199.728 197.134 195.09C192.496 190.452 189.891 184.162 189.891 177.603V121.123C189.89 116.225 191.342 111.436 194.064 107.362C196.786 103.289 200.655 100.115 205.181 98.2417C209.708 96.3681 214.688 95.8794 219.493 96.8374C224.297 97.7954 228.709 100.157 232.171 103.623C234.49 105.902 236.323 108.628 237.557 111.636C238.792 114.645 239.402 117.872 239.351 121.123V177.603ZM223.161 120.793C223.161 118.407 222.212 116.117 220.525 114.43C218.837 112.742 216.548 111.793 214.161 111.793C212.982 111.773 211.812 111.997 210.724 112.451C209.636 112.906 208.654 113.581 207.841 114.433C207 115.263 206.336 116.254 205.889 117.347C205.442 118.44 205.221 119.613 205.241 120.793V177.353C205.22 178.534 205.44 179.707 205.887 180.801C206.334 181.894 206.999 182.885 207.841 183.713C208.654 184.566 209.636 185.241 210.724 185.696C211.812 186.15 212.982 186.374 214.161 186.353C216.548 186.353 218.837 185.405 220.525 183.717C222.212 182.03 223.161 179.74 223.161 177.353V120.793Z" fill="#2563EB"/>
<path d="M70.0209 353.742H43.4609V380.302H70.0209V353.742Z" fill="#37474F"/>
<path d="M56.7411 375.881C61.6399 375.881 65.6111 371.909 65.6111 367.011C65.6111 362.112 61.6399 358.141 56.7411 358.141C51.8423 358.141 47.8711 362.112 47.8711 367.011C47.8711 371.909 51.8423 375.881 56.7411 375.881Z" fill="#455A64"/>
<path d="M55.1211 363.43H53.1211V370.75H55.1211V363.43Z" fill="#263238"/>
<path d="M60.6816 363.43H58.6816V370.75H60.6816V363.43Z" fill="#263238"/>
<path d="M36.8496 421.594L90.1396 421.354L143.43 421.264L250 421.094L356.57 421.264L409.86 421.354L463.15 421.594L409.86 421.844L356.57 421.934L250 422.094L143.43 421.924L90.1396 421.834L36.8496 421.594Z" fill="#263238"/>
<path d="M74.9004 395.892C78.8721 395.661 82.8571 395.933 86.7604 396.702C82.7887 396.933 78.8038 396.661 74.9004 395.892Z" fill="#263238"/>
<path d="M103.689 402.221C105.565 402.873 107.393 403.655 109.159 404.561C110.939 405.437 112.653 406.439 114.289 407.561C110.545 406.232 106.983 404.434 103.689 402.211V402.221Z" fill="#263238"/>
<path d="M81.25 416C83.2175 412.543 85.6167 409.351 88.39 406.5C87.4219 408.243 86.3291 409.914 85.12 411.5C83.939 413.09 82.6457 414.594 81.25 416Z" fill="#263238"/>
<path d="M70 384.07C71.55 384.56 73.06 385.12 74.56 385.7C76.06 386.28 77.56 386.9 79.04 387.53C80.52 388.16 82.04 388.81 83.45 389.53C84.86 390.25 86.37 390.92 87.79 391.7C86.24 391.2 84.73 390.64 83.23 390.06C81.73 389.48 80.23 388.86 78.75 388.23C77.27 387.6 75.75 386.95 74.34 386.23C72.93 385.51 71.43 384.84 70 384.07Z" fill="#263238"/>
<path d="M105.131 392.931C106.524 392.231 107.976 391.655 109.471 391.211C110.954 390.74 112.477 390.405 114.021 390.211C111.227 391.603 108.224 392.525 105.131 392.941V392.931Z" fill="#263238"/>
<path d="M90.7508 387.87C89.9308 386.57 89.1908 385.24 88.4608 383.87C87.7308 382.5 87.0308 381.17 86.3408 379.8C85.6508 378.43 84.9908 377.06 84.3408 375.66C83.6908 374.26 83.0908 372.87 82.5508 371.43C83.3708 372.73 84.1208 374.07 84.8508 375.43C85.5808 376.79 86.2808 378.13 86.9708 379.49C87.6608 380.85 88.3108 382.23 88.9708 383.63C89.6308 385.03 90.2108 386.43 90.7508 387.87Z" fill="#263238"/>
<path d="M111 419.497C110.11 418.497 109.28 417.407 108.47 416.337C107.66 415.267 106.88 414.157 106.1 413.057C105.32 411.957 104.59 410.827 103.88 409.677C103.17 408.527 102.46 407.378 101.82 406.188C102.71 407.188 103.54 408.278 104.35 409.348C105.16 410.418 105.95 411.528 106.72 412.628C107.49 413.728 108.23 414.858 108.94 416.008C109.65 417.158 110.36 418.297 111 419.497Z" fill="#263238"/>
<path d="M379.941 168.859H297.281L290.881 112.719H373.541L379.941 168.859Z" fill="#A6A6A6"/>
<path d="M375.441 165.102H300.931L295.391 116.492H369.901L375.441 165.102Z" fill="white"/>
<path d="M329.422 142.057L328.232 143.477L316.512 133.357L317.702 131.938L329.422 142.057Z" fill="#2563EB"/>
<path d="M326.401 131.938L328.041 133.357L319.531 143.477L317.891 142.057L326.401 131.938Z" fill="#2563EB"/>
<path d="M354.48 142.057L353.29 143.477L341.57 133.357L342.76 131.938L354.48 142.057Z" fill="#2563EB"/>
<path d="M351.461 131.938L353.101 133.357L344.591 143.477L342.951 142.057L351.461 131.938Z" fill="#2563EB"/>
<path d="M315.011 151.789L314.691 149.789H360.121L360.441 151.789H315.011Z" fill="#2563EB"/>
<path d="M404.201 165.102H297.861V168.872H404.201V165.102Z" fill="#A6A6A6"/>
<path d="M413.181 165.102H320.961V168.872H413.181V165.102Z" fill="#C7C7C7"/>
<path d="M370.171 118.852L369.901 116.492H295.391L295.661 118.852H370.171Z" fill="#263238"/>
<path d="M301.661 117.668C301.673 117.82 301.739 117.962 301.847 118.069C301.956 118.175 302.099 118.239 302.251 118.248C302.321 118.247 302.391 118.23 302.454 118.198C302.518 118.167 302.573 118.122 302.617 118.066C302.661 118.011 302.693 117.947 302.709 117.878C302.725 117.809 302.726 117.737 302.711 117.668C302.701 117.515 302.636 117.37 302.527 117.261C302.419 117.153 302.274 117.088 302.121 117.078C302.05 117.081 301.98 117.099 301.917 117.132C301.853 117.164 301.798 117.21 301.754 117.266C301.71 117.323 301.679 117.388 301.663 117.457C301.647 117.526 301.646 117.598 301.661 117.668Z" fill="#C7C7C7"/>
<path d="M299.5 117.668C299.515 117.821 299.583 117.963 299.693 118.069C299.803 118.176 299.948 118.239 300.1 118.248C300.171 118.245 300.239 118.227 300.302 118.195C300.364 118.163 300.419 118.118 300.463 118.063C300.506 118.008 300.538 117.944 300.555 117.876C300.571 117.808 300.573 117.737 300.56 117.668C300.549 117.515 300.483 117.372 300.375 117.264C300.267 117.156 300.123 117.09 299.97 117.078C299.899 117.081 299.829 117.1 299.765 117.132C299.702 117.164 299.646 117.21 299.601 117.266C299.557 117.322 299.525 117.387 299.507 117.456C299.49 117.526 299.488 117.598 299.5 117.668Z" fill="white"/>
<path d="M297.35 117.668C297.362 117.82 297.428 117.962 297.537 118.069C297.645 118.175 297.788 118.239 297.94 118.248C298.011 118.247 298.081 118.23 298.144 118.198C298.207 118.167 298.263 118.122 298.307 118.066C298.351 118.011 298.382 117.947 298.398 117.878C298.414 117.809 298.415 117.737 298.4 117.668C298.391 117.515 298.326 117.37 298.217 117.261C298.108 117.153 297.964 117.088 297.81 117.078C297.739 117.081 297.669 117.099 297.606 117.132C297.543 117.164 297.487 117.21 297.443 117.266C297.4 117.323 297.369 117.388 297.353 117.457C297.336 117.526 297.336 117.598 297.35 117.668Z" fill="#2563EB"/>
<path d="M207.74 458.17C196.97 458.17 185.08 457.98 173.13 457.76C166.97 457.65 162.13 457.56 159.07 457.56C143.54 457.56 139.07 437.56 134.75 418.3C134.15 415.61 133.55 412.92 132.92 410.3C131.68 405.13 130.67 399.92 129.68 394.87C126.68 379.26 124.01 365.79 117.13 365.05C108.04 364.05 99.95 377.67 97 398.88L95 398.61C98.11 376.25 107.08 361.95 117.32 363.06C125.67 363.95 128.43 378.06 131.62 394.49C132.62 399.49 133.62 404.71 134.84 409.83C135.48 412.48 136.08 415.19 136.69 417.89C141.03 437.27 145.13 455.58 159.05 455.58C162.1 455.58 166.98 455.67 173.15 455.78C186.67 456.04 205.15 456.38 220.85 456.07C246.27 455.57 249.28 453.57 249.59 452.96C249.59 448.8 222.75 443.8 212.65 441.91C202.55 440.02 202.05 439.91 202.16 438.68C202.27 437.45 203.51 437.55 205.41 437.55H247.35C260.5 437.55 264.74 418.63 267.28 407.32C267.714 404.892 268.36 402.506 269.21 400.19C272.15 394.07 279.59 394.96 279.9 395L279.64 397C279.38 397 273.32 396.26 271.01 401.07C270.241 403.253 269.646 405.494 269.23 407.77C266.56 419.66 262.11 439.56 247.35 439.56H210.95L213.04 439.95C237.46 444.51 251.6 448.12 251.6 453.05C251.596 453.319 251.536 453.584 251.424 453.829C251.312 454.073 251.151 454.292 250.95 454.47C247.98 457.36 230.31 458.17 207.74 458.17Z" fill="#263238"/>
<path d="M100.699 399.735L88.4414 399L88.0005 406.357L100.258 407.091L100.699 399.735Z" fill="#263238"/>
<path d="M92.0646 406.61L90.6172 406.523L90.2809 412.133L91.7283 412.22L92.0646 406.61Z" fill="#2563EB"/>
<path d="M97.6054 406.93L96.168 406.844L95.8317 412.454L97.2692 412.54L97.6054 406.93Z" fill="#2563EB"/>
</svg>
