<svg width="500" height="500" viewBox="0 0 500 500" fill="none" xmlns="http://www.w3.org/2000/svg">
<path d="M76.3407 230.398C-19.5693 285.768 -19.5693 375.548 76.3407 430.918C172.251 486.288 327.761 486.298 423.661 430.918C519.561 375.538 519.571 285.768 423.661 230.398C327.751 175.028 172.241 174.998 76.3407 230.398Z" fill="#F5F5F5"/>
<path d="M278 399.248L270.52 394.928L275.96 391.788C276.936 391.314 277.759 390.575 278.335 389.656C278.911 388.736 279.217 387.673 279.217 386.588C279.217 385.503 278.911 384.44 278.335 383.52C277.759 382.601 276.936 381.862 275.96 381.388L262.42 373.568C260.784 372.708 258.963 372.259 257.115 372.259C255.267 372.259 253.446 372.708 251.81 373.568L242.67 378.848L195.45 351.578C193.828 350.687 192.001 350.235 190.15 350.268C188.295 350.228 186.463 350.68 184.84 351.578L165.54 362.728C164.161 363.433 162.974 364.463 162.08 365.728C161.208 367.241 160.943 369.028 161.34 370.728L171.34 420.728C171.92 423.238 173.8 425.428 176.93 427.238L190.44 434.998C192.056 435.897 193.882 436.349 195.73 436.308C197.572 436.345 199.39 435.893 201 434.998L239.41 412.828L250.59 419.278C252.227 420.135 254.047 420.582 255.895 420.582C257.743 420.582 259.563 420.135 261.2 419.278L278 409.648C278.979 409.177 279.806 408.439 280.384 407.519C280.963 406.599 281.27 405.535 281.27 404.448C281.27 403.361 280.963 402.297 280.384 401.377C279.806 400.457 278.979 399.719 278 399.248ZM203.62 401.388L201.38 390.128L212.25 396.408L203.62 401.388Z" fill="#E0E0E0"/>
<path d="M353.191 321.448C349.801 319.298 346.061 317.038 342.061 314.728C338.061 312.418 334.061 310.238 330.151 308.158C324.868 305.455 319.318 303.307 313.591 301.748C307.471 300.082 301.163 299.209 294.821 299.148H294.001C287.597 299.183 281.219 299.975 275.001 301.508C267.881 303.294 261.052 306.085 254.721 309.798C247.831 313.798 242.981 317.798 239.911 321.968C236.701 326.378 235.151 330.838 235.301 335.238C235.557 339.869 237.364 344.279 240.431 347.758C243.728 351.632 247.6 354.978 251.911 357.678C255.411 359.898 259.241 362.208 263.291 364.548C267.341 366.888 271.291 369.048 274.941 370.978C280.23 373.676 285.782 375.82 291.511 377.378C297.626 379.05 303.932 379.924 310.271 379.978H311.151C317.555 379.947 323.933 379.154 330.151 377.618C337.271 375.835 344.1 373.044 350.431 369.328C357.331 365.328 362.181 361.328 365.241 357.158C368.461 352.758 370.011 348.288 369.851 343.888C369.597 339.257 367.79 334.846 364.721 331.368C361.405 327.495 357.516 324.149 353.191 321.448ZM330.191 347.928C329.841 348.458 328.871 349.568 326.191 351.108C324.178 352.309 321.992 353.192 319.711 353.728C318.088 354.086 316.432 354.271 314.771 354.278C314.331 354.278 313.891 354.278 313.451 354.278C311.408 354.151 309.39 353.754 307.451 353.098C305.315 352.366 303.242 351.463 301.251 350.398C293.976 346.687 286.9 342.598 280.051 338.148C278.494 337.216 277.057 336.098 275.771 334.818C275.11 334.207 274.623 333.43 274.361 332.568C274.361 332.448 274.251 332.058 274.791 331.228C275.141 330.708 276.111 329.598 278.791 328.048C280.802 326.847 282.988 325.966 285.271 325.438C286.821 325.093 288.403 324.916 289.991 324.908C290.481 324.908 290.991 324.908 291.421 324.958C293.465 325.109 295.481 325.519 297.421 326.178C299.579 326.909 301.687 327.781 303.731 328.788C311.001 332.568 318.151 336.688 325.001 340.998C326.586 341.963 328.064 343.093 329.411 344.368C330.047 344.914 330.509 345.633 330.741 346.438C330.721 346.588 330.801 346.998 330.211 347.928H330.191Z" fill="#E0E0E0"/>
<path d="M464.66 291.472L457.18 287.152L462.62 284.012C463.596 283.538 464.419 282.799 464.995 281.88C465.571 280.96 465.876 279.897 465.876 278.812C465.876 277.727 465.571 276.664 464.995 275.744C464.419 274.824 463.596 274.085 462.62 273.612L449.07 265.792C447.434 264.932 445.613 264.482 443.765 264.482C441.916 264.482 440.096 264.932 438.46 265.792L429.32 271.062L382.1 243.802C380.464 242.942 378.643 242.492 376.795 242.492C374.946 242.492 373.126 242.942 371.49 243.802L352.2 254.942C350.816 255.644 349.625 256.674 348.73 257.942C347.856 259.453 347.591 261.242 347.99 262.942L357.99 312.942C358.57 315.452 360.45 317.642 363.58 319.452L377.13 327.272C378.745 328.171 380.571 328.623 382.42 328.582C384.272 328.624 386.101 328.172 387.72 327.272L426.13 305.092L437.31 311.552C438.946 312.412 440.766 312.861 442.615 312.861C444.463 312.861 446.284 312.412 447.92 311.552L464.65 301.892C465.629 301.421 466.456 300.683 467.034 299.763C467.612 298.843 467.919 297.778 467.919 296.692C467.919 295.605 467.612 294.541 467.034 293.621C466.456 292.701 465.629 291.963 464.65 291.492L464.66 291.472ZM390.28 293.602L388 282.352L398.87 288.622L390.28 293.602Z" fill="#E0E0E0"/>
<path d="M274.64 389.576L257.9 399.236C256.832 399.775 255.652 400.055 254.455 400.055C253.259 400.055 252.079 399.775 251.01 399.236L238.01 391.716L197.71 414.996C196.636 415.529 195.454 415.806 194.255 415.806C193.056 415.806 191.874 415.529 190.8 414.996L177.26 407.166C175.04 405.899 173.76 404.522 173.42 403.036L163.42 353.156C163.369 352.862 163.346 352.564 163.35 352.266C163.35 353.266 163.35 365.676 163.35 366.266C163.355 366.524 163.379 366.781 163.42 367.036L173.42 416.916C173.76 418.396 175.04 419.772 177.26 421.046L190.8 428.866C191.872 429.405 193.055 429.685 194.255 429.685C195.455 429.685 196.638 429.405 197.71 428.866L238 405.616L251 413.136C252.069 413.675 253.249 413.955 254.445 413.955C255.642 413.955 256.822 413.675 257.89 413.136L274.63 403.476C275.027 403.305 275.369 403.028 275.617 402.675C275.866 402.322 276.013 401.907 276.04 401.476V387.576C276.012 388.005 275.867 388.419 275.62 388.772C275.373 389.124 275.034 389.402 274.64 389.576Z" fill="#F87171"/>
<path d="M274 383.627V369.727C273.968 370.156 273.82 370.569 273.572 370.922C273.323 371.274 272.984 371.552 272.59 371.727L261.59 378.067L273.46 384.917C273.789 384.566 273.981 384.108 274 383.627Z" fill="#F87171"/>
<path d="M197.781 381.671L206.111 386.501L218.161 379.551L194.641 365.961L197.771 381.671H197.781Z" fill="#F87171"/>
<path opacity="0.35" d="M197.781 381.671L206.111 386.501L218.161 379.551L194.641 365.961L197.771 381.671H197.781Z" fill="black"/>
<path opacity="0.2" d="M274 383.627V369.727C273.968 370.156 273.82 370.569 273.572 370.922C273.323 371.274 272.984 371.552 272.59 371.727L261.59 378.067L273.46 384.917C273.789 384.566 273.981 384.108 274 383.627Z" fill="black"/>
<path opacity="0.2" d="M274.641 389.577L257.901 399.237C256.846 399.815 255.654 400.099 254.451 400.057V413.997C255.654 414.039 256.846 413.755 257.901 413.177L274.641 403.517C275.038 403.346 275.38 403.069 275.628 402.716C275.877 402.363 276.024 401.948 276.051 401.517V387.617C276.015 388.041 275.865 388.447 275.617 388.792C275.369 389.137 275.032 389.409 274.641 389.577Z" fill="black"/>
<path opacity="0.25" d="M173.42 402.997L163.42 353.117C163.369 352.823 163.346 352.525 163.35 352.227C163.35 353.227 163.35 365.637 163.35 366.227C163.355 366.485 163.379 366.742 163.42 366.997L173.42 416.877C173.488 417.168 173.592 417.451 173.73 417.717V403.817C173.594 403.557 173.489 403.282 173.42 402.997Z" fill="black"/>
<path opacity="0.35" d="M194.26 415.782C193.057 415.814 191.865 415.535 190.8 414.972L177.26 407.142C175.78 406.425 174.55 405.278 173.73 403.852V417.752C174.55 419.178 175.78 420.325 177.26 421.042L190.8 428.862C191.862 429.434 193.055 429.717 194.26 429.682C194.387 429.696 194.514 429.696 194.64 429.682V415.782C194.514 415.796 194.387 415.796 194.26 415.782Z" fill="black"/>
<path opacity="0.2" d="M197.711 414.999C196.768 415.509 195.713 415.777 194.641 415.779V429.679C195.714 429.678 196.77 429.407 197.711 428.889L238.001 405.619V391.719L197.711 414.999Z" fill="black"/>
<path opacity="0.35" d="M251 399.239L238 391.719V405.619L251 413.139C252.051 413.718 253.24 414.001 254.44 413.959V400.059C253.24 400.101 252.051 399.818 251 399.239Z" fill="black"/>
<path d="M257.901 399.24C256.831 399.779 255.649 400.06 254.451 400.06C253.252 400.06 252.071 399.779 251.001 399.24L238.001 391.72L197.711 415C196.639 415.533 195.458 415.81 194.261 415.81C193.064 415.81 191.883 415.533 190.811 415L177.261 407.18C175.054 405.9 173.777 404.523 173.431 403.05L163.431 353.17C163.231 352.402 163.32 351.587 163.681 350.88C164.268 350.137 165.013 349.532 165.861 349.11L185.151 337.97C186.213 337.4 187.406 337.12 188.611 337.16C189.809 337.12 190.996 337.4 192.051 337.97L241.131 366.3L252.131 359.96C253.201 359.421 254.382 359.14 255.581 359.14C256.779 359.14 257.961 359.421 259.031 359.96L272.581 367.78C273 367.921 273.364 368.19 273.622 368.548C273.88 368.907 274.018 369.338 274.018 369.78C274.018 370.222 273.88 370.653 273.622 371.012C273.364 371.37 273 371.639 272.581 371.78L261.581 378.13L274.581 385.65C274.995 385.796 275.354 386.066 275.607 386.424C275.861 386.783 275.998 387.211 275.998 387.65C275.998 388.089 275.861 388.517 275.607 388.875C275.354 389.234 274.995 389.504 274.581 389.65L257.901 399.24ZM218.151 379.54L194.641 366L199.501 390.35L218.151 379.54Z" fill="#F87171"/>
<path d="M364.621 327.864C364.561 331.214 363.241 334.634 360.701 338.114C357.981 341.854 353.424 345.568 347.031 349.254C341.007 352.794 334.508 355.454 327.731 357.154C321.517 358.7 315.133 359.456 308.731 359.404C302.709 359.352 296.719 358.522 290.911 356.934C285.425 355.449 280.109 353.394 275.051 350.804C271.391 348.884 267.571 346.804 263.551 344.454C259.531 342.104 255.801 339.894 252.311 337.674C248.328 335.187 244.753 332.101 241.711 328.524C239.157 325.68 237.648 322.051 237.431 318.234C237.501 320.434 237.341 329.694 237.431 332.134C237.648 335.951 239.157 339.58 241.711 342.424C244.753 346.001 248.328 349.087 252.311 351.574C255.797 353.794 259.544 356.054 263.551 358.354C267.551 360.664 271.391 362.784 275.051 364.714C280.112 367.297 285.427 369.348 290.911 370.834C296.719 372.422 302.709 373.252 308.731 373.304C315.133 373.356 321.517 372.6 327.731 371.054C334.508 369.354 341.007 366.694 347.031 363.154C353.431 359.461 357.987 355.748 360.701 352.014C363.431 348.284 364.701 344.624 364.601 341.064C364.531 338.994 364.661 330.994 364.621 327.864Z" fill="#F87171"/>
<path opacity="0.35" d="M312.16 359.334C311.02 359.334 309.88 359.424 308.75 359.404C302.729 359.352 296.739 358.522 290.93 356.934C285.445 355.449 280.129 353.394 275.07 350.804C271.41 348.884 267.59 346.804 263.57 344.454C259.55 342.104 255.82 339.894 252.33 337.674C248.348 335.187 244.772 332.101 241.73 328.524C239.177 325.68 237.668 322.051 237.45 318.234C237.52 320.434 237.36 329.694 237.45 332.134C237.668 335.951 239.177 339.58 241.73 342.424C244.772 346.001 248.348 349.087 252.33 351.574C255.817 353.794 259.563 356.054 263.57 358.354C267.57 360.664 271.41 362.784 275.07 364.714C280.131 367.297 285.446 369.348 290.93 370.834C296.739 372.422 302.729 373.252 308.75 373.304C309.88 373.304 311.02 373.304 312.16 373.234V359.334Z" fill="black"/>
<path opacity="0.2" d="M364.62 327.867C364.56 331.217 363.24 334.637 360.7 338.117C357.98 341.857 353.423 345.571 347.03 349.257C341.006 352.797 334.507 355.457 327.73 357.157C322.63 358.408 317.417 359.138 312.17 359.337V373.237C317.416 373.033 322.629 372.303 327.73 371.057C334.507 369.357 341.006 366.697 347.03 363.157C353.43 359.464 357.987 355.751 360.7 352.017C363.43 348.287 364.7 344.627 364.6 341.067C364.53 338.997 364.66 330.997 364.62 327.867Z" fill="black"/>
<path d="M271.631 320.486C272.405 321.278 273.237 322.01 274.121 322.676C274.551 322.396 274.981 322.116 275.461 321.836C277.809 320.462 280.351 319.451 283.001 318.836C285.373 318.309 287.808 318.127 290.231 318.296C292.584 318.467 294.906 318.934 297.141 319.686C299.484 320.481 301.775 321.419 304.001 322.496C311.408 326.396 318.565 330.533 325.471 334.906C326.371 335.466 327.201 336.046 327.961 336.606C329.483 335.712 330.806 334.518 331.851 333.096C332.729 331.881 333.089 330.367 332.851 328.886C332.487 327.345 331.664 325.951 330.491 324.886C328.952 323.422 327.259 322.128 325.441 321.026C318.528 316.626 311.381 312.483 304.001 308.596C301.785 307.51 299.504 306.562 297.171 305.756C294.936 305.004 292.614 304.537 290.261 304.366C287.838 304.195 285.402 304.381 283.031 304.916C280.38 305.525 277.837 306.537 275.491 307.916C273.447 308.96 271.66 310.446 270.261 312.266C269.818 312.856 269.5 313.53 269.328 314.247C269.156 314.965 269.133 315.71 269.261 316.436C269.675 317.974 270.493 319.373 271.631 320.486Z" fill="#F87171"/>
<path opacity="0.35" d="M271.631 320.486C272.405 321.278 273.237 322.01 274.121 322.676C274.551 322.396 274.981 322.116 275.461 321.836C277.809 320.462 280.351 319.451 283.001 318.836C285.373 318.309 287.808 318.127 290.231 318.296C292.584 318.467 294.906 318.934 297.141 319.686C299.484 320.481 301.775 321.419 304.001 322.496C311.408 326.396 318.565 330.533 325.471 334.906C326.371 335.466 327.201 336.046 327.961 336.606C329.483 335.712 330.806 334.518 331.851 333.096C332.729 331.881 333.089 330.367 332.851 328.886C332.487 327.345 331.664 325.951 330.491 324.886C328.952 323.422 327.259 322.128 325.441 321.026C318.528 316.626 311.381 312.483 304.001 308.596C301.785 307.51 299.504 306.562 297.171 305.756C294.936 305.004 292.614 304.537 290.261 304.366C287.838 304.195 285.402 304.381 283.031 304.916C280.38 305.525 277.837 306.537 275.491 307.916C273.447 308.96 271.66 310.446 270.261 312.266C269.818 312.856 269.5 313.53 269.328 314.247C269.156 314.965 269.133 315.71 269.261 316.436C269.675 317.974 270.493 319.373 271.631 320.486Z" fill="black"/>
<path d="M255.001 296.136C261.023 292.593 267.522 289.933 274.301 288.236C280.515 286.696 286.898 285.94 293.301 285.986C299.325 286.043 305.318 286.873 311.131 288.456C316.618 289.945 321.937 292 327.001 294.586C330.834 296.586 334.754 298.75 338.761 301.076C342.767 303.403 346.434 305.616 349.761 307.716C353.741 310.206 357.316 313.292 360.361 316.866C362.907 319.717 364.418 323.342 364.651 327.156C364.777 330.723 363.477 334.39 360.751 338.156C358.024 341.923 353.441 345.623 347.001 349.256C340.977 352.796 334.478 355.457 327.701 357.156C321.486 358.697 315.103 359.453 308.701 359.406C302.675 359.352 296.682 358.518 290.871 356.926C285.389 355.444 280.076 353.393 275.021 350.806C271.361 348.886 267.527 346.773 263.521 344.466C259.514 342.16 255.764 339.896 252.271 337.676C248.292 335.184 244.718 332.098 241.671 328.526C239.123 325.674 237.611 322.045 237.381 318.226C237.261 314.666 238.561 311 241.281 307.226C244.001 303.453 248.574 299.756 255.001 296.136ZM325.441 320.996C318.527 316.623 311.371 312.493 303.971 308.606C301.753 307.513 299.469 306.561 297.131 305.756C294.898 305.005 292.58 304.535 290.231 304.356C287.806 304.194 285.371 304.382 283.001 304.916C280.349 305.525 277.806 306.537 275.461 307.916C273.416 308.96 271.629 310.446 270.231 312.266C269.784 312.854 269.465 313.529 269.293 314.246C269.121 314.964 269.099 315.71 269.231 316.436C269.634 317.962 270.45 319.346 271.591 320.436C273.094 321.936 274.773 323.249 276.591 324.346C283.527 328.847 290.694 332.982 298.061 336.736C300.215 337.89 302.459 338.866 304.771 339.656C308.346 340.888 312.147 341.325 315.909 340.936C319.671 340.547 323.302 339.343 326.551 337.406C328.603 336.365 330.394 334.875 331.791 333.046C332.667 331.834 333.026 330.324 332.791 328.846C332.429 327.302 331.601 325.906 330.421 324.846C328.905 323.387 327.235 322.096 325.441 320.996Z" fill="#F87171"/>
<path d="M461.321 281.801L444.581 291.461C443.512 292 442.332 292.281 441.136 292.281C439.939 292.281 438.759 292 437.691 291.461L424.691 283.931L384.431 307.181C383.361 307.72 382.179 308.001 380.981 308.001C379.783 308.001 378.601 307.72 377.531 307.181L363.981 299.361C361.761 298.091 360.491 296.711 360.141 295.231L350.141 245.351C350.09 245.057 350.067 244.759 350.071 244.461C350.071 245.461 350.071 257.871 350.071 258.461C350.076 258.719 350.1 258.976 350.141 259.231L360.141 309.101C360.491 310.591 361.761 311.961 363.981 313.241L377.531 321.061C378.601 321.6 379.783 321.881 380.981 321.881C382.179 321.881 383.361 321.6 384.431 321.061L424.691 297.811L437.691 305.341C438.759 305.88 439.939 306.161 441.136 306.161C442.332 306.161 443.512 305.88 444.581 305.341L461.321 295.681C461.718 295.51 462.059 295.233 462.308 294.88C462.557 294.527 462.703 294.112 462.731 293.681V279.801C462.702 280.232 462.555 280.646 462.307 280.999C462.058 281.352 461.717 281.629 461.321 281.801Z" fill="#F87171"/>
<path d="M460.691 275.837V261.938C460.659 262.367 460.511 262.78 460.263 263.133C460.015 263.485 459.675 263.763 459.281 263.938L448.281 270.277L460.151 277.117C460.485 276.773 460.677 276.317 460.691 275.837Z" fill="#F87171"/>
<path d="M384.46 273.89L392.79 278.72L404.84 271.77L381.32 258.18L384.45 273.89H384.46Z" fill="#F87171"/>
<path opacity="0.35" d="M384.46 273.89L392.79 278.72L404.84 271.77L381.32 258.18L384.45 273.89H384.46Z" fill="black"/>
<path opacity="0.2" d="M460.691 275.837V261.938C460.659 262.367 460.511 262.78 460.263 263.133C460.015 263.485 459.675 263.763 459.281 263.938L448.281 270.277L460.151 277.117C460.485 276.773 460.677 276.317 460.691 275.837Z" fill="black"/>
<path opacity="0.2" d="M461.321 281.797L444.581 291.457C443.525 292.035 442.334 292.318 441.131 292.277V306.177C442.334 306.218 443.525 305.935 444.581 305.357L461.321 295.697C461.718 295.526 462.059 295.249 462.308 294.896C462.557 294.543 462.703 294.128 462.731 293.697V279.797C462.702 280.228 462.555 280.642 462.307 280.995C462.058 281.348 461.717 281.625 461.321 281.797Z" fill="black"/>
<path opacity="0.25" d="M360.1 295.231L350.1 245.351C350.049 245.057 350.026 244.759 350.03 244.461C350.03 245.461 350.03 257.871 350.03 258.461C350.035 258.719 350.059 258.976 350.1 259.231L360.1 309.101C360.165 309.398 360.273 309.685 360.42 309.951V296.051C360.276 295.794 360.168 295.518 360.1 295.231Z" fill="black"/>
<path opacity="0.35" d="M380.94 308C379.738 308.035 378.548 307.753 377.49 307.18L363.94 299.36C362.46 298.647 361.232 297.499 360.42 296.07V310C361.232 311.429 362.46 312.577 363.94 313.29L377.49 321.11C378.548 321.683 379.738 321.965 380.94 321.93C381.066 321.945 381.194 321.945 381.32 321.93V308C381.194 308.015 381.066 308.015 380.94 308Z" fill="black"/>
<path opacity="0.2" d="M384.39 307.18C383.45 307.699 382.394 307.971 381.32 307.97V321.87C382.394 321.871 383.45 321.599 384.39 321.08L424.65 297.83V283.93L384.39 307.18Z" fill="black"/>
<path opacity="0.35" d="M437.691 291.46L424.691 283.93V297.83L437.691 305.36C438.743 305.939 439.932 306.222 441.131 306.18V292.28C439.932 292.322 438.743 292.039 437.691 291.46Z" fill="black"/>
<path d="M444.59 291.458C443.53 292.033 442.335 292.312 441.13 292.268C439.929 292.306 438.739 292.027 437.68 291.458L424.68 283.938L384.42 307.178C383.348 307.711 382.168 307.988 380.97 307.988C379.773 307.988 378.592 307.711 377.52 307.178L363.97 299.358C361.764 298.078 360.487 296.701 360.14 295.228L350.14 245.348C349.945 244.579 350.034 243.766 350.39 243.058C350.978 242.315 351.722 241.71 352.57 241.288L371.86 230.148C372.932 229.609 374.116 229.328 375.315 229.328C376.515 229.328 377.699 229.609 378.77 230.148L427.84 258.478L438.84 252.128C439.912 251.595 441.093 251.318 442.29 251.318C443.488 251.318 444.668 251.595 445.74 252.128L459.28 259.998C459.699 260.139 460.063 260.408 460.321 260.766C460.579 261.125 460.718 261.556 460.718 261.998C460.718 262.44 460.579 262.871 460.321 263.23C460.063 263.588 459.699 263.857 459.28 263.998L448.28 270.348L461.28 277.868C461.695 278.014 462.053 278.284 462.307 278.642C462.561 279.001 462.697 279.429 462.697 279.868C462.697 280.307 462.561 280.735 462.307 281.093C462.053 281.452 461.695 281.722 461.28 281.868L444.59 291.458ZM404.84 271.758L381.32 258.188L386.18 282.528L404.84 271.758Z" fill="#F87171"/>
<path d="M134.355 322.69C134.17 322.689 133.989 322.64 133.829 322.547L119.571 314.124C115.591 311.777 113.4 308.538 113.4 305.006C113.4 301.172 115.928 297.574 120.512 294.868L124.331 292.606C133 287.487 147.11 287.487 155.78 292.606L171.007 301.602C179.101 306.377 192.263 306.377 200.357 301.602L252.649 270.728C256.37 268.531 258.42 265.702 258.42 262.68C258.42 259.657 256.37 256.835 252.649 254.638L248.83 252.384C240.736 247.609 227.995 247.358 220.427 251.831L206.17 260.246C205.928 260.388 205.64 260.427 205.37 260.353C205.1 260.279 204.87 260.098 204.731 259.851C204.591 259.603 204.553 259.309 204.626 259.033C204.698 258.757 204.875 258.522 205.117 258.379L219.374 249.964C227.525 245.146 241.214 245.397 249.883 250.517L253.702 252.778C258.104 255.37 260.526 258.889 260.526 262.68C260.526 266.471 258.104 269.996 253.702 272.588L201.41 303.462C192.733 308.589 178.63 308.589 169.954 303.462L154.727 294.473C146.64 289.698 133.478 289.698 125.384 294.473L121.565 296.763C117.718 299.039 115.506 302.055 115.506 305.042C115.506 307.77 117.325 310.348 120.624 312.293L134.882 320.716C135.083 320.834 135.24 321.017 135.329 321.236C135.418 321.455 135.433 321.698 135.373 321.928C135.313 322.157 135.181 322.359 134.997 322.504C134.813 322.648 134.587 322.726 134.355 322.726V322.69Z" fill="#404040"/>
<path d="M125.496 325.022V326.264C125.554 327.342 125.86 328.392 126.388 329.327C126.916 330.263 127.652 331.058 128.536 331.649L139.768 338.269L151.168 331.534V321.432L140.091 316.205C139.092 315.799 138.021 315.615 136.947 315.664C135.874 315.714 134.823 315.996 133.864 316.492L128.536 319.637C127.651 320.227 126.915 321.022 126.387 321.958C125.859 322.893 125.554 323.943 125.496 325.022Z" fill="#404040"/>
<path d="M140.09 316.205C139.091 315.799 138.02 315.615 136.947 315.664C135.873 315.714 134.822 315.996 133.863 316.492L128.535 319.637C126.857 320.627 126.928 322.107 128.683 322.939L139.753 328.166L151.168 321.432L140.09 316.205Z" fill="#6A6A6A"/>
<path opacity="0.1" d="M138.68 325.735C138.238 326.031 137.871 326.428 137.607 326.896C137.344 327.364 137.192 327.889 137.164 328.428V336.742L139.761 338.272L151.162 331.537V321.435L148.27 320.07L138.68 325.735Z" fill="#171717"/>
<path d="M152.137 319.699C151.965 319.62 151.777 319.588 151.589 319.607C151.402 319.626 151.223 319.695 151.07 319.807L139.838 326.434C139.395 326.728 139.026 327.125 138.761 327.593C138.496 328.061 138.343 328.587 138.315 329.126V339.006C138.294 339.199 138.326 339.395 138.405 339.572C138.484 339.748 138.608 339.9 138.764 340.011L140.168 340.851C140.34 340.934 140.53 340.968 140.719 340.949C140.908 340.93 141.089 340.859 141.242 340.744L152.474 334.124C152.915 333.828 153.282 333.43 153.546 332.962C153.809 332.494 153.961 331.97 153.99 331.431V321.544C154.009 321.352 153.978 321.158 153.9 320.981C153.823 320.805 153.701 320.652 153.548 320.539L152.137 319.699Z" fill="#404040"/>
<path d="M141.277 327.269L152.509 320.642C153.345 320.146 154.026 320.548 154.026 321.539V331.426C153.997 331.965 153.844 332.489 153.581 332.957C153.318 333.425 152.95 333.823 152.509 334.119L141.277 340.739C140.435 341.234 139.754 340.832 139.754 339.841V329.961C139.783 329.422 139.935 328.896 140.2 328.429C140.465 327.961 140.834 327.563 141.277 327.269Z" fill="#6A6A6A"/>
<path d="M152.896 334.736L143.615 329.258L142.611 329.854V336.589L151.885 342.067C152.101 342.226 152.355 342.322 152.62 342.348C152.886 342.373 153.153 342.326 153.394 342.211L154.405 341.615C154.627 341.456 154.802 341.239 154.911 340.985C155.02 340.732 155.058 340.453 155.023 340.179V338.47C154.978 337.721 154.762 336.993 154.393 336.344C154.023 335.696 153.511 335.145 152.896 334.736ZM151.19 336.538C151.601 336.816 151.942 337.189 152.186 337.627C152.43 338.065 152.57 338.555 152.594 339.059C152.593 339.194 152.577 339.329 152.545 339.461C152.418 339.425 152.295 339.374 152.18 339.31C151.769 339.03 151.429 338.655 151.185 338.216C150.941 337.777 150.801 337.286 150.776 336.782C150.776 336.645 150.793 336.507 150.825 336.373C150.953 336.411 151.076 336.467 151.19 336.538Z" fill="#2563EB"/>
<path opacity="0.85" d="M152.896 334.736L143.615 329.258L142.611 329.854L151.885 335.332C152.5 335.747 153.012 336.305 153.378 336.96C153.744 337.614 153.954 338.348 153.991 339.102V340.81C154.022 341.09 153.976 341.372 153.858 341.626C153.741 341.88 153.555 342.095 153.324 342.246H153.373L154.384 341.643C154.606 341.486 154.782 341.268 154.891 341.014C155 340.761 155.038 340.482 155.002 340.207V338.498C154.962 337.747 154.751 337.015 154.385 336.362C154.019 335.708 153.509 335.152 152.896 334.736Z" fill="white"/>
<path d="M155.022 338.507V340.216C155.059 340.491 155.021 340.77 154.912 341.023C154.803 341.277 154.627 341.495 154.405 341.652L153.394 342.255H153.352C153.582 342.103 153.766 341.888 153.882 341.634C153.999 341.38 154.044 341.098 154.011 340.819V339.125C153.986 338.364 153.771 337.623 153.387 336.971L154.398 336.375C154.78 337.02 154.995 337.754 155.022 338.507Z" fill="#2563EB"/>
<path opacity="0.6" d="M155.022 338.507V340.216C155.059 340.491 155.021 340.77 154.912 341.023C154.803 341.277 154.627 341.495 154.405 341.652L153.394 342.255H153.352C153.582 342.103 153.766 341.888 153.882 341.634C153.999 341.38 154.044 341.098 154.011 340.819V339.125C153.986 338.364 153.771 337.623 153.387 336.971L154.398 336.375C154.78 337.02 154.995 337.754 155.022 338.507Z" fill="white"/>
<path opacity="0.05" d="M155.022 338.507V340.216C155.059 340.491 155.021 340.77 154.912 341.023C154.803 341.277 154.627 341.495 154.405 341.652L153.394 342.255H153.352C153.582 342.103 153.766 341.888 153.882 341.634C153.999 341.38 154.044 341.098 154.011 340.819V339.125C153.986 338.364 153.771 337.623 153.387 336.971L154.398 336.375C154.78 337.02 154.995 337.754 155.022 338.507Z" fill="#171717"/>
<path opacity="0.6" d="M150.775 336.785C150.775 336.647 150.791 336.51 150.824 336.376C150.213 336.204 149.764 336.598 149.764 337.381C149.788 337.885 149.927 338.377 150.171 338.816C150.415 339.255 150.756 339.629 151.168 339.908C151.828 340.303 152.389 340.095 152.572 339.463C152.443 339.434 152.319 339.383 152.207 339.312C151.79 339.036 151.444 338.663 151.195 338.224C150.946 337.785 150.802 337.292 150.775 336.785Z" fill="white"/>
<path opacity="0.1" d="M150.775 336.785C150.775 336.647 150.791 336.51 150.824 336.376C150.213 336.204 149.764 336.598 149.764 337.381C149.788 337.885 149.927 338.377 150.171 338.816C150.415 339.255 150.756 339.629 151.168 339.908C151.828 340.303 152.389 340.095 152.572 339.463C152.443 339.434 152.319 339.383 152.207 339.312C151.79 339.036 151.444 338.663 151.195 338.224C150.946 337.785 150.802 337.292 150.775 336.785Z" fill="#171717"/>
<path opacity="0.7" d="M151.885 335.338L142.611 329.859V336.594L151.885 342.073C153.064 342.791 153.991 342.202 153.991 340.816V339.129C153.959 338.371 153.751 337.633 153.385 336.973C153.019 336.314 152.504 335.754 151.885 335.338ZM151.183 339.911C150.772 339.631 150.432 339.257 150.188 338.818C149.944 338.379 149.804 337.888 149.779 337.384C149.779 336.451 150.418 336.077 151.183 336.544C151.594 336.822 151.935 337.195 152.179 337.633C152.423 338.07 152.563 338.561 152.587 339.064C152.615 339.998 151.976 340.371 151.19 339.911H151.183Z" fill="white"/>
<path d="M160.441 330.283L151.167 324.805L150.156 325.401V332.135L159.43 337.614C159.645 337.775 159.899 337.874 160.164 337.901C160.43 337.927 160.697 337.88 160.939 337.765L161.95 337.161C162.167 337.007 162.338 336.795 162.447 336.548C162.556 336.302 162.598 336.03 162.568 335.761V334.053C162.528 333.297 162.315 332.562 161.945 331.907C161.576 331.252 161.06 330.696 160.441 330.283ZM158.735 332.085C159.147 332.364 159.489 332.738 159.732 333.177C159.976 333.616 160.116 334.108 160.139 334.613C160.138 334.746 160.122 334.878 160.09 335.007C159.961 334.978 159.837 334.927 159.725 334.857C159.313 334.577 158.972 334.203 158.728 333.764C158.484 333.325 158.345 332.834 158.321 332.329C158.321 332.194 158.337 332.059 158.37 331.927C158.498 331.963 158.621 332.016 158.735 332.085Z" fill="#2563EB"/>
<path opacity="0.85" d="M160.441 330.283L151.16 324.805L150.156 325.401L159.43 330.879C160.045 331.294 160.557 331.852 160.923 332.506C161.289 333.161 161.499 333.895 161.536 334.648V336.357C161.567 336.637 161.521 336.919 161.403 337.173C161.286 337.427 161.1 337.642 160.869 337.793H160.918L161.929 337.19C162.146 337.035 162.317 336.824 162.426 336.577C162.535 336.331 162.576 336.059 162.547 335.79V334.081C162.512 333.323 162.304 332.584 161.938 331.925C161.572 331.265 161.059 330.702 160.441 330.283Z" fill="white"/>
<path d="M162.569 334.05V335.759C162.599 336.027 162.557 336.299 162.449 336.546C162.34 336.792 162.168 337.004 161.951 337.159L160.941 337.762H160.898C161.129 337.61 161.312 337.394 161.429 337.14C161.546 336.887 161.591 336.604 161.558 336.326V334.617C161.533 333.856 161.318 333.115 160.934 332.463L161.944 331.867C162.335 332.527 162.55 333.279 162.569 334.05Z" fill="#2563EB"/>
<path opacity="0.6" d="M162.569 334.05V335.759C162.599 336.027 162.557 336.299 162.449 336.546C162.34 336.792 162.168 337.004 161.951 337.159L160.941 337.762H160.898C161.129 337.61 161.312 337.394 161.429 337.14C161.546 336.887 161.591 336.604 161.558 336.326V334.617C161.533 333.856 161.318 333.115 160.934 332.463L161.944 331.867C162.335 332.527 162.55 333.279 162.569 334.05Z" fill="white"/>
<path opacity="0.05" d="M162.569 334.05V335.759C162.599 336.027 162.557 336.299 162.449 336.546C162.34 336.792 162.168 337.004 161.951 337.159L160.941 337.762H160.898C161.129 337.61 161.312 337.394 161.429 337.14C161.546 336.887 161.591 336.604 161.558 336.326V334.617C161.533 333.856 161.318 333.115 160.934 332.463L161.944 331.867C162.335 332.527 162.55 333.279 162.569 334.05Z" fill="#171717"/>
<path opacity="0.6" d="M158.321 332.325C158.322 332.19 158.338 332.055 158.371 331.923C157.767 331.751 157.311 332.139 157.311 332.921C157.335 333.426 157.474 333.917 157.718 334.356C157.962 334.795 158.303 335.169 158.715 335.449C159.374 335.843 159.936 335.635 160.119 335.003C159.99 334.974 159.866 334.923 159.754 334.853C159.337 334.576 158.99 334.204 158.742 333.764C158.493 333.325 158.349 332.832 158.321 332.325Z" fill="white"/>
<path opacity="0.1" d="M158.321 332.325C158.322 332.19 158.338 332.055 158.371 331.923C157.767 331.751 157.311 332.139 157.311 332.921C157.335 333.426 157.474 333.917 157.718 334.356C157.962 334.795 158.303 335.169 158.715 335.449C159.374 335.843 159.936 335.635 160.119 335.003C159.99 334.974 159.866 334.923 159.754 334.853C159.337 334.576 158.99 334.204 158.742 333.764C158.493 333.325 158.349 332.832 158.321 332.325Z" fill="#171717"/>
<path opacity="0.7" d="M159.437 330.877L150.156 325.398V332.133L159.43 337.612C160.609 338.33 161.536 337.748 161.536 336.355V334.646C161.498 333.894 161.288 333.161 160.924 332.507C160.559 331.852 160.05 331.294 159.437 330.877ZM158.735 335.45C158.324 335.171 157.982 334.797 157.738 334.358C157.495 333.919 157.355 333.427 157.331 332.923C157.331 331.997 157.97 331.616 158.735 332.083C159.147 332.362 159.489 332.736 159.732 333.175C159.976 333.614 160.116 334.106 160.139 334.61C160.16 335.537 159.521 335.917 158.735 335.45Z" fill="white"/>
<path d="M192.389 292.555L218.784 276.938C221.508 275.337 222.87 273.226 222.87 271.122C222.87 269.019 222.87 267.367 222.87 267.367L195.492 251.571C194.726 251.061 194.089 250.373 193.631 249.563C193.174 248.753 192.909 247.845 192.859 246.911V213.625L146.752 240.909V274.203C146.8 275.135 147.063 276.042 147.519 276.851C147.976 277.659 148.612 278.346 149.377 278.855L172.698 292.555C178.124 295.764 186.948 295.764 192.389 292.555Z" fill="#2563EB"/>
<g opacity="0.6">
<path d="M192.389 292.555L218.784 276.938C221.508 275.337 222.87 273.226 222.87 271.122C222.87 269.019 222.87 267.367 222.87 267.367L195.492 251.571C194.726 251.061 194.089 250.373 193.631 249.563C193.174 248.753 192.909 247.845 192.859 246.911V213.625L146.752 240.909V274.203C146.8 275.135 147.063 276.042 147.519 276.851C147.976 277.659 148.612 278.346 149.377 278.855L172.698 292.555C178.124 295.764 186.948 295.764 192.389 292.555Z" fill="#171717"/>
</g>
<path opacity="0.3" d="M157.823 280.064V283.84L149.399 278.857C148.636 278.346 148.001 277.659 147.545 276.851C147.089 276.043 146.824 275.136 146.773 274.205V240.882L155.534 235.734C155.71 238.01 155.913 240.373 156.096 242.67L149.932 246.318V272.324C149.977 273.257 150.239 274.165 150.695 274.975C151.152 275.784 151.79 276.47 152.558 276.976L157.823 280.064Z" fill="#171717"/>
<path d="M149.932 272.292C149.98 273.224 150.243 274.132 150.699 274.94C151.155 275.749 151.792 276.435 152.557 276.944L172.697 288.799C178.138 292.008 186.962 292.015 192.41 288.799L218.819 273.189C224.259 269.98 224.259 264.767 218.819 261.551L198.671 249.696C197.907 249.185 197.27 248.497 196.814 247.687C196.358 246.878 196.095 245.97 196.046 245.037V219.023L149.939 246.307L149.932 272.292Z" fill="#2563EB"/>
<path opacity="0.3" d="M149.932 272.292C149.98 273.224 150.243 274.132 150.699 274.94C151.155 275.749 151.792 276.435 152.557 276.944L172.697 288.799C178.138 292.008 186.962 292.015 192.41 288.799L218.819 273.189C224.259 269.98 224.259 264.767 218.819 261.551L198.671 249.696C197.907 249.185 197.27 248.497 196.814 247.687C196.358 246.878 196.095 245.97 196.046 245.037V219.023L149.939 246.307L149.932 272.292Z" fill="#171717"/>
<path opacity="0.5" d="M204.022 252.856L198.672 249.696C197.907 249.185 197.271 248.497 196.815 247.688C196.359 246.878 196.096 245.97 196.047 245.037V219.023L149.939 246.307V272.321C149.988 273.253 150.251 274.16 150.707 274.969C151.163 275.777 151.8 276.464 152.565 276.973L157.83 280.082L204.022 252.856Z" fill="#171717"/>
<path d="M222.877 267.367V271.122C222.877 273.233 221.473 275.33 218.791 276.945L192.389 292.547C189.496 294.13 186.263 294.952 182.982 294.938V291.198C186.263 291.211 189.496 290.389 192.389 288.807L218.791 273.19C221.508 271.589 222.877 269.478 222.877 267.367Z" fill="#2563EB"/>
<path opacity="0.5" d="M222.877 267.367V271.122C222.877 273.233 221.473 275.33 218.791 276.945L192.389 292.547C189.496 294.13 186.263 294.952 182.982 294.938V291.198C186.263 291.211 189.496 290.389 192.389 288.807L218.791 273.19C221.508 271.589 222.877 269.478 222.877 267.367Z" fill="#171717"/>
<path d="M75.8931 304.66C76.8887 305.154 77.9845 305.401 79.091 305.38C80.1975 305.359 81.2835 305.07 82.2603 304.538L260.568 199.236C262.379 198.166 263.847 195.56 263.847 196.292V30.1829C263.847 25.1569 262.443 22.6152 260.765 21.61C259.77 21.1167 258.676 20.8707 257.57 20.8919C256.465 20.9131 255.381 21.201 254.405 21.732L76.1037 127.034C75.1469 127.67 74.3507 128.529 73.7797 129.539C73.2088 130.55 72.8794 131.684 72.8184 132.85V298.916C72.8489 300.054 73.1436 301.169 73.6782 302.167C74.2128 303.166 74.972 304.02 75.8931 304.66Z" fill="#2563EB"/>
<path d="M82.26 304.505L260.568 199.203C262.379 198.133 263.853 195.527 263.853 196.252V30.1783C263.853 25.1523 262.379 24.2979 260.568 25.3677L82.26 130.67C81.3032 131.306 80.5069 132.164 79.936 133.175C79.3651 134.186 79.0357 135.32 78.9746 136.485V302.559C78.9746 304.706 80.4488 305.574 82.26 304.505Z" fill="#2563EB"/>
<path opacity="0.5" d="M82.26 304.505L260.568 199.203C262.379 198.133 263.853 195.527 263.853 196.252V30.1783C263.853 25.1523 262.379 24.2979 260.568 25.3677L82.26 130.67C81.3032 131.306 80.5069 132.164 79.936 133.175C79.3651 134.186 79.0357 135.32 78.9746 136.485V302.559C78.9746 304.706 80.4488 305.574 82.26 304.505Z" fill="#171717"/>
<path d="M81.7751 308.337C80.8428 308.748 79.8349 308.949 78.82 308.926C77.805 308.904 76.8066 308.659 75.8923 308.207C74.9756 307.573 74.2185 306.726 73.6829 305.735C73.1473 304.744 72.8484 303.638 72.8105 302.506V291.938L78.9741 295.585V306.147C78.9741 308.1 80.1886 308.968 81.7751 308.337Z" fill="#2563EB"/>
<path opacity="0.5" d="M81.7751 308.337C80.8428 308.748 79.8349 308.949 78.82 308.926C77.805 308.904 76.8066 308.659 75.8923 308.207C74.9756 307.573 74.2185 306.726 73.6829 305.735C73.1473 304.744 72.8484 303.638 72.8105 302.506V291.938L78.9741 295.585V306.147C78.9741 308.1 80.1886 308.968 81.7751 308.337Z" fill="#171717"/>
<path d="M78.9746 295.583V306.137C78.9746 308.291 80.4488 309.153 82.26 308.076L260.568 202.781C261.525 202.143 262.32 201.283 262.891 200.272C263.462 199.26 263.792 198.125 263.853 196.958V186.375L78.9746 295.583Z" fill="#2563EB"/>
<path opacity="0.3" d="M78.9746 295.554V306.137C78.9746 308.291 80.4488 309.153 82.26 308.076L260.568 202.781C261.525 202.143 262.32 201.283 262.891 200.272C263.462 199.26 263.792 198.125 263.853 196.958V186.375L78.9746 295.554Z" fill="#171717"/>
<path d="M85.1367 282.313V138.577C85.1745 137.877 85.3728 137.196 85.7154 136.588C86.0581 135.981 86.5356 135.464 87.1093 135.08L255.73 35.5081C256.818 34.8691 257.702 35.3861 257.702 36.6713V180.444C257.665 181.143 257.466 181.823 257.124 182.429C256.781 183.036 256.303 183.551 255.73 183.933L87.1093 283.484C86.0212 284.123 85.1367 283.599 85.1367 282.313Z" fill="#2563EB"/>
<path d="M85.1367 282.313V138.577C85.1745 137.877 85.3728 137.196 85.7154 136.588C86.0581 135.981 86.5356 135.464 87.1093 135.08L255.73 35.5081C256.818 34.8691 257.702 35.3861 257.702 36.6713V180.444C257.665 181.143 257.466 181.823 257.124 182.429C256.781 183.036 256.303 183.551 255.73 183.933L87.1093 283.484C86.0212 284.123 85.1367 283.599 85.1367 282.313Z" fill="#404040"/>
<path opacity="0.7" d="M79.9429 133.157C79.3592 134.168 79.0265 135.309 78.9741 136.481V295.583L72.8105 291.936V132.848C72.8529 131.678 73.1837 130.536 73.7723 129.531L79.9429 133.157Z" fill="#171717"/>
<path opacity="0.3" d="M263.84 26.748C263.608 25.0176 262.239 24.393 260.582 25.3623L82.2743 130.664C81.3033 131.28 80.5032 132.14 79.9507 133.163L73.7871 129.523C74.3436 128.503 75.1429 127.643 76.1107 127.024L254.426 21.7651C255.403 21.2329 256.488 20.9443 257.595 20.9231C258.702 20.9019 259.797 21.1486 260.793 21.643C261.626 22.2234 262.329 22.979 262.855 23.8593C263.38 24.7396 263.716 25.7244 263.84 26.748Z" fill="#171717"/>
<path d="M102.075 291.078C101.685 291.314 101.244 291.45 100.791 291.473C100.145 291.56 99.4881 291.442 98.9093 291.136C98.45 290.815 98.0718 290.388 97.8057 289.888C97.5397 289.389 97.3934 288.832 97.3789 288.264V157.875L100.461 159.692V290.109C100.461 290.87 100.833 291.308 101.366 291.308C101.617 291.287 101.859 291.209 102.075 291.078Z" fill="#F6F6F6"/>
<path d="M271.56 189.065C271.526 189.641 271.36 190.201 271.076 190.7C270.792 191.198 270.397 191.622 269.924 191.937L102.076 291.078C101.177 291.609 100.447 291.179 100.447 290.109V148.857L104.947 146.2C105.846 145.669 107.313 137.584 108.218 137.017L147.25 113.969C148.155 113.438 150.282 119.433 151.181 118.894L271.56 47.8125V189.065Z" fill="#FBFBFB"/>
<path d="M270.802 49.1245V189.063C270.77 189.507 270.641 189.938 270.423 190.323C270.206 190.709 269.905 191.039 269.545 191.289L101.697 290.408C101.593 290.476 101.475 290.518 101.353 290.531C101.198 290.531 101.198 290.128 101.198 290.107V149.293L105.326 146.852C105.979 146.464 106.386 145.164 107.306 141.826C107.634 140.395 108.085 138.996 108.654 137.647L147.334 114.807C147.793 115.442 148.203 116.112 148.562 116.81C149.615 118.706 150.205 119.682 151.061 119.682C151.237 119.682 151.41 119.633 151.56 119.539L270.802 49.1245ZM271.56 47.7891L151.181 118.871C151.145 118.894 151.104 118.906 151.061 118.907C150.149 118.907 148.253 113.881 147.369 113.881C147.33 113.87 147.289 113.87 147.25 113.881L108.218 136.929C107.313 137.467 105.846 145.545 104.947 146.112L100.447 148.855V290.107C100.447 290.868 100.812 291.306 101.353 291.306C101.603 291.295 101.845 291.215 102.055 291.076L269.924 191.935C270.397 191.62 270.792 191.197 271.076 190.698C271.36 190.199 271.526 189.639 271.56 189.063V47.7891Z" fill="#EAEAEA"/>
<path d="M98.9104 153.987C98.4499 153.667 98.0703 153.24 97.803 152.74C97.5357 152.241 97.3883 151.684 97.373 151.115V138.083C97.4053 137.509 97.568 136.95 97.8483 136.452C98.1286 135.953 98.5187 135.528 98.9876 135.211L266.836 36.127C267.308 35.8208 267.853 35.6528 268.412 35.6413C268.971 35.6297 269.523 35.775 270.007 36.0613C270.491 36.3477 270.889 36.7642 271.158 37.2656C271.427 37.7671 271.556 38.3343 271.532 38.9056V51.923C271.499 52.4994 271.334 53.0599 271.05 53.5588C270.766 54.0578 270.371 54.4813 269.897 54.795L102.076 153.929C101.59 154.192 101.05 154.334 100.5 154.344C99.9502 154.354 99.4056 154.231 98.9104 153.987Z" fill="#2563EB"/>
<path opacity="0.4" d="M271.538 38.5777C271.426 37.7089 270.738 37.393 269.924 37.8597L102.076 137.001C101.597 137.319 101.199 137.75 100.917 138.258L97.8496 136.441C98.1245 135.943 98.5151 135.521 98.9869 135.213L266.835 36.1293C267.287 35.8345 267.807 35.6669 268.343 35.6435C268.878 35.62 269.411 35.7415 269.886 35.9957C270.361 36.2499 270.762 36.6278 271.048 37.0913C271.335 37.5547 271.496 38.0872 271.517 38.6351L271.538 38.5777Z" fill="white"/>
<path opacity="0.1" d="M100.918 138.261C100.626 138.759 100.464 139.325 100.448 139.905V159.729L97.3659 157.913V138.089C97.3624 138.022 97.3624 137.955 97.3659 137.888C97.3785 137.748 97.3996 137.609 97.4291 137.471C97.517 137.109 97.654 136.761 97.8362 136.438L100.918 138.261Z" fill="#171717"/>
<path d="M271.553 38.8425V47.7888L151.174 118.871C150.275 119.409 149.545 118.971 149.545 117.909V114.52C149.545 113.457 148.843 113.019 147.902 113.558L108.211 136.993C107.739 137.308 107.344 137.732 107.06 138.231C106.776 138.729 106.61 139.289 106.576 139.865V143.247C106.54 143.823 106.374 144.382 106.09 144.881C105.806 145.379 105.412 145.803 104.94 146.119L100.447 148.854V139.901C100.482 139.326 100.647 138.767 100.93 138.268C101.213 137.77 101.605 137.346 102.076 137.029L269.924 37.945C270.823 37.3419 271.553 37.7799 271.553 38.8425Z" fill="#2563EB"/>
<path d="M263.888 44.449C265.025 43.7813 265.945 44.3269 265.945 45.6696C265.906 46.4 265.7 47.1108 265.342 47.7445C264.985 48.3782 264.487 48.9169 263.888 49.317C262.751 49.9848 261.824 49.4391 261.824 48.0964C261.864 47.3655 262.072 46.6545 262.431 46.0209C262.789 45.3873 263.288 44.8488 263.888 44.449Z" fill="white"/>
<path d="M256.475 48.8255C257.612 48.1577 258.532 48.6962 258.532 50.0389C258.494 50.7696 258.288 51.4808 257.93 52.1146C257.573 52.7485 257.074 53.287 256.475 53.6863C255.338 54.3613 254.418 53.8156 254.418 52.4729C254.457 51.7425 254.663 51.0317 255.021 50.398C255.378 49.7644 255.876 49.2256 256.475 48.8255Z" fill="white"/>
<path d="M249.061 53.1958C250.198 52.5209 251.118 53.0666 251.118 54.4092C251.079 55.1397 250.872 55.8505 250.515 56.4841C250.158 57.1178 249.659 57.6565 249.061 58.0567C247.924 58.7244 247.004 58.1859 247.004 56.8432C247.042 56.1126 247.248 55.4013 247.605 54.7675C247.963 54.1337 248.461 53.5951 249.061 53.1958Z" fill="white"/>
<path d="M271.56 47.7891V58.6668L100.447 159.725V148.855L103.81 146.866C104.708 146.335 105.01 145.523 105.438 143.994L106.583 139.944C106.941 138.508 107.285 137.582 108.218 137.072L147.25 114.025C148.155 113.493 148.864 113.436 149.552 114.599L150.956 117.198C151.469 118.103 151.728 118.634 152.627 118.103L271.56 47.7891Z" fill="#E5E5E5"/>
<path d="M100.447 148.841V159.726L97.3652 157.91V147.039L100.447 148.841Z" fill="#EAEAEA"/>
<path opacity="0.5" d="M107.952 149.632L105.383 151.147L106.359 149.222C106.398 149.15 106.419 149.068 106.419 148.985C106.419 148.902 106.398 148.821 106.359 148.748C106.282 148.655 106.155 148.748 106.064 148.892L104.66 151.628C104.66 151.628 104.66 151.692 104.625 151.728C104.622 151.774 104.622 151.819 104.625 151.865C104.62 151.905 104.62 151.946 104.625 151.987C104.635 152.007 104.647 152.026 104.66 152.044L106.064 153.135C106.084 153.152 106.109 153.161 106.134 153.161C106.16 153.161 106.185 153.152 106.204 153.135C106.276 153.088 106.331 153.017 106.359 152.934C106.436 152.755 106.422 152.554 106.359 152.489L105.383 151.714L107.952 150.199C108.018 150.146 108.07 150.078 108.105 150.001C108.141 149.923 108.158 149.839 108.156 149.754C108.156 149.653 108.065 149.574 107.952 149.632Z" fill="#6A6A6A"/>
<path opacity="0.5" d="M110.092 148.356L112.662 146.841L111.679 146.073C111.637 146.006 111.615 145.927 111.615 145.847C111.615 145.767 111.637 145.689 111.679 145.621C111.749 145.441 111.882 145.355 111.967 145.42L113.371 146.518C113.39 146.533 113.404 146.553 113.413 146.576C113.42 146.616 113.42 146.658 113.413 146.698C113.42 146.745 113.42 146.794 113.413 146.841L113.371 146.949L111.967 149.692C111.94 149.758 111.893 149.813 111.833 149.85C111.812 149.87 111.785 149.881 111.756 149.881C111.727 149.881 111.7 149.87 111.679 149.85C111.639 149.779 111.618 149.698 111.618 149.617C111.618 149.535 111.639 149.454 111.679 149.383L112.662 147.459L110.092 148.974C109.98 149.039 109.889 148.974 109.889 148.773C109.892 148.693 109.912 148.614 109.947 148.542C109.982 148.471 110.031 148.407 110.092 148.356Z" fill="#6A6A6A"/>
<path opacity="0.5" d="M118.516 140.801C118.516 140.643 118.369 140.657 118.299 140.801L117.948 141.684C117.344 141.619 116.621 142.215 116.13 143.278C115.491 144.656 115.491 146.286 116.13 146.911C116.283 147.058 116.482 147.145 116.693 147.158C116.903 147.172 117.111 147.109 117.281 146.983C117.795 146.629 118.197 146.13 118.439 145.547C118.478 145.477 118.498 145.397 118.498 145.317C118.498 145.236 118.478 145.157 118.439 145.087C118.355 145.008 118.228 145.087 118.144 145.259C117.667 146.286 116.895 146.746 116.424 146.279C115.954 145.812 115.947 144.592 116.424 143.565C116.761 142.847 117.246 142.402 117.667 142.373L117.407 143.041C117.337 143.213 117.407 143.371 117.505 143.299L118.551 142.581C118.594 142.549 118.628 142.505 118.649 142.454C118.67 142.404 118.678 142.348 118.671 142.294L118.516 140.801Z" fill="#6A6A6A"/>
<path opacity="0.5" d="M146.119 118.925L147.06 116.9C147.112 116.804 147.14 116.695 147.14 116.584C147.14 116.474 147.112 116.365 147.06 116.268C146.947 116.161 146.765 116.268 146.659 116.505L145.719 118.53L144.785 117.611C144.673 117.503 144.497 117.611 144.385 117.848C144.329 117.943 144.299 118.053 144.299 118.164C144.299 118.275 144.329 118.385 144.385 118.48L145.319 119.42L144.385 121.445C144.329 121.54 144.299 121.65 144.299 121.761C144.299 121.872 144.329 121.982 144.385 122.077C144.412 122.102 144.447 122.115 144.483 122.115C144.52 122.115 144.555 122.102 144.582 122.077C144.673 122.017 144.744 121.929 144.785 121.826L145.719 119.801L146.659 120.72C146.687 120.745 146.721 120.758 146.758 120.758C146.794 120.758 146.829 120.745 146.856 120.72C146.948 120.66 147.019 120.572 147.06 120.469C147.112 120.372 147.14 120.263 147.14 120.153C147.14 120.042 147.112 119.933 147.06 119.837L146.119 118.925Z" fill="#6A6A6A"/>
<path d="M121.93 143.287V139.898C121.964 139.322 122.129 138.762 122.414 138.263C122.698 137.765 123.092 137.341 123.565 137.026L260.715 56.0432C261.621 55.5047 262.351 55.9427 262.351 57.0053V60.3943C262.317 60.9705 262.151 61.5305 261.867 62.0293C261.583 62.5281 261.188 62.9518 260.715 63.2663L123.558 144.249C122.66 144.788 121.93 144.35 121.93 143.287Z" fill="#FBFBFB"/>
<path d="M258.489 63.5558C258.441 63.5639 258.391 63.5639 258.342 63.5558C258.25 63.5123 258.176 63.438 258.131 63.3453C258.086 63.2525 258.074 63.1469 258.096 63.046L258.258 61.6746L257.626 61.2079C257.571 61.1637 257.527 61.1068 257.498 61.0419C257.468 60.977 257.455 60.906 257.457 60.8345C257.455 60.7231 257.477 60.6125 257.524 60.5115C257.57 60.4106 257.639 60.3221 257.724 60.253L258.686 59.4919C258.705 59.4686 258.719 59.4418 258.728 59.4129L259.156 57.9769C259.183 57.8587 259.243 57.7512 259.329 57.6681C259.415 57.5849 259.524 57.53 259.641 57.5102C259.72 57.501 259.799 57.5185 259.868 57.56C259.936 57.6015 259.99 57.6646 260.02 57.74L260.378 58.5226L261.192 58.2067C261.264 58.1736 261.345 58.1655 261.423 58.1836C261.5 58.2018 261.569 58.2451 261.62 58.3072C261.687 58.4065 261.723 58.5241 261.723 58.6446C261.723 58.7651 261.687 58.8828 261.62 58.9821L260.918 60.3176C260.915 60.3438 260.915 60.3703 260.918 60.3966L261.087 61.6028C261.1 61.7131 261.087 61.825 261.051 61.9297C261.014 62.0344 260.954 62.1289 260.876 62.2059C260.83 62.2612 260.771 62.304 260.705 62.3303C260.639 62.3566 260.568 62.3657 260.497 62.3567L259.746 62.2346L258.896 63.3404C258.851 63.4079 258.79 63.4629 258.719 63.5004C258.648 63.538 258.569 63.557 258.489 63.5558ZM258.026 60.7556L258.658 61.2223C258.723 61.2768 258.773 61.3481 258.803 61.4288C258.832 61.5095 258.84 61.5968 258.826 61.6818L258.714 62.6008L259.283 61.8828C259.331 61.8121 259.397 61.7552 259.473 61.7175C259.549 61.6798 259.633 61.6626 259.718 61.6674L260.504 61.7679C260.509 61.7371 260.509 61.7055 260.504 61.6746L260.336 60.4684C260.322 60.3195 260.352 60.1698 260.42 60.0376L261.031 58.8672L260.448 59.1042C260.356 59.1431 260.252 59.1439 260.159 59.1064C260.066 59.069 259.991 58.9961 259.949 58.9031L259.669 58.2856L259.283 59.5709C259.242 59.7155 259.159 59.8435 259.044 59.937L258.082 60.655C258.055 60.6824 258.035 60.7173 258.026 60.7556Z" fill="#EAEAEA"/>
<g opacity="0.5">
<path d="M264.281 55.628C264.155 55.6317 264.032 55.5921 263.931 55.5154C263.829 55.4387 263.756 55.3295 263.723 55.2052C263.69 55.081 263.698 54.9489 263.747 54.8302C263.796 54.7116 263.883 54.6132 263.993 54.551L268.598 51.8297C268.663 51.7863 268.736 51.7569 268.812 51.7432C268.888 51.7295 268.966 51.7318 269.042 51.7501C269.117 51.7683 269.188 51.8021 269.25 51.8493C269.312 51.8965 269.364 51.9562 269.403 52.0247C269.441 52.0932 269.466 52.1691 269.475 52.2476C269.484 52.3262 269.477 52.4059 269.455 52.4817C269.433 52.5576 269.396 52.628 269.347 52.6887C269.297 52.7495 269.236 52.7992 269.167 52.8349L264.562 55.549C264.478 55.6025 264.38 55.63 264.281 55.628Z" fill="#6A6A6A"/>
<path d="M264.28 58.3862C264.181 58.3871 264.083 58.361 263.997 58.3106C263.91 58.2601 263.838 58.1871 263.789 58.099C263.714 57.9653 263.694 57.807 263.732 57.6581C263.77 57.5091 263.863 57.3813 263.992 57.302L268.597 54.588C268.662 54.5492 268.733 54.5239 268.807 54.5133C268.882 54.5028 268.957 54.5074 269.029 54.5267C269.102 54.546 269.17 54.5798 269.229 54.6261C269.289 54.6723 269.339 54.7301 269.377 54.7962C269.414 54.8621 269.438 54.9349 269.448 55.0104C269.458 55.086 269.453 55.1627 269.433 55.2362C269.413 55.3097 269.38 55.3785 269.334 55.4386C269.288 55.4986 269.231 55.5487 269.166 55.586L264.561 58.3072C264.477 58.3608 264.379 58.3882 264.28 58.3862Z" fill="#6A6A6A"/>
<path d="M264.281 61.0687C264.156 61.0691 264.034 61.0272 263.935 60.9496C263.835 60.872 263.764 60.763 263.731 60.6395C263.698 60.516 263.706 60.3848 263.753 60.2664C263.801 60.148 263.885 60.0489 263.993 59.9845L268.599 57.2633C268.73 57.1875 268.886 57.1676 269.031 57.2079C269.177 57.2482 269.301 57.3454 269.378 57.4787C269.415 57.5445 269.44 57.6174 269.449 57.6929C269.459 57.7684 269.454 57.8452 269.434 57.9187C269.415 57.9922 269.381 58.061 269.335 58.121C269.289 58.1811 269.232 58.2312 269.167 58.2685L264.562 60.9897C264.477 61.0399 264.38 61.0671 264.281 61.0687Z" fill="#6A6A6A"/>
</g>
<g opacity="0.5">
<path d="M105.496 162.767C105.37 162.771 105.247 162.731 105.145 162.655C105.044 162.578 104.971 162.469 104.938 162.344C104.905 162.22 104.913 162.088 104.962 161.969C105.011 161.851 105.098 161.752 105.208 161.69L109.813 158.969C109.943 158.902 110.093 158.888 110.232 158.93C110.371 158.973 110.489 159.068 110.562 159.197C110.635 159.325 110.657 159.477 110.623 159.622C110.59 159.767 110.503 159.893 110.382 159.974L105.777 162.688C105.692 162.741 105.595 162.768 105.496 162.767Z" fill="#6A6A6A"/>
<path d="M105.496 165.487C105.396 165.488 105.298 165.462 105.212 165.412C105.126 165.361 105.054 165.288 105.004 165.2C104.966 165.134 104.941 165.061 104.931 164.985C104.921 164.91 104.925 164.832 104.944 164.758C104.963 164.684 104.996 164.615 105.041 164.554C105.087 164.493 105.143 164.442 105.208 164.403L109.813 161.689C109.877 161.65 109.948 161.625 110.021 161.615C110.095 161.604 110.17 161.609 110.241 161.628C110.313 161.648 110.381 161.681 110.44 161.728C110.499 161.774 110.548 161.831 110.585 161.897C110.623 161.963 110.648 162.036 110.658 162.112C110.668 162.188 110.664 162.265 110.645 162.339C110.626 162.413 110.593 162.483 110.548 162.544C110.503 162.604 110.446 162.656 110.382 162.694L105.776 165.408C105.692 165.461 105.595 165.488 105.496 165.487Z" fill="#6A6A6A"/>
<path d="M105.496 168.24C105.371 168.24 105.249 168.199 105.15 168.121C105.05 168.043 104.978 167.934 104.946 167.811C104.913 167.687 104.921 167.556 104.968 167.438C105.016 167.319 105.1 167.22 105.208 167.156L109.813 164.442C109.877 164.402 109.948 164.376 110.022 164.365C110.096 164.354 110.171 164.359 110.243 164.378C110.315 164.398 110.382 164.432 110.441 164.478C110.5 164.525 110.549 164.584 110.586 164.65C110.623 164.715 110.648 164.788 110.658 164.863C110.668 164.938 110.664 165.015 110.645 165.088C110.626 165.162 110.593 165.231 110.548 165.291C110.503 165.351 110.446 165.402 110.382 165.44L105.777 168.161C105.691 168.21 105.595 168.238 105.496 168.24Z" fill="#6A6A6A"/>
</g>
<path d="M146.338 138.804V142.975C146.338 143.83 146.928 144.174 147.651 143.751L202.357 111.398V104.117L147.658 136.47C147.273 136.725 146.954 137.07 146.724 137.475C146.495 137.881 146.363 138.336 146.338 138.804Z" fill="#E5E5E5"/>
<path d="M209.251 100.028C209.953 99.5971 210.564 99.9489 210.564 100.803V104.975C210.538 105.441 210.406 105.894 210.178 106.298C209.95 106.702 209.633 107.046 209.251 107.301L202.357 111.372V104.113L209.251 100.028Z" fill="#2563EB"/>
<path d="M208.74 105.77L207.975 105.518C208.053 105.187 208.093 104.847 208.094 104.506C208.129 104.188 208.084 103.865 207.96 103.571C207.837 103.276 207.641 103.019 207.392 102.826C207.218 102.731 207.023 102.687 206.826 102.697C206.629 102.707 206.439 102.771 206.276 102.883C205.786 103.267 205.392 103.764 205.125 104.333C204.858 104.901 204.725 105.526 204.738 106.157C204.703 106.476 204.749 106.798 204.872 107.092C204.995 107.387 205.191 107.644 205.44 107.837C205.588 107.923 205.755 107.967 205.925 107.967C206.148 107.964 206.366 107.9 206.556 107.78C207.143 107.369 207.58 106.77 207.799 106.078L208.571 106.322C208.599 106.329 208.628 106.329 208.655 106.322C208.727 106.33 208.799 106.309 208.856 106.264C208.913 106.219 208.951 106.153 208.962 106.08C208.973 106.007 208.956 105.933 208.914 105.872C208.873 105.812 208.81 105.77 208.74 105.755V105.77ZM206.276 107.277C206.196 107.336 206.103 107.372 206.005 107.381C205.907 107.39 205.809 107.371 205.721 107.328C205.566 107.18 205.448 106.997 205.376 106.794C205.304 106.59 205.28 106.372 205.307 106.157C205.299 105.629 205.408 105.106 205.624 104.626C205.84 104.147 206.159 103.723 206.556 103.386C206.663 103.32 206.783 103.283 206.907 103.278C206.979 103.276 207.05 103.296 207.111 103.336C207.266 103.483 207.384 103.666 207.456 103.87C207.528 104.073 207.552 104.291 207.525 104.506C207.532 105.033 207.423 105.555 207.207 106.033C206.99 106.511 206.672 106.934 206.276 107.27V107.277Z" fill="#FBFBFB"/>
<path d="M123.601 150.669L115.703 155.314C115.322 155.566 115.004 155.907 114.776 156.309C114.547 156.711 114.416 157.162 114.391 157.626V161.783C114.391 162.638 114.98 162.982 115.703 162.559L123.601 157.885C123.982 157.631 124.299 157.288 124.526 156.885C124.752 156.482 124.883 156.03 124.907 155.565V151.437C124.907 150.59 124.324 150.238 123.601 150.669Z" fill="#2563EB"/>
<path d="M260.946 69.5563C260.051 70.1541 259.307 70.959 258.773 71.9057C258.238 72.8524 257.93 73.9145 257.871 75.0059C257.871 77.0163 259.275 77.8276 260.946 76.8296C261.842 76.2314 262.589 75.4257 263.124 74.4777C263.659 73.5297 263.969 72.466 264.028 71.3728C264.028 69.3624 262.645 68.5511 260.946 69.5563Z" fill="#2563EB"/>
<path d="M260.59 72.7429C260.494 72.7446 260.399 72.7198 260.316 72.6711C260.218 72.6003 260.14 72.5051 260.088 72.3945C260.036 72.2839 260.013 72.1616 260.021 72.0393C260.034 71.7515 260.114 71.471 260.255 71.2212C260.395 70.9715 260.592 70.7596 260.828 70.6033C260.924 70.5257 261.041 70.4794 261.163 70.4704C261.285 70.4614 261.407 70.49 261.513 70.5527C261.619 70.6154 261.704 70.7092 261.757 70.8219C261.81 70.9346 261.829 71.0611 261.811 71.1849C261.796 71.4731 261.714 71.7535 261.573 72.0031C261.431 72.2528 261.234 72.4645 260.997 72.6209C260.873 72.6956 260.733 72.7375 260.59 72.7429Z" fill="white"/>
<path d="M262.161 72.965C261.99 72.8777 261.799 72.8396 261.609 72.8548C261.418 72.87 261.235 72.9379 261.08 73.0512L260.631 73.3168C260.223 73.5812 259.883 73.9413 259.639 74.3671C259.394 74.793 259.253 75.2723 259.227 75.7652V76.0955C259.501 76.217 259.802 76.2637 260.1 76.231C260.398 76.1983 260.682 76.0873 260.925 75.9088C261.634 75.4583 262.218 74.8306 262.624 74.0851V74.0061C262.643 73.8062 262.611 73.6047 262.529 73.4219C262.448 73.2391 262.321 73.0815 262.161 72.965Z" fill="white"/>
<path d="M250.058 79.2893V78.1764C250.058 76.9127 249.307 76.3311 248.38 76.8768C247.867 77.2519 247.448 77.7449 247.155 78.316C246.863 78.8871 246.705 79.5205 246.695 80.1652V81.1633C246.673 81.8489 246.477 82.5169 246.127 83.1019C246.04 83.2548 245.991 83.4276 245.986 83.6045C245.986 83.9276 246.176 84.0712 246.408 83.9347L250.346 81.6156C250.474 81.5194 250.579 81.3941 250.652 81.2496C250.725 81.1051 250.764 80.9454 250.767 80.7827C250.772 80.7204 250.763 80.6579 250.741 80.5995C250.719 80.5412 250.685 80.4885 250.641 80.4453C250.443 80.3331 250.282 80.1634 250.178 79.9577C250.074 79.7519 250.032 79.5193 250.058 79.2893Z" fill="#2563EB"/>
<path d="M249.217 82.6562C249.212 82.9656 249.137 83.2695 248.996 83.5437C248.856 83.8179 248.655 84.0549 248.41 84.2358C247.961 84.4943 247.596 84.2358 247.596 83.6112L249.217 82.6562Z" fill="#2563EB"/>
<path d="M235.542 84.5787C235.756 84.4485 235.996 84.3654 236.244 84.3346C236.438 84.3113 236.634 84.3515 236.805 84.4495C236.97 84.5528 237.1 84.7058 237.177 84.8874C237.268 85.1373 237.304 85.4045 237.282 85.6701C237.285 85.9117 237.259 86.1527 237.205 86.3881C237.155 86.5985 237.089 86.8049 237.009 87.0055C236.932 87.1945 236.845 87.3791 236.749 87.5584L236.468 88.0754C236.384 88.2405 236.3 88.4128 236.229 88.578C236.162 88.7369 236.113 88.9031 236.082 89.0734C236.075 89.1548 236.056 89.2347 236.026 89.3103C236.002 89.3679 235.963 89.4176 235.914 89.4539L235.12 89.9206C235.071 89.9206 235.029 89.9206 235.001 89.9206C234.981 89.8986 234.965 89.8726 234.956 89.8441C234.946 89.8157 234.942 89.7855 234.945 89.7555C234.944 89.5343 234.974 89.3141 235.036 89.1021C235.093 88.894 235.163 88.6901 235.247 88.4918C235.338 88.2979 235.429 88.1041 235.535 87.9246C235.64 87.7451 235.724 87.5656 235.815 87.4076C235.907 87.2497 235.97 87.0845 236.033 86.9337C236.086 86.7989 236.114 86.6554 236.117 86.5101C236.117 86.3091 236.068 86.1798 235.977 86.1296C235.886 86.0793 235.731 86.1296 235.535 86.2157C235.366 86.3062 235.223 86.4398 235.12 86.6035C235.043 86.7324 234.979 86.8697 234.931 87.0127L234.833 87.3717C234.811 87.469 234.753 87.5539 234.671 87.6087L233.878 88.0754C233.863 88.0859 233.846 88.0915 233.829 88.0915C233.811 88.0915 233.794 88.0859 233.78 88.0754C233.764 88.0555 233.752 88.0325 233.744 88.0079C233.737 87.9832 233.735 87.9574 233.737 87.9318C233.747 87.6524 233.79 87.3752 233.864 87.1061C233.953 86.7871 234.071 86.4771 234.215 86.1798C234.368 85.8665 234.556 85.5725 234.776 85.3039C234.987 85.0169 235.246 84.7713 235.542 84.5787ZM236.103 91.213C236.103 91.29 236.086 91.366 236.054 91.4356C236.027 91.4975 235.983 91.5499 235.928 91.5864L235.113 92.0674C235.105 92.0755 235.096 92.0818 235.086 92.0862C235.076 92.0905 235.065 92.0928 235.054 92.0928C235.043 92.0928 235.032 92.0905 235.021 92.0862C235.011 92.0818 235.002 92.0755 234.994 92.0674C234.974 92.0455 234.958 92.0194 234.949 91.991C234.939 91.9625 234.935 91.9323 234.938 91.9023V90.8756C234.94 90.798 234.959 90.7218 234.994 90.653C235.016 90.5885 235.058 90.5331 235.113 90.495L235.928 90.014C235.945 89.9988 235.968 89.9904 235.991 89.9904C236.014 89.9904 236.036 89.9988 236.054 90.014C236.073 90.0352 236.087 90.0603 236.095 90.0875C236.104 90.1148 236.106 90.1435 236.103 90.1719V91.213Z" fill="#2563EB"/>
<path d="M176.483 179.423C176.524 179.387 176.577 179.368 176.63 179.368C176.684 179.368 176.737 179.387 176.778 179.423C176.824 179.477 176.86 179.539 176.882 179.607C176.904 179.675 176.913 179.747 176.907 179.819V182.423C176.903 182.613 176.859 182.799 176.778 182.97C176.72 183.122 176.617 183.251 176.483 183.338L169.103 187.707C169.062 187.742 169.009 187.761 168.955 187.761C168.902 187.761 168.849 187.742 168.808 187.707C168.763 187.652 168.73 187.589 168.709 187.521C168.688 187.453 168.681 187.381 168.688 187.31V171.469C168.688 171.283 168.729 171.099 168.808 170.931C168.868 170.781 168.971 170.653 169.103 170.563L176.381 166.261C176.422 166.224 176.475 166.203 176.529 166.203C176.583 166.203 176.636 166.224 176.677 166.261C176.722 166.313 176.756 166.375 176.777 166.441C176.797 166.508 176.804 166.578 176.797 166.648V169.261C176.797 169.447 176.756 169.631 176.677 169.799C176.616 169.949 176.514 170.077 176.381 170.167L171.575 172.997V175.649L176.031 173.016C176.074 172.982 176.128 172.963 176.183 172.963C176.238 172.963 176.292 172.982 176.335 173.016C176.38 173.071 176.414 173.134 176.434 173.202C176.455 173.27 176.462 173.342 176.455 173.413V176.017C176.455 176.203 176.414 176.387 176.335 176.554C176.272 176.708 176.166 176.839 176.031 176.932L171.575 179.564V182.319L176.483 179.423Z" fill="#404040"/>
<path d="M183.743 161.869C184.308 161.508 184.933 161.255 185.588 161.124C186.059 161.019 186.552 161.096 186.971 161.341C187.398 161.632 187.709 162.071 187.848 162.577C188.073 163.328 188.175 164.112 188.152 164.898C188.165 166.031 188 167.158 187.663 168.238C187.366 169.203 186.904 170.107 186.298 170.908L188.226 175.625C188.259 175.699 188.275 175.78 188.272 175.861C188.274 176.015 188.239 176.167 188.171 176.305C188.121 176.427 188.038 176.532 187.931 176.607L185.809 177.861C185.606 177.984 185.458 177.993 185.366 177.861C185.279 177.77 185.208 177.665 185.154 177.55L183.411 173.351L181.981 174.191V179.456C181.977 179.643 181.933 179.827 181.852 179.994C181.787 180.144 181.685 180.274 181.556 180.371L179.508 181.569C179.469 181.609 179.416 181.63 179.361 181.63C179.306 181.63 179.253 181.609 179.213 181.569C179.167 181.516 179.133 181.453 179.112 181.384C179.091 181.316 179.085 181.244 179.093 181.173V165.275C179.093 165.089 179.134 164.905 179.213 164.737C179.274 164.585 179.376 164.454 179.508 164.36L183.743 161.869ZM181.981 170.361L183.743 169.323C184.174 169.064 184.543 168.709 184.822 168.285C185.129 167.783 185.281 167.197 185.255 166.605C185.255 165.917 185.108 165.53 184.822 165.435C184.635 165.398 184.443 165.401 184.257 165.443C184.072 165.485 183.896 165.566 183.743 165.681L181.981 166.747V170.361Z" fill="#404040"/>
<path d="M194.978 155.23C195.545 154.872 196.17 154.62 196.823 154.485C197.292 154.39 197.778 154.467 198.197 154.702C198.64 154.992 198.966 155.433 199.12 155.947C199.316 156.7 199.391 157.481 199.341 158.259C199.352 159.394 199.19 160.524 198.861 161.608C198.557 162.57 198.092 163.47 197.487 164.269L199.415 168.986C199.451 169.063 199.469 169.147 199.47 169.232C199.468 169.385 199.433 169.536 199.369 169.675C199.313 169.797 199.228 169.901 199.12 169.977L196.998 171.232C196.795 171.355 196.648 171.364 196.555 171.232C196.466 171.139 196.394 171.03 196.343 170.911L194.646 166.75L193.216 167.599V172.864C193.213 173.051 193.168 173.235 193.087 173.402C193.027 173.552 192.924 173.68 192.792 173.77L190.744 174.978C190.703 175.015 190.651 175.035 190.596 175.035C190.542 175.035 190.489 175.015 190.449 174.978C190.404 174.923 190.37 174.86 190.35 174.792C190.329 174.724 190.322 174.652 190.329 174.581V158.646C190.329 158.456 190.37 158.27 190.449 158.098C190.509 157.948 190.612 157.82 190.744 157.73L194.978 155.23ZM193.216 163.722L194.978 162.674C195.413 162.425 195.783 162.072 196.057 161.646C196.364 161.144 196.515 160.558 196.491 159.967C196.491 159.278 196.343 158.891 196.057 158.797C195.87 158.76 195.678 158.763 195.493 158.805C195.307 158.847 195.132 158.928 194.978 159.042L193.216 160.08V163.722Z" fill="#404040"/>
<path d="M201.186 157.969C201.216 157.015 201.342 156.066 201.564 155.138C201.777 154.214 202.086 153.316 202.486 152.459C202.893 151.628 203.398 150.852 203.99 150.147C204.568 149.457 205.258 148.873 206.029 148.421C206.635 148.018 207.336 147.787 208.058 147.751C208.607 147.737 209.141 147.928 209.562 148.289C210.002 148.708 210.321 149.243 210.484 149.836C210.721 150.603 210.849 151.4 210.862 152.204C210.862 152.893 210.862 153.629 210.862 154.393C210.862 155.157 210.862 155.893 210.862 156.582C210.832 157.536 210.706 158.485 210.484 159.412C210.274 160.341 209.964 161.242 209.562 162.101C209.159 162.935 208.654 163.712 208.058 164.413C207.479 165.096 206.793 165.677 206.029 166.13C205.418 166.534 204.716 166.771 203.99 166.819C203.441 166.833 202.907 166.642 202.486 166.281C202.053 165.848 201.735 165.309 201.564 164.715C201.327 163.948 201.199 163.151 201.186 162.347C201.186 161.686 201.186 160.969 201.186 160.205C201.186 159.441 201.186 158.686 201.186 157.969ZM208.04 158.176C208.04 157.875 208.04 157.544 208.04 157.176C208.04 156.808 208.04 156.44 208.04 156.063C208.04 155.686 208.04 155.327 208.04 154.978C208.04 154.629 208.04 154.327 208.04 154.034C208.02 153.683 207.965 153.336 207.873 152.997C207.805 152.741 207.675 152.508 207.495 152.317C207.331 152.164 207.118 152.077 206.896 152.072C206.596 152.087 206.306 152.184 206.056 152.355C205.734 152.541 205.446 152.783 205.208 153.072C204.968 153.359 204.767 153.676 204.608 154.016C204.445 154.375 204.321 154.751 204.239 155.138C204.146 155.541 204.09 155.952 204.073 156.365C204.073 156.657 204.073 156.978 204.073 157.308C204.073 157.639 204.073 158.035 204.073 158.412C204.073 158.79 204.073 159.158 204.073 159.507C204.073 159.856 204.073 160.186 204.073 160.45C204.054 161.071 204.243 161.68 204.608 162.177C204.931 162.526 205.41 162.517 206.056 162.13C206.698 161.756 207.2 161.175 207.486 160.479C207.804 159.75 207.997 158.972 208.058 158.176H208.04Z" fill="#404040"/>
<path d="M217.789 141.746C218.356 141.388 218.981 141.136 219.634 141C220.103 140.906 220.589 140.983 221.009 141.217C221.451 141.507 221.778 141.949 221.931 142.463C222.155 143.211 222.258 143.992 222.235 144.774C222.246 145.91 222.084 147.04 221.756 148.124C221.449 149.087 220.985 149.99 220.381 150.794L222.309 155.511C222.345 155.588 222.364 155.672 222.365 155.757C222.362 155.91 222.327 156.061 222.263 156.2C222.208 156.322 222.122 156.426 222.014 156.502L219.892 157.757C219.689 157.88 219.542 157.889 219.45 157.757C219.36 157.664 219.288 157.555 219.237 157.436L217.503 153.2L216.073 154.049V159.314C216.07 159.501 216.026 159.684 215.944 159.852C215.884 160.002 215.781 160.13 215.649 160.22L213.601 161.427C213.561 161.464 213.508 161.485 213.454 161.485C213.399 161.485 213.347 161.464 213.306 161.427C213.261 161.373 213.228 161.309 213.207 161.241C213.187 161.173 213.179 161.102 213.186 161.031V145.161C213.187 144.972 213.228 144.785 213.306 144.614C213.366 144.464 213.469 144.336 213.601 144.246L217.789 141.746ZM216.027 150.237L217.789 149.19C218.225 148.938 218.597 148.586 218.878 148.162C219.181 147.658 219.329 147.073 219.302 146.482C219.302 145.793 219.164 145.407 218.878 145.312C218.689 145.275 218.496 145.277 218.309 145.32C218.121 145.362 217.945 145.443 217.789 145.558L216.027 146.595V150.237Z" fill="#404040"/>
<path d="M148.337 206.599C149.26 206.033 150.053 205.948 150.588 206.354C151.123 206.76 151.391 207.637 151.391 209.024C151.418 210.284 151.142 211.531 150.588 212.656C150.083 213.67 149.301 214.512 148.337 215.081L146.428 216.204V220.412C146.424 220.553 146.389 220.692 146.326 220.818C146.283 220.936 146.206 221.038 146.105 221.11L145.182 221.676C145.151 221.707 145.11 221.724 145.067 221.724C145.024 221.724 144.983 221.707 144.952 221.676C144.917 221.637 144.891 221.59 144.875 221.54C144.859 221.49 144.854 221.436 144.86 221.384V209.213C144.859 209.069 144.891 208.927 144.952 208.798C145 208.682 145.08 208.584 145.182 208.514L148.337 206.599ZM146.428 213.855L148.273 212.76C148.756 212.491 149.153 212.086 149.418 211.592C149.683 211.099 149.804 210.538 149.767 209.977C149.767 209.269 149.629 208.864 149.361 208.75C149.173 208.707 148.978 208.706 148.79 208.749C148.602 208.791 148.425 208.875 148.273 208.996L146.428 210.09V213.855Z" fill="#404040"/>
<path d="M156.428 201.826C156.548 201.75 156.65 201.741 156.714 201.826C156.8 201.935 156.857 202.065 156.88 202.203L159.814 212.374C159.814 212.374 159.814 212.45 159.814 212.497C159.811 212.64 159.779 212.781 159.722 212.912C159.675 213.028 159.594 213.127 159.491 213.195L158.633 213.704C158.467 213.799 158.356 213.818 158.292 213.704C158.23 213.639 158.185 213.557 158.163 213.469L157.646 211.685L153.882 213.922L153.366 216.309C153.332 216.441 153.289 216.57 153.237 216.695C153.166 216.851 153.046 216.978 152.895 217.054L152.037 217.563C152.006 217.592 151.965 217.608 151.922 217.608C151.88 217.608 151.839 217.592 151.807 217.563C151.738 217.479 151.705 217.371 151.715 217.262C151.71 217.214 151.71 217.167 151.715 217.12L154.657 203.543C154.691 203.345 154.747 203.152 154.823 202.967C154.879 202.828 154.98 202.711 155.109 202.637L156.428 201.826ZM157.083 209.704L155.764 205.109L154.454 211.251L157.083 209.704Z" fill="#404040"/>
<path d="M160.744 204.145C160.754 203.399 160.841 202.656 161.002 201.928C161.16 201.234 161.392 200.56 161.694 199.918C161.994 199.304 162.373 198.733 162.819 198.22C163.268 197.713 163.791 197.28 164.369 196.937C164.879 196.587 165.472 196.385 166.085 196.352C166.473 196.348 166.851 196.482 167.155 196.729C167.43 196.979 167.626 197.308 167.718 197.673C167.819 197.977 167.881 198.295 167.902 198.616C167.912 198.763 167.883 198.909 167.819 199.041C167.767 199.154 167.684 199.249 167.579 199.314L166.657 199.89C166.574 199.937 166.5 199.946 166.454 199.89C166.4 199.853 166.358 199.801 166.334 199.739C166.299 199.652 166.259 199.567 166.214 199.484C166.136 199.345 166.025 199.228 165.891 199.144C165.714 199.043 165.513 198.994 165.31 199.003C164.981 199.023 164.663 199.13 164.387 199.314C163.763 199.695 163.262 200.257 162.948 200.928C162.582 201.665 162.386 202.478 162.376 203.305C162.376 203.796 162.376 204.315 162.376 204.853C162.376 205.39 162.376 205.909 162.376 206.372C162.376 207.4 162.589 208.051 162.948 208.259C163.175 208.383 163.433 208.436 163.689 208.411C163.945 208.386 164.188 208.284 164.387 208.117C164.682 207.94 164.954 207.728 165.199 207.485C165.454 207.231 165.668 206.938 165.836 206.617C166.031 206.26 166.171 205.875 166.251 205.475C166.359 204.999 166.412 204.511 166.408 204.022V203.871L164.941 204.739C164.91 204.765 164.871 204.78 164.83 204.78C164.79 204.78 164.751 204.765 164.72 204.739C164.685 204.698 164.659 204.65 164.643 204.598C164.627 204.546 164.622 204.492 164.627 204.437V203.098C164.627 202.954 164.658 202.812 164.72 202.682C164.768 202.57 164.845 202.473 164.941 202.399L167.708 200.777C167.738 200.747 167.778 200.73 167.819 200.73C167.861 200.73 167.9 200.747 167.93 200.777C167.967 200.817 167.995 200.864 168.012 200.916C168.03 200.968 168.036 201.024 168.031 201.079V203.145C168.029 203.89 167.952 204.633 167.801 205.362C167.659 206.068 167.429 206.753 167.118 207.4C166.818 208.031 166.436 208.618 165.983 209.145C165.528 209.674 164.992 210.123 164.397 210.476C163.919 210.788 163.375 210.978 162.81 211.032C162.608 211.044 162.406 211.015 162.216 210.945C162.026 210.875 161.851 210.767 161.703 210.627C161.371 210.29 161.138 209.865 161.03 209.4C160.862 208.786 160.775 208.151 160.771 207.513C160.771 207.277 160.771 207.013 160.771 206.73C160.771 206.447 160.771 206.145 160.771 205.843C160.771 205.541 160.771 205.249 160.771 204.956C160.771 204.664 160.734 204.39 160.744 204.145Z" fill="#404040"/>
<path d="M175.359 201.46C175.39 201.429 175.431 201.412 175.474 201.412C175.517 201.412 175.558 201.429 175.589 201.46C175.626 201.5 175.654 201.547 175.672 201.599C175.689 201.651 175.696 201.707 175.691 201.762V203.092C175.688 203.236 175.654 203.378 175.589 203.507C175.546 203.625 175.465 203.725 175.359 203.79L170.11 206.894C170.079 206.922 170.04 206.937 169.999 206.937C169.958 206.937 169.919 206.922 169.888 206.894C169.851 206.854 169.823 206.807 169.806 206.754C169.788 206.702 169.782 206.647 169.787 206.592V194.431C169.789 194.286 169.824 194.144 169.888 194.015C169.931 193.9 170.009 193.801 170.11 193.732L175.266 190.685C175.298 190.656 175.339 190.641 175.382 190.641C175.424 190.641 175.465 190.656 175.497 190.685C175.532 190.726 175.558 190.774 175.574 190.826C175.59 190.878 175.595 190.933 175.589 190.987V192.327C175.588 192.467 175.557 192.606 175.497 192.732C175.451 192.851 175.37 192.953 175.266 193.025L171.401 195.299V198.299L175.008 196.167C175.039 196.141 175.078 196.126 175.119 196.126C175.159 196.126 175.198 196.141 175.229 196.167C175.265 196.207 175.293 196.255 175.31 196.307C175.328 196.359 175.335 196.414 175.331 196.469V197.884C175.329 198.028 175.294 198.17 175.229 198.299C175.181 198.411 175.104 198.509 175.008 198.582L171.42 200.714V203.847L175.359 201.46Z" fill="#404040"/>
<path d="M185.939 197.577C185.8 197.662 185.699 197.662 185.634 197.577L185.477 197.407L182.129 191.548V199.303C182.126 199.448 182.092 199.59 182.027 199.718C181.984 199.834 181.907 199.933 181.806 200.001L180.837 200.577C180.806 200.608 180.765 200.625 180.722 200.625C180.679 200.625 180.638 200.608 180.607 200.577C180.571 200.536 180.545 200.488 180.529 200.436C180.513 200.384 180.508 200.329 180.514 200.275V188.113C180.514 187.97 180.545 187.828 180.607 187.698C180.65 187.58 180.731 187.48 180.837 187.415L181.667 186.915C181.806 186.84 181.907 186.83 181.981 186.915C182.039 186.966 182.091 187.023 182.138 187.085L185.487 192.944V185.189C185.486 185.045 185.517 184.903 185.579 184.773C185.625 184.657 185.706 184.558 185.809 184.49L186.732 183.915C186.763 183.884 186.804 183.867 186.847 183.867C186.89 183.867 186.932 183.884 186.962 183.915C187.03 184 187.063 184.108 187.055 184.217V196.378C187.05 196.522 187.018 196.662 186.962 196.794C186.916 196.91 186.835 197.009 186.732 197.077L185.939 197.577Z" fill="#404040"/>
<path d="M188.981 187.508C189 186.788 189.083 186.071 189.23 185.367C189.374 184.677 189.594 184.006 189.885 183.366C190.165 182.743 190.528 182.162 190.964 181.64C191.392 181.111 191.911 180.667 192.495 180.328C192.948 180.028 193.47 179.855 194.008 179.828C194.208 179.827 194.407 179.866 194.592 179.944C194.777 180.022 194.946 180.136 195.087 180.281C195.404 180.63 195.629 181.055 195.742 181.517C195.907 182.116 195.997 182.735 196.01 183.357C196.01 183.593 196.01 183.847 196.01 184.14V185.923C196.01 186.216 196.01 186.48 196.01 186.725C195.984 187.445 195.897 188.162 195.752 188.867C195.609 189.557 195.389 190.228 195.097 190.867C194.816 191.491 194.453 192.072 194.017 192.594C193.587 193.111 193.072 193.549 192.495 193.886C192.038 194.192 191.51 194.368 190.964 194.396C190.561 194.398 190.174 194.239 189.885 193.952C189.568 193.603 189.343 193.178 189.23 192.716C189.073 192.116 188.99 191.498 188.981 190.877C188.981 190.65 188.981 190.386 188.981 190.103C188.981 189.82 188.981 189.518 188.981 189.207C188.981 188.895 188.981 188.603 188.981 188.31C188.981 188.018 188.971 187.763 188.981 187.508ZM194.396 184.404C194.442 183.762 194.244 183.126 193.842 182.63C193.643 182.487 193.404 182.414 193.161 182.423C192.918 182.431 192.684 182.521 192.495 182.678C191.905 183.044 191.436 183.583 191.148 184.225C190.79 184.981 190.601 185.809 190.595 186.65C190.595 187.14 190.595 187.669 190.595 188.254C190.595 188.839 190.595 189.367 190.595 189.829C190.566 190.146 190.6 190.466 190.695 190.769C190.79 191.073 190.945 191.353 191.148 191.594C191.49 191.886 191.933 191.867 192.495 191.537C193.081 191.173 193.549 190.642 193.842 190.009C194.19 189.249 194.379 188.423 194.396 187.584C194.396 187.103 194.396 186.565 194.396 185.98C194.396 185.395 194.405 184.885 194.396 184.414V184.404Z" fill="#404040"/>
<path d="M203.289 174.146C203.321 174.117 203.362 174.102 203.404 174.102C203.447 174.102 203.488 174.117 203.519 174.146C203.554 174.187 203.58 174.235 203.596 174.287C203.612 174.339 203.617 174.394 203.612 174.448V175.787C203.612 175.931 203.581 176.073 203.519 176.203C203.471 176.318 203.391 176.416 203.289 176.486L201.186 177.769V188.091C201.182 188.234 201.151 188.375 201.093 188.506C201.047 188.622 200.966 188.721 200.863 188.789L199.94 189.364C199.908 189.393 199.867 189.409 199.825 189.409C199.783 189.409 199.742 189.393 199.71 189.364C199.674 189.324 199.648 189.276 199.632 189.224C199.616 189.172 199.611 189.117 199.617 189.063V178.731L197.376 179.958C197.345 179.988 197.303 180.005 197.26 180.005C197.217 180.005 197.176 179.988 197.145 179.958C197.111 179.918 197.084 179.872 197.069 179.822C197.053 179.771 197.047 179.718 197.053 179.665V178.326C197.052 178.182 197.084 178.04 197.145 177.91C197.188 177.792 197.27 177.692 197.376 177.627L203.289 174.146Z" fill="#404040"/>
<path d="M213.27 168.254C213.3 168.226 213.34 168.211 213.381 168.211C213.421 168.211 213.461 168.226 213.491 168.254C213.528 168.294 213.556 168.342 213.574 168.394C213.591 168.446 213.598 168.501 213.593 168.556V169.886C213.59 170.031 213.556 170.173 213.491 170.302C213.448 170.417 213.371 170.516 213.27 170.585L209.488 172.858V176.51L213.067 174.406C213.097 174.378 213.137 174.363 213.178 174.363C213.218 174.363 213.258 174.378 213.288 174.406C213.324 174.447 213.351 174.495 213.369 174.546C213.386 174.598 213.393 174.653 213.39 174.708V176.047C213.387 176.192 213.353 176.334 213.288 176.463C213.245 176.578 213.168 176.677 213.067 176.746L209.488 178.869V183.18C209.488 183.324 209.457 183.466 209.395 183.595C209.352 183.714 209.271 183.814 209.165 183.879L208.196 184.454C208.164 184.483 208.123 184.498 208.081 184.498C208.038 184.498 207.998 184.483 207.966 184.454C207.931 184.413 207.905 184.365 207.889 184.313C207.873 184.261 207.868 184.206 207.873 184.152V171.972C207.873 171.828 207.904 171.686 207.966 171.556C208.009 171.438 208.09 171.338 208.196 171.273L213.27 168.254Z" fill="#404040"/>
<path d="M214.895 172.204C214.917 171.483 215.004 170.766 215.153 170.062C215.293 169.372 215.509 168.701 215.799 168.062C216.083 167.44 216.446 166.859 216.878 166.335C217.309 165.809 217.827 165.365 218.409 165.023C218.864 164.722 219.39 164.549 219.931 164.523C220.13 164.523 220.327 164.563 220.511 164.64C220.694 164.718 220.861 164.832 221.002 164.976C221.317 165.328 221.544 165.752 221.666 166.212C221.827 166.812 221.913 167.43 221.924 168.052C221.924 168.288 221.924 168.543 221.924 168.835C221.924 169.128 221.924 169.42 221.924 169.722C221.924 170.024 221.924 170.326 221.924 170.618C221.924 170.911 221.924 171.185 221.924 171.42C221.902 172.141 221.816 172.858 221.666 173.562C221.526 174.252 221.309 174.923 221.02 175.562C220.736 176.186 220.37 176.767 219.931 177.289C219.501 177.807 218.986 178.244 218.409 178.582C217.953 178.889 217.424 179.065 216.878 179.091C216.476 179.091 216.089 178.932 215.799 178.648C215.483 178.299 215.261 177.874 215.153 177.412C214.993 176.812 214.906 176.194 214.895 175.572C214.895 175.345 214.895 175.081 214.895 174.798C214.895 174.515 214.895 174.213 214.895 173.855C214.895 173.496 214.895 173.251 214.895 172.958C214.895 172.666 214.886 172.449 214.895 172.204ZM220.31 169.099C220.337 168.781 220.303 168.46 220.207 168.156C220.112 167.851 219.959 167.569 219.756 167.326C219.415 167.033 218.963 167.052 218.409 167.382C217.822 167.747 217.353 168.283 217.063 168.92C216.704 169.676 216.515 170.505 216.509 171.345C216.509 171.836 216.509 172.364 216.509 172.949C216.509 173.534 216.509 174.062 216.509 174.525C216.48 174.842 216.514 175.161 216.609 175.465C216.704 175.768 216.859 176.048 217.063 176.289C217.404 176.581 217.856 176.563 218.409 176.232C218.995 175.868 219.463 175.337 219.756 174.704C220.114 173.948 220.303 173.119 220.31 172.279C220.31 171.798 220.31 171.26 220.31 170.675C220.31 170.09 220.328 169.571 220.31 169.099Z" fill="#404040"/>
<path d="M230.273 158.255C230.305 158.227 230.346 158.211 230.388 158.211C230.431 158.211 230.472 158.227 230.504 158.255C230.572 158.339 230.605 158.448 230.596 158.557V166.284C230.597 167.035 230.526 167.784 230.384 168.52C230.259 169.208 230.058 169.879 229.784 170.521C229.505 171.131 229.142 171.696 228.705 172.2C228.276 172.696 227.772 173.117 227.21 173.446C226.761 173.747 226.243 173.926 225.707 173.964C225.511 173.973 225.315 173.942 225.132 173.872C224.948 173.803 224.78 173.696 224.637 173.559C224.317 173.211 224.096 172.78 224 172.313C223.849 171.665 223.778 170.999 223.788 170.332V162.605C223.792 162.46 223.827 162.319 223.89 162.19C223.935 162.075 224.012 161.977 224.111 161.907L225.033 161.331C225.065 161.302 225.106 161.287 225.149 161.287C225.191 161.287 225.232 161.302 225.264 161.331C225.333 161.415 225.366 161.524 225.356 161.633V169.256C225.345 169.676 225.391 170.095 225.495 170.502C225.547 170.761 225.676 170.998 225.864 171.181C225.943 171.247 226.035 171.296 226.133 171.325C226.231 171.354 226.334 171.363 226.436 171.351C226.693 171.307 226.94 171.214 227.164 171.077C227.733 170.739 228.192 170.237 228.483 169.634C228.652 169.277 228.776 168.9 228.852 168.511C228.949 168.052 228.996 167.584 228.991 167.115V159.482C228.993 159.337 229.028 159.195 229.092 159.067C229.139 158.95 229.215 158.849 229.314 158.774L230.273 158.255Z" fill="#404040"/>
<path d="M238.13 166.752C237.991 166.827 237.89 166.837 237.816 166.752C237.759 166.701 237.706 166.644 237.659 166.582L234.311 160.732V168.488C234.311 168.632 234.28 168.774 234.218 168.903C234.172 169.02 234.092 169.119 233.988 169.186L233.019 169.762C232.989 169.79 232.949 169.805 232.909 169.805C232.868 169.805 232.828 169.79 232.798 169.762C232.762 169.721 232.734 169.673 232.717 169.621C232.699 169.57 232.692 169.515 232.696 169.46V157.317C232.7 157.176 232.735 157.037 232.798 156.911C232.844 156.795 232.921 156.694 233.019 156.619L233.859 156.128C233.997 156.053 234.099 156.043 234.172 156.128L234.329 156.298L237.678 162.148V154.392C237.677 154.248 237.709 154.106 237.77 153.977C237.819 153.865 237.895 153.767 237.991 153.694L238.969 153.118C239 153.092 239.04 153.078 239.08 153.078C239.12 153.078 239.159 153.092 239.191 153.118C239.226 153.159 239.253 153.207 239.271 153.259C239.288 153.311 239.295 153.366 239.292 153.42V165.582C239.29 165.727 239.255 165.869 239.191 165.997C239.144 166.113 239.068 166.215 238.969 166.29L238.13 166.752Z" fill="#404040"/>
<path d="M244.725 149.674C245.189 149.37 245.717 149.183 246.266 149.127C246.464 149.116 246.663 149.147 246.85 149.216C247.037 149.286 247.209 149.394 247.354 149.533C247.68 149.88 247.909 150.31 248.018 150.778C248.193 151.424 248.289 152.09 248.304 152.76C248.304 153.703 248.304 154.6 248.304 155.543C248.278 156.321 248.182 157.095 248.018 157.855C247.881 158.555 247.661 159.237 247.363 159.883C247.083 160.49 246.723 161.055 246.293 161.563C245.861 162.061 245.354 162.485 244.79 162.817L241.773 164.601C241.743 164.628 241.703 164.644 241.662 164.644C241.622 164.644 241.582 164.628 241.552 164.601C241.516 164.56 241.488 164.512 241.471 164.46C241.453 164.408 241.446 164.353 241.45 164.299V152.118C241.453 151.974 241.487 151.832 241.552 151.703C241.592 151.586 241.67 151.486 241.773 151.42L244.725 149.674ZM246.69 153.713C246.679 153.362 246.63 153.014 246.542 152.675C246.477 152.42 246.35 152.187 246.173 151.995C246.092 151.915 245.995 151.852 245.889 151.811C245.782 151.771 245.669 151.753 245.555 151.76C245.226 151.771 244.907 151.876 244.633 152.061L243.028 153.005V161.496L244.688 160.553C245.012 160.37 245.3 160.127 245.537 159.836C245.78 159.552 245.982 159.235 246.136 158.892C246.301 158.534 246.424 158.157 246.505 157.77C246.588 157.369 246.637 156.962 246.653 156.553C246.718 155.552 246.718 154.618 246.69 153.713Z" fill="#404040"/>
</svg>
