<svg width="18" height="18" viewBox="0 0 18 18" fill="none" xmlns="http://www.w3.org/2000/svg">
<g id="xls-svgrepo-com 1">
<g id="Group">
<path id="Vector" d="M13.051 0H1.9502V18H16.0506V2.99962L13.051 0Z" fill="#E8E8E8"/>
<g id="Group_2">
<path id="Vector_2" d="M12.5152 3.66406H5.39746V10.7818H12.5152V3.66406Z" fill="#007934"/>
<path id="Vector_3" d="M11.8974 4.28125H6.01465V10.164H11.8974V4.28125Z" fill="white"/>
<path id="Vector_4" d="M11.4365 8.16016H9.62109L10.1573 8.82984L9.62109 9.49946H11.4365L10.9003 8.82984L11.4365 8.16016Z" fill="#007934"/>
<path id="Vector_5" d="M10.9171 5.8125H9.17963L8.7945 6.29345L8.40937 5.8125H6.67188L7.92575 7.37842L6.67188 8.94434H10.9171L9.66325 7.37842L10.9171 5.8125Z" fill="#007934"/>
<path id="Vector_6" d="M7.41647 6.0332H7.16504L9.31824 8.72215H9.56961L7.41647 6.0332Z" fill="white"/>
</g>
<path id="Vector_7" d="M13.5152 1.49984H1.9502V0H13.051L13.5152 1.49984Z" fill="#007934"/>
<g id="Group_3">
<path id="Vector_8" d="M8.07405 16.2586H7.18363L6.62835 15.3683L6.07895 16.2586H5.20801L6.15299 14.8013L5.26453 13.4102H6.1179L6.63227 14.2908L7.12717 13.4102H8.0059L7.10384 14.8617L8.07405 16.2586Z" fill="#A4A9AD"/>
<path id="Vector_9" d="M8.39355 16.2586V13.4102H9.16316V15.6372H10.2601V16.2587H8.39355V16.2586Z" fill="#A4A9AD"/>
<path id="Vector_10" d="M12.5782 15.3934C12.5782 15.5701 12.5333 15.7269 12.4437 15.8639C12.3541 16.001 12.2248 16.1075 12.056 16.1835C11.8871 16.2595 11.6891 16.2975 11.4617 16.2975C11.2721 16.2975 11.113 16.2841 10.9844 16.2575C10.8558 16.2309 10.722 16.1845 10.583 16.1182V15.4324C10.7298 15.5077 10.8824 15.5665 11.0409 15.6087C11.1994 15.6509 11.3448 15.6721 11.4773 15.6721C11.5916 15.6721 11.6754 15.6523 11.7287 15.6126C11.7819 15.573 11.8086 15.522 11.8086 15.4597C11.8086 15.4208 11.7978 15.3866 11.7764 15.3574C11.755 15.3282 11.7206 15.2986 11.6732 15.2688C11.6257 15.2389 11.4994 15.1779 11.2942 15.0856C11.1084 15.0012 10.9691 14.9194 10.8763 14.8401C10.7834 14.7609 10.7146 14.67 10.6697 14.5673C10.6249 14.4647 10.6025 14.3433 10.6025 14.203C10.6025 13.9406 10.6979 13.736 10.8889 13.5893C11.0799 13.4425 11.3422 13.3691 11.6761 13.3691C11.9709 13.3691 12.2716 13.4373 12.5781 13.5737L12.3424 14.168C12.0761 14.0459 11.8462 13.9848 11.6527 13.9848C11.5526 13.9848 11.4799 14.0023 11.4344 14.0374C11.3889 14.0725 11.3663 14.116 11.3663 14.168C11.3663 14.2238 11.3951 14.2739 11.4529 14.318C11.5108 14.3621 11.6676 14.4427 11.9235 14.5596C12.169 14.67 12.3395 14.7885 12.4349 14.9152C12.5304 15.0417 12.5782 15.2013 12.5782 15.3934Z" fill="#A4A9AD"/>
</g>
<path id="Vector_11" d="M13.0508 2.99962H16.0504L13.0508 0V2.99962Z" fill="#D1D3D3"/>
</g>
</g>
</svg>
