<svg width="135" height="18" viewBox="0 0 135 18" fill="none" xmlns="http://www.w3.org/2000/svg">
<g id="Logo Oxy-Light Mode">
<g id="Vector">
<path d="M120.864 5.323C120.441 4.86633 119.678 5.16525 119.678 5.78737V12.2128C119.678 12.8349 120.441 13.1338 120.864 12.6772L123.836 9.46471C124.078 9.20261 124.078 8.79806 123.836 8.53595L120.864 5.323Z" fill="#272660"/>
<path d="M119.943 0L124.794 2.13773H130.853C131.609 2.13773 132.221 2.75004 132.221 3.50536V14.4946C132.221 15.25 131.609 15.8623 130.853 15.8623H124.468L121.487 17.1565L120.872 18H132.147C133.28 18 134.198 17.0815 134.198 15.9486V2.05144C134.198 0.918463 133.28 0 132.147 0H119.943Z" fill="#272660"/>
<path d="M122.589 0.198064C122.582 0.196699 122.575 0.194649 122.568 0.193283C122.52 0.182355 122.471 0.172111 122.423 0.161867C122.405 0.158452 122.388 0.154353 122.37 0.150939C122.327 0.142743 122.285 0.134547 122.242 0.126351C122.218 0.122253 122.194 0.117472 122.17 0.113374C122.131 0.106544 122.092 0.100398 122.053 0.0942509C122.025 0.090153 121.997 0.0853719 121.968 0.081274C121.932 0.0758102 121.896 0.0710303 121.859 0.0662494C121.827 0.0621515 121.796 0.0580527 121.764 0.0546378C121.73 0.0505399 121.696 0.0464421 121.661 0.0430272C121.626 0.0396123 121.592 0.0361978 121.558 0.0327829C121.526 0.0300509 121.494 0.0266364 121.462 0.0245874C121.423 0.0218555 121.384 0.0191228 121.346 0.0163909C121.317 0.014342 121.288 0.0122929 121.259 0.0109269C121.214 0.00887798 121.17 0.00682891 121.125 0.00546294C121.102 0.00477996 121.079 0.00341445 121.056 0.00273147C120.988 0.000682524 120.919 0 120.85 0C120.827 0 120.804 0.000682607 120.782 0.000682607L112.217 0L112.216 0.00136521C107.669 0.0566868 103.985 4.07194 103.985 8.99966C103.985 13.8529 107.558 17.8204 112.009 17.9932H112.011C112.111 17.9973 112.21 17.9993 112.311 17.9993C112.414 17.9993 112.517 17.9973 112.619 17.9932H114.326C114.428 17.9973 114.531 17.9993 114.635 17.9993C114.738 17.9993 114.84 17.9966 114.942 17.9932H117.105C117.207 17.9973 117.309 17.9993 117.412 17.9993C117.511 17.9993 117.611 17.9966 117.709 17.9932H120.551C120.65 17.9973 120.75 17.9993 120.851 17.9993H120.854C120.922 17.9993 120.989 17.9986 121.056 17.9966C121.08 17.9959 121.104 17.9945 121.128 17.9939C121.172 17.9925 121.216 17.9904 121.26 17.9884C121.29 17.987 121.319 17.985 121.348 17.9829C121.386 17.9802 121.424 17.9781 121.462 17.9754C121.494 17.9727 121.527 17.9699 121.559 17.9665C121.593 17.9631 121.627 17.9604 121.661 17.957C121.696 17.9536 121.73 17.9495 121.765 17.9454C121.796 17.9419 121.827 17.9378 121.858 17.9338C121.895 17.929 121.932 17.9235 121.968 17.918C121.995 17.9139 122.023 17.9098 122.05 17.9057C122.09 17.8996 122.13 17.8928 122.17 17.8859C122.193 17.8818 122.216 17.8777 122.239 17.8736C122.282 17.8655 122.326 17.8573 122.369 17.8491C122.386 17.8456 122.402 17.8422 122.418 17.8388C122.468 17.8286 122.517 17.8183 122.567 17.8067C122.572 17.806 122.575 17.8047 122.58 17.804C126.344 16.9414 129.177 13.3216 129.177 8.99966C129.176 4.68184 126.347 1.06477 122.589 0.198064ZM105.562 9.00034C105.562 6.56961 106.668 4.41207 108.365 3.0864C107.085 4.66887 106.309 6.7383 106.309 9.00034C106.309 11.2603 107.084 13.3284 108.361 14.9109C106.667 13.5845 105.562 11.429 105.562 9.00034ZM107.887 9.00034C107.887 6.0922 109.47 3.57678 111.752 2.40546C110.113 4.05009 109.086 6.3975 109.086 9.00034C109.086 11.6025 110.113 13.9506 111.753 15.5952C109.469 14.4239 107.887 11.9085 107.887 9.00034ZM110.662 9.00034C110.662 5.62299 112.797 2.77496 115.684 1.94787C115.223 2.34263 114.801 2.7893 114.427 3.279C114.385 3.33432 114.343 3.39101 114.302 3.44769C114.219 3.56107 114.139 3.67649 114.062 3.79397C114.023 3.8527 113.985 3.91212 113.947 3.97222C113.722 4.33147 113.521 4.70916 113.346 5.10256C113.317 5.16813 113.288 5.23438 113.26 5.30063C113.065 5.76574 112.906 6.25134 112.786 6.7547C112.769 6.82641 112.752 6.8988 112.737 6.9712C112.675 7.26147 112.626 7.55652 112.59 7.85635C112.546 8.2313 112.523 8.61309 112.523 9.00103C112.523 9.38896 112.546 9.77075 112.59 10.1457C112.607 10.285 112.626 10.423 112.648 10.5603C112.662 10.645 112.677 10.729 112.692 10.8123C112.734 11.0315 112.783 11.2487 112.84 11.4618C112.877 11.6039 112.918 11.7452 112.962 11.8846C112.992 11.9809 113.024 12.0758 113.057 12.1707C113.086 12.2534 113.116 12.336 113.147 12.418C113.223 12.6147 113.303 12.8073 113.391 12.9972C113.42 13.0607 113.449 13.1235 113.48 13.1863C113.774 13.7887 114.129 14.3508 114.537 14.8631C114.652 15.0085 114.772 15.1492 114.896 15.2865C115.143 15.5597 115.406 15.8165 115.684 16.0549C112.797 15.2257 110.662 12.377 110.662 9.00034ZM125.72 14.0455L125.719 14.0435C124.875 14.9956 123.796 15.7018 122.584 16.0508C122.582 16.0515 122.58 16.0521 122.578 16.0528C122.527 16.0672 122.476 16.0815 122.424 16.0945C122.419 16.0958 122.414 16.0972 122.409 16.0986C122.361 16.1109 122.312 16.1232 122.263 16.1341C122.255 16.1361 122.247 16.1375 122.239 16.1396C122.193 16.1498 122.146 16.16 122.1 16.1696C122.09 16.1717 122.079 16.1737 122.069 16.1758C122.024 16.1846 121.98 16.1928 121.935 16.2003C121.923 16.2024 121.91 16.2051 121.897 16.2072C121.855 16.2147 121.812 16.2208 121.769 16.227C121.755 16.229 121.74 16.2318 121.725 16.2338C121.684 16.2393 121.643 16.2447 121.601 16.2495C121.585 16.2516 121.568 16.2536 121.551 16.2557C121.511 16.2604 121.471 16.2639 121.431 16.2673C121.413 16.2686 121.395 16.2707 121.377 16.2727C121.338 16.2762 121.299 16.2789 121.259 16.2809C121.24 16.2823 121.221 16.2837 121.202 16.285C121.16 16.2871 121.118 16.2891 121.076 16.2905C121.06 16.2912 121.043 16.2919 121.027 16.2925C120.968 16.2939 120.909 16.2953 120.85 16.2953C119.213 16.2953 117.71 15.6615 116.54 14.6097C116.468 14.5448 116.397 14.4785 116.328 14.4109C116.204 14.2894 116.083 14.1623 115.967 14.0305C115.809 13.8516 115.66 13.6637 115.519 13.4684C115.328 13.202 115.153 12.9213 114.997 12.6277C114.97 12.5764 114.943 12.5252 114.917 12.474C114.839 12.319 114.766 12.1605 114.699 11.9993C114.654 11.8914 114.611 11.7828 114.57 11.6722C114.51 11.5069 114.455 11.3382 114.405 11.1668C114.356 10.9953 114.312 10.8219 114.275 10.6456C114.249 10.5282 114.227 10.4093 114.207 10.2898C114.197 10.2297 114.188 10.1696 114.179 10.1095C114.162 9.98862 114.148 9.86705 114.136 9.74479C114.113 9.4996 114.101 9.25168 114.101 8.99966C114.101 8.81115 114.108 8.62402 114.121 8.43893C114.139 8.19237 114.167 7.94923 114.207 7.70951C114.217 7.6494 114.227 7.58998 114.239 7.53056C114.261 7.41172 114.286 7.29425 114.314 7.17814C114.342 7.06135 114.372 6.94661 114.405 6.83187C114.503 6.4897 114.625 6.15777 114.767 5.83882C114.839 5.67968 114.915 5.52328 114.996 5.37029C115.05 5.26853 115.107 5.16813 115.165 5.06978C115.194 5.0206 115.225 4.97143 115.255 4.92294C115.467 4.58349 115.706 4.26386 115.967 3.96813C116.041 3.88344 116.118 3.8008 116.196 3.72021C116.587 3.31725 117.022 2.96483 117.493 2.67114C117.54 2.64178 117.588 2.61309 117.635 2.58509C118.591 2.02299 119.687 1.70336 120.849 1.70336C120.906 1.70336 120.963 1.70404 121.02 1.70541C121.041 1.70609 121.063 1.70746 121.084 1.70814C121.119 1.7095 121.154 1.71087 121.189 1.71224C121.216 1.7136 121.244 1.71565 121.271 1.7177C121.3 1.71975 121.329 1.72111 121.357 1.72385C121.388 1.72658 121.418 1.72931 121.448 1.73204C121.474 1.73478 121.498 1.73682 121.523 1.73956C121.557 1.74297 121.59 1.74707 121.623 1.75185C121.645 1.75458 121.667 1.75731 121.688 1.76004C121.724 1.76483 121.76 1.77029 121.796 1.77575C121.815 1.77849 121.833 1.78122 121.851 1.78395C121.89 1.7901 121.928 1.79693 121.966 1.80376C121.982 1.80649 121.997 1.80922 122.012 1.81195C122.054 1.81947 122.095 1.82834 122.136 1.83654C122.148 1.83927 122.159 1.84132 122.171 1.84405C122.215 1.85361 122.259 1.86386 122.303 1.8741C122.311 1.87615 122.32 1.8782 122.328 1.88025C122.375 1.89186 122.422 1.90347 122.468 1.91576C122.473 1.91713 122.478 1.9185 122.483 1.91986C122.533 1.93352 122.582 1.94718 122.632 1.96221C122.633 1.96289 122.634 1.96289 122.635 1.96357C123.721 2.28663 124.697 2.89653 125.491 3.71133L125.492 3.70996C126.788 5.04041 127.597 6.91929 127.597 8.99897C127.599 10.9557 126.883 12.7342 125.72 14.0455Z" fill="#F15A2D"/>
</g>
<g id="Vector_2">
<path d="M6.45351 16.2763C5.4867 16.2763 4.60447 16.1192 3.80685 15.805C3.02131 15.4908 2.33849 15.0376 1.7584 14.4454C1.1904 13.8532 0.755327 13.1402 0.453196 12.3063C0.151065 11.4724 0 10.5419 0 9.51462C0 8.47529 0.151065 7.53868 0.453196 6.7048C0.767412 5.87092 1.20852 5.16393 1.77653 4.58384C2.34454 3.99167 3.02131 3.53847 3.80685 3.22425C4.60447 2.91004 5.4867 2.75293 6.45351 2.75293C7.43242 2.75293 8.31464 2.91004 9.10018 3.22425C9.89781 3.53847 10.5806 3.99167 11.1486 4.58384C11.7166 5.17602 12.1517 5.88905 12.4538 6.72293C12.768 7.54473 12.9252 8.47529 12.9252 9.51462C12.9252 10.5539 12.768 11.4906 12.4538 12.3244C12.1517 13.1583 11.7106 13.8713 11.1305 14.4635C10.5625 15.0436 9.87968 15.4908 9.08205 15.805C8.29651 16.1192 7.42033 16.2763 6.45351 16.2763ZM6.45351 14.9167C7.45659 14.9167 8.32068 14.6992 9.0458 14.2641C9.77091 13.817 10.3329 13.1946 10.7317 12.3969C11.1305 11.5872 11.3299 10.6265 11.3299 9.51462C11.3299 8.66865 11.2151 7.91332 10.9855 7.24864C10.7559 6.58395 10.4296 6.02199 10.0066 5.56275C9.58359 5.09142 9.06997 4.73491 8.46571 4.4932C7.87353 4.23941 7.2028 4.11252 6.45351 4.11252C5.45044 4.11252 4.58635 4.33005 3.86123 4.76512C3.1482 5.20019 2.59228 5.82258 2.19347 6.63229C1.79466 7.42992 1.59525 8.39069 1.59525 9.51462C1.59525 10.3485 1.71006 11.1038 1.93968 11.7806C2.1693 12.4453 2.48956 13.0133 2.90046 13.4846C3.32344 13.9439 3.83102 14.3004 4.4232 14.5542C5.02746 14.7959 5.70423 14.9167 6.45351 14.9167Z" fill="#0F172A"/>
<path d="M13.0815 16.1132L18.0304 8.97078L13.7704 2.89795H15.565L19.0093 7.97375H19.0818L22.5261 2.89795H24.3208L20.097 8.95265L25.0459 16.1132H23.215L19.0637 10.0947H19.0093L14.8762 16.1132H13.0815Z" fill="#0F172A"/>
<path d="M29.7865 16.1132V10.838L24.8919 2.89795H26.6503L30.5116 9.33334H30.6022L34.4997 2.89795H36.24L31.3273 10.838V16.1132H29.7865Z" fill="#0F172A"/>
<path d="M42.6553 16.2763C41.6764 16.2763 40.7881 16.1132 39.9905 15.7869C39.2049 15.4606 38.5281 15.0013 37.9601 14.4091C37.4042 13.8049 36.9752 13.0918 36.6731 12.2701C36.383 11.4362 36.238 10.5177 36.238 9.51462C36.238 8.47529 36.3891 7.54473 36.6912 6.72293C37.0054 5.88905 37.4465 5.17602 38.0145 4.58384C38.5946 3.99167 39.2835 3.53847 40.0811 3.22425C40.8787 2.91004 41.7549 2.75293 42.7096 2.75293C43.7973 2.75293 44.7641 2.94025 45.6101 3.31489C46.4681 3.68954 47.163 4.21524 47.6948 4.89202C48.2265 5.5567 48.5528 6.34224 48.6737 7.24864H47.0784C46.9576 6.57186 46.6917 6.00386 46.2808 5.54462C45.8699 5.08538 45.3563 4.73491 44.74 4.4932C44.1357 4.2515 43.4589 4.13065 42.7096 4.13065C41.7307 4.13065 40.8727 4.34818 40.1355 4.78325C39.3983 5.20623 38.8242 5.81654 38.4133 6.61416C38.0145 7.41179 37.8151 8.37256 37.8151 9.49649C37.8151 10.3425 37.9299 11.1038 38.1595 11.7806C38.3892 12.4453 38.7155 13.0133 39.1385 13.4846C39.5614 13.9559 40.069 14.3185 40.6612 14.5723C41.2654 14.814 41.9362 14.9348 42.6734 14.9348C43.616 14.9348 44.4378 14.7536 45.1388 14.391C45.8518 14.0164 46.4017 13.4846 46.7884 12.7958C47.1872 12.0948 47.3866 11.2549 47.3866 10.276V9.87718L47.9667 10.5116H42.8909V9.31521H48.9819V10.1128C48.9819 11.0555 48.8308 11.9075 48.5287 12.6689C48.2265 13.4302 47.7975 14.0768 47.2416 14.6085C46.6857 15.1403 46.021 15.5512 45.2475 15.8412C44.4741 16.1313 43.61 16.2763 42.6553 16.2763Z" fill="#0F172A"/>
<path d="M51.4311 16.1132V2.89795H60.5132V4.25754H52.6276L52.972 3.89498V9.07955L52.6276 8.71699H59.6249V9.98594H52.6276L52.972 9.62338V15.098L52.6276 14.7354H60.5313V16.1132H51.4311Z" fill="#0F172A"/>
<path d="M63.1505 16.1132V2.89795H65.1083L72.577 14.101H72.6857L72.5951 9.58713V2.89795H74.0997V16.1132H72.2144L64.7639 5.00078H64.6551L64.7276 9.2427V16.1132H63.1505Z" fill="#0F172A"/>
<path d="M78.9444 12.4028V6.72256H81.3754C81.6819 6.72256 81.9598 6.76412 82.2091 6.84723C82.4636 6.93035 82.6792 7.05242 82.8558 7.21345C83.0324 7.36928 83.1675 7.56408 83.261 7.79783C83.3597 8.02639 83.4091 8.28872 83.4091 8.5848C83.4091 8.95881 83.3285 9.28866 83.1675 9.57436C83.0065 9.85487 82.7753 10.0756 82.474 10.2367C82.1728 10.3925 81.8065 10.4704 81.3754 10.4704L80.0508 10.4626V9.51982L81.1728 9.52761C81.3546 9.52761 81.5208 9.50164 81.6715 9.44969C81.8221 9.39255 81.9442 9.29905 82.0377 9.16919C82.1312 9.03933 82.178 8.86011 82.178 8.63155C82.178 8.40819 82.1286 8.23158 82.0299 8.10171C81.9364 7.97185 81.8143 7.88095 81.6637 7.829C81.5182 7.77705 81.3546 7.75108 81.1728 7.75108H80.004L80.1599 7.58745V12.4028H78.9444Z" fill="black"/>
<path d="M84.2023 12.4028V6.72256H85.4178V11.5301L85.2386 11.3275H87.9424V12.4028H84.2023Z" fill="black"/>
<path d="M90.718 12.4729C90.2089 12.4729 89.7726 12.382 89.409 12.2002C89.0506 12.0184 88.7752 11.7613 88.583 11.4288C88.396 11.0912 88.3025 10.6964 88.3025 10.2445V6.72256H89.5103V10.2367C89.5103 10.4912 89.557 10.7068 89.6505 10.8834C89.7492 11.0548 89.8895 11.1847 90.0713 11.273C90.2531 11.3561 90.4713 11.3976 90.7258 11.3976C90.9959 11.3976 91.2193 11.3535 91.3959 11.2652C91.5777 11.1717 91.7128 11.0392 91.8011 10.8678C91.8946 10.6912 91.9413 10.4808 91.9413 10.2367V6.72256H93.149V10.2445C93.149 10.712 93.0478 11.1119 92.8452 11.4444C92.6478 11.7768 92.3673 12.0314 92.0036 12.208C91.6452 12.3846 91.2167 12.4729 90.718 12.4729Z" fill="black"/>
<path d="M96.3172 12.4729C95.8081 12.4729 95.3796 12.395 95.0315 12.2392C94.6835 12.0833 94.4186 11.8651 94.2368 11.5846C94.0602 11.3041 93.9719 10.9821 93.9719 10.6185H95.203C95.2082 10.8055 95.2497 10.9691 95.3276 11.1093C95.4108 11.2444 95.5354 11.3509 95.7016 11.4288C95.8731 11.5067 96.0938 11.5457 96.3639 11.5457C96.6756 11.5457 96.925 11.4885 97.112 11.3743C97.299 11.26 97.3925 11.0912 97.3925 10.8678C97.3925 10.7327 97.3717 10.6211 97.3301 10.5328C97.2886 10.4444 97.2159 10.3717 97.112 10.3146C97.0133 10.2522 96.8782 10.2029 96.7068 10.1665C96.5406 10.125 96.3276 10.0808 96.0679 10.0341C95.7458 9.98733 95.4601 9.9198 95.2108 9.83149C94.9614 9.74318 94.7536 9.6341 94.5874 9.50424C94.4212 9.37437 94.2965 9.21854 94.2134 9.03673C94.1303 8.84972 94.0887 8.63155 94.0887 8.38222C94.0887 8.02379 94.1771 7.71732 94.3537 7.46279C94.5355 7.20306 94.7926 7.00307 95.1251 6.86282C95.4575 6.72256 95.8523 6.65244 96.3094 6.65244C96.7561 6.65244 97.1405 6.72256 97.4626 6.86282C97.7898 7.00307 98.0418 7.20046 98.2184 7.45499C98.395 7.70953 98.4833 8.00561 98.4833 8.34326H97.26C97.2548 8.16145 97.2055 8.01341 97.112 7.89913C97.0237 7.78485 96.9068 7.70173 96.7613 7.64979C96.6159 7.59784 96.4523 7.57187 96.2704 7.57187C96.0834 7.57187 95.9198 7.59784 95.7796 7.64979C95.6393 7.70173 95.5328 7.77705 95.4601 7.87575C95.3874 7.97445 95.351 8.09132 95.351 8.22638C95.351 8.3978 95.3952 8.52766 95.4835 8.61597C95.577 8.70428 95.725 8.7744 95.9276 8.82635C96.1302 8.8731 96.3951 8.92505 96.7224 8.98219C96.9613 9.01855 97.1951 9.0679 97.4236 9.13023C97.6522 9.19256 97.86 9.28607 98.047 9.41073C98.234 9.53021 98.382 9.69903 98.4911 9.9172C98.6002 10.1302 98.6547 10.4081 98.6547 10.7509C98.6547 11.0886 98.5664 11.3898 98.3898 11.6548C98.2184 11.9145 97.9587 12.1171 97.6106 12.2625C97.2678 12.4028 96.8367 12.4729 96.3172 12.4729Z" fill="black"/>
</g>
</g>
</svg>
