<svg width="18" height="18" viewBox="0 0 18 18" fill="none" xmlns="http://www.w3.org/2000/svg">
<g id="xls-svgrepo-com 2">
<g id="Group">
<path id="Vector" d="M13.3508 0H2.25V18H16.3504V2.99962L13.3508 0Z" fill="#E8E8E8"/>
<path id="Vector_2" d="M13.9561 8.90184C13.7398 8.51636 12.9925 8.39525 12.6496 8.34074C12.3794 8.29776 12.1035 8.28494 11.8301 8.28518C11.6155 8.28375 11.404 8.29432 11.1953 8.30619C11.1184 8.31136 11.0422 8.31801 10.9661 8.3246C10.8881 8.24385 10.8127 8.16044 10.7397 8.07513C10.2754 7.52555 9.90058 6.90229 9.59513 6.25463C9.67622 5.9417 9.74111 5.61511 9.7803 5.27593C9.85184 4.65689 9.87642 3.95141 9.64446 3.36122C9.56437 3.15752 9.35082 2.90954 9.10444 3.03303C8.82119 3.17504 8.74152 3.57738 8.71842 3.86259C8.69984 4.09312 8.71284 4.32425 8.75155 4.55092C8.79097 4.77913 8.85444 4.99583 8.92354 5.21223C8.98802 5.41064 9.05908 5.60751 9.13656 5.80254C9.0874 5.95607 9.03522 6.10692 8.98042 6.25392C8.85266 6.58894 8.7145 6.90722 8.58164 7.21338C8.51158 7.36519 8.44301 7.51379 8.37592 7.65907C8.16362 8.12541 7.93315 8.58321 7.67448 9.02575C7.07111 9.23858 6.52966 9.48532 6.08 9.77528C5.83878 9.93112 5.62571 10.1004 5.44825 10.286C5.28071 10.4613 5.11044 10.6887 5.09554 10.9405C5.08717 11.0826 5.14345 11.2206 5.25987 11.3049C5.41999 11.4245 5.63218 11.4165 5.81794 11.3776C6.42648 11.2499 6.89377 10.7268 7.29172 10.286C7.56583 9.9823 7.87781 9.5967 8.20417 9.13035C8.20488 9.12928 8.20559 9.12822 8.20636 9.12715C8.7661 8.95361 9.37528 8.80709 10.0218 8.69939C10.3172 8.65041 10.6204 8.61034 10.9296 8.5822C11.1471 8.78589 11.3821 8.97136 11.6384 9.12626C11.8381 9.24909 12.0505 9.35281 12.2727 9.43017C12.4975 9.50361 12.7236 9.56357 12.9571 9.60151C13.075 9.61837 13.1956 9.62603 13.3188 9.6214C13.5938 9.61101 13.9884 9.50557 14.0143 9.17197C14.0222 9.06986 14.0002 8.98033 13.9561 8.90184ZM7.37389 9.51394C7.24512 9.71342 7.12092 9.89283 7.0039 10.0507C6.71733 10.4406 6.39002 10.9038 5.91614 11.0769C5.82614 11.1098 5.70764 11.1438 5.58272 11.1364C5.47147 11.1299 5.36175 11.0808 5.3668 10.9545C5.36929 10.8883 5.40165 10.804 5.45128 10.7211C5.5056 10.6302 5.57287 10.5468 5.64571 10.4702C5.8018 10.3062 5.99914 10.1473 6.22617 10.0001C6.57437 9.77421 6.99007 9.57087 7.45344 9.38944C7.42679 9.43159 7.40019 9.47351 7.37389 9.51394ZM8.99004 4.5115C8.9543 4.30287 8.94889 4.09134 8.97086 3.88794C8.98178 3.78624 9.0025 3.68698 9.03248 3.59395C9.05789 3.51499 9.11275 3.32227 9.20026 3.29752C9.34453 3.25667 9.38888 3.5664 9.4052 3.65403C9.49818 4.15249 9.41625 4.70682 9.30469 5.19578C9.28694 5.27356 9.26717 5.35008 9.24693 5.42631C9.21237 5.33126 9.17942 5.23592 9.14909 5.1401C9.08378 4.93082 9.02405 4.71911 8.99004 4.5115ZM9.98049 8.44648C9.43845 8.53435 8.92283 8.64946 8.43814 8.78536C8.4965 8.76903 8.76319 8.26362 8.82267 8.15872C9.10296 7.66506 9.33224 7.14695 9.49699 6.60343C9.7879 7.17877 10.141 7.72918 10.5747 8.2191C10.6147 8.26356 10.6553 8.3075 10.6966 8.3509C10.4535 8.37708 10.2143 8.40896 9.98049 8.44648ZM13.6462 9.14074C13.6263 9.2479 13.3975 9.30917 13.2907 9.32603C12.9751 9.37567 12.6412 9.33595 12.3391 9.23449C12.1318 9.16491 11.932 9.07015 11.742 8.95616C11.5532 8.84212 11.3766 8.70794 11.2115 8.55999C11.4151 8.54776 11.6212 8.53975 11.8282 8.54367C12.0353 8.54575 12.244 8.55619 12.4501 8.58309C12.8367 8.62619 13.2698 8.75888 13.5741 9.00972C13.634 9.05917 13.6531 9.10287 13.6462 9.14074Z" fill="#FB3449"/>
<path id="Vector_3" d="M13.815 1.49984H2.25V0H13.3508L13.815 1.49984Z" fill="#FB3449"/>
<g id="Group_2">
<path id="Vector_4" d="M7.82889 14.3161C7.82889 14.6344 7.73509 14.8802 7.54736 15.0536C7.35964 15.227 7.09307 15.3136 6.74754 15.3136H6.53126V16.2586H5.76172V13.4102H6.7476C7.10738 13.4102 7.37757 13.4888 7.55811 13.6459C7.73865 13.8031 7.82889 14.0265 7.82889 14.3161ZM6.53132 14.6863H6.67161C6.7872 14.6863 6.8791 14.6539 6.94732 14.5889C7.01553 14.5239 7.04961 14.4343 7.04961 14.32C7.04961 14.1278 6.9431 14.0316 6.73009 14.0316H6.53132V14.6863Z" fill="#A4A9AD"/>
<path id="Vector_5" d="M10.7011 14.774C10.7011 15.2494 10.5702 15.6157 10.3085 15.8728C10.0468 16.13 9.67885 16.2586 9.20479 16.2586H8.2832V13.4102H9.26909C9.72629 13.4102 10.0792 13.5271 10.328 13.7608C10.5767 13.9946 10.7011 14.3324 10.7011 14.774ZM9.90232 14.8013C9.90232 14.5402 9.85067 14.3467 9.74742 14.2207C9.64418 14.0947 9.48733 14.0317 9.27686 14.0317H9.05286V15.6274H9.22432C9.45818 15.6274 9.62958 15.5595 9.7387 15.4237C9.84776 15.2881 9.90232 15.0806 9.90232 14.8013Z" fill="#A4A9AD"/>
<path id="Vector_6" d="M11.9688 16.2586H11.2109V13.4102H12.8943V14.0278H11.9688V14.5714H12.8222V15.189H11.9688V16.2586Z" fill="#A4A9AD"/>
</g>
<path id="Vector_7" d="M13.3506 2.99962H16.3502L13.3506 0V2.99962Z" fill="#D1D3D3"/>
</g>
</g>
</svg>
