<svg width="20" height="20" viewBox="0 0 20 20" fill="none" xmlns="http://www.w3.org/2000/svg">
<path d="M10.0003 1.66699C7.81699 1.66699 6.04199 3.44199 6.04199 5.62533C6.04199 7.76699 7.71699 9.50033 9.90033 9.57533C9.96699 9.56699 10.0337 9.56699 10.0837 9.57533C10.1003 9.57533 10.1087 9.57533 10.1253 9.57533C10.1337 9.57533 10.1337 9.57533 10.142 9.57533C12.2753 9.50033 13.9503 7.76699 13.9587 5.62533C13.9587 3.44199 12.1837 1.66699 10.0003 1.66699Z" fill="#1D4ED8"/>
<path d="M14.2338 11.7914C11.9088 10.2414 8.11712 10.2414 5.77546 11.7914C4.71712 12.4997 4.13379 13.4581 4.13379 14.4831C4.13379 15.5081 4.71712 16.4581 5.76712 17.1581C6.93379 17.9414 8.46712 18.3331 10.0005 18.3331C11.5338 18.3331 13.0671 17.9414 14.2338 17.1581C15.2838 16.4497 15.8671 15.4997 15.8671 14.4664C15.8588 13.4414 15.2838 12.4914 14.2338 11.7914Z" fill="#1D4ED8"/>
</svg>
