<svg width="40" height="40" viewBox="0 0 40 40" fill="none" xmlns="http://www.w3.org/2000/svg">
<path d="M23.9317 26.7289C30.7361 26.9791 34.1988 27.8125 39.9307 30.1753L23.8485 34.6903C20.4725 31.8541 17.0718 31.3325 9.65209 31.3593L23.9317 26.7289Z" fill="#387AFC"/>
<path d="M23.5906 26.618C28.9904 27.1472 31.2197 27.9775 35.9239 29.9178L24.4905 32.7935C21.7207 30.4625 14.2746 30.7995 9.88477 31.2932L23.5906 26.618Z" fill="white"/>
<path d="M21.4185 22.2431C27.9749 20.4162 31.5283 20.1589 37.712 20.6693L23.7837 29.8497C19.6981 28.1735 16.2995 28.7089 9.24219 30.9863L21.4185 22.2431Z" fill="#387AFC"/>
<path d="M21.0615 22.241C26.366 21.1061 28.7439 21.2203 33.8192 21.6402L23.8145 27.8487C20.4612 26.4696 13.4741 29.0504 9.44531 30.8528L21.0615 22.241Z" fill="white"/>
<path d="M18.3588 18.7828C24.1496 15.2216 27.4922 13.9956 33.5761 12.7828L22.7509 25.4402C18.3582 24.955 15.2418 26.4055 9.09529 30.5376L18.3588 18.7828Z" fill="#387AFC"/>
<path d="M18.0134 18.8794C22.7941 16.3279 25.1107 15.7826 30.1044 14.7882L22.2212 23.5094C18.6149 23.1078 12.6203 27.5121 9.25144 30.3537L18.0134 18.8794Z" fill="white"/>
<path d="M13.1782 16.0186C13.0169 9.25079 12.2247 5.79729 9.92451 0.0676303L5.17026 15.9957C7.97779 19.3895 8.45726 22.7773 8.33181 30.1531L13.1782 16.0186Z" fill="#387AFC"/>
<path d="M13.2841 16.359C12.8236 10.9838 12.0181 8.75651 10.1292 4.05417L7.08522 15.3824C9.39279 18.1669 8.95503 25.5649 8.40022 29.9225L13.2841 16.359Z" fill="white"/>
<path d="M18.5395 18.8593C20.8832 12.5033 21.4186 9.00131 21.3895 2.83217L11.0967 15.9212C12.4585 20.1017 11.6563 23.4286 8.82178 30.2459L18.5395 18.8593Z" fill="#387AFC"/>
<path d="M18.5139 19.215C20.066 14.0458 20.1372 11.68 20.1123 6.61654L13.1058 16.0485C14.2269 19.4799 11.0937 26.2041 8.97174 30.0567L18.5139 19.215Z" fill="white"/>
</svg>
