<svg width="18" height="18" viewBox="0 0 18 18" fill="none" xmlns="http://www.w3.org/2000/svg">
<path d="M4.85135 13.4945L4.67963 13.8539L4.99156 14.1016C6.09668 14.9792 7.48793 15.5 9 15.5C10.5121 15.5 11.9033 14.9792 13.0084 14.1016L13.3175 13.8562L13.1506 13.4986C13.0095 13.1962 12.7256 12.9646 12.4499 12.7925C12.1586 12.6107 11.8026 12.4505 11.4253 12.3177C10.6735 12.0532 9.77141 11.875 9 11.875C8.22848 11.875 7.32823 12.0532 6.57729 12.3178C6.2004 12.4506 5.84492 12.6107 5.55356 12.7923C5.27726 12.9645 4.99443 13.195 4.85135 13.4945ZM3.83215 12.9253L4.21497 13.4283L4.61629 12.94C5.05656 12.4042 5.85764 12.0034 6.74894 11.7387C7.62673 11.4779 8.50319 11.375 9 11.375C9.49681 11.375 10.3733 11.4779 11.2511 11.7387C12.1424 12.0034 12.9434 12.4042 13.3837 12.94L13.77 12.6225L14.1679 12.9253C14.9951 11.8386 15.5 10.4809 15.5 9C15.5 5.41636 12.5836 2.5 9 2.5C5.41636 2.5 2.5 5.41636 2.5 9C2.5 10.4809 3.0049 11.8386 3.83215 12.9253ZM2 9C2 5.13614 5.13614 2 9 2C12.8639 2 16 5.13614 16 9C16 12.8639 12.8639 16 9 16C5.13614 16 2 12.8639 2 9ZM6.875 7.125C6.875 5.94614 7.82114 5 9 5C10.1789 5 11.125 5.94614 11.125 7.125C11.125 8.30386 10.1789 9.25 9 9.25C7.82114 9.25 6.875 8.30386 6.875 7.125ZM7.375 7.125C7.375 8.02364 8.10136 8.75 9 8.75C9.89864 8.75 10.625 8.02364 10.625 7.125C10.625 6.22636 9.89864 5.5 9 5.5C8.10136 5.5 7.375 6.22636 7.375 7.125Z" fill="black" fill-opacity="0.54" stroke="#4338CA"/>
</svg>
