<svg width="16" height="16" viewBox="0 0 16 16" fill="none" xmlns="http://www.w3.org/2000/svg">
<path d="M11.1667 2.37203V1.33203C11.1667 1.0587 10.94 0.832031 10.6667 0.832031C10.3933 0.832031 10.1667 1.0587 10.1667 1.33203V2.33203H5.83332V1.33203C5.83332 1.0587 5.60666 0.832031 5.33332 0.832031C5.05999 0.832031 4.83332 1.0587 4.83332 1.33203V2.37203C3.03332 2.5387 2.15999 3.61203 2.02666 5.20536C2.01332 5.3987 2.17332 5.5587 2.35999 5.5587H13.64C13.8333 5.5587 13.9933 5.39203 13.9733 5.20536C13.84 3.61203 12.9667 2.5387 11.1667 2.37203Z" fill="#0D9488"/>
<path opacity="0.4" d="M13.3333 6.55859C13.7 6.55859 14 6.85859 14 7.22526V11.3319C14 13.3319 13 14.6653 10.6667 14.6653H5.33333C3 14.6653 2 13.3319 2 11.3319V7.22526C2 6.85859 2.3 6.55859 2.66667 6.55859H13.3333Z" fill="#0D9488"/>
<path d="M5.66667 10.0006C5.49333 10.0006 5.32 9.92723 5.19333 9.80723C5.07333 9.68056 5 9.50723 5 9.3339C5 9.16057 5.07333 8.98724 5.19333 8.86057C5.38 8.67391 5.67333 8.61389 5.92 8.72056C6.00667 8.75389 6.08 8.80057 6.14 8.86057C6.26 8.98724 6.33333 9.16057 6.33333 9.3339C6.33333 9.50723 6.26 9.68056 6.14 9.80723C6.01333 9.92723 5.84 10.0006 5.66667 10.0006Z" fill="#0D9488"/>
<path d="M7.99992 10.0006C7.82659 10.0006 7.65325 9.92723 7.52659 9.80723C7.40659 9.68056 7.33325 9.50723 7.33325 9.3339C7.33325 9.16057 7.40659 8.98724 7.52659 8.86057C7.58659 8.80057 7.65992 8.75389 7.74658 8.72056C7.99325 8.61389 8.28658 8.67391 8.47325 8.86057C8.59325 8.98724 8.66659 9.16057 8.66659 9.3339C8.66659 9.50723 8.59325 9.68056 8.47325 9.80723C8.43992 9.83389 8.40659 9.86056 8.37325 9.88722C8.33325 9.91389 8.29325 9.93391 8.25325 9.94724C8.21325 9.96724 8.17325 9.98057 8.13325 9.98724C8.08659 9.99391 8.04659 10.0006 7.99992 10.0006Z" fill="#0D9488"/>
<path d="M10.3334 10.0013C10.1601 10.0013 9.98675 9.92797 9.86008 9.80797C9.74008 9.6813 9.66675 9.50798 9.66675 9.33464C9.66675 9.16131 9.74008 8.98798 9.86008 8.86132C9.92675 8.80132 9.99341 8.75463 10.0801 8.7213C10.2001 8.66797 10.3334 8.65464 10.4667 8.6813C10.5067 8.68797 10.5467 8.7013 10.5867 8.7213C10.6267 8.73463 10.6667 8.75465 10.7067 8.78132C10.7401 8.80799 10.7734 8.83465 10.8067 8.86132C10.9267 8.98798 11.0001 9.16131 11.0001 9.33464C11.0001 9.50798 10.9267 9.6813 10.8067 9.80797C10.7734 9.83464 10.7401 9.8613 10.7067 9.88797C10.6667 9.91463 10.6267 9.93465 10.5867 9.94798C10.5467 9.96798 10.5067 9.98132 10.4667 9.98798C10.4201 9.99465 10.3734 10.0013 10.3334 10.0013Z" fill="#0D9488"/>
<path d="M5.66667 12.3333C5.58 12.3333 5.49333 12.3134 5.41333 12.28C5.32667 12.2467 5.26 12.2 5.19333 12.14C5.07333 12.0133 5 11.84 5 11.6667C5 11.4933 5.07333 11.32 5.19333 11.1933C5.26 11.1333 5.32667 11.0867 5.41333 11.0533C5.53333 11 5.66667 10.9867 5.8 11.0133C5.84 11.02 5.88 11.0333 5.92 11.0533C5.96 11.0667 6 11.0867 6.04 11.1134C6.07333 11.14 6.10667 11.1667 6.14 11.1933C6.26 11.32 6.33333 11.4933 6.33333 11.6667C6.33333 11.84 6.26 12.0133 6.14 12.14C6.10667 12.1667 6.07333 12.2 6.04 12.22C6 12.2467 5.96 12.2667 5.92 12.28C5.88 12.3 5.84 12.3133 5.8 12.32C5.75333 12.3267 5.71333 12.3333 5.66667 12.3333Z" fill="#0D9488"/>
<path d="M7.99992 12.3328C7.82659 12.3328 7.65325 12.2595 7.52659 12.1395C7.40659 12.0128 7.33325 11.8395 7.33325 11.6661C7.33325 11.4928 7.40659 11.3195 7.52659 11.1928C7.77325 10.9461 8.22658 10.9461 8.47325 11.1928C8.59325 11.3195 8.66659 11.4928 8.66659 11.6661C8.66659 11.8395 8.59325 12.0128 8.47325 12.1395C8.34658 12.2595 8.17325 12.3328 7.99992 12.3328Z" fill="#0D9488"/>
<path d="M10.3334 12.3328C10.1601 12.3328 9.98675 12.2595 9.86008 12.1395C9.74008 12.0128 9.66675 11.8395 9.66675 11.6661C9.66675 11.4928 9.74008 11.3195 9.86008 11.1928C10.1067 10.9461 10.5601 10.9461 10.8067 11.1928C10.9267 11.3195 11.0001 11.4928 11.0001 11.6661C11.0001 11.8395 10.9267 12.0128 10.8067 12.1395C10.6801 12.2595 10.5067 12.3328 10.3334 12.3328Z" fill="#0D9488"/>
</svg>
