<svg width="1408" height="915" viewBox="0 0 1408 915" fill="none" xmlns="http://www.w3.org/2000/svg">
<g opacity="0.15">
<path d="M806.959 1654.14C496.244 1955.72 164.961 2178.02 -119.456 2293.66C-261.666 2351.48 -392.135 2382.62 -502.444 2383.68C-612.751 2384.75 -702.854 2355.74 -764.412 2293.31C-825.971 2230.88 -853.227 2140.87 -849.734 2031.48C-846.242 1922.09 -812 1793.36 -750.618 1653.57C-627.853 1373.99 -396.571 1050.27 -85.8561 748.688C224.859 447.106 556.142 224.799 840.559 109.163C982.769 51.3442 1113.24 20.2038 1223.55 19.1397C1333.85 18.0757 1423.96 47.0853 1485.51 109.515C1547.07 171.945 1574.33 261.954 1570.84 371.344C1567.34 480.736 1533.1 609.465 1471.72 749.255C1348.96 1028.83 1117.67 1352.55 806.959 1654.14Z" stroke="url(#paint0_linear_9646_7156)"/>
<path d="M798.735 1661.98C482.889 1958.27 147.882 2174.9 -138.408 2285.64C-281.555 2341.02 -412.497 2369.91 -522.762 2369.06C-633.024 2368.22 -722.564 2337.64 -782.988 2274.13C-843.413 2210.61 -869.068 2120.11 -863.652 2010.75C-858.236 1901.39 -821.747 1773.22 -757.939 1634.45C-630.323 1356.93 -393.474 1037.12 -77.6277 740.839C238.218 444.555 573.225 227.923 859.515 117.179C1002.66 61.8069 1133.6 32.9166 1243.87 33.7618C1354.13 34.6071 1443.67 65.1843 1504.1 128.696C1564.52 192.208 1590.18 282.713 1584.76 392.073C1579.34 501.434 1542.85 629.604 1479.05 768.369C1351.43 1045.9 1114.58 1365.7 798.735 1661.98Z" stroke="url(#paint1_linear_9646_7156)"/>
<path d="M790.376 1669.7C469.495 1960.6 130.866 2171.49 -157.209 2277.31C-301.249 2330.22 -432.625 2356.85 -542.811 2354.09C-652.996 2351.34 -741.946 2319.2 -801.217 2254.63C-860.489 2190.05 -884.536 2099.08 -877.198 1989.79C-869.86 1880.49 -831.135 1752.92 -764.921 1615.22C-632.492 1339.83 -390.148 1024.04 -69.2671 733.14C251.614 442.244 590.243 231.354 878.319 125.536C1022.36 72.627 1153.73 45.9957 1263.92 48.7499C1374.1 51.5041 1463.06 83.6396 1522.33 148.215C1581.6 212.79 1605.65 303.763 1598.31 413.058C1590.97 522.355 1552.24 649.928 1486.03 787.625C1353.6 1063.02 1111.26 1378.81 790.376 1669.7Z" stroke="url(#paint2_linear_9646_7156)"/>
<path d="M781.885 1677.26C456.066 1962.68 113.918 2167.77 -175.855 2268.62C-320.743 2319.05 -452.513 2343.42 -562.588 2338.76C-672.661 2334.09 -760.994 2300.41 -819.095 2234.79C-877.196 2169.17 -899.628 2077.76 -890.369 1968.56C-881.111 1859.36 -840.163 1732.43 -771.562 1595.84C-634.361 1322.66 -386.597 1010.98 -60.778 725.565C265.041 440.146 607.188 235.061 896.962 134.202C1041.85 83.7716 1173.62 59.4074 1283.69 64.0698C1393.77 68.7322 1482.1 102.416 1540.2 168.035C1598.3 233.653 1620.73 325.067 1611.48 434.264C1602.22 543.463 1561.27 670.4 1492.67 806.988C1355.47 1080.16 1107.7 1391.84 781.885 1677.26Z" stroke="url(#paint3_linear_9646_7156)"/>
<path d="M773.264 1684.68C442.607 1964.53 97.045 2163.75 -194.338 2259.62C-340.031 2307.56 -472.154 2329.65 -582.084 2323.08C-692.012 2316.51 -779.702 2281.29 -836.614 2214.64C-893.526 2148 -914.336 2056.18 -903.16 1947.11C-891.985 1838.04 -848.826 1711.78 -777.859 1576.34C-635.927 1305.47 -382.818 997.994 -52.1611 718.139C278.496 438.284 624.058 239.067 915.441 143.197C1061.13 95.2616 1193.26 73.1719 1303.19 79.7411C1413.11 86.3102 1500.8 121.532 1557.72 188.174C1614.63 254.816 1635.44 346.643 1624.26 455.709C1613.09 564.777 1569.93 691.04 1498.96 826.476C1357.03 1097.35 1103.92 1404.82 773.264 1684.68Z" stroke="url(#paint4_linear_9646_7156)"/>
<path d="M764.518 1691.96C429.123 1966.17 80.2521 2159.46 -212.652 2250.31C-359.105 2295.73 -491.541 2315.54 -601.293 2307.07C-711.042 2298.59 -798.061 2261.84 -853.768 2194.2C-909.474 2126.55 -928.655 2034.34 -915.566 1925.44C-902.477 1816.54 -857.12 1690.99 -783.809 1556.74C-637.19 1288.26 -378.812 985.079 -43.4183 710.873C291.976 436.666 640.847 243.378 933.751 152.526C1080.2 107.1 1212.64 87.2918 1322.39 95.7658C1432.14 104.24 1519.16 140.989 1574.87 208.634C1630.57 276.279 1649.75 368.49 1636.67 477.393C1623.58 586.296 1578.22 711.846 1504.91 846.09C1358.29 1114.58 1099.91 1417.75 764.518 1691.96Z" stroke="url(#paint5_linear_9646_7156)"/>
<path d="M755.652 1699.09C415.623 1967.56 63.5484 2154.87 -230.787 2240.67C-377.956 2283.57 -510.666 2301.1 -620.204 2290.72C-729.742 2280.34 -816.064 2242.08 -870.548 2173.45C-925.031 2104.82 -942.578 2012.25 -927.579 1903.55C-912.58 1794.84 -865.039 1670.05 -789.407 1537.03C-638.145 1271.01 -374.578 972.227 -34.5486 703.754C305.481 435.28 657.555 247.978 951.891 162.173C1099.06 119.27 1231.77 101.749 1341.31 112.125C1450.85 122.501 1537.17 160.767 1591.65 229.394C1646.13 298.022 1663.68 390.59 1648.68 499.295C1633.68 608.001 1586.14 732.799 1510.51 865.811C1359.25 1131.83 1095.68 1430.62 755.652 1699.09Z" stroke="url(#paint6_linear_9646_7156)"/>
<path d="M746.662 1706.05C402.101 1968.71 46.9313 2149.96 -248.746 2230.7C-396.587 2271.06 -529.528 2286.29 -638.822 2274.02C-748.114 2261.74 -833.713 2221.97 -886.957 2152.38C-940.201 2082.79 -956.108 1989.9 -939.204 1881.42C-922.3 1772.94 -872.589 1648.94 -794.659 1517.2C-638.8 1253.72 -370.124 959.422 -25.5628 696.762C318.998 434.103 674.168 252.846 969.846 172.113C1117.69 131.746 1250.63 116.518 1359.92 128.793C1469.21 141.068 1554.81 180.838 1608.06 250.427C1661.3 320.016 1677.21 412.913 1660.3 521.387C1643.4 629.863 1593.69 753.872 1515.76 885.61C1359.9 1149.08 1091.22 1443.39 746.662 1706.05Z" stroke="url(#paint7_linear_9646_7156)"/>
<path d="M737.558 1712.88C388.57 1969.65 30.4129 2144.8 -266.517 2220.44C-414.983 2258.26 -548.116 2271.19 -657.131 2257.02C-766.144 2242.85 -850.995 2201.58 -902.983 2131.06C-954.971 2060.53 -969.234 1967.33 -950.43 1859.12C-931.626 1750.91 -879.759 1627.72 -799.555 1497.3C-639.147 1236.45 -365.444 946.723 -16.4559 689.957C332.532 433.192 690.69 258.035 987.619 182.399C1136.09 144.58 1269.22 131.649 1378.23 145.82C1487.25 159.99 1572.1 201.253 1624.09 271.782C1676.07 342.311 1690.34 435.509 1671.53 543.719C1652.73 651.932 1600.86 775.113 1520.66 905.537C1360.25 1166.38 1086.55 1456.11 737.558 1712.88Z" stroke="url(#paint8_linear_9646_7156)"/>
<path d="M728.341 1719.54C375.033 1970.34 13.9971 2139.34 -284.094 2209.86C-433.141 2245.11 -566.426 2255.74 -675.128 2239.68C-783.83 2223.62 -867.905 2180.88 -918.622 2109.43C-969.339 2037.98 -981.952 1944.51 -961.254 1836.6C-940.556 1728.68 -886.551 1606.37 -804.096 1477.3C-639.188 1219.16 -360.54 934.086 -7.23189 683.293C346.076 432.5 707.112 263.496 1005.2 192.98C1154.25 157.721 1287.54 147.091 1396.24 163.153C1504.94 179.214 1589.01 221.957 1639.73 293.405C1690.45 364.853 1703.06 458.322 1682.36 566.237C1661.67 674.153 1607.66 796.469 1525.21 925.54C1360.3 1183.68 1081.65 1468.75 728.341 1719.54Z" stroke="url(#paint9_linear_9646_7156)"/>
<path d="M719.003 1726.05C361.481 1970.79 -2.32295 2133.59 -301.485 2198.97C-451.067 2231.65 -584.462 2239.98 -692.82 2222.03C-801.177 2204.09 -884.451 2159.88 -933.881 2087.53C-983.311 2015.19 -994.272 1921.47 -971.686 1813.89C-949.099 1706.3 -892.972 1584.89 -808.292 1457.21C-638.934 1201.85 -355.427 921.531 2.0938 676.787C359.615 432.043 723.419 269.244 1022.58 203.869C1172.16 171.181 1305.56 162.856 1413.92 180.803C1522.27 198.751 1605.55 242.96 1654.98 315.306C1704.41 387.651 1715.37 481.364 1692.78 588.948C1670.2 696.535 1614.07 817.949 1529.39 945.628C1360.03 1200.98 1076.52 1481.3 719.003 1726.05Z" stroke="url(#paint10_linear_9646_7156)"/>
<path d="M709.565 1732.39C347.94 1971.01 -18.5224 2127.56 -318.664 2187.77C-468.736 2217.88 -602.201 2223.89 -710.181 2204.07C-818.159 2184.24 -900.608 2138.58 -948.736 2065.35C-996.864 1992.13 -1006.17 1898.21 -981.701 1790.98C-957.234 1683.76 -899.001 1563.28 -812.122 1437.04C-638.365 1184.55 -350.086 909.056 11.5389 670.435C373.164 431.815 739.626 275.27 1039.77 215.056C1189.84 184.949 1323.3 178.93 1431.28 198.758C1539.26 218.586 1621.71 264.249 1669.84 337.47C1717.97 410.69 1727.27 504.618 1702.8 611.841C1678.34 719.065 1620.1 839.54 1533.23 965.787C1359.47 1218.28 1071.19 1493.77 709.565 1732.39Z" stroke="url(#paint11_linear_9646_7156)"/>
<path d="M700.016 1738.58C334.397 1971.01 -34.6112 2121.25 -335.64 2176.29C-486.156 2203.8 -619.652 2207.51 -727.22 2185.81C-834.787 2164.11 -916.385 2117 -963.196 2042.93C-1010.01 1968.86 -1017.65 1874.74 -991.313 1767.92C-964.971 1661.09 -904.651 1541.59 -815.599 1416.81C-637.497 1167.26 -344.533 896.686 21.086 664.261C386.705 431.837 755.713 281.593 1056.74 226.559C1207.26 199.042 1340.75 195.332 1448.32 217.035C1555.89 238.738 1637.49 285.84 1684.3 359.913C1731.11 433.987 1738.76 528.101 1712.41 634.929C1686.07 741.758 1625.75 861.258 1536.7 986.034C1358.6 1235.59 1065.63 1506.16 700.016 1738.58Z" stroke="url(#paint12_linear_9646_7156)"/>
<path d="M690.366 1744.59C320.865 1970.75 -50.5764 2114.64 -352.402 2164.48C-503.316 2189.4 -636.8 2190.8 -743.925 2167.23C-851.049 2143.66 -931.77 2095.13 -977.251 2020.23C-1022.73 1945.32 -1028.72 1851.05 -1000.51 1744.65C-972.302 1638.25 -909.913 1519.76 -818.715 1396.49C-636.321 1149.96 -338.762 884.385 30.7392 658.227C400.24 432.07 771.682 288.174 1073.51 238.336C1224.42 213.417 1357.91 212.018 1465.03 235.588C1572.15 259.158 1652.88 307.686 1698.36 382.59C1743.84 457.493 1749.82 551.765 1721.61 658.165C1693.41 764.568 1631.02 883.055 1539.82 1006.32C1357.43 1252.86 1059.87 1518.43 690.366 1744.59Z" stroke="url(#paint13_linear_9646_7156)"/>
<path d="M680.606 1750.44C307.335 1970.27 -66.4271 2107.77 -368.957 2152.4C-520.224 2174.71 -653.656 2173.8 -760.305 2148.37C-866.952 2122.94 -946.773 2073 -990.908 1997.29C-1035.04 1921.58 -1039.37 1827.18 -1009.3 1721.24C-979.238 1615.29 -914.798 1497.85 -821.482 1376.13C-634.853 1132.69 -332.789 872.193 40.4823 652.371C413.753 432.549 787.515 295.044 1090.05 250.418C1241.31 228.105 1374.74 229.016 1481.39 254.447C1588.04 279.878 1667.86 329.816 1712 405.527C1756.13 481.238 1760.45 575.639 1730.39 681.58C1700.33 787.522 1635.89 904.961 1542.57 1026.68C1355.94 1270.13 1053.88 1530.62 680.606 1750.44Z" stroke="url(#paint14_linear_9646_7156)"/>
<path d="M670.769 1756.14C293.842 1969.56 -82.1267 2100.63 -385.269 2140.03C-536.842 2159.73 -670.181 2156.51 -776.321 2129.23C-882.46 2101.94 -961.356 2050.61 -1004.13 1974.12C-1046.91 1897.62 -1049.57 1803.12 -1017.66 1697.67C-985.745 1592.22 -919.274 1475.86 -823.869 1355.72C-633.061 1115.45 -326.583 860.11 50.3436 646.691C427.271 433.272 803.239 302.201 1106.38 262.8C1257.95 243.099 1391.29 246.32 1497.43 273.605C1603.57 300.889 1682.47 352.222 1725.25 428.717C1768.02 505.213 1770.68 599.713 1738.77 705.162C1706.86 810.613 1640.39 926.968 1544.98 1047.11C1354.17 1287.39 1047.7 1542.72 670.769 1756.14Z" stroke="url(#paint15_linear_9646_7156)"/>
<path d="M660.819 1761.66C280.351 1968.61 -97.7098 2093.21 -401.372 2127.37C-553.205 2144.45 -686.411 2138.92 -792.01 2109.8C-897.607 2080.67 -975.554 2027.95 -1016.96 1950.7C-1058.37 1873.44 -1059.36 1778.87 -1025.61 1673.94C-991.859 1569.02 -923.379 1453.78 -825.913 1335.26C-630.984 1098.22 -320.187 848.123 60.2814 641.171C440.75 434.22 818.811 309.622 1122.47 275.458C1274.31 258.376 1407.51 263.906 1513.11 293.035C1618.71 322.164 1696.66 374.877 1738.06 452.134C1779.47 529.39 1780.46 623.962 1746.71 728.887C1712.96 833.813 1644.48 949.049 1547.01 1067.57C1352.08 1304.61 1041.29 1554.71 660.819 1761.66Z" stroke="url(#paint16_linear_9646_7156)"/>
<path d="M650.785 1767C266.891 1967.42 -113.146 2085.51 -417.236 2114.42C-569.283 2128.88 -702.315 2121.04 -807.341 2090.08C-912.364 2059.11 -989.339 2005.04 -1029.36 1927.04C-1069.38 1849.05 -1068.71 1754.44 -1033.13 1650.07C-997.555 1545.7 -927.085 1431.62 -827.589 1314.75C-628.598 1081.02 -313.576 836.236 70.3176 635.815C454.211 435.394 834.249 317.308 1138.34 288.391C1290.39 273.933 1423.42 281.77 1528.44 312.735C1633.47 343.7 1710.44 397.777 1750.46 475.771C1790.49 553.765 1789.81 648.379 1754.24 752.748C1718.66 857.118 1648.19 971.199 1548.69 1088.06C1349.7 1321.79 1034.68 1566.58 650.785 1767Z" stroke="url(#paint17_linear_9646_7156)"/>
<path d="M640.665 1772.19C253.463 1966.02 -128.436 2077.56 -432.86 2101.22C-585.074 2113.05 -717.893 2102.91 -822.313 2070.12C-926.731 2037.33 -1002.71 1981.9 -1041.34 1903.19C-1079.96 1824.49 -1077.62 1729.86 -1040.23 1626.08C-1002.83 1522.29 -930.396 1409.4 -828.899 1294.23C-625.908 1063.88 -306.757 824.484 80.4451 630.655C467.647 436.826 849.546 325.287 1153.97 301.627C1306.18 289.797 1439 299.939 1543.42 332.731C1647.84 365.522 1723.82 420.945 1762.45 499.653C1801.07 578.361 1798.73 672.989 1761.34 776.77C1723.94 880.552 1651.51 993.444 1550.01 1108.62C1347.02 1338.96 1027.87 1578.36 640.665 1772.19Z" stroke="url(#paint18_linear_9646_7156)"/>
<path d="M630.455 1777.18C240.063 1964.36 -143.581 2069.32 -448.248 2087.72C-600.583 2096.91 -733.147 2084.47 -836.93 2049.86C-940.711 2015.26 -1015.67 1958.5 -1052.89 1879.1C-1090.11 1799.71 -1086.1 1705.09 -1046.9 1601.93C-1007.7 1498.77 -933.319 1387.1 -829.853 1273.65C-622.923 1046.76 -299.74 812.82 90.6526 625.643C481.045 438.465 864.689 333.506 1169.36 315.11C1321.69 305.912 1454.25 318.356 1558.04 352.964C1661.82 387.571 1736.78 444.325 1774 523.723C1811.22 603.121 1807.21 697.734 1768.01 800.895C1728.81 904.058 1654.43 1015.73 1550.96 1129.17C1344.03 1356.07 1020.85 1590.01 630.455 1777.18Z" stroke="url(#paint19_linear_9646_7156)"/>
<path d="M620.166 1782.02C226.702 1962.49 -158.57 2060.83 -463.386 2073.96C-615.796 2080.53 -748.065 2065.78 -851.179 2029.37C-954.291 1992.96 -1028.21 1934.89 -1064.01 1854.83C-1099.81 1774.76 -1094.14 1680.19 -1053.15 1577.68C-1012.15 1475.17 -935.845 1364.76 -830.441 1253.07C-619.635 1029.7 -292.519 801.294 100.945 620.824C494.41 440.354 879.681 342.009 1184.5 328.882C1336.91 322.318 1469.18 337.061 1572.29 373.474C1675.4 409.887 1749.32 467.954 1785.12 548.018C1820.92 628.081 1815.25 722.65 1774.26 825.161C1733.26 927.673 1656.96 1038.08 1551.55 1149.77C1340.75 1373.14 1013.63 1601.55 620.166 1782.02Z" stroke="url(#paint20_linear_9646_7156)"/>
<path d="M609.799 1786.67C213.383 1960.38 -173.399 2052.08 -478.272 2059.93C-630.709 2063.86 -762.643 2046.82 -865.057 2008.62C-967.469 1970.41 -1040.32 1911.05 -1074.69 1830.34C-1109.06 1749.64 -1101.73 1655.14 -1058.96 1553.31C-1016.18 1451.48 -937.974 1342.36 -830.664 1232.47C-616.046 1012.69 -285.097 789.882 111.319 616.175C507.735 442.468 894.517 350.766 1199.39 342.912C1351.83 338.985 1483.76 356.021 1586.18 394.23C1688.59 432.438 1761.44 491.799 1795.81 572.504C1830.18 653.209 1822.85 747.706 1780.08 849.534C1737.3 951.364 1659.09 1060.48 1551.78 1170.38C1337.16 1390.16 1006.21 1612.96 609.799 1786.67Z" stroke="url(#paint21_linear_9646_7156)"/>
<path d="M599.342 1791.13C200.095 1958.02 -188.08 2043.05 -492.916 2045.63C-645.335 2046.92 -776.893 2027.59 -878.576 1987.6C-980.257 1947.61 -1052.02 1886.97 -1084.95 1805.65C-1117.88 1724.33 -1108.89 1629.93 -1064.35 1528.82C-1019.81 1427.7 -939.722 1319.91 -830.539 1211.84C-612.175 995.716 -277.493 778.581 121.754 611.69C521.001 444.798 909.176 359.768 1214.01 357.189C1366.43 355.9 1497.99 375.225 1599.67 415.216C1701.35 455.207 1773.12 515.846 1806.05 597.168C1838.98 678.489 1829.99 772.884 1785.45 873.999C1740.9 975.116 1660.82 1082.91 1551.64 1190.98C1333.27 1407.1 998.589 1624.24 599.342 1791.13Z" stroke="url(#paint22_linear_9646_7156)"/>
<path d="M588.826 1795.43C186.87 1955.46 -202.58 2033.79 -507.287 2031.09C-659.642 2029.74 -790.784 2008.14 -891.704 1966.37C-992.623 1924.61 -1063.28 1862.71 -1094.76 1780.8C-1126.24 1698.89 -1115.59 1604.62 -1069.3 1504.25C-1023 1403.88 -941.061 1297.44 -830.038 1191.24C-607.994 978.832 -269.68 767.433 132.276 607.408C534.232 447.383 923.682 369.049 1228.39 371.747C1380.74 373.096 1511.89 394.704 1612.81 436.466C1713.72 478.228 1784.38 540.126 1815.86 622.039C1847.34 703.953 1836.69 798.218 1790.4 898.589C1744.1 998.962 1662.16 1105.4 1551.14 1211.6C1329.1 1424.01 990.782 1635.41 588.826 1795.43Z" stroke="url(#paint23_linear_9646_7156)"/>
<path d="M578.238 1799.53C173.695 1952.64 -216.91 2024.25 -521.395 2016.28C-673.638 2012.29 -804.325 1988.41 -904.452 1944.89C-1004.58 1901.37 -1074.11 1838.23 -1104.12 1755.75C-1134.14 1673.27 -1121.84 1579.17 -1073.81 1479.57C-1025.77 1379.97 -942.004 1274.92 -829.175 1170.61C-603.519 961.996 -261.678 756.396 142.865 603.287C547.408 450.177 938.014 378.564 1242.5 386.538C1394.74 390.524 1525.43 414.408 1625.56 457.929C1725.68 501.449 1795.21 564.586 1825.23 647.067C1855.25 729.547 1842.95 823.653 1794.91 923.25C1746.87 1022.85 1663.11 1127.89 1550.28 1232.21C1324.62 1440.82 982.782 1646.42 578.238 1799.53Z" stroke="url(#paint24_linear_9646_7156)"/>
<path d="M567.581 1803.47C160.574 1949.61 -231.068 2014.48 -535.238 2001.24C-687.324 1994.61 -817.516 1968.46 -916.819 1923.2C-1016.12 1877.93 -1084.5 1813.57 -1113.05 1730.55C-1141.6 1647.53 -1127.65 1553.61 -1077.88 1454.82C-1028.12 1356.02 -942.555 1252.4 -827.954 1150.01C-598.755 945.246 -253.49 745.509 153.517 599.362C560.524 453.214 952.166 388.343 1256.34 401.59C1408.42 408.213 1538.61 434.365 1637.92 479.631C1737.22 524.896 1805.6 589.254 1834.14 672.277C1862.69 755.299 1848.75 849.218 1798.98 948.009C1749.22 1046.8 1663.65 1150.43 1549.05 1252.81C1319.85 1457.58 974.588 1657.32 567.581 1803.47Z" stroke="url(#paint25_linear_9646_7156)"/>
<path d="M556.862 1807.21C147.516 1946.35 -245.044 2004.46 -548.807 1985.94C-700.689 1976.68 -830.345 1948.27 -928.795 1901.27C-1027.24 1854.28 -1094.45 1788.72 -1121.52 1705.18C-1148.59 1621.64 -1133 1527.94 -1081.52 1429.98C-1030.05 1332.02 -942.707 1229.85 -826.369 1129.42C-593.696 928.566 -245.113 734.753 164.234 595.612C573.58 456.471 966.14 398.363 1269.9 416.878C1421.78 426.136 1551.44 454.549 1649.89 501.546C1748.34 548.542 1815.54 614.101 1842.61 697.64C1869.69 781.179 1854.09 874.882 1802.62 972.838C1751.14 1070.8 1663.8 1172.97 1547.46 1273.4C1314.79 1474.25 966.208 1668.07 556.862 1807.21Z" stroke="url(#paint26_linear_9646_7156)"/>
<path d="M546.085 1810.77C134.523 1942.87 -258.835 1994.19 -562.097 1970.41C-713.729 1958.52 -842.811 1927.86 -940.377 1879.15C-1037.94 1830.43 -1103.95 1763.69 -1129.54 1679.66C-1155.12 1595.63 -1137.89 1502.17 -1084.72 1405.08C-1031.55 1307.99 -942.46 1207.3 -824.421 1108.86C-588.346 911.979 -236.55 724.148 175.012 592.056C586.573 459.964 979.931 408.636 1283.19 432.415C1434.83 444.305 1563.91 474.969 1661.47 523.683C1759.04 572.396 1825.05 639.136 1850.63 723.167C1876.22 807.197 1858.99 900.654 1805.82 997.746C1752.64 1094.84 1663.56 1195.53 1545.52 1293.97C1309.44 1490.85 957.646 1678.68 546.085 1810.77Z" stroke="url(#paint27_linear_9646_7156)"/>
<path d="M535.258 1814.15C121.607 1939.15 -272.43 1983.69 -575.099 1954.65C-726.436 1940.13 -854.904 1907.23 -951.556 1856.81C-1048.21 1806.39 -1113.01 1738.49 -1137.1 1654C-1161.19 1569.5 -1142.32 1476.32 -1087.47 1380.12C-1032.62 1283.92 -941.81 1184.75 -822.106 1088.32C-582.699 895.477 -227.798 713.685 185.853 588.682C599.504 463.68 993.54 419.147 1296.21 448.182C1447.55 462.7 1576.01 495.608 1672.67 546.024C1769.32 596.439 1834.12 664.339 1858.21 748.835C1882.3 833.331 1863.43 926.516 1808.58 1022.71C1753.73 1118.91 1662.92 1218.08 1543.22 1314.51C1303.81 1507.36 948.909 1689.15 535.258 1814.15Z" stroke="url(#paint28_linear_9646_7156)"/>
<path d="M524.368 1817.33C108.753 1935.2 -285.842 1972.93 -587.826 1938.64C-738.82 1921.5 -866.635 1886.36 -962.345 1834.26C-1058.05 1782.16 -1121.62 1713.12 -1144.21 1628.18C-1166.8 1543.25 -1146.3 1450.36 -1089.79 1355.09C-1033.28 1259.81 -940.773 1162.19 -819.44 1067.81C-576.775 879.054 -218.877 703.357 196.737 585.481C612.352 467.606 1006.95 429.882 1308.93 464.165C1459.93 481.307 1587.74 516.447 1683.45 568.55C1779.16 620.651 1842.72 689.692 1865.31 774.628C1887.9 859.563 1867.4 952.446 1810.89 1047.72C1754.38 1143 1661.88 1240.62 1540.55 1335C1297.88 1523.75 939.983 1699.45 524.368 1817.33Z" stroke="url(#paint29_linear_9646_7156)"/>
<path d="M513.43 1820.34C95.9782 1931.05 -299.054 1961.95 -600.262 1922.43C-750.868 1902.67 -877.991 1865.31 -972.729 1811.54C-1067.46 1757.76 -1129.78 1687.6 -1150.86 1602.25C-1171.94 1516.9 -1149.82 1424.35 -1091.66 1330.03C-1033.51 1235.71 -939.337 1139.66 -816.412 1047.35C-570.564 862.749 -209.778 693.2 207.674 582.488C625.126 471.775 1020.16 440.873 1321.37 480.392C1471.97 500.152 1599.1 537.515 1693.83 591.288C1788.57 645.061 1850.88 715.22 1871.96 800.57C1893.05 885.92 1870.92 978.473 1812.77 1072.79C1754.61 1167.12 1660.44 1263.17 1537.52 1355.47C1291.67 1540.08 930.882 1709.62 513.43 1820.34Z" stroke="url(#paint30_linear_9646_7156)"/>
<path d="M502.439 1823.15C83.2772 1926.66 -312.073 1950.74 -612.413 1905.99C-762.584 1883.62 -888.977 1844.05 -982.713 1788.62C-1076.45 1733.19 -1137.49 1661.93 -1157.06 1576.2C-1176.63 1490.46 -1152.89 1398.26 -1093.1 1304.92C-1033.32 1211.58 -937.512 1117.14 -813.033 1026.94C-564.075 846.538 -200.511 683.19 218.651 579.674C637.812 476.158 1033.16 452.086 1333.5 496.83C1483.67 519.203 1610.07 558.776 1703.8 614.204C1797.54 669.631 1858.58 740.888 1878.15 826.625C1897.72 912.363 1873.98 1004.56 1814.19 1097.9C1754.41 1191.24 1658.6 1285.69 1534.12 1375.89C1285.16 1556.28 921.601 1719.63 502.439 1823.15Z" stroke="url(#paint31_linear_9646_7156)"/>
<path d="M491.418 1825.78C70.6743 1922.06 -324.873 1939.3 -624.253 1889.34C-773.944 1864.37 -899.568 1822.59 -992.275 1765.53C-1084.98 1708.46 -1144.73 1636.13 -1162.78 1550.03C-1180.83 1463.93 -1155.48 1372.12 -1094.09 1279.79C-1032.69 1187.46 -935.279 1094.65 -809.282 1006.58C-557.292 830.442 -191.06 673.344 229.684 577.056C650.428 480.769 1045.98 463.534 1345.36 513.49C1495.05 538.468 1620.67 580.239 1713.38 637.305C1806.08 694.369 1865.84 766.702 1883.88 852.802C1901.93 938.902 1876.58 1030.71 1815.19 1123.04C1753.79 1215.37 1656.38 1308.19 1530.38 1396.25C1278.39 1572.39 912.162 1729.49 491.418 1825.78Z" stroke="url(#paint32_linear_9646_7156)"/>
<path d="M480.356 1828.21C58.1579 1917.24 -337.466 1927.63 -635.795 1872.48C-784.961 1844.9 -909.777 1800.94 -1001.43 1742.26C-1093.07 1683.57 -1151.52 1610.19 -1168.04 1523.75C-1184.56 1437.32 -1157.61 1345.92 -1094.63 1254.63C-1031.64 1163.34 -932.652 1072.18 -805.177 986.272C-550.23 814.451 -181.443 663.65 240.755 574.62C662.953 485.591 1058.58 475.199 1356.91 530.35C1506.07 557.926 1630.89 601.884 1722.54 660.569C1814.18 719.254 1872.63 792.641 1889.15 879.076C1905.67 965.511 1878.72 1056.91 1815.74 1148.2C1752.75 1239.49 1653.76 1330.64 1526.29 1416.56C1271.34 1588.38 902.553 1739.18 480.356 1828.21Z" stroke="url(#paint33_linear_9646_7156)"/>
<path d="M469.257 1830.46C45.7333 1912.21 -349.847 1915.75 -647.034 1855.42C-795.629 1825.26 -919.599 1779.13 -1010.16 1718.84C-1100.72 1658.55 -1157.85 1584.13 -1172.84 1497.39C-1187.82 1410.65 -1159.28 1319.69 -1094.73 1229.47C-1030.17 1139.24 -929.632 1049.78 -800.717 966.048C-542.891 798.593 -171.661 654.137 251.863 572.392C675.386 490.647 1070.97 487.101 1368.15 547.431C1516.75 577.597 1640.72 623.727 1731.28 684.015C1821.84 744.302 1878.97 818.72 1893.95 905.465C1908.94 992.209 1880.4 1083.16 1815.85 1173.39C1751.29 1263.62 1650.75 1353.08 1521.84 1436.81C1264.01 1604.26 892.78 1748.72 469.257 1830.46Z" stroke="url(#paint34_linear_9646_7156)"/>
<path d="M458.109 1832.5C33.3892 1906.93 -362.027 1903.63 -657.981 1838.14C-805.96 1805.4 -929.047 1757.11 -1018.5 1695.23C-1107.95 1633.36 -1163.72 1557.94 -1177.18 1470.91C-1190.63 1383.88 -1160.5 1293.4 -1094.4 1204.27C-1028.29 1115.13 -926.233 1027.38 -795.919 945.866C-535.293 782.83 -161.732 644.761 262.988 570.326C687.708 495.891 1083.12 499.191 1379.08 564.683C1527.06 597.429 1650.14 645.717 1739.59 707.589C1829.04 769.46 1884.82 844.887 1898.28 931.915C1911.73 1018.94 1881.6 1109.43 1815.49 1198.56C1749.39 1287.69 1647.33 1375.44 1517.02 1456.96C1256.39 1619.99 882.829 1758.06 458.109 1832.5Z" stroke="url(#paint35_linear_9646_7156)"/>
<path d="M446.95 1834.37C21.1634 1901.47 -373.968 1891.32 -668.6 1820.69C-815.917 1785.37 -938.084 1734.94 -1026.39 1671.51C-1114.7 1608.07 -1169.12 1531.66 -1181.03 1444.37C-1192.95 1357.09 -1161.24 1267.1 -1093.61 1179.09C-1025.97 1091.08 -922.425 1005.07 -790.75 925.788C-527.403 767.22 -151.625 635.581 274.162 568.478C699.948 501.375 1095.08 511.522 1389.71 582.154C1537.03 617.471 1659.2 667.903 1747.51 731.34C1835.81 794.776 1890.23 871.189 1902.15 958.473C1914.06 1045.76 1882.35 1135.74 1814.72 1223.76C1747.08 1311.77 1643.54 1397.77 1511.86 1477.06C1248.51 1635.63 872.737 1767.26 446.95 1834.37Z" stroke="url(#paint36_linear_9646_7156)"/>
<path d="M435.753 1836.02C9.02843 1895.77 -385.698 1878.78 -678.917 1803.03C-825.528 1765.15 -946.737 1712.59 -1033.88 1647.61C-1121.02 1582.63 -1174.06 1505.25 -1184.43 1417.74C-1194.8 1330.23 -1161.53 1240.76 -1092.38 1153.9C-1023.24 1067.03 -918.238 982.798 -785.243 905.772C-519.255 751.72 -141.375 626.55 285.349 566.8C712.073 507.051 1106.8 524.04 1400.02 599.792C1546.63 637.668 1667.84 690.229 1754.98 755.211C1842.12 820.193 1895.16 897.568 1905.53 985.082C1915.91 1072.6 1882.63 1162.06 1813.49 1248.92C1744.34 1335.79 1639.34 1420.02 1506.34 1497.05C1240.36 1651.1 862.477 1776.27 435.753 1836.02Z" stroke="url(#paint37_linear_9646_7156)"/>
<path d="M424.537 1837.49C-2.9947 1889.87 -397.195 1866.04 -688.913 1785.2C-834.773 1744.77 -954.988 1690.1 -1040.94 1623.59C-1126.88 1557.08 -1178.53 1478.77 -1187.36 1391.05C-1196.18 1303.33 -1161.35 1214.42 -1090.72 1128.73C-1020.08 1043.04 -913.657 960.601 -779.382 885.856C-510.834 736.367 -130.967 617.705 296.564 565.326C724.096 512.948 1118.3 536.775 1410.01 617.623C1555.87 658.047 1676.09 712.72 1762.04 779.229C1847.98 845.736 1899.63 924.051 1908.46 1011.77C1917.28 1099.49 1882.45 1188.39 1811.82 1274.09C1741.18 1359.78 1634.76 1442.22 1500.48 1516.96C1231.94 1666.45 852.068 1785.11 424.537 1837.49Z" stroke="url(#paint38_linear_9646_7156)"/>
<path d="M413.303 1838.78C-14.9054 1883.77 -408.461 1853.11 -698.588 1767.19C-843.653 1724.23 -962.836 1667.46 -1047.56 1599.45C-1132.29 1531.44 -1182.53 1452.21 -1189.81 1364.31C-1197.08 1276.42 -1160.71 1188.09 -1088.6 1103.6C-1016.5 1019.1 -908.685 938.485 -773.172 866.044C-502.146 721.164 -120.408 609.047 307.801 564.055C736.009 519.063 1129.56 549.721 1419.69 635.64C1564.76 678.601 1683.94 735.369 1768.67 803.383C1853.39 871.397 1903.64 950.626 1910.91 1038.52C1918.18 1126.41 1881.81 1214.74 1809.71 1299.24C1737.6 1383.73 1629.79 1464.35 1494.28 1536.79C1223.25 1681.67 841.512 1793.79 413.303 1838.78Z" stroke="url(#paint39_linear_9646_7156)"/>
<path d="M402.054 1839.86C-26.7012 1877.45 -419.491 1839.97 -707.94 1749.01C-852.165 1703.52 -970.28 1644.68 -1053.76 1575.18C-1137.24 1505.68 -1186.06 1425.56 -1191.78 1337.52C-1197.51 1249.47 -1159.6 1161.75 -1086.05 1078.48C-1012.5 995.215 -903.327 916.441 -766.616 846.327C-493.195 706.1 -109.702 600.56 319.053 562.969C747.809 525.378 1140.6 562.857 1429.05 653.822C1573.27 699.305 1691.39 758.152 1774.87 827.651C1858.35 897.149 1907.17 977.27 1912.89 1065.31C1918.61 1153.36 1880.71 1241.08 1807.16 1324.35C1733.6 1407.61 1624.43 1486.39 1487.72 1556.5C1214.3 1696.73 830.809 1802.27 402.054 1839.86Z" stroke="url(#paint40_linear_9646_7156)"/>
<path d="M390.787 1840.76C-38.3837 1870.94 -430.289 1826.65 -716.971 1730.67C-860.313 1682.68 -977.324 1621.77 -1059.53 1550.8C-1141.74 1479.84 -1189.12 1398.85 -1193.29 1310.69C-1197.46 1222.52 -1158.03 1135.43 -1083.06 1053.42C-1008.08 971.399 -897.589 894.493 -759.721 826.727C-483.989 691.196 -98.8569 592.267 330.314 562.088C759.486 531.909 1151.39 576.197 1438.07 672.18C1581.41 720.172 1698.43 781.079 1780.64 852.042C1862.85 923.004 1910.23 1003.99 1914.39 1092.16C1918.56 1180.32 1879.13 1267.42 1804.16 1349.43C1729.18 1431.45 1618.69 1508.35 1480.82 1576.12C1205.09 1711.65 819.959 1810.58 390.787 1840.76Z" stroke="url(#paint41_linear_9646_7156)"/>
<path d="M379.514 1841.44C-49.943 1864.2 -440.844 1813.12 -725.671 1712.14C-868.086 1661.66 -983.958 1598.71 -1064.87 1526.3C-1145.79 1453.9 -1191.71 1372.07 -1194.33 1283.81C-1196.94 1195.55 -1156 1109.11 -1079.63 1028.37C-1003.25 947.633 -891.465 872.619 -752.483 807.222C-474.523 676.427 -87.8703 584.139 341.586 561.381C771.043 538.623 1161.94 589.708 1446.77 690.679C1589.19 741.165 1705.06 804.115 1785.97 876.52C1866.89 948.924 1912.81 1030.75 1915.43 1119.02C1918.04 1207.28 1877.1 1293.71 1800.73 1374.45C1724.35 1455.19 1612.56 1530.2 1473.58 1595.6C1195.62 1726.4 808.97 1818.68 379.514 1841.44Z" stroke="url(#paint42_linear_9646_7156)"/>
<path d="M368.237 1841.95C-61.3739 1857.28 -451.151 1799.42 -734.038 1693.49C-875.482 1640.52 -990.18 1575.55 -1069.77 1501.73C-1149.36 1427.9 -1193.82 1345.26 -1194.88 1256.92C-1195.94 1168.59 -1153.5 1082.85 -1075.75 1003.41C-997.997 923.967 -884.957 850.868 -744.904 787.859C-464.8 661.841 -76.744 576.221 352.867 560.892C782.478 545.563 1172.26 603.428 1455.14 709.357C1596.59 762.322 1711.28 827.294 1790.88 901.12C1870.47 974.944 1914.93 1057.59 1915.99 1145.92C1917.05 1234.25 1874.61 1320 1796.86 1399.44C1719.1 1478.88 1606.06 1551.98 1466.01 1614.99C1185.9 1741 797.848 1826.62 368.237 1841.95Z" stroke="url(#paint43_linear_9646_7156)"/>
<path d="M356.952 1842.25C-72.6832 1850.15 -461.218 1785.52 -742.078 1674.67C-882.509 1619.24 -995.997 1552.26 -1074.24 1477.04C-1152.49 1401.82 -1195.47 1318.38 -1194.97 1230.01C-1194.48 1141.63 -1150.55 1056.6 -1071.45 978.482C-992.338 900.367 -878.076 829.206 -736.994 768.604C-454.832 647.401 -65.4912 568.476 364.144 560.579C793.778 552.683 1182.31 617.311 1463.17 728.166C1603.6 783.593 1717.09 850.568 1795.34 925.792C1873.59 1001.01 1916.57 1084.45 1916.07 1172.83C1915.57 1261.2 1871.65 1346.24 1792.54 1424.35C1713.43 1502.46 1599.17 1573.63 1458.09 1634.23C1175.93 1755.43 786.586 1834.36 356.952 1842.25Z" stroke="url(#paint44_linear_9646_7156)"/>
<path d="M345.672 1842.36C-83.8556 1842.82 -471.03 1771.45 -749.777 1655.7C-889.152 1597.83 -1001.4 1528.87 -1078.27 1452.27C-1155.15 1375.68 -1196.64 1291.47 -1194.59 1203.08C-1192.53 1114.69 -1147.14 1030.39 -1066.7 953.628C-986.263 876.861 -870.813 807.659 -728.744 749.483C-444.611 633.133 -54.1038 560.926 375.424 560.465C804.951 560.004 1192.13 631.375 1470.87 747.122C1610.25 804.995 1722.49 873.953 1799.37 950.551C1876.25 1027.15 1917.73 1111.35 1915.68 1199.74C1913.63 1288.13 1868.23 1372.43 1787.8 1449.19C1707.36 1525.96 1591.91 1595.16 1449.84 1653.34C1165.71 1769.69 775.199 1841.9 345.672 1842.36Z" stroke="url(#paint45_linear_9646_7156)"/>
<path d="M334.403 1842.28C-94.8864 1835.31 -480.583 1757.22 -757.132 1636.61C-895.408 1576.31 -1006.37 1505.39 -1081.86 1427.44C-1157.34 1349.5 -1197.32 1264.55 -1193.72 1176.17C-1190.11 1087.79 -1143.26 1004.26 -1061.51 928.865C-979.77 853.47 -863.168 786.248 -720.157 730.516C-434.138 619.053 -42.5837 553.587 386.706 560.562C815.995 567.536 1201.69 645.629 1478.24 766.232C1616.52 826.534 1727.48 897.453 1802.97 975.402C1878.45 1053.35 1918.43 1138.3 1914.83 1226.67C1911.22 1315.05 1864.37 1398.59 1782.62 1473.98C1700.88 1549.37 1584.28 1616.6 1441.27 1672.33C1155.25 1783.79 763.693 1849.26 334.403 1842.28Z" stroke="url(#paint46_linear_9646_7156)"/>
<path d="M323.132 1842C-105.788 1827.59 -489.889 1742.8 -764.156 1617.38C-901.291 1554.67 -1010.94 1481.81 -1085.02 1402.53C-1159.08 1323.26 -1197.55 1237.6 -1192.39 1149.26C-1187.23 1060.92 -1138.93 978.172 -1055.9 904.173C-972.88 830.173 -855.161 764.951 -711.251 711.68C-423.433 605.138 -30.9508 546.433 397.97 560.841C826.891 575.249 1210.99 660.04 1485.26 785.462C1622.39 848.174 1732.05 921.033 1806.12 1000.31C1880.19 1079.59 1918.65 1165.25 1913.49 1253.59C1908.33 1341.92 1860.03 1424.67 1777.01 1498.67C1693.98 1572.67 1576.26 1637.89 1432.35 1691.16C1144.54 1797.7 752.053 1856.41 323.132 1842Z" stroke="url(#paint47_linear_9646_7156)"/>
<path d="M311.88 1841.52C-116.541 1819.69 -498.929 1728.22 -770.831 1598.02C-906.783 1532.92 -1015.09 1458.14 -1087.72 1377.56C-1160.35 1296.98 -1197.29 1210.63 -1190.57 1122.36C-1183.86 1034.08 -1134.13 952.15 -1049.86 879.569C-965.576 806.986 -846.776 743.785 -702.011 692.99C-412.483 591.403 -19.1915 539.476 409.23 561.313C837.651 583.149 1220.04 674.612 1491.94 804.816C1627.89 869.918 1736.2 944.695 1808.83 1025.28C1881.46 1105.85 1918.4 1192.2 1911.68 1280.48C1904.97 1368.75 1855.24 1450.69 1770.97 1523.27C1686.69 1595.85 1567.89 1659.05 1423.12 1709.84C1133.59 1811.43 740.301 1863.36 311.88 1841.52Z" stroke="url(#paint48_linear_9646_7156)"/>
<path d="M300.63 1840.84C-127.162 1811.58 -507.72 1713.48 -777.174 1578.53C-911.902 1511.06 -1018.83 1434.39 -1090 1352.53C-1161.17 1270.67 -1196.56 1183.66 -1188.3 1095.47C-1180.04 1007.29 -1128.9 926.199 -1043.39 855.057C-957.881 783.914 -838.037 722.752 -692.46 674.45C-401.309 577.847 -7.32947 532.715 420.462 561.974C848.253 591.233 1228.81 689.34 1498.27 824.286C1632.99 891.759 1739.92 968.431 1811.09 1050.29C1882.27 1132.15 1917.66 1219.16 1909.39 1307.34C1901.13 1395.52 1849.99 1476.62 1764.48 1547.76C1678.97 1618.9 1559.13 1680.06 1413.55 1728.37C1122.4 1824.97 728.421 1870.1 300.63 1840.84Z" stroke="url(#paint49_linear_9646_7156)"/>
<path d="M289.411 1839.98C-137.62 1803.3 -516.232 1698.58 -783.156 1558.94C-916.62 1489.11 -1022.14 1410.57 -1091.83 1327.46C-1161.52 1244.34 -1195.36 1156.7 -1185.54 1068.63C-1175.73 980.571 -1123.19 900.34 -1036.48 830.66C-949.771 760.978 -828.918 701.874 -682.575 656.08C-389.89 564.491 4.65849 526.167 431.689 562.839C858.72 599.511 1237.33 704.232 1504.26 843.879C1637.72 913.702 1743.24 992.246 1812.93 1075.36C1882.62 1158.47 1916.46 1246.12 1906.65 1334.18C1896.84 1422.24 1844.29 1502.48 1757.58 1572.16C1670.87 1641.84 1550.02 1700.94 1403.68 1746.74C1110.99 1838.32 716.442 1876.65 289.411 1839.98Z" stroke="url(#paint50_linear_9646_7156)"/>
<path d="M278.214 1838.92C-147.926 1794.85 -524.478 1683.55 -788.791 1539.24C-920.948 1467.09 -1025.02 1386.7 -1093.21 1302.35C-1161.4 1218.01 -1193.67 1129.76 -1182.32 1041.84C-1170.96 953.924 -1117.04 874.581 -1029.15 806.383C-941.261 738.183 -819.437 681.156 -672.372 637.882C-378.242 551.336 16.7548 519.831 442.895 563.906C869.036 607.98 1245.59 719.284 1509.9 863.588C1642.06 935.741 1746.13 1016.13 1814.32 1100.47C1882.51 1184.81 1914.78 1273.07 1903.43 1360.99C1892.07 1448.91 1838.15 1528.25 1750.26 1596.45C1662.37 1664.65 1540.55 1721.67 1393.48 1764.95C1099.35 1851.49 704.355 1883 278.214 1838.92Z" stroke="url(#paint51_linear_9646_7156)"/>
<path d="M267.039 1837.67C-158.081 1786.21 -532.458 1668.36 -794.079 1519.44C-924.89 1444.98 -1027.49 1362.77 -1094.15 1277.22C-1160.81 1191.68 -1191.52 1102.84 -1178.62 1015.09C-1165.73 927.35 -1110.44 848.919 -1021.4 782.224C-932.359 715.528 -809.601 660.594 -661.858 619.855C-366.373 538.377 28.9521 513.702 454.073 565.165C879.193 616.628 1253.57 734.48 1515.19 883.399C1646 957.859 1748.6 1040.07 1815.26 1125.62C1881.93 1211.16 1912.63 1300 1899.73 1387.75C1886.84 1475.49 1831.55 1553.92 1742.51 1620.62C1653.47 1687.31 1530.71 1742.25 1382.97 1782.98C1087.48 1864.46 692.16 1889.14 267.039 1837.67Z" stroke="url(#paint52_linear_9646_7156)"/>
<path d="M255.883 1836.23C-168.087 1777.39 -540.175 1653.03 -799.024 1499.54C-928.449 1422.79 -1029.54 1338.78 -1094.66 1252.06C-1159.78 1165.34 -1188.9 1075.94 -1174.47 988.398C-1160.03 900.854 -1103.4 823.359 -1013.23 758.188C-923.071 693.015 -799.417 640.191 -651.041 601.999C-354.292 525.614 41.2415 507.776 465.212 566.612C889.183 625.449 1261.27 749.813 1520.12 903.301C1649.55 980.045 1750.64 1064.06 1815.76 1150.78C1880.88 1237.5 1910 1326.9 1895.56 1414.44C1881.13 1501.98 1824.49 1579.48 1734.33 1644.65C1644.17 1709.82 1520.51 1762.65 1372.14 1800.84C1075.39 1877.22 679.854 1895.06 255.883 1836.23Z" stroke="url(#paint53_linear_9646_7156)"/>
<path d="M244.77 1834.58C-177.922 1768.38 -547.607 1637.55 -803.605 1479.54C-931.606 1400.53 -1031.16 1314.75 -1094.72 1226.87C-1158.27 1139 -1185.8 1049.08 -1169.84 961.76C-1153.87 874.441 -1095.9 797.906 -1004.64 734.278C-913.383 670.648 -788.869 619.952 -639.906 584.317C-341.982 513.049 53.6385 502.053 476.33 568.245C899.022 634.436 1268.71 765.275 1524.71 923.285C1652.71 1002.29 1752.26 1088.08 1815.82 1175.95C1879.37 1263.82 1906.9 1353.74 1890.94 1441.06C1874.97 1528.38 1817 1604.91 1725.74 1668.54C1634.48 1732.17 1509.97 1782.87 1361.01 1818.5C1063.08 1889.77 667.462 1900.77 244.77 1834.58Z" stroke="url(#paint54_linear_9646_7156)"/>
<path d="M233.694 1832.74C-187.59 1759.21 -554.759 1621.94 -807.829 1459.46C-934.365 1378.21 -1032.35 1290.68 -1094.33 1201.69C-1156.3 1112.69 -1182.23 1022.27 -1164.73 935.201C-1147.24 848.136 -1087.95 772.583 -995.629 710.518C-903.303 648.451 -777.968 599.896 -628.463 566.831C-329.455 500.701 66.1322 496.551 487.416 570.077C908.701 643.604 1275.87 780.877 1528.94 943.361C1655.48 1024.6 1753.46 1112.14 1815.44 1201.13C1877.41 1290.13 1903.34 1380.55 1885.84 1467.62C1868.35 1554.68 1809.06 1630.23 1716.74 1692.3C1624.41 1754.37 1499.08 1802.92 1349.57 1835.99C1050.57 1902.12 654.979 1906.27 233.694 1832.74Z" stroke="url(#paint55_linear_9646_7156)"/>
<path d="M222.648 1830.71C-197.101 1749.87 -561.643 1606.21 -811.707 1439.3C-936.74 1355.84 -1033.13 1266.59 -1093.5 1176.5C-1153.87 1086.41 -1178.2 995.51 -1159.18 908.724C-1140.16 821.938 -1079.58 747.392 -986.214 686.908C-892.848 626.423 -766.73 580.024 -616.729 549.538C-316.728 488.567 78.7055 491.264 498.454 572.103C918.202 652.942 1282.74 796.608 1532.81 963.517C1657.84 1046.97 1754.23 1136.22 1814.6 1226.32C1874.97 1316.41 1899.3 1407.31 1880.28 1494.09C1861.26 1580.88 1800.68 1655.42 1707.32 1715.91C1613.95 1776.39 1487.83 1822.79 1337.83 1853.28C1037.83 1914.25 642.396 1911.55 222.648 1830.71Z" stroke="url(#paint56_linear_9646_7156)"/>
<path d="M211.649 1828.52C-206.435 1740.39 -568.239 1590.38 -815.222 1419.09C-938.714 1333.45 -1033.48 1242.51 -1092.23 1151.35C-1150.98 1060.19 -1173.69 968.841 -1153.15 882.361C-1132.62 795.88 -1070.76 722.363 -976.383 663.479C-882.005 604.594 -755.143 560.366 -604.691 532.469C-303.789 476.674 91.3708 486.217 509.455 574.344C927.54 662.471 1289.34 812.487 1536.33 983.769C1659.82 1069.41 1754.58 1160.35 1813.33 1251.52C1872.08 1342.68 1894.79 1434.02 1874.26 1520.5C1853.72 1606.98 1791.86 1680.5 1697.49 1739.38C1603.11 1798.27 1476.25 1842.5 1325.8 1870.39C1024.89 1926.19 629.734 1916.65 211.649 1828.52Z" stroke="url(#paint57_linear_9646_7156)"/>
<path d="M200.684 1826.09C-215.609 1730.7 -574.565 1574.38 -818.39 1398.78C-940.304 1310.98 -1033.41 1218.37 -1090.52 1126.17C-1147.63 1033.96 -1168.72 942.202 -1146.68 856.053C-1124.63 769.905 -1061.51 697.438 -966.156 640.172C-870.796 582.905 -743.228 540.862 -592.37 515.562C-290.659 464.961 104.106 481.347 520.4 576.735C936.694 672.124 1295.65 828.443 1539.47 1004.05C1661.39 1091.85 1754.5 1184.46 1811.61 1276.66C1868.72 1368.86 1889.81 1460.62 1867.76 1546.77C1845.72 1632.92 1782.6 1705.39 1687.24 1762.65C1591.88 1819.92 1464.31 1861.96 1313.46 1887.26C1011.74 1937.87 616.978 1921.48 200.684 1826.09Z" stroke="url(#paint58_linear_9646_7156)"/>
<path d="M189.788 1823.5C-224.588 1720.88 -580.586 1558.3 -821.18 1378.43C-941.478 1288.49 -1032.9 1194.25 -1088.36 1101.03C-1143.81 1007.82 -1163.27 915.665 -1139.72 829.875C-1116.17 744.084 -1051.82 672.691 -955.506 617.061C-859.192 561.429 -730.957 521.583 -579.741 498.887C-277.311 453.496 116.939 476.72 531.315 579.34C945.691 681.961 1301.69 844.536 1542.28 1024.41C1662.58 1114.34 1754.01 1208.59 1809.46 1301.81C1864.91 1395.02 1884.38 1487.17 1860.83 1572.96C1837.28 1658.75 1772.92 1730.15 1676.61 1785.78C1580.29 1841.41 1452.06 1881.25 1300.84 1903.95C998.414 1949.34 604.163 1926.12 189.788 1823.5Z" stroke="url(#paint59_linear_9646_7156)"/>
<path d="M178.932 1820.71C-233.399 1710.89 -586.331 1542.11 -823.62 1358.02C-942.266 1265.98 -1031.98 1170.13 -1085.76 1075.92C-1139.54 981.724 -1157.37 889.21 -1132.33 803.805C-1107.28 718.399 -1041.7 648.101 -944.465 594.122C-847.226 540.143 -718.364 502.506 -566.835 482.422C-263.779 442.254 129.836 472.309 542.168 582.131C954.499 691.952 1307.43 860.733 1544.72 1044.82C1663.37 1136.86 1753.08 1232.71 1806.86 1326.92C1860.64 1421.12 1878.47 1513.63 1853.43 1599.03C1828.38 1684.44 1762.8 1754.74 1665.56 1808.72C1568.33 1862.7 1439.46 1900.33 1287.93 1920.42C984.879 1960.59 591.264 1930.53 178.932 1820.71Z" stroke="url(#paint60_linear_9646_7156)"/>
<path d="M168.131 1817.72C-242.031 1700.73 -591.789 1525.8 -825.701 1337.56C-942.659 1243.44 -1030.63 1146 -1082.73 1050.85C-1134.82 955.689 -1151.01 862.842 -1124.47 777.847C-1097.94 692.852 -1031.16 623.669 -933.028 571.36C-834.895 519.049 -705.444 483.633 -553.648 466.167C-250.059 431.234 142.802 468.112 552.964 585.1C963.125 702.089 1312.88 877.025 1546.8 1065.27C1663.75 1159.39 1751.73 1256.82 1803.82 1351.98C1855.91 1447.13 1872.1 1539.98 1845.57 1624.98C1819.03 1709.97 1752.25 1779.15 1654.12 1831.46C1555.99 1883.77 1426.54 1919.19 1274.74 1936.66C971.154 1971.59 578.293 1934.71 168.131 1817.72Z" stroke="url(#paint61_linear_9646_7156)"/>
<path d="M157.397 1814.56C-250.47 1690.44 -596.948 1509.41 -827.412 1317.06C-942.645 1220.89 -1028.86 1121.91 -1079.24 1025.83C-1129.63 929.743 -1144.18 836.591 -1116.16 752.032C-1088.14 667.473 -1020.18 599.428 -921.188 548.803C-822.191 498.177 -692.19 464.993 -540.174 450.149C-236.144 420.463 155.843 464.151 563.71 588.271C971.577 712.391 1318.05 893.429 1548.52 1085.77C1663.75 1181.94 1749.96 1280.92 1800.35 1377.01C1850.73 1473.09 1865.28 1566.24 1837.26 1650.8C1809.25 1735.36 1741.29 1803.41 1642.29 1854.03C1543.3 1904.66 1413.3 1937.84 1261.28 1952.69C957.25 1982.37 565.264 1938.68 157.397 1814.56Z" stroke="url(#paint62_linear_9646_7156)"/>
<path d="M146.711 1811.2C-258.738 1679.99 -601.829 1492.9 -828.776 1296.52C-942.25 1198.33 -1026.67 1097.83 -1075.33 1000.85C-1124 903.864 -1136.9 810.435 -1107.41 726.338C-1077.92 642.241 -1008.8 575.355 -908.972 526.43C-809.141 477.504 -678.63 446.561 -526.439 434.345C-222.061 409.914 168.931 460.4 574.38 591.614C979.828 722.828 1322.92 909.912 1549.87 1106.29C1663.34 1204.49 1747.76 1304.99 1796.42 1401.97C1845.09 1498.95 1857.99 1592.38 1828.5 1676.48C1799.01 1760.57 1729.89 1827.46 1630.06 1876.39C1530.23 1925.31 1399.72 1956.26 1247.53 1968.47C943.151 1992.9 552.159 1942.42 146.711 1811.2Z" stroke="url(#paint63_linear_9646_7156)"/>
<path d="M136.099 1807.67C-266.807 1669.4 -606.408 1476.33 -829.767 1275.97C-941.448 1175.78 -1024.05 1073.8 -1070.98 975.944C-1117.91 878.094 -1129.16 784.416 -1098.2 700.807C-1067.25 617.198 -996.994 551.49 -896.36 504.28C-795.724 457.07 -664.743 428.378 -512.425 418.793C-207.791 399.624 182.088 456.892 584.994 595.16C987.9 733.428 1327.5 926.502 1550.86 1126.87C1662.54 1227.05 1745.14 1329.04 1792.07 1426.89C1839 1524.74 1850.25 1618.42 1819.3 1702.03C1788.34 1785.63 1718.09 1851.34 1617.45 1898.55C1516.82 1945.76 1385.84 1974.46 1233.52 1984.04C928.884 2003.21 539.005 1945.94 136.099 1807.67Z" stroke="url(#paint64_linear_9646_7156)"/>
<path d="M125.559 1803.96C-274.682 1658.68 -610.69 1459.67 -830.393 1255.39C-940.246 1153.25 -1021 1049.8 -1066.18 951.111C-1111.36 852.423 -1120.96 758.525 -1088.55 675.429C-1056.14 592.333 -984.769 527.823 -883.362 482.343C-781.952 436.862 -650.542 410.43 -498.142 403.479C-193.345 389.579 195.303 453.611 595.543 598.891C995.784 744.171 1331.79 943.175 1551.5 1147.46C1661.35 1249.6 1742.11 1353.05 1787.29 1451.74C1832.47 1550.43 1842.06 1644.33 1809.65 1727.42C1777.24 1810.52 1705.87 1875.03 1604.46 1920.51C1503.05 1965.99 1371.64 1992.42 1219.24 1999.37C914.447 2013.27 525.799 1949.24 125.559 1803.96Z" stroke="url(#paint65_linear_9646_7156)"/>
<path d="M115.088 1800.05C-282.366 1647.81 -614.678 1442.93 -830.659 1234.79C-938.65 1130.72 -1017.54 1025.85 -1060.96 926.348C-1104.38 826.851 -1112.31 732.762 -1078.46 650.204C-1044.6 567.647 -972.137 504.356 -869.987 460.619C-767.835 416.881 -636.034 392.716 -483.6 388.402C-178.733 379.775 208.565 450.552 606.018 602.799C1003.47 755.047 1335.78 959.921 1551.76 1168.06C1659.76 1272.14 1738.65 1377.01 1782.06 1476.51C1825.48 1576 1833.41 1670.09 1799.56 1752.65C1765.71 1835.21 1693.24 1898.5 1591.09 1942.24C1488.94 1985.97 1357.14 2010.14 1204.71 2014.45C899.839 2023.08 512.541 1952.3 115.088 1800.05Z" stroke="url(#paint66_linear_9646_7156)"/>
<path d="M104.687 1795.95C-289.858 1636.79 -618.373 1426.1 -830.566 1214.17C-936.663 1108.2 -1013.66 1001.93 -1055.3 901.655C-1096.94 801.379 -1103.22 707.127 -1067.93 625.134C-1032.64 543.14 -959.103 481.086 -856.242 439.106C-753.378 397.124 -621.228 375.235 -468.805 373.559C-163.961 370.206 221.869 447.707 616.414 606.876C1010.96 766.044 1339.47 976.726 1551.67 1188.66C1657.76 1294.63 1734.76 1400.9 1776.4 1501.18C1818.04 1601.45 1824.32 1695.7 1789.03 1777.7C1753.74 1859.69 1680.2 1921.74 1577.34 1963.72C1474.48 2005.71 1342.33 2027.59 1189.91 2029.27C885.062 2032.62 499.232 1955.12 104.687 1795.95Z" stroke="url(#paint67_linear_9646_7156)"/>
<path d="M94.3699 1791.69C-297.147 1625.64 -621.764 1409.22 -830.104 1193.55C-934.275 1085.72 -1009.36 978.091 -1049.21 877.066C-1089.06 776.042 -1093.67 681.656 -1056.96 600.251C-1020.25 518.846 -945.662 458.049 -842.121 417.838C-738.577 377.626 -606.117 358.018 -453.752 358.98C-149.023 360.904 235.221 445.105 626.738 611.146C1018.26 777.187 1342.87 993.613 1551.21 1209.28C1655.38 1317.11 1730.47 1424.74 1770.32 1525.77C1810.17 1626.79 1814.78 1721.18 1778.07 1802.58C1741.36 1883.99 1666.77 1944.78 1563.23 1984.99C1459.68 2025.21 1327.22 2044.81 1174.86 2043.85C870.131 2041.93 485.887 1957.73 94.3699 1791.69Z" stroke="url(#paint68_linear_9646_7156)"/>
<path d="M84.1315 1787.24C-304.238 1614.37 -624.859 1392.27 -829.283 1172.94C-931.495 1063.27 -1004.64 954.316 -1042.69 852.573C-1080.74 750.833 -1083.69 656.342 -1045.57 575.551C-1007.44 494.759 -931.825 435.236 -827.635 396.807C-723.443 358.377 -590.714 341.057 -438.453 344.657C-133.933 351.856 248.609 442.731 636.978 615.595C1025.35 788.458 1345.97 1010.56 1550.39 1229.89C1652.61 1339.56 1725.75 1448.51 1763.8 1550.26C1801.85 1652 1804.8 1746.49 1766.67 1827.28C1728.55 1908.07 1652.93 1967.59 1548.75 2006.02C1444.55 2044.45 1311.82 2061.77 1159.56 2058.17C855.043 2050.97 472.501 1960.1 84.1315 1787.24Z" stroke="url(#paint69_linear_9646_7156)"/>
<path d="M73.9744 1782.6C-311.129 1602.97 -627.656 1375.25 -828.102 1152.33C-928.325 1040.86 -999.51 930.609 -1035.75 828.181C-1071.99 725.755 -1073.27 631.187 -1033.74 551.034C-994.22 470.88 -917.598 412.65 -812.791 376.014C-707.982 339.378 -575.023 324.351 -422.913 330.587C-118.695 343.06 262.028 440.582 647.132 620.215C1032.24 799.848 1348.76 1027.56 1549.21 1250.49C1649.43 1361.95 1720.62 1472.21 1756.85 1574.63C1793.09 1677.06 1794.37 1771.63 1754.85 1851.78C1715.33 1931.93 1638.7 1990.16 1533.9 2026.8C1429.09 2063.44 1296.13 2078.46 1144.02 2072.23C839.801 2059.75 459.078 1962.23 73.9744 1782.6Z" stroke="url(#paint70_linear_9646_7156)"/>
<path d="M63.9084 1777.8C-317.812 1591.46 -630.149 1358.2 -826.555 1131.75C-924.758 1018.51 -993.962 907.003 -1028.38 803.919C-1062.79 700.838 -1062.4 606.223 -1021.49 526.732C-980.581 447.241 -902.977 390.322 -797.586 355.491C-692.191 320.658 -559.045 307.929 -407.131 316.801C-103.307 334.543 275.48 438.682 657.201 625.029C1038.92 811.377 1351.26 1044.63 1547.66 1271.09C1645.87 1384.32 1715.07 1495.83 1749.49 1598.91C1783.9 1702 1783.51 1796.61 1742.6 1876.1C1701.69 1955.59 1624.09 2012.51 1518.69 2047.34C1413.3 2082.18 1280.15 2094.91 1128.24 2086.03C824.416 2068.29 445.629 1964.15 63.9084 1777.8Z" stroke="url(#paint71_linear_9646_7156)"/>
<path d="M53.931 1772.83C-324.29 1579.82 -632.341 1341.1 -824.647 1111.18C-920.801 996.22 -988.002 883.48 -1020.58 779.773C-1053.16 676.069 -1051.11 581.434 -1008.82 502.63C-966.534 423.826 -887.973 368.235 -782.028 335.219C-676.082 302.201 -542.787 291.774 -391.117 303.277C-87.7793 326.284 288.957 437.008 667.179 630.014C1045.4 823.019 1353.45 1061.74 1545.76 1291.66C1641.91 1406.62 1709.11 1519.36 1741.69 1623.07C1774.27 1726.77 1772.22 1821.41 1729.93 1900.21C1687.64 1979.02 1609.08 2034.61 1503.14 2067.62C1397.19 2100.64 1263.9 2111.07 1112.23 2099.56C808.889 2076.56 432.152 1965.83 53.931 1772.83Z" stroke="url(#paint72_linear_9646_7156)"/>
<path d="M44.043 1767.67C-330.563 1568.07 -634.235 1323.95 -822.384 1090.64C-916.458 973.981 -981.636 860.047 -1012.37 755.748C-1043.1 651.452 -1039.39 556.828 -995.738 478.735C-952.088 400.641 -872.593 346.395 -766.128 315.204C-659.66 284.012 -526.259 275.889 -374.878 290.021C-72.1191 318.285 302.453 435.56 677.059 635.165C1051.67 834.77 1355.34 1078.89 1543.49 1312.2C1637.56 1428.86 1702.74 1542.79 1733.47 1647.09C1764.21 1751.38 1760.49 1846.01 1716.84 1924.1C1673.19 2002.2 1593.69 2056.44 1487.23 2087.63C1380.76 2118.82 1247.36 2126.95 1095.98 2112.82C793.221 2084.55 418.65 1967.28 44.043 1767.67Z" stroke="url(#paint73_linear_9646_7156)"/>
<path d="M34.264 1762.35C-336.614 1556.21 -635.814 1306.76 -819.747 1070.13C-911.714 951.818 -974.848 836.726 -1003.73 731.867C-1032.61 627.011 -1027.23 532.426 -982.23 455.067C-937.229 377.708 -856.825 324.823 -749.871 295.467C-642.916 266.11 -509.448 260.294 -358.403 277.05C-56.3151 310.563 315.977 434.354 686.855 640.497C1057.73 846.64 1356.93 1096.08 1540.87 1332.71C1632.83 1451.03 1695.97 1566.12 1724.85 1670.98C1753.73 1775.83 1748.35 1870.42 1703.35 1947.78C1658.35 2025.14 1577.94 2078.02 1470.99 2107.38C1364.04 2136.74 1230.57 2142.55 1079.52 2125.8C777.434 2092.28 405.142 1968.49 34.264 1762.35Z" stroke="url(#paint74_linear_9646_7156)"/>
<path d="M24.5639 1756.83C-342.472 1544.22 -637.109 1289.53 -816.771 1049.65C-906.602 929.711 -967.674 813.495 -994.693 708.108C-1021.71 602.724 -1014.67 508.206 -968.332 431.605C-921.996 355.004 -840.706 303.498 -733.297 275.985C-625.886 248.471 -492.392 244.964 -341.729 264.34C-40.404 303.091 329.496 433.36 696.532 645.979C1063.57 858.598 1358.2 1113.29 1537.87 1353.16C1627.7 1473.1 1688.77 1589.32 1715.79 1694.71C1742.81 1800.09 1735.76 1894.61 1689.43 1971.21C1643.09 2047.81 1561.8 2099.32 1454.39 2126.83C1346.98 2154.34 1213.49 2157.85 1062.82 2138.47C761.499 2099.72 391.6 1969.45 24.5639 1756.83Z" stroke="url(#paint75_linear_9646_7156)"/>
<path d="M14.9758 1751.18C-348.107 1532.15 -638.091 1272.29 -813.427 1029.24C-901.095 907.711 -960.086 790.406 -985.234 684.524C-1010.38 578.644 -1001.68 484.222 -954.021 408.403C-906.362 332.583 -824.212 282.47 -716.38 256.809C-608.546 231.148 -475.067 229.95 -324.831 251.94C-24.3614 295.918 343.033 432.625 706.115 651.655C1069.2 870.684 1359.18 1130.54 1534.52 1373.59C1622.19 1495.12 1681.18 1612.42 1706.33 1718.31C1731.47 1824.19 1722.77 1918.61 1675.11 1994.43C1627.45 2070.25 1545.3 2120.36 1437.47 2146.02C1329.64 2171.68 1196.16 2172.88 1045.92 2150.89C745.453 2106.91 378.058 1970.21 14.9758 1751.18Z" stroke="url(#paint76_linear_9646_7156)"/>
<path d="M5.50157 1745.34C-353.517 1519.96 -638.76 1255.02 -809.716 1008.86C-895.195 885.786 -952.087 767.428 -975.356 661.082C-998.625 554.738 -988.266 460.442 -939.3 385.427C-890.333 310.412 -807.348 261.707 -699.126 237.906C-590.902 214.105 -457.479 215.218 -307.716 239.814C-8.19252 289.005 356.584 432.109 715.603 657.483C1074.62 882.856 1359.86 1147.8 1530.82 1393.95C1616.3 1517.03 1673.19 1635.39 1696.46 1741.74C1719.73 1848.08 1709.37 1942.38 1660.4 2017.39C1611.44 2092.41 1528.45 2141.11 1420.23 2164.91C1312.01 2188.71 1178.58 2187.6 1028.82 2163C729.297 2113.81 364.52 1970.71 5.50157 1745.34Z" stroke="url(#paint77_linear_9646_7156)"/>
<path d="M-3.87059 1739.33C-358.715 1507.69 -639.131 1237.73 -805.656 988.552C-888.919 863.962 -943.694 744.588 -965.078 637.811C-986.461 531.036 -974.448 436.893 -924.189 362.706C-873.93 288.518 -790.134 241.237 -681.556 219.303C-572.975 197.368 -439.647 200.792 -290.404 227.987C8.08198 282.376 370.13 431.833 724.975 663.482C1079.82 895.131 1360.24 1165.09 1526.76 1414.26C1610.02 1538.85 1664.8 1658.23 1686.18 1765.01C1707.57 1871.78 1695.55 1965.92 1645.29 2040.11C1595.03 2114.3 1511.24 2161.58 1402.66 2183.51C1294.08 2205.45 1160.75 2202.02 1011.51 2174.83C713.023 2120.44 350.974 1970.98 -3.87059 1739.33Z" stroke="url(#paint78_linear_9646_7156)"/>
<path d="M-13.1353 1733.18C-363.699 1495.32 -639.201 1220.44 -801.243 968.312C-882.265 842.248 -934.908 721.893 -954.399 614.716C-973.89 507.543 -960.227 413.583 -908.69 340.246C-857.154 266.908 -772.574 221.065 -663.672 201.004C-554.767 180.943 -421.576 186.676 -272.896 216.462C24.4608 276.033 383.67 431.797 734.234 669.651C1084.8 907.505 1360.3 1182.39 1522.34 1434.51C1603.36 1560.58 1656.01 1680.93 1675.5 1788.11C1694.99 1895.28 1681.33 1989.24 1629.79 2062.58C1578.25 2135.92 1493.67 2181.76 1384.77 2201.82C1275.87 2221.88 1142.67 2216.15 993.995 2186.36C696.638 2126.79 337.428 1971.03 -13.1353 1733.18Z" stroke="url(#paint79_linear_9646_7156)"/>
<path d="M-22.2809 1726.86C-368.456 1482.87 -638.961 1203.14 -796.472 948.144C-875.228 820.643 -925.722 699.345 -943.315 591.802C-960.908 484.262 -945.598 390.514 -892.8 318.049C-840.002 245.584 -754.663 201.192 -645.47 183.012C-536.275 164.831 -403.261 172.87 -255.191 205.238C40.947 269.973 397.209 431.997 743.384 675.984C1089.56 919.97 1360.06 1199.7 1517.57 1454.7C1596.33 1582.2 1646.82 1703.49 1664.42 1811.04C1682.01 1918.58 1666.7 2012.33 1613.9 2084.79C1561.1 2157.26 1475.77 2201.65 1366.57 2219.83C1257.38 2238.01 1124.36 2229.97 976.294 2197.6C680.156 2132.87 323.894 1970.84 -22.2809 1726.86Z" stroke="url(#paint80_linear_9646_7156)"/>
<path d="M-31.3206 1720.36C-373.002 1470.32 -638.427 1185.84 -791.358 928.041C-867.825 799.143 -916.154 676.938 -931.844 569.062C-947.534 461.189 -930.582 367.68 -876.539 296.109C-822.495 224.539 -736.424 181.613 -626.973 165.317C-517.52 149.022 -384.724 159.366 -237.309 194.306C57.5196 264.184 410.725 432.42 752.406 682.464C1094.09 932.509 1359.51 1216.99 1512.44 1474.79C1588.91 1603.69 1637.24 1725.89 1652.93 1833.77C1668.62 1941.64 1651.67 2035.15 1597.62 2106.72C1543.58 2178.29 1457.51 2221.22 1348.06 2237.51C1238.61 2253.81 1105.81 2243.46 958.394 2208.52C663.566 2138.64 310.361 1970.41 -31.3206 1720.36Z" stroke="url(#paint81_linear_9646_7156)"/>
<path d="M-40.2163 1713.72C-377.3 1457.69 -637.564 1168.54 -785.87 908.027C-860.023 777.77 -906.173 654.696 -919.955 546.519C-933.736 438.345 -915.149 345.105 -859.876 274.451C-804.603 203.796 -717.825 162.348 -608.151 147.944C-498.473 133.538 -365.935 146.184 -219.22 183.685C74.2096 258.686 424.25 433.081 761.334 689.107C1098.42 945.134 1358.68 1234.29 1506.99 1494.8C1581.14 1625.06 1627.29 1748.13 1641.07 1856.31C1654.85 1964.48 1636.27 2057.72 1580.99 2128.38C1525.72 2199.03 1438.94 2240.48 1329.27 2254.88C1219.59 2269.29 1087.05 2256.64 940.337 2219.14C646.908 2144.14 296.867 1969.75 -40.2163 1713.72Z" stroke="url(#paint82_linear_9646_7156)"/>
<path d="M-49.0067 1706.92C-381.39 1444.99 -636.415 1151.25 -780.048 888.106C-851.866 756.531 -895.823 632.625 -907.692 524.18C-919.562 415.739 -899.343 322.795 -842.858 253.078C-786.372 183.362 -698.915 143.405 -589.049 130.895C-479.181 118.385 -346.942 133.328 -200.971 173.379C90.9699 253.48 437.74 433.981 770.123 695.911C1102.51 957.842 1357.53 1251.58 1501.16 1514.73C1572.98 1646.3 1616.94 1770.21 1628.81 1878.65C1640.68 1987.09 1620.46 2080.04 1563.97 2149.76C1507.49 2219.47 1420.03 2259.43 1310.17 2271.94C1200.3 2284.45 1068.06 2269.51 922.087 2229.45C630.146 2149.35 283.376 1968.85 -49.0067 1706.92Z" stroke="url(#paint83_linear_9646_7156)"/>
<path d="M-57.6825 1699.97C-385.263 1432.21 -634.971 1133.98 -773.89 868.276C-843.35 735.422 -885.1 610.722 -895.054 502.043C-905.007 393.367 -883.164 300.748 -825.484 231.99C-767.803 163.233 -679.692 124.78 -569.67 114.168C-459.644 103.556 -327.744 120.793 -182.561 163.381C107.802 248.558 451.196 435.11 778.777 702.865C1106.36 970.62 1356.07 1268.85 1494.98 1534.56C1564.44 1667.41 1606.19 1792.11 1616.15 1900.79C1626.1 2009.47 1604.26 2102.08 1546.58 2170.84C1488.9 2239.6 1400.79 2278.05 1290.76 2288.66C1180.74 2299.28 1048.84 2282.04 903.655 2239.45C613.292 2154.27 269.899 1967.72 -57.6825 1699.97Z" stroke="url(#paint84_linear_9646_7156)"/>
<path d="M-66.2189 1692.85C-388.898 1419.36 -633.213 1116.72 -767.374 848.542C-834.455 714.45 -873.986 588.994 -882.021 480.113C-890.055 371.236 -866.594 278.97 -807.736 211.193C-748.878 143.415 -660.14 106.477 -549.994 97.7668C-439.845 89.0568 -308.324 108.582 -163.974 153.695C124.723 243.92 464.636 436.467 787.315 709.964C1109.99 983.462 1354.31 1286.1 1488.47 1554.28C1555.55 1688.37 1595.08 1813.82 1603.12 1922.71C1611.15 2031.58 1587.69 2123.85 1528.83 2191.63C1469.97 2259.4 1381.24 2296.34 1271.09 2305.05C1160.94 2313.76 1029.42 2294.24 885.07 2249.12C596.373 2158.9 256.461 1966.35 -66.2189 1692.85Z" stroke="url(#paint85_linear_9646_7156)"/>
<path d="M-74.6185 1685.61C-392.298 1406.46 -631.144 1099.51 -760.507 828.937C-825.19 693.648 -862.489 567.474 -868.602 458.425C-874.715 349.379 -849.643 257.495 -789.626 190.718C-729.608 123.941 -640.271 88.5288 -530.034 81.7234C-419.795 74.9179 -288.693 96.7247 -145.22 144.349C141.723 239.596 478.051 438.079 795.73 717.236C1113.41 996.392 1352.26 1303.34 1481.62 1573.91C1546.3 1709.2 1583.6 1835.38 1589.71 1944.42C1595.83 2053.47 1570.75 2145.35 1510.74 2212.13C1450.72 2278.91 1361.38 2314.32 1251.15 2321.13C1140.91 2327.93 1009.8 2306.12 866.332 2258.5C579.389 2163.25 243.061 1964.77 -74.6185 1685.61Z" stroke="url(#paint86_linear_9646_7156)"/>
<path d="M-82.902 1678.2C-395.485 1393.47 -628.791 1082.31 -753.316 809.422C-815.579 672.977 -850.636 546.123 -854.826 436.939C-859.016 327.758 -832.34 236.283 -771.182 170.527C-710.023 104.771 -620.113 70.8959 -509.82 65.997C-399.524 61.0981 -268.881 85.1803 -126.329 135.301C158.773 235.541 491.414 439.899 803.997 724.63C1116.58 1009.36 1349.89 1320.52 1474.41 1593.41C1536.67 1729.85 1571.73 1856.71 1575.92 1965.89C1580.11 2075.07 1553.43 2166.55 1492.28 2232.3C1431.12 2298.06 1341.21 2331.94 1230.91 2336.83C1120.62 2341.73 989.976 2317.65 847.424 2267.53C562.322 2167.29 229.681 1962.93 -82.902 1678.2Z" stroke="url(#paint87_linear_9646_7156)"/>
<path d="M-91.0332 1670.66C-398.424 1380.44 -626.118 1065.16 -745.768 790.041C-805.594 652.482 -838.397 524.987 -840.663 415.701C-842.928 306.419 -814.657 215.381 -752.376 150.666C-690.094 85.9507 -599.64 53.6231 -489.324 50.6322C-379.005 47.6412 -248.86 73.9914 -107.272 126.593C175.902 231.796 504.754 441.967 812.145 732.186C1119.54 1022.4 1347.23 1337.69 1466.88 1612.8C1526.71 1750.36 1559.51 1877.86 1561.77 1987.14C1564.04 2096.43 1535.77 2187.46 1473.49 2252.18C1411.21 2316.9 1320.75 2349.22 1210.44 2352.21C1100.12 2355.2 969.972 2328.85 828.384 2276.25C545.21 2171.05 216.358 1960.88 -91.0332 1670.66Z" stroke="url(#paint88_linear_9646_7156)"/>
<path d="M-99.0404 1662.97C-401.146 1367.35 -623.159 1048.04 -737.897 770.778C-795.266 632.146 -825.807 504.05 -826.146 394.695C-826.486 285.344 -796.629 194.771 -733.244 131.117C-669.859 67.4626 -578.887 36.6922 -468.582 35.6102C-358.273 34.5281 -228.667 63.1383 -88.0864 118.205C193.073 228.338 518.037 444.259 820.143 739.876C1122.25 1035.49 1344.26 1354.8 1459 1632.07C1516.37 1770.7 1546.91 1898.79 1547.25 2008.15C1547.59 2117.5 1517.73 2208.07 1454.35 2271.73C1390.96 2335.38 1299.99 2366.15 1189.68 2367.23C1079.38 2368.32 949.769 2339.71 809.189 2284.64C528.029 2174.51 203.065 1958.59 -99.0404 1662.97Z" stroke="url(#paint89_linear_9646_7156)"/>
<path d="M-106.903 1655.13C-403.631 1354.2 -619.895 1030.96 -729.686 751.639C-784.581 611.977 -812.849 483.317 -811.264 373.928C-809.678 264.541 -778.244 174.461 -713.774 111.887C-649.305 49.3122 -557.843 20.1084 -447.582 20.9356C-337.317 21.7628 -208.289 52.6244 -68.7588 110.14C210.301 225.169 531.277 446.773 828.005 747.7C1124.73 1048.63 1341 1371.86 1450.79 1651.19C1505.68 1790.85 1533.95 1919.51 1532.37 2028.9C1530.78 2138.29 1499.35 2228.37 1434.88 2290.94C1370.41 2353.51 1278.95 2382.72 1168.68 2381.89C1058.42 2381.06 929.392 2350.2 789.861 2292.69C510.802 2177.66 189.825 1956.05 -106.903 1655.13Z" stroke="url(#paint90_linear_9646_7156)"/>
<path d="M-114.613 1647.16C-405.873 1341.02 -616.323 1013.95 -721.133 732.649C-773.538 591.999 -799.525 462.816 -796.015 353.424C-792.504 244.036 -759.502 154.476 -693.968 93.0006C-628.434 31.5255 -536.51 3.8972 -426.327 6.63327C-316.14 9.36952 -187.729 42.4731 -49.2912 102.419C227.583 222.31 544.474 449.53 835.735 755.674C1126.99 1061.82 1337.44 1388.89 1442.25 1670.19C1494.66 1810.84 1520.65 1940.02 1517.14 2049.41C1513.63 2158.8 1480.62 2248.36 1415.09 2309.83C1349.56 2371.31 1257.63 2398.94 1147.45 2396.2C1037.26 2393.47 908.851 2360.36 770.413 2300.42C493.539 2180.52 176.648 1953.3 -114.613 1647.16Z" stroke="url(#paint91_linear_9646_7156)"/>
<path d="M-122.196 1639.06C-407.899 1327.79 -612.47 996.992 -712.268 713.804C-762.168 572.209 -785.865 442.54 -780.431 333.18C-774.997 223.823 -740.436 134.81 -673.858 74.4533C-607.279 14.0961 -514.922 -11.9484 -404.849 -7.30412C-294.774 -2.65959 -167.02 32.6757 -29.7163 95.0342C244.889 219.751 557.598 452.517 843.302 763.785C1129.01 1075.05 1333.58 1405.85 1433.37 1689.04C1483.27 1830.64 1506.97 1960.3 1501.54 2069.66C1496.1 2179.02 1461.54 2268.03 1394.96 2328.39C1328.38 2388.75 1236.03 2414.79 1125.96 2410.15C1015.88 2405.5 888.126 2370.17 750.822 2307.81C476.217 2183.09 163.508 1950.33 -122.196 1639.06Z" stroke="url(#paint92_linear_9646_7156)"/>
<path d="M-129.62 1630.81C-409.68 1314.52 -608.31 980.086 -703.065 695.094C-750.443 552.597 -771.844 422.484 -764.488 313.189C-757.132 203.896 -721.024 115.458 -653.421 56.237C-585.817 -2.98389 -493.055 -27.4366 -383.127 -20.8855C-273.197 -14.3343 -146.138 23.2221 -10.0107 87.9743C262.241 217.478 570.673 455.72 850.734 772.018C1130.79 1088.32 1329.42 1422.75 1424.18 1707.74C1471.56 1850.23 1492.96 1980.35 1485.6 2089.64C1478.25 2198.93 1442.14 2287.37 1374.53 2346.59C1306.93 2405.81 1214.17 2430.27 1104.24 2423.72C994.31 2417.17 867.251 2379.61 731.124 2314.86C458.872 2185.35 150.44 1947.11 -129.62 1630.81Z" stroke="url(#paint93_linear_9646_7156)"/>
<path d="M-136.904 1622.44C-411.235 1301.21 -603.863 963.249 -693.547 676.541C-738.389 533.186 -757.487 402.667 -748.211 293.47C-738.935 184.276 -701.291 96.4383 -632.684 38.3718C-564.076 -19.6947 -470.936 -42.5481 -361.187 -34.0923C-251.435 -25.6364 -125.11 14.1295 9.79909 81.2557C279.615 215.507 583.676 459.153 858.008 780.383C1132.34 1101.61 1324.97 1439.57 1414.65 1726.28C1459.49 1869.64 1478.59 2000.15 1469.31 2109.35C1460.04 2218.55 1422.39 2306.38 1353.79 2364.45C1285.18 2422.52 1192.04 2445.37 1082.29 2436.91C972.539 2428.46 846.214 2388.69 711.305 2321.57C441.489 2187.31 137.427 1943.67 -136.904 1622.44Z" stroke="url(#paint94_linear_9646_7156)"/>
<path d="M-144.033 1613.95C-412.551 1287.88 -599.12 946.496 -683.704 658.158C-725.997 513.988 -742.787 383.104 -731.593 274.038C-720.4 164.975 -681.231 77.7659 -611.641 20.8715C-542.051 -36.023 -448.561 -57.2701 -339.024 -46.9122C-229.484 -36.5542 -103.931 5.40938 29.7188 74.8889C297.017 213.847 596.614 462.822 865.133 788.887C1133.65 1114.95 1320.22 1456.34 1404.8 1744.67C1447.1 1888.84 1463.89 2019.73 1452.69 2128.79C1441.5 2237.86 1402.33 2325.07 1332.74 2381.96C1263.15 2438.86 1169.66 2460.1 1060.12 2449.75C950.584 2439.39 825.031 2397.42 691.382 2327.94C424.084 2188.99 124.486 1940.01 -144.033 1613.95Z" stroke="url(#paint95_linear_9646_7156)"/>
<path d="M-151.008 1605.32C-413.632 1274.51 -594.084 929.81 -673.544 639.931C-713.274 494.99 -727.75 363.78 -714.643 254.879C-701.536 145.98 -660.854 59.4255 -590.302 3.72049C-519.75 -51.9846 -425.94 -71.619 -316.648 -59.362C-207.353 -47.1048 -82.6111 -2.95684 49.7391 68.8551C314.438 212.478 609.48 466.705 872.105 797.507C1134.73 1128.31 1315.18 1473.01 1394.64 1762.89C1434.37 1907.83 1448.85 2039.04 1435.74 2147.95C1422.63 2256.84 1381.95 2343.4 1311.4 2399.1C1240.85 2454.81 1147.04 2474.44 1037.74 2462.19C928.449 2449.93 803.707 2405.78 671.357 2333.97C406.659 2190.35 111.616 1936.12 -151.008 1605.32Z" stroke="url(#paint96_linear_9646_7156)"/>
<path d="M-157.831 1596.57C-414.481 1261.13 -588.761 913.212 -663.072 621.879C-700.228 476.211 -712.385 344.715 -697.368 236.012C-682.352 127.311 -640.169 41.4374 -568.677 -13.0613C-497.185 -67.5599 -403.083 -85.5758 -294.069 -71.4236C-185.053 -57.2712 -61.1593 -10.9517 69.8506 63.1704C331.869 211.414 622.267 470.817 878.917 806.254C1135.57 1141.69 1309.85 1489.61 1384.16 1780.94C1421.31 1926.61 1433.47 2058.11 1418.45 2166.81C1403.44 2275.51 1361.26 2361.39 1289.76 2415.88C1218.27 2470.38 1124.17 2488.4 1015.16 2474.25C906.138 2460.09 782.245 2413.78 651.235 2339.65C389.217 2191.41 98.8188 1932.01 -157.831 1596.57Z" stroke="url(#paint97_linear_9646_7156)"/>
<path d="M-164.475 1587.72C-415.073 1247.75 -583.127 896.715 -652.266 604.018C-686.837 457.668 -696.672 325.927 -679.75 217.454C-662.828 108.984 -619.158 23.8172 -546.748 -29.4585C-474.337 -82.7342 -379.972 -99.1258 -271.27 -83.0828C-162.564 -67.0393 -39.5578 -18.5628 90.0723 57.8474C349.331 210.666 634.995 475.166 885.593 815.136C1136.19 1155.11 1304.24 1506.14 1373.38 1798.83C1407.95 1945.18 1417.79 2076.93 1400.87 2185.4C1383.95 2293.87 1340.28 2379.04 1267.87 2432.31C1195.45 2485.59 1101.09 2501.98 992.388 2485.94C883.682 2469.89 760.676 2421.42 631.046 2345.01C371.787 2192.19 86.1226 1927.69 -164.475 1587.72Z" stroke="url(#paint98_linear_9646_7156)"/>
<path d="M-170.986 1578.72C-415.455 1234.32 -577.233 880.282 -641.18 586.309C-673.154 439.321 -680.664 307.374 -661.842 199.165C-643.021 90.9585 -597.876 6.52531 -524.569 -45.5112C-451.262 -97.5477 -356.663 -112.31 -248.305 -94.381C-139.945 -76.4515 -17.8619 -25.8325 110.349 52.8421C366.768 210.19 647.613 479.707 892.081 824.106C1136.55 1168.5 1298.33 1522.54 1362.28 1816.51C1394.25 1963.5 1401.76 2095.45 1382.94 2203.66C1364.12 2311.86 1318.97 2396.3 1245.66 2448.33C1172.36 2500.37 1077.76 2515.13 969.401 2497.2C861.04 2479.27 738.957 2428.65 610.747 2349.98C354.327 2192.63 73.4828 1923.11 -170.986 1578.72Z" stroke="url(#paint99_linear_9646_7156)"/>
</g>
<defs>
<linearGradient id="paint0_linear_9646_7156" x1="97.5426" y1="939.306" x2="624.674" y2="1482.4" gradientUnits="userSpaceOnUse">
<stop stop-color="#4F46E5"/>
<stop offset="1" stop-color="#4F46E5"/>
</linearGradient>
<linearGradient id="paint1_linear_9646_7156" x1="102.31" y1="934.682" x2="620.049" y2="1486.61" gradientUnits="userSpaceOnUse">
<stop stop-color="#4F46E5"/>
<stop offset="1" stop-color="#4F46E5"/>
</linearGradient>
<linearGradient id="paint2_linear_9646_7156" x1="107.155" y1="930.15" x2="615.364" y2="1490.75" gradientUnits="userSpaceOnUse">
<stop stop-color="#4F46E5"/>
<stop offset="1" stop-color="#4F46E5"/>
</linearGradient>
<linearGradient id="paint3_linear_9646_7156" x1="112.074" y1="925.682" x2="610.618" y2="1494.79" gradientUnits="userSpaceOnUse">
<stop stop-color="#4F46E5"/>
<stop offset="1" stop-color="#4F46E5"/>
</linearGradient>
<linearGradient id="paint4_linear_9646_7156" x1="117.069" y1="921.303" x2="605.814" y2="1498.77" gradientUnits="userSpaceOnUse">
<stop stop-color="#4F46E5"/>
<stop offset="1" stop-color="#4F46E5"/>
</linearGradient>
<linearGradient id="paint5_linear_9646_7156" x1="122.138" y1="917.02" x2="600.952" y2="1502.68" gradientUnits="userSpaceOnUse">
<stop stop-color="#4F46E5"/>
<stop offset="1" stop-color="#4F46E5"/>
</linearGradient>
<linearGradient id="paint6_linear_9646_7156" x1="127.284" y1="912.822" x2="596.038" y2="1506.51" gradientUnits="userSpaceOnUse">
<stop stop-color="#4F46E5"/>
<stop offset="1" stop-color="#4F46E5"/>
</linearGradient>
<linearGradient id="paint7_linear_9646_7156" x1="132.496" y1="908.689" x2="591.065" y2="1510.25" gradientUnits="userSpaceOnUse">
<stop stop-color="#4F46E5"/>
<stop offset="1" stop-color="#4F46E5"/>
</linearGradient>
<linearGradient id="paint8_linear_9646_7156" x1="137.782" y1="904.677" x2="586.039" y2="1513.93" gradientUnits="userSpaceOnUse">
<stop stop-color="#4F46E5"/>
<stop offset="1" stop-color="#4F46E5"/>
</linearGradient>
<linearGradient id="paint9_linear_9646_7156" x1="143.137" y1="900.74" x2="580.961" y2="1517.53" gradientUnits="userSpaceOnUse">
<stop stop-color="#4F46E5"/>
<stop offset="1" stop-color="#4F46E5"/>
</linearGradient>
<linearGradient id="paint10_linear_9646_7156" x1="148.548" y1="896.896" x2="575.819" y2="1521.05" gradientUnits="userSpaceOnUse">
<stop stop-color="#4F46E5"/>
<stop offset="1" stop-color="#4F46E5"/>
</linearGradient>
<linearGradient id="paint11_linear_9646_7156" x1="154.035" y1="893.138" x2="570.634" y2="1524.49" gradientUnits="userSpaceOnUse">
<stop stop-color="#4F46E5"/>
<stop offset="1" stop-color="#4F46E5"/>
</linearGradient>
<linearGradient id="paint12_linear_9646_7156" x1="159.579" y1="889.491" x2="565.392" y2="1527.86" gradientUnits="userSpaceOnUse">
<stop stop-color="#4F46E5"/>
<stop offset="1" stop-color="#4F46E5"/>
</linearGradient>
<linearGradient id="paint13_linear_9646_7156" x1="165.188" y1="885.915" x2="560.1" y2="1531.13" gradientUnits="userSpaceOnUse">
<stop stop-color="#4F46E5"/>
<stop offset="1" stop-color="#4F46E5"/>
</linearGradient>
<linearGradient id="paint14_linear_9646_7156" x1="170.846" y1="882.446" x2="554.747" y2="1534.33" gradientUnits="userSpaceOnUse">
<stop stop-color="#4F46E5"/>
<stop offset="1" stop-color="#4F46E5"/>
</linearGradient>
<linearGradient id="paint15_linear_9646_7156" x1="176.582" y1="879.085" x2="549.363" y2="1537.47" gradientUnits="userSpaceOnUse">
<stop stop-color="#4F46E5"/>
<stop offset="1" stop-color="#4F46E5"/>
</linearGradient>
<linearGradient id="paint16_linear_9646_7156" x1="182.356" y1="875.814" x2="543.911" y2="1540.51" gradientUnits="userSpaceOnUse">
<stop stop-color="#4F46E5"/>
<stop offset="1" stop-color="#4F46E5"/>
</linearGradient>
<linearGradient id="paint17_linear_9646_7156" x1="188.191" y1="872.633" x2="538.415" y2="1543.47" gradientUnits="userSpaceOnUse">
<stop stop-color="#4F46E5"/>
<stop offset="1" stop-color="#4F46E5"/>
</linearGradient>
<linearGradient id="paint18_linear_9646_7156" x1="194.082" y1="869.577" x2="532.873" y2="1546.36" gradientUnits="userSpaceOnUse">
<stop stop-color="#4F46E5"/>
<stop offset="1" stop-color="#4F46E5"/>
</linearGradient>
<linearGradient id="paint19_linear_9646_7156" x1="200.018" y1="866.596" x2="527.277" y2="1549.15" gradientUnits="userSpaceOnUse">
<stop stop-color="#4F46E5"/>
<stop offset="1" stop-color="#4F46E5"/>
</linearGradient>
<linearGradient id="paint20_linear_9646_7156" x1="206.006" y1="863.736" x2="521.636" y2="1551.88" gradientUnits="userSpaceOnUse">
<stop stop-color="#4F46E5"/>
<stop offset="1" stop-color="#4F46E5"/>
</linearGradient>
<linearGradient id="paint21_linear_9646_7156" x1="212.043" y1="860.971" x2="515.948" y2="1554.51" gradientUnits="userSpaceOnUse">
<stop stop-color="#4F46E5"/>
<stop offset="1" stop-color="#4F46E5"/>
</linearGradient>
<linearGradient id="paint22_linear_9646_7156" x1="218.111" y1="858.295" x2="510.199" y2="1557.04" gradientUnits="userSpaceOnUse">
<stop stop-color="#4F46E5"/>
<stop offset="1" stop-color="#4F46E5"/>
</linearGradient>
<linearGradient id="paint23_linear_9646_7156" x1="224.236" y1="855.748" x2="504.417" y2="1559.52" gradientUnits="userSpaceOnUse">
<stop stop-color="#4F46E5"/>
<stop offset="1" stop-color="#4F46E5"/>
</linearGradient>
<linearGradient id="paint24_linear_9646_7156" x1="230.401" y1="853.285" x2="498.587" y2="1561.88" gradientUnits="userSpaceOnUse">
<stop stop-color="#4F46E5"/>
<stop offset="1" stop-color="#4F46E5"/>
</linearGradient>
<linearGradient id="paint25_linear_9646_7156" x1="236.601" y1="850.942" x2="492.708" y2="1564.18" gradientUnits="userSpaceOnUse">
<stop stop-color="#4F46E5"/>
<stop offset="1" stop-color="#4F46E5"/>
</linearGradient>
<linearGradient id="paint26_linear_9646_7156" x1="242.841" y1="848.698" x2="486.786" y2="1566.37" gradientUnits="userSpaceOnUse">
<stop stop-color="#4F46E5"/>
<stop offset="1" stop-color="#4F46E5"/>
</linearGradient>
<linearGradient id="paint27_linear_9646_7156" x1="249.119" y1="846.571" x2="480.821" y2="1568.49" gradientUnits="userSpaceOnUse">
<stop stop-color="#4F46E5"/>
<stop offset="1" stop-color="#4F46E5"/>
</linearGradient>
<linearGradient id="paint28_linear_9646_7156" x1="255.436" y1="844.549" x2="474.819" y2="1570.52" gradientUnits="userSpaceOnUse">
<stop stop-color="#4F46E5"/>
<stop offset="1" stop-color="#4F46E5"/>
</linearGradient>
<linearGradient id="paint29_linear_9646_7156" x1="261.777" y1="842.622" x2="468.765" y2="1572.44" gradientUnits="userSpaceOnUse">
<stop stop-color="#4F46E5"/>
<stop offset="1" stop-color="#4F46E5"/>
</linearGradient>
<linearGradient id="paint30_linear_9646_7156" x1="268.149" y1="840.823" x2="462.67" y2="1574.28" gradientUnits="userSpaceOnUse">
<stop stop-color="#4F46E5"/>
<stop offset="1" stop-color="#4F46E5"/>
</linearGradient>
<linearGradient id="paint31_linear_9646_7156" x1="274.543" y1="839.126" x2="456.528" y2="1576.03" gradientUnits="userSpaceOnUse">
<stop stop-color="#4F46E5"/>
<stop offset="1" stop-color="#4F46E5"/>
</linearGradient>
<linearGradient id="paint32_linear_9646_7156" x1="280.977" y1="837.545" x2="450.359" y2="1577.69" gradientUnits="userSpaceOnUse">
<stop stop-color="#4F46E5"/>
<stop offset="1" stop-color="#4F46E5"/>
</linearGradient>
<linearGradient id="paint33_linear_9646_7156" x1="287.433" y1="836.067" x2="444.148" y2="1579.24" gradientUnits="userSpaceOnUse">
<stop stop-color="#4F46E5"/>
<stop offset="1" stop-color="#4F46E5"/>
</linearGradient>
<linearGradient id="paint34_linear_9646_7156" x1="293.911" y1="834.717" x2="437.898" y2="1580.72" gradientUnits="userSpaceOnUse">
<stop stop-color="#4F46E5"/>
<stop offset="1" stop-color="#4F46E5"/>
</linearGradient>
<linearGradient id="paint35_linear_9646_7156" x1="300.394" y1="833.449" x2="431.595" y2="1582.07" gradientUnits="userSpaceOnUse">
<stop stop-color="#4F46E5"/>
<stop offset="1" stop-color="#4F46E5"/>
</linearGradient>
<linearGradient id="paint36_linear_9646_7156" x1="306.914" y1="832.32" x2="425.273" y2="1583.35" gradientUnits="userSpaceOnUse">
<stop stop-color="#4F46E5"/>
<stop offset="1" stop-color="#4F46E5"/>
</linearGradient>
<linearGradient id="paint37_linear_9646_7156" x1="313.437" y1="831.28" x2="418.904" y2="1584.5" gradientUnits="userSpaceOnUse">
<stop stop-color="#4F46E5"/>
<stop offset="1" stop-color="#4F46E5"/>
</linearGradient>
<linearGradient id="paint38_linear_9646_7156" x1="319.98" y1="830.364" x2="412.504" y2="1585.57" gradientUnits="userSpaceOnUse">
<stop stop-color="#4F46E5"/>
<stop offset="1" stop-color="#4F46E5"/>
</linearGradient>
<linearGradient id="paint39_linear_9646_7156" x1="326.537" y1="829.569" x2="406.072" y2="1586.54" gradientUnits="userSpaceOnUse">
<stop stop-color="#4F46E5"/>
<stop offset="1" stop-color="#4F46E5"/>
</linearGradient>
<linearGradient id="paint40_linear_9646_7156" x1="333.105" y1="828.879" x2="399.608" y2="1587.4" gradientUnits="userSpaceOnUse">
<stop stop-color="#4F46E5"/>
<stop offset="1" stop-color="#4F46E5"/>
</linearGradient>
<linearGradient id="paint41_linear_9646_7156" x1="339.676" y1="828.313" x2="393.109" y2="1588.17" gradientUnits="userSpaceOnUse">
<stop stop-color="#4F46E5"/>
<stop offset="1" stop-color="#4F46E5"/>
</linearGradient>
<linearGradient id="paint42_linear_9646_7156" x1="346.256" y1="827.839" x2="386.581" y2="1588.81" gradientUnits="userSpaceOnUse">
<stop stop-color="#4F46E5"/>
<stop offset="1" stop-color="#4F46E5"/>
</linearGradient>
<linearGradient id="paint43_linear_9646_7156" x1="352.843" y1="827.503" x2="380.028" y2="1589.36" gradientUnits="userSpaceOnUse">
<stop stop-color="#4F46E5"/>
<stop offset="1" stop-color="#4F46E5"/>
</linearGradient>
<linearGradient id="paint44_linear_9646_7156" x1="359.426" y1="827.262" x2="373.441" y2="1589.79" gradientUnits="userSpaceOnUse">
<stop stop-color="#4F46E5"/>
<stop offset="1" stop-color="#4F46E5"/>
</linearGradient>
<linearGradient id="paint45_linear_9646_7156" x1="366.014" y1="827.137" x2="366.833" y2="1590.11" gradientUnits="userSpaceOnUse">
<stop stop-color="#4F46E5"/>
<stop offset="1" stop-color="#4F46E5"/>
</linearGradient>
<linearGradient id="paint46_linear_9646_7156" x1="372.606" y1="827.143" x2="360.207" y2="1590.34" gradientUnits="userSpaceOnUse">
<stop stop-color="#4F46E5"/>
<stop offset="1" stop-color="#4F46E5"/>
</linearGradient>
<linearGradient id="paint47_linear_9646_7156" x1="379.185" y1="827.25" x2="353.549" y2="1590.45" gradientUnits="userSpaceOnUse">
<stop stop-color="#4F46E5"/>
<stop offset="1" stop-color="#4F46E5"/>
</linearGradient>
<linearGradient id="paint48_linear_9646_7156" x1="385.766" y1="827.468" x2="346.878" y2="1590.43" gradientUnits="userSpaceOnUse">
<stop stop-color="#4F46E5"/>
<stop offset="1" stop-color="#4F46E5"/>
</linearGradient>
<linearGradient id="paint49_linear_9646_7156" x1="392.326" y1="827.795" x2="340.174" y2="1590.3" gradientUnits="userSpaceOnUse">
<stop stop-color="#4F46E5"/>
<stop offset="1" stop-color="#4F46E5"/>
</linearGradient>
<linearGradient id="paint50_linear_9646_7156" x1="398.89" y1="828.245" x2="333.467" y2="1590.06" gradientUnits="userSpaceOnUse">
<stop stop-color="#4F46E5"/>
<stop offset="1" stop-color="#4F46E5"/>
</linearGradient>
<linearGradient id="paint51_linear_9646_7156" x1="405.442" y1="828.815" x2="326.744" y2="1589.72" gradientUnits="userSpaceOnUse">
<stop stop-color="#4F46E5"/>
<stop offset="1" stop-color="#4F46E5"/>
</linearGradient>
<linearGradient id="paint52_linear_9646_7156" x1="411.977" y1="829.497" x2="320.004" y2="1589.25" gradientUnits="userSpaceOnUse">
<stop stop-color="#4F46E5"/>
<stop offset="1" stop-color="#4F46E5"/>
</linearGradient>
<linearGradient id="paint53_linear_9646_7156" x1="418.487" y1="830.287" x2="313.244" y2="1588.66" gradientUnits="userSpaceOnUse">
<stop stop-color="#4F46E5"/>
<stop offset="1" stop-color="#4F46E5"/>
</linearGradient>
<linearGradient id="paint54_linear_9646_7156" x1="424.99" y1="831.182" x2="306.485" y2="1587.94" gradientUnits="userSpaceOnUse">
<stop stop-color="#4F46E5"/>
<stop offset="1" stop-color="#4F46E5"/>
</linearGradient>
<linearGradient id="paint55_linear_9646_7156" x1="431.476" y1="832.196" x2="299.722" y2="1587.11" gradientUnits="userSpaceOnUse">
<stop stop-color="#4F46E5"/>
<stop offset="1" stop-color="#4F46E5"/>
</linearGradient>
<linearGradient id="paint56_linear_9646_7156" x1="437.931" y1="833.324" x2="292.944" y2="1586.15" gradientUnits="userSpaceOnUse">
<stop stop-color="#4F46E5"/>
<stop offset="1" stop-color="#4F46E5"/>
</linearGradient>
<linearGradient id="paint57_linear_9646_7156" x1="444.368" y1="834.588" x2="286.17" y2="1585.1" gradientUnits="userSpaceOnUse">
<stop stop-color="#4F46E5"/>
<stop offset="1" stop-color="#4F46E5"/>
</linearGradient>
<linearGradient id="paint58_linear_9646_7156" x1="450.768" y1="835.922" x2="279.383" y2="1583.88" gradientUnits="userSpaceOnUse">
<stop stop-color="#4F46E5"/>
<stop offset="1" stop-color="#4F46E5"/>
</linearGradient>
<linearGradient id="paint59_linear_9646_7156" x1="457.16" y1="837.392" x2="272.618" y2="1582.56" gradientUnits="userSpaceOnUse">
<stop stop-color="#4F46E5"/>
<stop offset="1" stop-color="#4F46E5"/>
</linearGradient>
<linearGradient id="paint60_linear_9646_7156" x1="463.512" y1="838.967" x2="265.847" y2="1581.12" gradientUnits="userSpaceOnUse">
<stop stop-color="#4F46E5"/>
<stop offset="1" stop-color="#4F46E5"/>
</linearGradient>
<linearGradient id="paint61_linear_9646_7156" x1="469.832" y1="840.645" x2="259.082" y2="1579.53" gradientUnits="userSpaceOnUse">
<stop stop-color="#4F46E5"/>
<stop offset="1" stop-color="#4F46E5"/>
</linearGradient>
<linearGradient id="paint62_linear_9646_7156" x1="476.126" y1="842.445" x2="252.336" y2="1577.84" gradientUnits="userSpaceOnUse">
<stop stop-color="#4F46E5"/>
<stop offset="1" stop-color="#4F46E5"/>
</linearGradient>
<linearGradient id="paint63_linear_9646_7156" x1="482.372" y1="844.34" x2="245.587" y2="1576" gradientUnits="userSpaceOnUse">
<stop stop-color="#4F46E5"/>
<stop offset="1" stop-color="#4F46E5"/>
</linearGradient>
<linearGradient id="paint64_linear_9646_7156" x1="488.59" y1="846.362" x2="238.864" y2="1574.05" gradientUnits="userSpaceOnUse">
<stop stop-color="#4F46E5"/>
<stop offset="1" stop-color="#4F46E5"/>
</linearGradient>
<linearGradient id="paint65_linear_9646_7156" x1="494.771" y1="848.491" x2="232.161" y2="1571.97" gradientUnits="userSpaceOnUse">
<stop stop-color="#4F46E5"/>
<stop offset="1" stop-color="#4F46E5"/>
</linearGradient>
<linearGradient id="paint66_linear_9646_7156" x1="500.91" y1="850.722" x2="225.477" y2="1569.76" gradientUnits="userSpaceOnUse">
<stop stop-color="#4F46E5"/>
<stop offset="1" stop-color="#4F46E5"/>
</linearGradient>
<linearGradient id="paint67_linear_9646_7156" x1="507.001" y1="853.046" x2="218.812" y2="1567.41" gradientUnits="userSpaceOnUse">
<stop stop-color="#4F46E5"/>
<stop offset="1" stop-color="#4F46E5"/>
</linearGradient>
<linearGradient id="paint68_linear_9646_7156" x1="513.054" y1="855.488" x2="212.179" y2="1564.94" gradientUnits="userSpaceOnUse">
<stop stop-color="#4F46E5"/>
<stop offset="1" stop-color="#4F46E5"/>
</linearGradient>
<linearGradient id="paint69_linear_9646_7156" x1="519.057" y1="858.035" x2="205.574" y2="1562.33" gradientUnits="userSpaceOnUse">
<stop stop-color="#4F46E5"/>
<stop offset="1" stop-color="#4F46E5"/>
</linearGradient>
<linearGradient id="paint70_linear_9646_7156" x1="525.01" y1="860.679" x2="198.998" y2="1559.6" gradientUnits="userSpaceOnUse">
<stop stop-color="#4F46E5"/>
<stop offset="1" stop-color="#4F46E5"/>
</linearGradient>
<linearGradient id="paint71_linear_9646_7156" x1="530.916" y1="863.444" x2="192.461" y2="1556.75" gradientUnits="userSpaceOnUse">
<stop stop-color="#4F46E5"/>
<stop offset="1" stop-color="#4F46E5"/>
</linearGradient>
<linearGradient id="paint72_linear_9646_7156" x1="536.769" y1="866.306" x2="185.961" y2="1553.76" gradientUnits="userSpaceOnUse">
<stop stop-color="#4F46E5"/>
<stop offset="1" stop-color="#4F46E5"/>
</linearGradient>
<linearGradient id="paint73_linear_9646_7156" x1="542.564" y1="869.264" x2="179.499" y2="1550.64" gradientUnits="userSpaceOnUse">
<stop stop-color="#4F46E5"/>
<stop offset="1" stop-color="#4F46E5"/>
</linearGradient>
<linearGradient id="paint74_linear_9646_7156" x1="548.315" y1="872.331" x2="173.094" y2="1547.4" gradientUnits="userSpaceOnUse">
<stop stop-color="#4F46E5"/>
<stop offset="1" stop-color="#4F46E5"/>
</linearGradient>
<linearGradient id="paint75_linear_9646_7156" x1="553.99" y1="875.477" x2="166.717" y2="1544.01" gradientUnits="userSpaceOnUse">
<stop stop-color="#4F46E5"/>
<stop offset="1" stop-color="#4F46E5"/>
</linearGradient>
<linearGradient id="paint76_linear_9646_7156" x1="559.615" y1="878.746" x2="160.4" y2="1540.52" gradientUnits="userSpaceOnUse">
<stop stop-color="#4F46E5"/>
<stop offset="1" stop-color="#4F46E5"/>
</linearGradient>
<linearGradient id="paint77_linear_9646_7156" x1="565.188" y1="882.099" x2="154.146" y2="1536.88" gradientUnits="userSpaceOnUse">
<stop stop-color="#4F46E5"/>
<stop offset="1" stop-color="#4F46E5"/>
</linearGradient>
<linearGradient id="paint78_linear_9646_7156" x1="570.692" y1="885.555" x2="147.944" y2="1533.13" gradientUnits="userSpaceOnUse">
<stop stop-color="#4F46E5"/>
<stop offset="1" stop-color="#4F46E5"/>
</linearGradient>
<linearGradient id="paint79_linear_9646_7156" x1="576.129" y1="889.113" x2="141.798" y2="1529.26" gradientUnits="userSpaceOnUse">
<stop stop-color="#4F46E5"/>
<stop offset="1" stop-color="#4F46E5"/>
</linearGradient>
<linearGradient id="paint80_linear_9646_7156" x1="581.506" y1="892.768" x2="135.722" y2="1525.26" gradientUnits="userSpaceOnUse">
<stop stop-color="#4F46E5"/>
<stop offset="1" stop-color="#4F46E5"/>
</linearGradient>
<linearGradient id="paint81_linear_9646_7156" x1="586.805" y1="896.504" x2="129.702" y2="1521.13" gradientUnits="userSpaceOnUse">
<stop stop-color="#4F46E5"/>
<stop offset="1" stop-color="#4F46E5"/>
</linearGradient>
<linearGradient id="paint82_linear_9646_7156" x1="592.059" y1="900.338" x2="123.776" y2="1516.88" gradientUnits="userSpaceOnUse">
<stop stop-color="#4F46E5"/>
<stop offset="1" stop-color="#4F46E5"/>
</linearGradient>
<linearGradient id="paint83_linear_9646_7156" x1="597.226" y1="904.269" x2="117.907" y2="1512.51" gradientUnits="userSpaceOnUse">
<stop stop-color="#4F46E5"/>
<stop offset="1" stop-color="#4F46E5"/>
</linearGradient>
<linearGradient id="paint84_linear_9646_7156" x1="602.311" y1="908.285" x2="112.104" y2="1508.02" gradientUnits="userSpaceOnUse">
<stop stop-color="#4F46E5"/>
<stop offset="1" stop-color="#4F46E5"/>
</linearGradient>
<linearGradient id="paint85_linear_9646_7156" x1="607.334" y1="912.385" x2="106.392" y2="1503.41" gradientUnits="userSpaceOnUse">
<stop stop-color="#4F46E5"/>
<stop offset="1" stop-color="#4F46E5"/>
</linearGradient>
<linearGradient id="paint86_linear_9646_7156" x1="612.289" y1="916.595" x2="100.77" y2="1498.7" gradientUnits="userSpaceOnUse">
<stop stop-color="#4F46E5"/>
<stop offset="1" stop-color="#4F46E5"/>
</linearGradient>
<linearGradient id="paint87_linear_9646_7156" x1="617.15" y1="920.868" x2="95.2159" y2="1493.86" gradientUnits="userSpaceOnUse">
<stop stop-color="#4F46E5"/>
<stop offset="1" stop-color="#4F46E5"/>
</linearGradient>
<linearGradient id="paint88_linear_9646_7156" x1="621.951" y1="925.242" x2="89.7678" y2="1488.91" gradientUnits="userSpaceOnUse">
<stop stop-color="#4F46E5"/>
<stop offset="1" stop-color="#4F46E5"/>
</linearGradient>
<linearGradient id="paint89_linear_9646_7156" x1="626.659" y1="929.692" x2="84.3973" y2="1483.85" gradientUnits="userSpaceOnUse">
<stop stop-color="#4F46E5"/>
<stop offset="1" stop-color="#4F46E5"/>
</linearGradient>
<linearGradient id="paint90_linear_9646_7156" x1="631.29" y1="934.217" x2="79.126" y2="1478.68" gradientUnits="userSpaceOnUse">
<stop stop-color="#4F46E5"/>
<stop offset="1" stop-color="#4F46E5"/>
</linearGradient>
<linearGradient id="paint91_linear_9646_7156" x1="635.849" y1="938.836" x2="73.9612" y2="1473.41" gradientUnits="userSpaceOnUse">
<stop stop-color="#4F46E5"/>
<stop offset="1" stop-color="#4F46E5"/>
</linearGradient>
<linearGradient id="paint92_linear_9646_7156" x1="640.306" y1="943.536" x2="68.8784" y2="1468.03" gradientUnits="userSpaceOnUse">
<stop stop-color="#4F46E5"/>
<stop offset="1" stop-color="#4F46E5"/>
</linearGradient>
<linearGradient id="paint93_linear_9646_7156" x1="644.689" y1="948.302" x2="63.9098" y2="1462.54" gradientUnits="userSpaceOnUse">
<stop stop-color="#4F46E5"/>
<stop offset="1" stop-color="#4F46E5"/>
</linearGradient>
<linearGradient id="paint94_linear_9646_7156" x1="648.978" y1="953.148" x2="59.0374" y2="1456.96" gradientUnits="userSpaceOnUse">
<stop stop-color="#4F46E5"/>
<stop offset="1" stop-color="#4F46E5"/>
</linearGradient>
<linearGradient id="paint95_linear_9646_7156" x1="653.181" y1="958.08" x2="54.2757" y2="1451.29" gradientUnits="userSpaceOnUse">
<stop stop-color="#4F46E5"/>
<stop offset="1" stop-color="#4F46E5"/>
</linearGradient>
<linearGradient id="paint96_linear_9646_7156" x1="657.296" y1="963.076" x2="49.6237" y2="1445.51" gradientUnits="userSpaceOnUse">
<stop stop-color="#4F46E5"/>
<stop offset="1" stop-color="#4F46E5"/>
</linearGradient>
<linearGradient id="paint97_linear_9646_7156" x1="661.316" y1="968.149" x2="45.0805" y2="1439.64" gradientUnits="userSpaceOnUse">
<stop stop-color="#4F46E5"/>
<stop offset="1" stop-color="#4F46E5"/>
</linearGradient>
<linearGradient id="paint98_linear_9646_7156" x1="665.267" y1="973.308" x2="40.6735" y2="1433.71" gradientUnits="userSpaceOnUse">
<stop stop-color="#4F46E5"/>
<stop offset="1" stop-color="#4F46E5"/>
</linearGradient>
<linearGradient id="paint99_linear_9646_7156" x1="669.097" y1="978.506" x2="36.3561" y2="1427.65" gradientUnits="userSpaceOnUse">
<stop stop-color="#4F46E5"/>
<stop offset="1" stop-color="#4F46E5"/>
</linearGradient>
</defs>
</svg>
