<svg width="490" height="198" viewBox="0 0 490 198" fill="none" xmlns="http://www.w3.org/2000/svg">
  <g opacity="0.11">
    <path
      d="M-145.678 -172.839C-144.882 -170.659 -142.812 -169.32 -140.619 -169.336L-123.919 -48.5432C-124.058 -48.5043 -124.203 -48.4654 -124.342 -48.4154C-127.113 -47.4091 -128.538 -44.3457 -127.531 -41.5771C-126.857 -39.7313 -125.271 -38.486 -123.468 -38.1579L-130.024 92.6812C-130.491 92.7201 -130.964 92.8146 -131.426 92.9814C-134.197 93.9877 -135.622 97.0511 -134.615 99.8197C-133.607 102.588 -130.541 104.012 -127.77 103.005C-127.019 102.733 -126.367 102.305 -125.833 101.771L-52.076 158.84C-52.8495 160.163 -53.0499 161.809 -52.4878 163.36C-51.4806 166.129 -48.4143 167.552 -45.643 166.546C-45.0642 166.335 -44.5523 166.034 -44.1015 165.667L2.37657 209.621C1.36932 211.006 1.04655 212.852 1.6754 214.586C2.13728 215.859 3.0388 216.843 4.14621 217.444L-28.2082 301.193C-29.1987 300.949 -30.2672 300.988 -31.2967 301.366C-34.068 302.372 -35.4926 305.435 -34.4854 308.204C-33.6451 310.517 -31.369 311.884 -29.0262 311.69L-14.819 377.415C-14.819 377.415 -14.8468 377.421 -14.8579 377.426C-17.6293 378.432 -19.0539 381.496 -18.0466 384.264C-17.0394 387.033 -13.9731 388.456 -11.2018 387.45C-9.7104 386.911 -8.61967 385.771 -8.07433 384.409L72.9785 405.041C72.8783 405.847 72.9618 406.686 73.2568 407.503C74.264 410.272 77.3303 411.695 80.1016 410.689C82.8729 409.683 84.2975 406.62 83.2903 403.851C83.2513 403.745 83.2068 403.645 83.1623 403.545L228.607 316.226L228.974 316.604L229.28 315.821L231.651 314.397L229.77 314.57L266.125 221.625C267.121 221.875 268.201 221.836 269.242 221.458C271.373 220.685 272.703 218.695 272.747 216.56L351.53 208.026C351.574 208.22 351.63 208.409 351.702 208.598C352.71 211.367 355.776 212.79 358.547 211.784C361.074 210.867 362.476 208.243 361.942 205.691L572.712 249.845C572.657 250.584 572.746 251.34 573.013 252.08C574.02 254.849 577.086 256.272 579.858 255.266C582.629 254.259 584.054 251.196 583.046 248.427C582.662 247.371 581.972 246.509 581.121 245.903L664.773 88.6783C665.925 89.112 667.227 89.1564 668.473 88.7006C669.62 88.2836 670.527 87.5108 671.139 86.5601L739.404 118.667C739.053 119.756 739.042 120.963 739.465 122.119C740.472 124.888 743.538 126.311 746.31 125.305C748.246 124.599 749.521 122.898 749.771 120.991L818.453 121.102C818.503 121.485 818.592 121.869 818.731 122.247C819.739 125.016 822.805 126.439 825.576 125.433C828.347 124.426 829.772 121.363 828.765 118.594C828.687 118.383 828.598 118.183 828.498 117.988L930.324 47.9822C931.738 49.55 934.014 50.2005 936.123 49.4332C938.894 48.427 940.319 45.3636 939.312 42.595C938.655 40.7937 937.125 39.565 935.372 39.2036L940.619 -31.4197C941.215 -31.4197 941.821 -31.5198 942.411 -31.7366C944.96 -32.6651 946.368 -35.3337 945.789 -37.9133L1017.55 -57.155C1017.59 -57.0494 1017.62 -56.9382 1017.65 -56.8326C1018.66 -54.0639 1021.73 -52.6406 1024.5 -53.6469C1027.27 -54.6532 1028.7 -57.7165 1027.69 -60.4852C1026.68 -63.2539 1023.61 -64.6771 1020.84 -63.6709C1020.68 -63.6097 1020.52 -63.543 1020.37 -63.4707L1002.07 -98.774C1004.01 -100.119 1004.89 -102.649 1004.05 -104.973C1003.04 -107.742 999.975 -109.165 997.203 -108.159C995.428 -107.514 994.209 -106.024 993.826 -104.311L903.78 -112.567C903.757 -113.107 903.657 -113.657 903.463 -114.191C902.455 -116.959 899.389 -118.383 896.618 -117.376C894.575 -116.631 893.268 -114.78 893.123 -112.745L878.02 -110.483L794.229 -97.9179C793.172 -100.603 790.167 -101.971 787.44 -100.981C784.669 -99.9749 783.244 -96.9116 784.251 -94.1429C784.546 -93.3368 785.014 -92.6529 785.598 -92.1025L734.228 -24.4035C732.926 -25.1152 731.34 -25.2931 729.838 -24.7427C729.838 -24.7427 729.826 -24.7427 729.821 -24.7371L707.06 -68.2742L601.906 -13.9348C600.559 -15.8807 598.027 -16.7536 595.696 -15.9085C594.477 -15.4637 593.52 -14.6242 592.913 -13.5901L530.664 -39.8647C530.953 -40.8988 530.937 -42.0274 530.542 -43.1115C529.534 -45.8802 526.468 -47.3035 523.697 -46.2972C522.406 -45.8302 521.415 -44.9073 520.814 -43.7842L417.513 -82.5623C417.741 -83.5408 417.702 -84.5916 417.335 -85.6034C416.328 -88.3721 413.261 -89.7953 410.49 -88.789C407.719 -87.7828 406.294 -84.7194 407.301 -81.9508C407.696 -80.8611 408.414 -79.9882 409.305 -79.3822L376.11 -14.3463C374.98 -14.7521 373.706 -14.7743 372.493 -14.3351C370.066 -13.4512 368.67 -10.9938 369.037 -8.54205L200.994 39.1313L201.183 39.7929C200.548 38.0583 199.107 36.8464 197.438 36.4405L205.045 -31.8033C205.618 -31.8145 206.202 -31.9145 206.776 -32.1202C209.547 -33.1265 210.971 -36.1898 209.964 -38.9585C208.957 -41.7272 205.891 -43.1504 203.119 -42.1441C201.489 -41.5493 200.331 -40.2428 199.853 -38.7083L53.4346 -63.9488C53.4401 -64.5715 53.3455 -65.2109 53.1174 -65.828C52.3717 -67.8739 50.4963 -69.186 48.4484 -69.3249L45.9442 -132.07C46.1613 -132.12 46.3727 -132.176 46.5842 -132.254C49.3555 -133.26 50.7801 -136.323 49.7729 -139.092C48.7656 -141.861 45.6994 -143.284 42.928 -142.278C41.4478 -141.738 40.357 -140.615 39.8117 -139.259L-135.338 -174.301C-135.288 -175.024 -135.383 -175.769 -135.644 -176.491C-136.657 -179.26 -139.718 -180.683 -142.489 -179.677C-145.26 -178.671 -146.685 -175.607 -145.678 -172.839ZM-139.256 -169.525C-139.117 -169.564 -138.972 -169.603 -138.833 -169.653C-137.848 -170.009 -137.041 -170.632 -136.446 -171.399L-18.7478 -102.46L-118.237 -46.5918C-119.256 -47.9539 -120.869 -48.7434 -122.556 -48.7323L-139.256 -169.525ZM43.2285 -66.156C42.9614 -65.5555 42.8 -64.9051 42.7666 -64.2324L-117.341 -44.7238C-117.386 -44.8906 -117.436 -45.0574 -117.497 -45.2242C-117.519 -45.2798 -117.547 -45.3354 -117.569 -45.391L-17.3788 -101.654L43.2285 -66.156ZM202.385 -32.4427L155 88.834C154.004 88.5838 152.924 88.6227 151.889 89.0008C151.7 89.0675 151.522 89.1453 151.349 89.2343L118.472 40.0487L201.439 -33.0987C201.734 -32.843 202.051 -32.6261 202.39 -32.4427H202.385ZM976.046 -78.0757L943.552 -41.1601C942.183 -42.0775 940.413 -42.3554 938.75 -41.7494C938.738 -41.7494 938.733 -41.7383 938.722 -41.7383L902.055 -108.437C902.439 -108.787 902.761 -109.193 903.023 -109.632L976.046 -78.0813V-78.0757ZM769.654 101.337L869.45 22.675C869.695 22.914 869.962 23.1253 870.246 23.3143L825.443 115.381C824.335 115.008 823.1 114.992 821.92 115.425C820.573 115.915 819.544 116.893 818.959 118.083L769.654 101.337ZM76.4454 400.654C75.8445 400.871 75.3158 401.193 74.8539 401.577L32.2824 362.343L103.875 329.414L79.3503 400.443C78.4154 400.248 77.4137 400.298 76.451 400.649L76.4454 400.654ZM48.4985 -58.6728L77.1411 68.9474C76.6625 69.1197 76.2284 69.3588 75.8333 69.6423L0.111664 -10.4323L44.8702 -59.7458C45.8941 -58.9674 47.1852 -58.5727 48.4985 -58.6728ZM376.143 -4.30009C376.411 -4.39461 376.661 -4.51692 376.9 -4.65034L382.871 3.44997L360.133 72.4833L374.045 -3.9832C374.741 -3.94983 375.448 -4.04991 376.143 -4.30009ZM412.104 -78.4371L423.946 54.3646C423.723 54.4146 423.495 54.4758 423.273 54.5536C423.005 54.6481 422.755 54.7704 422.516 54.9039L384.396 3.19977L411.314 -78.5372C411.57 -78.4871 411.837 -78.4538 412.098 -78.4427L412.104 -78.4371ZM525.466 -35.9452L535.867 50.7731C535.695 50.8176 535.522 50.8676 535.35 50.9343C534.921 51.09 534.526 51.3013 534.164 51.5459L486.813 -1.43692L522.272 -37.0405C523.185 -36.3455 524.303 -35.9563 525.461 -35.9452H525.466ZM685.736 51.9906L668.874 78.8601C667.639 78.293 666.192 78.193 664.817 78.6933C664.561 78.7878 664.327 78.899 664.094 79.0269L601.433 -7.25223C601.505 -7.33006 601.572 -7.4079 601.639 -7.48573L685.741 51.9962L685.736 51.9906ZM731.641 -14.3852L740.628 53.6919L745.302 89.112C745.152 89.1509 745.002 89.1953 744.852 89.2509C744.022 89.5512 743.316 90.0404 742.759 90.6464L687.589 51.6237L729.342 -14.9078C730.055 -14.5686 730.839 -14.3852 731.641 -14.3852ZM794.257 -94.0762L887.33 -57.4552L873.512 13.5406C872.8 13.4961 872.065 13.5906 871.353 13.8519C871.103 13.9409 870.869 14.0576 870.641 14.1744L793.483 -92.6919C793.812 -93.1144 794.073 -93.5814 794.262 -94.0818L794.257 -94.0762ZM900.263 -107.341C900.491 -107.425 900.708 -107.525 900.919 -107.636L937.503 -41.0878C936.963 -40.7098 936.512 -40.2428 936.156 -39.7146L888.894 -58.3114L898.376 -107.019C899.005 -107.013 899.645 -107.108 900.268 -107.336L900.263 -107.341ZM874.859 13.8019L888.626 -56.9493L935.533 -38.4915C935.144 -37.374 935.121 -36.1176 935.555 -34.9167C935.622 -34.7388 935.694 -34.5664 935.778 -34.3996L876.784 14.9361C876.228 14.4246 875.566 14.0354 874.853 13.7963L874.859 13.8019ZM868.159 20.6847C868.198 20.7847 868.242 20.8792 868.281 20.9738L827.468 45.3025L750.873 90.9577C750.255 90.1738 749.437 89.5901 748.519 89.2509L770.617 -8.45309L867.886 18.1272C867.769 18.9612 867.847 19.8396 868.159 20.6847ZM741.969 91.7639C741.78 92.1197 741.63 92.4922 741.524 92.8813L671.968 83.708C671.968 83.0965 671.873 82.4794 671.651 81.8678C671.311 80.9394 670.738 80.1666 670.026 79.5829L686.849 52.7746L741.963 91.7583L741.969 91.7639ZM359.604 202.299L404.625 107.77L440.273 126.4C439.828 127.562 439.778 128.88 440.234 130.136C440.379 130.525 440.563 130.887 440.78 131.22L360.211 202.75C360.022 202.583 359.816 202.438 359.604 202.299ZM358.286 109.232L358.486 87.394C358.831 87.344 359.176 87.2551 359.515 87.1328C360.484 86.7825 361.28 86.1765 361.875 85.426L403.406 107.131L358.363 201.705C358.063 201.61 357.757 201.532 357.445 201.488L358.286 109.232ZM-24.4518 304.54C-24.8469 303.456 -25.5592 302.583 -26.4385 301.977L14.4914 222.397L105.216 322.709C104.71 323.304 104.342 323.999 104.136 324.744L-24.1346 306.43C-24.1291 305.802 -24.2237 305.163 -24.4518 304.54ZM-42.4543 159.708C-42.7047 159.018 -43.0887 158.407 -43.5617 157.901L1.76443 103.367C2.48787 103.823 3.31705 104.106 4.1796 104.173L5.10895 159.491L-42.2039 160.708C-42.254 160.375 -42.343 160.036 -42.4599 159.708H-42.4543ZM-27.3845 -35.4337C-26.906 -35.6061 -26.4719 -35.8452 -26.0768 -36.1342L-1.75815 -10.4156L-29.4102 20.0509C-30.0668 19.6005 -30.8237 19.2948 -31.6194 19.1725L-28.798 -35.128C-28.325 -35.1669 -27.852 -35.2614 -27.3845 -35.4282V-35.4337ZM153.597 99.336L156.764 163.594C156.697 163.616 156.625 163.633 156.558 163.655C156.185 163.794 155.834 163.966 155.512 164.172L116.34 117.455L149.546 97.3346C150.531 98.5688 152.022 99.2971 153.597 99.336ZM599.341 -5.8679C599.708 -6.00133 600.053 -6.17368 600.37 -6.37383L662.975 79.8275C662.357 80.4112 661.89 81.134 661.606 81.9234L576.814 63.7436L596.992 -5.5788C597.766 -5.50096 598.561 -5.58992 599.341 -5.8679ZM550.108 150.584C549.852 150.545 549.596 150.529 549.334 150.523L542.924 97.6237L538.499 61.1084C538.672 61.0639 538.839 61.0138 539.006 60.9527C540.564 60.3856 541.699 59.1681 542.211 57.7226L575.089 64.7721L550.108 150.584ZM405.214 106.53L425.042 64.8944C425.671 64.9 426.305 64.8055 426.934 64.5775C427.29 64.4497 427.619 64.2829 427.93 64.0939L443.256 123.37C442.293 123.759 441.498 124.399 440.924 125.188L405.214 106.53ZM444.581 123.02L429.088 63.1098C429.455 62.6984 429.75 62.237 429.973 61.7422L479.005 100.776L448.904 124.426C447.758 123.353 446.178 122.814 444.581 123.02ZM430.384 60.3189C430.435 59.9798 430.451 59.6406 430.435 59.2959L531.905 56.7663C531.955 57.1055 532.044 57.439 532.161 57.7726C532.278 58.0951 532.423 58.3953 532.595 58.6733L480.112 99.9087L430.384 60.3189ZM533.446 59.7518C534.426 60.7081 535.75 61.264 537.13 61.2752L541.644 98.491L547.971 150.684C547.798 150.729 547.631 150.779 547.464 150.84C546.735 151.107 546.107 151.513 545.584 152.019L481.225 100.782L533.452 59.7463L533.446 59.7518ZM420.262 61.8089C420.93 63.2488 422.176 64.2662 423.618 64.6832L403.996 105.891L362.576 84.2473C362.943 83.3967 363.094 82.4572 362.982 81.5065L420.262 61.8144V61.8089ZM7.29594 207.464L6.51129 160.831L40.9914 159.941C41.0471 160.275 41.1306 160.614 41.2474 160.942C41.5368 161.737 41.9987 162.415 42.5719 162.965L9.27705 208.098C8.66492 207.759 7.99156 207.542 7.29037 207.464H7.29594ZM6.44452 103.878C6.72833 103.773 6.99545 103.645 7.25143 103.5L42.7054 155.149C41.7149 156.033 41.0972 157.261 40.9581 158.568L6.48347 159.457L5.55414 104.112C5.85463 104.056 6.14958 103.984 6.44452 103.878ZM8.35327 102.672C9.45512 101.588 10.0506 100.064 9.93929 98.5021L35.9441 142.873L8.3477 102.672H8.35327ZM157.96 173.985L162.267 249.106C161.989 249.161 161.705 249.228 161.427 249.328C160.72 249.584 160.097 249.978 159.585 250.468L138.884 233.622L157.459 173.923C157.621 173.951 157.788 173.973 157.955 173.985H157.96ZM153.364 170.493C153.87 171.889 154.899 172.939 156.152 173.512L137.737 232.683L50.7968 161.92C51.114 161.403 51.3422 160.842 51.4757 160.247L153.046 168.903C153.069 169.431 153.174 169.97 153.364 170.493ZM49.9342 162.988L137.298 234.095L110.269 320.941C109.584 320.807 108.867 320.813 108.154 320.963L48.7712 163.816C49.1997 163.588 49.5892 163.31 49.9287 162.988H49.9342ZM111.95 321.564C111.827 321.491 111.705 321.43 111.577 321.369L138.444 235.029L158.717 251.53C157.888 252.869 157.654 254.565 158.238 256.161C158.522 256.939 158.973 257.606 159.529 258.151L146.224 275.88L111.944 321.564H111.95ZM163.642 249.022L159.368 173.907C159.652 173.851 159.93 173.784 160.208 173.684C161.505 173.212 162.496 172.294 163.097 171.166L190.815 183.397L164.582 249.178C164.276 249.1 163.965 249.05 163.647 249.028L163.642 249.022ZM163.581 169.876C163.809 168.903 163.764 167.858 163.397 166.846C163.191 166.284 162.902 165.784 162.551 165.345L221.712 104.084C221.901 104.223 222.096 104.345 222.296 104.456L191.327 182.113L163.586 169.87L163.581 169.876ZM219.87 101.627C220.07 102.183 220.359 102.677 220.704 103.117L161.321 164.227C161.071 164.061 160.804 163.916 160.526 163.794L180.342 96.5006L219.547 100.014C219.569 100.554 219.669 101.098 219.864 101.627H219.87ZM154.46 165.061C153.82 165.762 153.375 166.618 153.174 167.541L51.6037 158.89C51.5815 158.362 51.4757 157.823 51.2865 157.3C51.2476 157.189 51.1975 157.078 51.1474 156.972L115.155 118.189L154.46 165.067V165.061ZM50.4351 155.788C49.9843 155.221 49.4278 154.765 48.8046 154.431L77.7198 79.1381C78.7104 79.3771 79.7733 79.3382 80.8028 78.9657C81.1756 78.8323 81.5262 78.6544 81.849 78.4487L114.27 117.116L50.4462 155.794L50.4351 155.788ZM74.4087 71.1879L-27.379 26.133C-27.0061 25.0267 -26.995 23.798 -27.4235 22.6194C-27.6517 21.9967 -27.9856 21.4463 -28.3918 20.9738L-0.812119 -9.40935L74.8372 70.5874C74.6814 70.7765 74.5367 70.9766 74.4087 71.1879ZM-27.98 27.3673L73.8578 72.4444C73.5406 73.5007 73.5461 74.6626 73.9524 75.7801C74.4198 77.0588 75.3213 78.0428 76.4343 78.6433L47.5191 153.937C46.5341 153.698 45.4656 153.737 44.4361 154.109C44.3471 154.142 44.2692 154.181 44.1857 154.215L-29.3323 28.7794C-28.7925 28.3902 -28.3361 27.9121 -27.98 27.3728V27.3673ZM7.54637 94.4102C6.26088 93.5707 4.63593 93.2928 3.07219 93.7654L-22.1702 43.7124L7.54637 94.4102ZM-42.1649 162.081L5.13676 160.864L5.92142 207.481C5.57083 207.531 5.22023 207.62 4.86964 207.748C4.29089 207.959 3.77893 208.259 3.32817 208.626L-43.1555 164.672C-42.6046 163.916 -42.2651 163.021 -42.1705 162.087L-42.1649 162.081ZM11.7145 210.933C11.4251 210.138 10.9632 209.46 10.39 208.91L41.7483 166.396L14.1797 220.001L10.7573 216.215C11.9649 214.803 12.399 212.801 11.7145 210.928V210.933ZM44.4584 164.133C45.41 164.478 46.4562 164.55 47.4913 164.305L106.741 321.102L106.579 321.575C106.463 321.641 106.351 321.719 106.24 321.792L15.1647 221.091L44.4584 164.133ZM167.994 251.885C167.498 250.935 166.747 250.179 165.857 249.684L192.073 183.947L262.297 214.936C262.046 215.787 262.002 216.699 262.208 217.605L167.999 251.885H167.994ZM262.847 213.68L192.579 182.669L223.565 104.968C224.361 105.174 225.212 105.19 226.052 105.001L264.951 211.712C264.061 212.173 263.343 212.863 262.842 213.68H262.847ZM450.262 126.483C450.134 126.128 449.967 125.794 449.778 125.488L480.107 101.66L544.721 153.097C544.576 153.331 544.459 153.581 544.354 153.837L450.546 128.913C450.635 128.118 450.557 127.29 450.262 126.483ZM551.421 150.973L576.43 65.0668L661.322 83.2633C661.261 84.0083 661.35 84.7811 661.623 85.526C661.667 85.6483 661.723 85.7651 661.773 85.8874L553.43 152.502C552.885 151.835 552.195 151.313 551.421 150.973ZM595.651 -5.88458L575.467 63.4545L542.489 56.3827C542.551 55.6377 542.462 54.8705 542.189 54.12C541.966 53.5029 541.632 52.958 541.232 52.491L594.616 -6.40718C594.939 -6.19591 595.289 -6.02356 595.651 -5.88458ZM533.14 52.4577C532.428 53.2805 531.988 54.3035 531.872 55.3876L464.375 57.0721L430.173 57.9227C430.151 57.8616 430.14 57.8004 430.117 57.7393C429.923 57.2055 429.65 56.7274 429.322 56.2993L485.844 -0.45842L533.14 52.4577ZM421.408 55.7156C420.139 56.9276 419.533 58.7233 419.85 60.4968L362.643 80.1666C362.131 78.8657 361.163 77.876 359.988 77.3145L383.867 4.80093L421.408 55.7156ZM352.37 82.5628L262.586 94.2157L230.048 98.4409C230.009 98.2853 229.959 98.1296 229.903 97.9795C228.902 95.2331 225.88 93.8098 223.131 94.7716L198.773 46.2865C199.797 45.7194 200.576 44.8466 201.033 43.8292L352.353 81.879C352.342 82.1069 352.353 82.3348 352.37 82.5683V82.5628ZM197.493 46.8036L221.901 95.3887C220.755 96.1615 219.975 97.3346 219.681 98.6466L180.743 95.1552L194.972 46.8314C195.785 47.0148 196.642 47.0204 197.488 46.8036H197.493ZM159.218 163.405C158.862 163.349 158.494 163.327 158.127 163.343L154.966 99.1915C155.161 99.147 155.35 99.0914 155.539 99.0191C157.515 98.3019 158.8 96.5396 159.012 94.5881L178.951 96.3728L159.212 163.399L159.218 163.405ZM148.7 95.8335C148.739 95.9447 148.789 96.0503 148.839 96.1615L115.45 116.393L82.8952 77.5647C83.3237 77.0977 83.6631 76.564 83.9024 75.9858L148.433 93.2983C148.322 94.1267 148.4 94.994 148.706 95.8335H148.7ZM-0.834381 -11.433L-25.0807 -37.0738C-24.1235 -38.2469 -23.6894 -39.798 -23.9566 -41.3436L43.1618 -61.9863C43.351 -61.5193 43.5958 -61.0912 43.8908 -60.7132L-0.834381 -11.4386V-11.433ZM-24.3572 -42.6501C-25.498 -45.163 -28.3974 -46.4084 -31.0351 -45.4521C-32.9161 -44.7683 -34.1737 -43.1393 -34.4742 -41.2935L-113.535 -43.8009L40.3737 -62.5589L-24.3572 -42.6501ZM-117.247 -42.55L-34.5187 -39.9259C-34.4742 -39.4867 -34.3852 -39.053 -34.2294 -38.6194C-33.9344 -37.8077 -33.4614 -37.1183 -32.8715 -36.5679L-60.9298 2.12122L-117.875 -40.771C-117.564 -41.3214 -117.347 -41.9218 -117.247 -42.55ZM-31.7586 -35.7617C-31.2633 -35.4949 -30.729 -35.3059 -30.1726 -35.2002L-32.994 19.1447C-33.4169 19.1891 -33.8454 19.2781 -34.2628 19.4337C-35.0363 19.7173 -35.7041 20.1621 -36.2439 20.718L-59.8279 2.95515L-31.753 -35.7562L-31.7586 -35.7617ZM-37.073 21.8077C-37.8187 23.1198 -38.0079 24.7376 -37.4515 26.2665C-37.3457 26.5556 -37.2122 26.828 -37.0675 27.0837L-125.794 94.249C-125.839 94.2046 -125.889 94.1545 -125.933 94.11L-60.6348 4.06152L-37.073 21.8077ZM-124.581 96.1671C-124.687 95.878 -124.82 95.6056 -124.965 95.3498L-36.2383 28.1845C-35.5371 28.8961 -34.6579 29.3965 -33.6951 29.63L-41.1799 97.885L-124.297 97.3401C-124.347 96.9454 -124.436 96.5562 -124.576 96.1671H-124.581ZM-32.3317 29.769C-31.842 29.7579 -31.3468 29.6801 -30.8626 29.53L1.81451 94.3268C0.439987 95.1719 -0.455963 96.5896 -0.667419 98.1463L-39.7998 97.8905L-32.3317 29.7746V29.769ZM-0.673004 99.5139C-0.62291 99.9087 -0.533875 100.298 -0.394745 100.687C-0.144333 101.376 0.239655 101.988 0.707108 102.494L-44.6191 157.028C-45.1088 156.716 -45.643 156.488 -46.2106 156.35L-39.9501 99.2582L-0.678543 99.5139H-0.673004ZM8.52579 217.772C8.96542 217.611 9.3661 217.394 9.73338 217.144L13.5064 221.313L-24.1736 294.577L5.4317 217.944C6.42226 218.189 7.49072 218.15 8.52579 217.777V217.772ZM-24.3294 307.792L103.942 326.106C103.936 326.656 104.014 327.212 104.186 327.757L31.1861 361.331L-25.1141 309.444C-24.7579 308.943 -24.4964 308.382 -24.3294 307.792ZM113.04 322.403L160.637 258.979C161.95 259.719 163.558 259.908 165.089 259.352C167.432 258.501 168.806 256.177 168.567 253.809L186.102 272.033L113.235 322.598C113.174 322.531 113.113 322.47 113.046 322.403H113.04ZM169.502 252.797L262.664 218.9L187.243 271.238L169.502 252.797ZM266.242 211.245L227.343 104.534C227.794 104.301 228.206 104.012 228.562 103.672L302.319 163.527L269.792 211.684C268.718 211.145 267.472 210.972 266.242 211.25V211.245ZM229.425 102.6C229.937 101.766 230.22 100.798 230.22 99.803L297.422 91.08L317.161 88.5171L352.659 83.9082C352.659 83.9082 352.665 83.9305 352.671 83.9471C353.032 84.9367 353.661 85.754 354.44 86.3488L303.093 162.376L229.425 102.6ZM355.631 87.0382C356.099 87.2328 356.594 87.3607 357.106 87.4163L356.917 108.265L356.071 201.477C355.676 201.527 355.275 201.616 354.885 201.755C354.173 202.016 353.555 202.411 353.038 202.9L304.167 163.243L355.637 87.0382H355.631ZM361.118 203.778L441.665 132.265C443.084 133.544 445.148 134.022 447.068 133.322C447.669 133.105 448.203 132.782 448.671 132.393L490.263 170.593L361.435 204.312C361.341 204.123 361.229 203.945 361.113 203.778H361.118ZM449.606 131.381C449.856 131.026 450.056 130.648 450.212 130.242L543.992 155.154C543.931 155.605 543.931 156.066 543.992 156.527L491.843 170.176L449.6 131.376L449.606 131.381ZM544.348 157.856C545.3 160.197 547.743 161.52 550.169 161.109L575.823 245.403C575.367 245.609 574.955 245.87 574.593 246.176L493.051 171.277L544.348 157.851V157.856ZM577.137 245.003L551.482 160.708C554.003 159.574 555.266 156.666 554.304 154.026C554.259 153.903 554.204 153.787 554.154 153.664L662.497 87.0493C662.803 87.4274 663.159 87.761 663.548 88.039L579.897 245.264C579.034 244.941 578.083 244.836 577.137 244.997V245.003ZM671.796 85.0757L741.351 94.249C741.351 94.8606 741.446 95.4777 741.669 96.0837C742.32 97.8683 743.822 99.0914 745.553 99.4639L744.24 114.975C743.711 114.997 743.177 115.103 742.654 115.292C741.507 115.709 740.594 116.482 739.988 117.432L671.723 85.3259C671.751 85.2425 671.779 85.1535 671.801 85.0702L671.796 85.0757ZM745.603 115.097L746.916 99.5862C747.445 99.564 747.979 99.4583 748.502 99.2693C749.849 98.7801 750.878 97.8016 751.463 96.6118L766.811 101.827L748.196 116.498C747.478 115.798 746.577 115.314 745.603 115.103V115.097ZM751.908 95.3109C752.097 94.3824 752.047 93.3929 751.696 92.4366C751.658 92.3365 751.613 92.242 751.574 92.1475L864.464 24.8599L768.102 100.815L751.908 95.3165V95.3109ZM871.475 23.9148C872.583 24.2873 873.818 24.304 874.998 23.8703C876.222 23.4255 877.179 22.5805 877.786 21.5353L891.693 27.3562L827.624 114.03L871.475 23.9148ZM878.315 20.2677C878.599 19.2392 878.582 18.1161 878.187 17.032C878.053 16.6595 877.875 16.3093 877.669 15.9924L936.39 -33.1098L892.533 26.2164L878.315 20.2677ZM893.201 -111.361C893.256 -111.083 893.323 -110.805 893.423 -110.533C894.036 -108.854 895.41 -107.669 897.013 -107.225L887.597 -58.834L794.574 -95.4383C794.613 -95.8108 794.607 -96.1944 794.563 -96.5724L817.741 -100.047L893.201 -111.361ZM791.09 -90.9462C791.608 -91.1352 792.075 -91.3965 792.493 -91.7078L869.517 14.975C868.966 15.492 868.537 16.1202 868.253 16.8041L770.923 -9.79295L789.21 -90.6293C789.833 -90.6237 790.473 -90.7182 791.09 -90.9462ZM747.178 88.9507C747.011 88.9341 746.844 88.9285 746.671 88.9285L741.941 53.1026L733.004 -14.5631C733.165 -14.6075 733.321 -14.652 733.483 -14.7076C734.974 -15.2469 736.065 -16.3866 736.61 -17.7487L769.293 -8.82004L747.178 88.9507ZM726.638 -17.8933C726.966 -16.9926 727.511 -16.2421 728.19 -15.6639L686.465 50.8231L602.368 -8.6588C602.652 -9.28148 602.819 -9.95419 602.852 -10.6491L726.404 -18.7939C726.46 -18.4937 726.532 -18.1935 726.643 -17.8933H726.638ZM592.501 -9.05353C592.746 -8.38081 593.113 -7.79152 593.57 -7.29115L540.219 51.5737C539.345 50.9733 538.31 50.6341 537.231 50.623L526.83 -36.0953C527.002 -36.1398 527.175 -36.1898 527.342 -36.251C528.56 -36.6958 529.518 -37.5353 530.124 -38.5694L592.373 -12.2948C592.084 -11.2607 592.101 -10.1321 592.496 -9.04797L592.501 -9.05353ZM520.503 -39.4478C520.697 -38.914 520.97 -38.4359 521.298 -38.0078L485.9 -2.45987L416.355 -80.2773C416.617 -80.5775 416.84 -80.9111 417.029 -81.2614L520.324 -42.4833C520.096 -41.5048 520.135 -40.454 520.503 -39.4422V-39.4478ZM484.932 -1.48695L428.348 55.332C427.48 54.6704 426.422 54.2812 425.32 54.2367L413.478 -78.565C413.701 -78.615 413.929 -78.6762 414.152 -78.754C414.58 -78.9097 414.975 -79.1209 415.337 -79.3655L484.937 -1.48695H484.932ZM383.4 1.8488L378.013 -5.46204C379.493 -6.87973 380.083 -9.08688 379.338 -11.1384C378.943 -12.228 378.225 -13.1009 377.334 -13.7069L408.876 -75.5072L383.4 1.8488ZM372.699 -4.23338L357.957 76.7975C357.262 76.7641 356.555 76.8642 355.859 77.1144C354.24 77.7037 353.082 78.9991 352.598 80.5224L201.428 42.5116C201.539 41.85 201.522 41.155 201.366 40.4712L369.415 -7.20776C370.044 -5.74004 371.263 -4.69482 372.693 -4.23338H372.699ZM193.687 46.3477L179.352 95.0274L158.995 93.2038C158.945 92.8591 158.856 92.52 158.734 92.1808C158.455 91.4192 158.021 90.7632 157.482 90.2294L193.186 46.0475C193.347 46.1586 193.514 46.2532 193.687 46.3477ZM150.208 89.9959C149.585 90.5408 149.101 91.2246 148.789 91.9752L84.2586 74.6626C84.3699 73.8342 84.292 72.9669 83.9859 72.1275C83.8356 71.7105 83.6297 71.3269 83.3904 70.9711L117.431 40.9604L150.208 89.9904V89.9959ZM82.4834 69.9425C81.3982 68.9974 79.9513 68.5137 78.4822 68.6527L49.8452 -58.9508C49.8452 -58.9508 49.9008 -58.9675 49.9287 -58.9786C50.1123 -59.0453 50.2904 -59.1231 50.4629 -59.2065L116.657 39.8096L82.4834 69.9425ZM-122.094 -38.0912C-121.626 -38.1301 -121.153 -38.2247 -120.691 -38.3914C-119.918 -38.675 -119.25 -39.1198 -118.71 -39.6757L-61.7423 3.23312L-127.058 93.3039C-127.553 93.037 -128.093 92.8424 -128.655 92.7424L-122.099 -38.0968L-122.094 -38.0912ZM-124.987 100.687C-124.631 100.081 -124.403 99.4139 -124.303 98.7134L-41.3246 99.2527L-47.5685 156.205C-48.1416 156.216 -48.7204 156.316 -49.288 156.522C-50.0393 156.794 -50.6904 157.222 -51.2246 157.756L-124.982 100.687H-124.987ZM-27.6795 311.39C-27.6795 311.39 -27.6517 311.384 -27.6405 311.378C-27.0395 311.162 -26.5109 310.839 -26.0434 310.456L29.8394 361.959L-8.50282 379.594C-9.56572 377.904 -11.4912 376.954 -13.4667 377.12L-27.6739 311.395L-27.6795 311.39ZM-7.73486 383.064C-7.64583 382.335 -7.70705 381.579 -7.94077 380.84L30.9301 362.966L73.919 402.589C73.6741 402.934 73.4738 403.306 73.318 403.701L-7.73486 383.069V383.064ZM82.4556 402.355C81.9603 401.733 81.3426 401.238 80.647 400.893L105.238 329.658C106.646 331.282 108.956 331.96 111.098 331.182C113.196 330.42 114.521 328.474 114.604 326.378L225.796 316.299L82.45 402.355H82.4556ZM114.476 325.016C114.426 324.794 114.365 324.571 114.287 324.354C114.209 324.138 114.109 323.932 114.009 323.732L187.059 273.04L227.232 314.798L114.476 325.022V325.016ZM188.205 272.239L263.454 220.023C263.855 220.468 264.328 220.83 264.845 221.113L228.473 314.097L188.205 272.239ZM272.597 215.192C272.553 215.003 272.497 214.809 272.425 214.619C272.107 213.752 271.59 213.013 270.939 212.446L303.393 164.394L352.175 203.978C351.68 204.779 351.402 205.707 351.38 206.664L272.597 215.192ZM364.719 204.874L491.47 171.7L573.664 247.193C573.38 247.599 573.146 248.038 572.985 248.511L364.724 204.879L364.719 204.874ZM749.765 119.629C749.715 119.245 749.626 118.861 749.487 118.483C749.37 118.161 749.22 117.855 749.053 117.571L768.363 102.349L818.509 119.384C818.486 119.501 818.464 119.617 818.447 119.74L749.765 119.629ZM827.713 116.871C827.624 116.771 827.535 116.682 827.44 116.593L893 27.901L929.145 43.023C928.861 44.0516 928.877 45.1746 929.273 46.2587C929.35 46.47 929.439 46.6701 929.54 46.8647L827.713 116.871ZM933.992 39.1091C933.48 39.1369 932.962 39.237 932.456 39.4205C931.231 39.8652 930.274 40.7103 929.668 41.7555L893.841 26.7613L937.542 -32.3593C938.06 -32.0035 938.638 -31.7366 939.245 -31.5754L933.992 39.1091ZM945.594 -38.5582C945.361 -39.1976 945.016 -39.7647 944.587 -40.2484L977.376 -77.4975L1017.55 -60.1405C1017.39 -59.6124 1017.31 -59.062 1017.33 -58.5005L945.416 -39.2198L945.594 -38.5527V-38.5582ZM1018.09 -61.4025L978.327 -78.5872L996.046 -98.7129C997.415 -97.7955 999.179 -97.5176 1000.85 -98.1236L1019.21 -62.7035C1018.77 -62.331 1018.39 -61.8918 1018.1 -61.4025H1018.09ZM993.686 -102.933C993.709 -102.393 993.809 -101.843 994.004 -101.309C994.237 -100.67 994.582 -100.103 995.011 -99.6191L977.003 -79.1598L903.568 -110.888C903.596 -110.988 903.624 -111.089 903.646 -111.189L993.692 -102.933H993.686ZM786.705 -91.2797C787.067 -91.0851 787.445 -90.9295 787.841 -90.8183L769.593 -10.1543L736.949 -19.0775C737.05 -19.8836 736.966 -20.7231 736.671 -21.5404C736.376 -22.3409 735.909 -23.0303 735.33 -23.5807L786.705 -91.2797ZM706.47 -66.4062L728.597 -24.0811C727.289 -23.1693 726.471 -21.7238 726.337 -20.1616L602.724 -12.0112C602.674 -12.2392 602.613 -12.4727 602.529 -12.7006L706.465 -66.4062H706.47ZM196.069 36.3071C195.495 36.3182 194.911 36.4183 194.338 36.624C191.567 37.6303 190.142 40.6936 191.149 43.4623C191.383 44.1016 191.728 44.6631 192.151 45.1413L156.385 89.3955C156.352 89.3733 156.313 89.3566 156.274 89.3399L203.659 -31.9368C203.659 -31.9368 203.67 -31.9368 203.676 -31.9368L196.069 36.3071ZM199.613 -37.3407C199.586 -36.6624 199.686 -35.9675 199.931 -35.2948C200.081 -34.8778 200.287 -34.4942 200.526 -34.1384L117.698 38.8923L51.6093 -59.9737C52.4051 -60.6687 52.9671 -61.5749 53.2454 -62.5756L199.613 -37.3462V-37.3407ZM47.0794 -69.2138C46.8123 -69.1582 46.5397 -69.0914 46.2725 -68.9969C45.3209 -68.6522 44.5363 -68.0629 43.9464 -67.3291L-15.9932 -102.438L40.435 -134.127C41.4032 -132.788 42.9392 -131.981 44.5752 -131.926L47.0739 -69.2193L47.0794 -69.2138ZM39.4722 -137.913C39.3665 -137.102 39.45 -136.251 39.7505 -135.423C39.7616 -135.389 39.7783 -135.362 39.7894 -135.328L-17.3566 -103.238L-135.75 -172.583C-135.7 -172.705 -135.65 -172.828 -135.605 -172.95L39.4722 -137.908V-137.913Z"
      fill="#4F46E5"/>
  </g>
</svg>
