<svg width="30" height="30" viewBox="0 0 30 30" fill="none" xmlns="http://www.w3.org/2000/svg">
<path d="M14.9987 16.6251C14.8362 16.6251 14.6737 16.5876 14.5237 16.5001L3.48622 10.1126C3.03622 9.85012 2.88619 9.27508 3.14869 8.82508C3.41119 8.37508 3.97369 8.22506 4.43619 8.48756L14.9987 14.6001L25.4987 8.5251C25.9487 8.2626 26.5237 8.42512 26.7862 8.86262C27.0487 9.31262 26.8862 9.88758 26.4487 10.1501L15.4862 16.5001C15.3237 16.5751 15.1612 16.6251 14.9987 16.6251Z" fill="#DC2626"/>
<path d="M15 27.9498C14.4875 27.9498 14.0625 27.5248 14.0625 27.0123V15.6748C14.0625 15.1623 14.4875 14.7373 15 14.7373C15.5125 14.7373 15.9375 15.1623 15.9375 15.6748V27.0123C15.9375 27.5248 15.5125 27.9498 15 27.9498Z" fill="#DC2626"/>
<path d="M15.0016 28.4373C13.8641 28.4373 12.7766 28.1748 11.9516 27.7123L5.27656 24.0123C3.46406 23.0123 2.03906 20.5998 2.03906 18.5248V11.4498C2.03906 9.37477 3.46406 6.97483 5.27656 5.96233L11.9516 2.2623C13.6516 1.3123 16.3265 1.3123 18.039 2.2623L24.714 5.96233C26.5265 6.96233 27.9515 9.37477 27.9515 11.4498V16.0248C27.9515 16.5373 27.5265 16.9623 27.014 16.9623C26.5015 16.9623 26.0765 16.5373 26.0765 16.0248V11.4498C26.0765 10.0748 25.014 8.27484 23.814 7.61234L17.139 3.91231C16.0015 3.27481 14.014 3.27481 12.8765 3.91231L6.20155 7.61234C4.98905 8.28734 3.93905 10.0748 3.93905 11.4498V18.5248C3.93905 19.8998 5.00155 21.6998 6.20155 22.3623L12.8765 26.0623C13.9765 26.6748 16.0515 26.6748 17.139 26.0623C17.589 25.8123 18.1641 25.9748 18.4141 26.4248C18.6641 26.8748 18.5016 27.4498 18.0516 27.6998C17.2266 28.1748 16.1391 28.4373 15.0016 28.4373Z" fill="#DC2626"/>
<path d="M24 27.6875C21.275 27.6875 19.0625 25.475 19.0625 22.75C19.0625 20.025 21.275 17.8125 24 17.8125C26.725 17.8125 28.9375 20.025 28.9375 22.75C28.9375 25.475 26.725 27.6875 24 27.6875ZM24 19.6875C22.3125 19.6875 20.9375 21.0625 20.9375 22.75C20.9375 24.4375 22.3125 25.8125 24 25.8125C25.6875 25.8125 27.0625 24.4375 27.0625 22.75C27.0625 21.0625 25.6875 19.6875 24 19.6875Z" fill="#DC2626"/>
<path d="M28.7508 28.4373C28.5133 28.4373 28.2758 28.3499 28.0883 28.1624L26.8383 26.9124C26.4758 26.5499 26.4758 25.9498 26.8383 25.5873C27.2008 25.2248 27.8008 25.2248 28.1633 25.5873L29.4133 26.8373C29.7758 27.1998 29.7758 27.7999 29.4133 28.1624C29.2258 28.3499 28.9883 28.4373 28.7508 28.4373Z" fill="#DC2626"/>
</svg>
