<svg width="31" height="30" viewBox="0 0 31 30" fill="none" xmlns="http://www.w3.org/2000/svg">
<path d="M15.5 28.4375C8.0875 28.4375 2.0625 22.4125 2.0625 15C2.0625 7.5875 8.0875 1.5625 15.5 1.5625C22.9125 1.5625 28.9375 7.5875 28.9375 15C28.9375 22.4125 22.9125 28.4375 15.5 28.4375ZM15.5 3.4375C9.125 3.4375 3.9375 8.625 3.9375 15C3.9375 21.375 9.125 26.5625 15.5 26.5625C21.875 26.5625 27.0625 21.375 27.0625 15C27.0625 8.625 21.875 3.4375 15.5 3.4375Z" fill="#0D9488"/>
<path d="M13.7258 19.475C13.4758 19.475 13.2383 19.375 13.0633 19.2L9.52578 15.6625C9.16328 15.3 9.16328 14.7 9.52578 14.3375C9.88828 13.975 10.4883 13.975 10.8508 14.3375L13.7258 17.2125L20.1508 10.7875C20.5133 10.425 21.1133 10.425 21.4758 10.7875C21.8383 11.15 21.8383 11.75 21.4758 12.1125L14.3883 19.2C14.2133 19.375 13.9758 19.475 13.7258 19.475Z" fill="#0D9488"/>
</svg>
