<svg width="100%" height="100%"  viewBox="0 0 480 351" fill="none" xmlns="http://www.w3.org/2000/svg">
  <style>
    svg {
      max-width: 480px;
      max-height: 351px;
    }
  </style>
<circle cx="240" cy="175.501" r="174.545" fill="#E0E7FF"/>
<circle cx="56.7275" cy="44.5913" r="17.4545" fill="#F2F4F7"/>
<circle cx="432" cy="275.864" r="13.0909" fill="#F2F4F7"/>
<circle cx="54.5452" cy="302.047" r="21.8182" fill="#F2F4F7"/>
<circle cx="458.182" cy="101.318" r="21.8182" fill="#F2F4F7"/>
<circle cx="416.727" cy="24.9544" r="15.2727" fill="#F2F4F7"/>
<g filter="url(#filter0_dd_9646_56906)">
<path fill-rule="evenodd" clip-rule="evenodd" d="M247.605 35.8652C211.09 35.8652 178.79 53.9083 159.133 81.5652C152.714 80.0513 146.019 79.2502 139.137 79.2502C91.2133 79.2502 52.3633 118.1 52.3633 166.024C52.3633 213.948 91.2133 252.798 139.137 252.798H139.137V252.8H356.073V252.799C398.006 252.799 431.999 218.805 431.999 176.872C431.999 134.939 398.006 100.945 356.072 100.945C353.094 100.945 350.155 101.116 347.266 101.45C330.644 62.8722 292.278 35.8652 247.605 35.8652Z" fill="#F9FAFB"/>
<circle cx="139.138" cy="166.024" r="86.774" fill="url(#paint0_linear_9646_56906)"/>
<circle cx="247.605" cy="144.331" r="108.468" fill="url(#paint1_linear_9646_56906)"/>
<circle cx="356.072" cy="176.871" r="75.9273" fill="url(#paint2_linear_9646_56906)"/>
</g>
<g filter="url(#filter1_b_9646_56906)">
<path d="M178.909 245.319C178.909 211.58 206.261 184.229 240 184.229C273.74 184.229 301.091 211.58 301.091 245.319C301.091 279.059 273.74 306.41 240 306.41C206.261 306.41 178.909 279.059 178.909 245.319Z" fill="#344054" fill-opacity="0.4"/>
<path d="M262.909 268.228L254 259.319M260.364 244.047C260.364 255.996 250.677 265.683 238.727 265.683C226.778 265.683 217.091 255.996 217.091 244.047C217.091 232.097 226.778 222.41 238.727 222.41C250.677 222.41 260.364 232.097 260.364 244.047Z" stroke="white" stroke-width="4.36364" stroke-linecap="round" stroke-linejoin="round"/>
</g>
<defs>
<filter id="filter0_dd_9646_56906" x="32.3633" y="35.8633" width="419.637" height="256.938" filterUnits="userSpaceOnUse" color-interpolation-filters="sRGB">
<feFlood flood-opacity="0" result="BackgroundImageFix"/>
<feColorMatrix in="SourceAlpha" type="matrix" values="0 0 0 0 0 0 0 0 0 0 0 0 0 0 0 0 0 0 127 0" result="hardAlpha"/>
<feMorphology radius="4" operator="erode" in="SourceAlpha" result="effect1_dropShadow_9646_56906"/>
<feOffset dy="8"/>
<feGaussianBlur stdDeviation="4"/>
<feComposite in2="hardAlpha" operator="out"/>
<feColorMatrix type="matrix" values="0 0 0 0 0.0627451 0 0 0 0 0.0941176 0 0 0 0 0.156863 0 0 0 0.03 0"/>
<feBlend mode="normal" in2="BackgroundImageFix" result="effect1_dropShadow_9646_56906"/>
<feColorMatrix in="SourceAlpha" type="matrix" values="0 0 0 0 0 0 0 0 0 0 0 0 0 0 0 0 0 0 127 0" result="hardAlpha"/>
<feMorphology radius="4" operator="erode" in="SourceAlpha" result="effect2_dropShadow_9646_56906"/>
<feOffset dy="20"/>
<feGaussianBlur stdDeviation="12"/>
<feComposite in2="hardAlpha" operator="out"/>
<feColorMatrix type="matrix" values="0 0 0 0 0.0627451 0 0 0 0 0.0941176 0 0 0 0 0.156863 0 0 0 0.08 0"/>
<feBlend mode="normal" in2="effect1_dropShadow_9646_56906" result="effect2_dropShadow_9646_56906"/>
<feBlend mode="normal" in="SourceGraphic" in2="effect2_dropShadow_9646_56906" result="shape"/>
</filter>
<filter id="filter1_b_9646_56906" x="170.909" y="176.229" width="138.182" height="138.182" filterUnits="userSpaceOnUse" color-interpolation-filters="sRGB">
<feFlood flood-opacity="0" result="BackgroundImageFix"/>
<feGaussianBlur in="BackgroundImageFix" stdDeviation="4"/>
<feComposite in2="SourceAlpha" operator="in" result="effect1_backgroundBlur_9646_56906"/>
<feBlend mode="normal" in="SourceGraphic" in2="effect1_backgroundBlur_9646_56906" result="shape"/>
</filter>
<linearGradient id="paint0_linear_9646_56906" x1="72.5077" y1="108.691" x2="225.912" y2="252.798" gradientUnits="userSpaceOnUse">
<stop stop-color="#C7D2FE"/>
<stop offset="0.350715" stop-color="white" stop-opacity="0"/>
</linearGradient>
<linearGradient id="paint1_linear_9646_56906" x1="164.318" y1="72.6648" x2="356.073" y2="252.798" gradientUnits="userSpaceOnUse">
<stop stop-color="#C7D2FE"/>
<stop offset="0.350715" stop-color="white" stop-opacity="0"/>
</linearGradient>
<linearGradient id="paint2_linear_9646_56906" x1="297.771" y1="126.704" x2="432" y2="252.798" gradientUnits="userSpaceOnUse">
<stop stop-color="#C7D2FE"/>
<stop offset="0.350715" stop-color="white" stop-opacity="0"/>
</linearGradient>
</defs>
</svg>
