<svg width="276" height="112" viewBox="0 0 276 112" fill="none" xmlns="http://www.w3.org/2000/svg">
<g opacity="0.15">
<path d="M109.113 234.651C63.6857 251.388 19.7603 259.086 -14.5282 258.012C-31.6733 257.475 -46.3931 254.745 -57.6829 249.867C-68.9715 244.99 -76.8062 237.977 -80.2385 228.883C-83.6708 219.79 -82.3964 209.421 -77.0962 198.431C-71.7955 187.441 -62.479 175.855 -49.8761 164.358C-24.6715 141.364 13.6307 118.766 59.0581 102.029C104.486 85.2917 148.411 77.5933 182.7 78.6674C199.845 79.2045 214.564 81.9345 225.854 86.8123C237.143 91.6896 244.978 98.7023 248.41 107.796C251.842 116.89 250.568 127.259 245.268 138.248C239.967 149.239 230.65 160.825 218.047 172.322C192.843 195.316 154.541 217.913 109.113 234.651Z" stroke="url(#paint0_linear_4001_58304)" stroke-opacity="0.2" stroke-width="0.599139"/>
<path d="M107.92 235.079C62.2083 251.042 18.1595 257.992 -16.0986 256.333C-33.2285 255.504 -47.8948 252.523 -59.0936 247.452C-70.2915 242.382 -77.9983 235.236 -81.267 226.083C-84.5357 216.931 -83.0764 206.584 -77.5816 195.684C-72.0862 184.784 -62.5657 173.357 -49.7614 162.074C-24.1542 139.509 14.5393 117.564 60.2511 101.601C105.963 85.6378 150.012 78.688 184.27 80.3467C201.4 81.1761 216.066 84.1571 227.265 89.2274C238.463 94.2973 246.169 101.444 249.438 110.596C252.707 119.749 251.247 130.096 245.753 140.995C240.257 151.896 230.737 163.323 217.933 174.606C192.325 197.17 153.632 219.115 107.92 235.079Z" stroke="url(#paint1_linear_4001_58304)" stroke-opacity="0.2" stroke-width="0.599139"/>
<path d="M106.72 235.487C60.7377 250.672 16.5791 256.871 -17.6383 254.628C-34.7478 253.507 -49.3559 250.275 -60.4606 245.014C-71.5642 239.753 -79.1408 232.475 -82.2449 223.267C-85.3489 214.058 -83.7052 203.736 -78.0174 192.93C-72.3291 182.123 -62.6075 170.858 -49.6058 159.793C-23.6037 137.665 15.4693 116.379 61.4515 101.194C107.434 86.0101 151.592 79.8111 185.81 82.0538C202.919 83.1753 217.527 86.4064 228.632 91.6677C239.735 96.9286 247.312 104.206 250.416 113.415C253.52 122.623 251.876 132.946 246.189 143.752C240.5 154.559 230.779 165.824 217.777 176.889C191.775 199.017 152.702 220.303 106.72 235.487Z" stroke="url(#paint2_linear_4001_58304)" stroke-opacity="0.2" stroke-width="0.599139"/>
<path d="M105.513 235.874C59.2746 250.274 15.0196 255.721 -19.1466 252.895C-36.2304 251.481 -50.7761 248.001 -61.7832 242.55C-72.7892 237.1 -80.2332 229.693 -83.1717 220.431C-86.1102 211.17 -84.2826 200.875 -78.4036 190.166C-72.524 179.456 -62.6043 168.356 -49.4091 157.513C-23.02 135.827 16.4206 115.207 62.6591 100.806C108.898 86.4053 153.153 80.959 187.319 83.7851C204.403 85.1982 218.948 88.6784 229.955 94.1292C240.961 99.5795 248.405 106.987 251.344 116.248C254.282 125.51 252.455 135.805 246.576 146.514C240.696 157.224 230.776 168.323 217.581 179.167C191.192 200.853 151.752 221.473 105.513 235.874Z" stroke="url(#paint3_linear_4001_58304)" stroke-opacity="0.2" stroke-width="0.599139"/>
<path d="M104.299 236.24C57.8181 249.852 13.4802 254.545 -20.6243 251.136C-37.6774 249.431 -52.1562 245.703 -63.0623 240.065C-73.9673 234.427 -81.2766 226.892 -84.0486 217.581C-86.8206 208.269 -84.8097 198.005 -78.7412 187.396C-72.6722 176.786 -62.5573 165.855 -49.1727 155.236C-22.4047 134 17.3916 114.052 63.8723 100.439C110.353 86.8261 154.691 82.134 188.796 85.5427C205.849 87.2471 220.327 90.9753 231.233 96.6138C242.138 102.252 249.448 109.786 252.22 119.098C254.992 128.41 252.981 138.674 246.912 149.283C240.843 159.893 230.728 170.824 217.344 181.442C190.576 202.679 150.78 222.627 104.299 236.24Z" stroke="url(#paint4_linear_4001_58304)" stroke-opacity="0.2" stroke-width="0.599139"/>
<path d="M103.079 236.586C56.3699 249.407 11.9625 253.343 -22.07 249.353C-39.0871 247.358 -53.4945 243.383 -64.2962 237.558C-75.097 231.734 -82.2692 224.075 -84.874 214.716C-87.4787 205.357 -85.285 195.127 -79.029 184.621C-72.7723 174.115 -62.4654 163.356 -48.8954 152.965C-21.7567 132.185 18.3831 112.914 65.0919 100.094C111.801 87.2729 156.208 83.3367 190.241 87.3268C207.258 89.3219 221.665 93.2971 232.467 99.1216C243.268 104.946 250.44 112.605 253.045 121.964C255.649 131.323 253.456 141.553 247.2 152.059C240.943 162.566 230.636 173.324 217.066 183.715C189.927 204.495 149.788 223.766 103.079 236.586Z" stroke="url(#paint5_linear_4001_58304)" stroke-opacity="0.2" stroke-width="0.599139"/>
<path d="M101.854 236.913C54.9309 248.937 10.4677 252.117 -23.4825 247.546C-40.4584 245.261 -54.7901 241.04 -65.4842 235.031C-76.1774 229.023 -83.2105 221.242 -85.6471 211.838C-88.0837 202.434 -85.708 192.241 -79.2662 181.842C-72.8239 171.442 -62.3281 160.858 -48.5768 150.699C-21.0756 130.38 19.3954 111.794 66.3181 99.7693C113.241 87.7446 157.704 84.5653 191.654 89.1357C208.63 91.421 222.962 95.6418 233.656 101.651C244.349 107.659 251.382 115.44 253.819 124.844C256.255 134.248 253.88 144.441 247.438 154.84C240.996 165.24 230.5 175.824 216.749 185.983C189.247 206.301 148.776 224.888 101.854 236.913Z" stroke="url(#paint6_linear_4001_58304)" stroke-opacity="0.2" stroke-width="0.599139"/>
<path d="M100.623 237.215C53.5002 248.44 8.99468 250.861 -24.8628 245.712C-41.7923 243.137 -56.044 238.672 -66.6272 232.481C-77.2096 226.29 -84.1013 218.389 -86.3691 208.943C-88.6369 199.497 -86.0798 189.345 -79.4543 179.055C-72.8283 168.765 -62.1467 158.36 -48.2184 148.435C-20.3631 128.585 20.4269 110.688 67.5492 99.4629C114.672 88.2379 159.177 85.8165 193.034 90.9657C209.964 93.5405 224.216 98.0057 234.799 104.197C245.381 110.388 252.273 118.289 254.541 127.735C256.809 137.18 254.252 147.333 247.626 157.622C241 167.913 230.318 178.318 216.39 188.243C188.535 208.093 147.745 225.99 100.623 237.215Z" stroke="url(#paint7_linear_4001_58304)" stroke-opacity="0.2" stroke-width="0.599139"/>
<path d="M99.386 237.5C52.0785 247.922 7.5442 249.584 -26.2102 243.858C-43.0882 240.994 -57.2554 236.286 -67.7246 229.914C-78.1929 223.543 -84.9412 215.524 -87.0395 206.04C-89.1378 196.555 -86.4001 186.446 -79.5929 176.269C-72.7851 166.091 -61.9212 155.869 -47.82 146.18C-19.6191 126.805 21.4774 109.603 68.7849 99.1811C116.092 88.7592 160.627 87.0964 194.381 92.823C211.259 95.6864 225.426 100.395 235.896 106.766C246.364 113.138 253.112 121.157 255.21 130.641C257.309 140.126 254.571 150.235 247.764 160.412C240.956 170.59 230.092 180.812 215.991 190.501C187.79 209.876 146.694 227.078 99.386 237.5Z" stroke="url(#paint8_linear_4001_58304)" stroke-opacity="0.2" stroke-width="0.599139"/>
<path d="M98.1451 237.762C50.6667 247.378 6.11721 248.281 -27.5239 241.979C-44.3453 238.828 -58.4237 233.878 -68.7757 227.328C-79.1267 220.778 -85.7294 212.644 -87.6576 203.123C-89.5857 193.603 -86.6683 183.54 -79.6815 173.479C-72.694 163.417 -61.651 153.379 -47.3813 143.931C-18.8433 125.036 22.5471 108.535 70.0255 98.9189C117.504 89.3033 162.053 88.3997 195.694 94.7018C212.516 97.853 226.594 102.803 236.946 109.353C247.297 115.903 253.9 124.038 255.828 133.558C257.756 143.078 254.839 153.141 247.852 163.202C240.865 173.264 229.822 183.302 215.552 192.75C187.014 211.645 145.623 228.146 98.1451 237.762Z" stroke="url(#paint9_linear_4001_58304)" stroke-opacity="0.2" stroke-width="0.599139"/>
<path d="M96.9 238.003C49.2653 246.809 4.71419 246.954 -28.8033 240.078C-45.5629 236.64 -59.5483 231.45 -69.7799 224.723C-80.0105 217.996 -86.4657 209.749 -88.2231 200.196C-89.9805 190.642 -86.8843 180.629 -79.7199 170.687C-72.555 160.744 -61.3362 150.894 -46.9023 141.689C-18.036 123.28 23.6358 107.484 71.2705 98.6773C118.905 89.8709 163.456 89.7267 196.974 96.6025C213.733 100.04 227.719 105.231 237.95 111.958C248.181 118.684 254.636 126.931 256.394 136.485C258.151 146.038 255.055 156.051 247.891 165.993C240.726 175.936 229.507 185.786 215.073 194.991C186.207 213.4 144.535 229.196 96.9 238.003Z" stroke="url(#paint10_linear_4001_58304)" stroke-opacity="0.2" stroke-width="0.599139"/>
<path d="M95.651 238.223C47.8744 246.217 3.33521 245.602 -30.0485 238.155C-46.7412 234.431 -60.6294 229.002 -70.7373 222.101C-80.8444 215.2 -87.1502 206.842 -88.7363 197.259C-90.3225 187.675 -87.0483 177.715 -79.7087 167.894C-72.3684 158.073 -60.9772 148.414 -46.3836 139.455C-17.1977 121.538 24.7428 106.452 72.5194 98.4572C120.296 90.4626 164.835 91.0779 198.219 98.5252C214.912 102.249 228.8 107.678 238.908 114.579C249.015 121.48 255.321 129.837 256.907 139.421C258.493 149.005 255.219 158.965 247.879 168.785C240.539 178.607 229.148 188.265 214.554 197.224C185.368 215.142 143.428 230.228 95.651 238.223Z" stroke="url(#paint11_linear_4001_58304)" stroke-opacity="0.2" stroke-width="0.599139"/>
<path d="M94.3987 238.422C46.4949 245.602 1.98121 244.228 -31.2586 236.211C-47.8793 232.203 -61.6659 226.537 -71.6473 219.463C-81.6277 212.39 -87.7822 203.925 -89.1965 194.314C-90.6109 184.703 -87.1598 174.798 -79.6471 165.103C-72.1337 155.406 -60.5736 145.942 -45.8247 137.231C-16.3282 119.811 25.8682 105.44 73.7721 98.2593C121.676 91.079 166.19 92.4537 199.429 100.47C216.05 104.479 229.837 110.144 239.818 117.218C249.799 124.292 255.953 132.757 257.367 142.367C258.782 151.978 255.331 161.883 247.818 171.579C240.304 181.275 228.744 190.74 213.995 199.45C184.499 216.87 142.303 231.242 94.3987 238.422Z" stroke="url(#paint12_linear_4001_58304)" stroke-opacity="0.2" stroke-width="0.599139"/>
<path d="M93.1432 238.598C45.1267 244.962 0.652072 242.828 -32.4336 234.245C-48.9773 229.953 -62.6582 224.053 -72.5099 216.808C-82.3608 209.565 -88.3619 200.994 -89.6041 191.359C-90.8462 181.724 -87.2193 171.878 -79.5358 162.31C-71.8515 152.742 -60.1262 143.474 -45.2264 135.015C-15.4282 118.097 27.0113 104.445 75.0278 98.0808C123.044 91.717 167.519 93.8506 200.605 102.434C217.148 106.726 230.829 112.626 240.681 119.871C250.532 127.114 256.533 135.685 257.775 145.32C259.017 154.955 255.39 164.801 247.707 174.369C240.023 183.937 228.297 193.205 213.397 201.664C183.599 218.582 141.16 232.234 93.1432 238.598Z" stroke="url(#paint13_linear_4001_58304)" stroke-opacity="0.2" stroke-width="0.599139"/>
<path d="M91.8849 238.754C43.7703 244.299 -0.65168 241.407 -33.5732 232.26C-50.0348 227.686 -63.6058 221.552 -73.3249 214.139C-83.0431 206.728 -88.8892 198.055 -89.9588 188.398C-91.0283 178.742 -87.2266 168.957 -79.3747 159.52C-71.522 150.083 -59.6348 141.015 -44.5887 132.809C-14.498 116.399 28.1716 103.47 76.2863 97.9245C124.401 92.3791 168.823 95.2709 201.744 104.418C218.206 108.992 231.777 115.126 241.496 122.539C251.214 129.951 257.06 138.623 258.13 148.28C259.2 157.936 255.398 167.721 247.546 177.158C239.693 186.596 227.806 195.664 212.76 203.869C182.669 220.279 140 233.208 91.8849 238.754Z" stroke="url(#paint14_linear_4001_58304)" stroke-opacity="0.2" stroke-width="0.599139"/>
<path d="M90.6242 238.889C42.4262 243.615 -1.9297 239.966 -34.6771 230.257C-51.0515 225.402 -64.5085 219.036 -74.092 211.458C-83.6745 203.88 -89.3638 195.108 -90.2605 185.433C-91.1572 175.758 -87.1819 166.038 -79.1638 156.735C-71.145 147.431 -59.0997 138.565 -43.9119 130.616C-13.5378 114.719 29.349 102.517 77.547 97.7912C125.745 93.066 170.101 96.7151 202.848 106.424C219.223 111.279 232.68 117.644 242.263 125.223C251.846 132.8 257.535 141.573 258.432 151.248C259.328 160.923 255.353 170.643 247.335 179.946C239.316 189.25 227.271 198.115 212.083 206.065C181.709 221.962 138.822 234.164 90.6242 238.889Z" stroke="url(#paint15_linear_4001_58304)" stroke-opacity="0.2" stroke-width="0.599139"/>
<path d="M89.3614 239.002C41.0947 242.906 -3.18154 238.501 -35.7448 228.233C-52.0272 223.099 -65.366 216.504 -74.8109 208.762C-84.255 201.021 -89.7856 192.151 -90.5091 182.461C-91.2327 172.77 -87.085 163.118 -78.9033 153.951C-70.7209 144.784 -58.521 136.123 -43.1961 128.433C-12.5479 113.053 30.5429 101.582 78.8097 97.6781C127.076 93.7744 171.353 98.1797 203.916 108.447C220.198 113.581 233.537 120.176 242.982 127.918C252.426 135.659 257.957 144.529 258.68 154.219C259.404 163.91 255.256 173.562 247.074 182.729C238.892 191.896 226.692 200.557 211.367 208.247C180.719 223.627 137.628 235.098 89.3614 239.002Z" stroke="url(#paint16_linear_4001_58304)" stroke-opacity="0.2" stroke-width="0.599139"/>
<path d="M88.0974 239.093C39.7766 242.174 -4.4064 237.014 -36.7755 226.191C-52.9609 220.779 -66.1776 213.957 -75.481 206.054C-84.7837 198.151 -90.1541 189.187 -90.7042 179.484C-91.2543 169.781 -86.9355 160.199 -78.5927 151.172C-70.2491 142.143 -57.8985 133.691 -42.4412 126.262C-11.5281 111.404 31.7536 100.667 80.0744 97.5859C128.395 94.5049 172.578 99.6652 204.947 110.488C221.133 115.9 234.349 122.722 243.653 130.625C252.955 138.527 258.326 147.492 258.876 157.195C259.426 166.898 255.107 176.48 246.764 185.507C238.421 194.535 226.07 202.988 210.613 210.417C179.7 225.275 136.418 236.012 88.0974 239.093Z" stroke="url(#paint17_linear_4001_58304)" stroke-opacity="0.2" stroke-width="0.599139"/>
<path d="M86.8311 239.164C38.471 241.422 -5.60544 235.508 -37.7706 224.133C-53.854 218.446 -66.9444 211.398 -76.1037 203.336C-85.2621 195.275 -90.4706 186.219 -90.8471 176.506C-91.2237 166.793 -86.735 157.285 -78.2337 148.4C-69.7315 139.513 -57.2339 131.271 -41.6489 124.105C-10.4803 109.774 32.9791 99.7748 81.3392 97.5175C129.699 95.2603 173.776 101.174 205.941 112.549C222.024 118.236 235.115 125.284 244.274 133.346C253.432 141.407 258.641 150.463 259.017 160.176C259.394 169.889 254.905 179.397 246.404 188.282C237.902 197.169 225.404 205.411 209.819 212.577C178.651 226.908 135.191 236.907 86.8311 239.164Z" stroke="url(#paint18_linear_4001_58304)" stroke-opacity="0.2" stroke-width="0.599139"/>
<path d="M85.5651 239.212C37.1805 240.645 -6.77592 233.979 -38.7273 222.056C-54.7038 216.094 -67.6641 208.823 -76.6763 200.605C-85.6876 192.387 -90.7326 183.242 -90.9355 173.523C-91.1384 163.804 -86.4813 154.371 -77.8239 145.631C-69.1657 136.889 -56.5249 128.86 -40.817 121.96C-9.40255 108.16 34.2214 98.901 82.6061 97.4681C130.991 96.0352 174.947 102.7 206.899 114.624C222.875 120.586 235.835 127.857 244.847 136.075C253.859 144.292 258.904 153.437 259.107 163.157C259.31 172.876 254.653 182.308 245.995 191.049C237.337 199.79 224.696 207.82 208.988 214.72C177.574 228.52 133.95 237.779 85.5651 239.212Z" stroke="url(#paint19_linear_4001_58304)" stroke-opacity="0.2" stroke-width="0.599139"/>
<path d="M84.298 239.239C35.9035 239.848 -7.91949 232.433 -39.6474 219.965C-55.5122 213.73 -68.3383 206.238 -77.2007 197.866C-86.0623 189.495 -90.9423 180.264 -90.9715 170.541C-91.0006 160.817 -86.1764 151.464 -77.3657 142.871C-68.5541 134.277 -55.774 126.463 -39.9478 119.83C-8.29705 106.566 35.4782 98.0504 83.8726 97.4424C132.267 96.8343 176.09 104.249 207.818 116.717C223.683 122.952 236.509 130.444 245.371 138.816C254.233 147.187 259.113 156.418 259.142 166.141C259.171 175.865 254.347 185.218 245.536 193.811C236.725 202.405 223.945 210.219 208.118 216.851C176.468 230.116 132.692 238.631 84.298 239.239Z" stroke="url(#paint20_linear_4001_58304)" stroke-opacity="0.2" stroke-width="0.599139"/>
<path d="M83.0314 239.245C34.6419 239.028 -9.03433 230.866 -40.5291 217.857C-56.2773 211.352 -68.9653 203.64 -77.6753 195.117C-86.3844 186.595 -91.0979 177.28 -90.9533 167.556C-90.8087 157.832 -85.8189 148.561 -76.8575 140.118C-67.8953 131.674 -54.9797 124.078 -39.0402 117.715C-7.16269 104.99 36.7504 97.2204 85.1399 97.4374C133.53 97.6543 177.206 105.816 208.701 118.826C224.449 125.331 237.137 133.042 245.847 141.565C254.556 150.087 259.269 159.402 259.125 169.126C258.98 178.85 253.99 188.121 245.029 196.564C236.067 205.008 223.151 212.604 207.212 218.967C175.334 231.693 131.421 239.462 83.0314 239.245Z" stroke="url(#paint21_linear_4001_58304)" stroke-opacity="0.2" stroke-width="0.599139"/>
<path d="M81.7647 239.227C33.3948 238.185 -10.1213 229.278 -41.3734 215.732C-57.0002 208.958 -69.5463 201.03 -78.1011 192.358C-86.6551 183.687 -91.2006 174.292 -90.8823 164.571C-90.564 154.849 -85.4102 145.663 -76.3008 137.372C-67.1906 129.081 -54.1435 121.705 -38.0955 115.613C-6.00104 103.431 38.0365 96.4102 86.4064 97.452C134.776 98.4939 178.292 107.4 209.545 120.947C225.171 127.721 237.717 135.648 246.272 144.32C254.826 152.991 259.372 162.386 259.053 172.108C258.735 181.83 253.581 191.016 244.472 199.306C235.362 207.598 222.315 214.974 206.267 221.066C174.172 233.248 130.135 240.268 81.7647 239.227Z" stroke="url(#paint22_linear_4001_58304)" stroke-opacity="0.2" stroke-width="0.599139"/>
<path d="M80.4986 239.19C32.1631 237.323 -11.1797 227.675 -42.1795 213.595C-57.6802 206.555 -70.0805 198.413 -78.4776 189.595C-86.8739 180.778 -91.2501 171.306 -90.7581 161.589C-90.2662 151.872 -84.9499 142.774 -75.6954 134.638C-66.44 126.502 -53.2653 119.348 -37.1137 113.53C-4.81207 101.895 39.3366 95.6247 87.6721 97.4912C136.008 99.3576 179.35 109.006 210.35 123.086C225.851 130.126 238.251 138.268 246.648 147.086C255.045 155.903 259.421 165.375 258.929 175.092C258.437 184.809 253.121 193.907 243.866 202.043C234.611 210.179 221.436 217.333 205.284 223.151C172.983 234.786 128.834 241.056 80.4986 239.19Z" stroke="url(#paint23_linear_4001_58304)" stroke-opacity="0.2" stroke-width="0.599139"/>
<path d="M79.2343 239.129C30.9479 236.439 -12.2084 226.051 -42.9465 211.443C-58.3163 204.138 -70.5671 195.785 -78.8039 186.824C-87.0398 177.863 -91.2454 168.316 -90.58 158.607C-89.9146 148.899 -84.4374 139.891 -75.0405 131.913C-65.6428 123.934 -52.3446 117.005 -36.0943 111.462C-3.59526 100.377 40.651 94.8594 88.9374 97.5499C137.224 100.24 180.38 110.628 211.118 125.237C226.488 132.541 238.739 140.894 246.976 149.855C255.212 158.816 259.417 168.363 258.752 178.072C258.086 187.78 252.609 196.788 243.212 204.766C233.814 212.745 220.516 219.675 204.266 225.217C171.767 236.302 127.521 241.82 79.2343 239.129Z" stroke="url(#paint24_linear_4001_58304)" stroke-opacity="0.2" stroke-width="0.599139"/>
<path d="M77.9706 239.048C29.748 235.534 -13.2085 224.411 -43.6756 209.278C-58.9099 201.711 -71.0074 193.149 -79.0813 184.047C-87.1546 174.946 -91.1881 165.327 -90.3495 155.629C-89.5109 145.932 -83.8744 137.017 -74.338 129.199C-64.8008 121.381 -51.3831 114.678 -35.0391 109.412C-2.35263 98.8807 41.9778 94.1172 90.2004 97.631C138.423 101.145 181.38 112.268 211.847 127.401C227.081 134.968 239.178 143.53 247.252 152.632C255.326 161.733 259.359 171.352 258.52 181.05C257.682 190.747 252.045 199.662 242.509 207.48C232.972 215.298 219.554 222.001 203.21 227.267C170.524 237.798 126.193 242.562 77.9706 239.048Z" stroke="url(#paint25_linear_4001_58304)" stroke-opacity="0.2" stroke-width="0.599139"/>
<path d="M76.7091 238.945C28.5651 234.609 -14.1787 222.753 -44.3654 207.101C-59.4595 199.274 -71.4001 190.505 -79.3088 181.266C-87.2167 172.027 -91.0771 162.339 -90.0655 152.655C-89.0538 142.972 -83.2598 134.153 -73.5869 126.497C-63.9131 118.841 -50.38 112.367 -33.9472 107.379C-1.08325 97.4054 43.3179 93.3976 91.4619 97.7334C139.606 102.069 182.35 113.925 212.536 129.578C227.631 137.405 239.571 146.173 247.48 155.413C255.388 164.652 259.248 174.34 258.236 184.023C257.225 193.707 251.431 202.526 241.758 210.181C232.084 217.837 218.551 224.312 202.118 229.299C169.254 239.273 124.853 243.281 76.7091 238.945Z" stroke="url(#paint26_linear_4001_58304)" stroke-opacity="0.2" stroke-width="0.599139"/>
<path d="M75.4496 238.822C27.3988 233.665 -15.1192 221.08 -45.0163 204.912C-59.9657 196.828 -71.7457 187.856 -79.4867 178.481C-87.227 169.108 -90.913 159.353 -89.7287 149.687C-88.5443 140.02 -82.5946 131.3 -72.788 123.809C-62.9806 116.318 -49.3362 110.074 -32.8197 105.366C0.211807 95.9524 44.67 92.7015 92.7209 97.8582C140.772 103.015 183.29 115.6 213.187 131.767C228.136 139.851 239.916 148.824 247.657 158.198C255.398 167.572 259.084 177.327 257.899 186.993C256.715 196.66 250.765 205.38 240.959 212.871C231.151 220.362 217.507 226.606 200.99 231.313C167.959 240.727 123.501 243.978 75.4496 238.822Z" stroke="url(#paint27_linear_4001_58304)" stroke-opacity="0.2" stroke-width="0.599139"/>
<path d="M74.1933 238.676C26.2502 232.7 -16.0289 219.39 -45.6275 202.713C-60.4274 194.374 -72.0433 185.2 -79.6142 175.693C-87.1845 166.188 -90.6951 156.37 -89.3384 146.723C-87.9817 137.077 -81.878 128.458 -71.9408 121.134C-62.0027 113.81 -48.2512 107.798 -31.656 103.372C1.53293 94.5213 46.0347 92.0282 93.9778 98.0041C141.921 103.98 184.2 117.29 213.799 133.968C228.599 142.307 240.214 151.48 247.785 160.987C255.356 170.493 258.866 180.31 257.509 189.957C256.153 199.604 250.049 208.223 240.112 215.546C230.174 222.871 216.422 228.882 199.827 233.308C166.638 242.159 122.136 244.652 74.1933 238.676Z" stroke="url(#paint28_linear_4001_58304)" stroke-opacity="0.2" stroke-width="0.599139"/>
<path d="M72.9398 238.508C25.1191 231.715 -16.9084 217.684 -46.1993 200.501C-60.8454 191.91 -72.2935 182.538 -79.6921 172.902C-87.0901 163.267 -90.4241 153.389 -88.8955 143.766C-87.3668 134.142 -81.1111 125.626 -71.0463 118.472C-60.9805 111.317 -47.1261 105.54 -30.4572 101.397C2.879 93.1114 47.4108 91.3769 95.2315 98.1703C143.052 104.964 185.08 118.995 214.371 136.177C229.017 144.769 240.465 154.14 247.863 163.776C255.261 173.411 258.595 183.289 257.067 192.913C255.538 202.537 249.282 211.052 239.218 218.206C229.152 225.362 215.297 231.139 198.628 235.282C165.292 243.567 120.76 245.302 72.9398 238.508Z" stroke="url(#paint29_linear_4001_58304)" stroke-opacity="0.2" stroke-width="0.599139"/>
<path d="M71.6892 238.32C24.0055 230.712 -17.7576 215.964 -46.7319 198.282C-61.2197 189.44 -72.4966 179.873 -79.7207 170.111C-86.944 160.35 -90.1005 150.415 -88.4004 140.817C-86.7002 131.219 -80.2943 122.81 -70.105 115.827C-59.9146 108.843 -45.9615 103.302 -29.2241 99.4435C4.24933 91.7261 48.7976 90.7507 96.4813 98.3594C144.165 105.968 185.928 120.716 214.902 138.398C229.39 147.24 240.667 156.806 247.891 166.569C255.114 176.33 258.271 186.265 256.571 195.863C254.871 205.461 248.465 213.87 238.275 220.853C228.085 227.837 214.132 233.378 197.395 237.236C163.921 244.954 119.373 245.929 71.6892 238.32Z" stroke="url(#paint30_linear_4001_58304)" stroke-opacity="0.2" stroke-width="0.599139"/>
<path d="M70.4427 238.11C22.9105 229.688 -18.5754 214.228 -47.2243 196.052C-61.5494 186.963 -72.6517 177.204 -79.6989 167.318C-86.7455 157.433 -89.7235 147.445 -87.8524 137.875C-85.9813 128.306 -79.4272 120.006 -69.1164 113.197C-58.8046 106.387 -44.757 101.083 -27.9561 97.5097C5.6443 90.3628 50.1955 90.1468 97.7276 98.5686C145.26 106.99 186.746 122.451 215.395 140.627C229.72 149.715 240.822 159.475 247.869 169.361C254.916 179.245 257.894 189.234 256.023 198.804C254.152 208.373 247.597 216.673 237.287 223.482C226.975 230.292 212.927 235.595 196.126 239.169C162.526 246.316 117.975 246.532 70.4427 238.11Z" stroke="url(#paint31_linear_4001_58304)" stroke-opacity="0.2" stroke-width="0.599139"/>
<path d="M69.2007 237.88C21.8346 228.648 -19.3616 212.48 -47.6763 193.815C-61.8343 184.482 -72.7586 174.533 -79.6269 164.527C-86.4945 154.522 -89.2931 144.482 -87.2516 134.945C-85.2101 125.407 -78.5098 117.218 -68.0807 110.585C-57.6505 103.95 -43.5128 98.8864 -26.6535 95.5991C7.06361 89.0249 51.6041 89.5684 98.9702 98.8007C146.336 108.033 187.533 124.201 215.847 142.866C230.005 152.199 240.93 162.148 247.798 172.154C254.665 182.159 257.464 192.199 255.423 201.736C253.381 211.274 246.681 219.463 236.252 226.096C225.821 232.731 211.684 237.794 194.824 241.082C161.107 247.656 116.567 247.113 69.2007 237.88Z" stroke="url(#paint32_linear_4001_58304)" stroke-opacity="0.2" stroke-width="0.599139"/>
<path d="M67.963 237.628C20.7773 227.588 -20.1165 210.717 -48.0884 191.569C-62.075 181.995 -72.818 171.86 -79.5052 161.736C-86.1918 151.614 -88.8102 141.526 -86.5989 132.023C-84.3876 122.52 -77.543 114.445 -66.9988 107.989C-56.4536 101.532 -42.2299 96.7093 -25.3174 93.7094C8.50612 87.7098 53.0224 89.0126 100.208 99.0526C147.394 109.093 188.288 125.963 216.26 145.111C230.246 154.686 240.989 164.821 247.676 174.944C254.363 185.067 256.981 195.154 254.77 204.658C252.559 214.161 245.714 222.235 235.17 228.691C224.625 235.148 210.401 239.971 193.489 242.971C159.665 248.971 115.149 247.668 67.963 237.628Z" stroke="url(#paint33_linear_4001_58304)" stroke-opacity="0.2" stroke-width="0.599139"/>
<path d="M66.7306 237.356C19.7397 226.511 -20.8393 208.943 -48.4599 189.318C-62.2709 179.505 -72.8293 169.186 -79.3334 158.949C-85.837 148.712 -88.2742 138.579 -85.8938 129.114C-83.5134 119.648 -76.5268 111.69 -65.8706 105.413C-55.2134 99.1363 -40.9083 94.5557 -23.9477 91.844C9.972 86.4209 54.4504 88.4827 101.441 99.3272C148.432 110.172 189.011 127.74 216.632 147.365C230.443 157.178 241.001 167.497 247.505 177.734C254.009 187.971 256.446 198.104 254.066 207.569C251.685 217.035 244.699 224.993 234.043 231.27C223.385 237.547 209.08 242.127 192.12 244.839C158.2 250.262 113.722 248.2 66.7306 237.356Z" stroke="url(#paint34_linear_4001_58304)" stroke-opacity="0.2" stroke-width="0.599139"/>
<path d="M65.5031 237.06C18.7213 225.414 -21.5306 207.154 -48.7915 187.057C-62.4226 177.008 -72.7931 166.51 -79.1123 156.161C-85.4307 145.813 -87.6862 135.639 -85.1374 126.213C-82.5886 116.788 -75.462 108.948 -64.6972 102.854C-53.9313 96.7581 -39.549 92.4213 -22.5454 89.9987C11.4601 85.1537 55.8871 87.9737 102.669 99.6196C149.451 111.265 189.703 129.525 216.964 149.622C230.595 159.671 240.965 170.17 247.284 180.518C253.603 190.866 255.858 201.041 253.309 210.466C250.761 219.892 243.634 227.731 232.869 233.826C222.103 239.921 207.721 244.258 190.717 246.68C156.712 251.525 112.285 248.705 65.5031 237.06Z" stroke="url(#paint35_linear_4001_58304)" stroke-opacity="0.2" stroke-width="0.599139"/>
<path d="M64.2809 236.746C17.7224 224.302 -22.19 205.356 -49.0829 184.794C-62.53 174.513 -72.7095 163.837 -78.8417 153.38C-84.9732 142.925 -87.0462 132.711 -84.3298 123.329C-81.6133 113.947 -74.3489 106.229 -63.4787 100.317C-52.6074 94.4052 -38.1523 90.3135 -21.111 88.1807C12.9699 83.9154 57.3321 87.4928 103.891 99.9365C150.449 112.38 190.361 131.327 217.254 151.888C230.701 162.17 240.881 172.846 247.013 183.302C253.145 193.758 255.218 203.971 252.501 213.353C249.785 222.736 242.52 230.454 231.65 236.365C220.779 242.277 206.324 246.369 189.282 248.502C155.201 252.767 110.839 249.19 64.2809 236.746Z" stroke="url(#paint36_linear_4001_58304)" stroke-opacity="0.2" stroke-width="0.599139"/>
<path d="M63.065 236.408C16.7441 223.171 -22.8167 203.543 -49.3334 182.523C-62.5924 172.012 -72.5778 161.162 -78.5212 150.601C-84.4639 140.041 -86.3537 129.792 -83.4705 120.455C-80.5872 111.119 -73.1872 103.525 -62.2149 97.7985C-51.2415 92.0716 -36.718 88.2262 -19.6442 86.3839C14.5018 82.6995 58.7855 87.0333 105.106 100.271C151.427 113.508 190.988 133.136 217.505 154.156C230.764 164.667 240.749 175.517 246.693 186.078C252.635 196.638 254.525 206.887 251.642 216.224C248.759 225.56 241.359 233.154 230.386 238.881C219.413 244.607 204.889 248.453 187.816 250.295C153.67 253.98 109.386 249.646 63.065 236.408Z" stroke="url(#paint37_linear_4001_58304)" stroke-opacity="0.2" stroke-width="0.599139"/>
<path d="M61.8555 236.051C15.7863 222.024 -23.4109 201.722 -49.5434 180.249C-62.6102 169.512 -72.3986 158.492 -78.1512 147.829C-83.9032 137.167 -85.6094 126.885 -82.5602 117.598C-79.5111 108.31 -71.9776 100.842 -60.9066 95.3028C-49.8345 89.7628 -35.2471 86.165 -18.1459 84.6137C16.0548 81.5113 60.2466 86.6001 106.316 100.628C152.385 114.655 191.582 134.957 217.715 156.43C230.782 167.167 240.57 178.187 246.323 188.85C252.075 199.512 253.781 209.794 250.732 219.081C247.682 228.369 240.149 235.837 229.078 241.376C218.006 246.916 203.418 250.514 186.317 252.065C152.117 255.168 107.925 250.079 61.8555 236.051Z" stroke="url(#paint38_linear_4001_58304)" stroke-opacity="0.2" stroke-width="0.599139"/>
<path d="M60.6528 235.674C14.8493 220.861 -23.9724 199.89 -49.7126 177.971C-62.5833 167.011 -72.1715 155.824 -77.7317 145.063C-83.2914 134.303 -84.8133 123.992 -81.5991 114.756C-78.385 105.521 -70.7205 98.1807 -59.5541 92.8299C-48.3866 87.4786 -33.7396 84.1294 -16.6164 82.8696C17.6286 80.3502 61.7151 86.1924 107.519 101.006C153.322 115.819 192.144 136.79 217.884 158.709C230.755 169.669 240.343 180.856 245.903 191.617C251.463 202.377 252.985 212.688 249.771 221.924C246.556 231.159 238.892 238.499 227.726 243.85C216.558 249.201 201.911 252.551 184.788 253.81C150.543 256.33 106.456 250.488 60.6528 235.674Z" stroke="url(#paint39_linear_4001_58304)" stroke-opacity="0.2" stroke-width="0.599139"/>
<path d="M59.4573 235.277C13.9334 219.682 -24.5008 198.049 -49.841 175.691C-62.5116 164.512 -71.8968 153.161 -77.2629 142.305C-82.6285 131.45 -83.9657 121.112 -80.5875 111.931C-77.2093 102.75 -69.4161 95.5402 -58.1578 90.3797C-46.8983 85.2187 -32.1962 82.1191 -15.0561 81.1512C19.2227 79.2155 63.1904 85.8095 108.714 101.404C154.238 116.998 192.672 138.631 218.013 160.989C230.683 172.169 240.068 183.52 245.435 194.376C250.8 205.231 252.137 215.568 248.759 224.749C245.381 233.931 237.588 241.14 226.329 246.301C215.07 251.462 200.368 254.561 183.228 255.529C148.949 257.465 104.981 250.871 59.4573 235.277Z" stroke="url(#paint40_linear_4001_58304)" stroke-opacity="0.2" stroke-width="0.599139"/>
<path d="M58.2685 234.859C13.0381 218.489 -24.997 196.2 -49.9293 173.409C-62.3961 162.013 -71.5754 150.502 -76.7458 139.555C-81.9156 128.608 -83.0677 118.248 -79.5265 109.123C-75.9853 99.9994 -68.0657 92.9226 -56.7189 87.9539C-45.3709 82.9847 -30.6183 80.1357 -13.4664 79.46C20.8358 78.1087 64.6713 85.4523 109.902 101.823C155.132 118.194 193.167 140.482 218.099 163.273C230.566 174.669 239.746 186.18 244.916 197.128C250.086 208.074 251.238 218.435 247.697 227.559C244.155 236.683 236.236 243.76 224.889 248.728C213.541 253.698 198.788 256.547 181.637 257.222C147.334 258.574 103.499 251.23 58.2685 234.859Z" stroke="url(#paint41_linear_4001_58304)" stroke-opacity="0.2" stroke-width="0.599139"/>
<path d="M57.0888 234.419C12.1657 217.277 -25.4588 194.34 -49.9757 171.123C-62.2347 159.515 -71.2053 147.847 -76.1784 136.811C-81.151 125.776 -82.1176 115.396 -78.4145 106.332C-74.7114 97.2676 -66.6678 90.3257 -55.2359 85.5503C-43.8028 80.7745 -29.0041 78.1769 -11.8458 77.7936C22.4693 77.027 66.1592 85.1181 111.082 102.26C156.005 119.402 193.63 142.34 218.147 165.556C230.406 177.165 239.376 188.832 244.35 199.868C249.322 210.904 250.289 221.284 246.586 230.348C242.882 239.412 234.839 246.354 223.407 251.129C211.974 255.905 197.175 258.503 180.017 258.886C145.702 259.652 102.012 251.561 57.0888 234.419Z" stroke="url(#paint42_linear_4001_58304)" stroke-opacity="0.2" stroke-width="0.599139"/>
<path d="M55.917 233.962C11.3148 216.053 -25.8875 192.474 -49.9815 168.839C-62.0291 157.022 -70.7883 145.201 -75.5626 134.08C-80.3363 122.96 -81.1172 112.563 -77.2533 103.561C-73.3893 94.5601 -65.2243 87.7551 -53.7108 83.1746C-42.196 78.5936 -27.3558 76.2482 -10.1962 76.1574C24.1213 75.9758 67.6524 84.8118 112.255 102.72C156.857 120.628 194.059 144.208 218.153 167.842C230.201 179.66 238.96 191.481 243.734 202.602C248.508 213.722 249.289 224.119 245.425 233.12C241.561 242.122 233.396 248.927 221.882 253.507C210.368 258.088 195.527 260.434 178.368 260.524C144.05 260.706 100.519 251.87 55.917 233.962Z" stroke="url(#paint43_linear_4001_58304)" stroke-opacity="0.2" stroke-width="0.599139"/>
<path d="M54.753 233.482C10.4854 214.813 -26.2833 190.599 -49.9472 166.553C-61.7797 154.53 -70.3248 142.559 -74.8988 131.356C-79.4723 120.155 -80.0672 109.744 -76.0436 100.809C-72.02 91.8729 -63.7359 85.2069 -52.1444 80.8226C-40.5516 76.4377 -25.6742 74.3453 -8.51869 74.547C25.7909 74.9505 69.1499 84.5287 113.417 103.198C157.685 121.867 194.454 146.081 218.118 170.127C229.95 182.15 238.495 194.12 243.069 205.323C247.643 216.525 248.238 226.935 244.214 235.871C240.19 244.807 231.906 251.473 220.315 255.857C208.722 260.242 193.845 262.334 176.689 262.133C142.38 261.729 99.0206 252.151 54.753 233.482Z" stroke="url(#paint44_linear_4001_58304)" stroke-opacity="0.2" stroke-width="0.599139"/>
<path d="M53.5992 232.983C9.67963 213.559 -26.6444 188.718 -49.8709 164.268C-61.4847 152.043 -69.8131 139.926 -74.1854 128.645C-78.5573 117.365 -78.966 106.944 -74.784 98.077C-70.602 89.2096 -62.2014 82.6847 -50.5353 78.4979C-38.8679 74.3106 -23.9581 72.4718 -6.81176 72.9659C27.4794 73.9543 70.6531 84.2719 114.573 103.696C158.492 123.12 194.816 147.961 218.043 172.411C229.656 184.636 237.985 196.753 242.357 208.034C246.729 219.314 247.138 229.735 242.956 238.602C238.774 247.469 230.373 253.994 218.707 258.181C207.04 262.368 192.13 264.207 174.984 263.713C140.692 262.725 97.5187 252.407 53.5992 232.983Z" stroke="url(#paint45_linear_4001_58304)" stroke-opacity="0.2" stroke-width="0.599139"/>
<path d="M52.4538 232.466C8.89568 212.293 -26.9727 186.832 -49.7547 161.986C-61.1462 149.562 -69.2554 137.304 -73.4247 125.948C-77.5935 114.593 -77.8159 104.165 -73.4768 95.3685C-69.1377 86.5721 -60.6232 80.1902 -48.886 76.2022C-37.1476 72.2137 -22.2098 70.629 -5.07792 71.4155C29.1844 72.9885 72.1596 84.0423 115.718 104.215C159.276 124.389 195.144 149.85 217.926 174.696C229.318 187.119 237.427 199.378 241.596 210.734C245.765 222.088 245.987 232.517 241.648 241.313C237.309 250.109 228.795 256.491 217.058 260.479C205.319 264.468 190.381 266.052 173.249 265.266C138.987 263.693 96.0119 252.639 52.4538 232.466Z" stroke="url(#paint46_linear_4001_58304)" stroke-opacity="0.2" stroke-width="0.599139"/>
<path d="M51.3177 231.928C8.13425 211.012 -27.2674 184.939 -49.598 159.704C-60.7638 147.086 -68.6513 134.689 -72.6164 123.262C-76.581 111.836 -76.617 101.404 -72.122 92.681C-67.627 83.9582 -59.0012 77.7214 -47.1966 73.9333C-35.3908 70.1449 -20.4296 68.8148 -3.31731 69.8934C30.9057 72.0505 73.6693 83.8371 116.853 104.753C160.036 125.669 195.438 151.742 217.768 176.977C228.934 189.596 236.822 201.992 240.787 213.42C244.751 224.846 244.787 235.278 240.292 244.001C235.797 252.723 227.172 258.96 215.367 262.748C203.561 266.537 188.6 267.867 171.488 266.788C137.265 264.631 94.5011 252.844 51.3177 231.928Z" stroke="url(#paint47_linear_4001_58304)" stroke-opacity="0.2" stroke-width="0.599139"/>
<path d="M50.1922 231.371C7.39657 209.718 -27.5276 183.041 -49.4 157.425C-60.3367 144.616 -68.0001 132.085 -71.7596 120.59C-75.5188 109.096 -75.3684 98.6628 -70.719 90.0163C-66.0695 81.3698 -57.335 75.2799 -45.4666 71.693C-33.5969 68.1058 -18.6168 67.0307 -1.52944 68.401C32.6438 71.1415 75.1829 83.6575 117.978 105.31C160.774 126.963 195.698 153.64 217.571 179.256C228.507 192.065 236.171 204.597 239.93 216.091C243.689 227.585 243.539 238.018 238.89 246.665C234.24 255.311 225.506 261.401 213.637 264.988C201.768 268.575 186.787 269.65 169.7 268.28C135.527 265.54 92.9877 253.024 50.1922 231.371Z" stroke="url(#paint48_linear_4001_58304)" stroke-opacity="0.2" stroke-width="0.599139"/>
<path d="M49.0769 230.793C6.68223 208.41 -27.7539 181.137 -49.1614 155.148C-59.8656 142.152 -67.3026 129.49 -70.8555 117.931C-74.408 106.373 -74.0713 95.9417 -69.2688 87.3742C-64.4663 78.8067 -55.6257 72.8655 -43.6971 69.4809C-31.7672 66.0959 -16.7728 65.2762 0.284502 66.9378C34.3976 70.261 76.6991 83.5023 119.094 105.885C161.488 128.268 195.925 155.541 217.332 181.53C228.036 194.526 235.473 207.188 239.026 218.748C242.579 230.306 242.242 240.736 237.44 249.304C232.637 257.872 223.796 263.813 211.868 267.197C199.938 270.582 184.944 271.402 167.886 269.74C133.773 266.417 91.4716 253.176 49.0769 230.793Z" stroke="url(#paint49_linear_4001_58304)" stroke-opacity="0.2" stroke-width="0.599139"/>
<path d="M47.9727 230.198C5.99181 207.092 -27.9457 179.231 -48.8818 152.876C-59.3503 139.698 -66.5586 126.909 -69.9038 115.289C-73.2487 103.67 -72.7257 93.2444 -67.7716 84.7585C-62.8176 76.2725 -53.8735 70.4819 -41.8884 67.3006C-29.9019 64.1189 -14.8977 63.5548 2.12428 65.5073C36.1668 69.412 78.2179 83.3748 120.199 106.481C162.18 129.587 196.117 157.447 217.053 183.802C227.522 196.98 234.73 209.77 238.075 221.39C241.42 233.009 240.897 243.434 235.943 251.92C230.989 260.406 222.045 266.197 210.06 269.378C198.073 272.56 183.069 273.124 166.047 271.171C132.005 267.267 89.9536 253.304 47.9727 230.198Z" stroke="url(#paint50_linear_4001_58304)" stroke-opacity="0.2" stroke-width="0.599139"/>
<path d="M46.8788 229.585C5.32447 205.763 -28.1041 177.323 -48.5624 150.61C-58.7921 137.254 -65.7694 124.341 -68.9059 112.664C-72.0421 100.988 -71.333 90.5707 -66.2289 82.1689C-61.1247 73.7671 -52.08 68.1288 -40.0419 65.1518C-28.0025 62.1744 -12.9932 61.866 3.98839 64.1087C37.95 68.5939 79.7379 83.2738 121.292 107.096C162.847 130.918 196.275 159.358 216.733 186.07C226.963 199.427 233.94 212.34 237.077 224.017C240.213 235.693 239.504 246.11 234.4 254.512C229.296 262.913 220.251 268.552 208.213 271.529C196.173 274.506 181.164 274.814 164.183 272.572C130.221 268.087 88.4331 253.407 46.8788 229.585Z" stroke="url(#paint51_linear_4001_58304)" stroke-opacity="0.2" stroke-width="0.599139"/>
<path d="M45.7963 228.952C4.6812 204.422 -28.2283 175.411 -48.2026 148.35C-58.1902 134.818 -64.9346 121.786 -67.8614 110.055C-70.7878 98.3255 -69.893 87.9204 -64.6402 79.6053C-59.3875 71.2902 -50.2449 65.806 -38.1576 63.0341C-26.0689 60.2619 -11.059 60.2094 5.87695 62.7417C39.7473 67.8059 81.2592 83.1985 122.374 107.729C163.489 132.26 196.399 161.27 216.373 188.332C226.361 201.864 233.105 214.896 236.032 226.627C238.958 238.356 238.064 248.761 232.811 257.077C227.558 265.392 218.416 270.876 206.328 273.648C194.24 276.42 179.23 276.472 162.294 273.94C128.423 268.876 86.9114 253.483 45.7963 228.952Z" stroke="url(#paint52_linear_4001_58304)" stroke-opacity="0.2" stroke-width="0.599139"/>
<path d="M44.7259 228.301C4.06256 203.068 -28.3178 173.496 -47.802 146.094C-57.5445 132.392 -64.0539 119.245 -66.7701 107.463C-69.486 95.6835 -68.4055 85.2933 -63.0059 77.0675C-57.6062 68.8417 -48.3685 63.5132 -36.2356 60.9473C-24.1013 58.3811 -9.09534 58.5846 7.78976 61.4055C41.5586 67.0473 82.7819 83.1478 123.445 108.38C164.109 133.613 196.489 163.184 215.973 190.587C225.716 204.289 232.225 217.436 234.941 229.217C237.657 240.997 236.577 251.387 231.177 259.613C225.777 267.839 216.54 273.168 204.407 275.733C192.272 278.3 177.266 278.096 160.381 275.275C126.613 269.633 85.3893 253.533 44.7259 228.301Z" stroke="url(#paint53_linear_4001_58304)" stroke-opacity="0.2" stroke-width="0.599139"/>
<path d="M43.6668 227.63C3.46765 201.704 -28.3737 171.58 -47.3619 143.844C-56.8564 129.976 -63.1287 116.718 -65.6335 104.89C-68.1381 93.0635 -66.8723 82.6914 -61.3273 74.5574C-55.7823 66.4233 -46.4524 61.2522 -34.2776 58.8931C-22.1014 56.5337 -7.10398 56.9929 9.7252 60.1018C43.3822 66.3193 84.3043 83.123 124.503 109.049C164.703 134.975 196.544 165.099 215.532 192.835C225.027 206.703 231.299 219.962 233.804 231.789C236.308 243.616 235.043 253.988 229.498 262.122C223.953 270.256 214.623 275.427 202.448 277.786C190.272 280.146 175.274 279.686 158.445 276.577C124.788 270.36 83.866 253.556 43.6668 227.63Z" stroke="url(#paint54_linear_4001_58304)" stroke-opacity="0.2" stroke-width="0.599139"/>
<path d="M42.6211 226.942C2.89835 200.331 -28.3944 169.663 -46.8807 141.603C-56.1243 127.573 -62.1576 114.207 -64.4503 102.336C-66.7427 90.4671 -65.292 80.1163 -59.6034 72.0765C-53.9148 64.0366 -44.4954 59.0244 -32.2825 56.8728C-20.0681 54.721 -5.08379 55.4359 11.6843 58.8318C45.2192 65.6231 85.8277 83.1248 125.55 109.737C165.273 136.348 196.566 167.016 215.052 195.076C224.296 209.106 230.329 222.472 232.622 234.343C234.914 246.212 233.464 256.563 227.775 264.603C222.086 272.642 212.667 277.655 200.454 279.806C188.24 281.958 173.255 281.243 156.487 277.847C122.952 271.056 82.3439 253.554 42.6211 226.942Z" stroke="url(#paint55_linear_4001_58304)" stroke-opacity="0.2" stroke-width="0.599139"/>
<path d="M41.587 226.237C2.35269 198.947 -28.3818 167.745 -46.3608 139.37C-55.3506 125.181 -61.1431 111.713 -63.2229 99.8027C-65.3025 87.8941 -63.6674 77.5677 -57.8369 69.6246C-52.0064 61.6815 -42.5004 56.8297 -30.253 54.8863C-18.0041 52.9426 -3.03751 53.913 13.6644 57.5948C47.067 64.958 87.3495 83.1522 126.584 110.442C165.818 137.731 196.553 168.933 214.532 197.309C223.521 211.497 229.314 224.966 231.394 236.876C233.473 248.784 231.838 259.111 226.008 267.054C220.177 274.997 210.671 279.849 198.424 281.792C186.175 283.736 171.208 282.765 154.506 279.084C121.104 271.72 80.8213 253.526 41.587 226.237Z" stroke="url(#paint56_linear_4001_58304)" stroke-opacity="0.2" stroke-width="0.599139"/>
<path d="M40.5664 225.516C1.83251 197.557 -28.3344 165.83 -45.8004 137.148C-54.5338 122.806 -60.0838 109.238 -61.9501 97.2925C-63.8162 85.3482 -61.9971 75.0494 -56.0265 67.2054C-50.0559 59.3614 -40.4662 54.6716 -28.1881 52.9369C-15.9085 51.202 -0.964077 52.4276 15.6666 56.3942C48.9266 64.327 88.8709 83.2083 127.605 111.167C166.339 139.126 196.506 170.853 213.972 199.535C222.705 213.877 228.255 227.445 230.121 239.39C231.987 251.335 230.168 261.633 224.198 269.477C218.227 277.322 208.637 282.011 196.359 283.746C184.08 285.481 169.135 284.255 152.505 280.289C119.244 272.356 79.3003 253.475 40.5664 225.516Z" stroke="url(#paint57_linear_4001_58304)" stroke-opacity="0.2" stroke-width="0.599139"/>
<path d="M39.5585 224.773C1.33687 196.153 -28.2532 163.912 -45.2011 134.931C-53.6753 120.44 -58.981 106.778 -60.6333 94.7998C-62.2854 82.8235 -60.2828 72.5554 -54.1739 64.8129C-48.065 57.0704 -38.3945 52.544 -26.0894 51.0186C-13.7829 49.493 1.13474 50.9733 17.6891 55.2235C50.7965 63.7234 90.3903 83.2861 128.612 111.906C166.834 140.526 196.424 172.767 213.371 201.748C221.846 216.239 227.151 229.902 228.804 241.879C230.456 253.856 228.453 264.124 222.344 271.866C216.235 279.609 206.565 284.135 194.26 285.661C181.953 287.186 167.036 285.706 150.481 281.456C117.374 272.956 77.7802 253.393 39.5585 224.773Z" stroke="url(#paint58_linear_4001_58304)" stroke-opacity="0.2" stroke-width="0.599139"/>
<path d="M38.5653 224.016C0.867515 194.744 -28.1368 161.998 -44.5613 132.727C-52.7738 118.092 -57.8337 104.338 -59.2714 92.3321C-60.7089 80.3274 -58.5235 70.0932 -52.2782 62.4545C-46.0328 54.8159 -36.2845 50.4542 -23.9562 49.1386C-11.6264 47.8227 3.25987 49.5574 19.7329 54.0899C52.6776 63.1544 91.9089 83.3924 129.607 112.664C167.304 141.936 196.309 174.683 212.733 203.953C220.946 218.589 226.006 232.342 227.443 244.348C228.881 256.353 226.695 266.587 220.45 274.226C214.205 281.865 204.456 286.226 192.128 287.542C179.798 288.858 164.912 287.123 148.439 282.591C115.494 273.526 76.263 253.288 38.5653 224.016Z" stroke="url(#paint59_linear_4001_58304)" stroke-opacity="0.2" stroke-width="0.599139"/>
<path d="M37.5848 223.242C0.422434 193.326 -27.9873 160.085 -43.8833 130.534C-51.8317 115.758 -56.6441 101.918 -57.8668 89.8872C-59.0894 77.8578 -56.7219 67.6605 -50.342 60.128C-43.962 52.5956 -34.1389 48.4 -21.7911 47.2945C-9.44181 46.1888 5.4086 48.1774 21.7952 52.9907C54.5672 62.617 93.424 83.5242 130.586 113.44C167.749 143.355 196.159 176.596 212.055 206.147C220.003 220.923 224.815 234.763 226.038 246.794C227.261 258.823 224.893 269.021 218.513 276.553C212.133 284.086 202.31 288.281 189.962 289.387C177.613 290.492 162.763 288.504 146.376 283.691C113.604 274.064 74.7472 253.157 37.5848 223.242Z" stroke="url(#paint60_linear_4001_58304)" stroke-opacity="0.2" stroke-width="0.599139"/>
<path d="M36.6186 222.449C0.00286237 191.9 -27.8036 158.173 -43.1664 128.351C-50.8481 113.439 -55.4117 99.5169 -56.419 87.4649C-57.4262 75.4143 -54.8773 65.2571 -48.3648 57.8332C-41.8523 50.4092 -31.9573 46.381 -19.5938 45.486C-7.22874 44.5908 7.58129 46.8325 23.8765 51.9253C56.4658 62.1105 94.9363 83.6806 131.552 114.23C168.168 144.779 195.974 178.506 211.337 208.328C219.019 223.24 223.582 237.162 224.59 249.214C225.597 261.265 223.048 271.422 216.535 278.846C210.023 286.27 200.128 290.298 187.764 291.193C175.399 292.088 160.589 289.847 144.294 284.754C111.705 274.569 73.2343 252.999 36.6186 222.449Z" stroke="url(#paint61_linear_4001_58304)" stroke-opacity="0.2" stroke-width="0.599139"/>
<path d="M35.6671 221.642C-0.390844 190.468 -27.5856 156.266 -42.4105 126.181C-49.8232 111.138 -54.1365 97.1382 -54.9282 85.0687C-55.7197 73.0008 -52.9902 62.8867 -46.347 55.5736C-39.7038 48.2604 -29.74 44.4008 -17.3646 43.7165C-4.98759 43.0321 9.77755 45.5263 25.9765 50.897C58.373 61.638 96.4456 83.8643 132.503 115.039C168.561 146.213 195.756 180.414 210.581 210.499C217.994 225.542 222.307 239.542 223.099 251.612C223.89 263.68 221.161 273.794 214.518 281.107C207.874 288.42 197.911 292.28 185.535 292.964C173.158 293.648 158.393 291.154 142.194 285.783C109.797 275.042 71.7249 252.816 35.6671 221.642Z" stroke="url(#paint62_linear_4001_58304)" stroke-opacity="0.2" stroke-width="0.599139"/>
<path d="M34.7302 220.817C-0.758875 189.027 -27.3336 154.362 -41.6161 124.023C-48.7576 108.854 -52.8193 94.7797 -53.395 82.6965C-53.9707 70.6148 -51.0613 60.547 -44.2895 53.3468C-37.5178 46.1466 -27.4881 42.4568 -15.1045 41.9835C-2.71934 41.51 11.9964 44.256 28.094 49.903C60.2881 61.1965 97.951 84.0722 133.44 115.862C168.929 147.651 195.504 182.317 209.786 212.655C216.928 227.825 220.99 241.899 221.565 253.982C222.141 266.064 219.232 276.132 212.46 283.332C205.688 290.532 195.658 294.222 183.275 294.695C170.89 295.168 156.174 292.422 140.076 286.776C107.882 275.482 70.2193 252.606 34.7302 220.817Z" stroke="url(#paint63_linear_4001_58304)" stroke-opacity="0.2" stroke-width="0.599139"/>
<path d="M33.8089 219.977C-1.10054 187.582 -27.0471 152.463 -40.7829 121.88C-47.651 106.589 -51.4599 92.4451 -51.8195 80.3518C-52.1791 68.2601 -49.0908 58.2415 -42.1925 51.1566C-35.2942 44.0716 -25.2018 40.5527 -12.8137 40.2904C-0.424131 40.0281 14.2377 43.0251 30.2292 48.9466C62.2109 60.7891 99.4528 84.3074 134.362 116.703C169.272 149.098 195.218 184.217 208.954 214.799C215.822 230.091 219.631 244.235 219.991 256.328C220.35 268.42 217.262 278.438 210.364 285.523C203.465 292.608 193.373 296.127 180.985 296.389C168.595 296.652 153.933 293.655 137.942 287.733C105.96 275.891 68.7184 252.372 33.8089 219.977Z" stroke="url(#paint64_linear_4001_58304)" stroke-opacity="0.2" stroke-width="0.599139"/>
<path d="M32.9027 219.122C-1.41653 186.131 -26.7271 150.569 -39.9119 119.752C-46.5045 104.343 -50.0595 90.1341 -50.2029 78.0344C-50.3463 65.9363 -47.0799 55.9701 -40.0572 49.0025C-33.0344 42.0348 -22.8824 38.6879 -10.4937 38.6369C1.89655 38.5858 16.5 41.8327 32.3805 48.027C64.1401 60.4149 100.95 84.5685 135.269 117.56C169.588 150.551 194.899 186.113 208.083 216.93C214.676 232.339 218.231 246.548 218.374 258.647C218.518 270.745 215.251 280.712 208.229 287.679C201.206 294.647 191.054 297.994 178.665 298.045C166.275 298.096 151.671 294.849 135.791 288.655C104.031 276.267 67.2219 252.113 32.9027 219.122Z" stroke="url(#paint65_linear_4001_58304)" stroke-opacity="0.2" stroke-width="0.599139"/>
<path d="M32.0118 218.251C-1.70668 184.675 -26.3736 148.68 -39.0033 117.638C-45.3185 102.116 -48.6184 87.8462 -48.5455 75.7438C-48.4727 63.643 -45.0294 53.7323 -37.8843 46.8841C-30.7392 40.0359 -20.5306 36.862 -8.14507 37.0222C4.24204 37.1823 18.7828 40.6783 34.5473 47.1433C66.0752 60.0729 102.441 84.8546 136.16 118.431C169.878 152.008 194.545 188.003 207.175 219.045C213.49 234.567 216.79 248.836 216.717 260.939C216.644 273.04 213.201 282.95 206.056 289.798C198.911 296.647 188.702 299.821 176.316 299.66C163.929 299.5 149.389 296.004 133.624 289.539C102.096 276.61 65.7303 251.828 32.0118 218.251Z" stroke="url(#paint66_linear_4001_58304)" stroke-opacity="0.2" stroke-width="0.599139"/>
<path d="M31.1363 217.363C-1.9712 183.211 -25.9868 146.795 -38.0578 115.537C-44.0935 99.9074 -47.1374 85.5812 -46.8483 73.4798C-46.5593 61.3801 -42.94 51.5277 -35.6748 44.8011C-28.4096 38.0745 -18.1475 35.0746 -5.76886 35.4459C6.61135 35.8172 21.0848 39.5611 36.7287 46.295C68.0153 59.7624 103.926 85.1645 137.034 119.317C170.141 153.469 194.157 189.885 206.228 221.143C212.264 236.773 215.308 251.099 215.019 263.2C214.73 275.3 211.11 285.152 203.845 291.879C196.58 298.606 186.318 301.605 173.939 301.234C161.559 300.863 147.085 297.119 131.442 290.385C100.155 276.918 64.2438 251.516 31.1363 217.363Z" stroke="url(#paint67_linear_4001_58304)" stroke-opacity="0.2" stroke-width="0.599139"/>
<path d="M30.2783 216.462C-2.2081 181.745 -25.5652 144.919 -37.0737 113.454C-42.8282 97.721 -45.615 83.3426 -45.1098 71.2459C-44.6046 59.1509 -40.8105 49.3599 -33.4274 42.7569C-26.0442 36.154 -15.7318 33.329 -3.36386 33.9113C9.00569 34.4937 23.4075 38.4844 38.926 45.4851C69.9616 59.4861 105.407 85.5009 137.894 120.218C170.38 154.936 193.737 191.761 205.246 223.226C211 238.959 213.787 253.337 213.282 265.434C212.777 277.529 208.982 287.32 201.599 293.923C194.216 300.526 183.904 303.351 171.536 302.769C159.166 302.186 144.764 298.196 129.246 291.195C98.2103 277.194 62.7648 251.179 30.2783 216.462Z" stroke="url(#paint68_linear_4001_58304)" stroke-opacity="0.2" stroke-width="0.599139"/>
<path d="M29.4359 215.546C-2.41962 180.274 -25.111 143.049 -36.0535 111.388C-41.525 95.5563 -44.054 81.1301 -43.3328 69.0418C-42.6117 56.9551 -38.6439 47.2286 -31.1451 40.7512C-23.6463 34.2739 -13.2866 31.6246 -0.933132 32.4178C11.422 33.2111 25.7478 37.4474 41.1361 44.7128C71.9114 59.2432 106.881 85.8627 138.736 121.135C170.592 156.406 193.283 193.631 204.225 225.293C209.697 241.124 212.226 255.55 211.505 267.639C210.784 279.725 206.816 289.452 199.317 295.929C191.818 302.406 181.459 305.056 169.105 304.263C156.75 303.469 142.424 299.233 127.036 291.968C96.2605 277.437 61.2914 250.818 29.4359 215.546Z" stroke="url(#paint69_linear_4001_58304)" stroke-opacity="0.2" stroke-width="0.599139"/>
<path d="M28.6097 214.614C-2.60512 178.799 -24.624 141.186 -34.9971 109.338C-40.1839 93.4128 -42.4544 78.9432 -41.5174 66.867C-40.5805 54.7923 -36.4402 45.1331 -28.828 38.7834C-21.2158 32.4338 -10.8121 29.961 1.52317 30.9648C13.8601 31.9687 28.1055 36.4493 43.3589 43.9773C73.8646 59.0325 108.347 86.2488 139.561 122.064C170.776 157.88 192.795 195.492 203.168 227.341C208.355 243.266 210.626 257.736 209.689 269.812C208.752 281.887 204.611 291.546 196.999 297.895C189.387 304.245 178.983 306.718 166.648 305.714C154.311 304.71 140.066 300.23 124.812 292.702C94.3066 277.646 59.8245 250.43 28.6097 214.614Z" stroke="url(#paint70_linear_4001_58304)" stroke-opacity="0.2" stroke-width="0.599139"/>
<path d="M27.8016 213.671C-2.7631 177.322 -24.1027 139.334 -33.9034 107.308C-38.8039 91.2941 -40.815 76.7856 -39.6626 64.725C-38.5103 52.6661 -34.1987 43.0772 -26.4754 36.8571C-18.7522 30.637 -8.3076 28.3416 4.0057 29.5557C16.3206 30.7699 30.4814 35.4935 45.5953 43.2815C75.8219 58.8572 109.806 86.6618 140.371 123.01C170.936 159.359 192.275 197.347 202.076 229.373C206.977 245.387 208.988 259.896 207.835 271.956C206.683 284.015 202.371 293.604 194.648 299.824C186.925 306.044 176.48 308.34 164.167 307.126C151.852 305.911 137.691 301.188 122.577 293.4C92.3507 277.824 58.3662 250.019 27.8016 213.671Z" stroke="url(#paint71_linear_4001_58304)" stroke-opacity="0.2" stroke-width="0.599139"/>
<path d="M27.0093 212.713C-2.89592 175.842 -23.5497 137.489 -32.7749 105.295C-37.3877 89.1978 -39.139 74.6547 -37.7714 62.6136C-36.404 50.574 -31.9224 41.0584 -24.0905 34.9697C-16.2585 28.8811 -5.77622 26.7637 6.51136 28.1877C18.8006 29.6119 32.8723 34.577 47.8421 42.6229C77.7805 58.7141 111.257 87.0986 141.162 123.969C171.067 160.839 191.721 199.192 200.946 231.386C205.559 247.484 207.31 262.027 205.943 274.068C204.576 286.107 200.094 295.623 192.262 301.712C184.43 307.8 173.948 309.918 161.66 308.494C149.371 307.07 135.299 302.104 120.329 294.059C90.391 277.967 56.9145 249.583 27.0093 212.713Z" stroke="url(#paint72_linear_4001_58304)" stroke-opacity="0.2" stroke-width="0.599139"/>
<path d="M26.235 211.74C-3.00162 174.36 -22.9634 135.654 -31.6103 103.302C-35.934 87.1254 -37.4248 72.5521 -35.8425 60.534C-34.2604 48.5176 -29.6103 39.078 -21.6719 33.1227C-13.7336 27.1674 -3.21686 25.2286 9.04125 26.8622C21.301 28.4959 35.2794 33.701 50.1005 42.0022C79.7417 58.6041 112.7 87.5599 141.937 124.941C171.173 162.322 191.135 201.028 199.782 233.379C204.106 249.556 205.596 264.129 204.014 276.147C202.432 288.164 197.782 297.603 189.844 303.558C181.905 309.514 171.389 311.453 159.13 309.819C146.871 308.185 132.892 302.98 118.071 294.679C88.43 278.077 55.4716 249.121 26.235 211.74Z" stroke="url(#paint73_linear_4001_58304)" stroke-opacity="0.2" stroke-width="0.599139"/>
<path d="M25.478 210.756C-3.08109 172.876 -22.3447 133.829 -30.4108 101.329C-34.4439 85.0783 -35.6738 70.4793 -33.8773 58.488C-32.081 46.4983 -27.2637 37.1378 -19.2215 31.3176C-11.1793 25.4973 -0.631219 23.7379 11.5937 25.5804C23.8203 27.4232 37.7011 32.8666 52.369 41.4207C81.7038 58.5283 114.134 88.0465 142.693 125.927C171.252 163.807 190.516 202.854 198.582 235.353C202.615 251.604 203.845 266.203 202.049 278.194C200.252 290.184 195.435 299.544 187.393 305.365C179.35 311.185 168.802 312.944 156.578 311.102C144.351 309.259 130.47 303.816 115.802 295.262C86.4674 278.154 54.0372 248.636 25.478 210.756Z" stroke="url(#paint74_linear_4001_58304)" stroke-opacity="0.2" stroke-width="0.599139"/>
<path d="M24.7391 209.756C-3.13387 171.388 -21.6935 132.012 -29.1761 99.3738C-32.9176 83.0542 -33.8863 68.434 -31.8761 56.473C-29.8662 44.5137 -24.8831 35.235 -16.7394 29.5517C-8.59574 23.8684 1.98036 22.2888 14.1684 24.3397C26.358 26.391 40.137 32.0712 54.6473 40.8755C83.6668 58.4835 115.559 88.5552 143.432 126.923C171.305 165.29 189.865 204.667 197.347 237.305C201.089 253.624 202.057 268.244 200.047 280.205C198.037 292.165 193.054 301.443 184.911 307.127C176.767 312.81 166.191 314.39 154.003 312.339C141.813 310.287 128.034 304.607 113.524 295.803C84.5042 278.195 52.612 248.123 24.7391 209.756Z" stroke="url(#paint75_linear_4001_58304)" stroke-opacity="0.2" stroke-width="0.599139"/>
<path d="M24.0178 208.745C-3.1605 169.902 -21.0104 130.208 -27.9075 97.4421C-31.3561 81.0584 -32.0632 66.4214 -29.8399 54.4944C-27.617 42.5691 -22.4698 33.3751 -14.2271 27.8305C-5.98442 22.2859 4.61653 20.8865 16.7639 23.1453C28.9129 25.4044 42.5859 31.3196 56.9342 40.3714C85.6296 58.4745 116.974 89.0905 144.152 127.934C171.331 166.778 189.181 206.471 196.078 239.237C199.526 255.621 200.233 270.258 198.01 282.185C195.787 294.11 190.64 303.304 182.397 308.849C174.155 314.394 163.554 315.793 151.406 313.534C139.257 311.275 125.584 305.36 111.236 296.308C82.5405 278.205 51.196 247.589 24.0178 208.745Z" stroke="url(#paint76_linear_4001_58304)" stroke-opacity="0.2" stroke-width="0.599139"/>
<path d="M23.3162 207.722C-3.15908 168.414 -20.2939 128.416 -26.6032 95.5313C-29.758 79.0885 -30.2033 64.4391 -27.7676 52.5498C-25.3323 40.6621 -20.0225 31.5557 -11.6833 26.1514C-3.34418 20.7471 7.27838 19.5284 19.3814 21.9943C31.4861 24.4606 45.0489 30.609 59.2308 39.9056C87.5933 58.4982 118.381 89.6492 144.856 128.957C171.331 168.265 188.466 208.263 194.775 241.148C197.93 257.59 198.375 272.24 195.94 284.129C193.504 296.017 188.195 305.123 179.855 310.527C171.516 315.932 160.894 317.15 148.791 314.685C136.686 312.218 123.123 306.07 108.941 296.773C80.5787 278.181 49.7916 247.03 23.3162 207.722Z" stroke="url(#paint77_linear_4001_58304)" stroke-opacity="0.2" stroke-width="0.599139"/>
<path d="M22.6318 206.687C-3.13252 166.927 -19.5471 126.635 -25.2667 93.6427C-28.1266 77.1458 -28.31 62.4885 -25.6627 50.6405C-23.0158 38.7941 -17.545 29.7779 -9.11189 24.5156C-0.678795 19.2533 9.96215 18.2158 22.0172 20.888C34.0738 23.5607 47.5224 29.9404 61.5334 39.479C89.5545 58.5555 119.775 90.2319 145.539 129.992C171.304 169.752 187.718 210.043 193.438 243.036C196.298 259.533 196.481 274.19 193.834 286.038C191.187 297.884 185.716 306.901 177.283 312.163C168.85 317.425 158.209 318.463 146.154 315.79C134.097 313.118 120.649 306.738 106.638 297.199C78.6166 278.123 48.3961 246.447 22.6318 206.687Z" stroke="url(#paint78_linear_4001_58304)" stroke-opacity="0.2" stroke-width="0.599139"/>
<path d="M21.9664 205.641C-3.07909 165.441 -18.7683 124.869 -23.8966 91.7778C-26.4608 75.2318 -26.3822 60.5711 -23.524 48.768C-20.6663 36.9665 -15.0362 28.0433 -6.5117 22.9246C2.01276 17.8059 12.6688 16.9497 24.6722 19.8276C36.6772 22.7058 50.0073 29.315 63.8433 39.0926C91.5144 58.6472 121.159 90.8394 146.204 131.039C171.25 171.239 186.939 211.811 192.067 244.902C194.632 261.448 194.553 276.109 191.695 287.912C188.837 299.713 183.207 308.637 174.683 313.755C166.158 318.874 155.502 319.73 143.499 316.852C131.494 313.974 118.164 307.365 104.327 297.587C76.6564 278.033 47.0118 245.84 21.9664 205.641Z" stroke="url(#paint79_linear_4001_58304)" stroke-opacity="0.2" stroke-width="0.599139"/>
<path d="M21.3201 204.583C-2.99885 163.955 -17.958 123.115 -22.4933 89.936C-24.761 73.3459 -24.4205 58.6862 -21.3524 46.9316C-18.2847 35.1786 -12.4969 26.3511 -3.88368 21.3776C4.72955 16.4041 15.3975 15.7296 27.3455 18.8121C39.2951 21.8951 52.5028 28.7316 66.1596 38.7453C93.4723 58.772 122.532 91.4702 146.851 132.098C171.17 172.726 186.129 213.566 190.664 246.745C192.932 263.335 192.592 277.995 189.523 289.749C186.456 301.502 180.668 310.33 172.055 315.303C163.441 320.277 152.774 320.951 140.826 317.869C128.876 314.786 115.668 307.949 102.011 297.936C74.6988 277.909 45.6391 245.211 21.3201 204.583Z" stroke="url(#paint80_linear_4001_58304)" stroke-opacity="0.2" stroke-width="0.599139"/>
<path d="M20.6927 203.513C-2.89238 162.47 -17.1169 121.374 -21.0578 88.1166C-23.0284 71.4875 -22.426 56.8334 -19.1489 45.1308C-15.8722 33.4298 -9.92853 24.7008 -1.22917 19.874C7.47019 15.0472 18.1468 14.5545 30.0358 17.8408C41.9264 21.1275 55.0077 28.1893 68.4811 38.4361C95.4269 58.9288 123.893 92.1231 147.478 133.166C171.063 174.209 185.287 215.305 189.228 248.562C191.199 265.191 190.597 279.846 187.319 291.548C184.043 303.249 178.099 311.978 169.4 316.805C160.7 321.632 150.024 322.124 138.135 318.838C126.244 315.551 113.163 308.49 99.6895 298.243C72.7437 277.75 44.2778 244.556 20.6927 203.513Z" stroke="url(#paint81_linear_4001_58304)" stroke-opacity="0.2" stroke-width="0.599139"/>
<path d="M20.0855 202.433C-2.75848 160.987 -16.244 119.648 -19.5894 86.3231C-21.2622 69.66 -20.3982 55.0159 -16.913 43.3689C-13.4282 31.7236 -7.33057 23.0956 1.45227 18.417C10.2351 13.7383 20.9171 13.4277 32.7435 16.9167C44.5715 20.4062 57.5223 27.6912 70.8082 38.1678C97.3791 59.1203 125.243 92.8006 148.087 134.247C170.931 175.693 184.416 217.032 187.762 250.357C189.434 267.02 188.57 281.664 185.085 293.311C181.6 304.956 175.503 313.584 166.72 318.263C157.937 322.942 147.255 323.252 135.429 319.763C123.601 316.274 110.65 308.989 97.3639 298.512C70.793 277.56 42.9295 243.879 20.0855 202.433Z" stroke="url(#paint82_linear_4001_58304)" stroke-opacity="0.2" stroke-width="0.599139"/>
<path d="M19.4968 201.344C-2.59918 159.507 -15.3416 117.937 -18.0904 84.5546C-19.4649 67.8627 -18.3395 53.233 -14.6474 41.6452C-10.9557 30.0591 -4.70582 21.5348 4.15784 17.0058C13.0215 12.4767 23.7056 12.3482 35.4658 16.0389C47.2276 19.7301 60.044 27.236 73.1384 37.9393C99.3261 59.3452 126.579 93.5012 148.675 135.337C170.771 177.174 183.513 218.744 186.262 252.126C187.636 268.818 186.511 283.448 182.819 295.036C179.127 306.622 172.877 315.146 164.014 319.675C155.15 324.204 144.466 324.333 132.706 320.642C120.944 316.951 108.128 309.445 95.0331 298.742C68.8453 277.336 41.5927 243.18 19.4968 201.344Z" stroke="url(#paint83_linear_4001_58304)" stroke-opacity="0.2" stroke-width="0.599139"/>
<path d="M18.9274 200.243C-2.41385 158.029 -14.4093 116.241 -16.5608 82.8105C-17.6365 66.0949 -16.2501 51.4841 -12.3521 39.959C-8.45459 28.4355 -2.05443 20.0176 6.88733 15.6395C15.8291 11.2614 26.512 11.315 38.2024 15.2063C49.8945 19.0982 62.5726 26.8227 75.4714 37.7494C101.268 59.6022 127.902 94.2235 149.243 136.437C170.584 178.651 182.579 220.44 184.731 253.87C185.807 270.585 184.42 285.196 180.522 296.721C176.625 308.245 170.225 316.662 161.283 321.041C152.341 325.419 141.658 325.365 129.968 321.474C118.276 317.582 105.598 309.857 92.6987 298.931C66.902 277.078 40.2686 242.457 18.9274 200.243Z" stroke="url(#paint84_linear_4001_58304)" stroke-opacity="0.2" stroke-width="0.599139"/>
<path d="M18.3789 199.132C-2.20105 156.553 -13.4459 114.56 -14.9993 81.0924C-15.776 64.3581 -14.129 49.7706 -10.0263 38.3117C-5.92417 26.8545 0.624323 18.5455 9.64146 14.3197C18.6586 10.0939 29.3371 10.3297 40.9542 14.4203C52.5729 18.5115 65.1088 26.4524 77.8082 37.5992C103.206 59.8922 129.212 94.9682 149.792 137.547C170.372 180.125 181.617 222.119 183.17 255.586C183.947 272.321 182.3 286.908 178.197 298.367C174.095 309.824 167.547 318.133 158.529 322.359C149.512 326.585 138.834 326.349 127.217 322.258C115.598 318.167 103.062 310.226 90.3628 299.079C64.9649 276.787 38.9588 241.711 18.3789 199.132Z" stroke="url(#paint85_linear_4001_58304)" stroke-opacity="0.2" stroke-width="0.599139"/>
<path d="M17.8507 198.014C-1.96169 155.084 -12.4525 112.898 -13.4074 79.4032C-13.8849 62.6553 -11.9777 48.0956 -7.67158 36.7065C-3.36606 25.3189 3.32879 17.1213 12.4186 13.0491C21.5083 8.97695 32.1792 9.39478 43.7194 13.6835C55.2612 17.9729 67.6511 26.1276 80.1472 37.4912C105.138 60.2176 130.509 95.7377 150.322 138.668C170.134 181.598 180.625 223.784 181.58 257.279C182.057 274.027 180.15 288.587 175.844 299.976C171.538 311.363 164.844 319.561 155.754 323.633C146.664 327.705 135.993 327.287 124.453 322.999C112.911 318.709 100.521 310.555 88.0252 299.191C63.034 276.465 37.6631 240.944 17.8507 198.014Z" stroke="url(#paint86_linear_4001_58304)" stroke-opacity="0.2" stroke-width="0.599139"/>
<path d="M17.3414 196.885C-1.69746 153.616 -11.4311 111.25 -11.7871 77.7384C-11.9651 60.9821 -9.79846 46.4545 -5.29023 35.1385C-0.782637 23.8242 6.05652 15.7405 15.2162 11.8232C24.3758 7.90584 35.0358 8.50561 46.4955 12.9912C57.9569 17.4774 70.1971 25.8435 82.486 37.4204C107.063 60.5732 131.791 96.5266 150.83 139.795C169.869 183.064 179.602 225.43 179.958 258.942C180.136 275.698 177.97 290.226 173.461 301.542C168.954 312.856 162.115 320.94 152.955 324.857C143.795 328.774 133.135 328.175 121.676 323.689C110.214 319.203 97.974 310.837 85.6851 299.26C61.1081 276.107 36.3802 240.154 17.3414 196.885Z" stroke="url(#paint87_linear_4001_58304)" stroke-opacity="0.2" stroke-width="0.599139"/>
<path d="M16.8533 195.748C-1.40618 152.154 -10.3796 109.621 -10.1367 76.1031C-10.0153 59.3433 -7.58973 44.8525 -2.88076 33.6131C1.82753 22.3753 8.80892 14.408 18.0356 10.6467C27.2623 6.88546 37.9081 7.66698 49.284 12.348C60.6615 17.0297 72.7482 25.6047 84.8263 37.3913C108.982 60.9636 133.059 97.3392 151.318 140.934C169.578 184.528 178.551 227.061 178.308 260.579C178.187 277.339 175.761 291.83 171.052 303.069C166.344 314.307 159.363 322.274 150.136 326.035C140.909 329.797 130.264 329.015 118.888 324.334C107.51 319.652 95.4235 311.077 83.3454 299.291C59.1901 275.718 35.1128 239.343 16.8533 195.748Z" stroke="url(#paint88_linear_4001_58304)" stroke-opacity="0.2" stroke-width="0.599139"/>
<path d="M16.3849 194.603C-1.08967 150.696 -9.30013 108.009 -8.45843 74.4946C-8.03757 57.7365 -5.35385 43.2867 -0.445592 32.1274C4.46196 20.9696 11.5835 13.1212 20.8744 9.51708C30.1653 5.913 40.7938 6.87603 52.0823 11.7511C63.3724 16.6269 75.302 25.408 87.1655 37.4008C110.892 61.3854 134.311 98.1722 151.786 142.079C169.26 185.985 177.471 228.672 176.629 262.187C176.208 278.945 173.524 293.395 168.616 304.554C163.709 315.712 156.587 323.56 147.296 327.164C138.005 330.768 127.377 329.805 116.088 324.93C104.798 320.054 92.8687 311.273 81.0052 299.281C57.279 275.296 33.8595 238.509 16.3849 194.603Z" stroke="url(#paint89_linear_4001_58304)" stroke-opacity="0.2" stroke-width="0.599139"/>
<path d="M15.9381 193.448C-0.746225 149.243 -8.19128 106.415 -6.75098 72.9141C-6.0308 56.1629 -3.08977 41.7586 2.01628 30.6827C7.12162 19.6084 14.381 11.8811 23.7334 8.43532C33.0858 4.98953 43.6935 6.13379 54.8913 11.2014C66.0906 16.2697 77.8593 25.2544 89.5047 37.4497C112.795 61.8392 135.549 99.0261 152.233 143.231C168.918 187.437 176.363 230.264 174.922 263.765C174.202 280.517 171.261 294.921 166.155 305.997C161.05 317.071 153.79 324.798 144.438 328.244C135.086 331.69 124.478 330.546 113.28 325.478C102.081 320.41 90.3122 311.425 78.6668 299.23C55.377 274.84 32.6224 237.653 15.9381 193.448Z" stroke="url(#paint90_linear_4001_58304)" stroke-opacity="0.2" stroke-width="0.599139"/>
<path d="M15.5118 192.288C-0.377245 147.797 -7.05459 104.842 -5.01616 71.3647C-3.9969 54.6255 -0.799446 40.2709 4.50286 29.2818C9.80442 18.2944 17.1996 10.6907 26.6105 7.40423C36.0214 4.11779 46.6053 5.44293 57.7088 10.7015C68.814 15.9609 80.4183 25.1464 91.8419 37.5404C114.688 62.3275 136.771 99.903 152.66 144.394C168.549 188.884 175.226 231.84 173.188 265.317C172.169 282.056 168.971 296.411 163.669 307.4C158.367 318.387 150.972 325.991 141.561 329.277C132.15 332.564 121.567 331.239 110.463 325.98C99.3578 320.721 87.7535 311.535 76.3299 299.141C53.4834 274.354 31.4007 236.779 15.5118 192.288Z" stroke="url(#paint91_linear_4001_58304)" stroke-opacity="0.2" stroke-width="0.599139"/>
<path d="M15.1058 191.119C0.0169304 146.357 -5.89069 103.287 -3.25472 69.8437C-1.93669 53.1215 1.51622 38.8211 7.01316 27.9222C12.5093 17.0249 20.0379 9.54706 29.5045 6.42098C38.9711 3.2949 49.5279 4.8005 60.5339 10.2485C71.5414 15.6973 82.9778 25.0808 94.1763 37.6698C116.572 62.8469 137.976 100.8 153.065 145.562C168.154 190.325 174.062 233.395 171.426 266.838C170.108 283.56 166.655 297.86 161.158 308.759C155.662 319.657 148.133 327.134 138.666 330.261C129.2 333.387 118.643 331.881 107.637 326.433C96.6296 320.984 85.1932 311.601 73.9947 299.012C51.5986 273.835 30.1946 235.882 15.1058 191.119Z" stroke="url(#paint92_linear_4001_58304)" stroke-opacity="0.2" stroke-width="0.599139"/>
<path d="M14.7214 189.943C0.437335 144.923 -4.69877 101.751 -1.46608 68.3521C0.150332 51.652 3.85764 37.4103 9.54753 26.6048C15.2366 15.8009 22.8964 8.45129 32.4158 5.48652C41.9352 2.52174 52.4617 4.20734 63.3667 9.84308C74.2733 15.4796 85.5383 25.0583 96.5082 37.8385C118.447 63.3979 139.166 101.716 153.45 146.737C167.734 191.758 172.87 234.929 169.638 268.328C168.021 285.028 164.314 299.27 158.624 310.076C152.935 320.879 145.275 328.229 135.756 331.194C126.236 334.159 115.71 332.473 104.805 326.837C93.8982 321.201 82.6331 311.622 71.6633 298.842C49.7244 273.282 29.0055 234.964 14.7214 189.943Z" stroke="url(#paint93_linear_4001_58304)" stroke-opacity="0.2" stroke-width="0.599139"/>
<path d="M14.3585 188.761C0.883566 143.496 -3.47943 100.236 0.348992 66.8911C2.26327 50.2182 6.22386 36.0394 12.105 25.3307C17.9853 14.6235 25.7739 7.40432 35.3432 4.60176C44.9125 1.79919 55.4054 3.66429 66.2062 9.48607C77.0085 15.3087 88.0987 25.0796 98.8366 38.047C120.312 63.981 140.339 102.653 153.814 147.919C167.289 193.184 171.652 236.444 167.824 269.788C165.909 286.461 161.949 300.64 156.068 311.349C150.187 322.056 142.399 329.275 132.829 332.078C123.26 334.88 112.767 333.015 101.966 327.193C91.1641 321.371 80.0739 311.6 69.336 298.632C47.861 272.698 27.8335 234.026 14.3585 188.761Z" stroke="url(#paint94_linear_4001_58304)" stroke-opacity="0.2" stroke-width="0.599139"/>
<path d="M14.0155 187.573C1.35379 142.077 -2.23479 98.7417 2.18821 65.4617C4.39979 48.8211 8.61243 34.7095 14.683 24.1009C20.7527 13.4937 28.6677 6.40716 38.2841 3.76767C47.9004 1.12817 58.3566 3.17218 69.0498 9.17823C79.7445 15.1851 90.6565 25.1453 101.159 38.2961C122.164 64.5967 141.494 103.611 154.156 149.107C166.817 194.603 170.406 237.938 165.983 271.218C163.771 287.859 159.559 301.97 153.488 312.579C147.418 323.186 139.503 330.273 129.887 332.912C120.271 335.552 109.814 333.508 99.1213 327.502C88.4265 321.495 77.5145 311.535 67.0118 298.384C46.0072 272.083 26.6773 233.069 14.0155 187.573Z" stroke="url(#paint95_linear_4001_58304)" stroke-opacity="0.2" stroke-width="0.599139"/>
<path d="M13.6951 186.378C1.85043 140.666 -0.962646 97.2684 4.05358 64.0631C6.56178 47.4599 11.0252 33.4198 17.2833 22.9144C23.5406 12.4105 31.5797 5.45873 41.2401 2.98311C50.9004 0.507493 61.3167 2.72982 71.8991 8.91825C82.4831 15.1076 93.2135 25.254 103.478 38.5841C124.006 65.2433 142.632 104.588 154.477 150.301C166.321 196.013 169.135 239.411 164.118 272.616C161.61 289.219 157.147 303.26 150.889 313.765C144.631 324.269 136.592 331.221 126.932 333.696C117.271 336.172 106.855 333.949 96.2728 327.761C85.6888 321.572 74.9584 311.425 64.6941 298.095C44.1663 271.436 25.5398 232.091 13.6951 186.378Z" stroke="url(#paint96_linear_4001_58304)" stroke-opacity="0.2" stroke-width="0.599139"/>
<path d="M13.3951 185.178C2.37106 139.263 0.334344 95.8167 5.94228 62.6963C8.74634 46.1354 13.4592 32.1711 19.903 21.7722C26.3459 11.3748 34.5066 4.55987 44.2081 2.24888C53.9096 -0.0621081 64.2827 2.33784 74.7511 8.70681C85.221 15.0767 95.7667 25.4063 105.789 38.9116C125.834 65.9213 143.752 105.585 154.776 151.5C165.8 197.416 167.836 240.862 162.228 273.982C159.424 290.543 154.711 304.508 148.268 314.906C141.825 325.304 133.664 332.119 123.963 334.43C114.261 336.741 103.888 334.341 93.4195 327.972C82.9496 321.602 72.404 311.272 62.3812 297.767C42.3364 270.757 24.419 231.094 13.3951 185.178Z" stroke="url(#paint97_linear_4001_58304)" stroke-opacity="0.2" stroke-width="0.599139"/>
<path d="M13.1176 183.976C2.91767 137.872 1.65795 94.3898 7.85587 61.3642C10.9549 44.8508 15.9158 30.9666 22.5433 20.6773C29.1699 10.3895 37.4498 3.71353 47.1894 1.56787C56.929 -0.577778 67.2559 1.99905 77.607 8.54664C87.9597 15.0951 98.3173 25.6047 108.096 39.2812C127.651 66.6332 144.854 106.603 155.054 152.707C165.254 198.812 166.514 242.293 160.316 275.319C157.217 291.832 152.256 305.717 145.628 316.006C139.002 326.294 130.722 332.97 120.982 335.115C111.243 337.261 100.916 334.684 90.5645 328.137C80.2118 321.588 69.8542 311.079 60.076 297.402C40.5204 270.05 23.3176 230.08 13.1176 183.976Z" stroke="url(#paint98_linear_4001_58304)" stroke-opacity="0.2" stroke-width="0.599139"/>
<path d="M12.8611 182.764C3.48831 136.485 3.00596 92.9806 9.79198 60.0599C13.1851 43.5991 18.3924 29.7991 25.2017 19.6226C32.0099 9.44753 40.4064 2.91259 50.1811 0.932934C59.9559 -1.04673 70.2334 1.70621 80.4642 8.43038C90.6965 15.1555 100.863 25.8419 110.394 39.6853C129.454 67.3713 145.937 107.635 155.31 153.914C164.683 200.193 165.165 243.698 158.379 276.618C154.986 293.079 149.779 306.879 142.969 317.056C136.161 327.231 127.765 333.766 117.99 335.745C108.215 337.725 97.9376 334.972 87.7068 328.248C77.4746 321.523 67.3081 310.837 57.7775 296.993C38.7169 269.307 22.2339 229.043 12.8611 182.764Z" stroke="url(#paint99_linear_4001_58304)" stroke-opacity="0.2" stroke-width="0.599139"/>
</g>
<defs>
<linearGradient id="paint0_linear_4001_58304" x1="69.0798" y1="129.61" x2="98.3489" y2="209.051" gradientUnits="userSpaceOnUse">
<stop stop-color="#4F46E5"/>
<stop offset="1" stop-color="#4F46E5"/>
</linearGradient>
<linearGradient id="paint1_linear_4001_58304" x1="69.7767" y1="129.354" x2="97.685" y2="209.271" gradientUnits="userSpaceOnUse">
<stop stop-color="#4F46E5"/>
<stop offset="1" stop-color="#4F46E5"/>
</linearGradient>
<linearGradient id="paint2_linear_4001_58304" x1="70.478" y1="129.11" x2="97.0186" y2="209.482" gradientUnits="userSpaceOnUse">
<stop stop-color="#4F46E5"/>
<stop offset="1" stop-color="#4F46E5"/>
</linearGradient>
<linearGradient id="paint3_linear_4001_58304" x1="71.1839" y1="128.876" x2="96.35" y2="209.68" gradientUnits="userSpaceOnUse">
<stop stop-color="#4F46E5"/>
<stop offset="1" stop-color="#4F46E5"/>
</linearGradient>
<linearGradient id="paint4_linear_4001_58304" x1="71.8928" y1="128.655" x2="95.6779" y2="209.869" gradientUnits="userSpaceOnUse">
<stop stop-color="#4F46E5"/>
<stop offset="1" stop-color="#4F46E5"/>
</linearGradient>
<linearGradient id="paint5_linear_4001_58304" x1="72.6056" y1="128.447" x2="95.0037" y2="210.048" gradientUnits="userSpaceOnUse">
<stop stop-color="#4F46E5"/>
<stop offset="1" stop-color="#4F46E5"/>
</linearGradient>
<linearGradient id="paint6_linear_4001_58304" x1="73.3227" y1="128.251" x2="94.3279" y2="210.218" gradientUnits="userSpaceOnUse">
<stop stop-color="#4F46E5"/>
<stop offset="1" stop-color="#4F46E5"/>
</linearGradient>
<linearGradient id="paint7_linear_4001_58304" x1="74.0426" y1="128.065" x2="93.6494" y2="210.374" gradientUnits="userSpaceOnUse">
<stop stop-color="#4F46E5"/>
<stop offset="1" stop-color="#4F46E5"/>
</linearGradient>
<linearGradient id="paint8_linear_4001_58304" x1="74.7651" y1="127.894" x2="92.9684" y2="210.523" gradientUnits="userSpaceOnUse">
<stop stop-color="#4F46E5"/>
<stop offset="1" stop-color="#4F46E5"/>
</linearGradient>
<linearGradient id="paint9_linear_4001_58304" x1="75.4906" y1="127.735" x2="92.2854" y2="210.66" gradientUnits="userSpaceOnUse">
<stop stop-color="#4F46E5"/>
<stop offset="1" stop-color="#4F46E5"/>
</linearGradient>
<linearGradient id="paint10_linear_4001_58304" x1="76.219" y1="127.587" x2="91.6007" y2="210.787" gradientUnits="userSpaceOnUse">
<stop stop-color="#4F46E5"/>
<stop offset="1" stop-color="#4F46E5"/>
</linearGradient>
<linearGradient id="paint11_linear_4001_58304" x1="76.9497" y1="127.452" x2="90.9139" y2="210.903" gradientUnits="userSpaceOnUse">
<stop stop-color="#4F46E5"/>
<stop offset="1" stop-color="#4F46E5"/>
</linearGradient>
<linearGradient id="paint12_linear_4001_58304" x1="77.6829" y1="127.33" x2="90.2257" y2="211.01" gradientUnits="userSpaceOnUse">
<stop stop-color="#4F46E5"/>
<stop offset="1" stop-color="#4F46E5"/>
</linearGradient>
<linearGradient id="paint13_linear_4001_58304" x1="78.4179" y1="127.219" x2="89.5356" y2="211.105" gradientUnits="userSpaceOnUse">
<stop stop-color="#4F46E5"/>
<stop offset="1" stop-color="#4F46E5"/>
</linearGradient>
<linearGradient id="paint14_linear_4001_58304" x1="79.1546" y1="127.121" x2="88.8438" y2="211.19" gradientUnits="userSpaceOnUse">
<stop stop-color="#4F46E5"/>
<stop offset="1" stop-color="#4F46E5"/>
</linearGradient>
<linearGradient id="paint15_linear_4001_58304" x1="79.8927" y1="127.037" x2="88.1503" y2="211.266" gradientUnits="userSpaceOnUse">
<stop stop-color="#4F46E5"/>
<stop offset="1" stop-color="#4F46E5"/>
</linearGradient>
<linearGradient id="paint16_linear_4001_58304" x1="80.632" y1="126.965" x2="87.4553" y2="211.33" gradientUnits="userSpaceOnUse">
<stop stop-color="#4F46E5"/>
<stop offset="1" stop-color="#4F46E5"/>
</linearGradient>
<linearGradient id="paint17_linear_4001_58304" x1="81.3728" y1="126.904" x2="86.7592" y2="211.383" gradientUnits="userSpaceOnUse">
<stop stop-color="#4F46E5"/>
<stop offset="1" stop-color="#4F46E5"/>
</linearGradient>
<linearGradient id="paint18_linear_4001_58304" x1="82.1133" y1="126.858" x2="86.0607" y2="211.427" gradientUnits="userSpaceOnUse">
<stop stop-color="#4F46E5"/>
<stop offset="1" stop-color="#4F46E5"/>
</linearGradient>
<linearGradient id="paint19_linear_4001_58304" x1="82.8557" y1="126.823" x2="85.3621" y2="211.459" gradientUnits="userSpaceOnUse">
<stop stop-color="#4F46E5"/>
<stop offset="1" stop-color="#4F46E5"/>
</linearGradient>
<linearGradient id="paint20_linear_4001_58304" x1="83.5976" y1="126.802" x2="84.6616" y2="211.482" gradientUnits="userSpaceOnUse">
<stop stop-color="#4F46E5"/>
<stop offset="1" stop-color="#4F46E5"/>
</linearGradient>
<linearGradient id="paint21_linear_4001_58304" x1="84.3404" y1="126.793" x2="83.9607" y2="211.493" gradientUnits="userSpaceOnUse">
<stop stop-color="#4F46E5"/>
<stop offset="1" stop-color="#4F46E5"/>
</linearGradient>
<linearGradient id="paint22_linear_4001_58304" x1="85.0826" y1="126.795" x2="83.2583" y2="211.491" gradientUnits="userSpaceOnUse">
<stop stop-color="#4F46E5"/>
<stop offset="1" stop-color="#4F46E5"/>
</linearGradient>
<linearGradient id="paint23_linear_4001_58304" x1="85.8244" y1="126.812" x2="82.5549" y2="211.482" gradientUnits="userSpaceOnUse">
<stop stop-color="#4F46E5"/>
<stop offset="1" stop-color="#4F46E5"/>
</linearGradient>
<linearGradient id="paint24_linear_4001_58304" x1="86.5664" y1="126.84" x2="81.8514" y2="211.46" gradientUnits="userSpaceOnUse">
<stop stop-color="#4F46E5"/>
<stop offset="1" stop-color="#4F46E5"/>
</linearGradient>
<linearGradient id="paint25_linear_4001_58304" x1="87.3068" y1="126.881" x2="81.1464" y2="211.427" gradientUnits="userSpaceOnUse">
<stop stop-color="#4F46E5"/>
<stop offset="1" stop-color="#4F46E5"/>
</linearGradient>
<linearGradient id="paint26_linear_4001_58304" x1="88.0466" y1="126.935" x2="80.4411" y2="211.383" gradientUnits="userSpaceOnUse">
<stop stop-color="#4F46E5"/>
<stop offset="1" stop-color="#4F46E5"/>
</linearGradient>
<linearGradient id="paint27_linear_4001_58304" x1="88.7849" y1="127.002" x2="79.7351" y2="211.329" gradientUnits="userSpaceOnUse">
<stop stop-color="#4F46E5"/>
<stop offset="1" stop-color="#4F46E5"/>
</linearGradient>
<linearGradient id="paint28_linear_4001_58304" x1="89.5223" y1="127.082" x2="79.0292" y2="211.264" gradientUnits="userSpaceOnUse">
<stop stop-color="#4F46E5"/>
<stop offset="1" stop-color="#4F46E5"/>
</linearGradient>
<linearGradient id="paint29_linear_4001_58304" x1="90.2578" y1="127.173" x2="78.3228" y2="211.186" gradientUnits="userSpaceOnUse">
<stop stop-color="#4F46E5"/>
<stop offset="1" stop-color="#4F46E5"/>
</linearGradient>
<linearGradient id="paint30_linear_4001_58304" x1="90.991" y1="127.278" x2="77.6159" y2="211.099" gradientUnits="userSpaceOnUse">
<stop stop-color="#4F46E5"/>
<stop offset="1" stop-color="#4F46E5"/>
</linearGradient>
<linearGradient id="paint31_linear_4001_58304" x1="91.7223" y1="127.394" x2="76.9092" y2="210.998" gradientUnits="userSpaceOnUse">
<stop stop-color="#4F46E5"/>
<stop offset="1" stop-color="#4F46E5"/>
</linearGradient>
<linearGradient id="paint32_linear_4001_58304" x1="92.4518" y1="127.525" x2="76.2031" y2="210.889" gradientUnits="userSpaceOnUse">
<stop stop-color="#4F46E5"/>
<stop offset="1" stop-color="#4F46E5"/>
</linearGradient>
<linearGradient id="paint33_linear_4001_58304" x1="93.1785" y1="127.666" x2="75.4969" y2="210.766" gradientUnits="userSpaceOnUse">
<stop stop-color="#4F46E5"/>
<stop offset="1" stop-color="#4F46E5"/>
</linearGradient>
<linearGradient id="paint34_linear_4001_58304" x1="93.9028" y1="127.822" x2="74.7915" y2="210.633" gradientUnits="userSpaceOnUse">
<stop stop-color="#4F46E5"/>
<stop offset="1" stop-color="#4F46E5"/>
</linearGradient>
<linearGradient id="paint35_linear_4001_58304" x1="94.6236" y1="127.986" x2="74.0863" y2="210.485" gradientUnits="userSpaceOnUse">
<stop stop-color="#4F46E5"/>
<stop offset="1" stop-color="#4F46E5"/>
</linearGradient>
<linearGradient id="paint36_linear_4001_58304" x1="95.341" y1="128.166" x2="73.3814" y2="210.329" gradientUnits="userSpaceOnUse">
<stop stop-color="#4F46E5"/>
<stop offset="1" stop-color="#4F46E5"/>
</linearGradient>
<linearGradient id="paint37_linear_4001_58304" x1="96.0552" y1="128.356" x2="72.6776" y2="210.158" gradientUnits="userSpaceOnUse">
<stop stop-color="#4F46E5"/>
<stop offset="1" stop-color="#4F46E5"/>
</linearGradient>
<linearGradient id="paint38_linear_4001_58304" x1="96.7657" y1="128.559" x2="71.9749" y2="209.977" gradientUnits="userSpaceOnUse">
<stop stop-color="#4F46E5"/>
<stop offset="1" stop-color="#4F46E5"/>
</linearGradient>
<linearGradient id="paint39_linear_4001_58304" x1="97.4724" y1="128.775" x2="71.2733" y2="209.785" gradientUnits="userSpaceOnUse">
<stop stop-color="#4F46E5"/>
<stop offset="1" stop-color="#4F46E5"/>
</linearGradient>
<linearGradient id="paint40_linear_4001_58304" x1="98.1751" y1="129.002" x2="70.5732" y2="209.58" gradientUnits="userSpaceOnUse">
<stop stop-color="#4F46E5"/>
<stop offset="1" stop-color="#4F46E5"/>
</linearGradient>
<linearGradient id="paint41_linear_4001_58304" x1="98.8727" y1="129.243" x2="69.8738" y2="209.363" gradientUnits="userSpaceOnUse">
<stop stop-color="#4F46E5"/>
<stop offset="1" stop-color="#4F46E5"/>
</linearGradient>
<linearGradient id="paint42_linear_4001_58304" x1="99.567" y1="129.493" x2="69.1774" y2="209.132" gradientUnits="userSpaceOnUse">
<stop stop-color="#4F46E5"/>
<stop offset="1" stop-color="#4F46E5"/>
</linearGradient>
<linearGradient id="paint43_linear_4001_58304" x1="100.256" y1="129.757" x2="68.4826" y2="208.892" gradientUnits="userSpaceOnUse">
<stop stop-color="#4F46E5"/>
<stop offset="1" stop-color="#4F46E5"/>
</linearGradient>
<linearGradient id="paint44_linear_4001_58304" x1="100.94" y1="130.031" x2="67.7892" y2="208.637" gradientUnits="userSpaceOnUse">
<stop stop-color="#4F46E5"/>
<stop offset="1" stop-color="#4F46E5"/>
</linearGradient>
<linearGradient id="paint45_linear_4001_58304" x1="101.62" y1="130.317" x2="67.0993" y2="208.37" gradientUnits="userSpaceOnUse">
<stop stop-color="#4F46E5"/>
<stop offset="1" stop-color="#4F46E5"/>
</linearGradient>
<linearGradient id="paint46_linear_4001_58304" x1="102.293" y1="130.616" x2="66.4112" y2="208.093" gradientUnits="userSpaceOnUse">
<stop stop-color="#4F46E5"/>
<stop offset="1" stop-color="#4F46E5"/>
</linearGradient>
<linearGradient id="paint47_linear_4001_58304" x1="102.961" y1="130.926" x2="65.7254" y2="207.802" gradientUnits="userSpaceOnUse">
<stop stop-color="#4F46E5"/>
<stop offset="1" stop-color="#4F46E5"/>
</linearGradient>
<linearGradient id="paint48_linear_4001_58304" x1="103.623" y1="131.247" x2="65.0433" y2="207.498" gradientUnits="userSpaceOnUse">
<stop stop-color="#4F46E5"/>
<stop offset="1" stop-color="#4F46E5"/>
</linearGradient>
<linearGradient id="paint49_linear_4001_58304" x1="104.28" y1="131.577" x2="64.3644" y2="207.181" gradientUnits="userSpaceOnUse">
<stop stop-color="#4F46E5"/>
<stop offset="1" stop-color="#4F46E5"/>
</linearGradient>
<linearGradient id="paint50_linear_4001_58304" x1="104.931" y1="131.921" x2="63.6893" y2="206.852" gradientUnits="userSpaceOnUse">
<stop stop-color="#4F46E5"/>
<stop offset="1" stop-color="#4F46E5"/>
</linearGradient>
<linearGradient id="paint51_linear_4001_58304" x1="105.574" y1="132.277" x2="63.0172" y2="206.512" gradientUnits="userSpaceOnUse">
<stop stop-color="#4F46E5"/>
<stop offset="1" stop-color="#4F46E5"/>
</linearGradient>
<linearGradient id="paint52_linear_4001_58304" x1="106.211" y1="132.643" x2="62.3491" y2="206.158" gradientUnits="userSpaceOnUse">
<stop stop-color="#4F46E5"/>
<stop offset="1" stop-color="#4F46E5"/>
</linearGradient>
<linearGradient id="paint53_linear_4001_58304" x1="106.842" y1="133.019" x2="61.6858" y2="205.791" gradientUnits="userSpaceOnUse">
<stop stop-color="#4F46E5"/>
<stop offset="1" stop-color="#4F46E5"/>
</linearGradient>
<linearGradient id="paint54_linear_4001_58304" x1="107.466" y1="133.405" x2="61.0262" y2="205.411" gradientUnits="userSpaceOnUse">
<stop stop-color="#4F46E5"/>
<stop offset="1" stop-color="#4F46E5"/>
</linearGradient>
<linearGradient id="paint55_linear_4001_58304" x1="108.083" y1="133.803" x2="60.3725" y2="205.019" gradientUnits="userSpaceOnUse">
<stop stop-color="#4F46E5"/>
<stop offset="1" stop-color="#4F46E5"/>
</linearGradient>
<linearGradient id="paint56_linear_4001_58304" x1="108.692" y1="134.211" x2="59.7227" y2="204.614" gradientUnits="userSpaceOnUse">
<stop stop-color="#4F46E5"/>
<stop offset="1" stop-color="#4F46E5"/>
</linearGradient>
<linearGradient id="paint57_linear_4001_58304" x1="109.294" y1="134.632" x2="59.0788" y2="204.199" gradientUnits="userSpaceOnUse">
<stop stop-color="#4F46E5"/>
<stop offset="1" stop-color="#4F46E5"/>
</linearGradient>
<linearGradient id="paint58_linear_4001_58304" x1="109.888" y1="135.059" x2="58.4399" y2="203.767" gradientUnits="userSpaceOnUse">
<stop stop-color="#4F46E5"/>
<stop offset="1" stop-color="#4F46E5"/>
</linearGradient>
<linearGradient id="paint59_linear_4001_58304" x1="110.475" y1="135.499" x2="57.808" y2="203.325" gradientUnits="userSpaceOnUse">
<stop stop-color="#4F46E5"/>
<stop offset="1" stop-color="#4F46E5"/>
</linearGradient>
<linearGradient id="paint60_linear_4001_58304" x1="111.053" y1="135.949" x2="57.1812" y2="202.87" gradientUnits="userSpaceOnUse">
<stop stop-color="#4F46E5"/>
<stop offset="1" stop-color="#4F46E5"/>
</linearGradient>
<linearGradient id="paint61_linear_4001_58304" x1="111.622" y1="136.407" x2="56.5609" y2="202.402" gradientUnits="userSpaceOnUse">
<stop stop-color="#4F46E5"/>
<stop offset="1" stop-color="#4F46E5"/>
</linearGradient>
<linearGradient id="paint62_linear_4001_58304" x1="112.184" y1="136.876" x2="55.9476" y2="201.922" gradientUnits="userSpaceOnUse">
<stop stop-color="#4F46E5"/>
<stop offset="1" stop-color="#4F46E5"/>
</linearGradient>
<linearGradient id="paint63_linear_4001_58304" x1="112.737" y1="137.353" x2="55.3412" y2="201.428" gradientUnits="userSpaceOnUse">
<stop stop-color="#4F46E5"/>
<stop offset="1" stop-color="#4F46E5"/>
</linearGradient>
<linearGradient id="paint64_linear_4001_58304" x1="113.282" y1="137.842" x2="54.7427" y2="200.924" gradientUnits="userSpaceOnUse">
<stop stop-color="#4F46E5"/>
<stop offset="1" stop-color="#4F46E5"/>
</linearGradient>
<linearGradient id="paint65_linear_4001_58304" x1="113.817" y1="138.34" x2="54.1516" y2="200.407" gradientUnits="userSpaceOnUse">
<stop stop-color="#4F46E5"/>
<stop offset="1" stop-color="#4F46E5"/>
</linearGradient>
<linearGradient id="paint66_linear_4001_58304" x1="114.343" y1="138.846" x2="53.5683" y2="199.878" gradientUnits="userSpaceOnUse">
<stop stop-color="#4F46E5"/>
<stop offset="1" stop-color="#4F46E5"/>
</linearGradient>
<linearGradient id="paint67_linear_4001_58304" x1="114.86" y1="139.36" x2="52.9927" y2="199.335" gradientUnits="userSpaceOnUse">
<stop stop-color="#4F46E5"/>
<stop offset="1" stop-color="#4F46E5"/>
</linearGradient>
<linearGradient id="paint68_linear_4001_58304" x1="115.369" y1="139.884" x2="52.4271" y2="198.782" gradientUnits="userSpaceOnUse">
<stop stop-color="#4F46E5"/>
<stop offset="1" stop-color="#4F46E5"/>
</linearGradient>
<linearGradient id="paint69_linear_4001_58304" x1="115.867" y1="140.417" x2="51.8695" y2="198.216" gradientUnits="userSpaceOnUse">
<stop stop-color="#4F46E5"/>
<stop offset="1" stop-color="#4F46E5"/>
</linearGradient>
<linearGradient id="paint70_linear_4001_58304" x1="116.355" y1="140.958" x2="51.3207" y2="197.638" gradientUnits="userSpaceOnUse">
<stop stop-color="#4F46E5"/>
<stop offset="1" stop-color="#4F46E5"/>
</linearGradient>
<linearGradient id="paint71_linear_4001_58304" x1="116.835" y1="141.508" x2="50.7826" y2="197.05" gradientUnits="userSpaceOnUse">
<stop stop-color="#4F46E5"/>
<stop offset="1" stop-color="#4F46E5"/>
</linearGradient>
<linearGradient id="paint72_linear_4001_58304" x1="117.303" y1="142.066" x2="50.2529" y2="196.45" gradientUnits="userSpaceOnUse">
<stop stop-color="#4F46E5"/>
<stop offset="1" stop-color="#4F46E5"/>
</linearGradient>
<linearGradient id="paint73_linear_4001_58304" x1="117.762" y1="142.632" x2="49.734" y2="195.838" gradientUnits="userSpaceOnUse">
<stop stop-color="#4F46E5"/>
<stop offset="1" stop-color="#4F46E5"/>
</linearGradient>
<linearGradient id="paint74_linear_4001_58304" x1="118.21" y1="143.206" x2="49.2252" y2="195.216" gradientUnits="userSpaceOnUse">
<stop stop-color="#4F46E5"/>
<stop offset="1" stop-color="#4F46E5"/>
</linearGradient>
<linearGradient id="paint75_linear_4001_58304" x1="118.648" y1="143.785" x2="48.7272" y2="194.581" gradientUnits="userSpaceOnUse">
<stop stop-color="#4F46E5"/>
<stop offset="1" stop-color="#4F46E5"/>
</linearGradient>
<linearGradient id="paint76_linear_4001_58304" x1="119.075" y1="144.374" x2="48.2398" y2="193.937" gradientUnits="userSpaceOnUse">
<stop stop-color="#4F46E5"/>
<stop offset="1" stop-color="#4F46E5"/>
</linearGradient>
<linearGradient id="paint77_linear_4001_58304" x1="119.493" y1="144.97" x2="47.7652" y2="193.281" gradientUnits="userSpaceOnUse">
<stop stop-color="#4F46E5"/>
<stop offset="1" stop-color="#4F46E5"/>
</linearGradient>
<linearGradient id="paint78_linear_4001_58304" x1="119.898" y1="145.573" x2="47.3008" y2="192.616" gradientUnits="userSpaceOnUse">
<stop stop-color="#4F46E5"/>
<stop offset="1" stop-color="#4F46E5"/>
</linearGradient>
<linearGradient id="paint79_linear_4001_58304" x1="120.293" y1="146.184" x2="46.8485" y2="191.942" gradientUnits="userSpaceOnUse">
<stop stop-color="#4F46E5"/>
<stop offset="1" stop-color="#4F46E5"/>
</linearGradient>
<linearGradient id="paint80_linear_4001_58304" x1="120.677" y1="146.801" x2="46.4086" y2="191.257" gradientUnits="userSpaceOnUse">
<stop stop-color="#4F46E5"/>
<stop offset="1" stop-color="#4F46E5"/>
</linearGradient>
<linearGradient id="paint81_linear_4001_58304" x1="121.05" y1="147.424" x2="45.9809" y2="190.561" gradientUnits="userSpaceOnUse">
<stop stop-color="#4F46E5"/>
<stop offset="1" stop-color="#4F46E5"/>
</linearGradient>
<linearGradient id="paint82_linear_4001_58304" x1="121.413" y1="148.054" x2="45.5668" y2="189.858" gradientUnits="userSpaceOnUse">
<stop stop-color="#4F46E5"/>
<stop offset="1" stop-color="#4F46E5"/>
</linearGradient>
<linearGradient id="paint83_linear_4001_58304" x1="121.763" y1="148.69" x2="45.1645" y2="189.146" gradientUnits="userSpaceOnUse">
<stop stop-color="#4F46E5"/>
<stop offset="1" stop-color="#4F46E5"/>
</linearGradient>
<linearGradient id="paint84_linear_4001_58304" x1="122.101" y1="149.332" x2="44.7752" y2="188.424" gradientUnits="userSpaceOnUse">
<stop stop-color="#4F46E5"/>
<stop offset="1" stop-color="#4F46E5"/>
</linearGradient>
<linearGradient id="paint85_linear_4001_58304" x1="122.428" y1="149.979" x2="44.4003" y2="187.693" gradientUnits="userSpaceOnUse">
<stop stop-color="#4F46E5"/>
<stop offset="1" stop-color="#4F46E5"/>
</linearGradient>
<linearGradient id="paint86_linear_4001_58304" x1="122.745" y1="150.634" x2="44.0395" y2="186.956" gradientUnits="userSpaceOnUse">
<stop stop-color="#4F46E5"/>
<stop offset="1" stop-color="#4F46E5"/>
</linearGradient>
<linearGradient id="paint87_linear_4001_58304" x1="123.048" y1="151.291" x2="43.6912" y2="186.209" gradientUnits="userSpaceOnUse">
<stop stop-color="#4F46E5"/>
<stop offset="1" stop-color="#4F46E5"/>
</linearGradient>
<linearGradient id="paint88_linear_4001_58304" x1="123.34" y1="151.956" x2="43.358" y2="185.457" gradientUnits="userSpaceOnUse">
<stop stop-color="#4F46E5"/>
<stop offset="1" stop-color="#4F46E5"/>
</linearGradient>
<linearGradient id="paint89_linear_4001_58304" x1="123.62" y1="152.624" x2="43.0383" y2="184.695" gradientUnits="userSpaceOnUse">
<stop stop-color="#4F46E5"/>
<stop offset="1" stop-color="#4F46E5"/>
</linearGradient>
<linearGradient id="paint90_linear_4001_58304" x1="123.888" y1="153.297" x2="42.7342" y2="183.927" gradientUnits="userSpaceOnUse">
<stop stop-color="#4F46E5"/>
<stop offset="1" stop-color="#4F46E5"/>
</linearGradient>
<linearGradient id="paint91_linear_4001_58304" x1="124.144" y1="153.977" x2="42.4445" y2="183.154" gradientUnits="userSpaceOnUse">
<stop stop-color="#4F46E5"/>
<stop offset="1" stop-color="#4F46E5"/>
</linearGradient>
<linearGradient id="paint92_linear_4001_58304" x1="124.387" y1="154.659" x2="42.1691" y2="182.374" gradientUnits="userSpaceOnUse">
<stop stop-color="#4F46E5"/>
<stop offset="1" stop-color="#4F46E5"/>
</linearGradient>
<linearGradient id="paint93_linear_4001_58304" x1="124.619" y1="155.345" x2="41.9095" y2="181.587" gradientUnits="userSpaceOnUse">
<stop stop-color="#4F46E5"/>
<stop offset="1" stop-color="#4F46E5"/>
</linearGradient>
<linearGradient id="paint94_linear_4001_58304" x1="124.838" y1="156.035" x2="41.6655" y2="180.795" gradientUnits="userSpaceOnUse">
<stop stop-color="#4F46E5"/>
<stop offset="1" stop-color="#4F46E5"/>
</linearGradient>
<linearGradient id="paint95_linear_4001_58304" x1="125.044" y1="156.73" x2="41.4355" y2="179.999" gradientUnits="userSpaceOnUse">
<stop stop-color="#4F46E5"/>
<stop offset="1" stop-color="#4F46E5"/>
</linearGradient>
<linearGradient id="paint96_linear_4001_58304" x1="125.239" y1="157.428" x2="41.2222" y2="179.198" gradientUnits="userSpaceOnUse">
<stop stop-color="#4F46E5"/>
<stop offset="1" stop-color="#4F46E5"/>
</linearGradient>
<linearGradient id="paint97_linear_4001_58304" x1="125.42" y1="158.129" x2="41.0235" y2="178.392" gradientUnits="userSpaceOnUse">
<stop stop-color="#4F46E5"/>
<stop offset="1" stop-color="#4F46E5"/>
</linearGradient>
<linearGradient id="paint98_linear_4001_58304" x1="125.589" y1="158.836" x2="40.8417" y2="177.585" gradientUnits="userSpaceOnUse">
<stop stop-color="#4F46E5"/>
<stop offset="1" stop-color="#4F46E5"/>
</linearGradient>
<linearGradient id="paint99_linear_4001_58304" x1="125.745" y1="159.541" x2="40.675" y2="176.77" gradientUnits="userSpaceOnUse">
<stop stop-color="#4F46E5"/>
<stop offset="1" stop-color="#4F46E5"/>
</linearGradient>
</defs>
</svg>
