<svg width="568" height="334" viewBox="0 0 568 334" fill="none" xmlns="http://www.w3.org/2000/svg">
<g opacity="0.15">
<path d="M315.63 445.166C405.969 478.451 493.334 493.765 561.548 491.629C595.656 490.56 624.96 485.129 647.451 475.412C669.94 465.695 685.592 451.705 692.454 433.526C699.315 415.348 696.756 394.648 686.196 372.755C675.637 350.86 657.087 327.798 632.015 304.925C581.872 259.181 505.69 214.238 415.351 180.954C325.012 147.669 237.648 132.354 169.433 134.491C135.325 135.56 106.021 140.991 83.5304 150.708C61.0408 160.425 45.3887 174.415 38.5276 192.594C31.6666 210.772 34.2256 231.472 44.7848 253.365C55.3444 275.26 73.8944 298.322 98.9663 321.195C149.109 366.939 225.291 411.882 315.63 445.166Z" stroke="#4F46E5" stroke-opacity="0.3" stroke-width="0.599139"/>
<path d="M318.012 446.02C408.916 477.765 496.526 491.591 564.68 488.291C598.757 486.641 627.955 480.71 650.265 470.609C672.574 460.509 687.971 446.252 694.504 427.956C701.038 409.66 698.11 389.003 687.163 367.29C676.216 345.575 657.26 322.828 631.788 300.382C580.844 255.492 503.883 211.847 412.979 180.102C322.075 148.357 234.465 134.531 166.311 137.831C132.233 139.481 103.036 145.412 80.726 155.513C58.4173 165.613 43.0203 179.87 36.4864 198.166C29.9524 216.462 32.8805 237.119 43.8274 258.832C54.7748 280.547 73.7308 303.294 99.2033 325.74C150.147 370.63 227.107 414.275 318.012 446.02Z" stroke="#4F46E5" stroke-opacity="0.3" stroke-width="0.599139"/>
<path d="M320.415 446.834C411.857 477.03 499.685 489.362 567.758 484.901C601.795 482.67 630.878 476.241 653 465.76C675.12 455.279 690.258 440.759 696.463 422.351C702.667 403.944 699.371 383.336 688.04 361.809C676.708 340.28 657.352 317.856 631.487 295.844C579.757 251.821 502.042 209.487 410.6 179.291C319.158 149.095 231.33 136.763 163.257 141.225C129.22 143.456 100.138 149.884 78.0159 160.366C55.8949 170.846 40.7577 185.367 34.5528 203.774C28.3479 222.182 31.6441 242.789 42.9754 264.316C54.3073 285.845 73.6636 308.269 99.5288 330.281C151.258 374.304 228.973 416.638 320.415 446.834Z" stroke="#4F46E5" stroke-opacity="0.3" stroke-width="0.599139"/>
<path d="M322.818 447.603C414.77 476.241 502.79 487.077 570.761 481.454C604.747 478.643 633.705 471.718 655.632 460.86C677.559 450.001 692.431 435.223 698.305 416.709C704.179 398.196 700.516 377.644 688.804 356.309C677.091 334.974 657.34 312.879 631.09 291.307C578.591 248.165 500.145 207.156 408.193 178.518C316.241 149.88 228.221 139.044 160.25 144.667C126.264 147.478 97.3061 154.403 75.3787 165.261C53.4522 176.119 38.5794 190.898 32.7054 209.412C26.8315 227.925 30.4948 248.477 42.2071 269.812C53.92 291.147 73.6707 313.242 99.9208 334.814C152.42 377.956 230.866 418.965 322.818 447.603Z" stroke="#4F46E5" stroke-opacity="0.3" stroke-width="0.599139"/>
<path d="M325.228 448.333C417.662 475.404 505.847 484.739 573.695 477.958C607.62 474.567 636.445 467.149 658.171 455.916C679.896 444.684 694.5 429.651 700.041 411.037C705.583 392.423 701.553 371.934 689.463 350.798C677.373 329.662 657.234 307.903 630.607 286.779C577.354 244.531 498.201 204.857 405.767 177.786C313.334 150.716 225.149 141.38 157.3 148.162C123.375 151.552 94.5507 158.971 72.8244 170.203C51.0991 181.436 36.4952 196.468 30.954 215.082C25.4128 233.696 29.4421 254.186 41.5319 275.321C53.6222 296.458 73.7612 318.216 100.388 339.341C153.641 381.589 232.795 421.262 325.228 448.333Z" stroke="#4F46E5" stroke-opacity="0.3" stroke-width="0.599139"/>
<path d="M327.665 449.023C420.552 474.519 508.875 482.351 576.58 474.413C610.433 470.444 639.116 462.534 660.634 450.93C682.152 439.327 696.482 424.046 701.689 405.337C706.896 386.628 702.502 366.207 690.038 345.277C677.574 324.346 657.053 302.93 630.057 282.259C576.067 240.918 496.23 202.593 403.343 177.098C310.456 151.602 222.133 143.77 154.428 151.708C120.574 155.677 91.8917 163.587 70.3731 175.19C48.8556 186.793 34.5251 202.075 29.3183 220.784C24.1115 239.493 28.5056 259.914 40.9691 280.844C53.4332 301.775 73.9545 323.19 100.95 343.861C154.941 385.202 234.777 423.527 327.665 449.023Z" stroke="#4F46E5" stroke-opacity="0.3" stroke-width="0.599139"/>
<path d="M330.104 449.674C423.417 473.587 511.851 479.913 579.392 470.821C613.164 466.274 641.696 457.875 663 445.905C684.303 433.935 698.356 418.409 703.227 399.611C708.098 380.813 703.34 360.466 690.507 339.748C677.673 319.029 656.775 297.963 629.419 277.752C574.708 237.33 494.212 200.365 400.899 176.453C307.587 152.54 219.153 146.213 151.611 155.306C117.84 159.852 89.308 168.251 68.0038 180.222C46.7006 192.192 32.6479 207.718 27.7771 226.516C22.9063 245.314 27.6639 265.661 40.4973 286.379C53.3313 307.098 74.2286 328.164 101.585 348.375C156.296 388.797 236.792 425.761 330.104 449.674Z" stroke="#4F46E5" stroke-opacity="0.3" stroke-width="0.599139"/>
<path d="M332.556 450.276C426.265 472.598 514.784 477.417 582.141 467.173C615.82 462.051 644.193 453.165 665.276 440.832C686.358 428.498 700.129 412.732 704.662 393.851C709.196 374.969 704.076 354.703 690.877 334.203C677.677 313.703 656.41 292.993 628.701 273.247C573.285 233.758 492.155 198.164 398.446 175.842C304.737 153.519 216.218 148.7 148.861 158.944C115.182 164.067 86.8094 172.952 65.726 185.286C44.6436 197.619 30.8729 213.386 26.3396 232.267C21.8063 251.149 26.9259 271.415 40.1253 291.914C53.3253 312.415 74.5923 333.125 102.301 352.87C157.717 392.36 238.847 427.953 332.556 450.276Z" stroke="#4F46E5" stroke-opacity="0.3" stroke-width="0.599139"/>
<path d="M335.018 450.844C429.095 471.569 517.671 474.879 584.823 463.487C618.4 457.79 646.604 448.421 667.46 435.727C688.316 423.034 701.8 407.033 705.995 388.074C710.189 369.115 704.709 348.935 691.148 328.66C677.586 308.384 655.955 288.036 627.903 268.763C571.8 230.217 490.06 196.006 395.982 175.281C301.905 154.555 213.329 151.245 146.177 162.638C112.601 168.334 84.3958 177.704 63.5397 190.397C42.6845 203.09 29.2 219.091 25.0056 238.05C20.8111 257.01 26.2912 277.189 39.8526 297.464C53.4147 317.74 75.0447 338.088 103.097 357.361C159.201 395.907 240.94 430.118 335.018 450.844Z" stroke="#4F46E5" stroke-opacity="0.3" stroke-width="0.599139"/>
<path d="M337.498 451.365C431.915 470.487 520.522 472.287 587.448 459.75C620.912 453.481 648.94 443.63 669.562 430.581C690.184 417.532 703.378 401.3 707.232 382.269C711.087 363.238 705.248 343.152 691.328 323.108C677.409 303.063 655.422 283.083 627.034 264.287C570.26 226.697 487.936 193.879 393.519 174.757C299.101 155.635 210.495 153.835 143.569 166.372C110.105 172.641 82.0769 182.492 61.4544 195.541C40.8328 208.59 27.6386 224.821 23.7843 243.852C19.93 262.883 25.7688 282.97 39.6882 303.014C53.6081 323.059 75.5947 343.039 103.982 361.835C160.756 399.425 243.081 432.243 337.498 451.365Z" stroke="#4F46E5" stroke-opacity="0.3" stroke-width="0.599139"/>
<path d="M339.974 451.845C434.702 469.358 523.312 469.648 589.992 455.969C623.333 449.13 651.176 438.801 671.559 425.4C691.94 411.999 704.84 395.543 708.353 376.445C711.866 357.348 705.67 337.361 691.397 317.554C677.124 297.745 654.787 278.14 626.073 259.828C568.646 223.205 485.762 191.789 391.034 174.276C296.306 156.764 207.696 156.474 141.016 170.153C107.675 176.992 79.8316 187.321 59.4491 200.722C39.0674 214.123 26.1675 230.579 22.6545 249.676C19.1415 268.774 25.3374 288.761 39.6103 308.568C53.8839 328.376 76.2203 347.982 104.935 366.294C162.362 402.917 245.246 434.332 339.974 451.845Z" stroke="#4F46E5" stroke-opacity="0.3" stroke-width="0.599139"/>
<path d="M342.464 452.284C437.475 468.183 526.061 466.962 592.475 452.146C625.683 444.738 653.332 433.935 673.469 420.186C693.604 406.437 706.206 389.76 709.377 370.603C712.547 351.445 705.996 331.563 691.374 311.999C676.751 292.434 654.072 273.208 625.039 255.385C566.977 219.741 483.558 189.738 388.548 173.839C293.538 157.941 204.952 159.162 138.537 173.977C105.33 181.385 77.6802 192.189 57.5437 205.938C37.4082 219.686 24.8065 236.363 21.6359 255.521C18.4653 274.678 25.0163 294.56 39.6385 314.125C54.2614 333.69 76.9409 352.915 105.973 370.738C164.036 406.383 247.454 436.386 342.464 452.284Z" stroke="#4F46E5" stroke-opacity="0.3" stroke-width="0.599139"/>
<path d="M344.957 452.681C440.221 466.96 528.756 464.229 594.884 448.281C627.949 440.307 655.396 429.032 675.28 414.939C695.164 400.847 707.463 383.955 710.29 364.743C713.118 345.531 706.214 325.76 691.246 306.445C676.279 287.128 653.263 268.289 623.922 250.961C565.241 216.305 481.314 187.724 386.051 173.445C290.787 159.166 202.252 161.897 136.124 177.845C103.059 185.819 75.612 197.094 55.7277 211.187C35.8443 225.279 23.5448 242.171 20.7176 261.383C17.8903 280.595 24.7944 300.365 39.7615 319.681C54.7292 338.998 77.7448 357.837 107.086 375.165C165.767 409.821 249.694 438.402 344.957 452.681Z" stroke="#4F46E5" stroke-opacity="0.3" stroke-width="0.599139"/>
<path d="M347.462 453.032C442.949 465.688 531.407 461.447 597.228 444.371C630.14 435.833 657.377 424.09 677.002 409.658C696.628 395.227 708.621 378.125 711.104 358.864C713.587 339.603 706.332 319.95 691.025 300.889C675.717 281.827 652.372 263.38 622.731 246.552C563.45 212.896 479.039 185.744 383.552 173.089C288.064 160.434 199.607 164.674 133.785 181.75C100.874 190.288 73.6369 202.031 54.011 216.463C34.3859 230.894 22.3922 247.997 19.9092 267.257C17.4261 286.518 24.6812 306.171 39.9886 325.232C55.2965 344.294 78.6413 362.741 108.283 379.569C167.563 413.225 251.974 440.377 347.462 453.032Z" stroke="#4F46E5" stroke-opacity="0.3" stroke-width="0.599139"/>
<path d="M349.965 453.342C445.647 464.37 534 458.621 599.495 440.423C632.243 431.324 659.261 419.116 678.623 404.349C697.984 389.583 709.668 372.276 711.806 352.973C713.944 333.67 706.34 314.139 690.697 295.339C675.054 276.538 651.387 258.489 621.455 242.165C561.592 209.519 476.723 183.806 381.041 172.778C285.358 161.75 197.005 167.499 131.51 185.697C98.7621 194.797 71.744 207.004 52.3823 221.771C33.0215 236.537 21.3373 253.844 19.1992 273.147C17.0611 292.451 24.6651 311.981 40.308 330.781C55.9516 349.582 79.6184 367.632 109.551 383.955C169.414 416.602 254.282 442.315 349.965 453.342Z" stroke="#4F46E5" stroke-opacity="0.3" stroke-width="0.599139"/>
<path d="M352.475 453.613C448.324 463.01 536.545 455.755 601.693 436.44C634.268 426.782 661.059 414.114 680.151 399.016C699.242 383.92 710.613 366.413 712.405 347.073C714.198 327.733 706.247 308.332 690.274 289.798C674.299 271.263 650.317 253.617 620.103 237.803C559.676 206.177 474.376 181.91 378.528 172.513C282.679 163.116 194.458 170.371 129.31 189.687C96.7347 199.344 69.9434 212.013 50.8519 227.11C31.7612 242.207 20.3901 259.713 18.5976 279.053C16.8051 298.394 24.7556 317.794 40.7294 336.329C56.7038 354.863 80.6854 372.51 110.9 388.323C171.327 419.95 256.627 444.216 352.475 453.613Z" stroke="#4F46E5" stroke-opacity="0.3" stroke-width="0.599139"/>
<path d="M354.992 453.837C450.977 461.6 539.04 452.841 603.822 432.415C636.213 422.201 662.77 409.076 681.585 393.653C700.4 378.231 711.455 360.53 712.901 341.159C714.347 321.788 706.053 302.522 689.753 284.26C673.452 265.997 649.163 248.759 618.676 233.46C557.704 202.863 471.998 180.05 376.013 172.287C280.028 164.524 191.965 173.283 127.183 193.709C94.791 203.922 68.2349 217.048 49.4194 232.471C30.6047 247.893 19.55 265.594 18.1037 284.965C16.6574 304.336 24.952 323.602 41.2517 341.864C57.5522 360.127 81.8412 377.365 112.328 392.664C173.3 423.261 259.006 446.074 354.992 453.837Z" stroke="#4F46E5" stroke-opacity="0.3" stroke-width="0.599139"/>
<path d="M357.501 454.017C453.594 460.144 541.472 449.883 605.868 428.352C638.066 417.587 664.379 404.008 682.913 388.264C701.446 372.521 712.181 354.631 713.281 335.235C714.38 315.839 705.744 296.714 689.124 278.729C672.502 260.744 647.913 243.92 617.163 229.14C555.663 199.582 469.578 178.229 373.485 172.103C277.393 165.976 189.515 176.236 125.119 197.767C92.9202 208.533 66.6072 222.112 48.0734 237.856C29.5404 253.599 18.8056 271.489 17.7059 290.885C16.6062 310.281 25.2424 329.406 41.8631 347.391C58.4846 365.376 83.0738 382.2 113.824 396.98C175.323 426.538 261.409 447.89 357.501 454.017Z" stroke="#4F46E5" stroke-opacity="0.3" stroke-width="0.599139"/>
<path d="M360.025 454.161C456.195 458.65 543.861 446.891 607.851 424.262C639.847 412.947 665.909 398.919 684.155 382.859C702.401 366.8 712.813 348.727 713.565 329.311C714.318 309.896 705.343 290.918 688.406 273.216C671.469 255.514 646.587 239.108 615.583 224.853C553.575 196.342 467.136 176.457 370.966 171.968C274.795 167.479 187.129 179.238 123.139 201.867C91.143 213.182 65.0813 227.21 46.8348 243.27C28.5892 259.329 18.1775 277.403 17.4248 296.818C16.672 316.233 25.6471 335.212 42.5838 352.913C59.5212 370.616 84.403 387.021 115.407 401.276C177.415 429.787 263.854 449.672 360.025 454.161Z" stroke="#4F46E5" stroke-opacity="0.3" stroke-width="0.599139"/>
<path d="M362.548 454.255C458.768 457.105 546.195 443.851 609.76 420.13C641.543 408.27 667.346 393.798 685.299 377.426C703.252 361.055 713.337 342.804 713.743 323.376C714.148 303.947 704.837 285.121 687.59 267.708C670.341 250.294 645.175 234.312 613.926 220.585C551.429 193.131 464.663 174.719 368.443 171.87C272.224 169.02 184.796 182.274 121.231 205.994C89.4482 217.855 63.6457 232.327 45.6921 248.699C27.7394 265.069 17.654 283.32 17.2484 302.749C16.8428 322.178 26.1542 341.003 43.4016 358.417C60.6498 375.831 85.8167 391.812 117.066 405.54C179.562 432.993 266.328 451.406 362.548 454.255Z" stroke="#4F46E5" stroke-opacity="0.3" stroke-width="0.599139"/>
<path d="M365.082 454.309C461.321 455.518 548.483 440.774 611.603 415.969C643.164 403.566 668.7 388.654 686.355 371.976C704.009 355.299 713.765 336.875 713.823 317.439C713.882 298.003 704.237 279.336 686.684 262.216C669.13 245.096 643.686 229.543 612.202 216.348C549.235 189.959 462.168 173.026 365.929 171.817C269.69 170.607 182.528 185.352 119.407 210.156C87.8466 222.559 62.311 237.471 44.6558 254.149C27.0015 270.827 17.2455 289.25 17.1872 308.686C17.1289 328.122 26.7736 346.789 44.3266 363.909C61.8804 381.029 87.3246 396.582 118.809 409.777C181.775 436.166 268.842 453.1 365.082 454.309Z" stroke="#4F46E5" stroke-opacity="0.3" stroke-width="0.599139"/>
<path d="M367.602 454.32C463.832 453.889 550.702 437.658 613.358 411.777C644.687 398.836 669.948 383.488 687.3 366.509C704.65 349.53 714.074 330.94 713.785 311.502C713.496 292.065 703.521 273.562 685.668 256.741C667.813 239.919 642.1 224.8 610.39 212.142C546.972 186.825 459.631 171.376 363.402 171.807C267.172 172.239 180.302 188.469 117.646 214.35C86.3167 227.291 61.0559 242.639 43.7045 259.619C26.3539 276.597 16.9303 295.187 17.2193 314.625C17.5083 334.062 27.4834 352.566 45.3366 369.386C63.1906 386.208 88.9044 401.327 120.614 413.986C184.032 439.302 271.373 454.751 367.602 454.32Z" stroke="#4F46E5" stroke-opacity="0.3" stroke-width="0.599139"/>
<path d="M370.119 454.284C466.31 452.212 552.861 434.501 615.035 407.551C646.122 394.075 671.101 378.297 688.143 361.021C705.185 343.746 714.273 324.995 713.637 305.562C713.001 286.129 702.698 267.795 684.55 251.279C666.401 234.761 640.426 220.08 608.5 207.962C544.651 183.726 457.062 169.765 360.872 171.837C264.681 173.909 178.13 191.621 115.956 218.571C84.8685 232.046 59.8902 247.825 42.8478 265.1C25.8063 282.375 16.7179 301.126 17.3541 320.559C17.9904 339.993 28.2929 358.326 46.4408 374.843C64.5895 391.36 90.5651 406.042 122.491 418.16C186.34 442.395 273.929 456.356 370.119 454.284Z" stroke="#4F46E5" stroke-opacity="0.3" stroke-width="0.599139"/>
<path d="M372.652 454.21C468.774 450.498 554.981 431.311 616.652 403.3C647.489 389.295 672.177 373.09 688.905 355.523C705.633 337.958 714.383 319.051 713.4 299.628C712.417 280.206 701.79 262.047 683.353 245.84C664.915 229.631 638.685 215.392 606.554 203.818C542.292 180.671 454.482 168.203 358.36 171.914C262.238 175.626 176.031 194.814 114.359 222.824C83.5228 236.83 58.8345 253.035 42.1064 270.601C25.3791 288.167 16.6287 307.073 17.612 326.496C18.5953 345.919 29.2221 364.077 47.6592 380.285C66.0972 396.493 92.3266 410.732 124.458 422.306C188.72 445.454 276.529 457.922 372.652 454.21Z" stroke="#4F46E5" stroke-opacity="0.3" stroke-width="0.599139"/>
<path d="M375.167 454.091C471.191 448.74 557.027 428.083 618.178 399.02C648.755 384.489 673.145 367.862 689.554 350.01C705.962 332.159 714.372 313.103 713.042 293.697C711.712 274.29 700.764 256.313 682.043 240.419C663.321 224.524 636.846 210.733 604.518 199.706C539.864 177.653 451.86 166.682 355.836 172.033C259.811 177.383 173.975 198.041 112.824 227.103C82.2477 241.635 57.8571 258.261 41.4483 276.113C25.0403 293.964 16.6306 313.02 17.9606 332.426C19.2906 351.833 30.2385 369.81 48.9592 385.704C67.6808 401.599 94.1561 415.391 126.484 426.417C191.138 448.47 279.142 459.441 375.167 454.091Z" stroke="#4F46E5" stroke-opacity="0.3" stroke-width="0.599139"/>
<path d="M377.684 453.926C473.582 446.939 559.02 424.817 619.632 394.712C649.939 379.659 674.025 362.616 690.109 344.484C706.193 326.353 714.259 307.153 712.583 287.769C710.907 268.385 699.641 250.593 680.642 235.019C661.643 219.443 634.93 206.102 602.415 195.626C537.388 174.676 449.217 165.204 353.319 172.192C257.422 179.179 171.983 201.301 111.371 231.406C81.0643 246.459 56.9787 263.502 40.8943 281.634C24.8106 299.765 16.7441 318.965 18.4205 338.349C20.0968 357.733 31.3624 375.525 50.361 391.1C69.3605 406.675 96.0736 420.016 128.588 430.492C193.615 451.443 281.786 460.914 377.684 453.926Z" stroke="#4F46E5" stroke-opacity="0.3" stroke-width="0.599139"/>
<path d="M380.191 453.723C475.933 445.1 560.949 421.522 621.003 390.383C651.031 374.813 674.804 357.359 690.559 338.953C706.313 320.547 714.034 301.209 712.012 281.853C709.99 262.497 698.41 244.897 679.139 229.646C659.868 214.394 632.925 201.508 600.234 191.586C534.854 171.744 446.542 163.775 350.801 172.398C255.059 181.02 170.043 204.598 109.989 235.738C79.9613 251.308 56.1881 268.761 40.4329 287.168C24.6784 305.574 16.9576 324.911 18.9797 344.268C21.0019 363.624 32.5818 381.224 51.8525 396.475C71.1241 411.727 98.0669 424.613 130.758 434.534C196.138 454.377 284.45 462.345 380.191 453.723Z" stroke="#4F46E5" stroke-opacity="0.3" stroke-width="0.599139"/>
<path d="M382.709 453.476C478.265 443.222 562.832 418.193 622.31 386.03C652.05 369.947 675.504 352.088 690.925 333.413C706.345 314.738 713.718 295.268 711.351 275.946C708.983 256.624 697.093 239.221 677.556 224.298C658.018 209.374 630.853 196.947 597.996 187.583C532.282 168.854 443.857 162.391 348.301 172.646C252.745 182.901 168.178 207.929 108.7 240.093C78.9598 256.175 55.5063 274.034 40.0851 292.71C24.6647 311.384 17.2918 330.854 19.6592 350.177C22.0267 369.499 33.9172 386.902 53.4542 401.825C72.9921 416.749 100.156 429.175 133.014 438.54C198.728 457.268 287.153 463.731 382.709 453.476Z" stroke="#4F46E5" stroke-opacity="0.3" stroke-width="0.599139"/>
<path d="M385.204 453.187C480.545 441.303 564.637 414.833 623.522 381.654C652.964 365.064 676.091 346.805 691.173 327.866C706.255 308.928 713.278 289.332 710.566 270.05C707.854 250.768 695.656 233.567 675.859 218.977C656.061 204.386 628.683 192.422 595.669 183.617C529.642 166.009 441.13 161.053 345.789 172.937C250.447 184.821 166.355 211.291 107.471 244.47C78.028 261.06 54.9012 279.319 39.8188 298.258C24.7371 317.196 17.7145 336.792 20.4264 356.074C23.1383 375.356 35.336 392.557 55.1333 407.147C74.9314 421.738 102.309 433.702 135.323 442.507C201.35 460.115 289.862 465.071 385.204 453.187Z" stroke="#4F46E5" stroke-opacity="0.3" stroke-width="0.599139"/>
<path d="M387.705 452.852C482.804 439.343 566.395 411.438 624.667 377.255C653.804 360.163 676.597 341.51 691.336 322.313C706.075 303.118 712.745 283.402 709.689 264.165C706.634 244.928 694.132 227.936 674.081 213.682C654.028 199.428 626.446 187.931 593.285 179.689C526.965 163.206 438.394 159.759 343.295 173.268C248.197 186.778 164.606 214.683 106.334 248.866C77.1968 265.957 54.4038 284.611 39.6647 303.808C24.9263 323.003 18.2561 342.719 21.3117 361.956C24.3673 381.193 36.8685 398.185 56.9199 412.438C76.9724 426.692 104.555 438.19 137.715 446.432C204.036 462.915 292.607 466.362 387.705 452.852Z" stroke="#4F46E5" stroke-opacity="0.3" stroke-width="0.599139"/>
<path d="M390.203 452.477C485.029 437.346 568.094 408.016 625.737 372.839C654.558 355.25 677.011 336.207 691.402 316.759C705.793 297.312 712.108 277.481 708.71 258.296C705.312 239.111 692.511 222.331 672.211 208.419C651.911 194.507 624.132 183.48 590.835 175.803C524.242 160.45 435.638 158.513 340.812 173.644C245.986 188.775 162.92 218.105 105.278 253.282C76.456 270.871 54.0037 289.914 39.6124 309.362C25.2218 328.809 18.9061 348.639 22.3044 367.824C25.7028 387.009 38.5036 403.789 58.8032 417.701C79.1038 431.613 106.883 442.641 140.18 450.318C206.773 465.671 295.377 467.608 390.203 452.477Z" stroke="#4F46E5" stroke-opacity="0.3" stroke-width="0.599139"/>
<path d="M392.684 452.058C487.209 435.31 569.723 404.564 626.718 368.403C655.216 350.322 677.321 330.897 691.36 311.203C705.398 291.51 711.358 271.571 707.618 252.444C703.878 233.316 690.781 216.754 670.24 203.188C649.697 189.622 621.73 179.067 588.307 171.958C521.461 157.74 432.851 157.313 338.327 174.061C243.802 190.809 161.287 221.556 104.293 257.717C75.7945 275.797 53.6898 295.223 39.6508 314.917C25.6124 334.61 19.653 354.548 23.393 373.676C27.1331 392.803 40.2296 409.366 60.7712 422.931C81.3138 436.498 109.28 447.052 142.704 454.161C209.55 468.38 298.16 468.806 392.684 452.058Z" stroke="#4F46E5" stroke-opacity="0.3" stroke-width="0.599139"/>
<path d="M395.159 451.601C489.353 433.241 571.292 401.087 627.622 363.954C655.787 345.387 677.538 325.584 691.22 305.651C704.902 285.718 710.504 265.678 706.423 246.613C702.342 227.549 688.954 211.21 668.177 197.994C647.398 184.777 619.252 174.699 585.712 168.16C518.635 155.081 430.046 156.165 335.851 174.524C241.657 192.884 159.719 225.038 103.388 262.171C75.2227 280.738 53.4724 300.541 39.7898 320.475C26.1078 340.407 20.5066 360.448 24.5873 379.512C28.668 398.576 42.0562 414.916 62.8335 428.132C83.6118 441.348 111.758 451.426 145.298 457.966C212.375 471.045 300.964 469.961 395.159 451.601Z" stroke="#4F46E5" stroke-opacity="0.3" stroke-width="0.599139"/>
<path d="M397.615 451.099C491.45 431.133 572.787 397.581 628.436 359.487C656.26 340.44 677.65 320.266 690.972 300.098C704.293 279.932 709.534 259.796 705.114 240.8C700.694 221.805 687.019 205.694 666.012 192.832C645.004 179.969 616.687 170.371 583.042 164.403C515.752 152.467 427.211 155.061 333.376 175.027C239.54 194.993 158.203 228.545 102.555 266.639C74.7299 285.686 53.3405 305.86 40.0185 326.028C26.6972 346.194 21.4559 366.33 25.8759 385.326C30.2959 404.321 43.9718 420.432 64.9784 433.294C85.9861 446.157 114.303 455.755 147.949 461.723C215.238 473.659 303.779 471.065 397.615 451.099Z" stroke="#4F46E5" stroke-opacity="0.3" stroke-width="0.599139"/>
<path d="M400.072 450.556C493.52 428.99 574.231 394.051 629.181 355.008C656.656 335.486 677.678 314.946 690.635 294.551C703.592 274.158 708.472 253.931 703.714 235.011C698.956 216.09 684.996 200.212 663.767 187.708C642.536 175.203 614.057 166.087 580.315 160.693C512.835 149.904 424.369 154.008 330.921 175.574C237.472 197.14 156.762 232.079 101.812 271.122C74.3368 290.644 53.3149 311.183 40.3576 331.578C27.401 351.972 22.5211 372.198 27.2791 391.119C32.0372 410.039 45.9965 425.918 67.2262 438.422C88.4568 450.927 116.936 460.042 150.677 465.437C218.158 476.226 306.624 472.122 400.072 450.556Z" stroke="#4F46E5" stroke-opacity="0.3" stroke-width="0.599139"/>
<path d="M402.519 449.965C495.552 426.805 575.612 390.49 629.846 350.509C656.963 330.518 677.611 309.62 690.2 289.004C702.788 268.389 707.305 248.079 702.21 229.239C697.116 210.399 682.877 194.758 661.431 182.615C639.984 170.472 611.351 161.842 577.524 157.023C509.873 147.384 421.509 152.996 328.477 176.155C235.444 199.315 155.384 235.63 101.15 275.611C74.0325 295.602 53.3844 316.5 40.7958 337.116C28.2078 357.731 23.6909 378.041 28.7855 396.881C33.8801 415.721 48.1187 431.362 69.5648 443.505C91.012 455.648 119.645 464.278 153.472 469.097C221.123 478.736 309.486 473.124 402.519 449.965Z" stroke="#4F46E5" stroke-opacity="0.3" stroke-width="0.599139"/>
<path d="M404.955 449.341C497.543 424.595 576.928 386.914 630.43 346.008C657.182 325.554 677.45 304.304 689.666 283.472C701.881 262.642 706.034 242.255 700.604 223.501C695.175 204.748 680.661 189.349 659.005 177.572C637.348 165.794 608.57 157.652 574.668 153.409C506.866 144.924 418.632 152.042 326.044 176.788C233.456 201.534 154.07 239.215 100.568 280.121C73.817 300.575 53.5491 321.825 41.333 342.656C29.1174 363.487 24.9649 383.874 30.3945 402.628C35.8241 421.381 50.3376 436.78 71.9937 448.557C93.6509 460.335 122.429 468.477 156.33 472.72C224.132 481.205 312.366 474.087 404.955 449.341Z" stroke="#4F46E5" stroke-opacity="0.3" stroke-width="0.599139"/>
<path d="M407.378 448.667C499.495 422.342 578.181 383.307 630.934 341.488C657.311 320.578 677.193 298.982 689.033 277.942C700.872 256.903 704.659 236.444 698.896 217.783C693.133 199.121 678.349 183.97 656.49 172.561C634.629 161.153 605.715 153.501 571.749 149.836C503.817 142.506 415.739 151.129 323.623 177.454C231.507 203.778 152.821 242.814 100.068 284.633C73.6904 305.543 53.8088 327.139 41.9689 348.179C30.1296 369.218 26.3427 389.677 32.1056 408.338C37.8686 427 52.6526 442.151 74.5121 453.56C96.3727 464.968 125.287 472.62 159.253 476.285C227.184 483.615 315.262 474.992 407.378 448.667Z" stroke="#4F46E5" stroke-opacity="0.3" stroke-width="0.599139"/>
<path d="M409.789 447.956C501.404 420.06 579.367 379.683 631.356 336.963C657.351 315.603 676.841 293.667 688.301 272.425C699.76 251.184 703.18 230.66 697.086 212.097C690.991 193.533 675.941 178.633 653.885 167.597C631.828 156.561 602.787 149.402 568.766 146.316C500.725 140.144 412.83 150.268 321.215 178.164C229.599 206.06 151.636 246.437 99.6471 289.156C73.6521 310.517 54.1629 332.452 42.7028 353.694C31.2432 374.935 27.8231 395.459 33.9176 414.023C40.0122 432.587 55.0623 447.487 77.1184 458.523C99.1757 469.559 128.217 476.718 162.238 479.804C230.278 485.976 318.173 475.852 409.789 447.956Z" stroke="#4F46E5" stroke-opacity="0.3" stroke-width="0.599139"/>
<path d="M412.185 447.204C503.272 417.746 580.488 376.039 631.697 332.432C657.302 310.629 676.393 288.36 687.469 266.922C698.546 245.485 701.598 224.903 695.174 206.442C688.749 187.982 673.438 173.338 651.192 162.678C628.944 152.018 599.785 145.354 565.72 142.847C497.592 137.835 409.906 149.458 318.819 178.916C227.731 208.375 150.515 250.082 99.3069 293.689C73.702 315.492 54.6111 337.761 43.5343 359.199C32.4581 380.635 29.4057 401.218 35.8301 419.678C42.2544 438.139 57.5659 452.783 79.812 463.443C102.059 474.103 131.219 480.767 165.284 483.273C233.412 488.286 321.098 476.663 412.185 447.204Z" stroke="#4F46E5" stroke-opacity="0.3" stroke-width="0.599139"/>
<path d="M414.566 446.411C505.098 415.4 581.543 372.375 631.956 327.895C657.163 305.654 675.849 283.06 686.54 261.433C697.229 239.807 699.913 219.171 693.161 200.82C686.408 182.469 670.84 168.086 648.411 157.805C625.98 147.523 596.711 141.356 562.613 139.43C494.417 135.58 406.968 148.698 316.436 179.709C225.905 210.721 149.46 253.746 99.047 298.226C73.8401 320.467 55.1534 343.061 44.4632 364.688C33.7737 386.314 31.09 406.949 37.8422 425.301C44.5943 443.652 60.1625 458.035 82.5919 468.316C105.022 478.598 134.292 484.765 168.39 486.69C236.586 490.541 324.035 477.423 414.566 446.411Z" stroke="#4F46E5" stroke-opacity="0.3" stroke-width="0.599139"/>
<path d="M416.932 445.581C506.88 413.026 582.531 368.697 632.133 323.356C656.934 300.685 675.211 277.772 685.511 255.962C695.811 234.153 698.125 213.472 691.047 195.235C683.969 176.998 668.149 162.88 645.543 152.981C622.936 143.082 593.566 137.414 559.444 136.07C491.202 133.381 404.016 147.99 314.068 180.546C224.121 213.102 148.469 257.43 98.8675 302.771C74.0662 325.442 55.7893 348.355 45.4891 370.165C35.1894 391.974 32.8753 412.655 39.9532 430.892C47.0312 449.129 62.8514 463.247 85.4571 473.146C108.064 483.045 137.434 488.713 171.556 490.058C239.798 492.746 326.984 478.137 416.932 445.581Z" stroke="#4F46E5" stroke-opacity="0.3" stroke-width="0.599139"/>
<path d="M419.281 444.704C508.617 410.614 583.452 364.995 632.227 318.808C656.616 295.714 674.477 272.488 684.384 250.502C694.291 228.518 696.235 207.796 688.833 189.68C681.432 171.563 665.364 157.714 642.589 148.201C619.812 138.687 590.351 133.519 556.216 132.756C487.948 131.231 401.051 147.327 311.715 181.417C222.378 215.506 147.543 261.126 98.7681 307.313C74.3801 330.407 56.5185 353.633 46.6114 375.618C36.7048 397.603 34.761 418.325 42.1625 436.441C49.5641 454.558 65.6315 468.406 88.4067 477.92C111.183 487.434 140.645 492.602 174.779 493.364C243.047 494.889 329.944 478.794 419.281 444.704Z" stroke="#4F46E5" stroke-opacity="0.3" stroke-width="0.599139"/>
<path d="M421.612 443.792C510.31 408.179 584.306 361.283 632.24 314.263C656.207 290.753 673.648 267.222 683.159 245.067C692.67 222.913 694.242 202.158 686.52 184.167C678.797 166.176 662.487 152.601 639.549 143.475C616.61 134.349 587.066 129.684 552.929 129.503C484.656 129.142 398.075 146.719 309.376 182.333C220.678 217.946 146.683 264.842 98.7489 311.862C74.7814 335.372 57.3407 358.903 47.8297 381.058C38.3191 403.212 36.7462 423.967 44.4691 441.958C52.192 459.949 68.5017 473.524 91.4395 482.649C114.379 491.775 143.923 496.441 178.06 496.622C246.333 496.983 332.914 479.406 421.612 443.792Z" stroke="#4F46E5" stroke-opacity="0.3" stroke-width="0.599139"/>
<path d="M423.936 442.838C511.969 405.711 585.102 357.553 632.18 309.715C655.72 285.796 672.734 261.968 681.846 239.65C690.958 217.333 692.16 196.551 684.118 178.691C676.076 160.831 659.529 147.534 636.435 138.799C613.341 130.064 583.723 125.902 549.593 126.303C481.336 127.106 395.098 146.16 307.065 183.286C219.032 220.412 145.898 268.571 98.8203 316.408C75.2808 340.328 58.2663 364.156 49.1542 386.474C40.0426 408.79 38.841 429.573 46.8829 447.433C54.9248 465.292 71.4719 478.59 94.5653 487.324C117.66 496.06 147.278 500.222 181.407 499.82C249.664 499.018 335.903 479.964 423.936 442.838Z" stroke="#4F46E5" stroke-opacity="0.3" stroke-width="0.599139"/>
<path d="M426.241 441.843C513.582 403.216 585.831 353.809 632.038 305.168C655.143 280.847 671.726 256.728 680.436 234.254C689.146 211.782 689.976 190.979 681.618 173.256C673.259 155.532 656.48 142.517 633.238 134.176C609.995 125.834 580.312 122.177 546.201 123.16C477.981 125.126 392.111 145.65 304.77 184.278C217.429 222.906 145.18 272.312 98.9721 320.953C75.8676 345.274 59.2844 369.393 50.5741 391.867C41.8643 414.339 41.0344 435.143 49.3928 452.866C57.7513 470.589 74.5307 483.605 97.7726 491.946C121.016 500.288 150.699 503.945 184.809 502.961C253.03 500.995 338.9 480.471 426.241 441.843Z" stroke="#4F46E5" stroke-opacity="0.3" stroke-width="0.599139"/>
<path d="M428.516 440.813C515.138 400.695 586.481 350.057 631.805 300.627C654.467 275.911 670.614 251.509 678.92 228.886C687.225 206.265 687.683 185.447 679.01 167.866C670.338 150.285 653.331 137.555 629.948 129.61C606.563 121.664 576.825 118.513 542.743 120.078C474.58 123.207 389.104 145.195 302.482 185.313C215.86 225.43 144.517 276.069 99.1939 325.499C76.5316 350.215 60.3847 374.617 52.0788 397.239C43.7734 419.861 43.3154 440.679 51.9879 458.26C60.6604 475.841 77.667 488.571 101.05 496.516C124.435 504.462 154.173 507.613 188.256 506.048C256.419 502.919 341.894 480.93 428.516 440.813Z" stroke="#4F46E5" stroke-opacity="0.3" stroke-width="0.599139"/>
<path d="M430.782 439.743C516.659 398.148 587.073 346.292 631.499 296.088C653.712 270.986 669.418 246.308 677.316 223.543C685.215 200.78 685.301 179.954 676.317 162.52C667.333 145.086 650.104 132.646 626.587 125.099C603.068 117.552 573.283 114.908 539.24 117.053C471.155 121.345 386.1 144.791 300.223 186.386C214.346 227.981 143.932 279.837 99.506 330.041C77.2927 355.143 61.5872 379.821 53.6882 402.586C45.7897 425.349 45.7038 446.175 54.6877 463.609C63.6716 481.043 80.9002 493.483 104.418 501.03C127.937 508.577 157.722 511.221 191.765 509.076C259.85 504.784 344.904 481.338 430.782 439.743Z" stroke="#4F46E5" stroke-opacity="0.3" stroke-width="0.599139"/>
<path d="M433.016 438.63C518.122 395.57 587.587 342.513 631.101 291.551C652.858 266.069 668.118 241.123 675.607 218.223C683.097 195.325 682.81 174.496 673.518 157.215C664.225 139.934 646.78 127.787 623.135 120.641C599.489 113.495 569.666 111.358 535.673 114.084C467.687 119.537 383.079 144.433 297.973 187.493C212.867 230.553 143.402 283.61 99.8881 334.573C78.1307 360.054 62.8712 385 55.3816 407.9C47.8924 430.798 48.1787 451.627 57.4713 468.908C66.7638 486.189 84.2091 498.336 107.854 505.482C131.5 512.628 161.323 514.765 195.316 512.039C263.302 506.587 347.91 481.69 433.016 438.63Z" stroke="#4F46E5" stroke-opacity="0.3" stroke-width="0.599139"/>
<path d="M435.25 437.478C519.559 392.967 588.053 338.724 630.642 287.019C651.937 261.166 666.746 235.959 673.824 212.931C680.902 189.905 680.243 169.08 670.645 151.957C661.047 134.834 643.39 122.984 619.625 116.241C595.859 109.498 566.008 107.87 532.074 111.176C464.207 117.787 380.072 144.126 295.764 188.638C211.455 233.15 142.961 287.392 100.371 339.097C79.0764 364.95 64.2677 390.157 57.1897 413.185C50.1121 436.211 50.7705 457.036 60.3689 474.159C69.9672 491.282 87.624 503.132 111.389 509.875C135.155 516.618 165.006 518.246 198.94 514.941C266.806 508.329 350.942 481.99 435.25 437.478Z" stroke="#4F46E5" stroke-opacity="0.3" stroke-width="0.599139"/>
<path d="M437.453 436.294C520.939 390.344 588.441 334.932 630.093 282.5C650.919 256.284 665.272 230.824 671.936 207.675C678.6 184.527 677.57 163.714 667.669 146.754C657.767 129.794 639.905 118.245 616.027 111.907C592.148 105.569 562.278 104.449 528.414 108.333C460.688 116.102 377.051 143.876 293.565 189.826C210.079 235.776 142.576 291.187 100.925 343.619C80.0989 369.836 65.7454 395.295 59.0812 418.445C52.4174 441.592 53.4475 462.406 63.3488 479.366C73.2501 496.326 91.113 507.875 114.991 514.213C138.87 520.551 168.74 521.67 202.604 517.786C270.33 510.018 353.967 482.244 437.453 436.294Z" stroke="#4F46E5" stroke-opacity="0.3" stroke-width="0.599139"/>
<path d="M439.623 435.073C522.26 387.699 588.751 331.136 629.451 277.993C649.802 251.42 663.696 225.716 669.945 202.452C676.193 179.191 674.791 158.394 664.59 141.603C654.388 124.811 636.325 113.566 612.342 107.635C588.358 101.704 558.477 101.093 524.694 105.555C457.129 114.478 374.015 143.679 291.377 191.053C208.74 238.427 142.249 294.99 101.549 348.133C81.1977 374.706 67.3038 400.41 61.0554 423.674C54.8074 446.935 56.2091 467.732 66.4103 484.523C76.6115 501.315 94.675 512.56 118.658 518.491C142.642 524.422 172.523 525.032 206.306 520.571C273.871 511.648 356.985 482.447 439.623 435.073Z" stroke="#4F46E5" stroke-opacity="0.3" stroke-width="0.599139"/>
<path d="M441.78 433.811C523.545 385.027 589.003 327.329 628.741 273.491C648.61 246.571 662.04 220.629 667.871 197.259C673.701 173.89 671.928 153.117 661.43 136.499C650.932 119.88 632.674 108.944 608.592 103.421C584.51 97.8985 554.628 97.7977 520.936 102.835C453.552 112.91 370.987 143.529 289.223 192.312C207.459 241.096 142.001 298.794 102.263 352.632C82.3935 379.552 68.9635 405.494 63.1328 428.864C57.3025 452.233 59.0753 473.006 69.5733 489.624C80.0713 506.243 98.33 517.18 122.411 522.702C146.494 528.225 176.375 528.325 210.068 523.288C277.452 513.213 360.016 482.595 441.78 433.811Z" stroke="#4F46E5" stroke-opacity="0.3" stroke-width="0.599139"/>
<path d="M443.916 432.515C524.781 382.336 589.187 323.521 627.95 269.005C647.332 241.746 660.294 215.574 665.705 192.104C671.116 168.635 668.973 147.892 658.181 131.452C647.39 115.012 628.941 104.386 604.769 99.2745C580.596 94.1622 550.722 94.5709 517.131 100.183C449.949 111.407 367.958 143.433 287.093 193.612C206.227 243.791 141.821 302.606 103.058 357.122C83.6761 384.381 70.714 410.553 65.3029 434.023C59.892 457.492 62.0354 478.235 72.827 494.675C83.6186 511.115 102.067 521.741 126.239 526.853C150.412 531.965 180.286 531.556 213.878 525.944C281.059 514.72 363.05 482.694 443.916 432.515Z" stroke="#4F46E5" stroke-opacity="0.3" stroke-width="0.599139"/>
<path d="M446.028 431.178C525.97 379.62 589.304 319.706 627.08 264.527C645.969 236.937 658.459 210.544 663.449 186.981C668.439 163.42 665.926 142.713 654.844 126.456C643.762 110.2 625.13 99.8885 600.874 95.1885C576.617 90.4883 546.761 91.4062 513.28 97.5911C446.321 109.961 364.929 143.385 284.987 194.944C205.044 246.502 141.71 306.416 103.934 361.595C85.0454 389.185 72.5552 415.578 67.5652 439.141C62.5754 462.702 65.0888 483.409 76.1707 499.665C87.2526 515.922 105.885 526.233 130.14 530.933C154.397 535.634 184.254 534.716 217.734 528.531C284.693 516.161 366.085 482.737 446.028 431.178Z" stroke="#4F46E5" stroke-opacity="0.3" stroke-width="0.599139"/>
<path d="M448.106 429.807C527.101 376.885 589.344 315.89 626.122 260.066C644.511 232.154 656.526 205.547 661.093 181.899C665.66 158.252 662.778 137.587 651.409 121.519C640.04 105.451 621.229 95.4568 596.898 91.1702C572.565 86.8834 542.734 88.3103 509.376 95.066C442.659 108.577 361.891 143.39 282.896 196.312C203.901 249.234 141.658 310.23 104.88 366.053C86.4908 393.966 74.4763 420.572 69.9089 444.221C65.3418 467.868 68.2244 488.533 79.5932 504.601C90.9621 520.668 109.773 530.663 134.104 534.949C158.437 539.236 188.268 537.809 221.626 531.053C288.343 517.542 369.111 482.729 448.106 429.807Z" stroke="#4F46E5" stroke-opacity="0.3" stroke-width="0.599139"/>
<path d="M450.171 428.401C528.195 374.131 589.327 312.074 625.096 255.622C642.981 227.396 654.516 200.584 658.659 176.857C662.802 153.132 659.551 132.515 647.899 116.641C636.247 100.766 617.264 91.0925 592.863 87.2207C568.462 83.3485 538.666 85.2841 505.439 92.6086C438.986 107.257 358.867 143.448 280.843 197.718C202.819 251.988 141.686 314.045 105.918 370.497C88.0334 398.724 76.4982 425.536 72.3549 449.262C68.2118 472.988 71.4626 493.604 83.115 509.479C94.7674 525.353 113.75 535.027 138.15 538.899C162.552 542.771 192.347 540.835 225.575 533.511C292.028 518.862 372.147 482.671 450.171 428.401Z" stroke="#4F46E5" stroke-opacity="0.3" stroke-width="0.599139"/>
<path d="M452.202 426.966C529.231 371.365 589.235 308.264 623.983 251.201C641.357 222.669 652.409 195.66 656.127 171.862C659.845 148.065 656.227 127.504 644.295 111.828C632.362 96.1514 613.213 86.8011 588.751 83.3451C564.288 79.8889 534.537 82.3324 501.452 90.2235C435.282 106.006 355.836 143.563 278.807 199.164C201.778 254.765 141.775 317.866 107.026 374.929C89.652 403.461 78.5997 430.47 74.8817 454.268C71.1639 478.064 74.782 498.626 86.7143 514.302C98.6467 529.978 117.796 539.329 142.258 542.785C166.721 546.241 196.472 543.797 229.557 535.906C295.727 520.124 375.173 482.567 452.202 426.966Z" stroke="#4F46E5" stroke-opacity="0.3" stroke-width="0.599139"/>
<path d="M454.209 425.487C530.22 368.571 589.076 304.446 622.793 246.79C639.652 217.961 650.218 190.763 653.51 166.901C656.801 143.041 652.817 122.541 640.608 107.067C628.399 91.5941 609.089 82.57 584.574 79.531C560.057 76.4917 530.359 79.4425 497.426 87.8978C431.56 104.808 352.81 143.72 276.8 200.636C200.79 257.551 141.933 321.677 108.216 379.333C91.3572 408.162 80.7911 435.36 77.4995 459.221C74.2082 483.082 78.1925 503.582 90.4011 519.055C102.61 534.529 121.92 543.553 146.436 546.592C170.952 549.631 200.65 546.68 233.584 538.225C299.45 521.315 378.199 482.402 454.209 425.487Z" stroke="#4F46E5" stroke-opacity="0.3" stroke-width="0.599139"/>
<path d="M456.182 423.977C531.151 365.764 588.842 300.634 621.518 242.402C637.856 213.286 647.933 185.907 650.797 161.988C653.661 138.072 649.312 117.639 636.83 102.373C624.349 87.1074 604.883 78.4123 580.322 75.7911C555.759 73.1697 526.124 76.6268 493.352 85.6438C427.81 103.677 349.781 143.933 274.813 202.145C199.844 260.358 142.153 325.488 109.477 383.72C93.1387 412.837 83.0621 440.215 80.198 464.134C77.334 488.051 81.6833 508.483 94.1646 523.749C106.646 539.015 126.112 547.71 150.673 550.331C175.236 552.952 204.871 549.495 237.643 540.478C303.185 522.445 381.214 482.189 456.182 423.977Z" stroke="#4F46E5" stroke-opacity="0.3" stroke-width="0.599139"/>
<path d="M458.131 422.434C532.035 362.942 588.544 296.828 620.168 238.037C635.981 208.641 645.565 181.09 648.001 157.122C650.436 133.156 645.724 112.797 632.973 97.7438C620.223 82.6905 600.609 74.3271 576.008 72.1246C551.407 69.9219 521.843 73.8842 489.243 83.46C424.044 102.611 346.76 144.198 272.856 203.69C198.953 263.181 142.444 329.296 110.819 388.086C95.0066 417.482 85.4224 445.033 82.9866 469.001C80.551 492.967 85.264 513.326 98.014 528.38C110.764 543.433 130.379 551.796 154.979 553.999C179.581 556.202 209.145 552.239 241.745 542.663C306.943 523.512 384.227 481.926 458.131 422.434Z" stroke="#4F46E5" stroke-opacity="0.3" stroke-width="0.599139"/>
<path d="M460.066 420.857C532.883 360.104 588.192 293.025 618.756 233.694C634.038 204.028 643.127 176.313 645.133 152.303C647.14 128.295 642.065 108.016 629.05 93.1792C616.035 78.3428 596.277 70.3136 571.645 68.5305C547.012 66.7472 517.529 71.2136 485.111 81.3454C420.275 101.608 343.76 144.513 270.943 205.266C198.127 266.019 142.818 333.098 112.254 392.429C96.9715 422.095 87.8827 449.81 85.876 473.82C83.8694 497.828 88.9446 518.107 101.96 532.944C114.975 547.78 134.733 555.809 159.364 557.593C183.997 559.376 213.481 554.91 245.899 544.778C310.734 524.515 387.25 481.61 460.066 420.857Z" stroke="#4F46E5" stroke-opacity="0.3" stroke-width="0.599139"/>
<path d="M461.957 419.248C533.664 357.253 587.756 289.229 617.25 229.376C631.997 199.449 640.588 171.578 642.165 147.534C643.742 123.491 638.306 103.298 625.03 88.6827C611.754 74.0678 591.859 66.3753 567.203 65.0119C542.546 63.6485 513.153 68.6177 480.926 79.3023C416.474 100.671 340.75 144.881 269.043 206.877C197.335 268.872 143.243 336.896 113.749 396.749C99.0022 426.676 90.4117 454.546 88.8346 478.591C87.2577 502.634 92.6936 522.827 105.97 537.442C119.245 552.057 139.141 559.749 163.796 561.113C188.453 562.476 217.847 557.507 250.073 546.822C314.525 525.454 390.249 481.243 461.957 419.248Z" stroke="#4F46E5" stroke-opacity="0.3" stroke-width="0.599139"/>
<path d="M463.833 417.604C534.41 354.384 587.269 285.437 615.683 225.08C629.891 194.901 637.981 166.883 639.128 142.812C640.274 118.741 634.479 98.6402 620.947 84.2512C607.414 69.8622 587.388 62.5087 562.716 61.5657C538.043 60.6225 508.747 66.0929 476.722 77.3271C412.673 99.7951 337.763 145.297 267.187 208.516C196.611 271.735 143.752 340.683 115.337 401.04C101.13 431.219 93.0401 459.236 91.8932 483.308C90.7464 507.378 96.5413 527.48 110.074 541.869C123.607 556.258 143.633 563.611 168.305 564.554C192.978 565.497 222.274 560.027 254.299 548.793C318.348 526.325 393.257 480.823 463.833 417.604Z" stroke="#4F46E5" stroke-opacity="0.3" stroke-width="0.599139"/>
<path d="M465.655 415.93C535.079 351.507 586.689 281.657 614.016 220.814C627.679 190.392 635.266 162.236 635.982 138.144C636.698 114.054 630.546 94.0511 616.761 79.8923C602.975 65.7336 582.824 58.7213 558.143 58.1989C533.461 57.6764 504.273 63.6462 472.459 75.4266C408.832 98.987 334.76 145.767 265.337 210.191C195.914 274.614 144.304 344.464 116.977 405.307C103.313 435.728 95.7267 463.885 95.0103 487.976C94.2939 512.067 100.446 532.07 114.232 546.228C128.017 560.387 148.169 567.399 172.849 567.922C197.531 568.444 226.719 562.474 258.533 550.694C322.16 527.134 396.232 480.354 465.655 415.93Z" stroke="#4F46E5" stroke-opacity="0.3" stroke-width="0.599139"/>
<path d="M467.464 414.228C535.714 348.62 586.058 277.888 612.289 216.579C625.405 185.923 632.486 157.637 632.771 133.533C633.057 109.43 626.549 89.5312 612.515 75.6071C598.481 61.683 578.211 55.0141 553.529 54.9124C528.846 54.8106 499.774 61.2782 468.181 73.6012C404.996 98.2467 331.784 146.29 263.534 211.899C195.285 277.507 144.94 348.238 118.709 409.548C105.593 440.203 98.5125 468.489 98.2268 492.594C97.9411 516.697 104.449 536.595 118.483 550.519C132.517 564.444 152.787 571.112 177.469 571.214C202.152 571.316 231.224 564.848 262.817 552.525C326.002 527.88 399.214 479.836 467.464 414.228Z" stroke="#4F46E5" stroke-opacity="0.3" stroke-width="0.599139"/>
<path d="M469.228 412.491C536.283 345.718 585.348 274.127 610.475 212.369C623.038 181.489 629.611 153.082 629.466 128.972C629.321 104.864 622.46 85.0758 608.181 71.3906C593.903 57.7053 573.52 51.3819 548.845 51.7009C524.168 52.0199 495.221 58.9833 463.858 71.8451C401.134 97.5682 328.805 146.861 261.75 213.634C194.694 280.407 145.63 351.998 120.503 413.756C107.94 444.636 101.366 473.043 101.512 497.153C101.657 521.262 108.518 541.05 122.796 554.735C137.075 568.42 157.457 574.744 182.133 574.425C206.81 574.106 235.757 567.142 267.12 554.28C329.844 528.557 402.173 479.264 469.228 412.491Z" stroke="#4F46E5" stroke-opacity="0.3" stroke-width="0.599139"/>
<path d="M470.979 410.723C536.82 342.805 584.589 270.376 608.604 208.189C620.612 177.094 626.675 148.574 626.099 124.466C625.523 100.36 618.311 80.6883 603.792 67.2462C589.274 53.804 568.785 47.8279 544.123 48.5675C519.459 49.3073 490.646 56.7642 459.524 70.161C397.28 96.954 325.855 147.481 260.015 215.399C194.175 283.316 146.405 355.745 122.39 417.933C110.383 449.027 104.319 477.547 104.895 501.655C105.471 525.761 112.684 545.433 127.202 558.875C141.721 572.317 162.21 578.293 186.871 577.554C211.535 576.814 240.348 569.357 271.47 555.96C333.714 529.167 405.139 478.64 470.979 410.723Z" stroke="#4F46E5" stroke-opacity="0.3" stroke-width="0.599139"/>
<path d="M472.698 408.927C537.303 339.885 583.762 266.641 606.658 204.042C618.106 172.743 623.658 144.119 622.652 120.02C621.645 95.923 614.084 76.3738 599.329 63.1788C584.575 49.9837 563.986 44.3568 539.346 45.5169C514.703 46.6771 486.033 54.6254 455.16 68.553C393.415 96.4076 322.916 148.153 258.311 217.195C193.706 286.236 147.247 359.481 124.351 422.079C112.903 453.379 107.351 482.003 108.357 506.102C109.364 530.199 116.925 549.748 131.679 562.943C146.434 576.138 167.023 581.765 191.663 580.605C216.305 579.444 244.976 571.496 275.849 557.569C337.594 529.714 408.093 477.968 472.698 408.927Z" stroke="#4F46E5" stroke-opacity="0.3" stroke-width="0.599139"/>
<path d="M474.362 407.102C537.712 336.957 582.848 262.919 604.618 199.929C615.503 168.434 620.541 139.715 619.105 115.633C617.668 91.5524 609.759 72.1316 594.774 59.1877C579.789 46.2438 559.106 40.9677 534.494 42.5479C509.881 44.1283 481.362 52.5654 450.748 67.0196C389.521 95.9274 319.97 148.876 256.619 219.02C193.269 289.164 148.133 363.203 126.363 426.193C115.478 457.688 110.44 486.407 111.876 510.489C113.313 534.57 121.222 553.99 136.207 566.934C151.192 579.878 171.875 585.154 196.487 583.574C221.1 581.994 249.619 573.556 280.233 559.102C341.46 530.194 411.011 477.246 474.362 407.102Z" stroke="#4F46E5" stroke-opacity="0.3" stroke-width="0.599139"/>
<path d="M476.014 405.246C538.09 334.02 581.888 259.211 602.526 195.849C612.844 164.167 617.368 135.361 615.502 111.303C613.635 87.2469 605.382 67.9604 590.17 55.2717C574.959 42.5829 554.188 37.6593 529.613 39.6591C505.035 41.6591 476.676 50.5827 446.331 65.559C385.64 95.5112 317.058 149.646 254.982 220.872C192.905 292.098 149.107 366.907 128.47 430.269C118.151 461.951 113.628 490.757 115.494 514.815C117.361 538.871 125.614 558.157 140.825 570.846C156.037 583.535 176.808 588.459 201.383 586.459C225.96 584.459 254.319 575.535 284.665 560.559C345.355 530.607 413.938 476.472 476.014 405.246Z" stroke="#4F46E5" stroke-opacity="0.3" stroke-width="0.599139"/>
<path d="M477.624 403.367C538.407 331.082 580.854 255.525 600.352 191.809C610.102 159.951 614.109 131.067 611.813 107.041C609.518 83.0158 600.923 63.8696 585.489 51.4398C570.056 39.01 549.204 34.4404 524.672 36.8592C500.139 39.2782 471.948 48.6854 441.88 64.1794C381.745 95.1668 314.152 150.472 253.369 222.758C192.585 295.043 150.138 370.6 130.64 434.316C120.891 466.174 116.883 495.058 119.179 519.084C121.475 543.109 130.07 562.256 145.503 574.685C160.937 587.115 181.789 591.685 206.32 589.266C230.854 586.847 259.044 577.44 289.112 561.946C349.248 530.958 416.841 475.653 477.624 403.367Z" stroke="#4F46E5" stroke-opacity="0.3" stroke-width="0.599139"/>
<path d="M479.202 401.459C538.674 328.136 579.757 251.853 598.11 187.804C607.287 155.779 610.777 126.827 608.053 102.839C605.328 78.8523 596.394 59.8521 580.743 47.6851C565.093 35.5181 544.166 31.3039 519.685 34.141C495.203 36.9783 467.19 46.8662 437.408 62.8731C377.846 94.8863 311.264 151.345 251.792 224.668C192.32 297.992 151.237 374.274 132.884 438.323C123.707 470.348 120.217 499.301 122.941 523.289C125.666 547.275 134.6 566.275 150.25 578.442C165.901 590.609 186.828 594.823 211.309 591.986C235.791 589.149 263.804 579.261 293.585 563.254C353.147 531.241 419.73 474.782 479.202 401.459Z" stroke="#4F46E5" stroke-opacity="0.3" stroke-width="0.599139"/>
<path d="M480.748 399.523C538.891 325.184 578.597 248.2 595.8 183.836C604.402 151.654 607.373 122.642 604.221 98.6997C601.069 74.7593 591.799 55.911 575.935 44.0104C560.072 32.1099 539.077 28.2524 514.655 31.5069C490.231 34.7616 462.404 45.1273 432.918 61.6422C373.948 94.6715 308.396 152.267 250.254 226.605C192.111 300.944 152.405 377.928 135.202 442.291C126.6 474.474 123.629 503.486 126.781 527.428C129.933 551.369 139.203 570.217 155.067 582.117C170.93 594.018 191.925 597.876 216.347 594.621C240.771 591.366 268.598 581.001 298.084 564.486C357.054 531.456 422.606 473.861 480.748 399.523Z" stroke="#4F46E5" stroke-opacity="0.3" stroke-width="0.599139"/>
<path d="M482.264 397.559C539.059 322.228 577.377 244.565 593.424 179.907C601.448 147.578 603.9 118.514 600.321 94.6251C596.743 70.738 587.138 52.0472 571.067 40.4168C554.997 28.7863 533.939 25.2867 509.583 28.9576C485.226 32.6287 457.593 43.469 428.412 60.487C370.051 94.5222 305.549 153.236 248.754 228.567C191.959 303.899 153.641 381.561 137.594 446.219C129.57 478.549 127.118 507.613 130.697 531.501C134.276 555.389 143.88 574.079 159.951 585.71C176.022 597.34 197.079 600.84 221.435 597.169C245.792 593.498 273.425 582.658 302.606 565.64C360.968 531.604 425.469 472.891 482.264 397.559Z" stroke="#4F46E5" stroke-opacity="0.3" stroke-width="0.599139"/>
<path d="M483.729 395.567C539.159 319.266 576.077 240.948 590.964 176.015C598.407 143.548 600.339 114.442 596.334 90.6138C592.33 66.7871 582.395 48.2597 566.121 36.9029C549.848 25.5461 528.735 22.4054 504.452 26.4916C480.169 30.578 452.738 41.8896 423.871 59.4054C366.137 94.4362 302.706 154.251 247.275 230.552C191.845 306.853 154.927 385.171 140.04 450.104C132.597 482.571 130.665 511.677 134.669 535.505C138.674 559.332 148.609 577.859 164.883 589.216C181.156 600.573 202.269 603.713 226.551 599.627C250.835 595.541 278.265 584.229 307.133 566.713C364.867 531.683 428.298 471.868 483.729 395.567Z" stroke="#4F46E5" stroke-opacity="0.3" stroke-width="0.599139"/>
<path d="M485.174 393.554C539.223 316.306 574.729 237.357 588.451 172.169C595.312 139.575 596.723 110.435 592.294 86.6747C587.865 62.9158 577.602 44.5572 561.131 33.4776C544.66 22.3979 523.497 19.6171 499.296 24.1173C475.093 28.6178 447.874 40.3972 419.329 58.4055C362.24 94.4213 299.898 155.318 245.849 232.566C191.8 309.814 156.294 388.762 142.572 453.95C135.711 486.545 134.3 515.684 138.729 539.445C143.158 563.204 153.421 581.562 169.892 592.642C186.363 603.722 207.526 606.503 231.727 602.002C255.93 597.502 283.149 585.722 311.694 567.714C368.783 531.698 431.125 470.801 485.174 393.554Z" stroke="#4F46E5" stroke-opacity="0.3" stroke-width="0.599139"/>
<path d="M486.56 391.516C539.211 313.345 573.295 233.79 585.847 168.367C592.123 135.654 593.014 106.49 588.161 82.8046C583.309 59.1207 572.721 40.9367 556.058 30.1375C539.394 19.3384 518.188 16.9183 494.075 21.8311C469.961 26.7443 442.961 38.988 414.747 57.4832C358.32 94.473 297.087 156.434 244.436 234.605C191.785 312.775 157.701 392.331 145.148 457.754C138.872 490.467 137.982 519.631 142.834 543.316C147.686 567 158.274 585.184 174.938 595.983C191.602 606.782 212.807 609.203 236.92 604.29C261.035 599.377 288.034 587.133 316.248 568.638C372.675 531.648 433.909 469.687 486.56 391.516Z" stroke="#4F46E5" stroke-opacity="0.3" stroke-width="0.599139"/>
<path d="M487.927 389.454C539.164 310.384 571.815 230.246 583.195 164.608C588.884 131.788 589.253 102.608 583.979 79.0044C578.706 55.4027 567.796 37.3987 550.945 26.8834C534.093 16.368 512.851 14.3094 488.834 19.6334C464.815 24.9578 438.043 37.6621 410.169 56.6387C354.421 94.5911 294.315 157.598 243.078 236.667C191.841 315.737 159.19 395.875 147.81 461.514C142.121 494.334 141.752 523.514 147.026 547.117C152.299 570.719 163.209 588.723 180.06 599.238C196.911 609.753 218.153 611.812 242.171 606.488C266.19 601.164 292.962 588.459 320.836 569.483C376.584 531.53 436.69 468.524 487.927 389.454Z" stroke="#4F46E5" stroke-opacity="0.3" stroke-width="0.599139"/>
<path d="M489.246 387.371C539.054 307.426 570.262 226.729 580.465 160.895C585.566 127.978 585.414 98.7908 579.72 75.2769C574.026 51.7647 562.799 33.9462 545.765 23.7179C528.731 13.4896 507.459 11.793 483.545 17.5266C459.629 23.2606 433.092 36.4215 405.566 55.8736C350.515 94.7772 291.554 158.81 241.747 238.755C191.939 318.699 160.73 399.396 150.528 465.23C145.426 498.147 145.579 527.334 151.273 550.848C156.967 574.36 168.194 592.179 185.228 602.407C202.262 612.636 223.534 614.332 247.448 608.599C271.364 602.865 297.9 589.704 325.427 570.252C380.478 531.348 439.439 467.316 489.246 387.371Z" stroke="#4F46E5" stroke-opacity="0.3" stroke-width="0.599139"/>
<path d="M490.539 385.262C538.901 304.466 568.658 223.236 577.681 157.226C582.192 124.221 581.518 95.0363 575.406 71.619C569.294 48.2033 557.752 30.5758 540.541 20.6376C523.33 10.6994 502.034 9.3655 478.23 15.5069C454.424 21.6487 428.132 35.2622 400.962 55.1841C346.624 95.027 288.827 160.066 240.464 240.861C192.101 321.657 162.345 402.887 153.322 468.897C148.81 501.902 149.484 531.087 155.597 554.504C161.708 577.92 173.251 595.547 190.462 605.485C207.673 615.424 228.968 616.758 252.772 610.616C276.578 604.474 302.871 590.861 330.04 570.939C384.379 531.096 442.176 466.057 490.539 385.262Z" stroke="#4F46E5" stroke-opacity="0.3" stroke-width="0.599139"/>
<path d="M491.794 383.131C538.698 301.509 566.993 219.77 574.834 153.606C578.754 120.523 577.558 91.3489 571.03 68.0353C564.502 44.7234 552.648 27.2923 535.265 17.6472C517.882 8.00215 496.569 7.03125 472.883 13.5786C449.194 20.1263 423.154 34.1884 396.349 54.5738C342.74 95.3439 286.124 161.369 239.221 242.991C192.318 324.613 164.022 406.352 156.182 472.517C152.261 505.599 153.457 534.773 159.985 558.087C166.514 581.399 178.367 598.83 195.75 608.475C213.134 618.12 234.446 619.091 258.133 612.544C281.821 605.996 307.861 591.934 334.666 571.549C388.275 530.778 444.891 464.753 491.794 383.131Z" stroke="#4F46E5" stroke-opacity="0.3" stroke-width="0.599139"/>
<path d="M492.994 380.982C538.424 298.559 565.249 216.335 571.905 150.036C575.233 116.886 573.517 87.7315 566.573 64.5288C559.631 41.3276 547.47 24.0981 529.92 14.7492C512.37 5.40021 491.047 4.79263 467.485 11.7439C443.922 18.6956 418.141 33.2019 391.709 54.0446C338.846 95.7295 283.428 162.721 237.999 245.145C192.569 327.568 165.743 409.791 159.088 476.09C155.76 509.241 157.476 538.395 164.419 561.598C171.362 584.799 183.523 602.028 201.073 611.377C218.623 620.726 239.946 621.334 263.508 614.383C287.071 607.431 312.852 592.925 339.284 572.082C392.147 530.397 447.565 463.405 492.994 380.982Z" stroke="#4F46E5" stroke-opacity="0.3" stroke-width="0.599139"/>
<path d="M494.18 378.81C538.122 295.61 563.47 212.928 568.939 146.514C571.673 113.306 569.436 84.1805 562.081 61.0957C554.726 38.0124 542.261 20.9898 524.549 11.9398C506.838 2.88982 485.511 2.64574 462.081 9.99883C438.65 17.3524 413.136 32.2985 387.086 53.5923C334.985 96.1791 280.782 164.117 236.84 247.317C192.898 330.516 167.551 413.198 162.082 479.612C159.347 512.82 161.584 541.946 168.94 565.031C176.295 588.114 188.76 605.136 206.471 614.186C224.182 623.236 245.509 623.48 268.939 616.127C292.371 608.774 317.884 593.828 343.935 572.534C396.035 529.947 450.238 462.009 494.18 378.81Z" stroke="#4F46E5" stroke-opacity="0.3" stroke-width="0.599139"/>
<path d="M495.311 376.615C537.752 292.665 561.615 209.549 565.895 143.04C568.035 109.785 565.279 80.6966 557.513 57.7366C549.748 34.7782 536.983 17.9678 519.115 9.2195C501.248 0.471206 479.924 0.590706 456.633 8.34338C433.34 16.0965 408.102 31.4779 382.441 53.2162C331.118 96.6922 278.147 165.556 235.706 249.506C193.265 333.456 169.403 416.572 165.122 483.081C162.982 516.336 165.739 545.424 173.504 568.384C181.269 591.343 194.034 608.153 211.902 616.901C229.769 625.65 251.093 625.53 274.384 617.777C297.677 610.024 322.915 594.643 348.577 572.905C399.899 529.429 452.871 460.565 495.311 376.615Z" stroke="#4F46E5" stroke-opacity="0.3" stroke-width="0.599139"/>
<path d="M496.389 374.402C537.316 289.727 559.686 206.202 562.776 139.619C564.321 106.326 561.046 77.2848 552.873 54.4567C544.7 31.6303 531.639 15.037 513.621 6.59309C495.603 -1.85081 474.288 -1.36772 451.143 6.78208C427.996 14.9325 403.041 30.7444 377.776 52.9207C327.248 97.2725 275.524 167.041 234.597 251.716C193.67 336.391 171.301 419.916 168.21 486.499C166.665 519.791 169.94 548.833 178.114 571.661C186.286 594.487 199.348 611.081 217.366 619.525C235.384 627.969 256.699 627.485 279.844 619.336C302.99 611.185 327.945 595.373 353.21 573.197C403.739 528.845 455.462 459.077 496.389 374.402Z" stroke="#4F46E5" stroke-opacity="0.3" stroke-width="0.599139"/>
<path d="M497.446 372.176C536.847 286.802 557.716 202.894 559.616 136.257C560.566 102.937 556.772 73.9509 548.194 51.2617C539.616 28.5741 526.262 12.2031 508.099 4.06616C489.936 -4.07078 468.637 -3.22431 445.645 5.32025C422.652 13.8655 397.988 30.1031 373.127 52.7106C323.407 97.9246 272.947 168.576 233.546 253.951C194.146 339.326 173.276 423.233 171.377 489.871C170.427 523.19 174.22 552.176 182.798 574.865C191.376 597.553 204.73 613.924 222.893 622.061C241.056 630.198 262.356 629.351 285.347 620.807C308.341 612.262 333.005 596.024 357.865 573.417C407.585 528.203 458.045 457.551 497.446 372.176Z" stroke="#4F46E5" stroke-opacity="0.3" stroke-width="0.599139"/>
<path d="M498.472 369.927C536.334 283.879 555.698 199.614 556.406 132.943C556.76 99.6064 552.45 70.6841 543.469 48.1406C534.489 25.5988 520.847 9.4551 502.544 1.6276C484.242 -6.19991 462.964 -4.99027 440.133 3.94638C417.299 12.8837 392.933 29.5422 368.485 52.5739C319.589 98.6365 270.408 170.149 232.546 256.198C194.684 342.246 175.32 426.511 174.612 493.182C174.258 526.519 178.568 555.441 187.549 577.984C196.529 600.526 210.171 616.67 228.474 624.497C246.776 632.325 268.054 631.115 290.885 622.179C313.718 613.241 338.084 596.583 362.533 573.551C411.429 527.488 460.61 455.975 498.472 369.927Z" stroke="#4F46E5" stroke-opacity="0.3" stroke-width="0.599139"/>
<path d="M499.427 367.664C535.739 280.968 553.59 196.371 553.107 129.687C552.866 96.3438 548.04 67.4944 538.659 45.1035C529.279 22.7143 515.353 6.8028 496.917 -0.712881C478.48 -8.22856 457.231 -6.65619 434.567 2.66995C411.901 11.9967 387.84 29.0709 363.811 52.5199C315.755 99.417 267.867 171.77 231.555 258.465C195.242 345.161 177.391 429.758 177.874 496.443C178.116 529.786 182.941 558.635 192.322 581.026C201.703 603.415 215.629 619.327 234.065 626.842C252.502 634.358 273.751 632.786 296.415 623.459C319.081 614.133 343.141 597.058 367.17 573.609C415.227 526.712 463.114 454.359 499.427 367.664Z" stroke="#4F46E5" stroke-opacity="0.3" stroke-width="0.599139"/>
<path d="M500.364 365.379C535.115 278.063 551.449 193.159 549.774 126.482C548.937 93.1423 543.598 64.3744 533.82 42.1431C524.042 19.9133 509.837 4.23881 491.272 -2.96274C472.707 -10.1643 451.493 -8.22964 429.002 1.48307C406.511 11.1964 382.763 28.6812 359.161 52.5403C311.958 100.258 265.379 173.428 230.628 260.745C195.876 348.061 179.542 432.964 181.217 499.642C182.054 532.982 187.393 561.749 197.172 583.981C206.949 606.211 221.155 621.885 239.719 629.087C258.284 636.288 279.498 634.353 301.989 624.641C324.481 614.927 348.228 597.443 371.83 573.584C419.033 525.866 465.612 452.695 500.364 365.379Z" stroke="#4F46E5" stroke-opacity="0.3" stroke-width="0.599139"/>
<path d="M501.252 363.081C534.432 275.17 549.243 189.986 546.378 123.336C544.945 90.0101 539.094 61.3327 528.922 39.2675C518.75 17.204 504.269 1.77134 485.581 -5.1139C466.894 -11.9991 445.721 -9.70273 423.412 0.39352C401.101 10.4905 377.674 28.3804 354.506 52.6424C308.17 101.165 262.914 175.132 229.734 263.042C196.554 350.953 181.743 436.137 184.609 502.787C186.041 536.113 191.893 564.79 202.065 586.855C212.236 608.919 226.718 624.352 245.405 631.237C264.093 638.122 285.265 635.826 307.575 625.729C329.886 615.632 353.313 597.743 376.481 573.481C422.816 524.958 468.072 450.991 501.252 363.081Z" stroke="#4F46E5" stroke-opacity="0.3" stroke-width="0.599139"/>
<path d="M502.104 360.768C533.703 272.29 546.987 186.852 542.932 120.249C540.904 86.9473 534.542 58.3691 523.979 36.4769C513.416 14.5863 498.664 -0.599866 479.86 -7.16669C461.055 -13.7335 439.931 -11.0761 417.809 -0.599307C395.685 9.87826 372.585 28.1679 349.858 52.8254C304.405 102.139 260.486 176.879 228.887 265.357C197.289 353.835 184.005 439.273 188.06 505.876C190.088 539.178 196.45 567.756 207.013 589.648C217.575 611.539 232.328 626.725 251.132 633.292C269.937 639.859 291.061 637.201 313.183 626.725C335.307 616.247 358.407 597.957 381.133 573.3C426.586 523.986 470.506 449.247 502.104 360.768Z" stroke="#4F46E5" stroke-opacity="0.3" stroke-width="0.599139"/>
<path d="M502.911 358.441C532.918 269.422 544.671 183.756 539.427 117.221C536.805 83.9526 529.934 55.4822 518.983 33.7697C508.033 12.0587 493.014 -2.87632 474.099 -9.12272C455.183 -15.3691 434.113 -12.3515 412.185 -1.49736C390.256 9.35754 367.491 28.0414 345.212 53.0868C300.655 103.177 258.085 178.666 228.078 267.685C198.071 356.704 186.317 442.37 191.562 508.905C194.184 542.173 201.054 570.644 212.005 592.356C222.955 614.067 237.974 629.002 256.89 635.249C275.806 641.495 296.876 638.477 318.803 627.623C340.732 616.768 363.498 598.084 385.777 573.039C430.334 522.949 472.904 447.46 502.911 358.441Z" stroke="#4F46E5" stroke-opacity="0.3" stroke-width="0.599139"/>
<path d="M503.673 356.098C532.08 266.566 542.298 180.698 535.867 114.25C532.651 81.026 525.274 52.6722 513.939 31.1459C502.604 9.62107 487.324 -5.05819 468.302 -10.9823C449.281 -16.9063 428.272 -13.5295 406.545 -2.30128C384.818 8.92773 362.393 28 340.569 53.4258C296.922 104.276 255.714 180.493 227.308 270.025C198.901 359.557 188.682 445.426 195.114 511.873C198.33 545.097 205.707 573.451 217.042 594.977C228.376 616.502 243.657 631.181 262.678 637.105C281.7 643.03 302.709 639.653 324.435 628.424C346.163 617.195 368.588 598.123 390.412 572.697C434.059 521.847 475.266 445.63 503.673 356.098Z" stroke="#4F46E5" stroke-opacity="0.3" stroke-width="0.599139"/>
<path d="M504.413 353.741C531.21 263.723 539.892 177.679 532.275 111.34C528.466 78.1699 520.585 49.9412 508.869 28.6076C497.154 7.27563 481.615 -7.14348 462.495 -12.7434C443.374 -18.3433 422.431 -14.6083 400.913 -3.00945C379.393 8.59018 357.316 28.0452 335.954 53.8435C293.229 105.439 253.397 182.36 226.6 272.378C199.802 362.397 191.121 448.441 198.738 514.78C202.546 547.95 210.427 576.179 222.143 597.512C233.859 618.844 249.397 633.263 268.518 638.863C287.639 644.463 308.581 640.728 330.1 629.129C351.62 617.53 373.696 598.075 395.059 572.276C437.783 520.681 477.615 443.76 504.413 353.741Z" stroke="#4F46E5" stroke-opacity="0.3" stroke-width="0.599139"/>
<path d="M505.09 351.376C530.27 260.899 537.411 174.705 528.612 108.494C524.212 75.3883 515.829 47.2933 503.735 26.1591C491.642 5.02632 475.852 -9.12821 456.637 -14.4023C437.422 -19.6764 416.553 -15.5842 395.249 -3.61831C373.943 8.34844 352.222 28.1802 331.327 54.3433C289.538 106.668 251.094 184.27 225.913 274.747C200.733 365.224 193.592 451.418 202.392 517.629C206.792 550.734 215.175 578.829 227.268 599.964C239.361 621.096 255.152 635.251 274.367 640.525C293.581 645.799 314.45 641.707 335.755 629.741C357.06 617.774 378.782 597.942 399.677 571.779C441.465 519.454 479.91 441.853 505.09 351.376Z" stroke="#4F46E5" stroke-opacity="0.3" stroke-width="0.599139"/>
<path d="M505.727 348.997C529.282 258.088 534.881 171.771 524.901 105.709C519.911 72.6774 511.029 44.7248 498.561 23.7962C486.095 2.86922 470.056 -11.0165 450.754 -15.9631C431.451 -20.9097 410.662 -16.4617 389.578 -4.13235C368.493 8.19785 347.133 28.4003 326.713 54.9201C285.873 107.959 248.827 186.217 225.272 277.126C201.717 368.034 196.118 454.351 206.098 520.413C211.088 553.445 219.97 581.397 232.438 602.326C244.904 623.253 260.943 637.138 280.245 642.085C299.548 647.032 320.337 642.584 341.421 630.254C362.506 617.924 383.866 597.722 404.286 571.202C445.126 518.163 482.172 439.905 505.727 348.997Z" stroke="#4F46E5" stroke-opacity="0.3" stroke-width="0.599139"/>
<path d="M506.325 346.606C528.248 255.294 532.303 168.879 521.146 102.986C515.567 70.039 506.188 42.2373 493.351 21.5208C480.515 0.80589 464.233 -12.8067 444.848 -17.4244C425.463 -22.042 404.761 -17.2395 383.904 -4.55051C363.046 8.13947 342.054 28.7065 322.115 55.575C282.235 109.311 246.601 188.203 224.677 279.514C202.754 370.826 198.7 457.241 209.857 523.134C215.435 556.081 224.814 583.883 237.652 604.599C250.488 625.314 266.769 638.927 286.154 643.545C305.539 648.162 326.242 643.36 347.098 630.671C367.956 617.981 388.948 597.414 408.888 570.545C448.767 516.809 484.402 437.917 506.325 346.606Z" stroke="#4F46E5" stroke-opacity="0.3" stroke-width="0.599139"/>
<path d="M506.885 344.21C527.17 252.522 529.679 166.037 517.348 100.332C511.183 67.4795 501.31 39.837 488.107 19.339C474.904 -1.15758 458.385 -14.4929 438.924 -18.7802C419.463 -23.0675 398.853 -17.9119 378.23 -4.86708C357.606 8.17867 336.988 29.1041 317.534 56.313C278.629 110.73 244.415 190.231 224.13 281.918C203.846 373.605 201.337 460.091 213.668 525.795C219.833 558.648 229.706 586.291 242.909 606.789C256.112 627.285 272.631 640.621 292.092 644.908C311.553 649.195 332.163 644.04 352.786 630.995C373.41 617.949 394.028 597.024 413.481 569.815C452.387 515.398 486.601 435.897 506.885 344.21Z" stroke="#4F46E5" stroke-opacity="0.3" stroke-width="0.599139"/>
<path d="M507.389 341.798C526.029 249.763 526.991 163.233 513.491 97.737C506.74 64.9886 496.377 37.5138 482.811 17.2405C469.247 -3.03147 452.495 -16.0854 432.964 -20.0411C413.432 -23.9967 392.921 -18.4896 372.538 -5.09297C352.153 8.30466 331.916 29.5819 312.956 57.1231C275.035 112.204 242.253 192.29 223.613 284.325C204.974 376.36 204.011 462.891 217.512 528.386C224.262 561.135 234.626 588.609 248.191 608.883C261.755 629.155 278.507 642.209 298.039 646.164C317.57 650.12 338.081 644.613 358.464 631.216C378.849 617.818 399.086 596.541 418.047 569C455.968 513.919 488.75 433.833 507.389 341.798Z" stroke="#4F46E5" stroke-opacity="0.3" stroke-width="0.599139"/>
</g>
</svg>
